<svg width="305" height="136" viewBox="0 0 305 136" fill="none" xmlns="http://www.w3.org/2000/svg">
<g clip-path="url(#clip0_533_1955)">
<path d="M1.41397 134.598L303.602 134.598V33.4004L1.41397 33.4004V134.598Z" fill="#4AE6CA"/>
<path d="M2.63443 33.4014H302.366C303.042 33.4014 303.6 33.9477 303.6 34.6365V133.363C303.6 134.04 303.054 134.599 302.366 134.599H2.63443C1.95802 134.599 1.40028 134.052 1.40028 133.363V34.6365C1.40028 33.9596 1.94615 33.4014 2.63443 33.4014ZM2.63443 32C1.17481 32 0 33.1757 0 34.6365V133.363C0 134.812 1.17481 136 2.63443 136H302.366C303.813 136 305 134.824 305 133.363V34.6365C305 33.1757 303.813 32 302.366 32H2.63443Z" fill="#0F594B"/>
<path d="M12.4232 123.566L292.574 123.566V44.4352L12.4232 44.4352V123.566Z" fill="#0F594B"/>
<mask id="mask0_533_1955" style="mask-type:luminance" maskUnits="userSpaceOnUse" x="12" y="44" width="281" height="80">
<path d="M12.4272 123.564L292.578 123.564V44.4333L12.4272 44.4333V123.564Z" fill="white"/>
</mask>
<g mask="url(#mask0_533_1955)">
<path d="M39.5792 103.469C50.3471 103.469 59.0763 94.7325 59.0763 83.956C59.0763 73.1795 50.3471 64.4434 39.5792 64.4434C28.8112 64.4434 20.082 73.1795 20.082 83.956C20.082 94.7325 28.8112 103.469 39.5792 103.469Z" fill="#4DD3B8"/>
<path d="M39.5893 103.956C28.565 103.956 19.5938 94.978 19.5938 83.945C19.5938 72.912 28.565 63.9336 39.5893 63.9336C50.6135 63.9336 59.5848 72.912 59.5848 83.945C59.5848 94.978 50.6135 103.956 39.5893 103.956ZM39.5893 64.9312C29.1109 64.9312 20.5906 73.4583 20.5906 83.945C20.5906 94.4317 29.1109 102.959 39.5893 102.959C50.0676 102.959 58.588 94.4317 58.588 83.945C58.588 73.4583 50.0676 64.9312 39.5893 64.9312Z" fill="#13604E"/>
<path d="M33.0762 96.962C40.2526 96.962 46.0703 91.1397 46.0703 83.9576C46.0703 76.7754 40.2526 70.9531 33.0762 70.9531C25.8997 70.9531 20.082 76.7754 20.082 83.9576C20.082 91.1397 25.8997 96.962 33.0762 96.962Z" fill="#13604E"/>
<path d="M20.0948 83.9569C30.8627 83.9569 39.5919 75.2208 39.5919 64.4443C39.5919 53.6677 30.8627 44.9316 20.0948 44.9316C9.32682 44.9316 0.597656 53.6677 0.597656 64.4443C0.597656 75.2208 9.32682 83.9569 20.0948 83.9569Z" fill="#4DD3B8"/>
<path d="M20.0932 84.4446C9.06894 84.4446 0.0976562 75.478 0.0976562 64.445C0.0976562 53.412 9.06894 44.4336 20.0932 44.4336C31.1174 44.4336 40.0887 53.412 40.0887 64.445C40.0887 75.478 31.1174 84.4564 20.0932 84.4564V84.4446ZM20.0932 45.4193C9.61482 45.4312 1.09447 53.9583 1.09447 64.445C1.09447 74.9317 9.61482 83.4588 20.0932 83.4588C30.5716 83.4588 39.0919 74.9317 39.0919 64.445C39.0919 53.9583 30.5716 45.4312 20.0932 45.4312V45.4193Z" fill="#13604E"/>
<path d="M20.0948 122.982C30.8627 122.982 39.5919 114.246 39.5919 103.47C39.5919 92.6931 30.8627 83.957 20.0948 83.957C9.32682 83.957 0.597656 92.6931 0.597656 103.47C0.597656 114.246 9.32682 122.982 20.0948 122.982Z" fill="#4DD3B8"/>
<path d="M20.0932 123.47C9.06894 123.47 0.0976562 114.503 0.0976562 103.47C0.0976562 92.4374 9.06894 83.459 20.0932 83.459C31.1174 83.459 40.0887 92.4374 40.0887 103.47C40.0887 114.503 31.1174 123.482 20.0932 123.482V123.47ZM20.0932 84.4447C9.61482 84.4447 1.09447 92.9837 1.09447 103.47C1.09447 113.957 9.61482 122.484 20.0932 122.484C30.5716 122.484 39.0919 113.957 39.0919 103.47C39.0919 92.9837 30.5716 84.4566 20.0932 84.4566V84.4447Z" fill="#13604E"/>
<path d="M0.59567 64.4454C0.59567 64.4454 0.132866 52.4148 13.5779 51.4409C27.1535 50.4552 30.3813 60.8231 30.7373 62.6521C31.1645 64.8492 31.0221 67.1056 29.0403 70.241C28.2453 71.4998 26.3466 74.2314 21.1371 75.0152C21.1371 75.0152 13.0558 75.7515 11.43 67.7351C11.43 67.7351 10.7892 62.177 16.0462 61.1319C16.0462 61.1319 17.6245 60.8825 18.289 61.5476C18.289 61.5476 19.4283 62.8421 18.0517 63.6853C17.138 64.2435 15.1443 64.0891 14.7409 66.8206C14.3611 69.3621 16.9362 70.9179 18.2653 71.3336C21.8491 72.4618 24.3174 71.7255 26.3229 69.6709C26.3229 69.6709 29.9897 66.6543 28.0317 61.1913C25.5396 54.2437 19.3215 52.2129 13.6135 52.6048C13.6135 52.6048 1.45008 52.9254 0.89234 67.7351C0.89234 67.7351 0.607537 65.4786 0.619404 64.4454H0.59567Z" fill="#13604E"/>
<path d="M0.595535 103.459C0.595535 103.459 0.144597 91.4284 13.5778 90.4546C27.1534 89.4689 30.3812 99.8368 30.7372 101.666C31.1644 103.863 31.022 106.119 29.0402 109.255C28.2451 110.514 26.3464 113.245 21.1369 114.029C21.1369 114.029 13.0557 114.765 11.4299 106.749C11.4299 106.749 10.7891 101.191 16.0461 100.146C16.0461 100.146 17.6244 99.8962 18.2889 100.561C18.2889 100.561 19.4281 101.856 18.0516 102.699C17.1378 103.257 15.1442 103.103 14.7407 105.834C14.361 108.376 16.9361 109.932 18.2652 110.347C21.8489 111.475 24.3172 110.739 26.3227 108.685C26.3227 108.685 29.9896 105.668 28.0315 100.205C25.5395 93.2574 19.3213 91.2265 13.6134 91.6185C13.6134 91.6185 1.44994 91.9391 0.892204 106.749C0.892204 106.749 0.607402 104.492 0.619268 103.459H0.595535Z" fill="#13604E"/>
<path d="M0.597656 64.4434C11.3608 64.4434 20.0948 73.1843 20.0948 83.956C20.0948 94.7277 11.3608 103.469 0.597656 103.469V64.4434Z" fill="#4DD3B8"/>
<path d="M0.597656 63.9453C11.6219 63.9453 20.5932 72.9237 20.5932 83.9567C20.5932 94.9897 11.6219 103.956 0.597656 103.956V63.9453ZM0.597656 102.971C11.076 102.971 19.5964 94.4434 19.5964 83.9567C19.5964 73.47 11.0642 64.931 0.597656 64.931V102.971Z" fill="#13604E"/>
<path d="M265.368 103.469C276.136 103.469 284.865 94.7325 284.865 83.956C284.865 73.1795 276.136 64.4434 265.368 64.4434C254.6 64.4434 245.871 73.1795 245.871 83.956C245.871 94.7325 254.6 103.469 265.368 103.469Z" fill="#4DD3B8"/>
<path d="M245.383 83.9567C245.383 72.9237 254.354 63.9453 265.378 63.9453C276.403 63.9453 285.374 72.9237 285.374 83.9567C285.374 94.9897 276.403 103.968 265.378 103.968C254.354 103.968 245.383 94.9897 245.383 83.9567ZM246.38 83.9567C246.38 94.4434 254.9 102.971 265.378 102.971C275.857 102.971 284.377 94.4434 284.377 83.9567C284.377 73.47 275.857 64.9429 265.378 64.9429C254.9 64.9429 246.38 73.47 246.38 83.9567Z" fill="#13604E"/>
<path d="M271.881 96.962C279.057 96.962 284.875 91.1397 284.875 83.9576C284.875 76.7754 279.057 70.9531 271.881 70.9531C264.704 70.9531 258.887 76.7754 258.887 83.9576C258.887 91.1397 264.704 96.962 271.881 96.962Z" fill="#13604E"/>
<path d="M284.864 83.9569C295.632 83.9569 304.361 75.2208 304.361 64.4443C304.361 53.6677 295.632 44.9316 284.864 44.9316C274.096 44.9316 265.367 53.6677 265.367 64.4443C265.367 75.2208 274.096 83.9569 284.864 83.9569Z" fill="#4DD3B8"/>
<path d="M264.867 64.445C264.867 53.412 273.838 44.4336 284.863 44.4336C295.887 44.4336 304.858 53.412 304.858 64.445C304.858 75.478 295.887 84.4564 284.863 84.4564C273.838 84.4564 264.867 75.478 264.867 64.445ZM265.864 64.445C265.864 74.9317 274.384 83.4588 284.863 83.4588C295.341 83.4588 303.861 74.9317 303.861 64.445C303.861 53.9583 295.341 45.4312 284.863 45.4312C274.384 45.4312 265.864 53.9583 265.864 64.445Z" fill="#13604E"/>
<path d="M284.864 122.982C295.632 122.982 304.361 114.246 304.361 103.47C304.361 92.6931 295.632 83.957 284.864 83.957C274.096 83.957 265.367 92.6931 265.367 103.47C265.367 114.246 274.096 122.982 284.864 122.982Z" fill="#4DD3B8"/>
<path d="M264.867 103.47C264.867 92.4374 273.838 83.459 284.863 83.459C295.887 83.459 304.858 92.4374 304.858 103.47C304.858 114.503 295.887 123.482 284.863 123.482C273.838 123.482 264.867 114.503 264.867 103.47ZM265.864 103.47C265.864 113.957 274.384 122.484 284.863 122.484C295.341 122.484 303.861 113.957 303.861 103.47C303.861 92.9837 295.341 84.4566 284.863 84.4566C274.384 84.4566 265.864 92.9837 265.864 103.47Z" fill="#13604E"/>
<path d="M304.362 64.4454C304.362 64.4454 304.813 52.4148 291.38 51.4409C277.804 50.4552 274.577 60.8231 274.221 62.6521C273.793 64.8492 273.936 67.1056 275.917 70.241C276.713 71.4998 278.611 74.2314 283.821 75.0152C283.821 75.0152 291.902 75.7515 293.528 67.7351C293.528 67.7351 294.169 62.177 288.912 61.1319C288.912 61.1319 287.333 60.8825 286.669 61.5476C286.669 61.5476 285.53 62.8421 286.906 63.6853C287.82 64.2435 289.813 64.0891 290.217 66.8206C290.597 69.3621 288.022 70.9179 286.692 71.3336C283.109 72.4618 280.64 71.7255 278.635 69.6709C278.635 69.6709 274.968 66.6543 276.926 61.1913C279.418 54.2437 285.636 52.2129 291.344 52.6048C291.344 52.6048 303.508 52.9254 304.065 67.7351C304.065 67.7351 304.35 65.4786 304.338 64.4454H304.362Z" fill="#13604E"/>
<path d="M304.362 103.459C304.362 103.459 304.813 91.4284 291.38 90.4546C277.804 89.4689 274.577 99.8368 274.221 101.666C273.793 103.863 273.936 106.119 275.917 109.255C276.713 110.514 278.611 113.245 283.821 114.029C283.821 114.029 291.902 114.765 293.528 106.749C293.528 106.749 294.169 101.191 288.912 100.146C288.912 100.146 287.333 99.8962 286.669 100.561C286.669 100.561 285.53 101.856 286.906 102.699C287.82 103.257 289.813 103.103 290.217 105.834C290.597 108.376 288.022 109.932 286.692 110.347C283.109 111.475 280.64 110.739 278.635 108.685C278.635 108.685 274.968 105.668 276.926 100.205C279.418 93.2574 285.636 91.2265 291.344 91.6185C291.344 91.6185 303.508 91.9391 304.065 106.749C304.065 106.749 304.35 104.492 304.338 103.459H304.362Z" fill="#13604E"/>
<path d="M304.36 64.4434C293.597 64.4434 284.863 73.1843 284.863 83.956C284.863 94.7277 293.597 103.469 304.36 103.469V64.4434Z" fill="#4DD3B8"/>
<path d="M304.359 103.956C293.335 103.956 284.363 94.978 284.363 83.945C284.363 72.912 293.335 63.9336 304.359 63.9336V103.956ZM304.359 64.9312C293.88 64.9312 285.36 73.4583 285.36 83.945C285.36 94.4317 293.88 102.959 304.359 102.959V64.9312Z" fill="#13604E"/>
</g>
<path d="M12.4237 44.4346H292.575V123.566H12.4237V44.4346ZM12.4237 43.0332C11.6524 43.0332 11.0234 43.6626 11.0234 44.4346V123.566C11.0234 124.338 11.6524 124.967 12.4237 124.967H292.575C293.346 124.967 293.975 124.338 293.975 123.566V44.4346C293.975 43.6626 293.346 43.0332 292.575 43.0332H12.4237Z" fill="#0F594B"/>
</g>
<path d="M114.531 71.2344H113.007V68.5391H114.531V71.2344ZM109.511 62.1719H118.105V60.5117H119.628V66.2148H107.988V60.5117H109.511V62.1719ZM118.105 65.0234V63.3438H109.511V65.0234H118.105ZM121.699 68.9297H105.878V67.6602H121.699V68.9297ZM119.668 74.4766H109.355V76.6445H107.832V73.3438H118.164V71.8008H107.793V70.6289H119.668V74.4766ZM120.195 77.3867H107.832V76.1758H120.195V77.3867ZM131.074 60.5312C132.356 60.5312 133.457 60.6452 134.375 60.873C135.299 61.1009 136.002 61.4395 136.484 61.8887C136.966 62.3379 137.207 62.8815 137.207 63.5195C137.207 64.1706 136.966 64.724 136.484 65.1797C136.002 65.6354 135.302 65.9805 134.384 66.2148C133.466 66.4427 132.363 66.5599 131.074 66.5664C129.778 66.5599 128.671 66.4427 127.753 66.2148C126.842 65.9805 126.142 65.6354 125.654 65.1797C125.166 64.724 124.921 64.1706 124.921 63.5195C124.921 62.8815 125.166 62.3379 125.654 61.8887C126.142 61.4395 126.845 61.1009 127.763 60.873C128.681 60.6452 129.785 60.5312 131.074 60.5312ZM131.074 61.6836C130.117 61.6836 129.296 61.7585 128.613 61.9082C127.936 62.0579 127.415 62.2695 127.05 62.543C126.692 62.8164 126.517 63.1419 126.523 63.5195C126.517 63.9167 126.692 64.2585 127.05 64.5449C127.415 64.8249 127.936 65.0365 128.613 65.1797C129.296 65.3229 130.117 65.3945 131.074 65.3945C132.031 65.3945 132.851 65.3229 133.535 65.1797C134.225 65.0365 134.749 64.8249 135.107 64.5449C135.465 64.265 135.644 63.9232 135.644 63.5195C135.644 63.1419 135.465 62.8164 135.107 62.543C134.749 62.2695 134.225 62.0579 133.535 61.9082C132.845 61.7585 132.024 61.6836 131.074 61.6836ZM138.984 68.9883H123.164V67.7383H138.984V68.9883ZM136.953 74.3789H126.64V76.4883H125.117V73.2461H135.449V71.6641H125.078V70.4922H136.953V74.3789ZM137.48 77.3867H125.117V76.1758H137.48V77.3867ZM159.824 77.582H158.281V60.2188H159.824V77.582ZM155.82 63.3828H145.898V62.1133H155.82V63.3828ZM145.449 71.9766C147.558 71.9701 149.55 71.9342 151.425 71.8691C153.3 71.7975 155.065 71.6641 156.718 71.4688L156.816 72.6211C155.136 72.8815 153.392 73.054 151.582 73.1387C149.778 73.2233 147.793 73.2721 145.625 73.2852L145.449 71.9766ZM149.355 72.3086H147.851V63.0508H149.355V72.3086ZM153.847 72.3086H152.343V63.0508H153.847V72.3086ZM171.406 71.0586H169.882V68.3828H171.406V71.0586ZM170.664 60.4336C171.946 60.4336 173.046 60.5508 173.964 60.7852C174.889 61.0195 175.592 61.3613 176.074 61.8105C176.556 62.2598 176.796 62.8034 176.796 63.4414C176.796 64.0859 176.556 64.6361 176.074 65.0918C175.592 65.541 174.892 65.8828 173.974 66.1172C173.056 66.3451 171.953 66.4622 170.664 66.4688C169.368 66.4622 168.261 66.3451 167.343 66.1172C166.432 65.8828 165.732 65.541 165.244 65.0918C164.755 64.6361 164.511 64.0859 164.511 63.4414C164.511 62.8034 164.755 62.2598 165.244 61.8105C165.732 61.3613 166.435 61.0195 167.353 60.7852C168.271 60.5508 169.375 60.4336 170.664 60.4336ZM170.664 61.6055C169.707 61.612 168.886 61.6901 168.203 61.8398C167.526 61.9831 167.005 62.1914 166.64 62.4648C166.282 62.7383 166.106 63.0638 166.113 63.4414C166.106 63.832 166.282 64.1641 166.64 64.4375C167.005 64.7109 167.526 64.9225 168.203 65.0723C168.88 65.2155 169.7 65.2904 170.664 65.2969C171.627 65.2904 172.451 65.2155 173.134 65.0723C173.818 64.9225 174.339 64.7109 174.697 64.4375C175.055 64.1641 175.234 63.832 175.234 63.4414C175.234 63.0638 175.055 62.7383 174.697 62.4648C174.339 62.1914 173.815 61.9831 173.125 61.8398C172.441 61.6901 171.621 61.612 170.664 61.6055ZM178.574 68.8516H162.753V67.6211H178.574V68.8516ZM176.543 74.3789H166.23V76.4883H164.707V73.2461H175.039V71.6641H164.668V70.4922H176.543V74.3789ZM177.07 77.3867H164.707V76.1758H177.07V77.3867ZM193.535 61.8398C193.535 62.8945 193.203 63.8613 192.539 64.7402C191.875 65.6191 191.005 66.3483 189.931 66.9277C188.864 67.5007 187.721 67.888 186.503 68.0898L185.878 66.8398C186.94 66.6901 187.955 66.3743 188.925 65.8926C189.902 65.4043 190.69 64.8086 191.289 64.1055C191.888 63.3958 192.187 62.6406 192.187 61.8398V60.8438H193.535V61.8398ZM193.769 61.8398C193.769 62.6276 194.075 63.3796 194.687 64.0957C195.299 64.8053 196.09 65.4043 197.06 65.8926C198.03 66.3743 199.043 66.6901 200.097 66.8398L199.472 68.0898C198.261 67.888 197.119 67.4974 196.045 66.918C194.97 66.332 194.101 65.5996 193.437 64.7207C192.773 63.8418 192.441 62.8815 192.441 61.8398V60.8438H193.769V61.8398ZM193.691 77.582H192.187V70.9609H193.691V77.582ZM200.878 71.293H185.058V70.0039H200.878V71.293ZM122.636 102.879C122.63 103.634 122.467 104.373 122.148 105.096C121.836 105.818 121.38 106.463 120.781 107.029C120.188 107.602 119.485 108.042 118.671 108.348L117.89 107.215C118.6 106.948 119.222 106.583 119.755 106.121C120.296 105.652 120.706 105.135 120.986 104.568C121.272 104.002 121.419 103.439 121.425 102.879V101.922H122.636V102.879ZM122.91 102.879C122.903 103.471 123.02 104.054 123.261 104.627C123.509 105.193 123.87 105.714 124.345 106.189C124.821 106.665 125.397 107.039 126.074 107.312L125.429 108.484C124.615 108.178 123.932 107.729 123.378 107.137C122.832 106.551 122.425 105.89 122.158 105.154C121.897 104.419 121.77 103.66 121.777 102.879V101.922H122.91V102.879ZM129.062 102.879C129.056 103.582 128.916 104.301 128.642 105.037C128.375 105.773 127.965 106.45 127.412 107.068C126.865 107.687 126.204 108.159 125.429 108.484L124.765 107.312C125.423 107.013 125.989 106.613 126.464 106.111C126.946 105.61 127.308 105.076 127.548 104.51C127.796 103.937 127.916 103.393 127.91 102.879V101.922H129.062V102.879ZM129.414 102.879C129.407 103.478 129.544 104.061 129.824 104.627C130.11 105.193 130.52 105.704 131.054 106.16C131.588 106.609 132.22 106.961 132.949 107.215L132.187 108.348C131.354 108.055 130.638 107.628 130.039 107.068C129.44 106.515 128.984 105.877 128.671 105.154C128.359 104.432 128.203 103.673 128.203 102.879V101.922H129.414V102.879ZM131.367 101.16H129.843V91.2383H131.367V101.16ZM121.992 92.2539C122.864 92.2539 123.645 92.4232 124.336 92.7617C125.026 93.1003 125.566 93.5788 125.957 94.1973C126.347 94.8158 126.543 95.5221 126.543 96.3164C126.543 97.0977 126.347 97.7943 125.957 98.4062C125.566 99.0182 125.026 99.4935 124.336 99.832C123.645 100.171 122.864 100.34 121.992 100.34C121.119 100.34 120.338 100.171 119.648 99.832C118.958 99.4935 118.418 99.0182 118.027 98.4062C117.636 97.7943 117.441 97.0977 117.441 96.3164C117.441 95.5221 117.636 94.8158 118.027 94.1973C118.418 93.5788 118.958 93.1003 119.648 92.7617C120.338 92.4232 121.119 92.2539 121.992 92.2539ZM121.992 93.5625C121.406 93.556 120.882 93.6699 120.42 93.9043C119.957 94.1322 119.593 94.4577 119.326 94.8809C119.065 95.304 118.938 95.7826 118.945 96.3164C118.938 96.8438 119.065 97.3158 119.326 97.7324C119.593 98.1426 119.954 98.4681 120.41 98.709C120.872 98.9499 121.399 99.0703 121.992 99.0703C122.578 99.0703 123.102 98.9499 123.564 98.709C124.026 98.4681 124.388 98.1426 124.648 97.7324C124.908 97.3158 125.039 96.8438 125.039 96.3164C125.039 95.7826 124.908 95.304 124.648 94.8809C124.388 94.4577 124.023 94.1322 123.554 93.9043C123.092 93.6699 122.571 93.556 121.992 93.5625ZM148.359 97.7227H136.464V96.4922H148.359V97.7227ZM150.195 101.336H134.296V100.086H150.195V101.336ZM137.988 97.1172H136.464V91.8633H137.988V97.1172ZM148.457 108.152H136.367V106.883H148.457V108.152ZM137.89 107.254H136.367V103.113H137.89V107.254ZM172.5 102.781H156.601V101.531H172.5V102.781ZM165.253 108.582H163.75V102.078H165.253V108.582ZM160.156 94.3438H168.906V91.9414H170.449V99.4219H158.632V91.9414H160.156V94.3438ZM168.906 98.1719V95.5938H160.156V98.1719H168.906ZM179.668 94.4414C179.668 95.4701 179.462 96.4434 179.052 97.3613C178.642 98.2793 178.066 99.0833 177.324 99.7734C176.588 100.464 175.742 100.984 174.785 101.336L173.984 100.125C174.83 99.819 175.589 99.3763 176.259 98.7969C176.93 98.2109 177.454 97.5404 177.832 96.7852C178.209 96.0299 178.398 95.2487 178.398 94.4414V92.9961H179.668V94.4414ZM179.941 94.4219C179.941 95.1641 180.12 95.8867 180.478 96.5898C180.836 97.293 181.341 97.918 181.992 98.4648C182.643 99.0117 183.385 99.4284 184.218 99.7148L183.418 100.926C182.487 100.587 181.663 100.092 180.947 99.4414C180.237 98.7904 179.684 98.0319 179.287 97.166C178.89 96.2936 178.691 95.3789 178.691 94.4219V92.9961H179.941V94.4219ZM187.207 97.0586H183.281V95.7695H187.207V97.0586ZM183.828 93.6797H174.472V92.4297H183.828V93.6797ZM188.3 108.582H186.757V103.816H176.621V102.547H188.3V108.582ZM188.3 101.629H186.757V91.2188H188.3V101.629Z" fill="white"/>
<path d="M16.9613 11.4448H13.7431V10.1602H16.9613V11.4448ZM14.1436 20.5746H12.6105V3.22652H14.1436V20.5746ZM2.94199 15.6713H1.42265V4.93923H2.94199V15.6713ZM2.80387 14.884C4.18508 14.884 5.53867 14.8241 6.86464 14.7044C8.19521 14.5801 9.55341 14.3729 10.9392 14.0829L11.1326 15.395C9.71455 15.6759 8.32643 15.8762 6.96823 15.9959C5.61464 16.111 4.22652 16.1685 2.80387 16.1685H1.42265V14.884H2.80387ZM19.8266 19.1105C19.601 19.1105 19.3892 19.0529 19.1912 18.9378C18.9979 18.8227 18.8436 18.6708 18.7285 18.482C18.618 18.2887 18.5651 18.0792 18.5697 17.8536C18.5651 17.628 18.618 17.4185 18.7285 17.2251C18.8436 17.0272 18.9979 16.8729 19.1912 16.7624C19.3892 16.6519 19.601 16.5967 19.8266 16.5967C20.0522 16.5967 20.2617 16.6519 20.455 16.7624C20.653 16.8729 20.8073 17.0272 20.9178 17.2251C21.0283 17.4185 21.0835 17.628 21.0835 17.8536C21.0835 18.0792 21.0283 18.2887 20.9178 18.482C20.8073 18.6708 20.653 18.8227 20.455 18.9378C20.2617 19.0529 20.0522 19.1105 19.8266 19.1105Z" fill="white"/>
<defs>
<clipPath id="clip0_533_1955">
<rect width="305" height="104" fill="white" transform="translate(0 32)"/>
</clipPath>
</defs>
</svg>
