<svg width="305" height="136" viewBox="0 0 305 136" fill="none" xmlns="http://www.w3.org/2000/svg">
<g clip-path="url(#clip0_533_2004)">
<path d="M1.41397 134.598L303.602 134.598V33.4004L1.41397 33.4004V134.598Z" fill="#4AE6CA"/>
<path d="M2.63443 33.4014H302.366C303.042 33.4014 303.6 33.9477 303.6 34.6365V133.363C303.6 134.04 303.054 134.599 302.366 134.599H2.63443C1.95802 134.599 1.40028 134.052 1.40028 133.363V34.6365C1.40028 33.9596 1.94615 33.4014 2.63443 33.4014ZM2.63443 32C1.17481 32 0 33.1757 0 34.6365V133.363C0 134.812 1.17481 136 2.63443 136H302.366C303.813 136 305 134.824 305 133.363V34.6365C305 33.1757 303.813 32 302.366 32H2.63443Z" fill="#0F594B"/>
<path d="M12.4232 123.566L292.574 123.566V44.4352L12.4232 44.4352V123.566Z" fill="#0F594B"/>
<mask id="mask0_533_2004" style="mask-type:luminance" maskUnits="userSpaceOnUse" x="12" y="44" width="281" height="80">
<path d="M12.4272 123.564L292.578 123.564V44.4333L12.4272 44.4333V123.564Z" fill="white"/>
</mask>
<g mask="url(#mask0_533_2004)">
<path d="M39.5792 103.469C50.3471 103.469 59.0763 94.7325 59.0763 83.956C59.0763 73.1795 50.3471 64.4434 39.5792 64.4434C28.8112 64.4434 20.082 73.1795 20.082 83.956C20.082 94.7325 28.8112 103.469 39.5792 103.469Z" fill="#4DD3B8"/>
<path d="M39.5893 103.956C28.565 103.956 19.5938 94.978 19.5938 83.945C19.5938 72.912 28.565 63.9336 39.5893 63.9336C50.6135 63.9336 59.5848 72.912 59.5848 83.945C59.5848 94.978 50.6135 103.956 39.5893 103.956ZM39.5893 64.9312C29.1109 64.9312 20.5906 73.4583 20.5906 83.945C20.5906 94.4317 29.1109 102.959 39.5893 102.959C50.0676 102.959 58.588 94.4317 58.588 83.945C58.588 73.4583 50.0676 64.9312 39.5893 64.9312Z" fill="#13604E"/>
<path d="M33.0762 96.962C40.2526 96.962 46.0703 91.1397 46.0703 83.9576C46.0703 76.7754 40.2526 70.9531 33.0762 70.9531C25.8997 70.9531 20.082 76.7754 20.082 83.9576C20.082 91.1397 25.8997 96.962 33.0762 96.962Z" fill="#13604E"/>
<path d="M20.0948 83.9569C30.8627 83.9569 39.5919 75.2208 39.5919 64.4443C39.5919 53.6677 30.8627 44.9316 20.0948 44.9316C9.32682 44.9316 0.597656 53.6677 0.597656 64.4443C0.597656 75.2208 9.32682 83.9569 20.0948 83.9569Z" fill="#4DD3B8"/>
<path d="M20.0932 84.4446C9.06894 84.4446 0.0976562 75.478 0.0976562 64.445C0.0976562 53.412 9.06894 44.4336 20.0932 44.4336C31.1174 44.4336 40.0887 53.412 40.0887 64.445C40.0887 75.478 31.1174 84.4564 20.0932 84.4564V84.4446ZM20.0932 45.4193C9.61482 45.4312 1.09447 53.9583 1.09447 64.445C1.09447 74.9317 9.61482 83.4588 20.0932 83.4588C30.5716 83.4588 39.0919 74.9317 39.0919 64.445C39.0919 53.9583 30.5716 45.4312 20.0932 45.4312V45.4193Z" fill="#13604E"/>
<path d="M20.0948 122.982C30.8627 122.982 39.5919 114.246 39.5919 103.47C39.5919 92.6931 30.8627 83.957 20.0948 83.957C9.32682 83.957 0.597656 92.6931 0.597656 103.47C0.597656 114.246 9.32682 122.982 20.0948 122.982Z" fill="#4DD3B8"/>
<path d="M20.0932 123.47C9.06894 123.47 0.0976562 114.503 0.0976562 103.47C0.0976562 92.4374 9.06894 83.459 20.0932 83.459C31.1174 83.459 40.0887 92.4374 40.0887 103.47C40.0887 114.503 31.1174 123.482 20.0932 123.482V123.47ZM20.0932 84.4447C9.61482 84.4447 1.09447 92.9837 1.09447 103.47C1.09447 113.957 9.61482 122.484 20.0932 122.484C30.5716 122.484 39.0919 113.957 39.0919 103.47C39.0919 92.9837 30.5716 84.4566 20.0932 84.4566V84.4447Z" fill="#13604E"/>
<path d="M0.59567 64.4454C0.59567 64.4454 0.132866 52.4148 13.5779 51.4409C27.1535 50.4552 30.3813 60.8231 30.7373 62.6521C31.1645 64.8492 31.0221 67.1056 29.0403 70.241C28.2453 71.4998 26.3466 74.2314 21.1371 75.0152C21.1371 75.0152 13.0558 75.7515 11.43 67.7351C11.43 67.7351 10.7892 62.177 16.0462 61.1319C16.0462 61.1319 17.6245 60.8825 18.289 61.5476C18.289 61.5476 19.4283 62.8421 18.0517 63.6853C17.138 64.2435 15.1443 64.0891 14.7409 66.8206C14.3611 69.3621 16.9362 70.9179 18.2653 71.3336C21.8491 72.4618 24.3174 71.7255 26.3229 69.6709C26.3229 69.6709 29.9897 66.6543 28.0317 61.1913C25.5396 54.2437 19.3215 52.2129 13.6135 52.6048C13.6135 52.6048 1.45008 52.9254 0.89234 67.7351C0.89234 67.7351 0.607537 65.4786 0.619404 64.4454H0.59567Z" fill="#13604E"/>
<path d="M0.595535 103.459C0.595535 103.459 0.144597 91.4284 13.5778 90.4546C27.1534 89.4689 30.3812 99.8368 30.7372 101.666C31.1644 103.863 31.022 106.119 29.0402 109.255C28.2451 110.514 26.3464 113.245 21.1369 114.029C21.1369 114.029 13.0557 114.765 11.4299 106.749C11.4299 106.749 10.7891 101.191 16.0461 100.146C16.0461 100.146 17.6244 99.8962 18.2889 100.561C18.2889 100.561 19.4281 101.856 18.0516 102.699C17.1378 103.257 15.1442 103.103 14.7407 105.834C14.361 108.376 16.9361 109.932 18.2652 110.347C21.8489 111.475 24.3172 110.739 26.3227 108.685C26.3227 108.685 29.9896 105.668 28.0315 100.205C25.5395 93.2574 19.3213 91.2265 13.6134 91.6185C13.6134 91.6185 1.44994 91.9391 0.892204 106.749C0.892204 106.749 0.607402 104.492 0.619268 103.459H0.595535Z" fill="#13604E"/>
<path d="M0.597656 64.4434C11.3608 64.4434 20.0948 73.1843 20.0948 83.956C20.0948 94.7277 11.3608 103.469 0.597656 103.469V64.4434Z" fill="#4DD3B8"/>
<path d="M0.597656 63.9453C11.6219 63.9453 20.5932 72.9237 20.5932 83.9567C20.5932 94.9897 11.6219 103.956 0.597656 103.956V63.9453ZM0.597656 102.971C11.076 102.971 19.5964 94.4434 19.5964 83.9567C19.5964 73.47 11.0642 64.931 0.597656 64.931V102.971Z" fill="#13604E"/>
<path d="M265.368 103.469C276.136 103.469 284.865 94.7325 284.865 83.956C284.865 73.1795 276.136 64.4434 265.368 64.4434C254.6 64.4434 245.871 73.1795 245.871 83.956C245.871 94.7325 254.6 103.469 265.368 103.469Z" fill="#4DD3B8"/>
<path d="M245.383 83.9567C245.383 72.9237 254.354 63.9453 265.378 63.9453C276.403 63.9453 285.374 72.9237 285.374 83.9567C285.374 94.9897 276.403 103.968 265.378 103.968C254.354 103.968 245.383 94.9897 245.383 83.9567ZM246.38 83.9567C246.38 94.4434 254.9 102.971 265.378 102.971C275.857 102.971 284.377 94.4434 284.377 83.9567C284.377 73.47 275.857 64.9429 265.378 64.9429C254.9 64.9429 246.38 73.47 246.38 83.9567Z" fill="#13604E"/>
<path d="M271.881 96.962C279.057 96.962 284.875 91.1397 284.875 83.9576C284.875 76.7754 279.057 70.9531 271.881 70.9531C264.704 70.9531 258.887 76.7754 258.887 83.9576C258.887 91.1397 264.704 96.962 271.881 96.962Z" fill="#13604E"/>
<path d="M284.864 83.9569C295.632 83.9569 304.361 75.2208 304.361 64.4443C304.361 53.6677 295.632 44.9316 284.864 44.9316C274.096 44.9316 265.367 53.6677 265.367 64.4443C265.367 75.2208 274.096 83.9569 284.864 83.9569Z" fill="#4DD3B8"/>
<path d="M264.867 64.445C264.867 53.412 273.838 44.4336 284.863 44.4336C295.887 44.4336 304.858 53.412 304.858 64.445C304.858 75.478 295.887 84.4564 284.863 84.4564C273.838 84.4564 264.867 75.478 264.867 64.445ZM265.864 64.445C265.864 74.9317 274.384 83.4588 284.863 83.4588C295.341 83.4588 303.861 74.9317 303.861 64.445C303.861 53.9583 295.341 45.4312 284.863 45.4312C274.384 45.4312 265.864 53.9583 265.864 64.445Z" fill="#13604E"/>
<path d="M284.864 122.982C295.632 122.982 304.361 114.246 304.361 103.47C304.361 92.6931 295.632 83.957 284.864 83.957C274.096 83.957 265.367 92.6931 265.367 103.47C265.367 114.246 274.096 122.982 284.864 122.982Z" fill="#4DD3B8"/>
<path d="M264.867 103.47C264.867 92.4374 273.838 83.459 284.863 83.459C295.887 83.459 304.858 92.4374 304.858 103.47C304.858 114.503 295.887 123.482 284.863 123.482C273.838 123.482 264.867 114.503 264.867 103.47ZM265.864 103.47C265.864 113.957 274.384 122.484 284.863 122.484C295.341 122.484 303.861 113.957 303.861 103.47C303.861 92.9837 295.341 84.4566 284.863 84.4566C274.384 84.4566 265.864 92.9837 265.864 103.47Z" fill="#13604E"/>
<path d="M304.362 64.4454C304.362 64.4454 304.813 52.4148 291.38 51.4409C277.804 50.4552 274.577 60.8231 274.221 62.6521C273.793 64.8492 273.936 67.1056 275.917 70.241C276.713 71.4998 278.611 74.2314 283.821 75.0152C283.821 75.0152 291.902 75.7515 293.528 67.7351C293.528 67.7351 294.169 62.177 288.912 61.1319C288.912 61.1319 287.333 60.8825 286.669 61.5476C286.669 61.5476 285.53 62.8421 286.906 63.6853C287.82 64.2435 289.813 64.0891 290.217 66.8206C290.597 69.3621 288.022 70.9179 286.692 71.3336C283.109 72.4618 280.64 71.7255 278.635 69.6709C278.635 69.6709 274.968 66.6543 276.926 61.1913C279.418 54.2437 285.636 52.2129 291.344 52.6048C291.344 52.6048 303.508 52.9254 304.065 67.7351C304.065 67.7351 304.35 65.4786 304.338 64.4454H304.362Z" fill="#13604E"/>
<path d="M304.362 103.459C304.362 103.459 304.813 91.4284 291.38 90.4546C277.804 89.4689 274.577 99.8368 274.221 101.666C273.793 103.863 273.936 106.119 275.917 109.255C276.713 110.514 278.611 113.245 283.821 114.029C283.821 114.029 291.902 114.765 293.528 106.749C293.528 106.749 294.169 101.191 288.912 100.146C288.912 100.146 287.333 99.8962 286.669 100.561C286.669 100.561 285.53 101.856 286.906 102.699C287.82 103.257 289.813 103.103 290.217 105.834C290.597 108.376 288.022 109.932 286.692 110.347C283.109 111.475 280.64 110.739 278.635 108.685C278.635 108.685 274.968 105.668 276.926 100.205C279.418 93.2574 285.636 91.2265 291.344 91.6185C291.344 91.6185 303.508 91.9391 304.065 106.749C304.065 106.749 304.35 104.492 304.338 103.459H304.362Z" fill="#13604E"/>
<path d="M304.36 64.4434C293.597 64.4434 284.863 73.1843 284.863 83.956C284.863 94.7277 293.597 103.469 304.36 103.469V64.4434Z" fill="#4DD3B8"/>
<path d="M304.359 103.956C293.335 103.956 284.363 94.978 284.363 83.945C284.363 72.912 293.335 63.9336 304.359 63.9336V103.956ZM304.359 64.9312C293.88 64.9312 285.36 73.4583 285.36 83.945C285.36 94.4317 293.88 102.959 304.359 102.959V64.9312Z" fill="#13604E"/>
</g>
<path d="M12.4237 44.4346H292.575V123.566H12.4237V44.4346ZM12.4237 43.0332C11.6524 43.0332 11.0234 43.6626 11.0234 44.4346V123.566C11.0234 124.338 11.6524 124.967 12.4237 124.967H292.575C293.346 124.967 293.975 124.338 293.975 123.566V44.4346C293.975 43.6626 293.346 43.0332 292.575 43.0332H12.4237Z" fill="#0F594B"/>
</g>
<path d="M95.7769 80.6211H94.234V63.2188H95.7769V80.6211ZM86.5387 64.5664C87.398 64.5664 88.163 64.8138 88.8336 65.3086C89.5041 65.8034 90.0282 66.5098 90.4058 67.4277C90.7834 68.3457 90.9722 69.4102 90.9722 70.6211C90.9722 71.832 90.7834 72.8932 90.4058 73.8047C90.0282 74.7161 89.5041 75.4193 88.8336 75.9141C88.163 76.4089 87.398 76.6562 86.5387 76.6562C85.6793 76.6562 84.9143 76.4089 84.2437 75.9141C83.5732 75.4193 83.0491 74.7161 82.6715 73.8047C82.2939 72.8932 82.1051 71.832 82.1051 70.6211C82.1051 69.4102 82.2939 68.3457 82.6715 67.4277C83.0491 66.5098 83.5732 65.8034 84.2437 65.3086C84.9143 64.8138 85.6793 64.5664 86.5387 64.5664ZM86.5387 65.9336C85.9657 65.9336 85.4547 66.1289 85.0054 66.5195C84.5562 66.9102 84.2079 67.4603 83.9605 68.1699C83.7131 68.8796 83.5894 69.6966 83.5894 70.6211C83.5894 71.5521 83.7131 72.3724 83.9605 73.082C84.2079 73.7852 84.5562 74.3288 85.0054 74.7129C85.4547 75.097 85.9657 75.2891 86.5387 75.2891C87.1181 75.2891 87.6291 75.097 88.0719 74.7129C88.5211 74.3288 88.8694 73.7852 89.1168 73.082C89.3642 72.3724 89.4879 71.5521 89.4879 70.6211C89.4879 69.6901 89.3642 68.873 89.1168 68.1699C88.8694 67.4603 88.5211 66.9102 88.0719 66.5195C87.6291 66.1289 87.1181 65.9336 86.5387 65.9336ZM100.796 72.3203C102.587 72.3268 104.052 72.2975 105.191 72.2324C106.33 72.1608 107.476 72.0273 108.628 71.832L108.765 73.1211C107.58 73.3099 106.405 73.4368 105.24 73.502C104.074 73.5671 102.593 73.5964 100.796 73.5898H99.4683V72.3203H100.796ZM107.183 69.5273H101.011V73.1211H99.4683V68.2773H105.66V65.6992H99.4293V64.4492H107.183V69.5273ZM113.14 75.9922H111.597V63.2383H113.14V75.9922ZM113.668 80.2109H101.871V78.9219H113.668V80.2109ZM103.394 79.3516H101.871V75.0156H103.394V79.3516ZM111.988 69.0977H108.296V67.7695H111.988V69.0977ZM123.296 66.4805H127.164V64.1562H128.609V71.4414H121.851V64.1562H123.296V66.4805ZM127.164 70.2305V67.6523H123.296V70.2305H127.164ZM135.796 72.3203H134.332V63.2383H135.796V72.3203ZM134.82 68.3945H131.48V67.125H134.82V68.3945ZM132.027 72.1445H130.582V63.5703H132.027V72.1445ZM135.796 77.1836H125.836V79.8398H124.312V76.0508H134.293V74.3125H124.273V73.082H135.796V77.1836ZM136.461 80.3867H124.312V79.1367H136.461V80.3867ZM140.386 72.3203C142.177 72.3268 143.642 72.2975 144.781 72.2324C145.92 72.1608 147.066 72.0273 148.218 71.832L148.355 73.1211C147.17 73.3099 145.995 73.4368 144.83 73.502C143.664 73.5671 142.183 73.5964 140.386 73.5898H139.058V72.3203H140.386ZM146.773 69.5273H140.601V73.1211H139.058V68.2773H145.25V65.6992H139.019V64.4492H146.773V69.5273ZM152.73 75.9922H151.187V63.2383H152.73V75.9922ZM153.257 80.2109H141.461V78.9219H153.257V80.2109ZM142.984 79.3516H141.461V75.0156H142.984V79.3516ZM151.578 69.0977H147.886V67.7695H151.578V69.0977ZM164.019 65.7773C164.019 66.9818 163.681 68.1048 163.003 69.1465C162.326 70.1816 161.448 71.0573 160.367 71.7734C159.293 72.4896 158.166 72.9844 156.988 73.2578L156.285 71.9688C157.307 71.7734 158.309 71.3698 159.293 70.7578C160.282 70.1458 161.093 69.4004 161.724 68.5215C162.356 67.6426 162.671 66.7279 162.671 65.7773V64.4492H164.019V65.7773ZM164.273 65.7773C164.273 66.7279 164.592 67.6426 165.23 68.5215C165.868 69.4004 166.682 70.1491 167.671 70.7676C168.668 71.3796 169.677 71.7799 170.699 71.9688L169.996 73.2578C168.824 72.9844 167.698 72.4896 166.617 71.7734C165.536 71.0573 164.657 70.1816 163.98 69.1465C163.303 68.1048 162.964 66.9818 162.964 65.7773V64.4492H164.273V65.7773ZM171.519 78.2188H155.621V76.9492H171.519V78.2188ZM187.769 80.582H186.304V63.2188H187.769V80.582ZM183.101 71.5977H178.648V70.3477H183.101V71.5977ZM184.117 79.7031H182.652V63.6875H184.117V79.7031ZM180.406 65.4453C180.399 66.9948 180.168 68.4596 179.712 69.8398C179.263 71.2201 178.55 72.5059 177.574 73.6973C176.597 74.8887 175.347 75.9336 173.824 76.832L172.925 75.7188C174.273 74.918 175.393 74 176.285 72.9648C177.183 71.9232 177.844 70.7969 178.267 69.5859C178.697 68.375 178.915 67.0859 178.921 65.7188V65.4453H180.406ZM179.507 66.7148H173.668V65.4453H179.507V66.7148ZM204.527 73.1602H203.003V63.2383H204.527V73.1602ZM204.527 80.3477H193.238V74.0977H204.527V80.3477ZM194.742 79.0977H203.023V75.3477H194.742V79.0977ZM195.152 64.1562C196.024 64.1562 196.806 64.3255 197.496 64.6641C198.186 65.0026 198.726 65.4811 199.117 66.0996C199.507 66.7181 199.703 67.4245 199.703 68.2188C199.703 69 199.507 69.6966 199.117 70.3086C198.726 70.9206 198.186 71.3991 197.496 71.7441C196.806 72.0892 196.024 72.2617 195.152 72.2617C194.28 72.2617 193.498 72.0892 192.808 71.7441C192.118 71.3991 191.578 70.9206 191.187 70.3086C190.796 69.6966 190.601 69 190.601 68.2188C190.601 67.4245 190.796 66.7181 191.187 66.0996C191.578 65.4811 192.118 65.0026 192.808 64.6641C193.498 64.3255 194.28 64.1562 195.152 64.1562ZM195.152 65.4648C194.566 65.4648 194.042 65.5788 193.58 65.8066C193.117 66.0345 192.753 66.36 192.486 66.7832C192.225 67.2064 192.099 67.6849 192.105 68.2188C192.099 68.7461 192.225 69.2181 192.486 69.6348C192.753 70.0449 193.117 70.3672 193.58 70.6016C194.042 70.8359 194.566 70.9531 195.152 70.9531C195.731 70.9531 196.252 70.8359 196.714 70.6016C197.183 70.3672 197.548 70.0449 197.808 69.6348C198.069 69.2181 198.199 68.7461 198.199 68.2188C198.199 67.6849 198.069 67.2064 197.808 66.7832C197.548 66.36 197.183 66.0345 196.714 65.8066C196.252 65.5788 195.731 65.4648 195.152 65.4648ZM217.925 71.2656H214.586V69.9961H217.925V71.2656ZM222.359 80.582H220.875V63.2188H222.359V80.582ZM218.863 79.7031H217.398V63.5898H218.863V79.7031ZM211.421 64.6836C212.17 64.6836 212.824 64.931 213.384 65.4258C213.951 65.9206 214.39 66.6237 214.703 67.5352C215.015 68.4401 215.171 69.5013 215.171 70.7188C215.171 71.9362 215.015 73.0007 214.703 73.9121C214.39 74.8171 213.951 75.5169 213.384 76.0117C212.824 76.5065 212.17 76.7539 211.421 76.7539C210.673 76.7539 210.018 76.5065 209.459 76.0117C208.905 75.5169 208.472 74.8171 208.16 73.9121C207.847 73.0007 207.691 71.9362 207.691 70.7188C207.691 69.5013 207.847 68.4401 208.16 67.5352C208.472 66.6237 208.905 65.9206 209.459 65.4258C210.018 64.931 210.673 64.6836 211.421 64.6836ZM211.421 66.1289C210.953 66.1289 210.546 66.3145 210.201 66.6855C209.856 67.0566 209.589 67.5905 209.4 68.2871C209.218 68.9772 209.13 69.7878 209.136 70.7188C209.13 71.6497 209.218 72.4603 209.4 73.1504C209.589 73.834 209.856 74.3646 210.201 74.7422C210.552 75.1133 210.959 75.2956 211.421 75.2891C211.89 75.2956 212.3 75.1133 212.652 74.7422C213.003 74.3646 213.27 73.834 213.453 73.1504C213.635 72.4603 213.726 71.6497 213.726 70.7188C213.726 69.7878 213.635 68.9772 213.453 68.2871C213.27 67.5905 213.003 67.0566 212.652 66.6855C212.3 66.3145 211.89 66.1289 211.421 66.1289ZM96.3238 96.8555H88.5699V95.5664H96.3238V96.8555ZM92.7496 103.77H91.2262V99.4141H92.7496V103.77ZM97.2222 96.6016C97.2157 97.4609 97.1864 98.2747 97.1344 99.043C97.0823 99.8047 96.9618 100.664 96.773 101.621L95.2301 101.504C95.4254 100.547 95.5523 99.7103 95.6109 98.9941C95.6695 98.278 95.7053 97.5065 95.7183 96.6797V96.4844V95.5664H97.2222V96.4844V96.6016ZM101.207 107.285H99.6441V94.2188H101.207V107.285ZM103.746 101.191H100.503V99.8828H103.746V101.191ZM101.773 111.211H90.1715V109.922H101.773V111.211ZM91.7144 110.332H90.1715V106.113H91.7144V110.332ZM87.4957 103.242C89.566 103.236 91.5159 103.197 93.3453 103.125C95.1747 103.047 96.8837 102.897 98.4722 102.676L98.5699 103.809C96.9488 104.089 95.2366 104.274 93.4332 104.365C91.6298 104.456 89.7027 104.505 87.6519 104.512L87.4957 103.242ZM119.214 104.102H117.691V94.2383H119.214V104.102ZM119.214 111.348H107.925V105.098H119.214V111.348ZM109.429 110.098H117.711V106.348H109.429V110.098ZM110.757 96.6211C110.751 97.6758 110.539 98.6719 110.123 99.6094C109.712 100.547 109.13 101.367 108.375 102.07C107.626 102.767 106.767 103.294 105.796 103.652L105.015 102.441C105.881 102.135 106.653 101.689 107.33 101.104C108.013 100.511 108.541 99.8275 108.912 99.0527C109.283 98.2715 109.468 97.4609 109.468 96.6211V94.9219H110.757V96.6211ZM111.031 96.6211C111.024 97.4219 111.21 98.1901 111.587 98.9258C111.972 99.6549 112.496 100.299 113.16 100.859C113.83 101.413 114.592 101.842 115.445 102.148L114.664 103.32C113.7 102.988 112.847 102.493 112.105 101.836C111.363 101.172 110.783 100.394 110.367 99.502C109.95 98.61 109.742 97.6497 109.742 96.6211V94.9219H111.031V96.6211ZM132.769 99.5508C132.769 100.729 132.548 101.901 132.105 103.066C131.662 104.225 131.06 105.264 130.298 106.182C129.537 107.1 128.713 107.786 127.828 108.242L126.89 107.031C127.717 106.628 128.485 106.022 129.195 105.215C129.911 104.408 130.481 103.503 130.904 102.5C131.334 101.497 131.552 100.514 131.558 99.5508V96.6797H132.769V99.5508ZM133.062 99.5508C133.056 100.462 133.251 101.387 133.648 102.324C134.052 103.262 134.599 104.111 135.289 104.873C135.979 105.628 136.74 106.204 137.574 106.602L136.695 107.812C135.79 107.37 134.966 106.715 134.224 105.85C133.489 104.984 132.906 104.001 132.476 102.9C132.046 101.794 131.832 100.677 131.832 99.5508V96.6797H133.062V99.5508ZM136.968 97.2852H127.515V96.0156H136.968V97.2852ZM140.621 111.582H139.097V94.2188H140.621V111.582ZM143.531 102.559H140.269V101.25H143.531V102.559ZM154.957 102.383H151.617V101.074H154.957V102.383ZM149.293 99.5703C149.286 100.729 149.12 101.862 148.795 102.969C148.475 104.076 148.01 105.072 147.398 105.957C146.793 106.836 146.076 107.526 145.25 108.027L144.332 106.855C145.1 106.413 145.767 105.804 146.334 105.029C146.9 104.255 147.333 103.392 147.632 102.441C147.938 101.491 148.095 100.534 148.101 99.5703V98.6523H149.293V99.5703ZM149.546 99.5703C149.553 100.508 149.706 101.426 150.005 102.324C150.311 103.223 150.751 104.04 151.324 104.775C151.897 105.505 152.567 106.074 153.336 106.484L152.457 107.637C151.617 107.181 150.888 106.533 150.269 105.693C149.657 104.854 149.185 103.903 148.853 102.842C148.528 101.781 148.368 100.69 148.375 99.5703V98.6523H149.546V99.5703ZM152.808 98.7109H144.8V97.4414H152.808V98.7109ZM149.566 98.3984H148.101V94.8633H149.566V98.3984ZM159.312 111.582H157.847V94.2188H159.312V111.582ZM155.796 110.684H154.351V94.6484H155.796V110.684ZM175.191 111.582H173.668V94.2188H175.191V111.582ZM178.003 102.578H174.8V101.289H178.003V102.578ZM170.699 96.0938C170.692 97.7799 170.412 99.375 169.859 100.879C169.312 102.376 168.446 103.76 167.261 105.029C166.076 106.292 164.566 107.376 162.73 108.281L161.871 107.07C163.479 106.27 164.826 105.329 165.914 104.248C167.007 103.161 167.824 101.956 168.365 100.635C168.912 99.3132 169.188 97.8841 169.195 96.3477V96.0938H170.699ZM169.976 97.3828H162.671V96.0938H169.976V97.3828ZM187.515 106.582H190.679V104.414H192.105V111.348H186.07V104.414H187.515V106.582ZM190.679 110.137V107.754H187.515V110.137H190.679ZM196.734 105.781C196.74 106.569 196.604 107.337 196.324 108.086C196.05 108.828 195.643 109.499 195.103 110.098C194.563 110.697 193.908 111.159 193.14 111.484L192.339 110.312C193.017 110.033 193.596 109.652 194.078 109.17C194.559 108.682 194.921 108.145 195.162 107.559C195.409 106.973 195.536 106.38 195.543 105.781V104.297H196.734V105.781ZM197.066 105.781C197.059 106.4 197.177 107.008 197.418 107.607C197.665 108.2 198.03 108.737 198.511 109.219C199 109.694 199.586 110.059 200.269 110.312L199.468 111.484C198.681 111.172 198.017 110.723 197.476 110.137C196.942 109.551 196.539 108.883 196.265 108.135C195.998 107.386 195.868 106.602 195.875 105.781V104.297H197.066V105.781ZM197.574 99.5898H192.867V98.3203H197.574V99.5898ZM188.843 95C189.696 95 190.461 95.166 191.138 95.498C191.822 95.8301 192.356 96.2988 192.74 96.9043C193.13 97.5098 193.329 98.2031 193.336 98.9844C193.329 99.7656 193.13 100.459 192.74 101.064C192.356 101.67 191.822 102.142 191.138 102.48C190.461 102.819 189.696 102.988 188.843 102.988C187.971 102.988 187.193 102.819 186.509 102.48C185.826 102.142 185.292 101.67 184.908 101.064C184.524 100.459 184.332 99.7656 184.332 98.9844C184.332 98.2031 184.524 97.5098 184.908 96.9043C185.292 96.2988 185.826 95.8301 186.509 95.498C187.193 95.166 187.971 95 188.843 95ZM188.843 96.2891C188.257 96.2891 187.733 96.403 187.271 96.6309C186.809 96.8587 186.448 97.1777 186.187 97.5879C185.927 97.998 185.796 98.4635 185.796 98.9844C185.796 99.5117 185.927 99.9837 186.187 100.4C186.448 100.811 186.809 101.133 187.271 101.367C187.733 101.602 188.257 101.719 188.843 101.719C189.416 101.719 189.934 101.602 190.396 101.367C190.858 101.133 191.216 100.807 191.47 100.391C191.724 99.974 191.851 99.5052 191.851 98.9844C191.851 98.4635 191.724 97.998 191.47 97.5879C191.216 97.1777 190.858 96.8587 190.396 96.6309C189.94 96.403 189.423 96.2891 188.843 96.2891ZM198.453 103.418H196.91V94.2188H198.453V103.418ZM214.781 111.621H213.257V94.2188H214.781V111.621ZM217.691 102.383H214.429V101.094H217.691V102.383ZM203.472 105.977C205.178 105.97 206.64 105.924 207.857 105.84C209.074 105.749 210.315 105.586 211.578 105.352L211.773 106.68C210.484 106.914 209.221 107.07 207.984 107.148C206.753 107.227 205.25 107.266 203.472 107.266H202.105V105.977H203.472ZM210.211 97.1875H203.628V106.562H202.105V95.918H210.211V97.1875Z" fill="white"/>
<path d="M14.1436 20.5746H12.6105V3.22652H14.1436V20.5746ZM16.9613 11.5829H13.7431V10.2845H16.9613V11.5829ZM9.6547 5.09116C9.65009 6.78085 9.36925 8.37615 8.81216 9.87707C8.25967 11.3734 7.3895 12.7546 6.20166 14.0207C5.01842 15.2822 3.50829 16.3665 1.67127 17.2735L0.814917 16.0718C2.42634 15.2707 3.77762 14.3292 4.86878 13.2472C5.95995 12.1653 6.77716 10.9613 7.32044 9.63536C7.86372 8.30939 8.13536 6.87753 8.13536 5.33978V5.09116H9.6547ZM8.92265 6.37569H1.62983V5.09116H8.92265V6.37569ZM19.8266 19.1105C19.601 19.1105 19.3892 19.0529 19.1912 18.9378C18.9979 18.8227 18.8436 18.6708 18.7285 18.482C18.618 18.2887 18.5651 18.0792 18.5697 17.8536C18.5651 17.628 18.618 17.4185 18.7285 17.2251C18.8436 17.0272 18.9979 16.8729 19.1912 16.7624C19.3892 16.6519 19.601 16.5967 19.8266 16.5967C20.0522 16.5967 20.2617 16.6519 20.455 16.7624C20.653 16.8729 20.8073 17.0272 20.9178 17.2251C21.0283 17.4185 21.0835 17.628 21.0835 17.8536C21.0835 18.0792 21.0283 18.2887 20.9178 18.482C20.8073 18.6708 20.653 18.8227 20.455 18.9378C20.2617 19.0529 20.0522 19.1105 19.8266 19.1105Z" fill="white"/>
<defs>
<clipPath id="clip0_533_2004">
<rect width="305" height="104" fill="white" transform="translate(0 32)"/>
</clipPath>
</defs>
</svg>
