<svg width="305" height="136" viewBox="0 0 305 136" fill="none" xmlns="http://www.w3.org/2000/svg">
<g clip-path="url(#clip0_533_1857)">
<path d="M1.41397 134.598L303.602 134.598V33.4004L1.41397 33.4004V134.598Z" fill="#4AE6CA"/>
<path d="M2.63443 33.4014H302.366C303.042 33.4014 303.6 33.9477 303.6 34.6365V133.363C303.6 134.04 303.054 134.599 302.366 134.599H2.63443C1.95802 134.599 1.40028 134.052 1.40028 133.363V34.6365C1.40028 33.9596 1.94615 33.4014 2.63443 33.4014ZM2.63443 32C1.17481 32 0 33.1757 0 34.6365V133.363C0 134.812 1.17481 136 2.63443 136H302.366C303.813 136 305 134.824 305 133.363V34.6365C305 33.1757 303.813 32 302.366 32H2.63443Z" fill="#0F594B"/>
<path d="M12.4232 123.566L292.574 123.566V44.4352L12.4232 44.4352V123.566Z" fill="#0F594B"/>
<mask id="mask0_533_1857" style="mask-type:luminance" maskUnits="userSpaceOnUse" x="12" y="44" width="281" height="80">
<path d="M12.4272 123.564L292.578 123.564V44.4333L12.4272 44.4333V123.564Z" fill="white"/>
</mask>
<g mask="url(#mask0_533_1857)">
<path d="M39.5792 103.469C50.3471 103.469 59.0763 94.7325 59.0763 83.956C59.0763 73.1795 50.3471 64.4434 39.5792 64.4434C28.8112 64.4434 20.082 73.1795 20.082 83.956C20.082 94.7325 28.8112 103.469 39.5792 103.469Z" fill="#4DD3B8"/>
<path d="M39.5893 103.956C28.565 103.956 19.5938 94.978 19.5938 83.945C19.5938 72.912 28.565 63.9336 39.5893 63.9336C50.6135 63.9336 59.5848 72.912 59.5848 83.945C59.5848 94.978 50.6135 103.956 39.5893 103.956ZM39.5893 64.9312C29.1109 64.9312 20.5906 73.4583 20.5906 83.945C20.5906 94.4317 29.1109 102.959 39.5893 102.959C50.0676 102.959 58.588 94.4317 58.588 83.945C58.588 73.4583 50.0676 64.9312 39.5893 64.9312Z" fill="#13604E"/>
<path d="M33.0762 96.962C40.2526 96.962 46.0703 91.1397 46.0703 83.9576C46.0703 76.7754 40.2526 70.9531 33.0762 70.9531C25.8997 70.9531 20.082 76.7754 20.082 83.9576C20.082 91.1397 25.8997 96.962 33.0762 96.962Z" fill="#13604E"/>
<path d="M20.0948 83.9569C30.8627 83.9569 39.5919 75.2208 39.5919 64.4443C39.5919 53.6677 30.8627 44.9316 20.0948 44.9316C9.32682 44.9316 0.597656 53.6677 0.597656 64.4443C0.597656 75.2208 9.32682 83.9569 20.0948 83.9569Z" fill="#4DD3B8"/>
<path d="M20.0932 84.4446C9.06894 84.4446 0.0976562 75.478 0.0976562 64.445C0.0976562 53.412 9.06894 44.4336 20.0932 44.4336C31.1174 44.4336 40.0887 53.412 40.0887 64.445C40.0887 75.478 31.1174 84.4564 20.0932 84.4564V84.4446ZM20.0932 45.4193C9.61482 45.4312 1.09447 53.9583 1.09447 64.445C1.09447 74.9317 9.61482 83.4588 20.0932 83.4588C30.5716 83.4588 39.0919 74.9317 39.0919 64.445C39.0919 53.9583 30.5716 45.4312 20.0932 45.4312V45.4193Z" fill="#13604E"/>
<path d="M20.0948 122.982C30.8627 122.982 39.5919 114.246 39.5919 103.47C39.5919 92.6931 30.8627 83.957 20.0948 83.957C9.32682 83.957 0.597656 92.6931 0.597656 103.47C0.597656 114.246 9.32682 122.982 20.0948 122.982Z" fill="#4DD3B8"/>
<path d="M20.0932 123.47C9.06894 123.47 0.0976562 114.503 0.0976562 103.47C0.0976562 92.4374 9.06894 83.459 20.0932 83.459C31.1174 83.459 40.0887 92.4374 40.0887 103.47C40.0887 114.503 31.1174 123.482 20.0932 123.482V123.47ZM20.0932 84.4447C9.61482 84.4447 1.09447 92.9837 1.09447 103.47C1.09447 113.957 9.61482 122.484 20.0932 122.484C30.5716 122.484 39.0919 113.957 39.0919 103.47C39.0919 92.9837 30.5716 84.4566 20.0932 84.4566V84.4447Z" fill="#13604E"/>
<path d="M0.59567 64.4454C0.59567 64.4454 0.132866 52.4148 13.5779 51.4409C27.1535 50.4552 30.3813 60.8231 30.7373 62.6521C31.1645 64.8492 31.0221 67.1056 29.0403 70.241C28.2453 71.4998 26.3466 74.2314 21.1371 75.0152C21.1371 75.0152 13.0558 75.7515 11.43 67.7351C11.43 67.7351 10.7892 62.177 16.0462 61.1319C16.0462 61.1319 17.6245 60.8825 18.289 61.5476C18.289 61.5476 19.4283 62.8421 18.0517 63.6853C17.138 64.2435 15.1443 64.0891 14.7409 66.8206C14.3611 69.3621 16.9362 70.9179 18.2653 71.3336C21.8491 72.4618 24.3174 71.7255 26.3229 69.6709C26.3229 69.6709 29.9897 66.6543 28.0317 61.1913C25.5396 54.2437 19.3215 52.2129 13.6135 52.6048C13.6135 52.6048 1.45008 52.9254 0.89234 67.7351C0.89234 67.7351 0.607537 65.4786 0.619404 64.4454H0.59567Z" fill="#13604E"/>
<path d="M0.595535 103.459C0.595535 103.459 0.144597 91.4284 13.5778 90.4546C27.1534 89.4689 30.3812 99.8368 30.7372 101.666C31.1644 103.863 31.022 106.119 29.0402 109.255C28.2451 110.514 26.3464 113.245 21.1369 114.029C21.1369 114.029 13.0557 114.765 11.4299 106.749C11.4299 106.749 10.7891 101.191 16.0461 100.146C16.0461 100.146 17.6244 99.8962 18.2889 100.561C18.2889 100.561 19.4281 101.856 18.0516 102.699C17.1378 103.257 15.1442 103.103 14.7407 105.834C14.361 108.376 16.9361 109.932 18.2652 110.347C21.8489 111.475 24.3172 110.739 26.3227 108.685C26.3227 108.685 29.9896 105.668 28.0315 100.205C25.5395 93.2574 19.3213 91.2265 13.6134 91.6185C13.6134 91.6185 1.44994 91.9391 0.892204 106.749C0.892204 106.749 0.607402 104.492 0.619268 103.459H0.595535Z" fill="#13604E"/>
<path d="M0.597656 64.4434C11.3608 64.4434 20.0948 73.1843 20.0948 83.956C20.0948 94.7277 11.3608 103.469 0.597656 103.469V64.4434Z" fill="#4DD3B8"/>
<path d="M0.597656 63.9453C11.6219 63.9453 20.5932 72.9237 20.5932 83.9567C20.5932 94.9897 11.6219 103.956 0.597656 103.956V63.9453ZM0.597656 102.971C11.076 102.971 19.5964 94.4434 19.5964 83.9567C19.5964 73.47 11.0642 64.931 0.597656 64.931V102.971Z" fill="#13604E"/>
<path d="M265.368 103.469C276.136 103.469 284.865 94.7325 284.865 83.956C284.865 73.1795 276.136 64.4434 265.368 64.4434C254.6 64.4434 245.871 73.1795 245.871 83.956C245.871 94.7325 254.6 103.469 265.368 103.469Z" fill="#4DD3B8"/>
<path d="M245.383 83.9567C245.383 72.9237 254.354 63.9453 265.378 63.9453C276.403 63.9453 285.374 72.9237 285.374 83.9567C285.374 94.9897 276.403 103.968 265.378 103.968C254.354 103.968 245.383 94.9897 245.383 83.9567ZM246.38 83.9567C246.38 94.4434 254.9 102.971 265.378 102.971C275.857 102.971 284.377 94.4434 284.377 83.9567C284.377 73.47 275.857 64.9429 265.378 64.9429C254.9 64.9429 246.38 73.47 246.38 83.9567Z" fill="#13604E"/>
<path d="M271.881 96.962C279.057 96.962 284.875 91.1397 284.875 83.9576C284.875 76.7754 279.057 70.9531 271.881 70.9531C264.704 70.9531 258.887 76.7754 258.887 83.9576C258.887 91.1397 264.704 96.962 271.881 96.962Z" fill="#13604E"/>
<path d="M284.864 83.9569C295.632 83.9569 304.361 75.2208 304.361 64.4443C304.361 53.6677 295.632 44.9316 284.864 44.9316C274.096 44.9316 265.367 53.6677 265.367 64.4443C265.367 75.2208 274.096 83.9569 284.864 83.9569Z" fill="#4DD3B8"/>
<path d="M264.867 64.445C264.867 53.412 273.838 44.4336 284.863 44.4336C295.887 44.4336 304.858 53.412 304.858 64.445C304.858 75.478 295.887 84.4564 284.863 84.4564C273.838 84.4564 264.867 75.478 264.867 64.445ZM265.864 64.445C265.864 74.9317 274.384 83.4588 284.863 83.4588C295.341 83.4588 303.861 74.9317 303.861 64.445C303.861 53.9583 295.341 45.4312 284.863 45.4312C274.384 45.4312 265.864 53.9583 265.864 64.445Z" fill="#13604E"/>
<path d="M284.864 122.982C295.632 122.982 304.361 114.246 304.361 103.47C304.361 92.6931 295.632 83.957 284.864 83.957C274.096 83.957 265.367 92.6931 265.367 103.47C265.367 114.246 274.096 122.982 284.864 122.982Z" fill="#4DD3B8"/>
<path d="M264.867 103.47C264.867 92.4374 273.838 83.459 284.863 83.459C295.887 83.459 304.858 92.4374 304.858 103.47C304.858 114.503 295.887 123.482 284.863 123.482C273.838 123.482 264.867 114.503 264.867 103.47ZM265.864 103.47C265.864 113.957 274.384 122.484 284.863 122.484C295.341 122.484 303.861 113.957 303.861 103.47C303.861 92.9837 295.341 84.4566 284.863 84.4566C274.384 84.4566 265.864 92.9837 265.864 103.47Z" fill="#13604E"/>
<path d="M304.362 64.4454C304.362 64.4454 304.813 52.4148 291.38 51.4409C277.804 50.4552 274.577 60.8231 274.221 62.6521C273.793 64.8492 273.936 67.1056 275.917 70.241C276.713 71.4998 278.611 74.2314 283.821 75.0152C283.821 75.0152 291.902 75.7515 293.528 67.7351C293.528 67.7351 294.169 62.177 288.912 61.1319C288.912 61.1319 287.333 60.8825 286.669 61.5476C286.669 61.5476 285.53 62.8421 286.906 63.6853C287.82 64.2435 289.813 64.0891 290.217 66.8206C290.597 69.3621 288.022 70.9179 286.692 71.3336C283.109 72.4618 280.64 71.7255 278.635 69.6709C278.635 69.6709 274.968 66.6543 276.926 61.1913C279.418 54.2437 285.636 52.2129 291.344 52.6048C291.344 52.6048 303.508 52.9254 304.065 67.7351C304.065 67.7351 304.35 65.4786 304.338 64.4454H304.362Z" fill="#13604E"/>
<path d="M304.362 103.459C304.362 103.459 304.813 91.4284 291.38 90.4546C277.804 89.4689 274.577 99.8368 274.221 101.666C273.793 103.863 273.936 106.119 275.917 109.255C276.713 110.514 278.611 113.245 283.821 114.029C283.821 114.029 291.902 114.765 293.528 106.749C293.528 106.749 294.169 101.191 288.912 100.146C288.912 100.146 287.333 99.8962 286.669 100.561C286.669 100.561 285.53 101.856 286.906 102.699C287.82 103.257 289.813 103.103 290.217 105.834C290.597 108.376 288.022 109.932 286.692 110.347C283.109 111.475 280.64 110.739 278.635 108.685C278.635 108.685 274.968 105.668 276.926 100.205C279.418 93.2574 285.636 91.2265 291.344 91.6185C291.344 91.6185 303.508 91.9391 304.065 106.749C304.065 106.749 304.35 104.492 304.338 103.459H304.362Z" fill="#13604E"/>
<path d="M304.36 64.4434C293.597 64.4434 284.863 73.1843 284.863 83.956C284.863 94.7277 293.597 103.469 304.36 103.469V64.4434Z" fill="#4DD3B8"/>
<path d="M304.359 103.956C293.335 103.956 284.363 94.978 284.363 83.945C284.363 72.912 293.335 63.9336 304.359 63.9336V103.956ZM304.359 64.9312C293.88 64.9312 285.36 73.4583 285.36 83.945C285.36 94.4317 293.88 102.959 304.359 102.959V64.9312Z" fill="#13604E"/>
</g>
<path d="M12.4237 44.4346H292.575V123.566H12.4237V44.4346ZM12.4237 43.0332C11.6524 43.0332 11.0234 43.6626 11.0234 44.4346V123.566C11.0234 124.338 11.6524 124.967 12.4237 124.967H292.575C293.346 124.967 293.975 124.338 293.975 123.566V44.4346C293.975 43.6626 293.346 43.0332 292.575 43.0332H12.4237Z" fill="#0F594B"/>
</g>
<path d="M122.466 77.582H120.962V60.1992H122.466V77.582ZM121.587 68.5195H118.267V67.25H121.587V68.5195ZM111.705 62.3477C111.711 63.7018 111.63 64.9941 111.461 66.2246C111.298 67.4551 110.989 68.679 110.533 69.8965C110.084 71.1139 109.459 72.2435 108.658 73.2852L107.427 72.5234C108.196 71.5859 108.801 70.5703 109.244 69.4766C109.686 68.3828 109.992 67.263 110.162 66.1172C110.337 64.9714 110.429 63.7474 110.435 62.4453V62.3477H111.705ZM111.138 63.6172H107.798V62.3477H111.138V63.6172ZM115.806 62.3477C115.813 63.8255 115.748 65.2383 115.611 66.5859C115.481 67.9271 115.191 69.2975 114.742 70.6973C114.299 72.0905 113.651 73.3633 112.798 74.5156L111.529 73.7734C112.369 72.7253 113.003 71.5599 113.433 70.2773C113.869 68.9883 114.153 67.722 114.283 66.4785C114.413 65.2285 114.478 63.8841 114.478 62.4453V62.3477H115.806ZM115.279 63.6172H112.291V62.3477H115.279V63.6172ZM118.775 76.7227H117.349V60.6094H118.775V76.7227ZM140.552 69.0469H124.673V67.7969H140.552V69.0469ZM130.826 62.3672H126.158V61.0977H130.826V62.3672ZM131.822 61.6445C131.809 62.2435 131.786 62.8424 131.753 63.4414C131.721 64.0404 131.633 64.7891 131.49 65.6875C131.347 66.5794 131.138 67.543 130.865 68.5781L129.361 68.2852C129.634 67.2891 129.843 66.3646 129.986 65.5117C130.129 64.6523 130.217 63.9362 130.25 63.3633C130.282 62.7839 130.305 62.2044 130.318 61.625V61.4883V61.0977H131.822V61.4883V61.6445ZM137.759 62.3672H132.994V61.0977H137.759V62.3672ZM138.56 61.7227C138.56 62.3411 138.547 62.9499 138.521 63.5488C138.495 64.1413 138.427 64.8737 138.316 65.7461C138.212 66.6185 138.046 67.5625 137.818 68.5781L136.314 68.3438C136.627 66.9766 136.832 65.7852 136.929 64.7695C137.027 63.7539 137.082 62.7708 137.095 61.8203V61.6445V61.0977H138.56V61.6445V61.7227ZM133.13 71.7617C133.13 72.7708 132.828 73.6758 132.222 74.4766C131.617 75.2708 130.806 75.9251 129.791 76.4395C128.781 76.9538 127.668 77.3151 126.451 77.5234L125.845 76.3125C126.92 76.1562 127.909 75.8633 128.814 75.4336C129.725 75.0039 130.451 74.4733 130.992 73.8418C131.532 73.2103 131.802 72.5169 131.802 71.7617V70.8633H133.13V71.7617ZM133.326 71.7617C133.326 72.5169 133.599 73.2103 134.146 73.8418C134.693 74.4733 135.422 75.0039 136.334 75.4336C137.245 75.8633 138.241 76.1562 139.322 76.3125L138.716 77.5234C137.492 77.3151 136.376 76.9538 135.367 76.4395C134.358 75.9251 133.547 75.2708 132.935 74.4766C132.323 73.6758 132.017 72.7708 132.017 71.7617V70.8633H133.326V71.7617ZM155.533 73.2461H154.009V60.2383H155.533V73.2461ZM158.15 67.25H155.045V65.9609H158.15V67.25ZM152.349 63.6172H141.998V62.3672H152.349V63.6172ZM147.173 64.5742C147.994 64.5742 148.72 64.7077 149.351 64.9746C149.983 65.2415 150.471 65.6191 150.816 66.1074C151.168 66.5957 151.347 67.1654 151.353 67.8164C151.347 68.4609 151.168 69.0273 150.816 69.5156C150.471 69.9974 149.983 70.3685 149.351 70.6289C148.72 70.8893 147.994 71.0195 147.173 71.0195C146.34 71.0195 145.608 70.8893 144.976 70.6289C144.345 70.3685 143.856 69.9974 143.511 69.5156C143.166 69.0273 142.994 68.4609 142.994 67.8164C142.994 67.1654 143.166 66.5957 143.511 66.1074C143.856 65.6191 144.345 65.2415 144.976 64.9746C145.608 64.7077 146.34 64.5742 147.173 64.5742ZM147.173 65.7852C146.633 65.7852 146.155 65.8665 145.738 66.0293C145.328 66.1921 145.012 66.4297 144.791 66.7422C144.569 67.0482 144.459 67.4062 144.459 67.8164C144.459 68.2201 144.569 68.5716 144.791 68.8711C145.012 69.1706 145.328 69.4049 145.738 69.5742C146.155 69.737 146.633 69.8151 147.173 69.8086C147.707 69.8151 148.183 69.737 148.599 69.5742C149.016 69.4049 149.335 69.1706 149.556 68.8711C149.784 68.5716 149.901 68.2201 149.908 67.8164C149.901 67.4062 149.784 67.0482 149.556 66.7422C149.335 66.4297 149.016 66.1921 148.599 66.0293C148.183 65.8665 147.707 65.7852 147.173 65.7852ZM147.935 63.0117H146.412V60.2383H147.935V63.0117ZM156.334 77.2109H144.673V75.9219H156.334V77.2109ZM146.177 76.4492H144.673V72.2109H146.177V76.4492ZM172.916 71.0977H171.392V68.4023H172.916V71.0977ZM180.084 68.8125H164.263V67.5625H180.084V68.8125ZM178.033 66.0977H166.314V60.8047H178.033V66.0977ZM167.837 64.8672H176.509V62.0352H167.837V64.8672ZM178.052 74.418H167.74V76.5664H166.216V73.2656H176.548V71.7227H166.177V70.5312H178.052V74.418ZM178.58 77.3867H166.216V76.1758H178.58V77.3867ZM189.459 60.5312C190.741 60.5312 191.841 60.6452 192.759 60.873C193.684 61.1009 194.387 61.4395 194.869 61.8887C195.35 62.3379 195.591 62.8815 195.591 63.5195C195.591 64.1706 195.35 64.724 194.869 65.1797C194.387 65.6354 193.687 65.9805 192.769 66.2148C191.851 66.4427 190.748 66.5599 189.459 66.5664C188.163 66.5599 187.056 66.4427 186.138 66.2148C185.227 65.9805 184.527 65.6354 184.039 65.1797C183.55 64.724 183.306 64.1706 183.306 63.5195C183.306 62.8815 183.55 62.3379 184.039 61.8887C184.527 61.4395 185.23 61.1009 186.148 60.873C187.066 60.6452 188.17 60.5312 189.459 60.5312ZM189.459 61.6836C188.502 61.6836 187.681 61.7585 186.998 61.9082C186.321 62.0579 185.8 62.2695 185.435 62.543C185.077 62.8164 184.901 63.1419 184.908 63.5195C184.901 63.9167 185.077 64.2585 185.435 64.5449C185.8 64.8249 186.321 65.0365 186.998 65.1797C187.681 65.3229 188.502 65.3945 189.459 65.3945C190.416 65.3945 191.236 65.3229 191.92 65.1797C192.61 65.0365 193.134 64.8249 193.492 64.5449C193.85 64.265 194.029 63.9232 194.029 63.5195C194.029 63.1419 193.85 62.8164 193.492 62.543C193.134 62.2695 192.61 62.0579 191.92 61.9082C191.229 61.7585 190.409 61.6836 189.459 61.6836ZM197.369 68.9883H181.548V67.7383H197.369V68.9883ZM195.337 74.3789H185.025V76.4883H183.502V73.2461H193.834V71.6641H183.462V70.4922H195.337V74.3789ZM195.865 77.3867H183.502V76.1758H195.865V77.3867ZM99.5758 103.445H89.732V107.742H88.189V102.176H99.5758V103.445ZM99.8297 108.348H88.189V107.098H99.8297V108.348ZM99.4781 101.199H97.9351V91.2188H99.4781V101.199ZM98.3844 96.9023H93.6969V95.6133H98.3844V96.9023ZM89.8687 92.1758C90.7151 92.1758 91.4801 92.3483 92.1637 92.6934C92.8472 93.0384 93.3811 93.5267 93.7652 94.1582C94.1558 94.7897 94.3544 95.5026 94.3609 96.2969C94.3544 97.0846 94.1558 97.791 93.7652 98.416C93.3811 99.0345 92.8472 99.5228 92.1637 99.8809C91.4801 100.232 90.7151 100.411 89.8687 100.418C89.0094 100.411 88.2379 100.232 87.5543 99.8809C86.8707 99.5228 86.3336 99.0345 85.9429 98.416C85.5523 97.791 85.357 97.0846 85.357 96.2969C85.357 95.5026 85.5523 94.7897 85.9429 94.1582C86.3336 93.5267 86.8707 93.0384 87.5543 92.6934C88.2379 92.3483 89.0094 92.1758 89.8687 92.1758ZM89.8687 93.4844C89.2828 93.4779 88.7587 93.5951 88.2965 93.8359C87.8342 94.0703 87.4729 94.4023 87.2125 94.832C86.9521 95.2617 86.8219 95.75 86.8219 96.2969C86.8219 96.8307 86.9521 97.3092 87.2125 97.7324C87.4729 98.1556 87.8342 98.4876 88.2965 98.7285C88.7587 98.9694 89.2828 99.0898 89.8687 99.0898C90.4286 99.0898 90.9397 98.9694 91.4019 98.7285C91.8642 98.4876 92.2255 98.1556 92.4859 97.7324C92.7463 97.3027 92.8765 96.8242 92.8765 96.2969C92.8765 95.75 92.7463 95.2617 92.4859 94.832C92.2255 94.4023 91.8642 94.0703 91.4019 93.8359C90.9462 93.5951 90.4351 93.4779 89.8687 93.4844ZM110.279 91.5312C111.561 91.5312 112.662 91.6452 113.58 91.873C114.504 92.1009 115.207 92.4395 115.689 92.8887C116.171 93.3379 116.412 93.8815 116.412 94.5195C116.412 95.1706 116.171 95.724 115.689 96.1797C115.207 96.6354 114.507 96.9805 113.589 97.2148C112.671 97.4427 111.568 97.5599 110.279 97.5664C108.983 97.5599 107.877 97.4427 106.959 97.2148C106.047 96.9805 105.347 96.6354 104.859 96.1797C104.371 95.724 104.127 95.1706 104.127 94.5195C104.127 93.8815 104.371 93.3379 104.859 92.8887C105.347 92.4395 106.05 92.1009 106.968 91.873C107.886 91.6452 108.99 91.5312 110.279 91.5312ZM110.279 92.6836C109.322 92.6836 108.502 92.7585 107.818 92.9082C107.141 93.0579 106.62 93.2695 106.255 93.543C105.897 93.8164 105.722 94.1419 105.728 94.5195C105.722 94.9167 105.897 95.2585 106.255 95.5449C106.62 95.8249 107.141 96.0365 107.818 96.1797C108.502 96.3229 109.322 96.3945 110.279 96.3945C111.236 96.3945 112.056 96.3229 112.74 96.1797C113.43 96.0365 113.954 95.8249 114.312 95.5449C114.67 95.265 114.849 94.9232 114.849 94.5195C114.849 94.1419 114.67 93.8164 114.312 93.543C113.954 93.2695 113.43 93.0579 112.74 92.9082C112.05 92.7585 111.229 92.6836 110.279 92.6836ZM118.189 99.9883H102.369V98.7383H118.189V99.9883ZM116.158 105.379H105.845V107.488H104.322V104.246H114.654V102.664H104.283V101.492H116.158V105.379ZM116.685 108.387H104.322V107.176H116.685V108.387ZM133.15 92.8398C133.15 93.8945 132.818 94.8613 132.154 95.7402C131.49 96.6191 130.621 97.3483 129.546 97.9277C128.479 98.5007 127.336 98.888 126.119 99.0898L125.494 97.8398C126.555 97.6901 127.571 97.3743 128.541 96.8926C129.517 96.4043 130.305 95.8086 130.904 95.1055C131.503 94.3958 131.802 93.6406 131.802 92.8398V91.8438H133.15V92.8398ZM133.384 92.8398C133.384 93.6276 133.69 94.3796 134.302 95.0957C134.914 95.8053 135.705 96.4043 136.675 96.8926C137.645 97.3743 138.658 97.6901 139.712 97.8398L139.087 99.0898C137.877 98.888 136.734 98.4974 135.66 97.918C134.586 97.332 133.716 96.5996 133.052 95.7207C132.388 94.8418 132.056 93.8815 132.056 92.8398V91.8438H133.384V92.8398ZM133.306 108.582H131.802V101.961H133.306V108.582ZM140.494 102.293H124.673V101.004H140.494V102.293ZM152.584 102.879C152.577 103.634 152.414 104.373 152.095 105.096C151.783 105.818 151.327 106.463 150.728 107.029C150.136 107.602 149.433 108.042 148.619 108.348L147.837 107.215C148.547 106.948 149.169 106.583 149.703 106.121C150.243 105.652 150.653 105.135 150.933 104.568C151.22 104.002 151.366 103.439 151.373 102.879V101.922H152.584V102.879ZM152.857 102.879C152.85 103.471 152.968 104.054 153.209 104.627C153.456 105.193 153.817 105.714 154.293 106.189C154.768 106.665 155.344 107.039 156.021 107.312L155.377 108.484C154.563 108.178 153.879 107.729 153.326 107.137C152.779 106.551 152.372 105.89 152.105 105.154C151.845 104.419 151.718 103.66 151.724 102.879V101.922H152.857V102.879ZM159.009 102.879C159.003 103.582 158.863 104.301 158.589 105.037C158.323 105.773 157.912 106.45 157.359 107.068C156.812 107.687 156.151 108.159 155.377 108.484L154.712 107.312C155.37 107.013 155.936 106.613 156.412 106.111C156.893 105.61 157.255 105.076 157.496 104.51C157.743 103.937 157.864 103.393 157.857 102.879V101.922H159.009V102.879ZM159.361 102.879C159.354 103.478 159.491 104.061 159.771 104.627C160.058 105.193 160.468 105.704 161.002 106.16C161.535 106.609 162.167 106.961 162.896 107.215L162.134 108.348C161.301 108.055 160.585 107.628 159.986 107.068C159.387 106.515 158.931 105.877 158.619 105.154C158.306 104.432 158.15 103.673 158.15 102.879V101.922H159.361V102.879ZM161.314 101.16H159.791V91.2383H161.314V101.16ZM151.939 92.2539C152.811 92.2539 153.593 92.4232 154.283 92.7617C154.973 93.1003 155.513 93.5788 155.904 94.1973C156.295 94.8158 156.49 95.5221 156.49 96.3164C156.49 97.0977 156.295 97.7943 155.904 98.4062C155.513 99.0182 154.973 99.4935 154.283 99.832C153.593 100.171 152.811 100.34 151.939 100.34C151.067 100.34 150.285 100.171 149.595 99.832C148.905 99.4935 148.365 99.0182 147.974 98.4062C147.584 97.7943 147.388 97.0977 147.388 96.3164C147.388 95.5221 147.584 94.8158 147.974 94.1973C148.365 93.5788 148.905 93.1003 149.595 92.7617C150.285 92.4232 151.067 92.2539 151.939 92.2539ZM151.939 93.5625C151.353 93.556 150.829 93.6699 150.367 93.9043C149.905 94.1322 149.54 94.4577 149.273 94.8809C149.013 95.304 148.886 95.7826 148.892 96.3164C148.886 96.8438 149.013 97.3158 149.273 97.7324C149.54 98.1426 149.901 98.4681 150.357 98.709C150.819 98.9499 151.347 99.0703 151.939 99.0703C152.525 99.0703 153.049 98.9499 153.511 98.709C153.974 98.4681 154.335 98.1426 154.595 97.7324C154.856 97.3158 154.986 96.8438 154.986 96.3164C154.986 95.7826 154.856 95.304 154.595 94.8809C154.335 94.4577 153.97 94.1322 153.502 93.9043C153.039 93.6699 152.518 93.556 151.939 93.5625ZM178.306 97.7227H166.412V96.4922H178.306V97.7227ZM180.142 101.336H164.244V100.086H180.142V101.336ZM167.935 97.1172H166.412V91.8633H167.935V97.1172ZM178.404 108.152H166.314V106.883H178.404V108.152ZM167.837 107.254H166.314V103.113H167.837V107.254ZM202.447 102.781H186.548V101.531H202.447V102.781ZM195.201 108.582H193.697V102.078H195.201V108.582ZM190.103 94.3438H198.853V91.9414H200.396V99.4219H188.58V91.9414H190.103V94.3438ZM198.853 98.1719V95.5938H190.103V98.1719H198.853ZM209.615 94.4414C209.615 95.4701 209.41 96.4434 209 97.3613C208.589 98.2793 208.013 99.0833 207.271 99.7734C206.535 100.464 205.689 100.984 204.732 101.336L203.931 100.125C204.778 99.819 205.536 99.3763 206.207 98.7969C206.877 98.2109 207.401 97.5404 207.779 96.7852C208.156 96.0299 208.345 95.2487 208.345 94.4414V92.9961H209.615V94.4414ZM209.888 94.4219C209.888 95.1641 210.067 95.8867 210.425 96.5898C210.783 97.293 211.288 97.918 211.939 98.4648C212.59 99.0117 213.332 99.4284 214.166 99.7148L213.365 100.926C212.434 100.587 211.61 100.092 210.894 99.4414C210.184 98.7904 209.631 98.0319 209.234 97.166C208.837 96.2936 208.638 95.3789 208.638 94.4219V92.9961H209.888V94.4219ZM217.154 97.0586H213.228V95.7695H217.154V97.0586ZM213.775 93.6797H204.42V92.4297H213.775V93.6797ZM218.248 108.582H216.705V103.816H206.568V102.547H218.248V108.582ZM218.248 101.629H216.705V91.2188H218.248V101.629Z" fill="white"/>
<path d="M14.1436 20.616H12.6243V3.22652H14.1436V20.616ZM17.0442 11.4309H13.7983V10.1326H17.0442V11.4309ZM2.80387 15.1188C4.56262 15.1188 6.05893 15.0773 7.29282 14.9945C8.53131 14.907 9.78821 14.7459 11.0635 14.511L11.2155 15.7818C9.90792 16.0212 8.62339 16.1846 7.36188 16.2721C6.10037 16.3596 4.58103 16.4079 2.80387 16.4171H1.42265V15.1188H2.80387ZM9.28177 11.058H2.94199V15.6436H1.42265V9.78729H7.74862V6.11326H1.38122V4.84254H9.28177V11.058ZM19.8266 19.1105C19.601 19.1105 19.3892 19.0529 19.1912 18.9378C18.9979 18.8227 18.8436 18.6708 18.7285 18.482C18.618 18.2887 18.5651 18.0792 18.5697 17.8536C18.5651 17.628 18.618 17.4185 18.7285 17.2251C18.8436 17.0272 18.9979 16.8729 19.1912 16.7624C19.3892 16.6519 19.601 16.5967 19.8266 16.5967C20.0522 16.5967 20.2617 16.6519 20.455 16.7624C20.653 16.8729 20.8073 17.0272 20.9178 17.2251C21.0283 17.4185 21.0835 17.628 21.0835 17.8536C21.0835 18.0792 21.0283 18.2887 20.9178 18.482C20.8073 18.6708 20.653 18.8227 20.455 18.9378C20.2617 19.0529 20.0522 19.1105 19.8266 19.1105Z" fill="white"/>
<defs>
<clipPath id="clip0_533_1857">
<rect width="305" height="104" fill="white" transform="translate(0 32)"/>
</clipPath>
</defs>
</svg>
