<svg width="305" height="136" viewBox="0 0 305 136" fill="none" xmlns="http://www.w3.org/2000/svg">
<g clip-path="url(#clip0_533_1906)">
<path d="M1.41397 134.598L303.602 134.598V33.4004L1.41397 33.4004V134.598Z" fill="#4AE6CA"/>
<path d="M2.63443 33.4014H302.366C303.042 33.4014 303.6 33.9477 303.6 34.6365V133.363C303.6 134.04 303.054 134.599 302.366 134.599H2.63443C1.95802 134.599 1.40028 134.052 1.40028 133.363V34.6365C1.40028 33.9596 1.94615 33.4014 2.63443 33.4014ZM2.63443 32C1.17481 32 0 33.1757 0 34.6365V133.363C0 134.812 1.17481 136 2.63443 136H302.366C303.813 136 305 134.824 305 133.363V34.6365C305 33.1757 303.813 32 302.366 32H2.63443Z" fill="#0F594B"/>
<path d="M12.4232 123.566L292.574 123.566V44.4352L12.4232 44.4352V123.566Z" fill="#0F594B"/>
<mask id="mask0_533_1906" style="mask-type:luminance" maskUnits="userSpaceOnUse" x="12" y="44" width="281" height="80">
<path d="M12.4272 123.564L292.578 123.564V44.4333L12.4272 44.4333V123.564Z" fill="white"/>
</mask>
<g mask="url(#mask0_533_1906)">
<path d="M39.5792 103.469C50.3471 103.469 59.0763 94.7325 59.0763 83.956C59.0763 73.1795 50.3471 64.4434 39.5792 64.4434C28.8112 64.4434 20.082 73.1795 20.082 83.956C20.082 94.7325 28.8112 103.469 39.5792 103.469Z" fill="#4DD3B8"/>
<path d="M39.5893 103.956C28.565 103.956 19.5938 94.978 19.5938 83.945C19.5938 72.912 28.565 63.9336 39.5893 63.9336C50.6135 63.9336 59.5848 72.912 59.5848 83.945C59.5848 94.978 50.6135 103.956 39.5893 103.956ZM39.5893 64.9312C29.1109 64.9312 20.5906 73.4583 20.5906 83.945C20.5906 94.4317 29.1109 102.959 39.5893 102.959C50.0676 102.959 58.588 94.4317 58.588 83.945C58.588 73.4583 50.0676 64.9312 39.5893 64.9312Z" fill="#13604E"/>
<path d="M33.0762 96.962C40.2526 96.962 46.0703 91.1397 46.0703 83.9576C46.0703 76.7754 40.2526 70.9531 33.0762 70.9531C25.8997 70.9531 20.082 76.7754 20.082 83.9576C20.082 91.1397 25.8997 96.962 33.0762 96.962Z" fill="#13604E"/>
<path d="M20.0948 83.9569C30.8627 83.9569 39.5919 75.2208 39.5919 64.4443C39.5919 53.6677 30.8627 44.9316 20.0948 44.9316C9.32682 44.9316 0.597656 53.6677 0.597656 64.4443C0.597656 75.2208 9.32682 83.9569 20.0948 83.9569Z" fill="#4DD3B8"/>
<path d="M20.0932 84.4446C9.06894 84.4446 0.0976562 75.478 0.0976562 64.445C0.0976562 53.412 9.06894 44.4336 20.0932 44.4336C31.1174 44.4336 40.0887 53.412 40.0887 64.445C40.0887 75.478 31.1174 84.4564 20.0932 84.4564V84.4446ZM20.0932 45.4193C9.61482 45.4312 1.09447 53.9583 1.09447 64.445C1.09447 74.9317 9.61482 83.4588 20.0932 83.4588C30.5716 83.4588 39.0919 74.9317 39.0919 64.445C39.0919 53.9583 30.5716 45.4312 20.0932 45.4312V45.4193Z" fill="#13604E"/>
<path d="M20.0948 122.982C30.8627 122.982 39.5919 114.246 39.5919 103.47C39.5919 92.6931 30.8627 83.957 20.0948 83.957C9.32682 83.957 0.597656 92.6931 0.597656 103.47C0.597656 114.246 9.32682 122.982 20.0948 122.982Z" fill="#4DD3B8"/>
<path d="M20.0932 123.47C9.06894 123.47 0.0976562 114.503 0.0976562 103.47C0.0976562 92.4374 9.06894 83.459 20.0932 83.459C31.1174 83.459 40.0887 92.4374 40.0887 103.47C40.0887 114.503 31.1174 123.482 20.0932 123.482V123.47ZM20.0932 84.4447C9.61482 84.4447 1.09447 92.9837 1.09447 103.47C1.09447 113.957 9.61482 122.484 20.0932 122.484C30.5716 122.484 39.0919 113.957 39.0919 103.47C39.0919 92.9837 30.5716 84.4566 20.0932 84.4566V84.4447Z" fill="#13604E"/>
<path d="M0.59567 64.4454C0.59567 64.4454 0.132866 52.4148 13.5779 51.4409C27.1535 50.4552 30.3813 60.8231 30.7373 62.6521C31.1645 64.8492 31.0221 67.1056 29.0403 70.241C28.2453 71.4998 26.3466 74.2314 21.1371 75.0152C21.1371 75.0152 13.0558 75.7515 11.43 67.7351C11.43 67.7351 10.7892 62.177 16.0462 61.1319C16.0462 61.1319 17.6245 60.8825 18.289 61.5476C18.289 61.5476 19.4283 62.8421 18.0517 63.6853C17.138 64.2435 15.1443 64.0891 14.7409 66.8206C14.3611 69.3621 16.9362 70.9179 18.2653 71.3336C21.8491 72.4618 24.3174 71.7255 26.3229 69.6709C26.3229 69.6709 29.9897 66.6543 28.0317 61.1913C25.5396 54.2437 19.3215 52.2129 13.6135 52.6048C13.6135 52.6048 1.45008 52.9254 0.89234 67.7351C0.89234 67.7351 0.607537 65.4786 0.619404 64.4454H0.59567Z" fill="#13604E"/>
<path d="M0.595535 103.459C0.595535 103.459 0.144597 91.4284 13.5778 90.4546C27.1534 89.4689 30.3812 99.8368 30.7372 101.666C31.1644 103.863 31.022 106.119 29.0402 109.255C28.2451 110.514 26.3464 113.245 21.1369 114.029C21.1369 114.029 13.0557 114.765 11.4299 106.749C11.4299 106.749 10.7891 101.191 16.0461 100.146C16.0461 100.146 17.6244 99.8962 18.2889 100.561C18.2889 100.561 19.4281 101.856 18.0516 102.699C17.1378 103.257 15.1442 103.103 14.7407 105.834C14.361 108.376 16.9361 109.932 18.2652 110.347C21.8489 111.475 24.3172 110.739 26.3227 108.685C26.3227 108.685 29.9896 105.668 28.0315 100.205C25.5395 93.2574 19.3213 91.2265 13.6134 91.6185C13.6134 91.6185 1.44994 91.9391 0.892204 106.749C0.892204 106.749 0.607402 104.492 0.619268 103.459H0.595535Z" fill="#13604E"/>
<path d="M0.597656 64.4434C11.3608 64.4434 20.0948 73.1843 20.0948 83.956C20.0948 94.7277 11.3608 103.469 0.597656 103.469V64.4434Z" fill="#4DD3B8"/>
<path d="M0.597656 63.9453C11.6219 63.9453 20.5932 72.9237 20.5932 83.9567C20.5932 94.9897 11.6219 103.956 0.597656 103.956V63.9453ZM0.597656 102.971C11.076 102.971 19.5964 94.4434 19.5964 83.9567C19.5964 73.47 11.0642 64.931 0.597656 64.931V102.971Z" fill="#13604E"/>
<path d="M265.368 103.469C276.136 103.469 284.865 94.7325 284.865 83.956C284.865 73.1795 276.136 64.4434 265.368 64.4434C254.6 64.4434 245.871 73.1795 245.871 83.956C245.871 94.7325 254.6 103.469 265.368 103.469Z" fill="#4DD3B8"/>
<path d="M245.383 83.9567C245.383 72.9237 254.354 63.9453 265.378 63.9453C276.403 63.9453 285.374 72.9237 285.374 83.9567C285.374 94.9897 276.403 103.968 265.378 103.968C254.354 103.968 245.383 94.9897 245.383 83.9567ZM246.38 83.9567C246.38 94.4434 254.9 102.971 265.378 102.971C275.857 102.971 284.377 94.4434 284.377 83.9567C284.377 73.47 275.857 64.9429 265.378 64.9429C254.9 64.9429 246.38 73.47 246.38 83.9567Z" fill="#13604E"/>
<path d="M271.881 96.962C279.057 96.962 284.875 91.1397 284.875 83.9576C284.875 76.7754 279.057 70.9531 271.881 70.9531C264.704 70.9531 258.887 76.7754 258.887 83.9576C258.887 91.1397 264.704 96.962 271.881 96.962Z" fill="#13604E"/>
<path d="M284.864 83.9569C295.632 83.9569 304.361 75.2208 304.361 64.4443C304.361 53.6677 295.632 44.9316 284.864 44.9316C274.096 44.9316 265.367 53.6677 265.367 64.4443C265.367 75.2208 274.096 83.9569 284.864 83.9569Z" fill="#4DD3B8"/>
<path d="M264.867 64.445C264.867 53.412 273.838 44.4336 284.863 44.4336C295.887 44.4336 304.858 53.412 304.858 64.445C304.858 75.478 295.887 84.4564 284.863 84.4564C273.838 84.4564 264.867 75.478 264.867 64.445ZM265.864 64.445C265.864 74.9317 274.384 83.4588 284.863 83.4588C295.341 83.4588 303.861 74.9317 303.861 64.445C303.861 53.9583 295.341 45.4312 284.863 45.4312C274.384 45.4312 265.864 53.9583 265.864 64.445Z" fill="#13604E"/>
<path d="M284.864 122.982C295.632 122.982 304.361 114.246 304.361 103.47C304.361 92.6931 295.632 83.957 284.864 83.957C274.096 83.957 265.367 92.6931 265.367 103.47C265.367 114.246 274.096 122.982 284.864 122.982Z" fill="#4DD3B8"/>
<path d="M264.867 103.47C264.867 92.4374 273.838 83.459 284.863 83.459C295.887 83.459 304.858 92.4374 304.858 103.47C304.858 114.503 295.887 123.482 284.863 123.482C273.838 123.482 264.867 114.503 264.867 103.47ZM265.864 103.47C265.864 113.957 274.384 122.484 284.863 122.484C295.341 122.484 303.861 113.957 303.861 103.47C303.861 92.9837 295.341 84.4566 284.863 84.4566C274.384 84.4566 265.864 92.9837 265.864 103.47Z" fill="#13604E"/>
<path d="M304.362 64.4454C304.362 64.4454 304.813 52.4148 291.38 51.4409C277.804 50.4552 274.577 60.8231 274.221 62.6521C273.793 64.8492 273.936 67.1056 275.917 70.241C276.713 71.4998 278.611 74.2314 283.821 75.0152C283.821 75.0152 291.902 75.7515 293.528 67.7351C293.528 67.7351 294.169 62.177 288.912 61.1319C288.912 61.1319 287.333 60.8825 286.669 61.5476C286.669 61.5476 285.53 62.8421 286.906 63.6853C287.82 64.2435 289.813 64.0891 290.217 66.8206C290.597 69.3621 288.022 70.9179 286.692 71.3336C283.109 72.4618 280.64 71.7255 278.635 69.6709C278.635 69.6709 274.968 66.6543 276.926 61.1913C279.418 54.2437 285.636 52.2129 291.344 52.6048C291.344 52.6048 303.508 52.9254 304.065 67.7351C304.065 67.7351 304.35 65.4786 304.338 64.4454H304.362Z" fill="#13604E"/>
<path d="M304.362 103.459C304.362 103.459 304.813 91.4284 291.38 90.4546C277.804 89.4689 274.577 99.8368 274.221 101.666C273.793 103.863 273.936 106.119 275.917 109.255C276.713 110.514 278.611 113.245 283.821 114.029C283.821 114.029 291.902 114.765 293.528 106.749C293.528 106.749 294.169 101.191 288.912 100.146C288.912 100.146 287.333 99.8962 286.669 100.561C286.669 100.561 285.53 101.856 286.906 102.699C287.82 103.257 289.813 103.103 290.217 105.834C290.597 108.376 288.022 109.932 286.692 110.347C283.109 111.475 280.64 110.739 278.635 108.685C278.635 108.685 274.968 105.668 276.926 100.205C279.418 93.2574 285.636 91.2265 291.344 91.6185C291.344 91.6185 303.508 91.9391 304.065 106.749C304.065 106.749 304.35 104.492 304.338 103.459H304.362Z" fill="#13604E"/>
<path d="M304.36 64.4434C293.597 64.4434 284.863 73.1843 284.863 83.956C284.863 94.7277 293.597 103.469 304.36 103.469V64.4434Z" fill="#4DD3B8"/>
<path d="M304.359 103.956C293.335 103.956 284.363 94.978 284.363 83.945C284.363 72.912 293.335 63.9336 304.359 63.9336V103.956ZM304.359 64.9312C293.88 64.9312 285.36 73.4583 285.36 83.945C285.36 94.4317 293.88 102.959 304.359 102.959V64.9312Z" fill="#13604E"/>
</g>
<path d="M12.4237 44.4346H292.575V123.566H12.4237V44.4346ZM12.4237 43.0332C11.6524 43.0332 11.0234 43.6626 11.0234 44.4346V123.566C11.0234 124.338 11.6524 124.967 12.4237 124.967H292.575C293.346 124.967 293.975 124.338 293.975 123.566V44.4346C293.975 43.6626 293.346 43.0332 292.575 43.0332H12.4237Z" fill="#0F594B"/>
</g>
<path d="M103.843 68.4414H100.64V67.1523H103.843V68.4414ZM101.031 77.582H99.5074V60.2188H101.031V77.582ZM89.8394 72.6797H88.316V61.9375H89.8394V72.6797ZM89.7027 71.8789C91.0764 71.8854 92.4273 71.8268 93.7554 71.7031C95.0836 71.5794 96.441 71.3711 97.8277 71.0781L98.023 72.3867C96.6103 72.6732 95.2268 72.875 93.8726 72.9922C92.5185 73.1094 91.1285 73.168 89.7027 73.168H88.316V71.8789H89.7027ZM120.757 69.4961H104.859V68.2852H120.757V69.4961ZM118.765 74.5742H108.336V76.6445H106.793V73.5195H117.242V72.0352H106.773V70.8828H118.765V74.5742ZM119.332 77.3477H106.793V76.2344H119.332V77.3477ZM118.707 64.3398H108.453V66.2539H106.929V63.2852H117.164V61.8594H106.871V60.7461H118.707V64.3398ZM119.019 66.9766H106.929V65.8633H119.019V66.9766ZM133.121 65.5508C133.121 66.7487 132.893 67.9303 132.437 69.0957C131.981 70.2611 131.369 71.2962 130.601 72.2012C129.839 73.1061 129.006 73.7865 128.101 74.2422L127.183 73.0312C128.01 72.6341 128.778 72.0352 129.488 71.2344C130.204 70.4271 130.777 69.5221 131.207 68.5195C131.636 67.5169 131.851 66.5273 131.851 65.5508V62.6797H133.121V65.5508ZM133.394 65.5508C133.394 66.5078 133.609 67.4616 134.039 68.4121C134.468 69.3561 135.041 70.1992 135.757 70.9414C136.474 71.6836 137.255 72.237 138.101 72.6016L137.242 73.8125C136.298 73.3828 135.438 72.7448 134.664 71.8984C133.895 71.0521 133.283 70.0788 132.828 68.9785C132.378 67.8717 132.157 66.7292 132.164 65.5508V62.6797H133.394V65.5508ZM137.535 63.2852H127.75V62.0156H137.535V63.2852ZM141.5 77.582H139.957V60.2188H141.5V77.582ZM158.785 69.3008H157.281V60.2188H158.785V69.3008ZM158.785 74.2227H149.058V76.6445H147.535V73.0898H157.281V71.3906H147.515V70.1797H158.785V74.2227ZM159.41 77.3867H147.535V76.1562H159.41V77.3867ZM153.687 61C153.687 62.4453 153.381 63.7409 152.769 64.8867C152.157 66.0326 151.242 67.0156 150.025 67.8359C148.814 68.6497 147.32 69.2812 145.543 69.7305L144.976 68.5195C147.333 67.9271 149.104 67.0417 150.289 65.8633C151.474 64.6784 152.066 63.2852 152.066 61.6836V61H153.687ZM152.808 62.2305H145.718V61H152.808V62.2305ZM145.113 65.5508L144.859 64.2812L151.871 63.9883V65.043L145.113 65.5508ZM182.652 71.5859H166.753V70.3164H182.652V71.5859ZM175.406 77.582H173.902V71.0781H175.406V77.582ZM180.582 67.9531H168.804V61.1953H180.582V67.9531ZM170.308 66.7422H179.058V62.4453H170.308V66.7422ZM198.414 77.582H196.871V60.2188H198.414V77.582ZM193.277 62.1133C193.27 63.832 192.984 65.4401 192.418 66.9375C191.858 68.4349 190.972 69.8151 189.761 71.0781C188.55 72.3346 187.001 73.4154 185.113 74.3203L184.273 73.0703C185.946 72.276 187.336 71.3385 188.443 70.2578C189.556 69.1771 190.383 67.9792 190.923 66.6641C191.47 65.3424 191.747 63.9036 191.753 62.3477V62.1133H193.277ZM192.378 63.3633H185.074V62.1133H192.378V63.3633ZM214.781 77.582H213.257V60.2188H214.781V77.582ZM217.593 68.5781H214.39V67.2891H217.593V68.5781ZM210.289 62.0938C210.282 63.7799 210.002 65.375 209.449 66.8789C208.902 68.3763 208.036 69.7598 206.851 71.0293C205.666 72.2923 204.156 73.3763 202.32 74.2812L201.461 73.0703C203.069 72.2695 204.416 71.3288 205.503 70.248C206.597 69.1608 207.414 67.9564 207.955 66.6348C208.502 65.3132 208.778 63.8841 208.785 62.3477V62.0938H210.289ZM209.566 63.3828H202.261V62.0938H209.566V63.3828ZM109.097 99.9883H100.171V98.7188H109.097V99.9883ZM105.289 103.758H103.765V99.7148H105.289V103.758ZM109.019 94.1289H101.675V99.1875H100.171V92.8789H109.019V94.1289ZM112.984 108.621H111.461V91.2188H112.984V108.621ZM98.8433 103.523C100.992 103.523 103.02 103.491 104.927 103.426C106.835 103.361 108.628 103.23 110.308 103.035L110.425 104.188C109.221 104.363 107.964 104.497 106.656 104.588C105.354 104.673 104.084 104.734 102.847 104.773C101.617 104.806 100.354 104.819 99.0582 104.812L98.8433 103.523ZM120.699 92.5664C121.539 92.5664 122.287 92.8138 122.945 93.3086C123.609 93.8034 124.123 94.5098 124.488 95.4277C124.852 96.3457 125.035 97.4102 125.035 98.6211C125.035 99.8385 124.852 100.903 124.488 101.814C124.123 102.719 123.609 103.419 122.945 103.914C122.287 104.409 121.539 104.656 120.699 104.656C119.846 104.656 119.087 104.409 118.423 103.914C117.766 103.419 117.255 102.719 116.89 101.814C116.526 100.903 116.343 99.8385 116.343 98.6211C116.343 97.4102 116.526 96.3457 116.89 95.4277C117.255 94.5098 117.766 93.8034 118.423 93.3086C119.087 92.8138 119.846 92.5664 120.699 92.5664ZM120.699 93.9336C120.132 93.9336 119.631 94.1289 119.195 94.5195C118.765 94.9102 118.427 95.4603 118.179 96.1699C117.932 96.873 117.808 97.6901 117.808 98.6211C117.808 99.5521 117.932 100.372 118.179 101.082C118.427 101.785 118.765 102.329 119.195 102.713C119.631 103.097 120.132 103.289 120.699 103.289C121.259 103.289 121.76 103.097 122.203 102.713C122.645 102.329 122.987 101.782 123.228 101.072C123.469 100.363 123.589 99.5456 123.589 98.6211C123.589 97.6966 123.469 96.8796 123.228 96.1699C122.987 95.4603 122.645 94.9102 122.203 94.5195C121.76 94.1289 121.259 93.9336 120.699 93.9336ZM130.425 108.621H128.902V91.2188H130.425V108.621ZM129.586 99.1289H124.527V97.8594H129.586V99.1289ZM141.714 93.6797C141.714 94.6758 141.392 95.5905 140.748 96.4238C140.103 97.2507 139.257 97.944 138.209 98.5039C137.16 99.0573 136.044 99.4349 134.859 99.6367L134.253 98.4258C135.276 98.276 136.255 97.9701 137.193 97.5078C138.137 97.0391 138.902 96.4694 139.488 95.7988C140.074 95.1283 140.367 94.4219 140.367 93.6797V92.9375H141.714V93.6797ZM142.086 93.6797C142.086 94.4219 142.378 95.1283 142.964 95.7988C143.55 96.4694 144.312 97.0391 145.25 97.5078C146.194 97.9701 147.177 98.276 148.199 98.4258L147.632 99.6367C146.434 99.4349 145.311 99.0573 144.263 98.5039C143.215 97.944 142.369 97.2507 141.724 96.4238C141.08 95.5905 140.757 94.6758 140.757 93.6797V92.9375H142.086V93.6797ZM141.949 108.582H140.445V101.941H141.949V108.582ZM149.136 102.391H133.316V101.121H149.136V102.391ZM147.632 93.5625H134.8V92.3125H147.632V93.5625ZM164.644 97.7227H152.75V96.4922H164.644V97.7227ZM166.48 101.336H150.582V100.086H166.48V101.336ZM154.273 97.1172H152.75V91.8633H154.273V97.1172ZM164.742 108.152H152.652V106.883H164.742V108.152ZM154.175 107.254H152.652V103.113H154.175V107.254ZM188.785 102.781H172.886V101.531H188.785V102.781ZM181.539 108.582H180.035V102.078H181.539V108.582ZM176.441 94.3438H185.191V91.9414H186.734V99.4219H174.918V91.9414H176.441V94.3438ZM185.191 98.1719V95.5938H176.441V98.1719H185.191ZM195.953 94.4414C195.953 95.4701 195.748 96.4434 195.337 97.3613C194.927 98.2793 194.351 99.0833 193.609 99.7734C192.873 100.464 192.027 100.984 191.07 101.336L190.269 100.125C191.115 99.819 191.874 99.3763 192.545 98.7969C193.215 98.2109 193.739 97.5404 194.117 96.7852C194.494 96.0299 194.683 95.2487 194.683 94.4414V92.9961H195.953V94.4414ZM196.226 94.4219C196.226 95.1641 196.405 95.8867 196.763 96.5898C197.121 97.293 197.626 97.918 198.277 98.4648C198.928 99.0117 199.67 99.4284 200.503 99.7148L199.703 100.926C198.772 100.587 197.948 100.092 197.232 99.4414C196.522 98.7904 195.969 98.0319 195.572 97.166C195.175 96.2936 194.976 95.3789 194.976 94.4219V92.9961H196.226V94.4219ZM203.492 97.0586H199.566V95.7695H203.492V97.0586ZM200.113 93.6797H190.757V92.4297H200.113V93.6797ZM204.586 108.582H203.043V103.816H192.906V102.547H204.586V108.582ZM204.586 101.629H203.043V91.2188H204.586V101.629Z" fill="white"/>
<path d="M14.1436 20.616H12.6105V3.22652H14.1436V20.616ZM17.0442 11.3757H13.7983V10.0912H17.0442V11.3757ZM2.83149 14.9669C4.53039 14.9669 5.98987 14.9231 7.20995 14.8356C8.43462 14.7482 9.67772 14.5893 10.9392 14.3591L11.1326 15.6851C9.84346 15.9153 8.58195 16.0695 7.34807 16.1478C6.11418 16.2261 4.60866 16.2652 2.83149 16.2652H1.46409V14.9669H2.83149ZM9.57182 6.18232H2.99724V15.5608H1.46409V4.92541H9.57182V6.18232ZM19.8266 19.1105C19.601 19.1105 19.3892 19.0529 19.1912 18.9378C18.9979 18.8227 18.8436 18.6708 18.7285 18.482C18.618 18.2887 18.5651 18.0792 18.5697 17.8536C18.5651 17.628 18.618 17.4185 18.7285 17.2251C18.8436 17.0272 18.9979 16.8729 19.1912 16.7624C19.3892 16.6519 19.601 16.5967 19.8266 16.5967C20.0522 16.5967 20.2617 16.6519 20.455 16.7624C20.653 16.8729 20.8073 17.0272 20.9178 17.2251C21.0283 17.4185 21.0835 17.628 21.0835 17.8536C21.0835 18.0792 21.0283 18.2887 20.9178 18.482C20.8073 18.6708 20.653 18.8227 20.455 18.9378C20.2617 19.0529 20.0522 19.1105 19.8266 19.1105Z" fill="white"/>
<defs>
<clipPath id="clip0_533_1906">
<rect width="305" height="104" fill="white" transform="translate(0 32)"/>
</clipPath>
</defs>
</svg>
