<?xml version="1.0" encoding="UTF-8"?>
<svg id="Layer_2" data-name="Layer 2" xmlns="http://www.w3.org/2000/svg" xmlns:xlink="http://www.w3.org/1999/xlink" viewBox="0 0 257.02 87.57">
  <defs>
    <style>
      .cls-1 {
        fill: none;
      }

      .cls-2 {
        fill: #2e6c9a;
        stroke: #4e8dc3;
      }

      .cls-2, .cls-3, .cls-4 {
        stroke-linecap: round;
        stroke-linejoin: round;
      }

      .cls-3 {
        fill: #e06161;
        stroke: #ff9c9c;
      }

      .cls-4 {
        stroke: #4ae6ca;
      }

      .cls-4, .cls-5 {
        fill: #0f594b;
      }

      .cls-6 {
        clip-path: url(#clippath);
      }

      .cls-7 {
        fill: #fff;
      }

      .cls-8 {
        fill: #4ae6ca;
      }
    </style>
    <clipPath id="clippath">
      <rect class="cls-1" x="10.47" y="10.47" width="236.08" height="66.63" transform="translate(257.02 87.57) rotate(-180)"/>
    </clipPath>
  </defs>
  <g id="Layer_2_copy" data-name="Layer 2 copy">
    <g>
      <g>
        <rect class="cls-8" x="1.18" y="1.18" width="254.65" height="85.21" transform="translate(257.02 87.57) rotate(-180)"/>
        <path class="cls-5" d="M2.22,1.18H254.8c.57,0,1.04,.46,1.04,1.04V85.35c0,.57-.46,1.04-1.04,1.04H2.22c-.57,0-1.04-.46-1.04-1.04V2.22c0-.57,.46-1.04,1.04-1.04m0-1.18C.99,0,0,.99,0,2.22V85.35c0,1.22,.99,2.22,2.22,2.22H254.8c1.22,0,2.22-.99,2.22-2.22V2.22C257.02,.99,256.02,0,254.8,0H2.22Z"/>
      </g>
      <rect class="cls-5" x="10.47" y="10.47" width="236.08" height="66.63" transform="translate(257.02 87.57) rotate(-180)"/>
      <g class="cls-6">
        <g>
          <path class="cls-3" d="M76.24,110.42c-9.2,0-16.66-7.46-16.66-16.66h0c-9.2,0-16.66-7.46-16.66-16.66-9.2,0-16.66-7.46-16.66-16.66h0c-9.2,0-16.66-7.46-16.66-16.66,0-9.2,7.46-16.66,16.66-16.66h0c0-9.2,7.46-16.66,16.66-16.66h0c0-9.2,7.46-16.66,16.66-16.66h0c0-9.2,7.46-16.66,16.66-16.66h104.54c9.2,0,16.66,7.46,16.66,16.66h0c9.2,0,16.66,7.46,16.66,16.66h0c9.2,0,16.66,7.46,16.66,16.66h0c9.2,0,16.66,7.46,16.66,16.66,0,9.2-7.46,16.66-16.66,16.66h0c0,9.2-7.46,16.66-16.66,16.66,0,9.2-7.46,16.66-16.66,16.66h0c0,9.2-7.46,16.66-16.66,16.66H76.24Z"/>
          <path class="cls-2" d="M88.77-22.85c-9.2,0-16.66,7.46-16.66,16.66,0,0,0,0,0,0h0c-9.2,0-16.66,7.46-16.66,16.66h0s0,0,0,0c-9.2,0-16.66,7.46-16.66,16.66h0c-9.2,0-16.66,7.46-16.66,16.66,0,9.2,7.46,16.66,16.66,16.66h0c0,9.2,7.46,16.66,16.66,16.66h0c0,9.2,7.46,16.66,16.66,16.66h0c0,9.2,7.46,16.66,16.66,16.66h79.48c9.2,0,16.66-7.46,16.66-16.66h0c9.2,0,16.66-7.46,16.66-16.66,0,0,0,0,0,0,9.2,0,16.66-7.46,16.66-16.66h0c9.2,0,16.66-7.46,16.66-16.66,0-9.2-7.46-16.66-16.66-16.66h0c0-9.2-7.46-16.66-16.66-16.66,0,0,0,0,0,0h0c0-9.2-7.46-16.66-16.66-16.66h0c0-9.2-7.46-16.66-16.66-16.66H88.77Z"/>
          <path class="cls-4" d="M101.52,110.42c-9.2,0-16.66-7.46-16.66-16.66h0c-9.2,0-16.66-7.46-16.66-16.66-9.2,0-16.66-7.46-16.66-16.66h0c-9.2,0-16.66-7.46-16.66-16.66s7.46-16.66,16.66-16.66h0c0-9.2,7.46-16.66,16.66-16.66h0c0-9.2,7.46-16.66,16.66-16.66h0c0-9.2,7.46-16.66,16.66-16.66h53.97c9.2,0,16.66,7.46,16.66,16.66h0c9.2,0,16.66,7.46,16.66,16.66h0c9.2,0,16.66,7.46,16.66,16.66h0c9.2,0,16.66,7.46,16.66,16.66,0,9.2-7.46,16.66-16.66,16.66h0c0,9.2-7.46,16.66-16.66,16.66,0,9.2-7.46,16.66-16.66,16.66h0c0,9.2-7.46,16.66-16.66,16.66h-53.97Z"/>
        </g>
      </g>
      <path class="cls-5" d="M10.47,10.47H246.55V77.1H10.47V10.47m0-1.18c-.65,0-1.18,.53-1.18,1.18V77.1c0,.65,.53,1.18,1.18,1.18H246.55c.65,0,1.18-.53,1.18-1.18V10.47c0-.65-.53-1.18-1.18-1.18H10.47Z"/>
    </g>
    <g>
      <path class="cls-7" d="M103.05,41.38c0,3.46-2.71,5.65-6.77,5.65s-6.82-2.2-6.82-5.65,2.43-5.48,6.17-5.68c.03-.11,.06-.23,.06-.31,0-.31-.09-.63-.54-.91,0-.71,2.28,0,2.28,.34,0,.14-.2,.54-.31,.88,3.6,.29,5.94,2.4,5.94,5.68Zm-3.34-.11c0-2.43-1.37-3.91-3.51-3.91s-3.4,1.49-3.4,3.91,1.31,3.94,3.34,3.94c2.17,0,3.57-1.48,3.57-3.94Zm13.45-.69c.37-.14,2,3.05,1.31,3.05l-5.2-.06v3.91c0,4.68-.8,8.08-1.2,9.11-.29,.29-.86,.43-1.23,.34-.23-.8-.69-3.34-.69-7.57v-16.62c0-.69-2.31-1.97-3-2.31-.2-.09,.43-.77,.6-.77,1.51,0,5.71,.86,5.62,1.57-.06,.43-.11,.97-.11,1.57v9.42l3.88-1.66Z"/>
      <path class="cls-7" d="M138.62,31.25c-.06,.43-.11,.97-.11,1.57v14.67c0,4.68-.8,8.08-1.23,9.11-.26,.29-.83,.43-1.2,.34-.23-.8-.71-3.34-.71-7.57v-3.43c-6.14,1.88-12.65,2.63-14.39,2.63-.74,0-1.86-.66-1.86-2.34v-9.36c0-.51-1.68-1.26-2.23-1.43-.17-.06,.46-.86,.74-.86,1.14,0,3.4,.29,4.28,.57,.17,.06,.43,.17,.37,.54-.06,.4-.06,1-.06,1.54v8.85c4.8-.06,10.42-.91,13.13-1.54v-11.79c0-.69-2.28-1.97-3-2.31-.17-.09,.46-.77,.63-.77,1.51,0,5.71,.86,5.62,1.57Z"/>
      <path class="cls-7" d="M168.93,51.95c0,.14-.11,.23-.34,.23l-20.61,.03c-1.17,0-1.97,.31-2.31,.66-.94-.29-2.71-1.71-2.8-2.05-.03-.11,.14-.46,.29-.43,.54,.14,2.54,.23,4.45,.23l6.94-.03-.06-3.11c0-.54-1.11-1.34-1.83-1.68-.17-.08,.46-.66,.63-.66,1.48,0,4.54,.69,4.48,1.08-.03,.26-.26,2.68-.4,4.37l6.4-.03c2.03,0,2.68-1.14,3-1.14,.34,0,2.17,1.74,2.17,2.54Zm-20.75-13.42c0-3.23,2.66-5.4,6.74-5.6,.03-.11,.06-.2,.06-.29,0-.31-.09-.63-.51-.91,0-.66,2.2,0,2.2,.34,0,.14-.17,.54-.29,.86,3.97,.26,6.54,2.43,6.54,5.6,0,3.48-2.94,5.82-7.37,5.82s-7.37-2.34-7.37-5.82Zm3.23-.09c0,2.48,1.63,4.2,4.03,4.2,2.54,0,4.22-1.71,4.22-4.2s-1.66-3.94-4.17-3.94-4.08,1.57-4.08,3.94Z"/>
    </g>
  </g>
</svg>