<?xml version="1.0" encoding="UTF-8"?>
<svg id="Layer_2" data-name="Layer 2" xmlns="http://www.w3.org/2000/svg" xmlns:xlink="http://www.w3.org/1999/xlink" viewBox="0 0 257.02 134.26">
  <defs>
    <style>
      .cls-1 {
        fill: none;
      }

      .cls-2 {
        fill: #2e6c9a;
        stroke: #4e8dc3;
      }

      .cls-2, .cls-3, .cls-4 {
        stroke-linecap: round;
        stroke-linejoin: round;
      }

      .cls-3 {
        fill: #e06161;
        stroke: #ff9c9c;
      }

      .cls-4 {
        stroke: #4ae6ca;
      }

      .cls-4, .cls-5 {
        fill: #0f594b;
      }

      .cls-6 {
        clip-path: url(#clippath);
      }

      .cls-7 {
        fill: #fff;
      }

      .cls-8 {
        fill: #4ae6ca;
      }
    </style>
    <clipPath id="clippath">
      <rect class="cls-1" x="10.47" y="33.81" width="236.08" height="66.63" transform="translate(257.02 134.26) rotate(-180)"/>
    </clipPath>
  </defs>
  <g id="Layer_2_copy" data-name="Layer 2 copy">
    <g>
      <g>
        <rect class="cls-8" x="1.18" y="24.53" width="254.65" height="85.21" transform="translate(257.02 134.26) rotate(-180)"/>
        <path class="cls-5" d="M2.22,24.53H254.8c.57,0,1.04,.46,1.04,1.04V108.7c0,.57-.46,1.04-1.04,1.04H2.22c-.57,0-1.04-.46-1.04-1.04V25.56c0-.57,.46-1.04,1.04-1.04m0-1.18C.99,23.35,0,24.34,0,25.56V108.7c0,1.22,.99,2.22,2.22,2.22H254.8c1.22,0,2.22-.99,2.22-2.22V25.56c0-1.22-.99-2.22-2.22-2.22H2.22Z"/>
      </g>
      <rect class="cls-5" x="10.47" y="33.81" width="236.08" height="66.63" transform="translate(257.02 134.26) rotate(-180)"/>
      <g class="cls-6">
        <g>
          <path class="cls-3" d="M76.24,133.76c-9.2,0-16.66-7.46-16.66-16.66h0c-9.2,0-16.66-7.46-16.66-16.66-9.2,0-16.66-7.46-16.66-16.66h0c-9.2,0-16.66-7.46-16.66-16.66,0-9.2,7.46-16.66,16.66-16.66h0c0-9.2,7.46-16.66,16.66-16.66h0c0-9.2,7.46-16.66,16.66-16.66h0c0-9.2,7.46-16.66,16.66-16.66h104.54c9.2,0,16.66,7.46,16.66,16.66h0c9.2,0,16.66,7.46,16.66,16.66h0c9.2,0,16.66,7.46,16.66,16.66h0c9.2,0,16.66,7.46,16.66,16.66s-7.46,16.66-16.66,16.66h0c0,9.2-7.46,16.66-16.66,16.66,0,9.2-7.46,16.66-16.66,16.66h0c0,9.2-7.46,16.66-16.66,16.66H76.24Z"/>
          <path class="cls-2" d="M88.77,.5c-9.2,0-16.66,7.46-16.66,16.66,0,0,0,0,0,0h0c-9.2,0-16.66,7.46-16.66,16.66h0s0,0,0,0c-9.2,0-16.66,7.46-16.66,16.66h0c-9.2,0-16.66,7.46-16.66,16.66,0,9.2,7.46,16.66,16.66,16.66h0c0,9.2,7.46,16.66,16.66,16.66h0c0,9.2,7.46,16.66,16.66,16.66h0c0,9.2,7.46,16.66,16.66,16.66h79.48c9.2,0,16.66-7.46,16.66-16.66h0c9.2,0,16.66-7.46,16.66-16.66,0,0,0,0,0,0,9.2,0,16.66-7.46,16.66-16.66h0c9.2,0,16.66-7.46,16.66-16.66s-7.46-16.66-16.66-16.66h0c0-9.2-7.46-16.66-16.66-16.66,0,0,0,0,0,0h0c0-9.2-7.46-16.66-16.66-16.66h0c0-9.2-7.46-16.66-16.66-16.66H88.77Z"/>
          <line class="cls-2" x1="97.61" y1="133.76" x2="160.43" y2="133.76"/>
          <line class="cls-2" x1="96.71" y1="133.76" x2="97.61" y2="133.76"/>
          <line class="cls-2" x1="97.61" y1=".5" x2="96.65" y2=".5"/>
          <line class="cls-2" x1="160.37" y1=".5" x2="97.61" y2=".5"/>
          <path class="cls-4" d="M101.52,133.76c-9.2,0-16.66-7.46-16.66-16.66h0c-9.2,0-16.66-7.46-16.66-16.66-9.2,0-16.66-7.46-16.66-16.66h0c-9.2,0-16.66-7.46-16.66-16.66s7.46-16.66,16.66-16.66h0c0-9.2,7.46-16.66,16.66-16.66h0c0-9.2,7.46-16.66,16.66-16.66h0c0-9.2,7.46-16.66,16.66-16.66h53.97c9.2,0,16.66,7.46,16.66,16.66h0c9.2,0,16.66,7.46,16.66,16.66h0c9.2,0,16.66,7.46,16.66,16.66h0c9.2,0,16.66,7.46,16.66,16.66s-7.46,16.66-16.66,16.66h0c0,9.2-7.46,16.66-16.66,16.66,0,9.2-7.46,16.66-16.66,16.66h0c0,9.2-7.46,16.66-16.66,16.66h-53.97Z"/>
        </g>
      </g>
      <path class="cls-5" d="M10.47,33.81H246.55V100.45H10.47V33.81m0-1.18c-.65,0-1.18,.53-1.18,1.18V100.45c0,.65,.53,1.18,1.18,1.18H246.55c.65,0,1.18-.53,1.18-1.18V33.81c0-.65-.53-1.18-1.18-1.18H10.47Z"/>
    </g>
    <path class="cls-7" d="M134.42,55.91c-.06,.43-.11,.97-.11,1.57v12.25c0,4.68-.71,7.22-1.11,8.25-.26,.29-.77,.43-1.11,.34-.23-.83-.66-2.48-.66-6.71v-2.6c-1.37,.06-2.03,.29-2.34,.54-.46-.11-.97-.51-1.37-.91-1.08,1.23-2.77,1.94-4.85,1.94-3.65,0-6.11-2.23-6.11-5.51,0-3.11,2.17-5.28,5.48-5.51,.03-.11,.06-.2,.06-.29,0-.31-.2-.71-.51-.91,0-.66,2.23,0,2.23,.37,0,.14-.17,.51-.31,.83,1.46,.14,2.66,.66,3.57,1.46,.51,.11,2.23,.11,4.17,.11v-3.88c0-.54-1.54-1.63-2.25-1.97-.17-.09,.43-.63,.63-.63,1.48,0,4.68,.83,4.62,1.26Zm-8.74,9.08c0-2.31-1.14-3.85-2.88-3.85s-2.77,1.54-2.77,3.85,1.08,3.88,2.71,3.88c1.77,0,2.94-1.57,2.94-3.88Zm5.74,2.48v-4.77c-1.26,.09-1.8,.29-2.08,.54-.23-.06-.51-.2-.77-.37,.26,.66,.4,1.4,.4,2.2,0,.86-.17,1.63-.46,2.31,.74,.03,1.74,.09,2.91,.09Zm8.42-12.88c-.06,.43-.11,.97-.11,1.57v14.67c0,4.68-.77,8.08-1.17,9.11-.29,.29-.86,.43-1.23,.34-.23-.8-.66-3.34-.66-7.57v-16.62c0-.69-2.31-1.97-3-2.31-.2-.09,.43-.77,.6-.77,1.51,0,5.65,.86,5.57,1.57Z"/>
  </g>
</svg>