<svg width="305" height="136" viewBox="0 0 305 136" fill="none" xmlns="http://www.w3.org/2000/svg">
<g clip-path="url(#clip0_534_2477)">
<path d="M1.41397 134.598L303.602 134.598V33.4004L1.41397 33.4004V134.598Z" fill="#4AE6CA"/>
<path d="M2.63443 33.4014H302.366C303.042 33.4014 303.6 33.9477 303.6 34.6365V133.363C303.6 134.04 303.054 134.599 302.366 134.599H2.63443C1.95802 134.599 1.40028 134.052 1.40028 133.363V34.6365C1.40028 33.9596 1.94615 33.4014 2.63443 33.4014ZM2.63443 32C1.17481 32 0 33.1757 0 34.6365V133.363C0 134.812 1.17481 136 2.63443 136H302.366C303.813 136 305 134.824 305 133.363V34.6365C305 33.1757 303.813 32 302.366 32H2.63443Z" fill="#0F594B"/>
<path d="M12.4232 123.566L292.574 123.566V44.4352L12.4232 44.4352V123.566Z" fill="#0F594B"/>
<mask id="mask0_534_2477" style="mask-type:luminance" maskUnits="userSpaceOnUse" x="12" y="44" width="281" height="80">
<path d="M12.4272 123.566L292.578 123.566V44.4352L12.4272 44.4352V123.566Z" fill="white"/>
</mask>
<g mask="url(#mask0_534_2477)">
<path d="M39.5792 103.471C50.3471 103.471 59.0763 94.7345 59.0763 83.9579C59.0763 73.1814 50.3471 64.4453 39.5792 64.4453C28.8112 64.4453 20.082 73.1814 20.082 83.9579C20.082 94.7345 28.8112 103.471 39.5792 103.471Z" fill="#4DD3B8"/>
<path d="M39.5893 103.956C28.565 103.956 19.5938 94.978 19.5938 83.945C19.5938 72.912 28.565 63.9336 39.5893 63.9336C50.6135 63.9336 59.5848 72.912 59.5848 83.945C59.5848 94.978 50.6135 103.956 39.5893 103.956ZM39.5893 64.9312C29.1109 64.9312 20.5906 73.4583 20.5906 83.945C20.5906 94.4317 29.1109 102.959 39.5893 102.959C50.0676 102.959 58.588 94.4317 58.588 83.945C58.588 73.4583 50.0676 64.9312 39.5893 64.9312Z" fill="#13604E"/>
<path d="M33.0762 96.962C40.2526 96.962 46.0703 91.1397 46.0703 83.9576C46.0703 76.7754 40.2526 70.9531 33.0762 70.9531C25.8997 70.9531 20.082 76.7754 20.082 83.9576C20.082 91.1397 25.8997 96.962 33.0762 96.962Z" fill="#13604E"/>
<path d="M20.0948 83.9588C30.8627 83.9588 39.5919 75.2227 39.5919 64.4462C39.5919 53.6697 30.8627 44.9336 20.0948 44.9336C9.32682 44.9336 0.597656 53.6697 0.597656 64.4462C0.597656 75.2227 9.32682 83.9588 20.0948 83.9588Z" fill="#4DD3B8"/>
<path d="M20.0932 84.4446C9.06894 84.4446 0.0976562 75.478 0.0976562 64.445C0.0976562 53.412 9.06894 44.4336 20.0932 44.4336C31.1174 44.4336 40.0887 53.412 40.0887 64.445C40.0887 75.478 31.1174 84.4564 20.0932 84.4564V84.4446ZM20.0932 45.4193C9.61482 45.4312 1.09447 53.9583 1.09447 64.445C1.09447 74.9317 9.61482 83.4588 20.0932 83.4588C30.5716 83.4588 39.0919 74.9317 39.0919 64.445C39.0919 53.9583 30.5716 45.4312 20.0932 45.4312V45.4193Z" fill="#13604E"/>
<path d="M20.0948 122.982C30.8627 122.982 39.5919 114.246 39.5919 103.47C39.5919 92.6931 30.8627 83.957 20.0948 83.957C9.32682 83.957 0.597656 92.6931 0.597656 103.47C0.597656 114.246 9.32682 122.982 20.0948 122.982Z" fill="#4DD3B8"/>
<path d="M20.0932 123.468C9.06894 123.468 0.0976562 114.501 0.0976562 103.468C0.0976562 92.4354 9.06894 83.457 20.0932 83.457C31.1174 83.457 40.0887 92.4354 40.0887 103.468C40.0887 114.501 31.1174 123.48 20.0932 123.48V123.468ZM20.0932 84.4428C9.61482 84.4428 1.09447 92.9818 1.09447 103.468C1.09447 113.955 9.61482 122.482 20.0932 122.482C30.5716 122.482 39.0919 113.955 39.0919 103.468C39.0919 92.9818 30.5716 84.4546 20.0932 84.4546V84.4428Z" fill="#13604E"/>
<path d="M0.59567 64.4454C0.59567 64.4454 0.132866 52.4148 13.5779 51.4409C27.1535 50.4552 30.3813 60.8231 30.7373 62.6521C31.1645 64.8492 31.0221 67.1056 29.0403 70.241C28.2453 71.4998 26.3466 74.2314 21.1371 75.0152C21.1371 75.0152 13.0558 75.7515 11.43 67.7351C11.43 67.7351 10.7892 62.177 16.0462 61.1319C16.0462 61.1319 17.6245 60.8825 18.289 61.5476C18.289 61.5476 19.4283 62.8421 18.0517 63.6853C17.138 64.2435 15.1443 64.0891 14.7409 66.8206C14.3611 69.3621 16.9362 70.9179 18.2653 71.3336C21.8491 72.4618 24.3174 71.7255 26.3229 69.6709C26.3229 69.6709 29.9897 66.6543 28.0317 61.1913C25.5396 54.2437 19.3215 52.2129 13.6135 52.6048C13.6135 52.6048 1.45008 52.9254 0.89234 67.7351C0.89234 67.7351 0.607537 65.4786 0.619404 64.4454H0.59567Z" fill="#13604E"/>
<path d="M0.595535 103.457C0.595535 103.457 0.144597 91.4265 13.5778 90.4526C27.1534 89.4669 30.3812 99.8348 30.7372 101.664C31.1644 103.861 31.022 106.117 29.0402 109.253C28.2451 110.512 26.3464 113.243 21.1369 114.027C21.1369 114.027 13.0557 114.763 11.4299 106.747C11.4299 106.747 10.7891 101.189 16.0461 100.144C16.0461 100.144 17.6244 99.8942 18.2889 100.559C18.2889 100.559 19.4281 101.854 18.0516 102.697C17.1378 103.255 15.1442 103.101 14.7407 105.832C14.361 108.374 16.9361 109.93 18.2652 110.345C21.8489 111.474 24.3172 110.737 26.3227 108.683C26.3227 108.683 29.9896 105.666 28.0315 100.203C25.5395 93.2554 19.3213 91.2246 13.6134 91.6165C13.6134 91.6165 1.44994 91.9372 0.892204 106.747C0.892204 106.747 0.607402 104.49 0.619268 103.457H0.595535Z" fill="#13604E"/>
<path d="M0.597656 64.4453C11.3608 64.4453 20.0948 73.1862 20.0948 83.9579C20.0948 94.7297 11.3608 103.471 0.597656 103.471V64.4453Z" fill="#4DD3B8"/>
<path d="M0.597656 63.9453C11.6219 63.9453 20.5932 72.9237 20.5932 83.9567C20.5932 94.9897 11.6219 103.956 0.597656 103.956V63.9453ZM0.597656 102.971C11.076 102.971 19.5964 94.4434 19.5964 83.9567C19.5964 73.47 11.0642 64.931 0.597656 64.931V102.971Z" fill="#13604E"/>
<path d="M265.368 103.471C276.136 103.471 284.865 94.7345 284.865 83.9579C284.865 73.1814 276.136 64.4453 265.368 64.4453C254.6 64.4453 245.871 73.1814 245.871 83.9579C245.871 94.7345 254.6 103.471 265.368 103.471Z" fill="#4DD3B8"/>
<path d="M245.383 83.9567C245.383 72.9237 254.354 63.9453 265.378 63.9453C276.403 63.9453 285.374 72.9237 285.374 83.9567C285.374 94.9897 276.403 103.968 265.378 103.968C254.354 103.968 245.383 94.9897 245.383 83.9567ZM246.38 83.9567C246.38 94.4434 254.9 102.971 265.378 102.971C275.857 102.971 284.377 94.4434 284.377 83.9567C284.377 73.47 275.857 64.9429 265.378 64.9429C254.9 64.9429 246.38 73.47 246.38 83.9567Z" fill="#13604E"/>
<path d="M271.881 96.962C279.057 96.962 284.875 91.1397 284.875 83.9576C284.875 76.7754 279.057 70.9531 271.881 70.9531C264.704 70.9531 258.887 76.7754 258.887 83.9576C258.887 91.1397 264.704 96.962 271.881 96.962Z" fill="#13604E"/>
<path d="M284.864 83.9588C295.632 83.9588 304.361 75.2227 304.361 64.4462C304.361 53.6697 295.632 44.9336 284.864 44.9336C274.096 44.9336 265.367 53.6697 265.367 64.4462C265.367 75.2227 274.096 83.9588 284.864 83.9588Z" fill="#4DD3B8"/>
<path d="M264.867 64.445C264.867 53.412 273.838 44.4336 284.863 44.4336C295.887 44.4336 304.858 53.412 304.858 64.445C304.858 75.478 295.887 84.4564 284.863 84.4564C273.838 84.4564 264.867 75.478 264.867 64.445ZM265.864 64.445C265.864 74.9317 274.384 83.4588 284.863 83.4588C295.341 83.4588 303.861 74.9317 303.861 64.445C303.861 53.9583 295.341 45.4312 284.863 45.4312C274.384 45.4312 265.864 53.9583 265.864 64.445Z" fill="#13604E"/>
<path d="M284.864 122.982C295.632 122.982 304.361 114.246 304.361 103.47C304.361 92.6931 295.632 83.957 284.864 83.957C274.096 83.957 265.367 92.6931 265.367 103.47C265.367 114.246 274.096 122.982 284.864 122.982Z" fill="#4DD3B8"/>
<path d="M264.867 103.468C264.867 92.4354 273.838 83.457 284.863 83.457C295.887 83.457 304.858 92.4354 304.858 103.468C304.858 114.501 295.887 123.48 284.863 123.48C273.838 123.48 264.867 114.501 264.867 103.468ZM265.864 103.468C265.864 113.955 274.384 122.482 284.863 122.482C295.341 122.482 303.861 113.955 303.861 103.468C303.861 92.9818 295.341 84.4546 284.863 84.4546C274.384 84.4546 265.864 92.9818 265.864 103.468Z" fill="#13604E"/>
<path d="M304.362 64.4454C304.362 64.4454 304.813 52.4148 291.38 51.4409C277.804 50.4552 274.577 60.8231 274.221 62.6521C273.793 64.8492 273.936 67.1056 275.917 70.241C276.713 71.4998 278.611 74.2314 283.821 75.0152C283.821 75.0152 291.902 75.7515 293.528 67.7351C293.528 67.7351 294.169 62.177 288.912 61.1319C288.912 61.1319 287.333 60.8825 286.669 61.5476C286.669 61.5476 285.53 62.8421 286.906 63.6853C287.82 64.2435 289.813 64.0891 290.217 66.8206C290.597 69.3621 288.022 70.9179 286.692 71.3336C283.109 72.4618 280.64 71.7255 278.635 69.6709C278.635 69.6709 274.968 66.6543 276.926 61.1913C279.418 54.2437 285.636 52.2129 291.344 52.6048C291.344 52.6048 303.508 52.9254 304.065 67.7351C304.065 67.7351 304.35 65.4786 304.338 64.4454H304.362Z" fill="#13604E"/>
<path d="M304.362 103.457C304.362 103.457 304.813 91.4265 291.38 90.4526C277.804 89.4669 274.577 99.8348 274.221 101.664C273.793 103.861 273.936 106.117 275.917 109.253C276.713 110.512 278.611 113.243 283.821 114.027C283.821 114.027 291.902 114.763 293.528 106.747C293.528 106.747 294.169 101.189 288.912 100.144C288.912 100.144 287.333 99.8942 286.669 100.559C286.669 100.559 285.53 101.854 286.906 102.697C287.82 103.255 289.813 103.101 290.217 105.832C290.597 108.374 288.022 109.93 286.692 110.345C283.109 111.474 280.64 110.737 278.635 108.683C278.635 108.683 274.968 105.666 276.926 100.203C279.418 93.2554 285.636 91.2246 291.344 91.6165C291.344 91.6165 303.508 91.9372 304.065 106.747C304.065 106.747 304.35 104.49 304.338 103.457H304.362Z" fill="#13604E"/>
<path d="M304.36 64.4453C293.597 64.4453 284.863 73.1862 284.863 83.9579C284.863 94.7297 293.597 103.471 304.36 103.471V64.4453Z" fill="#4DD3B8"/>
<path d="M304.359 103.956C293.335 103.956 284.363 94.978 284.363 83.945C284.363 72.912 293.335 63.9336 304.359 63.9336V103.956ZM304.359 64.9312C293.88 64.9312 285.36 73.4583 285.36 83.945C285.36 94.4317 293.88 102.959 304.359 102.959V64.9312Z" fill="#13604E"/>
</g>
<path d="M12.4237 44.4326H292.575V123.564H12.4237V44.4326ZM12.4237 43.0312C11.6524 43.0312 11.0234 43.6607 11.0234 44.4326V123.564C11.0234 124.336 11.6524 124.965 12.4237 124.965H292.575C293.346 124.965 293.975 124.336 293.975 123.564V44.4326C293.975 43.6607 293.346 43.0312 292.575 43.0312H12.4237Z" fill="#0F594B"/>
</g>
<path d="M98.3394 71.5859H82.441V70.3164H98.3394V71.5859ZM91.0933 77.582H89.5894V71.0781H91.0933V77.582ZM96.2691 67.9531H84.4918V61.1953H96.2691V67.9531ZM85.9957 66.7422H94.7457V62.4453H85.9957V66.7422ZM114.14 72.1523H112.597V60.2188H114.14V72.1523ZM113.046 66.2539H108.359V65.0039H113.046V66.2539ZM104.531 61.4102C105.377 61.4102 106.142 61.5859 106.826 61.9375C107.509 62.2891 108.043 62.7839 108.427 63.4219C108.818 64.0534 109.017 64.776 109.023 65.5898C109.017 66.4036 108.818 67.1296 108.427 67.7676C108.043 68.3991 107.509 68.8939 106.826 69.252C106.142 69.61 105.377 69.7891 104.531 69.7891C103.671 69.7891 102.9 69.61 102.216 69.252C101.533 68.8939 100.996 68.3991 100.605 67.7676C100.214 67.1296 100.019 66.4036 100.019 65.5898C100.019 64.776 100.214 64.0534 100.605 63.4219C100.996 62.7839 101.533 62.2891 102.216 61.9375C102.9 61.5859 103.671 61.4102 104.531 61.4102ZM104.531 62.7188C103.945 62.7188 103.421 62.8424 102.959 63.0898C102.496 63.3372 102.135 63.679 101.875 64.1152C101.614 64.5514 101.484 65.043 101.484 65.5898C101.484 66.1497 101.614 66.6478 101.875 67.084C102.135 67.5202 102.496 67.862 102.959 68.1094C103.421 68.3568 103.945 68.4805 104.531 68.4805C105.097 68.4805 105.608 68.3568 106.064 68.1094C106.526 67.862 106.888 67.5202 107.148 67.084C107.408 66.6478 107.539 66.1497 107.539 65.5898C107.539 65.0495 107.408 64.5612 107.148 64.125C106.888 63.6823 106.526 63.3372 106.064 63.0898C105.602 62.8424 105.091 62.7188 104.531 62.7188ZM109.062 71.4492C109.062 72.4648 108.759 73.3926 108.154 74.2324C107.548 75.0723 106.738 75.7689 105.722 76.3223C104.713 76.8822 103.613 77.2695 102.421 77.4844L101.855 76.2539C102.877 76.0846 103.837 75.7689 104.736 75.3066C105.641 74.8444 106.367 74.278 106.914 73.6074C107.467 72.9368 107.747 72.2174 107.753 71.4492V70.7656H109.062V71.4492ZM109.316 71.4492C109.316 72.237 109.586 72.9694 110.127 73.6465C110.667 74.3171 111.39 74.8802 112.295 75.3359C113.199 75.7852 114.179 76.0911 115.234 76.2539L114.589 77.4844C113.398 77.2695 112.301 76.8854 111.298 76.332C110.302 75.7852 109.502 75.0918 108.896 74.252C108.291 73.4121 107.988 72.4779 107.988 71.4492V70.7656H109.316V71.4492ZM131.347 77.6211H129.804V60.2188H131.347V77.6211ZM122.109 61.5664C122.968 61.5664 123.733 61.8138 124.404 62.3086C125.074 62.8034 125.599 63.5098 125.976 64.4277C126.354 65.3457 126.543 66.4102 126.543 67.6211C126.543 68.832 126.354 69.8932 125.976 70.8047C125.599 71.7161 125.074 72.4193 124.404 72.9141C123.733 73.4089 122.968 73.6562 122.109 73.6562C121.25 73.6562 120.485 73.4089 119.814 72.9141C119.143 72.4193 118.619 71.7161 118.242 70.8047C117.864 69.8932 117.675 68.832 117.675 67.6211C117.675 66.4102 117.864 65.3457 118.242 64.4277C118.619 63.5098 119.143 62.8034 119.814 62.3086C120.485 61.8138 121.25 61.5664 122.109 61.5664ZM122.109 62.9336C121.536 62.9336 121.025 63.1289 120.576 63.5195C120.127 63.9102 119.778 64.4603 119.531 65.1699C119.283 65.8796 119.16 66.6966 119.16 67.6211C119.16 68.5521 119.283 69.3724 119.531 70.082C119.778 70.7852 120.127 71.3288 120.576 71.7129C121.025 72.097 121.536 72.2891 122.109 72.2891C122.688 72.2891 123.199 72.097 123.642 71.7129C124.091 71.3288 124.44 70.7852 124.687 70.082C124.934 69.3724 125.058 68.5521 125.058 67.6211C125.058 66.6901 124.934 65.873 124.687 65.1699C124.44 64.4603 124.091 63.9102 123.642 63.5195C123.199 63.1289 122.688 62.9336 122.109 62.9336ZM155.214 70.375H139.316V69.1055H155.214V70.375ZM148.144 73.9297H146.621V69.8867H148.144V73.9297ZM153.144 67.1133H141.386V61.0781H153.144V67.1133ZM142.89 65.8828H151.621V62.2891H142.89V65.8828ZM153.437 77.2109H141.347V75.9219H153.437V77.2109ZM142.89 76.3711H141.347V72.2109H142.89V76.3711ZM171.464 77.582H170V60.2188H171.464V77.582ZM166.972 67.7383H163.574V66.4883H166.972V67.7383ZM167.949 76.6836H166.503V60.6484H167.949V76.6836ZM161.445 65.1797C161.438 66.4297 161.269 67.6374 160.937 68.8027C160.612 69.9681 160.143 71.0163 159.531 71.9473C158.925 72.8717 158.209 73.5911 157.382 74.1055L156.406 72.9531C157.194 72.4844 157.877 71.8398 158.457 71.0195C159.043 70.1992 159.485 69.2845 159.785 68.2754C160.091 67.2663 160.24 66.2344 160.234 65.1797V62.9141H161.445V65.1797ZM161.718 65.1797C161.718 66.1888 161.868 67.1719 162.168 68.1289C162.467 69.0794 162.897 69.9453 163.457 70.7266C164.017 71.5013 164.687 72.1133 165.468 72.5625L164.531 73.6953C163.698 73.194 162.985 72.5072 162.392 71.6348C161.8 70.7559 161.344 69.763 161.025 68.6562C160.712 67.543 160.559 66.3841 160.566 65.1797V62.9141H161.718V65.1797ZM164.902 63.5391H156.894V62.2695H164.902V63.5391ZM187.382 63.9102H181.914V62.6602H187.382V63.9102ZM187.382 67.8359H181.914V66.5664H187.382V67.8359ZM179.609 71.8789C179.609 72.6341 179.453 73.373 179.14 74.0957C178.828 74.8184 178.372 75.4694 177.773 76.0488C177.174 76.6283 176.464 77.0742 175.644 77.3867L174.882 76.2148C175.592 75.9609 176.214 75.6029 176.748 75.1406C177.288 74.6719 177.698 74.1543 177.978 73.5879C178.265 73.015 178.411 72.4453 178.418 71.8789V70.6875H179.609V71.8789ZM179.882 71.8789C179.876 72.4779 179.993 73.0671 180.234 73.6465C180.481 74.2259 180.843 74.7533 181.318 75.2285C181.8 75.7038 182.382 76.0781 183.066 76.3516L182.382 77.5234C181.582 77.2174 180.908 76.7682 180.361 76.1758C179.821 75.5898 179.414 74.9258 179.14 74.1836C178.867 73.4349 178.73 72.6667 178.73 71.8789V70.6875H179.882V71.8789ZM186.035 71.8789C186.035 72.582 185.898 73.3047 185.625 74.0469C185.351 74.7891 184.938 75.4727 184.384 76.0977C183.837 76.7227 183.17 77.1979 182.382 77.5234L181.718 76.3516C182.382 76.0586 182.952 75.6582 183.427 75.1504C183.903 74.6361 184.261 74.0924 184.502 73.5195C184.749 72.9466 184.876 72.3997 184.882 71.8789V70.6875H186.035V71.8789ZM186.386 71.8789C186.38 72.4779 186.517 73.0638 186.796 73.6367C187.083 74.2096 187.493 74.724 188.027 75.1797C188.567 75.6289 189.205 75.974 189.941 76.2148L189.14 77.3867C188.313 77.0807 187.6 76.6445 187.002 76.0781C186.409 75.5182 185.957 74.8802 185.644 74.1641C185.338 73.4414 185.188 72.6797 185.195 71.8789V70.6875H186.386V71.8789ZM178.691 61.1758C179.531 61.1758 180.289 61.3483 180.966 61.6934C181.65 62.0384 182.184 62.5267 182.568 63.1582C182.959 63.7832 183.157 64.4896 183.164 65.2773C183.157 66.0651 182.959 66.7715 182.568 67.3965C182.184 68.015 181.65 68.4967 180.966 68.8418C180.289 69.1868 179.531 69.3594 178.691 69.3594C177.832 69.3594 177.063 69.1868 176.386 68.8418C175.709 68.4967 175.175 68.015 174.785 67.3965C174.394 66.778 174.199 66.0716 174.199 65.2773C174.199 64.4896 174.394 63.7832 174.785 63.1582C175.175 62.5267 175.709 62.0384 176.386 61.6934C177.063 61.3483 177.832 61.1758 178.691 61.1758ZM178.691 62.4844C178.118 62.4844 177.6 62.6016 177.138 62.8359C176.676 63.0703 176.315 63.4023 176.054 63.832C175.8 64.2617 175.677 64.7435 175.683 65.2773C175.677 65.8112 175.8 66.2897 176.054 66.7129C176.315 67.1361 176.673 67.4681 177.128 67.709C177.591 67.9499 178.112 68.0703 178.691 68.0703C179.257 68.0703 179.765 67.9499 180.214 67.709C180.67 67.4681 181.028 67.1361 181.289 66.7129C181.549 66.2897 181.679 65.8112 181.679 65.2773C181.679 64.7435 181.549 64.2617 181.289 63.832C181.028 63.4023 180.67 63.0703 180.214 62.8359C179.759 62.6016 179.251 62.4844 178.691 62.4844ZM188.3 70.1406H186.757V60.2188H188.3V70.1406ZM205.234 66.7227H193.339V65.4922H205.234V66.7227ZM207.07 70.3359H191.171V69.0859H207.07V70.3359ZM194.863 66.1172H193.339V60.8633H194.863V66.1172ZM205.332 77.1523H193.242V75.8828H205.332V77.1523ZM194.765 76.2539H193.242V72.1133H194.765V76.2539ZM214.414 65.5508C214.414 66.7487 214.186 67.9303 213.73 69.0957C213.274 70.2611 212.662 71.2962 211.894 72.2012C211.132 73.1061 210.299 73.7865 209.394 74.2422L208.476 73.0312C209.303 72.6341 210.071 72.0352 210.781 71.2344C211.497 70.4271 212.07 69.5221 212.5 68.5195C212.929 67.5169 213.144 66.5273 213.144 65.5508V62.6797H214.414V65.5508ZM214.687 65.5508C214.687 66.5078 214.902 67.4616 215.332 68.4121C215.761 69.3561 216.334 70.1992 217.05 70.9414C217.767 71.6836 218.548 72.237 219.394 72.6016L218.535 73.8125C217.591 73.3828 216.731 72.7448 215.957 71.8984C215.188 71.0521 214.576 70.0788 214.121 68.9785C213.671 67.8717 213.45 66.7292 213.457 65.5508V62.6797H214.687V65.5508ZM218.828 63.2852H209.043V62.0156H218.828V63.2852ZM222.793 77.582H221.25V60.2188H222.793V77.582ZM121.25 99.9883H112.324V98.7188H121.25V99.9883ZM117.441 103.758H115.918V99.7148H117.441V103.758ZM121.171 94.1289H113.828V99.1875H112.324V92.8789H121.171V94.1289ZM125.136 108.621H123.613V91.2188H125.136V108.621ZM110.996 103.523C113.144 103.523 115.172 103.491 117.08 103.426C118.987 103.361 120.781 103.23 122.461 103.035L122.578 104.188C121.373 104.363 120.117 104.497 118.808 104.588C117.506 104.673 116.237 104.734 115 104.773C113.769 104.806 112.506 104.819 111.211 104.812L110.996 103.523ZM142.5 100.965H140.996V91.2383H142.5V100.965ZM142.636 103.211H130.957V101.922H142.636V103.211ZM142.812 108.348H130.8V107.098H142.812V108.348ZM134.902 107.645H133.398V102.273H134.902V107.645ZM140.234 107.645H138.711V102.273H140.234V107.645ZM134.16 94.168C134.16 95.1836 133.955 96.1406 133.545 97.0391C133.134 97.9375 132.552 98.7188 131.796 99.3828C131.048 100.04 130.188 100.535 129.218 100.867L128.437 99.6562C129.303 99.3698 130.071 98.9499 130.742 98.3965C131.419 97.8431 131.946 97.2018 132.324 96.4727C132.701 95.737 132.89 94.9688 132.89 94.168V92.7422H134.16V94.168ZM134.433 94.168C134.433 94.9232 134.625 95.6458 135.009 96.3359C135.393 97.026 135.921 97.6348 136.591 98.1621C137.262 98.6829 138.027 99.0768 138.886 99.3438L138.125 100.535C137.155 100.223 136.295 99.7539 135.546 99.1289C134.804 98.5039 134.222 97.765 133.798 96.9121C133.375 96.0527 133.164 95.138 133.164 94.168V92.7422H134.433V94.168ZM138.437 93.6602H128.828V92.4102H138.437V93.6602ZM150.136 92.5664C150.976 92.5664 151.725 92.8138 152.382 93.3086C153.046 93.8034 153.561 94.5098 153.925 95.4277C154.29 96.3457 154.472 97.4102 154.472 98.6211C154.472 99.8385 154.29 100.903 153.925 101.814C153.561 102.719 153.046 103.419 152.382 103.914C151.725 104.409 150.976 104.656 150.136 104.656C149.283 104.656 148.525 104.409 147.861 103.914C147.203 103.419 146.692 102.719 146.328 101.814C145.963 100.903 145.781 99.8385 145.781 98.6211C145.781 97.4102 145.963 96.3457 146.328 95.4277C146.692 94.5098 147.203 93.8034 147.861 93.3086C148.525 92.8138 149.283 92.5664 150.136 92.5664ZM150.136 93.9336C149.57 93.9336 149.069 94.1289 148.632 94.5195C148.203 94.9102 147.864 95.4603 147.617 96.1699C147.369 96.873 147.246 97.6901 147.246 98.6211C147.246 99.5521 147.369 100.372 147.617 101.082C147.864 101.785 148.203 102.329 148.632 102.713C149.069 103.097 149.57 103.289 150.136 103.289C150.696 103.289 151.198 103.097 151.64 102.713C152.083 102.329 152.425 101.782 152.666 101.072C152.906 100.363 153.027 99.5456 153.027 98.6211C153.027 97.6966 152.906 96.8796 152.666 96.1699C152.425 95.4603 152.083 94.9102 151.64 94.5195C151.198 94.1289 150.696 93.9336 150.136 93.9336ZM159.863 108.621H158.339V91.2188H159.863V108.621ZM159.023 99.1289H153.964V97.8594H159.023V99.1289ZM166.386 94.1289H174.98V91.9219H176.503V98.8555H164.863V91.9219H166.386V94.1289ZM174.98 97.625V95.3398H166.386V97.625H174.98ZM178.574 101.98H162.753V100.711H178.574V101.98ZM171.425 101.297H169.902V98.1133H171.425V101.297ZM176.816 108.211H164.804V106.922H176.816V108.211ZM166.347 107.352H164.804V103.367H166.347V107.352ZM193.476 108.621H191.953V91.2188H193.476V108.621ZM196.386 99.3828H193.125V98.0938H196.386V99.3828ZM182.168 102.977C183.873 102.97 185.335 102.924 186.552 102.84C187.77 102.749 189.01 102.586 190.273 102.352L190.468 103.68C189.179 103.914 187.916 104.07 186.679 104.148C185.449 104.227 183.945 104.266 182.168 104.266H180.8V102.977H182.168ZM188.906 94.1875H182.324V103.562H180.8V92.918H188.906V94.1875Z" fill="white"/>
<path d="M16.9613 11.4448H13.7431V10.1602H16.9613V11.4448ZM14.1436 20.5746H12.6105V3.22652H14.1436V20.5746ZM2.94199 15.6713H1.42265V4.93923H2.94199V15.6713ZM2.80387 14.884C4.18508 14.884 5.53867 14.8241 6.86464 14.7044C8.19521 14.5801 9.55341 14.3729 10.9392 14.0829L11.1326 15.395C9.71455 15.6759 8.32643 15.8762 6.96823 15.9959C5.61464 16.111 4.22652 16.1685 2.80387 16.1685H1.42265V14.884H2.80387ZM19.8266 19.1105C19.601 19.1105 19.3892 19.0529 19.1912 18.9378C18.9979 18.8227 18.8436 18.6708 18.7285 18.482C18.618 18.2887 18.5651 18.0792 18.5697 17.8536C18.5651 17.628 18.618 17.4185 18.7285 17.2251C18.8436 17.0272 18.9979 16.8729 19.1912 16.7624C19.3892 16.6519 19.601 16.5967 19.8266 16.5967C20.0522 16.5967 20.2617 16.6519 20.455 16.7624C20.653 16.8729 20.8073 17.0272 20.9178 17.2251C21.0283 17.4185 21.0835 17.628 21.0835 17.8536C21.0835 18.0792 21.0283 18.2887 20.9178 18.482C20.8073 18.6708 20.653 18.8227 20.455 18.9378C20.2617 19.0529 20.0522 19.1105 19.8266 19.1105Z" fill="white"/>
<defs>
<clipPath id="clip0_534_2477">
<rect width="305" height="104" fill="white" transform="translate(0 32)"/>
</clipPath>
</defs>
</svg>
