<svg width="305" height="136" viewBox="0 0 305 136" fill="none" xmlns="http://www.w3.org/2000/svg">
<g clip-path="url(#clip0_534_2526)">
<path d="M1.41397 134.598L303.602 134.598V33.4004L1.41397 33.4004V134.598Z" fill="#4AE6CA"/>
<path d="M2.63443 33.4014H302.366C303.042 33.4014 303.6 33.9477 303.6 34.6365V133.363C303.6 134.04 303.054 134.599 302.366 134.599H2.63443C1.95802 134.599 1.40028 134.052 1.40028 133.363V34.6365C1.40028 33.9596 1.94615 33.4014 2.63443 33.4014ZM2.63443 32C1.17481 32 0 33.1757 0 34.6365V133.363C0 134.812 1.17481 136 2.63443 136H302.366C303.813 136 305 134.824 305 133.363V34.6365C305 33.1757 303.813 32 302.366 32H2.63443Z" fill="#0F594B"/>
<path d="M12.4232 123.566L292.574 123.566V44.4352L12.4232 44.4352V123.566Z" fill="#0F594B"/>
<mask id="mask0_534_2526" style="mask-type:luminance" maskUnits="userSpaceOnUse" x="12" y="44" width="281" height="80">
<path d="M12.4272 123.566L292.578 123.566V44.4352L12.4272 44.4352V123.566Z" fill="white"/>
</mask>
<g mask="url(#mask0_534_2526)">
<path d="M39.5792 103.471C50.3471 103.471 59.0763 94.7345 59.0763 83.9579C59.0763 73.1814 50.3471 64.4453 39.5792 64.4453C28.8112 64.4453 20.082 73.1814 20.082 83.9579C20.082 94.7345 28.8112 103.471 39.5792 103.471Z" fill="#4DD3B8"/>
<path d="M39.5893 103.956C28.565 103.956 19.5938 94.978 19.5938 83.945C19.5938 72.912 28.565 63.9336 39.5893 63.9336C50.6135 63.9336 59.5848 72.912 59.5848 83.945C59.5848 94.978 50.6135 103.956 39.5893 103.956ZM39.5893 64.9312C29.1109 64.9312 20.5906 73.4583 20.5906 83.945C20.5906 94.4317 29.1109 102.959 39.5893 102.959C50.0676 102.959 58.588 94.4317 58.588 83.945C58.588 73.4583 50.0676 64.9312 39.5893 64.9312Z" fill="#13604E"/>
<path d="M33.0762 96.962C40.2526 96.962 46.0703 91.1397 46.0703 83.9576C46.0703 76.7754 40.2526 70.9531 33.0762 70.9531C25.8997 70.9531 20.082 76.7754 20.082 83.9576C20.082 91.1397 25.8997 96.962 33.0762 96.962Z" fill="#13604E"/>
<path d="M20.0948 83.9588C30.8627 83.9588 39.5919 75.2227 39.5919 64.4462C39.5919 53.6697 30.8627 44.9336 20.0948 44.9336C9.32682 44.9336 0.597656 53.6697 0.597656 64.4462C0.597656 75.2227 9.32682 83.9588 20.0948 83.9588Z" fill="#4DD3B8"/>
<path d="M20.0932 84.4446C9.06894 84.4446 0.0976562 75.478 0.0976562 64.445C0.0976562 53.412 9.06894 44.4336 20.0932 44.4336C31.1174 44.4336 40.0887 53.412 40.0887 64.445C40.0887 75.478 31.1174 84.4564 20.0932 84.4564V84.4446ZM20.0932 45.4193C9.61482 45.4312 1.09447 53.9583 1.09447 64.445C1.09447 74.9317 9.61482 83.4588 20.0932 83.4588C30.5716 83.4588 39.0919 74.9317 39.0919 64.445C39.0919 53.9583 30.5716 45.4312 20.0932 45.4312V45.4193Z" fill="#13604E"/>
<path d="M20.0948 122.982C30.8627 122.982 39.5919 114.246 39.5919 103.47C39.5919 92.6931 30.8627 83.957 20.0948 83.957C9.32682 83.957 0.597656 92.6931 0.597656 103.47C0.597656 114.246 9.32682 122.982 20.0948 122.982Z" fill="#4DD3B8"/>
<path d="M20.0932 123.468C9.06894 123.468 0.0976562 114.501 0.0976562 103.468C0.0976562 92.4354 9.06894 83.457 20.0932 83.457C31.1174 83.457 40.0887 92.4354 40.0887 103.468C40.0887 114.501 31.1174 123.48 20.0932 123.48V123.468ZM20.0932 84.4428C9.61482 84.4428 1.09447 92.9818 1.09447 103.468C1.09447 113.955 9.61482 122.482 20.0932 122.482C30.5716 122.482 39.0919 113.955 39.0919 103.468C39.0919 92.9818 30.5716 84.4546 20.0932 84.4546V84.4428Z" fill="#13604E"/>
<path d="M0.59567 64.4454C0.59567 64.4454 0.132866 52.4148 13.5779 51.4409C27.1535 50.4552 30.3813 60.8231 30.7373 62.6521C31.1645 64.8492 31.0221 67.1056 29.0403 70.241C28.2453 71.4998 26.3466 74.2314 21.1371 75.0152C21.1371 75.0152 13.0558 75.7515 11.43 67.7351C11.43 67.7351 10.7892 62.177 16.0462 61.1319C16.0462 61.1319 17.6245 60.8825 18.289 61.5476C18.289 61.5476 19.4283 62.8421 18.0517 63.6853C17.138 64.2435 15.1443 64.0891 14.7409 66.8206C14.3611 69.3621 16.9362 70.9179 18.2653 71.3336C21.8491 72.4618 24.3174 71.7255 26.3229 69.6709C26.3229 69.6709 29.9897 66.6543 28.0317 61.1913C25.5396 54.2437 19.3215 52.2129 13.6135 52.6048C13.6135 52.6048 1.45008 52.9254 0.89234 67.7351C0.89234 67.7351 0.607537 65.4786 0.619404 64.4454H0.59567Z" fill="#13604E"/>
<path d="M0.595535 103.457C0.595535 103.457 0.144597 91.4265 13.5778 90.4526C27.1534 89.4669 30.3812 99.8348 30.7372 101.664C31.1644 103.861 31.022 106.117 29.0402 109.253C28.2451 110.512 26.3464 113.243 21.1369 114.027C21.1369 114.027 13.0557 114.763 11.4299 106.747C11.4299 106.747 10.7891 101.189 16.0461 100.144C16.0461 100.144 17.6244 99.8942 18.2889 100.559C18.2889 100.559 19.4281 101.854 18.0516 102.697C17.1378 103.255 15.1442 103.101 14.7407 105.832C14.361 108.374 16.9361 109.93 18.2652 110.345C21.8489 111.474 24.3172 110.737 26.3227 108.683C26.3227 108.683 29.9896 105.666 28.0315 100.203C25.5395 93.2554 19.3213 91.2246 13.6134 91.6165C13.6134 91.6165 1.44994 91.9372 0.892204 106.747C0.892204 106.747 0.607402 104.49 0.619268 103.457H0.595535Z" fill="#13604E"/>
<path d="M0.597656 64.4453C11.3608 64.4453 20.0948 73.1862 20.0948 83.9579C20.0948 94.7297 11.3608 103.471 0.597656 103.471V64.4453Z" fill="#4DD3B8"/>
<path d="M0.597656 63.9453C11.6219 63.9453 20.5932 72.9237 20.5932 83.9567C20.5932 94.9897 11.6219 103.956 0.597656 103.956V63.9453ZM0.597656 102.971C11.076 102.971 19.5964 94.4434 19.5964 83.9567C19.5964 73.47 11.0642 64.931 0.597656 64.931V102.971Z" fill="#13604E"/>
<path d="M265.368 103.471C276.136 103.471 284.865 94.7345 284.865 83.9579C284.865 73.1814 276.136 64.4453 265.368 64.4453C254.6 64.4453 245.871 73.1814 245.871 83.9579C245.871 94.7345 254.6 103.471 265.368 103.471Z" fill="#4DD3B8"/>
<path d="M245.383 83.9567C245.383 72.9237 254.354 63.9453 265.378 63.9453C276.403 63.9453 285.374 72.9237 285.374 83.9567C285.374 94.9897 276.403 103.968 265.378 103.968C254.354 103.968 245.383 94.9897 245.383 83.9567ZM246.38 83.9567C246.38 94.4434 254.9 102.971 265.378 102.971C275.857 102.971 284.377 94.4434 284.377 83.9567C284.377 73.47 275.857 64.9429 265.378 64.9429C254.9 64.9429 246.38 73.47 246.38 83.9567Z" fill="#13604E"/>
<path d="M271.881 96.962C279.057 96.962 284.875 91.1397 284.875 83.9576C284.875 76.7754 279.057 70.9531 271.881 70.9531C264.704 70.9531 258.887 76.7754 258.887 83.9576C258.887 91.1397 264.704 96.962 271.881 96.962Z" fill="#13604E"/>
<path d="M284.864 83.9588C295.632 83.9588 304.361 75.2227 304.361 64.4462C304.361 53.6697 295.632 44.9336 284.864 44.9336C274.096 44.9336 265.367 53.6697 265.367 64.4462C265.367 75.2227 274.096 83.9588 284.864 83.9588Z" fill="#4DD3B8"/>
<path d="M264.867 64.445C264.867 53.412 273.838 44.4336 284.863 44.4336C295.887 44.4336 304.858 53.412 304.858 64.445C304.858 75.478 295.887 84.4564 284.863 84.4564C273.838 84.4564 264.867 75.478 264.867 64.445ZM265.864 64.445C265.864 74.9317 274.384 83.4588 284.863 83.4588C295.341 83.4588 303.861 74.9317 303.861 64.445C303.861 53.9583 295.341 45.4312 284.863 45.4312C274.384 45.4312 265.864 53.9583 265.864 64.445Z" fill="#13604E"/>
<path d="M284.864 122.982C295.632 122.982 304.361 114.246 304.361 103.47C304.361 92.6931 295.632 83.957 284.864 83.957C274.096 83.957 265.367 92.6931 265.367 103.47C265.367 114.246 274.096 122.982 284.864 122.982Z" fill="#4DD3B8"/>
<path d="M264.867 103.468C264.867 92.4354 273.838 83.457 284.863 83.457C295.887 83.457 304.858 92.4354 304.858 103.468C304.858 114.501 295.887 123.48 284.863 123.48C273.838 123.48 264.867 114.501 264.867 103.468ZM265.864 103.468C265.864 113.955 274.384 122.482 284.863 122.482C295.341 122.482 303.861 113.955 303.861 103.468C303.861 92.9818 295.341 84.4546 284.863 84.4546C274.384 84.4546 265.864 92.9818 265.864 103.468Z" fill="#13604E"/>
<path d="M304.362 64.4454C304.362 64.4454 304.813 52.4148 291.38 51.4409C277.804 50.4552 274.577 60.8231 274.221 62.6521C273.793 64.8492 273.936 67.1056 275.917 70.241C276.713 71.4998 278.611 74.2314 283.821 75.0152C283.821 75.0152 291.902 75.7515 293.528 67.7351C293.528 67.7351 294.169 62.177 288.912 61.1319C288.912 61.1319 287.333 60.8825 286.669 61.5476C286.669 61.5476 285.53 62.8421 286.906 63.6853C287.82 64.2435 289.813 64.0891 290.217 66.8206C290.597 69.3621 288.022 70.9179 286.692 71.3336C283.109 72.4618 280.64 71.7255 278.635 69.6709C278.635 69.6709 274.968 66.6543 276.926 61.1913C279.418 54.2437 285.636 52.2129 291.344 52.6048C291.344 52.6048 303.508 52.9254 304.065 67.7351C304.065 67.7351 304.35 65.4786 304.338 64.4454H304.362Z" fill="#13604E"/>
<path d="M304.362 103.457C304.362 103.457 304.813 91.4265 291.38 90.4526C277.804 89.4669 274.577 99.8348 274.221 101.664C273.793 103.861 273.936 106.117 275.917 109.253C276.713 110.512 278.611 113.243 283.821 114.027C283.821 114.027 291.902 114.763 293.528 106.747C293.528 106.747 294.169 101.189 288.912 100.144C288.912 100.144 287.333 99.8942 286.669 100.559C286.669 100.559 285.53 101.854 286.906 102.697C287.82 103.255 289.813 103.101 290.217 105.832C290.597 108.374 288.022 109.93 286.692 110.345C283.109 111.474 280.64 110.737 278.635 108.683C278.635 108.683 274.968 105.666 276.926 100.203C279.418 93.2554 285.636 91.2246 291.344 91.6165C291.344 91.6165 303.508 91.9372 304.065 106.747C304.065 106.747 304.35 104.49 304.338 103.457H304.362Z" fill="#13604E"/>
<path d="M304.36 64.4453C293.597 64.4453 284.863 73.1862 284.863 83.9579C284.863 94.7297 293.597 103.471 304.36 103.471V64.4453Z" fill="#4DD3B8"/>
<path d="M304.359 103.956C293.335 103.956 284.363 94.978 284.363 83.945C284.363 72.912 293.335 63.9336 304.359 63.9336V103.956ZM304.359 64.9312C293.88 64.9312 285.36 73.4583 285.36 83.945C285.36 94.4317 293.88 102.959 304.359 102.959V64.9312Z" fill="#13604E"/>
</g>
<path d="M12.4237 44.4326H292.575V123.564H12.4237V44.4326ZM12.4237 43.0312C11.6524 43.0312 11.0234 43.6607 11.0234 44.4326V123.564C11.0234 124.336 11.6524 124.965 12.4237 124.965H292.575C293.346 124.965 293.975 124.336 293.975 123.564V44.4326C293.975 43.6607 293.346 43.0312 292.575 43.0312H12.4237Z" fill="#0F594B"/>
</g>
<path d="M95.7965 76.0703H94.273V63.2383H95.7965V76.0703ZM96.3433 80.2109H84.5855V78.9219H96.3433V80.2109ZM86.109 79.5859H84.5855V74.8789H86.109V79.5859ZM87.5152 67.2812C87.5087 68.3034 87.2971 69.2637 86.8804 70.1621C86.4703 71.054 85.8941 71.8288 85.1519 72.4863C84.4097 73.1374 83.5569 73.6289 82.5933 73.9609L81.8121 72.75C82.678 72.4701 83.4462 72.0566 84.1168 71.5098C84.7939 70.9564 85.3179 70.3151 85.689 69.5859C86.0601 68.8503 86.2457 68.082 86.2457 67.2812V66.5391H87.5152V67.2812ZM87.7691 67.2812C87.7691 68.0365 87.9579 68.7559 88.3355 69.4395C88.7131 70.123 89.2405 70.7253 89.9176 71.2461C90.5946 71.7669 91.3629 72.1576 92.2222 72.418L91.4605 73.6484C90.484 73.3294 89.6213 72.8607 88.8726 72.2422C88.1239 71.6172 87.5413 70.8783 87.1246 70.0254C86.7144 69.1725 86.5126 68.2578 86.5191 67.2812V66.5391H87.7691V67.2812ZM91.7535 66.8125H82.2418V65.582H91.7535V66.8125ZM87.7887 66.1875H86.2457V63.3164H87.7887V66.1875ZM111.695 65.6211H100.738V64.3516H111.695V65.6211ZM114.566 73.082H98.7457V71.8125H114.566V73.082ZM107.398 80.6211H105.855V72.6523H107.398V80.6211ZM112.476 65.9727C112.476 66.7604 112.466 67.457 112.447 68.0625C112.427 68.6615 112.365 69.3483 112.261 70.123C112.164 70.8913 112.014 71.7214 111.812 72.6133L110.289 72.418C110.49 71.5586 110.637 70.7513 110.728 69.9961C110.826 69.2409 110.888 68.5671 110.914 67.9746C110.94 67.3822 110.953 66.7083 110.953 65.9531V65.875V64.3516H112.476V65.875V65.9727ZM131.871 71.7539H116.031V70.5234H131.871V71.7539ZM129.976 69.0977H118.14V67.8477H129.976V69.0977ZM129.8 65.0547H119.683V68.8242H118.14V63.8242H129.8V65.0547ZM129.82 77.3398H119.507V79.5664H117.984V76.1875H128.316V74.5078H117.945V73.3164H129.82V77.3398ZM130.347 80.3867H117.984V79.1367H130.347V80.3867ZM142.046 66.4023H134.117V65.1523H142.046V66.4023ZM138.394 75.9922H136.89V70.1133H138.394V75.9922ZM142.945 66.1875C142.938 67.2422 142.903 68.2904 142.837 69.332C142.779 70.3737 142.645 71.5781 142.437 72.9453L140.894 72.8086C141.115 71.4609 141.255 70.2793 141.314 69.2637C141.373 68.2415 141.402 67.2031 141.402 66.1484V66.0508V65.1523H142.945V66.0508V66.1875ZM146.714 80.582H145.191V63.2188H146.714V80.582ZM149.527 71.8125H146.304V70.4844H149.527V71.8125ZM133.14 75.4844C135.25 75.4714 137.206 75.4323 139.009 75.3672C140.813 75.2956 142.509 75.1654 144.097 74.9766L144.175 76.1289C142.528 76.3828 140.787 76.5553 138.951 76.6465C137.115 76.7311 135.243 76.7669 133.336 76.7539L133.14 75.4844ZM156.285 64.4883C157.183 64.4883 157.987 64.6608 158.697 65.0059C159.406 65.3509 159.96 65.8327 160.357 66.4512C160.754 67.0697 160.953 67.776 160.953 68.5703C160.953 69.3646 160.754 70.071 160.357 70.6895C159.96 71.3079 159.406 71.7897 158.697 72.1348C157.987 72.4798 157.183 72.6523 156.285 72.6523C155.38 72.6523 154.569 72.4798 153.853 72.1348C153.143 71.7897 152.59 71.3079 152.193 70.6895C151.796 70.071 151.597 69.3646 151.597 68.5703C151.597 67.776 151.796 67.0697 152.193 66.4512C152.59 65.8327 153.143 65.3509 153.853 65.0059C154.569 64.6608 155.38 64.4883 156.285 64.4883ZM156.285 65.8359C155.673 65.8359 155.126 65.9499 154.644 66.1777C154.162 66.4056 153.785 66.7311 153.511 67.1543C153.238 67.571 153.101 68.043 153.101 68.5703C153.101 69.1042 153.238 69.5762 153.511 69.9863C153.785 70.3965 154.162 70.7188 154.644 70.9531C155.126 71.1875 155.673 71.3047 156.285 71.3047C156.89 71.3047 157.434 71.1875 157.916 70.9531C158.404 70.7188 158.781 70.3965 159.048 69.9863C159.315 69.5762 159.449 69.1042 159.449 68.5703C159.449 68.043 159.315 67.571 159.048 67.1543C158.781 66.7311 158.404 66.4056 157.916 66.1777C157.434 65.9499 156.89 65.8359 156.285 65.8359ZM164.839 80.6211H163.316V63.2188H164.839V80.6211ZM150.699 75.4844C152.867 75.4909 154.895 75.4583 156.783 75.3867C158.671 75.3151 160.464 75.1523 162.164 74.8984L162.281 76.0312C161.057 76.2591 159.784 76.4284 158.462 76.5391C157.141 76.6432 155.904 76.7116 154.752 76.7441C153.606 76.7767 152.326 76.793 150.914 76.793L150.699 75.4844ZM181.382 64.8398C181.382 65.8945 181.05 66.8613 180.386 67.7402C179.722 68.6191 178.853 69.3483 177.779 69.9277C176.711 70.5007 175.569 70.888 174.351 71.0898L173.726 69.8398C174.787 69.6901 175.803 69.3743 176.773 68.8926C177.75 68.4043 178.537 67.8086 179.136 67.1055C179.735 66.3958 180.035 65.6406 180.035 64.8398V63.8438H181.382V64.8398ZM181.617 64.8398C181.617 65.6276 181.923 66.3796 182.535 67.0957C183.147 67.8053 183.938 68.4043 184.908 68.8926C185.878 69.3743 186.89 69.6901 187.945 69.8398L187.32 71.0898C186.109 70.888 184.966 70.4974 183.892 69.918C182.818 69.332 181.949 68.5996 181.285 67.7207C180.621 66.8418 180.289 65.8815 180.289 64.8398V63.8438H181.617V64.8398ZM181.539 80.582H180.035V73.9609H181.539V80.582ZM188.726 74.293H172.906V73.0039H188.726V74.293ZM203.628 80.6211H202.105V63.2188H203.628V80.6211ZM206.539 71.3828H203.277V70.0938H206.539V71.3828ZM192.32 74.9766C194.026 74.9701 195.487 74.9245 196.705 74.8398C197.922 74.7487 199.162 74.5859 200.425 74.3516L200.621 75.6797C199.332 75.9141 198.069 76.0703 196.832 76.1484C195.601 76.2266 194.097 76.2656 192.32 76.2656H190.953V74.9766H192.32ZM199.058 66.1875H192.476V75.5625H190.953V64.918H199.058V66.1875ZM223.375 78.4336H207.476V77.1445H223.375V78.4336ZM216.128 77.7109H214.625V73.4141H216.128V77.7109ZM221.363 69.7617H210.992V73.2773H209.468V68.5117H219.859V65.7773H209.429V64.5078H221.363V69.7617ZM221.773 73.8633H209.468V72.5938H221.773V73.8633ZM123.472 102.988H121.949V94.2188H123.472V102.988ZM126.089 99.1406H123.043V97.8516H126.089V99.1406ZM112.281 101.66H110.738V95H112.281V101.66ZM112.125 100.82C113.466 100.833 114.791 100.785 116.099 100.674C117.408 100.557 118.746 100.358 120.113 100.078L120.308 101.367C118.915 101.654 117.558 101.855 116.236 101.973C114.921 102.083 113.55 102.142 112.125 102.148H110.738V100.82H112.125ZM123.472 108.066H113.961V110.723H112.437V106.855H121.949V105.059H112.398V103.828H123.472V108.066ZM124.117 111.348H112.437V110.098H124.117V111.348ZM141.558 111.621H140.035V94.2188H141.558V111.621ZM140.464 99.4727H136.558V98.1836H140.464V99.4727ZM129.136 106.25C130.588 106.257 131.9 106.224 133.072 106.152C134.25 106.081 135.484 105.944 136.773 105.742L136.91 107.031C135.595 107.233 134.345 107.373 133.16 107.451C131.975 107.523 130.634 107.559 129.136 107.559H127.847V106.25H129.136ZM135.425 101.973H129.371V106.582H127.847V100.723H133.921V97.0703H127.789V95.8008H135.425V101.973ZM140.347 104.219H136.421V102.93H140.347V104.219ZM158.863 111.621H157.339V94.2188H158.863V111.621ZM157.789 101.953H152.691V100.684H157.789V101.953ZM146.714 100.117H151.675V95.5859H153.179V107.227H145.171V95.5859H146.714V100.117ZM151.675 105.957V101.348H146.714V105.957H151.675ZM176.07 107.012H174.566V94.2383H176.07V107.012ZM176.578 111.211H164.683V109.922H176.578V111.211ZM166.226 110.566H164.683V106.016H166.226V110.566ZM164.078 103.262C165.842 103.262 167.343 103.223 168.58 103.145C169.823 103.06 171.102 102.904 172.418 102.676L172.574 103.945C171.239 104.173 169.944 104.329 168.687 104.414C167.431 104.492 165.894 104.538 164.078 104.551H162.671V103.262H164.078ZM170.562 100.488H164.156V103.672H162.671V99.2773H169.039V96.7188H162.632V95.4688H170.562V100.488ZM192.476 111.621H190.953V94.2188H192.476V111.621ZM195.386 102.383H192.125V101.094H195.386V102.383ZM181.168 105.977C182.873 105.97 184.335 105.924 185.552 105.84C186.77 105.749 188.01 105.586 189.273 105.352L189.468 106.68C188.179 106.914 186.916 107.07 185.679 107.148C184.449 107.227 182.945 107.266 181.168 107.266H179.8V105.977H181.168ZM187.906 97.1875H181.324V106.562H179.8V95.918H187.906V97.1875Z" fill="white"/>
<path d="M14.1436 20.5746H12.6105V3.22652H14.1436V20.5746ZM16.9613 11.5829H13.7431V10.2845H16.9613V11.5829ZM9.6547 5.09116C9.65009 6.78085 9.36925 8.37615 8.81216 9.87707C8.25967 11.3734 7.3895 12.7546 6.20166 14.0207C5.01842 15.2822 3.50829 16.3665 1.67127 17.2735L0.814917 16.0718C2.42634 15.2707 3.77762 14.3292 4.86878 13.2472C5.95995 12.1653 6.77716 10.9613 7.32044 9.63536C7.86372 8.30939 8.13536 6.87753 8.13536 5.33978V5.09116H9.6547ZM8.92265 6.37569H1.62983V5.09116H8.92265V6.37569ZM19.8266 19.1105C19.601 19.1105 19.3892 19.0529 19.1912 18.9378C18.9979 18.8227 18.8436 18.6708 18.7285 18.482C18.618 18.2887 18.5651 18.0792 18.5697 17.8536C18.5651 17.628 18.618 17.4185 18.7285 17.2251C18.8436 17.0272 18.9979 16.8729 19.1912 16.7624C19.3892 16.6519 19.601 16.5967 19.8266 16.5967C20.0522 16.5967 20.2617 16.6519 20.455 16.7624C20.653 16.8729 20.8073 17.0272 20.9178 17.2251C21.0283 17.4185 21.0835 17.628 21.0835 17.8536C21.0835 18.0792 21.0283 18.2887 20.9178 18.482C20.8073 18.6708 20.653 18.8227 20.455 18.9378C20.2617 19.0529 20.0522 19.1105 19.8266 19.1105Z" fill="white"/>
<defs>
<clipPath id="clip0_534_2526">
<rect width="305" height="104" fill="white" transform="translate(0 32)"/>
</clipPath>
</defs>
</svg>
