<svg width="305" height="136" viewBox="0 0 305 136" fill="none" xmlns="http://www.w3.org/2000/svg">
<g clip-path="url(#clip0_534_2379)">
<path d="M1.41397 134.598L303.602 134.598V33.4004L1.41397 33.4004V134.598Z" fill="#4AE6CA"/>
<path d="M2.63443 33.4014H302.366C303.042 33.4014 303.6 33.9477 303.6 34.6365V133.363C303.6 134.04 303.054 134.599 302.366 134.599H2.63443C1.95802 134.599 1.40028 134.052 1.40028 133.363V34.6365C1.40028 33.9596 1.94615 33.4014 2.63443 33.4014ZM2.63443 32C1.17481 32 0 33.1757 0 34.6365V133.363C0 134.812 1.17481 136 2.63443 136H302.366C303.813 136 305 134.824 305 133.363V34.6365C305 33.1757 303.813 32 302.366 32H2.63443Z" fill="#0F594B"/>
<path d="M12.4232 123.566L292.574 123.566V44.4352L12.4232 44.4352V123.566Z" fill="#0F594B"/>
<mask id="mask0_534_2379" style="mask-type:luminance" maskUnits="userSpaceOnUse" x="12" y="44" width="281" height="80">
<path d="M12.4272 123.566L292.578 123.566V44.4352L12.4272 44.4352V123.566Z" fill="white"/>
</mask>
<g mask="url(#mask0_534_2379)">
<path d="M39.5792 103.471C50.3471 103.471 59.0763 94.7345 59.0763 83.9579C59.0763 73.1814 50.3471 64.4453 39.5792 64.4453C28.8112 64.4453 20.082 73.1814 20.082 83.9579C20.082 94.7345 28.8112 103.471 39.5792 103.471Z" fill="#4DD3B8"/>
<path d="M39.5893 103.956C28.565 103.956 19.5938 94.978 19.5938 83.945C19.5938 72.912 28.565 63.9336 39.5893 63.9336C50.6135 63.9336 59.5848 72.912 59.5848 83.945C59.5848 94.978 50.6135 103.956 39.5893 103.956ZM39.5893 64.9312C29.1109 64.9312 20.5906 73.4583 20.5906 83.945C20.5906 94.4317 29.1109 102.959 39.5893 102.959C50.0676 102.959 58.588 94.4317 58.588 83.945C58.588 73.4583 50.0676 64.9312 39.5893 64.9312Z" fill="#13604E"/>
<path d="M33.0762 96.962C40.2526 96.962 46.0703 91.1397 46.0703 83.9576C46.0703 76.7754 40.2526 70.9531 33.0762 70.9531C25.8997 70.9531 20.082 76.7754 20.082 83.9576C20.082 91.1397 25.8997 96.962 33.0762 96.962Z" fill="#13604E"/>
<path d="M20.0948 83.9588C30.8627 83.9588 39.5919 75.2227 39.5919 64.4462C39.5919 53.6697 30.8627 44.9336 20.0948 44.9336C9.32682 44.9336 0.597656 53.6697 0.597656 64.4462C0.597656 75.2227 9.32682 83.9588 20.0948 83.9588Z" fill="#4DD3B8"/>
<path d="M20.0932 84.4446C9.06894 84.4446 0.0976562 75.478 0.0976562 64.445C0.0976562 53.412 9.06894 44.4336 20.0932 44.4336C31.1174 44.4336 40.0887 53.412 40.0887 64.445C40.0887 75.478 31.1174 84.4564 20.0932 84.4564V84.4446ZM20.0932 45.4193C9.61482 45.4312 1.09447 53.9583 1.09447 64.445C1.09447 74.9317 9.61482 83.4588 20.0932 83.4588C30.5716 83.4588 39.0919 74.9317 39.0919 64.445C39.0919 53.9583 30.5716 45.4312 20.0932 45.4312V45.4193Z" fill="#13604E"/>
<path d="M20.0948 122.982C30.8627 122.982 39.5919 114.246 39.5919 103.47C39.5919 92.6931 30.8627 83.957 20.0948 83.957C9.32682 83.957 0.597656 92.6931 0.597656 103.47C0.597656 114.246 9.32682 122.982 20.0948 122.982Z" fill="#4DD3B8"/>
<path d="M20.0932 123.468C9.06894 123.468 0.0976562 114.501 0.0976562 103.468C0.0976562 92.4354 9.06894 83.457 20.0932 83.457C31.1174 83.457 40.0887 92.4354 40.0887 103.468C40.0887 114.501 31.1174 123.48 20.0932 123.48V123.468ZM20.0932 84.4428C9.61482 84.4428 1.09447 92.9818 1.09447 103.468C1.09447 113.955 9.61482 122.482 20.0932 122.482C30.5716 122.482 39.0919 113.955 39.0919 103.468C39.0919 92.9818 30.5716 84.4546 20.0932 84.4546V84.4428Z" fill="#13604E"/>
<path d="M0.59567 64.4454C0.59567 64.4454 0.132866 52.4148 13.5779 51.4409C27.1535 50.4552 30.3813 60.8231 30.7373 62.6521C31.1645 64.8492 31.0221 67.1056 29.0403 70.241C28.2453 71.4998 26.3466 74.2314 21.1371 75.0152C21.1371 75.0152 13.0558 75.7515 11.43 67.7351C11.43 67.7351 10.7892 62.177 16.0462 61.1319C16.0462 61.1319 17.6245 60.8825 18.289 61.5476C18.289 61.5476 19.4283 62.8421 18.0517 63.6853C17.138 64.2435 15.1443 64.0891 14.7409 66.8206C14.3611 69.3621 16.9362 70.9179 18.2653 71.3336C21.8491 72.4618 24.3174 71.7255 26.3229 69.6709C26.3229 69.6709 29.9897 66.6543 28.0317 61.1913C25.5396 54.2437 19.3215 52.2129 13.6135 52.6048C13.6135 52.6048 1.45008 52.9254 0.89234 67.7351C0.89234 67.7351 0.607537 65.4786 0.619404 64.4454H0.59567Z" fill="#13604E"/>
<path d="M0.595535 103.457C0.595535 103.457 0.144597 91.4265 13.5778 90.4526C27.1534 89.4669 30.3812 99.8348 30.7372 101.664C31.1644 103.861 31.022 106.117 29.0402 109.253C28.2451 110.512 26.3464 113.243 21.1369 114.027C21.1369 114.027 13.0557 114.763 11.4299 106.747C11.4299 106.747 10.7891 101.189 16.0461 100.144C16.0461 100.144 17.6244 99.8942 18.2889 100.559C18.2889 100.559 19.4281 101.854 18.0516 102.697C17.1378 103.255 15.1442 103.101 14.7407 105.832C14.361 108.374 16.9361 109.93 18.2652 110.345C21.8489 111.474 24.3172 110.737 26.3227 108.683C26.3227 108.683 29.9896 105.666 28.0315 100.203C25.5395 93.2554 19.3213 91.2246 13.6134 91.6165C13.6134 91.6165 1.44994 91.9372 0.892204 106.747C0.892204 106.747 0.607402 104.49 0.619268 103.457H0.595535Z" fill="#13604E"/>
<path d="M0.597656 64.4453C11.3608 64.4453 20.0948 73.1862 20.0948 83.9579C20.0948 94.7297 11.3608 103.471 0.597656 103.471V64.4453Z" fill="#4DD3B8"/>
<path d="M0.597656 63.9453C11.6219 63.9453 20.5932 72.9237 20.5932 83.9567C20.5932 94.9897 11.6219 103.956 0.597656 103.956V63.9453ZM0.597656 102.971C11.076 102.971 19.5964 94.4434 19.5964 83.9567C19.5964 73.47 11.0642 64.931 0.597656 64.931V102.971Z" fill="#13604E"/>
<path d="M265.368 103.471C276.136 103.471 284.865 94.7345 284.865 83.9579C284.865 73.1814 276.136 64.4453 265.368 64.4453C254.6 64.4453 245.871 73.1814 245.871 83.9579C245.871 94.7345 254.6 103.471 265.368 103.471Z" fill="#4DD3B8"/>
<path d="M245.383 83.9567C245.383 72.9237 254.354 63.9453 265.378 63.9453C276.403 63.9453 285.374 72.9237 285.374 83.9567C285.374 94.9897 276.403 103.968 265.378 103.968C254.354 103.968 245.383 94.9897 245.383 83.9567ZM246.38 83.9567C246.38 94.4434 254.9 102.971 265.378 102.971C275.857 102.971 284.377 94.4434 284.377 83.9567C284.377 73.47 275.857 64.9429 265.378 64.9429C254.9 64.9429 246.38 73.47 246.38 83.9567Z" fill="#13604E"/>
<path d="M271.881 96.962C279.057 96.962 284.875 91.1397 284.875 83.9576C284.875 76.7754 279.057 70.9531 271.881 70.9531C264.704 70.9531 258.887 76.7754 258.887 83.9576C258.887 91.1397 264.704 96.962 271.881 96.962Z" fill="#13604E"/>
<path d="M284.864 83.9588C295.632 83.9588 304.361 75.2227 304.361 64.4462C304.361 53.6697 295.632 44.9336 284.864 44.9336C274.096 44.9336 265.367 53.6697 265.367 64.4462C265.367 75.2227 274.096 83.9588 284.864 83.9588Z" fill="#4DD3B8"/>
<path d="M264.867 64.445C264.867 53.412 273.838 44.4336 284.863 44.4336C295.887 44.4336 304.858 53.412 304.858 64.445C304.858 75.478 295.887 84.4564 284.863 84.4564C273.838 84.4564 264.867 75.478 264.867 64.445ZM265.864 64.445C265.864 74.9317 274.384 83.4588 284.863 83.4588C295.341 83.4588 303.861 74.9317 303.861 64.445C303.861 53.9583 295.341 45.4312 284.863 45.4312C274.384 45.4312 265.864 53.9583 265.864 64.445Z" fill="#13604E"/>
<path d="M284.864 122.982C295.632 122.982 304.361 114.246 304.361 103.47C304.361 92.6931 295.632 83.957 284.864 83.957C274.096 83.957 265.367 92.6931 265.367 103.47C265.367 114.246 274.096 122.982 284.864 122.982Z" fill="#4DD3B8"/>
<path d="M264.867 103.468C264.867 92.4354 273.838 83.457 284.863 83.457C295.887 83.457 304.858 92.4354 304.858 103.468C304.858 114.501 295.887 123.48 284.863 123.48C273.838 123.48 264.867 114.501 264.867 103.468ZM265.864 103.468C265.864 113.955 274.384 122.482 284.863 122.482C295.341 122.482 303.861 113.955 303.861 103.468C303.861 92.9818 295.341 84.4546 284.863 84.4546C274.384 84.4546 265.864 92.9818 265.864 103.468Z" fill="#13604E"/>
<path d="M304.362 64.4454C304.362 64.4454 304.813 52.4148 291.38 51.4409C277.804 50.4552 274.577 60.8231 274.221 62.6521C273.793 64.8492 273.936 67.1056 275.917 70.241C276.713 71.4998 278.611 74.2314 283.821 75.0152C283.821 75.0152 291.902 75.7515 293.528 67.7351C293.528 67.7351 294.169 62.177 288.912 61.1319C288.912 61.1319 287.333 60.8825 286.669 61.5476C286.669 61.5476 285.53 62.8421 286.906 63.6853C287.82 64.2435 289.813 64.0891 290.217 66.8206C290.597 69.3621 288.022 70.9179 286.692 71.3336C283.109 72.4618 280.64 71.7255 278.635 69.6709C278.635 69.6709 274.968 66.6543 276.926 61.1913C279.418 54.2437 285.636 52.2129 291.344 52.6048C291.344 52.6048 303.508 52.9254 304.065 67.7351C304.065 67.7351 304.35 65.4786 304.338 64.4454H304.362Z" fill="#13604E"/>
<path d="M304.362 103.457C304.362 103.457 304.813 91.4265 291.38 90.4526C277.804 89.4669 274.577 99.8348 274.221 101.664C273.793 103.861 273.936 106.117 275.917 109.253C276.713 110.512 278.611 113.243 283.821 114.027C283.821 114.027 291.902 114.763 293.528 106.747C293.528 106.747 294.169 101.189 288.912 100.144C288.912 100.144 287.333 99.8942 286.669 100.559C286.669 100.559 285.53 101.854 286.906 102.697C287.82 103.255 289.813 103.101 290.217 105.832C290.597 108.374 288.022 109.93 286.692 110.345C283.109 111.474 280.64 110.737 278.635 108.683C278.635 108.683 274.968 105.666 276.926 100.203C279.418 93.2554 285.636 91.2246 291.344 91.6165C291.344 91.6165 303.508 91.9372 304.065 106.747C304.065 106.747 304.35 104.49 304.338 103.457H304.362Z" fill="#13604E"/>
<path d="M304.36 64.4453C293.597 64.4453 284.863 73.1862 284.863 83.9579C284.863 94.7297 293.597 103.471 304.36 103.471V64.4453Z" fill="#4DD3B8"/>
<path d="M304.359 103.956C293.335 103.956 284.363 94.978 284.363 83.945C284.363 72.912 293.335 63.9336 304.359 63.9336V103.956ZM304.359 64.9312C293.88 64.9312 285.36 73.4583 285.36 83.945C285.36 94.4317 293.88 102.959 304.359 102.959V64.9312Z" fill="#13604E"/>
</g>
<path d="M12.4237 44.4326H292.575V123.564H12.4237V44.4326ZM12.4237 43.0312C11.6524 43.0312 11.0234 43.6607 11.0234 44.4326V123.564C11.0234 124.336 11.6524 124.965 12.4237 124.965H292.575C293.346 124.965 293.975 124.336 293.975 123.564V44.4326C293.975 43.6607 293.346 43.0312 292.575 43.0312H12.4237Z" fill="#0F594B"/>
</g>
<path d="M96.3238 73.168H88.316V61.9766H96.3238V73.168ZM89.8004 71.918H94.8004V63.207H89.8004V71.918ZM101.031 77.582H99.5074V60.2188H101.031V77.582ZM103.941 68.4805H100.679V67.1523H103.941V68.4805ZM112.789 60.6094C114.045 60.6094 115.132 60.7396 116.05 61C116.975 61.2604 117.684 61.6413 118.179 62.1426C118.674 62.6374 118.921 63.2266 118.921 63.9102C118.921 64.5872 118.674 65.1699 118.179 65.6582C117.684 66.1465 116.975 66.5176 116.05 66.7715C115.132 67.0254 114.045 67.1523 112.789 67.1523C111.532 67.1523 110.442 67.0254 109.517 66.7715C108.599 66.5176 107.89 66.1465 107.388 65.6582C106.887 65.1699 106.636 64.5872 106.636 63.9102C106.636 63.2266 106.887 62.6374 107.388 62.1426C107.89 61.6413 108.599 61.2604 109.517 61C110.442 60.7396 111.532 60.6094 112.789 60.6094ZM112.789 61.8398C111.858 61.8398 111.047 61.9212 110.357 62.084C109.673 62.2467 109.146 62.4844 108.775 62.7969C108.404 63.1094 108.218 63.4805 108.218 63.9102C108.218 64.3268 108.404 64.6849 108.775 64.9844C109.146 65.2839 109.673 65.5182 110.357 65.6875C111.047 65.8568 111.858 65.9414 112.789 65.9414C113.713 65.9414 114.52 65.8568 115.211 65.6875C115.901 65.5182 116.431 65.2839 116.802 64.9844C117.173 64.6849 117.359 64.3268 117.359 63.9102C117.359 63.4805 117.173 63.1094 116.802 62.7969C116.431 62.4844 115.901 62.2467 115.211 62.084C114.52 61.9212 113.713 61.8398 112.789 61.8398ZM118.765 77.3477H106.812V71.6445H118.765V77.3477ZM108.336 76.0977H117.261V72.875H108.336V76.0977ZM120.699 69.9258H104.878V68.6562H120.699V69.9258ZM130.074 60.5312C131.356 60.5312 132.457 60.6452 133.375 60.873C134.299 61.1009 135.002 61.4395 135.484 61.8887C135.966 62.3379 136.207 62.8815 136.207 63.5195C136.207 64.1706 135.966 64.724 135.484 65.1797C135.002 65.6354 134.302 65.9805 133.384 66.2148C132.466 66.4427 131.363 66.5599 130.074 66.5664C128.778 66.5599 127.671 66.4427 126.753 66.2148C125.842 65.9805 125.142 65.6354 124.654 65.1797C124.166 64.724 123.921 64.1706 123.921 63.5195C123.921 62.8815 124.166 62.3379 124.654 61.8887C125.142 61.4395 125.845 61.1009 126.763 60.873C127.681 60.6452 128.785 60.5312 130.074 60.5312ZM130.074 61.6836C129.117 61.6836 128.296 61.7585 127.613 61.9082C126.936 62.0579 126.415 62.2695 126.05 62.543C125.692 62.8164 125.517 63.1419 125.523 63.5195C125.517 63.9167 125.692 64.2585 126.05 64.5449C126.415 64.8249 126.936 65.0365 127.613 65.1797C128.296 65.3229 129.117 65.3945 130.074 65.3945C131.031 65.3945 131.851 65.3229 132.535 65.1797C133.225 65.0365 133.749 64.8249 134.107 64.5449C134.465 64.265 134.644 63.9232 134.644 63.5195C134.644 63.1419 134.465 62.8164 134.107 62.543C133.749 62.2695 133.225 62.0579 132.535 61.9082C131.845 61.7585 131.024 61.6836 130.074 61.6836ZM137.984 68.9883H122.164V67.7383H137.984V68.9883ZM135.953 74.3789H125.64V76.4883H124.117V73.2461H134.449V71.6641H124.078V70.4922H135.953V74.3789ZM136.48 77.3867H124.117V76.1758H136.48V77.3867ZM158.824 77.582H157.281V60.2188H158.824V77.582ZM153.687 62.1133C153.681 63.832 153.394 65.4401 152.828 66.9375C152.268 68.4349 151.382 69.8151 150.171 71.0781C148.961 72.3346 147.411 73.4154 145.523 74.3203L144.683 73.0703C146.356 72.276 147.746 71.3385 148.853 70.2578C149.966 69.1771 150.793 67.9792 151.334 66.6641C151.88 65.3424 152.157 63.9036 152.164 62.3477V62.1133H153.687ZM152.789 63.3633H145.484V62.1133H152.789V63.3633ZM163.668 67.1523C165.041 67.1458 166.203 67.11 167.154 67.0449C168.104 66.9798 169.078 66.8464 170.074 66.6445L170.191 67.8945C169.149 68.0964 168.14 68.2331 167.164 68.3047C166.187 68.3698 165.022 68.3958 163.668 68.3828H162.554V67.1523H163.668ZM169.175 62.5625H164.058V67.7188H162.554V61.293H169.175V62.5625ZM176.5 69.3203H175.035V60.2383H176.5V69.3203ZM175.464 65.4141H172.144V64.1445H175.464V65.4141ZM172.613 69.1445H171.168V60.5703H172.613V69.1445ZM176.5 74.1836H166.539V76.7617H165.015V73.0117H174.996V71.293H164.976V70.0625H176.5V74.1836ZM177.203 77.3477H165.015V76.1172H177.203V77.3477ZM197.222 62.3086H185.953V61.0781H197.222V62.3086ZM199.878 69.6133H184.078V68.3828H199.878V69.6133ZM192.125 68.5977H190.621V64.8672H192.125V68.5977ZM197.867 62.3867C197.86 63.2917 197.828 64.099 197.769 64.8086C197.717 65.5117 197.593 66.306 197.398 67.1914L195.894 67.0156C196.083 66.1562 196.203 65.3848 196.255 64.7012C196.314 64.0176 196.343 63.2721 196.343 62.4648V62.2891V61.0781H197.867V62.2891V62.3867ZM192.457 71.8008C192.457 72.7904 192.154 73.6823 191.548 74.4766C190.943 75.2708 190.132 75.9251 189.117 76.4395C188.108 76.9538 186.994 77.3086 185.777 77.5039L185.211 76.3125C186.272 76.1562 187.252 75.8633 188.15 75.4336C189.055 75.0039 189.778 74.4766 190.318 73.8516C190.858 73.2266 191.128 72.543 191.128 71.8008V71H192.457V71.8008ZM192.671 71.8008C192.671 72.543 192.942 73.2266 193.482 73.8516C194.022 74.4766 194.745 75.0039 195.65 75.4336C196.555 75.8633 197.541 76.1562 198.609 76.3125L198.023 77.5039C196.806 77.3086 195.689 76.9538 194.673 76.4395C193.664 75.9251 192.857 75.2741 192.252 74.4863C191.646 73.6921 191.343 72.7969 191.343 71.8008V71H192.671V71.8008ZM209.253 60.5312C210.536 60.5312 211.636 60.6452 212.554 60.873C213.479 61.1009 214.182 61.4395 214.664 61.8887C215.145 62.3379 215.386 62.8815 215.386 63.5195C215.386 64.1706 215.145 64.724 214.664 65.1797C214.182 65.6354 213.482 65.9805 212.564 66.2148C211.646 66.4427 210.543 66.5599 209.253 66.5664C207.958 66.5599 206.851 66.4427 205.933 66.2148C205.022 65.9805 204.322 65.6354 203.834 65.1797C203.345 64.724 203.101 64.1706 203.101 63.5195C203.101 62.8815 203.345 62.3379 203.834 61.8887C204.322 61.4395 205.025 61.1009 205.943 60.873C206.861 60.6452 207.964 60.5312 209.253 60.5312ZM209.253 61.6836C208.296 61.6836 207.476 61.7585 206.793 61.9082C206.115 62.0579 205.595 62.2695 205.23 62.543C204.872 62.8164 204.696 63.1419 204.703 63.5195C204.696 63.9167 204.872 64.2585 205.23 64.5449C205.595 64.8249 206.115 65.0365 206.793 65.1797C207.476 65.3229 208.296 65.3945 209.253 65.3945C210.211 65.3945 211.031 65.3229 211.714 65.1797C212.405 65.0365 212.929 64.8249 213.287 64.5449C213.645 64.265 213.824 63.9232 213.824 63.5195C213.824 63.1419 213.645 62.8164 213.287 62.543C212.929 62.2695 212.405 62.0579 211.714 61.9082C211.024 61.7585 210.204 61.6836 209.253 61.6836ZM217.164 68.9883H201.343V67.7383H217.164V68.9883ZM215.132 74.3789H204.82V76.4883H203.296V73.2461H213.628V71.6641H203.257V70.4922H215.132V74.3789ZM215.66 77.3867H203.296V76.1758H215.66V77.3867ZM132.847 94.8516C132.847 95.8151 132.642 96.7135 132.232 97.5469C131.822 98.3802 131.246 99.1061 130.503 99.7246C129.761 100.337 128.908 100.802 127.945 101.121L127.183 99.9102C128.043 99.6497 128.808 99.2656 129.478 98.7578C130.149 98.25 130.67 97.6608 131.041 96.9902C131.412 96.3132 131.597 95.6003 131.597 94.8516V94.0898H132.847V94.8516ZM133.101 94.8516C133.101 95.5352 133.283 96.1927 133.648 96.8242C134.013 97.4492 134.52 98.0059 135.171 98.4941C135.823 98.9759 136.571 99.3438 137.418 99.5977L136.695 100.77C135.738 100.483 134.892 100.047 134.156 99.4609C133.427 98.875 132.86 98.1882 132.457 97.4004C132.053 96.6061 131.851 95.7565 131.851 94.8516V94.0898H133.101V94.8516ZM137.027 94.5195H127.671V93.25H137.027V94.5195ZM133.14 93.7773H131.597V91.1406H133.14V93.7773ZM140.757 101.316H139.234V91.2188H140.757V101.316ZM143.375 96.8047H140.328V95.5156H143.375V96.8047ZM135.836 103.211C135.836 104.083 135.552 104.887 134.986 105.623C134.42 106.359 133.651 106.974 132.681 107.469C131.718 107.964 130.666 108.309 129.527 108.504L128.941 107.332C129.931 107.176 130.855 106.896 131.714 106.492C132.574 106.089 133.261 105.6 133.775 105.027C134.289 104.454 134.546 103.849 134.546 103.211V102.723H135.836V103.211ZM136.128 103.211C136.128 103.836 136.389 104.435 136.91 105.008C137.431 105.581 138.117 106.072 138.97 106.482C139.83 106.893 140.751 107.176 141.734 107.332L141.168 108.523C140.022 108.335 138.964 107.986 137.994 107.479C137.024 106.977 136.249 106.359 135.67 105.623C135.09 104.881 134.8 104.077 134.8 103.211V102.723H136.128V103.211ZM141.07 103.504H129.625V102.254H141.07V103.504ZM158.511 97.7227H146.617V96.4922H158.511V97.7227ZM160.347 101.336H144.449V100.086H160.347V101.336ZM148.14 97.1172H146.617V91.8633H148.14V97.1172ZM158.609 108.152H146.519V106.883H158.609V108.152ZM148.043 107.254H146.519V103.113H148.043V107.254ZM175.191 108.621H173.668V91.2188H175.191V108.621ZM178.101 99.3828H174.839V98.0938H178.101V99.3828ZM163.882 102.977C165.588 102.97 167.05 102.924 168.267 102.84C169.485 102.749 170.725 102.586 171.988 102.352L172.183 103.68C170.894 103.914 169.631 104.07 168.394 104.148C167.164 104.227 165.66 104.266 163.882 104.266H162.515V102.977H163.882ZM170.621 94.1875H164.039V103.562H162.515V92.918H170.621V94.1875Z" fill="white"/>
<path d="M14.1436 20.616H12.6243V3.22652H14.1436V20.616ZM17.0442 11.4309H13.7983V10.1326H17.0442V11.4309ZM2.80387 15.1188C4.56262 15.1188 6.05893 15.0773 7.29282 14.9945C8.53131 14.907 9.78821 14.7459 11.0635 14.511L11.2155 15.7818C9.90792 16.0212 8.62339 16.1846 7.36188 16.2721C6.10037 16.3596 4.58103 16.4079 2.80387 16.4171H1.42265V15.1188H2.80387ZM9.28177 11.058H2.94199V15.6436H1.42265V9.78729H7.74862V6.11326H1.38122V4.84254H9.28177V11.058ZM19.8266 19.1105C19.601 19.1105 19.3892 19.0529 19.1912 18.9378C18.9979 18.8227 18.8436 18.6708 18.7285 18.482C18.618 18.2887 18.5651 18.0792 18.5697 17.8536C18.5651 17.628 18.618 17.4185 18.7285 17.2251C18.8436 17.0272 18.9979 16.8729 19.1912 16.7624C19.3892 16.6519 19.601 16.5967 19.8266 16.5967C20.0522 16.5967 20.2617 16.6519 20.455 16.7624C20.653 16.8729 20.8073 17.0272 20.9178 17.2251C21.0283 17.4185 21.0835 17.628 21.0835 17.8536C21.0835 18.0792 21.0283 18.2887 20.9178 18.482C20.8073 18.6708 20.653 18.8227 20.455 18.9378C20.2617 19.0529 20.0522 19.1105 19.8266 19.1105Z" fill="white"/>
<defs>
<clipPath id="clip0_534_2379">
<rect width="305" height="104" fill="white" transform="translate(0 32)"/>
</clipPath>
</defs>
</svg>
