<svg width="305" height="136" viewBox="0 0 305 136" fill="none" xmlns="http://www.w3.org/2000/svg">
<g clip-path="url(#clip0_534_2428)">
<path d="M1.41397 134.598L303.602 134.598V33.4004L1.41397 33.4004V134.598Z" fill="#4AE6CA"/>
<path d="M2.63443 33.4014H302.366C303.042 33.4014 303.6 33.9477 303.6 34.6365V133.363C303.6 134.04 303.054 134.599 302.366 134.599H2.63443C1.95802 134.599 1.40028 134.052 1.40028 133.363V34.6365C1.40028 33.9596 1.94615 33.4014 2.63443 33.4014ZM2.63443 32C1.17481 32 0 33.1757 0 34.6365V133.363C0 134.812 1.17481 136 2.63443 136H302.366C303.813 136 305 134.824 305 133.363V34.6365C305 33.1757 303.813 32 302.366 32H2.63443Z" fill="#0F594B"/>
<path d="M12.4232 123.566L292.574 123.566V44.4352L12.4232 44.4352V123.566Z" fill="#0F594B"/>
<mask id="mask0_534_2428" style="mask-type:luminance" maskUnits="userSpaceOnUse" x="12" y="44" width="281" height="80">
<path d="M12.4272 123.566L292.578 123.566V44.4352L12.4272 44.4352V123.566Z" fill="white"/>
</mask>
<g mask="url(#mask0_534_2428)">
<path d="M39.5792 103.471C50.3471 103.471 59.0763 94.7345 59.0763 83.9579C59.0763 73.1814 50.3471 64.4453 39.5792 64.4453C28.8112 64.4453 20.082 73.1814 20.082 83.9579C20.082 94.7345 28.8112 103.471 39.5792 103.471Z" fill="#4DD3B8"/>
<path d="M39.5893 103.956C28.565 103.956 19.5938 94.978 19.5938 83.945C19.5938 72.912 28.565 63.9336 39.5893 63.9336C50.6135 63.9336 59.5848 72.912 59.5848 83.945C59.5848 94.978 50.6135 103.956 39.5893 103.956ZM39.5893 64.9312C29.1109 64.9312 20.5906 73.4583 20.5906 83.945C20.5906 94.4317 29.1109 102.959 39.5893 102.959C50.0676 102.959 58.588 94.4317 58.588 83.945C58.588 73.4583 50.0676 64.9312 39.5893 64.9312Z" fill="#13604E"/>
<path d="M33.0762 96.962C40.2526 96.962 46.0703 91.1397 46.0703 83.9576C46.0703 76.7754 40.2526 70.9531 33.0762 70.9531C25.8997 70.9531 20.082 76.7754 20.082 83.9576C20.082 91.1397 25.8997 96.962 33.0762 96.962Z" fill="#13604E"/>
<path d="M20.0948 83.9588C30.8627 83.9588 39.5919 75.2227 39.5919 64.4462C39.5919 53.6697 30.8627 44.9336 20.0948 44.9336C9.32682 44.9336 0.597656 53.6697 0.597656 64.4462C0.597656 75.2227 9.32682 83.9588 20.0948 83.9588Z" fill="#4DD3B8"/>
<path d="M20.0932 84.4446C9.06894 84.4446 0.0976562 75.478 0.0976562 64.445C0.0976562 53.412 9.06894 44.4336 20.0932 44.4336C31.1174 44.4336 40.0887 53.412 40.0887 64.445C40.0887 75.478 31.1174 84.4564 20.0932 84.4564V84.4446ZM20.0932 45.4193C9.61482 45.4312 1.09447 53.9583 1.09447 64.445C1.09447 74.9317 9.61482 83.4588 20.0932 83.4588C30.5716 83.4588 39.0919 74.9317 39.0919 64.445C39.0919 53.9583 30.5716 45.4312 20.0932 45.4312V45.4193Z" fill="#13604E"/>
<path d="M20.0948 122.982C30.8627 122.982 39.5919 114.246 39.5919 103.47C39.5919 92.6931 30.8627 83.957 20.0948 83.957C9.32682 83.957 0.597656 92.6931 0.597656 103.47C0.597656 114.246 9.32682 122.982 20.0948 122.982Z" fill="#4DD3B8"/>
<path d="M20.0932 123.468C9.06894 123.468 0.0976562 114.501 0.0976562 103.468C0.0976562 92.4354 9.06894 83.457 20.0932 83.457C31.1174 83.457 40.0887 92.4354 40.0887 103.468C40.0887 114.501 31.1174 123.48 20.0932 123.48V123.468ZM20.0932 84.4428C9.61482 84.4428 1.09447 92.9818 1.09447 103.468C1.09447 113.955 9.61482 122.482 20.0932 122.482C30.5716 122.482 39.0919 113.955 39.0919 103.468C39.0919 92.9818 30.5716 84.4546 20.0932 84.4546V84.4428Z" fill="#13604E"/>
<path d="M0.59567 64.4454C0.59567 64.4454 0.132866 52.4148 13.5779 51.4409C27.1535 50.4552 30.3813 60.8231 30.7373 62.6521C31.1645 64.8492 31.0221 67.1056 29.0403 70.241C28.2453 71.4998 26.3466 74.2314 21.1371 75.0152C21.1371 75.0152 13.0558 75.7515 11.43 67.7351C11.43 67.7351 10.7892 62.177 16.0462 61.1319C16.0462 61.1319 17.6245 60.8825 18.289 61.5476C18.289 61.5476 19.4283 62.8421 18.0517 63.6853C17.138 64.2435 15.1443 64.0891 14.7409 66.8206C14.3611 69.3621 16.9362 70.9179 18.2653 71.3336C21.8491 72.4618 24.3174 71.7255 26.3229 69.6709C26.3229 69.6709 29.9897 66.6543 28.0317 61.1913C25.5396 54.2437 19.3215 52.2129 13.6135 52.6048C13.6135 52.6048 1.45008 52.9254 0.89234 67.7351C0.89234 67.7351 0.607537 65.4786 0.619404 64.4454H0.59567Z" fill="#13604E"/>
<path d="M0.595535 103.457C0.595535 103.457 0.144597 91.4265 13.5778 90.4526C27.1534 89.4669 30.3812 99.8348 30.7372 101.664C31.1644 103.861 31.022 106.117 29.0402 109.253C28.2451 110.512 26.3464 113.243 21.1369 114.027C21.1369 114.027 13.0557 114.763 11.4299 106.747C11.4299 106.747 10.7891 101.189 16.0461 100.144C16.0461 100.144 17.6244 99.8942 18.2889 100.559C18.2889 100.559 19.4281 101.854 18.0516 102.697C17.1378 103.255 15.1442 103.101 14.7407 105.832C14.361 108.374 16.9361 109.93 18.2652 110.345C21.8489 111.474 24.3172 110.737 26.3227 108.683C26.3227 108.683 29.9896 105.666 28.0315 100.203C25.5395 93.2554 19.3213 91.2246 13.6134 91.6165C13.6134 91.6165 1.44994 91.9372 0.892204 106.747C0.892204 106.747 0.607402 104.49 0.619268 103.457H0.595535Z" fill="#13604E"/>
<path d="M0.597656 64.4453C11.3608 64.4453 20.0948 73.1862 20.0948 83.9579C20.0948 94.7297 11.3608 103.471 0.597656 103.471V64.4453Z" fill="#4DD3B8"/>
<path d="M0.597656 63.9453C11.6219 63.9453 20.5932 72.9237 20.5932 83.9567C20.5932 94.9897 11.6219 103.956 0.597656 103.956V63.9453ZM0.597656 102.971C11.076 102.971 19.5964 94.4434 19.5964 83.9567C19.5964 73.47 11.0642 64.931 0.597656 64.931V102.971Z" fill="#13604E"/>
<path d="M265.368 103.471C276.136 103.471 284.865 94.7345 284.865 83.9579C284.865 73.1814 276.136 64.4453 265.368 64.4453C254.6 64.4453 245.871 73.1814 245.871 83.9579C245.871 94.7345 254.6 103.471 265.368 103.471Z" fill="#4DD3B8"/>
<path d="M245.383 83.9567C245.383 72.9237 254.354 63.9453 265.378 63.9453C276.403 63.9453 285.374 72.9237 285.374 83.9567C285.374 94.9897 276.403 103.968 265.378 103.968C254.354 103.968 245.383 94.9897 245.383 83.9567ZM246.38 83.9567C246.38 94.4434 254.9 102.971 265.378 102.971C275.857 102.971 284.377 94.4434 284.377 83.9567C284.377 73.47 275.857 64.9429 265.378 64.9429C254.9 64.9429 246.38 73.47 246.38 83.9567Z" fill="#13604E"/>
<path d="M271.881 96.962C279.057 96.962 284.875 91.1397 284.875 83.9576C284.875 76.7754 279.057 70.9531 271.881 70.9531C264.704 70.9531 258.887 76.7754 258.887 83.9576C258.887 91.1397 264.704 96.962 271.881 96.962Z" fill="#13604E"/>
<path d="M284.864 83.9588C295.632 83.9588 304.361 75.2227 304.361 64.4462C304.361 53.6697 295.632 44.9336 284.864 44.9336C274.096 44.9336 265.367 53.6697 265.367 64.4462C265.367 75.2227 274.096 83.9588 284.864 83.9588Z" fill="#4DD3B8"/>
<path d="M264.867 64.445C264.867 53.412 273.838 44.4336 284.863 44.4336C295.887 44.4336 304.858 53.412 304.858 64.445C304.858 75.478 295.887 84.4564 284.863 84.4564C273.838 84.4564 264.867 75.478 264.867 64.445ZM265.864 64.445C265.864 74.9317 274.384 83.4588 284.863 83.4588C295.341 83.4588 303.861 74.9317 303.861 64.445C303.861 53.9583 295.341 45.4312 284.863 45.4312C274.384 45.4312 265.864 53.9583 265.864 64.445Z" fill="#13604E"/>
<path d="M284.864 122.982C295.632 122.982 304.361 114.246 304.361 103.47C304.361 92.6931 295.632 83.957 284.864 83.957C274.096 83.957 265.367 92.6931 265.367 103.47C265.367 114.246 274.096 122.982 284.864 122.982Z" fill="#4DD3B8"/>
<path d="M264.867 103.468C264.867 92.4354 273.838 83.457 284.863 83.457C295.887 83.457 304.858 92.4354 304.858 103.468C304.858 114.501 295.887 123.48 284.863 123.48C273.838 123.48 264.867 114.501 264.867 103.468ZM265.864 103.468C265.864 113.955 274.384 122.482 284.863 122.482C295.341 122.482 303.861 113.955 303.861 103.468C303.861 92.9818 295.341 84.4546 284.863 84.4546C274.384 84.4546 265.864 92.9818 265.864 103.468Z" fill="#13604E"/>
<path d="M304.362 64.4454C304.362 64.4454 304.813 52.4148 291.38 51.4409C277.804 50.4552 274.577 60.8231 274.221 62.6521C273.793 64.8492 273.936 67.1056 275.917 70.241C276.713 71.4998 278.611 74.2314 283.821 75.0152C283.821 75.0152 291.902 75.7515 293.528 67.7351C293.528 67.7351 294.169 62.177 288.912 61.1319C288.912 61.1319 287.333 60.8825 286.669 61.5476C286.669 61.5476 285.53 62.8421 286.906 63.6853C287.82 64.2435 289.813 64.0891 290.217 66.8206C290.597 69.3621 288.022 70.9179 286.692 71.3336C283.109 72.4618 280.64 71.7255 278.635 69.6709C278.635 69.6709 274.968 66.6543 276.926 61.1913C279.418 54.2437 285.636 52.2129 291.344 52.6048C291.344 52.6048 303.508 52.9254 304.065 67.7351C304.065 67.7351 304.35 65.4786 304.338 64.4454H304.362Z" fill="#13604E"/>
<path d="M304.362 103.457C304.362 103.457 304.813 91.4265 291.38 90.4526C277.804 89.4669 274.577 99.8348 274.221 101.664C273.793 103.861 273.936 106.117 275.917 109.253C276.713 110.512 278.611 113.243 283.821 114.027C283.821 114.027 291.902 114.763 293.528 106.747C293.528 106.747 294.169 101.189 288.912 100.144C288.912 100.144 287.333 99.8942 286.669 100.559C286.669 100.559 285.53 101.854 286.906 102.697C287.82 103.255 289.813 103.101 290.217 105.832C290.597 108.374 288.022 109.93 286.692 110.345C283.109 111.474 280.64 110.737 278.635 108.683C278.635 108.683 274.968 105.666 276.926 100.203C279.418 93.2554 285.636 91.2246 291.344 91.6165C291.344 91.6165 303.508 91.9372 304.065 106.747C304.065 106.747 304.35 104.49 304.338 103.457H304.362Z" fill="#13604E"/>
<path d="M304.36 64.4453C293.597 64.4453 284.863 73.1862 284.863 83.9579C284.863 94.7297 293.597 103.471 304.36 103.471V64.4453Z" fill="#4DD3B8"/>
<path d="M304.359 103.956C293.335 103.956 284.363 94.978 284.363 83.945C284.363 72.912 293.335 63.9336 304.359 63.9336V103.956ZM304.359 64.9312C293.88 64.9312 285.36 73.4583 285.36 83.945C285.36 94.4317 293.88 102.959 304.359 102.959V64.9312Z" fill="#13604E"/>
</g>
<path d="M12.4237 44.4326H292.575V123.564H12.4237V44.4326ZM12.4237 43.0312C11.6524 43.0312 11.0234 43.6607 11.0234 44.4326V123.564C11.0234 124.336 11.6524 124.965 12.4237 124.965H292.575C293.346 124.965 293.975 124.336 293.975 123.564V44.4326C293.975 43.6607 293.346 43.0312 292.575 43.0312H12.4237Z" fill="#0F594B"/>
</g>
<path d="M121.636 63.4414C121.636 64.5547 121.438 65.5898 121.041 66.5469C120.643 67.4974 120.08 68.3275 119.351 69.0371C118.622 69.7402 117.776 70.2773 116.812 70.6484L115.972 69.418C116.845 69.112 117.613 68.6595 118.277 68.0605C118.941 67.4551 119.455 66.7585 119.82 65.9707C120.184 65.1764 120.367 64.3333 120.367 63.4414V61.293H121.636V63.4414ZM121.871 63.5C121.871 64.2878 122.056 65.0462 122.427 65.7754C122.798 66.498 123.313 67.1426 123.97 67.709C124.628 68.2689 125.38 68.6953 126.226 68.9883L125.445 70.2188C124.494 69.8737 123.658 69.3659 122.935 68.6953C122.212 68.0182 121.649 67.2337 121.246 66.3418C120.842 65.4499 120.64 64.5026 120.64 63.5V61.293H121.871V63.5ZM129.605 73.0508H128.082V60.2188H129.605V73.0508ZM132.222 66.8594H129.117V65.5508H132.222V66.8594ZM130.406 77.2109H118.765V75.9219H130.406V77.2109ZM120.328 76.5469H118.765V71.8203H120.328V76.5469ZM143.765 68.2656H140.425V66.9961H143.765V68.2656ZM148.199 77.582H146.714V60.2188H148.199V77.582ZM144.703 76.7031H143.238V60.5898H144.703V76.7031ZM137.261 61.6836C138.01 61.6836 138.664 61.931 139.224 62.4258C139.791 62.9206 140.23 63.6237 140.543 64.5352C140.855 65.4401 141.011 66.5013 141.011 67.7188C141.011 68.9362 140.855 70.0007 140.543 70.9121C140.23 71.8171 139.791 72.5169 139.224 73.0117C138.664 73.5065 138.01 73.7539 137.261 73.7539C136.513 73.7539 135.858 73.5065 135.298 73.0117C134.745 72.5169 134.312 71.8171 134 70.9121C133.687 70.0007 133.531 68.9362 133.531 67.7188C133.531 66.5013 133.687 65.4401 134 64.5352C134.312 63.6237 134.745 62.9206 135.298 62.4258C135.858 61.931 136.513 61.6836 137.261 61.6836ZM137.261 63.1289C136.793 63.1289 136.386 63.3145 136.041 63.6855C135.696 64.0566 135.429 64.5905 135.24 65.2871C135.058 65.9772 134.97 66.7878 134.976 67.7188C134.97 68.6497 135.058 69.4603 135.24 70.1504C135.429 70.834 135.696 71.3646 136.041 71.7422C136.392 72.1133 136.799 72.2956 137.261 72.2891C137.73 72.2956 138.14 72.1133 138.492 71.7422C138.843 71.3646 139.11 70.834 139.293 70.1504C139.475 69.4603 139.566 68.6497 139.566 67.7188C139.566 66.7878 139.475 65.9772 139.293 65.2871C139.11 64.5905 138.843 64.0566 138.492 63.6855C138.14 63.3145 137.73 63.1289 137.261 63.1289ZM164.253 68.3242H162.75V65.9805H164.253V68.3242ZM163.531 60.4336C164.813 60.4336 165.914 60.5508 166.832 60.7852C167.756 61.0195 168.459 61.3613 168.941 61.8105C169.423 62.2598 169.664 62.8034 169.664 63.4414C169.664 64.0859 169.423 64.6361 168.941 65.0918C168.459 65.541 167.759 65.8828 166.841 66.1172C165.923 66.3451 164.82 66.4622 163.531 66.4688C162.235 66.4622 161.128 66.3451 160.211 66.1172C159.299 65.8828 158.599 65.541 158.111 65.0918C157.623 64.6361 157.378 64.0859 157.378 63.4414C157.378 62.8034 157.623 62.2598 158.111 61.8105C158.599 61.3613 159.302 61.0195 160.22 60.7852C161.138 60.5508 162.242 60.4336 163.531 60.4336ZM163.531 61.6055C162.574 61.612 161.753 61.6901 161.07 61.8398C160.393 61.9831 159.872 62.1914 159.507 62.4648C159.149 62.7383 158.974 63.0638 158.98 63.4414C158.974 63.832 159.149 64.1641 159.507 64.4375C159.872 64.7109 160.393 64.9225 161.07 65.0723C161.747 65.2155 162.567 65.2904 163.531 65.2969C164.494 65.2904 165.318 65.2155 166.002 65.0723C166.685 64.9225 167.206 64.7109 167.564 64.4375C167.922 64.1641 168.101 63.832 168.101 63.4414C168.101 63.0638 167.922 62.7383 167.564 62.4648C167.206 62.1914 166.682 61.9831 165.992 61.8398C165.308 61.6901 164.488 61.612 163.531 61.6055ZM171.441 69.0273H155.621V67.7773H171.441V69.0273ZM169.41 74.3789H159.097V76.5469H157.574V73.2461H167.906V71.6836H157.535V70.4922H169.41V74.3789ZM169.937 77.3867H157.574V76.1758H169.937V77.3867ZM186.343 77.6211H184.82V60.2188H186.343V77.6211ZM189.253 68.4219H185.992V67.1328H189.253V68.4219ZM175.015 72.1133C176.753 72.1198 178.241 72.0807 179.478 71.9961C180.722 71.9115 181.981 71.7487 183.257 71.5078L183.414 72.7773C182.105 73.0182 180.823 73.1842 179.566 73.2754C178.309 73.36 176.793 73.4089 175.015 73.4219H173.628V72.1133H175.015ZM181.48 68.0508H175.152V72.6406H173.628V66.7812H179.957V63.1094H173.589V61.8398H181.48V68.0508ZM90.191 104.168H82.1832V92.9766H90.191V104.168ZM83.6676 102.918H88.6676V94.207H83.6676V102.918ZM94.898 108.582H93.3746V91.2188H94.898V108.582ZM97.8082 99.4805H94.5465V98.1523H97.8082V99.4805ZM106.656 91.6094C107.912 91.6094 109 91.7396 109.918 92C110.842 92.2604 111.552 92.6413 112.046 93.1426C112.541 93.6374 112.789 94.2266 112.789 94.9102C112.789 95.5872 112.541 96.1699 112.046 96.6582C111.552 97.1465 110.842 97.5176 109.918 97.7715C109 98.0254 107.912 98.1523 106.656 98.1523C105.399 98.1523 104.309 98.0254 103.384 97.7715C102.466 97.5176 101.757 97.1465 101.255 96.6582C100.754 96.1699 100.503 95.5872 100.503 94.9102C100.503 94.2266 100.754 93.6374 101.255 93.1426C101.757 92.6413 102.466 92.2604 103.384 92C104.309 91.7396 105.399 91.6094 106.656 91.6094ZM106.656 92.8398C105.725 92.8398 104.914 92.9212 104.224 93.084C103.541 93.2467 103.013 93.4844 102.642 93.7969C102.271 94.1094 102.086 94.4805 102.086 94.9102C102.086 95.3268 102.271 95.6849 102.642 95.9844C103.013 96.2839 103.541 96.5182 104.224 96.6875C104.914 96.8568 105.725 96.9414 106.656 96.9414C107.58 96.9414 108.388 96.8568 109.078 96.6875C109.768 96.5182 110.298 96.2839 110.67 95.9844C111.041 95.6849 111.226 95.3268 111.226 94.9102C111.226 94.4805 111.041 94.1094 110.67 93.7969C110.298 93.4844 109.768 93.2467 109.078 93.084C108.388 92.9212 107.58 92.8398 106.656 92.8398ZM112.632 108.348H100.679V102.645H112.632V108.348ZM102.203 107.098H111.128V103.875H102.203V107.098ZM114.566 100.926H98.7457V99.6562H114.566V100.926ZM123.941 91.5312C125.224 91.5312 126.324 91.6452 127.242 91.873C128.166 92.1009 128.869 92.4395 129.351 92.8887C129.833 93.3379 130.074 93.8815 130.074 94.5195C130.074 95.1706 129.833 95.724 129.351 96.1797C128.869 96.6354 128.17 96.9805 127.252 97.2148C126.334 97.4427 125.23 97.5599 123.941 97.5664C122.645 97.5599 121.539 97.4427 120.621 97.2148C119.709 96.9805 119.009 96.6354 118.521 96.1797C118.033 95.724 117.789 95.1706 117.789 94.5195C117.789 93.8815 118.033 93.3379 118.521 92.8887C119.009 92.4395 119.712 92.1009 120.63 91.873C121.548 91.6452 122.652 91.5312 123.941 91.5312ZM123.941 92.6836C122.984 92.6836 122.164 92.7585 121.48 92.9082C120.803 93.0579 120.282 93.2695 119.918 93.543C119.559 93.8164 119.384 94.1419 119.39 94.5195C119.384 94.9167 119.559 95.2585 119.918 95.5449C120.282 95.8249 120.803 96.0365 121.48 96.1797C122.164 96.3229 122.984 96.3945 123.941 96.3945C124.898 96.3945 125.718 96.3229 126.402 96.1797C127.092 96.0365 127.616 95.8249 127.974 95.5449C128.332 95.265 128.511 94.9232 128.511 94.5195C128.511 94.1419 128.332 93.8164 127.974 93.543C127.616 93.2695 127.092 93.0579 126.402 92.9082C125.712 92.7585 124.892 92.6836 123.941 92.6836ZM131.851 99.9883H116.031V98.7383H131.851V99.9883ZM129.82 105.379H119.507V107.488H117.984V104.246H128.316V102.664H117.945V101.492H129.82V105.379ZM130.347 108.387H117.984V107.176H130.347V108.387ZM151.773 108.582H150.25V91.2188H151.773V108.582ZM154.586 99.5781H151.382V98.2891H154.586V99.5781ZM147.281 93.0938C147.274 94.7799 146.994 96.375 146.441 97.8789C145.894 99.3763 145.028 100.76 143.843 102.029C142.658 103.292 141.148 104.376 139.312 105.281L138.453 104.07C140.061 103.27 141.408 102.329 142.496 101.248C143.589 100.161 144.406 98.9564 144.947 97.6348C145.494 96.3132 145.77 94.8841 145.777 93.3477V93.0938H147.281ZM146.558 94.3828H139.253V93.0938H146.558V94.3828ZM169.058 108.621H167.535V91.2188H169.058V108.621ZM171.968 99.3828H168.707V98.0938H171.968V99.3828ZM157.75 102.977C159.455 102.97 160.917 102.924 162.134 102.84C163.352 102.749 164.592 102.586 165.855 102.352L166.05 103.68C164.761 103.914 163.498 104.07 162.261 104.148C161.031 104.227 159.527 104.266 157.75 104.266H156.382V102.977H157.75ZM164.488 94.1875H157.906V103.562H156.382V92.918H164.488V94.1875ZM188.746 100.613H172.906V99.3438H188.746V100.613ZM186.929 97.5859H174.918V96.3164H186.929V97.5859ZM186.773 93.0547H176.441V97.0391H174.918V91.7852H186.773V93.0547ZM186.812 108.289H174.839V102.547H186.812V108.289ZM176.363 107.059H185.308V103.777H176.363V107.059ZM204.234 97.7227H192.339V96.4922H204.234V97.7227ZM206.07 101.336H190.171V100.086H206.07V101.336ZM193.863 97.1172H192.339V91.8633H193.863V97.1172ZM204.332 108.152H192.242V106.883H204.332V108.152ZM193.765 107.254H192.242V103.113H193.765V107.254ZM220.914 108.621H219.39V91.2188H220.914V108.621ZM223.824 99.3828H220.562V98.0938H223.824V99.3828ZM209.605 102.977C211.311 102.97 212.772 102.924 213.99 102.84C215.207 102.749 216.448 102.586 217.711 102.352L217.906 103.68C216.617 103.914 215.354 104.07 214.117 104.148C212.886 104.227 211.382 104.266 209.605 104.266H208.238V102.977H209.605ZM216.343 94.1875H209.761V103.562H208.238V92.918H216.343V94.1875Z" fill="white"/>
<path d="M14.1436 20.616H12.6105V3.22652H14.1436V20.616ZM17.0442 11.3757H13.7983V10.0912H17.0442V11.3757ZM2.83149 14.9669C4.53039 14.9669 5.98987 14.9231 7.20995 14.8356C8.43462 14.7482 9.67772 14.5893 10.9392 14.3591L11.1326 15.6851C9.84346 15.9153 8.58195 16.0695 7.34807 16.1478C6.11418 16.2261 4.60866 16.2652 2.83149 16.2652H1.46409V14.9669H2.83149ZM9.57182 6.18232H2.99724V15.5608H1.46409V4.92541H9.57182V6.18232ZM19.8266 19.1105C19.601 19.1105 19.3892 19.0529 19.1912 18.9378C18.9979 18.8227 18.8436 18.6708 18.7285 18.482C18.618 18.2887 18.5651 18.0792 18.5697 17.8536C18.5651 17.628 18.618 17.4185 18.7285 17.2251C18.8436 17.0272 18.9979 16.8729 19.1912 16.7624C19.3892 16.6519 19.601 16.5967 19.8266 16.5967C20.0522 16.5967 20.2617 16.6519 20.455 16.7624C20.653 16.8729 20.8073 17.0272 20.9178 17.2251C21.0283 17.4185 21.0835 17.628 21.0835 17.8536C21.0835 18.0792 21.0283 18.2887 20.9178 18.482C20.8073 18.6708 20.653 18.8227 20.455 18.9378C20.2617 19.0529 20.0522 19.1105 19.8266 19.1105Z" fill="white"/>
<defs>
<clipPath id="clip0_534_2428">
<rect width="305" height="104" fill="white" transform="translate(0 32)"/>
</clipPath>
</defs>
</svg>
