<?xml version="1.0" encoding="UTF-8"?>
<svg id="Layer_2" data-name="Layer 2" xmlns="http://www.w3.org/2000/svg" xmlns:xlink="http://www.w3.org/1999/xlink" viewBox="0 0 257.02 87.57">
  <defs>
    <style>
      .cls-1 {
        fill: none;
      }

      .cls-2 {
        clip-path: url(#clippath);
      }

      .cls-3 {
        fill: #0f594b;
      }

      .cls-4 {
        fill: #13604e;
      }

      .cls-5 {
        fill: #4ae6ca;
      }

      .cls-6 {
        fill: #4dd3b8;
      }
    </style>
    <clipPath id="clippath">
      <rect class="cls-1" x="10.47" y="10.47" width="236.08" height="66.63" transform="translate(257.02 87.57) rotate(-180)"/>
    </clipPath>
  </defs>
  <g id="Layer_1-2" data-name="Layer 1">
    <g>
      <g>
        <rect class="cls-5" x="1.18" y="1.18" width="254.65" height="85.21" transform="translate(257.02 87.57) rotate(-180)"/>
        <path class="cls-3" d="M2.22,1.18H254.8c.57,0,1.04,.46,1.04,1.04V85.35c0,.57-.46,1.04-1.04,1.04H2.22c-.57,0-1.04-.46-1.04-1.04V2.22c0-.57,.46-1.04,1.04-1.04m0-1.18C.99,0,0,.99,0,2.22V85.35c0,1.22,.99,2.22,2.22,2.22H254.8c1.22,0,2.22-.99,2.22-2.22V2.22C257.02,.99,256.02,0,254.8,0H2.22Z"/>
      </g>
      <rect class="cls-3" x="10.47" y="10.47" width="236.08" height="66.63" transform="translate(257.02 87.57) rotate(-180)"/>
      <g class="cls-2">
        <g>
          <g>
            <g>
              <circle class="cls-6" cx="33.35" cy="43.75" r="16.43"/>
              <path class="cls-4" d="M33.36,60.59c-9.29,0-16.85-7.56-16.85-16.85s7.56-16.85,16.85-16.85,16.85,7.56,16.85,16.85-7.56,16.85-16.85,16.85Zm0-32.86c-8.83,0-16.01,7.18-16.01,16.01s7.18,16.01,16.01,16.01,16.01-7.18,16.01-16.01-7.18-16.01-16.01-16.01Z"/>
            </g>
            <circle class="cls-4" cx="27.87" cy="43.75" r="10.95"/>
          </g>
          <g>
            <circle class="cls-6" cx="16.93" cy="27.32" r="16.43"/>
            <path class="cls-4" d="M16.93,44.16C7.64,44.16,.08,36.61,.08,27.32S7.64,10.47,16.93,10.47s16.85,7.56,16.85,16.85-7.56,16.85-16.85,16.85Zm0-32.86C8.1,11.31,.92,18.49,.92,27.32s7.18,16.01,16.01,16.01,16.01-7.18,16.01-16.01S25.76,11.31,16.93,11.31Z"/>
          </g>
          <g>
            <circle class="cls-6" cx="16.93" cy="60.18" r="16.43"/>
            <path class="cls-4" d="M16.93,77.02C7.64,77.02,.08,69.47,.08,60.18s7.56-16.85,16.85-16.85,16.85,7.56,16.85,16.85-7.56,16.85-16.85,16.85Zm0-32.86C8.1,44.16,.92,51.35,.92,60.18s7.18,16.01,16.01,16.01,16.01-7.18,16.01-16.01-7.18-16.01-16.01-16.01Z"/>
          </g>
          <path class="cls-4" d="M.5,27.32S.11,17.19,11.44,16.37c11.44-.83,14.16,7.9,14.46,9.44,.36,1.85,.24,3.75-1.43,6.39-.67,1.06-2.27,3.36-6.66,4.02,0,0-6.81,.62-8.18-6.13,0,0-.54-4.68,3.89-5.56,0,0,1.33-.21,1.89,.35,0,0,.96,1.09-.2,1.8-.77,.47-2.45,.34-2.79,2.64-.32,2.14,1.85,3.45,2.97,3.8,3.02,.95,5.1,.33,6.79-1.4,0,0,3.09-2.54,1.44-7.14-2.1-5.85-7.34-7.56-12.15-7.23,0,0-10.25,.27-10.72,12.74,0,0-.24-1.9-.23-2.77Z"/>
          <path class="cls-4" d="M.5,60.17s-.38-10.13,10.94-10.95c11.44-.83,14.16,7.9,14.46,9.44,.36,1.85,.24,3.75-1.43,6.39-.67,1.06-2.27,3.36-6.66,4.02,0,0-6.81,.62-8.18-6.13,0,0-.54-4.68,3.89-5.56,0,0,1.33-.21,1.89,.35,0,0,.96,1.09-.2,1.8-.77,.47-2.45,.34-2.79,2.64-.32,2.14,1.85,3.45,2.97,3.8,3.02,.95,5.1,.33,6.79-1.4,0,0,3.09-2.54,1.44-7.14-2.1-5.85-7.34-7.56-12.15-7.23,0,0-10.25,.27-10.72,12.74,0,0-.24-1.9-.23-2.77Z"/>
          <g>
            <path class="cls-6" d="M.5,27.32c9.07,0,16.43,7.36,16.43,16.43S9.57,60.18,.5,60.18V27.32Z"/>
            <path class="cls-4" d="M.5,26.9c9.29,0,16.85,7.56,16.85,16.85S9.79,60.59,.5,60.59V26.9ZM.5,59.76c8.83,0,16.01-7.18,16.01-16.01S9.32,27.73,.5,27.73V59.76Z"/>
          </g>
        </g>
        <g>
          <g>
            <g>
              <circle class="cls-6" cx="223.62" cy="43.75" r="16.43"/>
              <path class="cls-4" d="M206.78,43.75c0-9.29,7.56-16.85,16.85-16.85s16.85,7.56,16.85,16.85-7.56,16.85-16.85,16.85-16.85-7.56-16.85-16.85Zm.84,0c0,8.83,7.18,16.01,16.01,16.01s16.01-7.18,16.01-16.01-7.18-16.01-16.01-16.01-16.01,7.18-16.01,16.01Z"/>
            </g>
            <circle class="cls-4" cx="229.11" cy="43.75" r="10.95"/>
          </g>
          <g>
            <circle class="cls-6" cx="240.05" cy="27.32" r="16.43"/>
            <path class="cls-4" d="M223.2,27.32c0-9.29,7.56-16.85,16.85-16.85s16.85,7.56,16.85,16.85-7.56,16.85-16.85,16.85-16.85-7.56-16.85-16.85Zm.84,0c0,8.83,7.18,16.01,16.01,16.01s16.01-7.18,16.01-16.01-7.18-16.01-16.01-16.01-16.01,7.18-16.01,16.01Z"/>
          </g>
          <g>
            <circle class="cls-6" cx="240.05" cy="60.18" r="16.43"/>
            <path class="cls-4" d="M223.2,60.18c0-9.29,7.56-16.85,16.85-16.85s16.85,7.56,16.85,16.85-7.56,16.85-16.85,16.85-16.85-7.56-16.85-16.85Zm.84,0c0,8.83,7.18,16.01,16.01,16.01s16.01-7.18,16.01-16.01-7.18-16.01-16.01-16.01-16.01,7.18-16.01,16.01Z"/>
          </g>
          <path class="cls-4" d="M256.48,27.32s.38-10.13-10.94-10.95c-11.44-.83-14.16,7.9-14.46,9.44-.36,1.85-.24,3.75,1.43,6.39,.67,1.06,2.27,3.36,6.66,4.02,0,0,6.81,.62,8.18-6.13,0,0,.54-4.68-3.89-5.56,0,0-1.33-.21-1.89,.35,0,0-.96,1.09,.2,1.8,.77,.47,2.45,.34,2.79,2.64,.32,2.14-1.85,3.45-2.97,3.8-3.02,.95-5.1,.33-6.79-1.4,0,0-3.09-2.54-1.44-7.14,2.1-5.85,7.34-7.56,12.15-7.23,0,0,10.25,.27,10.72,12.74,0,0,.24-1.9,.23-2.77Z"/>
          <path class="cls-4" d="M256.48,60.17s.38-10.13-10.94-10.95c-11.44-.83-14.16,7.9-14.46,9.44-.36,1.85-.24,3.75,1.43,6.39,.67,1.06,2.27,3.36,6.66,4.02,0,0,6.81,.62,8.18-6.13,0,0,.54-4.68-3.89-5.56,0,0-1.33-.21-1.89,.35,0,0-.96,1.09,.2,1.8,.77,.47,2.45,.34,2.79,2.64,.32,2.14-1.85,3.45-2.97,3.8-3.02,.95-5.1,.33-6.79-1.4,0,0-3.09-2.54-1.44-7.14,2.1-5.85,7.34-7.56,12.15-7.23,0,0,10.25,.27,10.72,12.74,0,0,.24-1.9,.23-2.77Z"/>
          <g>
            <path class="cls-6" d="M256.48,27.32c-9.07,0-16.43,7.36-16.43,16.43s7.36,16.43,16.43,16.43V27.32Z"/>
            <path class="cls-4" d="M256.48,60.59c-9.29,0-16.85-7.56-16.85-16.85s7.56-16.85,16.85-16.85V60.59Zm0-32.86c-8.83,0-16.01,7.18-16.01,16.01s7.18,16.01,16.01,16.01V27.73Z"/>
          </g>
        </g>
      </g>
      <path class="cls-3" d="M10.47,10.47H246.55V77.1H10.47V10.47m0-1.18c-.65,0-1.18,.53-1.18,1.18V77.1c0,.65,.53,1.18,1.18,1.18H246.55c.65,0,1.18-.53,1.18-1.18V10.47c0-.65-.53-1.18-1.18-1.18H10.47Z"/>
    </g>
  </g>
</svg>