<svg width="175" height="47" viewBox="0 0 175 47" fill="none" xmlns="http://www.w3.org/2000/svg">
<g clip-path="url(#clip0_345_1629)">
<path d="M55.5458 12.6329C54.6604 12.6329 54.0556 12.8262 53.7749 13.0627C53.0631 12.8694 52.1777 11.8338 52.1111 11.577C52.0908 11.4905 52.2182 11.2337 52.305 11.2539C52.7361 11.3607 54.2495 11.4472 55.6963 11.427L60.7948 11.3837C62.285 11.3635 62.7162 10.6077 62.9564 10.6077C63.2168 10.6077 64.1456 11.9001 64.1456 12.5031C64.1456 12.6098 64.0588 12.6762 63.8852 12.6762C63.6479 12.6762 62.2011 12.6127 61.035 12.6127L55.5487 12.6358L55.5458 12.6329ZM58.3758 20.171C55.7628 20.171 54.0325 18.9017 54.0325 17.0063C54.0325 15.2841 55.5458 14.0984 57.8983 13.9686C57.9417 13.882 57.962 13.7955 57.962 13.7089C57.962 13.5156 57.8983 13.2993 57.6379 13.0829C57.6379 12.63 59.1281 13.0829 59.1281 13.3426C59.1281 13.4493 58.9979 13.7291 58.9111 13.9686C61.1999 14.1186 62.693 15.3043 62.693 17.0063C62.693 18.9017 60.9656 20.171 58.3729 20.171H58.3758ZM56.7119 10.4346C56.0204 10.4346 54.5504 8.88258 54.4665 8.68929C54.4231 8.60275 54.5736 8.23637 54.7038 8.25945C55.569 8.43254 56.3879 8.58255 57.4469 8.68929L59.6519 8.94893C59.8891 8.97201 60.8614 10.4346 60.2132 10.4346H56.7148H56.7119ZM69.2644 26.2869C69.2644 26.4167 69.1776 26.4802 69.004 26.4802L59.4985 26.5033C57.3804 26.5033 56.9695 25.7936 56.9695 24.3915V22.9693C56.9695 22.6029 56.1477 22.0433 55.7165 21.8933C55.5863 21.85 56.0609 21.2672 56.2779 21.2672C57.1431 21.2672 58.4163 21.4836 59.0645 21.6971C59.2149 21.7404 59.4117 21.8038 59.3683 22.1067C59.3249 22.4096 59.3249 22.8597 59.3249 23.2693V24.4117C59.3249 25.1647 59.5853 25.2512 60.2537 25.2512L65.3523 25.231C66.8859 25.231 67.4039 24.3915 67.6209 24.3915C67.8813 24.3915 69.2616 25.7041 69.2616 26.2869H69.2644ZM58.3758 19.0719C59.5651 19.0719 60.3637 18.2526 60.3637 17.0265C60.3637 15.8005 59.5651 14.9812 58.3758 14.9812C57.1865 14.9812 56.3676 15.8206 56.3676 17.0265C56.3676 18.2324 57.1662 19.0719 58.3758 19.0719ZM70.7344 14.8081C71.0353 14.7013 72.2478 17.1131 71.7501 17.1131L67.7742 17.0698V18.1689C67.7742 20.3441 67.1695 22.0663 66.8656 22.7126C66.6718 22.9289 66.2175 23.0357 65.957 22.9722C65.7834 22.3693 65.4159 21.2067 65.4159 18.1689V9.12202C65.4159 8.60563 63.6884 7.63632 63.1473 7.37669C63.0171 7.31322 63.4714 6.79395 63.6219 6.79395C64.7446 6.79395 67.9218 7.44015 67.8553 7.97962C67.8118 8.30272 67.7684 8.71237 67.7684 9.16529V15.9505L70.7286 14.8081H70.7344Z" fill="white"/>
<path d="M92.0372 16.2072C92.0372 16.314 91.9504 16.3803 91.7565 16.3803H83.611V17.3265C83.611 18.6189 83.3303 19.395 83.0265 19.9979H84.9478C85.6597 19.9979 86.0503 19.8912 86.3078 19.6315C86.5885 19.5248 88.5764 19.9114 88.6401 20.1479C88.5533 20.7941 88.5533 21.6134 88.5533 22.7097C88.5533 24.8848 87.9485 26.3936 87.6447 27.0398C87.4508 27.2562 86.9965 27.3629 86.7361 27.2995C86.5422 26.6965 86.195 25.7474 86.195 22.7126V21.2269H79.3256C78.417 21.2269 77.8353 21.4634 77.5547 21.7C76.8428 21.5067 75.5233 20.4306 75.4365 20.171C75.4134 20.0845 75.5668 19.8277 75.6536 19.8479C76.0645 19.9546 77.5778 20.021 79.0246 20.021H81.5305C81.4003 19.5046 81.2498 18.8151 81.2498 17.6727V16.4005H76.1715C75.2861 16.4005 74.6813 16.6601 74.4209 16.8967C73.709 16.7034 72.3693 15.6274 72.3027 15.3446C72.2825 15.2581 72.4098 15.0013 72.4966 15.0215C72.9278 15.1283 74.4411 15.1946 75.8879 15.1946L85.5005 15.1514C85.7175 13.5993 85.8883 11.6174 85.9114 9.74515L78.9754 9.76534C78.09 9.76534 77.4852 10.025 77.2248 10.2615C76.513 10.0682 75.1732 8.98931 75.1067 8.70948C75.0864 8.62294 75.2137 8.36619 75.3005 8.38638C75.7317 8.49312 77.245 8.55947 78.6919 8.55947L85.1301 8.5162C85.8217 8.5162 86.2095 8.40946 86.4699 8.1729C86.7737 8.06616 88.6951 8.36619 88.6517 8.6691C88.3507 10.7808 87.5492 13.6657 87.0312 15.1514H88.1106C89.6442 15.1514 90.1419 14.3119 90.3792 14.3119C90.6396 14.3119 92.0198 15.6245 92.0198 16.2072H92.0372Z" fill="white"/>
<path d="M112.776 16.9629C112.776 17.0696 112.689 17.1359 112.495 17.1359H104.179C104.092 18.062 103.855 18.7515 103.594 19.2679H105.409C106.12 19.2679 106.488 19.1178 106.769 18.8582C107.049 18.8351 109.057 19.1178 108.994 19.4179L108.366 22.3258C108.84 22.6489 109.121 23.2749 109.121 23.4018C109.121 23.5288 109.057 23.6182 108.927 23.6182H99.7458V24.651C99.7458 25.4905 100.006 25.6636 101.106 25.6636H106.204C107.738 25.6636 108.256 24.801 108.473 24.801C108.733 24.801 110.114 26.0934 110.114 26.6963C110.114 26.8031 110.027 26.8694 109.853 26.8694H99.6995C98.0356 26.8694 97.454 26.3098 97.4106 25.0376L97.3672 23.4018C97.3672 23.1653 96.7191 22.8191 96.3082 22.6691C96.285 22.5393 96.6323 22.1296 96.8493 22.1296C97.3238 22.1296 99.0745 22.2162 99.7429 22.4296H106.288L106.332 20.4708H100.411C99.5259 20.4708 98.9211 20.7074 98.6607 20.967C97.9488 20.7507 96.6091 19.6746 96.5425 19.415C96.5194 19.3284 96.6496 19.0717 96.7364 19.0919C97.1676 19.1986 98.6809 19.265 100.128 19.265H102.159C102.029 18.7688 101.922 18.1024 101.878 17.1533H96.91C96.0246 17.1533 95.4198 17.3898 95.1594 17.6495C94.4476 17.4331 93.1078 16.357 93.0413 16.0974C93.021 16.0109 93.1483 15.7512 93.2351 15.7743C93.6663 15.881 95.1797 15.9474 96.6265 15.9474L108.855 15.9041C110.388 15.9041 110.886 15.0415 111.123 15.0415C111.384 15.0415 112.764 16.3542 112.764 16.96L112.776 16.9629ZM94.5633 14.3578C97.4164 13.1952 100.741 10.9104 102.275 8.75834C102.425 8.54198 101.713 7.87557 101.303 7.61594C101.195 7.55247 101.734 7.14282 101.887 7.14282C102.642 7.14282 104.674 7.96212 105.171 8.30542C105.432 8.4987 105.539 8.67179 105.345 8.97182C104.914 9.57475 104.416 10.1344 103.855 10.6508C106.08 11.0374 108.456 11.5134 109.494 11.8365C110.206 12.0528 110.51 14.7213 109.969 14.4646C107.807 13.3885 105.151 12.2894 102.862 11.4932C100.206 13.5385 96.8985 14.7011 95.1276 15.0242C94.8671 15.004 94.5662 14.5944 94.5662 14.3578H94.5633Z" fill="white"/>
<path d="M131.315 7.9594C131.272 8.2825 131.228 8.69215 131.228 9.14507V13.732C131.228 15.9072 130.624 17.3929 130.299 18.0622C130.106 18.2785 129.651 18.3853 129.391 18.3218C129.217 17.739 128.873 16.8361 128.85 14.0782H127.574C126.665 14.0782 126.083 14.2715 125.803 14.5311C125.479 14.4445 125.134 14.208 124.831 13.9484V14.1849C124.787 16.6399 124.333 17.566 124.075 18.0622C123.881 18.2785 123.427 18.3853 123.167 18.3218C123.016 17.9554 122.843 17.6756 122.736 17.3092L118.025 17.3294C117.895 17.6756 117.744 18.0189 117.594 18.2352C117.4 18.4516 116.966 18.5583 116.685 18.4949C116.448 17.9121 116.1 16.5563 116.017 14.7244L115.843 11.3001C115.823 10.8904 115.175 10.2875 114.633 10.0278C114.503 9.96437 114.978 9.48837 115.108 9.48837C116.231 9.48837 118.305 10.0048 118.262 10.3077C118.219 10.6308 118.175 11.0606 118.175 11.4933V12.0761L122.605 12.0328V10.4606C122.605 10.074 121.763 9.44798 121.222 9.18835C121.092 9.12488 121.546 8.69215 121.697 8.69215C122.819 8.69215 125.024 9.20854 124.981 9.51145C124.938 9.83455 124.894 10.2644 124.894 10.6971L124.851 12.8521C125.519 12.8954 126.645 12.8752 127.724 12.8752H128.847V9.10469C128.847 8.5883 127.119 7.61899 126.578 7.35935C126.448 7.29588 126.925 6.77661 127.053 6.77661C128.176 6.77661 131.373 7.42282 131.309 7.96229L131.315 7.9594ZM122.608 13.2791L118.178 13.3021V16.1235L122.628 16.0803L122.608 13.2791ZM130.948 19.4613C130.904 19.7844 130.884 20.2142 130.861 20.647L130.797 23.2087C130.733 25.4272 130.213 26.7629 129.955 27.236C129.761 27.4523 129.307 27.5793 129.047 27.5158C128.873 27.1062 128.702 26.633 128.592 26.0936L122.348 26.1167C122.218 26.5032 122.044 26.8927 121.917 27.236C121.723 27.4523 121.289 27.5793 121.008 27.5158C120.748 26.9129 120.403 25.3406 120.296 23.5087L120.146 20.9874C120.125 20.5777 119.281 19.9748 118.763 19.695C118.632 19.6315 119.087 19.1786 119.217 19.1786C120.363 19.1786 122.631 19.5017 122.588 19.8248C122.545 20.1479 122.501 20.5575 122.501 21.0105V21.6567L128.485 21.6134V20.4075C128.485 20.021 127.643 19.395 127.102 19.1382C126.972 19.0747 127.426 18.642 127.577 18.642C128.699 18.642 130.991 19.1584 130.948 19.4613ZM128.505 22.8424L122.498 22.8654V24.9108L128.505 24.8675V22.8424Z" fill="white"/>
<path d="M138.057 12.1799C137.192 12.1799 136.61 12.3732 136.35 12.6097C135.658 12.4165 134.773 11.4241 134.686 11.1673C134.666 11.0808 134.816 10.824 134.903 10.8442C135.314 10.9509 136.804 11.0375 138.208 10.9942L143.61 10.9509C145.037 10.9308 145.491 10.2413 145.705 10.2413C145.965 10.2413 146.894 11.4471 146.894 11.9866C146.894 12.0933 146.808 12.1799 146.634 12.1799C146.373 12.1799 144.95 12.1597 143.824 12.1597L138.057 12.1799ZM141.104 19.2218C138.598 19.2218 136.958 18.0592 136.958 16.3139C136.958 14.7416 138.404 13.6656 140.63 13.5358C140.693 13.4492 140.716 13.3627 140.716 13.2761C140.716 13.0829 140.653 12.8665 140.372 12.6732C140.372 12.2203 141.842 12.6732 141.842 12.9098C141.842 13.0165 141.712 13.2963 141.648 13.5358C143.853 13.6858 145.277 14.7647 145.277 16.3139C145.277 18.0592 143.613 19.2218 141.107 19.2218H141.104ZM139.591 10.0018C138.963 10.0018 137.56 8.53633 137.473 8.36612C137.429 8.27957 137.58 7.93628 137.733 7.95647C138.512 8.08629 139.29 8.25938 140.303 8.36612L142.528 8.60268C142.745 8.62287 143.674 10.0018 143.046 10.0018H139.588H139.591ZM150.847 20.771C150.76 21.4374 150.76 22.2567 150.76 22.7529C150.76 24.9281 150.155 26.4368 149.852 27.083C149.658 27.2994 149.203 27.4061 148.943 27.3427C148.749 26.7397 148.402 25.7906 148.402 22.7558V21.8499H142.288C141.402 21.8499 140.797 22.1096 140.517 22.3461C139.805 22.1528 138.485 21.0739 138.422 20.7941C138.378 20.7075 138.529 20.4508 138.616 20.471C139.027 20.5777 140.537 20.644 141.987 20.644L147.149 20.6239C147.861 20.6239 148.251 20.5171 148.509 20.2806C148.813 20.1738 150.778 20.5402 150.841 20.7767L150.847 20.771ZM141.104 18.166C142.293 18.166 143.049 17.4332 143.049 16.3341C143.049 15.235 142.293 14.4589 141.104 14.4589C139.915 14.4589 139.139 15.2119 139.139 16.3341C139.139 17.4563 139.938 18.166 141.104 18.166ZM153.871 13.579C154.172 13.4723 155.384 15.884 154.887 15.884L150.78 15.8408C150.65 17.5861 150.153 18.8352 149.895 19.3949C149.701 19.6113 149.247 19.718 148.986 19.6545C148.793 19.0516 148.445 18.1025 148.445 15.0676V9.10176C148.445 8.58537 146.695 7.61606 146.177 7.35642C146.047 7.29296 146.501 6.77368 146.631 6.77368C147.777 6.77368 150.951 7.41989 150.888 7.95936C150.844 8.28246 150.801 8.69211 150.801 9.14503V14.7676L153.868 13.5819L153.871 13.579Z" fill="white"/>
<path d="M175 23.5521C175 23.6588 174.913 23.7252 174.74 23.7252L159.14 23.7482C158.255 23.7482 157.65 23.9848 157.389 24.2444C156.678 24.0281 155.338 22.952 155.271 22.6924C155.251 22.6058 155.378 22.3491 155.488 22.3693C155.899 22.476 157.41 22.5424 158.859 22.5424H161.128L160.781 17.7189C160.761 17.3093 159.939 16.7063 159.398 16.4265C159.267 16.363 159.722 15.9534 159.852 15.9534C160.998 15.9534 163.136 16.4265 163.136 16.7496L163.029 20.8836C163.006 21.4231 162.986 21.9827 162.879 22.5193H165.167L165.428 16.9631C165.448 16.5765 164.586 15.9505 164.045 15.6909C163.915 15.6274 164.389 15.1947 164.519 15.1947C165.642 15.1947 167.824 15.711 167.804 16.014L167.416 20.171C167.286 21.3769 167.112 22.0664 166.962 22.5193L171.088 22.4962C172.621 22.4962 173.119 21.6336 173.356 21.6336C173.617 21.6336 174.997 22.9463 174.997 23.5492L175 23.5521ZM157.696 10.1548C157.673 10.0683 157.826 9.78845 157.913 9.80864C158.324 9.93846 159.837 10.0019 161.284 10.0019L168.975 9.95865C169.687 9.95865 170.055 9.82884 170.315 9.59228C170.619 9.48554 172.52 9.78556 172.497 10.1087C172.26 13.6195 171.094 17.3237 170.489 18.8757C170.228 19.4787 168.761 19.7383 168.848 19.3287C169.195 17.7333 169.583 14.5456 169.757 11.1876L161.591 11.2107C160.682 11.2107 160.101 11.4472 159.82 11.6838C159.108 11.4905 157.769 10.4116 157.702 10.1548H157.696Z" fill="white"/>
<path d="M60.4013 39.6524H58.0575C58.0401 39.5572 58.0488 39.488 58.0662 39.3928C58.5262 39.3063 58.7085 39.2284 58.7085 39.1072C58.7085 39.0553 58.6738 39.0033 58.6131 38.9255L56.8856 36.8051L56.139 37.5407V38.9947C56.139 39.1937 56.2432 39.2543 56.9203 39.3409C56.9377 39.4707 56.9377 39.5226 56.9203 39.6524H54.7154C54.698 39.5226 54.698 39.4707 54.7154 39.3409C55.3925 39.2543 55.4966 39.1937 55.4966 38.9947V34.5982C55.4966 34.3991 55.3925 34.3385 54.7154 34.252C54.698 34.1222 54.698 34.0702 54.7154 33.9404H56.9203C56.9377 34.0702 56.9377 34.1222 56.9203 34.252C56.2432 34.3385 56.139 34.3991 56.139 34.5982V37.0128L58.5436 34.6588C58.6131 34.5895 58.6304 34.5462 58.6304 34.4857C58.6304 34.3558 58.4828 34.278 57.9533 34.2347C57.9359 34.1395 57.9359 34.0356 57.9533 33.9404H60.0193C60.0367 34.0356 60.0367 34.1395 60.0193 34.2347C59.4725 34.3212 59.3509 34.3991 59.1686 34.5809L57.3283 36.381L59.4638 38.986C59.5853 39.1332 59.7068 39.2716 60.3926 39.3928C60.41 39.488 60.4187 39.5572 60.4013 39.6524Z" fill="white"/>
<path d="M62.3545 35.4983C63.4917 35.4983 64.2469 36.3464 64.2469 37.6187C64.2469 38.8909 63.4917 39.739 62.3545 39.739C61.2173 39.739 60.4621 38.8909 60.4621 37.6187C60.4621 36.3464 61.2173 35.4983 62.3545 35.4983ZM63.6132 37.8091C63.6132 36.632 63.0924 35.8445 62.3024 35.8445C61.5819 35.8445 61.1045 36.4503 61.1045 37.3504C61.1045 38.5793 61.6514 39.3928 62.4761 39.3928C63.1618 39.3928 63.6132 38.7611 63.6132 37.8091Z" fill="white"/>
<path d="M67.5977 36.3638C67.4415 36.1993 67.32 36.1474 67.1377 36.1474C66.6515 36.1474 66.3477 36.684 66.1133 37.0475V39.1159C66.1133 39.263 66.1567 39.2803 66.6342 39.3669C66.6776 39.4448 66.6863 39.5573 66.6776 39.6525H64.9761C64.9675 39.5746 64.9761 39.4448 65.0195 39.3669C65.497 39.2803 65.5404 39.263 65.5404 39.1159V36.4157C65.5404 36.2339 65.5057 36.1907 65.3407 36.1387L64.9154 36.0003C64.898 35.957 64.898 35.8618 64.9154 35.8099L66.0178 35.4896C66.0699 35.4723 66.1133 35.4896 66.1133 35.5416V36.6667C66.3303 36.3118 66.7036 35.5329 67.5023 35.5329C67.5891 35.5329 67.7193 35.5502 67.7974 35.5848C67.9016 35.8099 67.754 36.3118 67.5977 36.3638Z" fill="white"/>
<path d="M71.6951 37.385H68.8999C68.8912 37.4456 68.8912 37.5148 68.8912 37.5754C68.8912 38.6572 69.5075 39.3063 70.2194 39.3063C70.6187 39.3063 71.0701 39.1159 71.426 38.588L71.6083 38.7264C71.3045 39.3409 70.7662 39.739 70.0371 39.739C69.0908 39.739 68.3096 39.0207 68.3096 37.7225C68.3096 36.4243 69.1429 35.4983 70.228 35.4983C71.1569 35.4983 71.6951 36.2685 71.6951 37.1427V37.385ZM68.9606 37.0388H71.0961C71.0961 36.3897 70.7836 35.9051 70.1673 35.9051C69.6204 35.9051 69.1256 36.3551 68.9606 37.0388Z" fill="white"/>
<path d="M76.3567 39.2197C76.157 39.5832 75.8358 39.739 75.5667 39.739C75.1761 39.739 74.9591 39.4967 74.907 39.0207C74.6118 39.4015 74.0649 39.739 73.5528 39.739C72.9277 39.739 72.459 39.3842 72.459 38.7957C72.459 38.0168 73.1448 37.4542 74.8983 37.134V36.7272C74.8983 36.156 74.7334 35.8358 74.2386 35.8358C73.6396 35.8358 73.275 36.182 72.9885 36.5974C72.8409 36.5541 72.6326 36.2339 72.65 35.9916C72.9278 35.7839 73.683 35.4983 74.2559 35.4983C75.0285 35.4983 75.4712 35.7666 75.4712 36.6147V38.9515C75.4712 39.263 75.5667 39.3582 75.7664 39.3582C75.9226 39.3582 76.0355 39.263 76.1744 39.064L76.3567 39.2197ZM74.8983 38.7524V37.4802C73.683 37.835 73.0927 38.1206 73.0927 38.7005C73.0927 39.0553 73.3357 39.3063 73.7524 39.3063C74.0736 39.3063 74.5597 39.0813 74.8983 38.7524Z" fill="white"/>
<path d="M84.4559 33.9404C84.4733 34.0702 84.4733 34.1222 84.4559 34.252C83.7788 34.3385 83.6746 34.3991 83.6746 34.5982V39.7044H83.1885L79.9158 34.3732V38.9947C79.9158 39.1937 80.02 39.2543 80.6971 39.3409C80.7145 39.4707 80.7145 39.5226 80.6971 39.6524H78.6658C78.6484 39.5226 78.6484 39.4707 78.6658 39.3409C79.3429 39.2543 79.4471 39.1937 79.4471 38.9947V34.5982C79.4471 34.3991 79.3429 34.3385 78.6658 34.252C78.6484 34.1222 78.6484 34.0702 78.6658 33.9404H80.3933L83.2059 38.5273V34.5982C83.2059 34.3991 83.1017 34.3385 82.4246 34.252C82.4072 34.1222 82.4072 34.0702 82.4246 33.9404H84.4559Z" fill="white"/>
<path d="M88.805 39.2197C88.6054 39.5832 88.2842 39.739 88.0151 39.739C87.6245 39.739 87.4074 39.4967 87.3554 39.0207C87.0602 39.4015 86.5133 39.739 86.0011 39.739C85.3761 39.739 84.9073 39.3842 84.9073 38.7957C84.9073 38.0168 85.5931 37.4542 87.3467 37.134V36.7272C87.3467 36.156 87.1817 35.8358 86.6869 35.8358C86.0879 35.8358 85.7234 36.182 85.4369 36.5974C85.2893 36.5541 85.081 36.2339 85.0983 35.9916C85.3761 35.7839 86.1314 35.4983 86.7043 35.4983C87.4769 35.4983 87.9196 35.7666 87.9196 36.6147V38.9515C87.9196 39.263 88.0151 39.3582 88.2147 39.3582C88.371 39.3582 88.4839 39.263 88.6227 39.064L88.805 39.2197ZM87.3467 38.7524V37.4802C86.1313 37.835 85.5411 38.1206 85.5411 38.7005C85.5411 39.0553 85.7841 39.3063 86.2008 39.3063C86.522 39.3063 87.0081 39.0813 87.3467 38.7524Z" fill="white"/>
<path d="M91.6263 39.0639C91.2964 39.5139 90.8971 39.7389 90.4891 39.7389C90.0116 39.7389 89.6036 39.5053 89.6036 38.761V35.9309H88.996V35.5847H89.6036V34.5462L90.1766 34.3298V35.5847H91.3311V35.9309H90.1766V38.6052C90.1766 39.0552 90.3155 39.3149 90.6627 39.3149C90.9058 39.3149 91.2096 39.1591 91.4526 38.8908L91.6263 39.0639Z" fill="white"/>
<path d="M93.8399 39.6524H92.1385C92.1298 39.5745 92.1385 39.4447 92.1819 39.3668C92.6593 39.2802 92.7027 39.2629 92.7027 39.1158V36.4156C92.7027 36.2338 92.668 36.1906 92.5031 36.1386L92.0777 36.0002C92.0604 35.9569 92.0604 35.8617 92.0777 35.8098L93.1802 35.4895C93.2323 35.4722 93.2757 35.4895 93.2757 35.5415V39.1158C93.2757 39.2629 93.3191 39.2802 93.7965 39.3668C93.8399 39.4447 93.8486 39.5572 93.8399 39.6524ZM92.9111 33.7327C93.1889 33.7327 93.4059 33.949 93.4059 34.226C93.4059 34.5029 93.1889 34.7193 92.9111 34.7193C92.6333 34.7193 92.4163 34.5029 92.4163 34.226C92.4163 33.949 92.6333 33.7327 92.9111 33.7327Z" fill="white"/>
<path d="M96.3921 35.4983C97.5292 35.4983 98.2845 36.3464 98.2845 37.6187C98.2845 38.8909 97.5292 39.739 96.3921 39.739C95.2549 39.739 94.4996 38.8909 94.4996 37.6187C94.4996 36.3464 95.2549 35.4983 96.3921 35.4983ZM97.6508 37.8091C97.6508 36.632 97.1299 35.8445 96.34 35.8445C95.6195 35.8445 95.142 36.4503 95.142 37.3504C95.142 38.5793 95.6889 39.3928 96.5136 39.3928C97.1994 39.3928 97.6508 38.7611 97.6508 37.8091Z" fill="white"/>
<path d="M103.345 39.6525H101.644C101.635 39.5746 101.644 39.4448 101.687 39.3669C102.165 39.2803 102.208 39.263 102.208 39.1159V36.9263C102.208 36.3205 101.956 36.0349 101.462 36.0349C101.002 36.0349 100.437 36.3118 100.194 36.5715V39.1159C100.194 39.263 100.238 39.2803 100.715 39.3669C100.759 39.4448 100.767 39.5573 100.759 39.6525H99.0571C99.0484 39.5746 99.0571 39.4448 99.1005 39.3669C99.5779 39.2803 99.6213 39.263 99.6213 39.1159V36.4157C99.6213 36.2339 99.5866 36.1907 99.4217 36.1387L98.9963 36.0003C98.9789 35.957 98.9789 35.8618 98.9963 35.8099L100.099 35.4896C100.151 35.4723 100.194 35.4896 100.194 35.5416V36.2599C100.455 35.9224 101.106 35.4983 101.696 35.4983C102.538 35.4983 102.781 36.1734 102.781 36.9436V39.1159C102.781 39.263 102.825 39.2803 103.302 39.3669C103.345 39.4448 103.354 39.5573 103.345 39.6525Z" fill="white"/>
<path d="M107.946 39.2197C107.747 39.5832 107.425 39.739 107.156 39.739C106.766 39.739 106.549 39.4967 106.497 39.0207C106.201 39.4015 105.655 39.739 105.142 39.739C104.517 39.739 104.049 39.3842 104.049 38.7957C104.049 38.0168 104.734 37.4542 106.488 37.134V36.7272C106.488 36.156 106.323 35.8358 105.828 35.8358C105.229 35.8358 104.865 36.182 104.578 36.5974C104.431 36.5541 104.222 36.2339 104.24 35.9916C104.517 35.7839 105.273 35.4983 105.846 35.4983C106.618 35.4983 107.061 35.7666 107.061 36.6147V38.9515C107.061 39.263 107.156 39.3582 107.356 39.3582C107.512 39.3582 107.625 39.263 107.764 39.064L107.946 39.2197ZM106.488 38.7524V37.4802C105.273 37.835 104.682 38.1206 104.682 38.7005C104.682 39.0553 104.925 39.3063 105.342 39.3063C105.663 39.3063 106.149 39.0813 106.488 38.7524Z" fill="white"/>
<path d="M109.995 39.6523H108.294C108.285 39.5744 108.294 39.4446 108.337 39.3667C108.814 39.2802 108.858 39.2629 108.858 39.1157V34.425C108.858 34.2432 108.823 34.1999 108.658 34.148L108.233 34.0095C108.215 33.9663 108.215 33.8711 108.233 33.8191L109.335 33.4989C109.387 33.4816 109.431 33.4989 109.431 33.5508V39.1157C109.431 39.2629 109.474 39.2802 109.952 39.3667C109.995 39.4446 110.004 39.5571 109.995 39.6523Z" fill="white"/>
<path d="M114.518 34.2173C113.789 34.2173 113.354 34.7019 113.354 35.2039C113.354 36.7963 116.523 36.329 116.523 38.1464C116.523 39.1244 115.733 39.7389 114.605 39.7389C113.476 39.7389 112.729 39.1071 112.495 38.4926C112.547 38.2157 112.929 37.8089 113.181 37.8089C113.146 39.0378 113.979 39.3754 114.639 39.3754C115.247 39.3754 115.898 38.9859 115.898 38.2762C115.898 36.753 112.782 37.2463 112.782 35.325C112.782 34.425 113.485 33.8538 114.518 33.8538C115.29 33.8538 116.002 34.1999 116.271 34.7106C116.263 34.9615 116.011 35.3683 115.759 35.3856C115.664 34.7365 115.195 34.2173 114.518 34.2173Z" fill="white"/>
<path d="M117.938 37.5754C117.938 38.6572 118.554 39.3063 119.266 39.3063C119.665 39.3063 120.117 39.1159 120.473 38.588L120.655 38.7264C120.351 39.3409 119.813 39.739 119.084 39.739C118.138 39.739 117.356 39.0207 117.356 37.7225C117.356 36.4243 118.103 35.4983 119.292 35.4983C119.969 35.4983 120.56 35.8531 120.69 36.4589C120.612 36.658 120.308 36.909 120.117 36.909C120.039 36.4243 119.813 35.8531 119.162 35.8531C118.511 35.8531 117.938 36.6061 117.938 37.5754Z" fill="white"/>
<path d="M125.577 39.6523H123.876C123.867 39.5744 123.876 39.4446 123.919 39.3667C124.396 39.2802 124.44 39.2629 124.44 39.1157V36.9261C124.44 36.3203 124.188 36.0347 123.693 36.0347C123.233 36.0347 122.669 36.3117 122.426 36.5713V39.1157C122.426 39.2629 122.469 39.2802 122.947 39.3667C122.99 39.4446 122.999 39.5571 122.99 39.6523H121.289C121.28 39.5744 121.289 39.4446 121.332 39.3667C121.81 39.2802 121.853 39.2629 121.853 39.1157V34.425C121.853 34.2432 121.818 34.1999 121.653 34.148L121.228 34.0095C121.211 33.9663 121.211 33.8711 121.228 33.8191L122.33 33.4989C122.383 33.4816 122.426 33.4989 122.426 33.5508V36.2597C122.686 35.9222 123.337 35.4981 123.928 35.4981C124.77 35.4981 125.013 36.1732 125.013 36.9434V39.1157C125.013 39.2629 125.056 39.2802 125.534 39.3667C125.577 39.4446 125.586 39.5571 125.577 39.6523Z" fill="white"/>
<path d="M128.129 35.4983C129.266 35.4983 130.022 36.3464 130.022 37.6187C130.022 38.8909 129.266 39.739 128.129 39.739C126.992 39.739 126.237 38.8909 126.237 37.6187C126.237 36.3464 126.992 35.4983 128.129 35.4983ZM129.388 37.8091C129.388 36.632 128.867 35.8445 128.077 35.8445C127.357 35.8445 126.879 36.4503 126.879 37.3504C126.879 38.5793 127.426 39.3928 128.251 39.3928C128.937 39.3928 129.388 38.7611 129.388 37.8091Z" fill="white"/>
<path d="M132.617 35.4983C133.754 35.4983 134.51 36.3464 134.51 37.6187C134.51 38.8909 133.754 39.739 132.617 39.739C131.48 39.739 130.725 38.8909 130.725 37.6187C130.725 36.3464 131.48 35.4983 132.617 35.4983ZM133.876 37.8091C133.876 36.632 133.355 35.8445 132.565 35.8445C131.845 35.8445 131.367 36.4503 131.367 37.3504C131.367 38.5793 131.914 39.3928 132.739 39.3928C133.425 39.3928 133.876 38.7611 133.876 37.8091Z" fill="white"/>
<path d="M136.871 39.6523H135.169C135.161 39.5744 135.169 39.4446 135.213 39.3667C135.69 39.2802 135.734 39.2629 135.734 39.1157V34.425C135.734 34.2432 135.699 34.1999 135.534 34.148L135.109 34.0095C135.091 33.9663 135.091 33.8711 135.109 33.8191L136.211 33.4989C136.263 33.4816 136.307 33.4989 136.307 33.5508V39.1157C136.307 39.2629 136.35 39.2802 136.827 39.3667C136.871 39.4446 136.88 39.5571 136.871 39.6523Z" fill="white"/>
<path d="M141.307 35.4983C142.444 35.4983 143.199 36.3464 143.199 37.6187C143.199 38.8909 142.444 39.739 141.307 39.739C140.17 39.739 139.414 38.8909 139.414 37.6187C139.414 36.3464 140.17 35.4983 141.307 35.4983ZM142.565 37.8091C142.565 36.632 142.045 35.8445 141.255 35.8445C140.534 35.8445 140.057 36.4503 140.057 37.3504C140.057 38.5793 140.604 39.3928 141.428 39.3928C142.114 39.3928 142.565 38.7611 142.565 37.8091Z" fill="white"/>
<path d="M146.88 33.8365C146.863 34.0356 146.559 34.4337 146.394 34.4164C146.298 33.975 146.047 33.8019 145.682 33.8019C145.317 33.8019 145.031 34.1481 145.031 34.8924V35.5847H146.107V35.9309H145.031V39.0985C145.031 39.2456 145.248 39.2889 145.812 39.3668C145.856 39.4447 145.864 39.5572 145.856 39.6524H143.894C143.885 39.5745 143.894 39.4447 143.937 39.3668C144.415 39.2802 144.458 39.2629 144.458 39.1158V35.9309H143.816V35.5847H144.458V35.377C144.458 34.2173 145.083 33.3865 146.09 33.3865C146.498 33.3865 146.802 33.6115 146.88 33.8365Z" fill="white"/>
<path d="M154.007 33.8538L154.094 35.7145C153.998 35.7318 153.92 35.7318 153.824 35.7145C153.521 34.4596 153.495 34.2865 152.635 34.2865H151.724V38.9946C151.724 39.1936 151.828 39.2369 152.765 39.3407C152.783 39.4533 152.783 39.5225 152.765 39.6523H150.04C150.022 39.5225 150.022 39.4533 150.04 39.3407C150.977 39.2369 151.081 39.1936 151.081 38.9946V34.2865H150.17C149.31 34.2865 149.284 34.4596 148.981 35.7145C148.885 35.7318 148.807 35.7318 148.711 35.7145L148.79 33.8538L149.649 33.9403H153.156L154.007 33.8538Z" fill="white"/>
<path d="M157.089 36.3638C156.932 36.1993 156.811 36.1474 156.628 36.1474C156.142 36.1474 155.838 36.684 155.604 37.0475V39.1159C155.604 39.263 155.648 39.2803 156.125 39.3669C156.168 39.4448 156.177 39.5573 156.168 39.6525H154.467C154.458 39.5746 154.467 39.4448 154.51 39.3669C154.988 39.2803 155.031 39.263 155.031 39.1159V36.4157C155.031 36.2339 154.996 36.1907 154.832 36.1387L154.406 36.0003C154.389 35.957 154.389 35.8618 154.406 35.8099L155.509 35.4896C155.561 35.4723 155.604 35.4896 155.604 35.5416V36.6667C155.821 36.3118 156.194 35.5329 156.993 35.5329C157.08 35.5329 157.21 35.5502 157.288 35.5848C157.392 35.8099 157.245 36.3118 157.089 36.3638Z" fill="white"/>
<path d="M159.58 39.6524H157.878C157.87 39.5745 157.878 39.4447 157.922 39.3668C158.399 39.2802 158.443 39.2629 158.443 39.1158V36.4156C158.443 36.2338 158.408 36.1906 158.243 36.1386L157.818 36.0002C157.8 35.9569 157.8 35.8617 157.818 35.8098L158.92 35.4895C158.972 35.4722 159.016 35.4895 159.016 35.5415V39.1158C159.016 39.2629 159.059 39.2802 159.537 39.3668C159.58 39.4447 159.589 39.5572 159.58 39.6524ZM158.651 33.7327C158.929 33.7327 159.146 33.949 159.146 34.226C159.146 34.5029 158.929 34.7193 158.651 34.7193C158.373 34.7193 158.156 34.5029 158.156 34.226C158.156 33.949 158.373 33.7327 158.651 33.7327Z" fill="white"/>
<path d="M160.865 37.5754C160.865 38.6572 161.481 39.3063 162.193 39.3063C162.592 39.3063 163.044 39.1159 163.4 38.588L163.582 38.7264C163.278 39.3409 162.74 39.739 162.011 39.739C161.064 39.739 160.283 39.0207 160.283 37.7225C160.283 36.4243 161.03 35.4983 162.219 35.4983C162.896 35.4983 163.486 35.8531 163.617 36.4589C163.538 36.658 163.235 36.909 163.044 36.909C162.965 36.4243 162.74 35.8531 162.089 35.8531C161.438 35.8531 160.865 36.6061 160.865 37.5754Z" fill="white"/>
<path d="M168.718 39.6523H166.886C166.869 39.5571 166.886 39.4619 166.956 39.3667C167.26 39.2802 167.32 39.2542 167.32 39.1503C167.32 39.1071 167.294 39.0725 167.242 38.9946L166.218 37.6185L165.437 38.3887V39.1157C165.437 39.2629 165.48 39.2802 165.957 39.3667C166.001 39.4446 166.01 39.5571 166.001 39.6523H164.299C164.291 39.5744 164.299 39.4446 164.343 39.3667C164.82 39.2802 164.864 39.2629 164.864 39.1157V34.425C164.864 34.2432 164.829 34.1999 164.664 34.148L164.239 34.0095C164.221 33.9663 164.221 33.8711 164.239 33.8191L165.341 33.4989C165.393 33.4816 165.437 33.4989 165.437 33.5508V37.8781L167.051 36.2338C167.086 36.1991 167.138 36.1472 167.138 36.0693C167.138 35.9655 167.06 35.9222 166.6 35.8703C166.556 35.7751 166.539 35.7058 166.556 35.5847H168.484C168.501 35.7058 168.484 35.7751 168.44 35.8703C168.05 35.9222 167.885 35.9655 167.728 36.1213L166.6 37.2377L167.963 39.0551C168.093 39.2369 168.267 39.2802 168.649 39.3667C168.718 39.4619 168.735 39.5571 168.718 39.6523Z" fill="white"/>
<path d="M169.855 36.5541C169.855 37.5581 172.13 37.0994 172.13 38.536C172.13 39.2457 171.418 39.739 170.602 39.739C169.907 39.739 169.3 39.3582 169.083 38.8303C169.126 38.5966 169.43 38.3197 169.499 38.3456C169.69 39.1072 170.176 39.4101 170.671 39.4101C171.079 39.4101 171.539 39.0899 171.539 38.6485C171.539 37.5581 169.317 38.086 169.317 36.684C169.317 36.0435 169.925 35.4983 170.723 35.4983C171.305 35.4983 171.808 35.7839 172.06 36.2166C172.06 36.3811 171.774 36.6753 171.635 36.6753C171.496 36.0955 171.166 35.8272 170.654 35.8272C170.246 35.8272 169.855 36.156 169.855 36.5541Z" fill="white"/>
<path d="M30.3453 19.917H26.3926V27.083H30.3453V19.917Z" fill="#1951A3"/>
<path d="M30.3453 29.8755H26.3926V37.0415H30.3453V29.8755Z" fill="#1951A3"/>
<path d="M4.01054 0H0.0578613V17.1245H4.01054V0Z" fill="white"/>
<path d="M17.1794 0H13.2267V17.1245H17.1794V0Z" fill="white"/>
<path d="M17.1794 19.917H13.2267V27.083H17.1794V19.917Z" fill="#1951A3"/>
<path d="M17.1794 9.9585H13.2267V17.1245H17.1794V9.9585Z" fill="#A63B41"/>
<path d="M17.1794 29.8755H13.2267V37.0415H17.1794V29.8755Z" fill="#1951A3"/>
<path d="M10.6225 0H6.6698V27.083H10.6225V0Z" fill="white"/>
<path d="M36.9312 29.8755H32.9785V37.0415H36.9312V29.8755Z" fill="white"/>
<path d="M30.3453 39.834H26.3926V47H30.3453V39.834Z" fill="white"/>
<path d="M23.7913 39.834H19.8386V47H23.7913V39.834Z" fill="white"/>
<path d="M36.9312 39.834H32.9785V47H36.9312V39.834Z" fill="white"/>
<path d="M23.7913 9.9585H19.8386V37.0415H23.7913V9.9585Z" fill="#A63B41"/>
<path d="M10.6225 9.9729H6.6698V27.083H10.6225V9.9729Z" fill="#A63B41"/>
<path d="M23.7913 19.917H19.8386V37.0415H23.7913V19.917Z" fill="#1951A3"/>
</g>
<defs>
<clipPath id="clip0_345_1629">
<rect width="175" height="47" fill="white"/>
</clipPath>
</defs>
</svg>
