<?xml version="1.0" encoding="UTF-8"?>
<svg id="Layer_2" data-name="Layer 2" xmlns="http://www.w3.org/2000/svg" xmlns:xlink="http://www.w3.org/1999/xlink" viewBox="0 0 257.02 87.57">
  <defs>
    <style>
      .cls-1 {
        fill: none;
      }

      .cls-2 {
        fill: #2e6c9a;
        stroke: #4e8dc3;
      }

      .cls-2, .cls-3, .cls-4 {
        stroke-linecap: round;
        stroke-linejoin: round;
      }

      .cls-3 {
        fill: #e06161;
        stroke: #ff9c9c;
      }

      .cls-4 {
        stroke: #4ae6ca;
      }

      .cls-4, .cls-5 {
        fill: #0f594b;
      }

      .cls-6 {
        clip-path: url(#clippath);
      }

      .cls-7 {
        fill: #fff;
      }

      .cls-8 {
        fill: #4ae6ca;
      }
    </style>
    <clipPath id="clippath">
      <rect class="cls-1" x="10.47" y="10.47" width="236.08" height="66.63"/>
    </clipPath>
  </defs>
  <g id="Layer_2_copy" data-name="Layer 2 copy">
    <g>
      <g>
        <rect class="cls-8" x="1.18" y="1.18" width="254.65" height="85.21"/>
        <path class="cls-5" d="M254.8,1.18c.57,0,1.04,.46,1.04,1.04V85.35c0,.57-.46,1.04-1.04,1.04H2.22c-.57,0-1.04-.46-1.04-1.04V2.22c0-.57,.46-1.04,1.04-1.04H254.8m0-1.18H2.22C.99,0,0,.99,0,2.22V85.35c0,1.22,.99,2.22,2.22,2.22H254.8c1.22,0,2.22-.99,2.22-2.22V2.22c0-1.22-.99-2.22-2.22-2.22h0Z"/>
      </g>
      <rect class="cls-5" x="10.47" y="10.47" width="236.08" height="66.63"/>
      <g class="cls-6">
        <g>
          <path class="cls-3" d="M180.78,110.42c9.2,0,16.66-7.46,16.66-16.66h0c9.2,0,16.66-7.46,16.66-16.66,9.2,0,16.66-7.46,16.66-16.66h0c9.2,0,16.66-7.46,16.66-16.66,0-9.2-7.46-16.66-16.66-16.66h0c0-9.2-7.46-16.66-16.66-16.66h0c0-9.2-7.46-16.66-16.66-16.66h0c0-9.2-7.46-16.66-16.66-16.66H76.24c-9.2,0-16.66,7.46-16.66,16.66h0c-9.2,0-16.66,7.46-16.66,16.66h0c-9.2,0-16.66,7.46-16.66,16.66h0c-9.2,0-16.66,7.46-16.66,16.66s7.46,16.66,16.66,16.66h0c0,9.2,7.46,16.66,16.66,16.66,0,9.2,7.46,16.66,16.66,16.66h0c0,9.2,7.46,16.66,16.66,16.66h104.54Z"/>
          <path class="cls-2" d="M168.25-22.85c9.2,0,16.66,7.46,16.66,16.66,0,0,0,0,0,0h0c9.2,0,16.66,7.46,16.66,16.66h0s0,0,0,0c9.2,0,16.66,7.46,16.66,16.66h0c9.2,0,16.66,7.46,16.66,16.66,0,9.2-7.46,16.66-16.66,16.66h0c0,9.2-7.46,16.66-16.66,16.66,0,0,0,0,0,0,0,9.2-7.46,16.66-16.66,16.66h0c0,9.2-7.46,16.66-16.66,16.66H88.77c-9.2,0-16.66-7.46-16.66-16.66h0c-9.2,0-16.66-7.46-16.66-16.66,0,0,0,0,0,0-9.2,0-16.66-7.46-16.66-16.66h0c-9.2,0-16.66-7.46-16.66-16.66s7.46-16.66,16.66-16.66h0c0-9.2,7.46-16.66,16.66-16.66,0,0,0,0,0,0h0c0-9.2,7.46-16.66,16.66-16.66h0s0,0,0,0c0-9.2,7.46-16.66,16.66-16.66h79.48Z"/>
          <path class="cls-4" d="M155.49,110.42c9.2,0,16.66-7.46,16.66-16.66h0c9.2,0,16.66-7.46,16.66-16.66,9.2,0,16.66-7.46,16.66-16.66h0c9.2,0,16.66-7.46,16.66-16.66s-7.46-16.66-16.66-16.66h0c0-9.2-7.46-16.66-16.66-16.66h0c0-9.2-7.46-16.66-16.66-16.66h0c0-9.2-7.46-16.66-16.66-16.66h-53.97c-9.2,0-16.66,7.46-16.66,16.66h0c-9.2,0-16.66,7.46-16.66,16.66h0c-9.2,0-16.66,7.46-16.66,16.66h0c-9.2,0-16.66,7.46-16.66,16.66s7.46,16.66,16.66,16.66h0c0,9.2,7.46,16.66,16.66,16.66,0,9.2,7.46,16.66,16.66,16.66h0c0,9.2,7.46,16.66,16.66,16.66h53.97Z"/>
        </g>
      </g>
      <path class="cls-5" d="M246.55,10.47V77.1H10.47V10.47H246.55m0-1.18H10.47c-.65,0-1.18,.53-1.18,1.18V77.1c0,.65,.53,1.18,1.18,1.18H246.55c.65,0,1.18-.53,1.18-1.18V10.47c0-.65-.53-1.18-1.18-1.18h0Z"/>
    </g>
    <g>
      <path class="cls-7" d="M99.48,40.58c.37-.14,2,3.05,1.31,3.05l-5.2-.06v3.91c0,4.68-.8,8.08-1.2,9.11-.29,.29-.86,.43-1.23,.34-.23-.8-.69-3.34-.69-7.57v-2.91c-5.28,1.71-11.71,2.74-13.62,2.74-.74,0-1.86-.91-1.86-2.6v-9.82c0-.34-.88-.77-1.43-.97-.03-.17,.43-.74,.71-.74,.63,0,2.91,.11,3.8,.43l4.23-.03c1.97,0,2.54-1.03,2.83-1.03,.37,0,1.88,1.63,1.88,2.43,0,.14-.11,.23-.34,.23l-8.56,.03v9.59c3.45-.06,9.22-.94,12.36-1.63v-12.33c0-.69-2.31-1.97-3-2.31-.2-.09,.43-.77,.6-.77,1.51,0,5.71,.86,5.62,1.57-.06,.43-.11,.97-.11,1.57v9.42l3.88-1.66Z"/>
      <path class="cls-7" d="M127.25,44.49c0,.14-.14,.23-.37,.23l-19.98,.03c-1.17,0-1.97,.31-2.34,.63-.94-.26-2.68-1.68-2.77-2.03-.06-.11,.14-.46,.26-.43,.54,.14,2.54,.23,4.45,.23l15.56-.06c2.03,0,2.71-1.14,3-1.14,.37,0,2.2,1.74,2.2,2.54Zm-5.74,9.25c.46,.43,1.08,1.28,1.08,1.71,0,.14-.11,.26-.37,.26-.31,0-1.54-.03-3.37-.03h-7.79c-.17,.46-.46,.86-.8,1.2-.26,.31-.83,.46-1.2,.37-.31-.8-.49-2.86-.77-5.4l-.29-2.46c-.03-.34-.97-1.06-1.54-1.26-.03-.17,.46-.71,.69-.71,.57,0,2.51,.09,3.77,.31h6.99c.94,0,1.46-.14,1.8-.46,.37-.14,2.8,.26,2.74,.66l-.94,5.8Zm-13.25-17.7c0-2.71,2.34-4.54,5.94-4.74,.03-.11,.06-.2,.06-.29,0-.31-.09-.63-.49-.86,0-.66,2.2,0,2.2,.29,0,.14-.17,.54-.31,.86,3.48,.23,5.74,2.06,5.74,4.74,0,2.85-2.6,4.71-6.54,4.71s-6.59-1.86-6.59-4.71Zm10.68,13.33h-7.62v4.65h7.45l.17-4.65Zm-7.54-13.42c0,1.91,1.37,3.2,3.34,3.2,2.08,0,3.51-1.28,3.51-3.2s-1.4-3.23-3.46-3.23-3.4,1.31-3.4,3.23Z"/>
      <path class="cls-7" d="M155.23,51.95c0,.14-.11,.23-.34,.23l-20.61,.03c-1.17,0-1.97,.31-2.31,.66-.94-.29-2.71-1.71-2.8-2.05-.03-.11,.14-.46,.29-.43,.54,.14,2.54,.23,4.45,.23l16.16-.06c2.03,0,2.68-1.14,3-1.14,.34,0,2.17,1.74,2.17,2.54Zm-20.58-12.56c0-3.34,2.68-5.62,6.79-5.82,.03-.11,.06-.2,.06-.29,0-.29-.09-.6-.51-.91,0-.66,2.23,0,2.23,.37,0,.14-.17,.51-.29,.83,3.97,.29,6.57,2.54,6.57,5.82,0,3.65-2.97,6.05-7.42,6.05s-7.42-2.4-7.42-6.05Zm3.43-.09c0,2.66,1.57,4.43,3.88,4.43,2.46,0,4.11-1.77,4.11-4.43,0-2.48-1.63-4.17-4.05-4.17s-3.94,1.68-3.94,4.17Z"/>
      <path class="cls-7" d="M182.63,52.03c0,.14-.11,.23-.34,.23l-20.61,.03c-1.17,0-1.97,.31-2.31,.66-.94-.29-2.71-1.71-2.8-2.06-.03-.11,.14-.46,.29-.43,.54,.14,2.54,.23,4.45,.23l6.91-.03-.06-4.54h-3.8c-2.2,0-3-.77-3.03-2.46l-.06-3.37c0-.31-.86-.77-1.4-.97-.03-.17,.43-.71,.71-.71,.63,0,2.94,.11,3.83,.4h9.62l.06-3.88h-8.94c-1.17,0-1.97,.34-2.31,.66-.94-.26-2.71-1.68-2.8-2.06-.03-.11,.14-.46,.26-.43,.57,.14,2.57,.23,4.48,.23h8.08c.94,0,1.43-.2,1.8-.54,.37-.03,3,.34,2.94,.74l-.83,5.14c.63,.43,1,1.26,1,1.43s-.09,.29-.26,.29h-13.1v2.57c0,1.11,.34,1.34,1.8,1.34h7.48c2.03,0,2.71-1.14,3-1.14,.34,0,2.17,1.74,2.17,2.54,0,.14-.11,.23-.34,.23h-7.05l-.2,4.54,6.2-.03c2.03,0,2.68-1.14,3-1.14,.34,0,2.17,1.74,2.17,2.54Z"/>
    </g>
  </g>
</svg>