<svg width="305" height="136" viewBox="0 0 305 136" fill="none" xmlns="http://www.w3.org/2000/svg">
<g clip-path="url(#clip0_498_485)">
<path d="M1.41202 134.599L303.6 134.599V33.4014L1.41202 33.4014V134.599Z" fill="#4AE6CA"/>
<path d="M2.63443 33.4014H302.366C303.042 33.4014 303.6 33.9477 303.6 34.6365V133.363C303.6 134.04 303.054 134.599 302.366 134.599H2.63443C1.95802 134.599 1.40028 134.052 1.40028 133.363V34.6365C1.40028 33.9596 1.94615 33.4014 2.63443 33.4014ZM2.63443 32C1.17481 32 0 33.1757 0 34.6365V133.363C0 134.812 1.17481 136 2.63443 136H302.366C303.813 136 305 134.824 305 133.363V34.6365C305 33.1757 303.813 32 302.366 32H2.63443Z" fill="#0F594B"/>
<path d="M12.4247 123.566L292.576 123.566V44.4343L12.4247 44.4343V123.566Z" fill="#0F594B"/>
<mask id="mask0_498_485" style="mask-type:luminance" maskUnits="userSpaceOnUse" x="12" y="44" width="281" height="80">
<path d="M12.4242 123.566L292.575 123.566V44.4345L12.4242 44.4345V123.566Z" fill="white"/>
</mask>
<g mask="url(#mask0_498_485)">
<path d="M39.5752 103.471C50.3432 103.471 59.0724 94.7349 59.0724 83.9584C59.0724 73.1819 50.3432 64.4458 39.5752 64.4458C28.8073 64.4458 20.0781 73.1819 20.0781 83.9584C20.0781 94.7349 28.8073 103.471 39.5752 103.471Z" fill="#4DD3B8"/>
<path d="M39.5873 103.958C28.5631 103.958 19.5918 94.9796 19.5918 83.9466C19.5918 72.9136 28.5631 63.9352 39.5873 63.9352C50.6116 63.9352 59.5828 72.9136 59.5828 83.9466C59.5828 94.9796 50.6116 103.958 39.5873 103.958ZM39.5873 64.9328C29.109 64.9328 20.5886 73.4599 20.5886 83.9466C20.5886 94.4333 29.109 102.96 39.5873 102.96C50.0657 102.96 58.586 94.4333 58.586 83.9466C58.586 73.4599 50.0657 64.9328 39.5873 64.9328Z" fill="#13604E"/>
<path d="M33.0723 96.9629C40.2487 96.9629 46.0664 91.1406 46.0664 83.9584C46.0664 76.7763 40.2487 70.954 33.0723 70.954C25.8958 70.954 20.0781 76.7763 20.0781 83.9584C20.0781 91.1406 25.8958 96.9629 33.0723 96.9629Z" fill="#13604E"/>
<path d="M20.0904 83.9585C30.8583 83.9585 39.5875 75.2224 39.5875 64.4458C39.5875 53.6693 30.8583 44.9332 20.0904 44.9332C9.32242 44.9332 0.593262 53.6693 0.593262 64.4458C0.593262 75.2224 9.32242 83.9585 20.0904 83.9585Z" fill="#4DD3B8"/>
<path d="M20.0903 84.4454C9.06601 84.4454 0.0947266 75.4789 0.0947266 64.4459C0.0947266 53.4129 9.06601 44.4344 20.0903 44.4344C31.1145 44.4344 40.0858 53.4129 40.0858 64.4459C40.0858 75.4789 31.1145 84.4573 20.0903 84.4573V84.4454ZM20.0903 45.4202C9.61189 45.4321 1.09154 53.9592 1.09154 64.4459C1.09154 74.9326 9.61189 83.4597 20.0903 83.4597C30.5686 83.4597 39.089 74.9326 39.089 64.4459C39.089 53.9592 30.5686 45.4321 20.0903 45.4321V45.4202Z" fill="#13604E"/>
<path d="M20.0904 122.984C30.8583 122.984 39.5875 114.248 39.5875 103.471C39.5875 92.6946 30.8583 83.9585 20.0904 83.9585C9.32242 83.9585 0.593262 92.6946 0.593262 103.471C0.593262 114.248 9.32242 122.984 20.0904 122.984Z" fill="#4DD3B8"/>
<path d="M20.0903 123.471C9.06601 123.471 0.0947266 114.504 0.0947266 103.471C0.0947266 92.4381 9.06601 83.4597 20.0903 83.4597C31.1145 83.4597 40.0858 92.4381 40.0858 103.471C40.0858 114.504 31.1145 123.483 20.0903 123.483V123.471ZM20.0903 84.4454C9.61189 84.4454 1.09154 92.9844 1.09154 103.471C1.09154 113.958 9.61189 122.485 20.0903 122.485C30.5686 122.485 39.089 113.958 39.089 103.471C39.089 92.9844 30.5686 84.4573 20.0903 84.4573V84.4454Z" fill="#13604E"/>
<path d="M0.593229 64.4459C0.593229 64.4459 0.130424 52.4153 13.5755 51.4414C27.1511 50.4557 30.3788 60.8236 30.7349 62.6525C31.1621 64.8496 31.0197 67.1061 29.0379 70.2414C28.2428 71.5003 26.3441 74.2319 21.1346 75.0157C21.1346 75.0157 13.0534 75.752 11.4276 67.7356C11.4276 67.7356 10.7868 62.1775 16.0438 61.1324C16.0438 61.1324 17.6221 60.883 18.2866 61.5481C18.2866 61.5481 19.4258 62.8426 18.0493 63.6858C17.1355 64.244 15.1419 64.0896 14.7384 66.8211C14.3587 69.3626 16.9338 70.9184 18.2629 71.3341C21.8466 72.4623 24.3149 71.726 26.3204 69.6714C26.3204 69.6714 29.9872 66.6548 28.0292 61.1918C25.5372 54.2442 19.319 52.2134 13.6111 52.6053C13.6111 52.6053 1.44764 52.9259 0.889898 67.7356C0.889898 67.7356 0.605095 65.4791 0.616962 64.4459H0.593229Z" fill="#13604E"/>
<path d="M0.593093 103.459C0.593093 103.459 0.142155 91.4287 13.5754 90.4548C27.1509 89.4691 30.3787 99.837 30.7347 101.666C31.1619 103.863 31.0195 106.12 29.0378 109.255C28.2427 110.514 26.344 113.245 21.1345 114.029C21.1345 114.029 13.0532 114.765 11.4275 106.749C11.4275 106.749 10.7867 101.191 16.0436 100.146C16.0436 100.146 17.6219 99.8964 18.2865 100.561C18.2865 100.561 19.4257 101.856 18.0491 102.699C17.1354 103.257 15.1418 103.103 14.7383 105.835C14.3586 108.376 16.9337 109.932 18.2627 110.347C21.8465 111.476 24.3148 110.739 26.3203 108.685C26.3203 108.685 29.9871 105.668 28.0291 100.205C25.5371 93.2576 19.3189 91.2268 13.611 91.6187C13.611 91.6187 1.4475 91.9394 0.889763 106.749C0.889763 106.749 0.60496 104.493 0.616827 103.459H0.593093Z" fill="#13604E"/>
<path d="M0.593262 64.4458C11.3564 64.4458 20.0904 73.1867 20.0904 83.9584C20.0904 94.7301 11.3564 103.471 0.593262 103.471V64.4458Z" fill="#4DD3B8"/>
<path d="M0.593262 63.947C11.6175 63.947 20.5888 72.9254 20.5888 83.9584C20.5888 94.9914 11.6175 103.958 0.593262 103.958V63.947ZM0.593262 102.972C11.0716 102.972 19.592 94.4451 19.592 83.9584C19.592 73.4717 11.0598 64.9327 0.593262 64.9327V102.972Z" fill="#13604E"/>
<path d="M265.364 103.471C276.132 103.471 284.861 94.7349 284.861 83.9584C284.861 73.1819 276.132 64.4458 265.364 64.4458C254.596 64.4458 245.867 73.1819 245.867 83.9584C245.867 94.7349 254.596 103.471 265.364 103.471Z" fill="#4DD3B8"/>
<path d="M245.381 83.9584C245.381 72.9254 254.352 63.947 265.376 63.947C276.401 63.947 285.372 72.9254 285.372 83.9584C285.372 94.9914 276.401 103.97 265.376 103.97C254.352 103.97 245.381 94.9914 245.381 83.9584ZM246.378 83.9584C246.378 94.4451 254.898 102.972 265.376 102.972C275.855 102.972 284.375 94.4451 284.375 83.9584C284.375 73.4717 275.855 64.9446 265.376 64.9446C254.898 64.9446 246.378 73.4717 246.378 83.9584Z" fill="#13604E"/>
<path d="M271.879 96.9629C279.056 96.9629 284.873 91.1406 284.873 83.9584C284.873 76.7763 279.056 70.954 271.879 70.954C264.703 70.954 258.885 76.7763 258.885 83.9584C258.885 91.1406 264.703 96.9629 271.879 96.9629Z" fill="#13604E"/>
<path d="M284.862 83.9585C295.63 83.9585 304.359 75.2224 304.359 64.4458C304.359 53.6693 295.63 44.9332 284.862 44.9332C274.094 44.9332 265.365 53.6693 265.365 64.4458C265.365 75.2224 274.094 83.9585 284.862 83.9585Z" fill="#4DD3B8"/>
<path d="M264.866 64.4459C264.866 53.4129 273.838 44.4344 284.862 44.4344C295.886 44.4344 304.857 53.4129 304.857 64.4459C304.857 75.4789 295.886 84.4573 284.862 84.4573C273.838 84.4573 264.866 75.4789 264.866 64.4459ZM265.863 64.4459C265.863 74.9326 274.383 83.4597 284.862 83.4597C295.34 83.4597 303.86 74.9326 303.86 64.4459C303.86 53.9592 295.34 45.4321 284.862 45.4321C274.383 45.4321 265.863 53.9592 265.863 64.4459Z" fill="#13604E"/>
<path d="M284.862 122.984C295.63 122.984 304.359 114.248 304.359 103.471C304.359 92.6946 295.63 83.9585 284.862 83.9585C274.094 83.9585 265.365 92.6946 265.365 103.471C265.365 114.248 274.094 122.984 284.862 122.984Z" fill="#4DD3B8"/>
<path d="M264.866 103.471C264.866 92.4381 273.838 83.4597 284.862 83.4597C295.886 83.4597 304.857 92.4381 304.857 103.471C304.857 114.504 295.886 123.483 284.862 123.483C273.838 123.483 264.866 114.504 264.866 103.471ZM265.863 103.471C265.863 113.958 274.383 122.485 284.862 122.485C295.34 122.485 303.86 113.958 303.86 103.471C303.86 92.9844 295.34 84.4573 284.862 84.4573C274.383 84.4573 265.863 92.9844 265.863 103.471Z" fill="#13604E"/>
<path d="M304.359 64.4459C304.359 64.4459 304.81 52.4153 291.376 51.4414C277.801 50.4557 274.573 60.8236 274.217 62.6525C273.79 64.8496 273.932 67.1061 275.914 70.2414C276.709 71.5003 278.608 74.2319 283.817 75.0157C283.817 75.0157 291.899 75.752 293.524 67.7356C293.524 67.7356 294.165 62.1775 288.908 61.1324C288.908 61.1324 287.33 60.883 286.665 61.5481C286.665 61.5481 285.526 62.8426 286.903 63.6858C287.816 64.244 289.81 64.0896 290.214 66.8211C290.593 69.3626 288.018 70.9184 286.689 71.3341C283.105 72.4623 280.637 71.726 278.632 69.6714C278.632 69.6714 274.965 66.6548 276.923 61.1918C279.415 54.2442 285.633 52.2134 291.341 52.6053C291.341 52.6053 303.504 52.9259 304.062 67.7356C304.062 67.7356 304.347 65.4791 304.335 64.4459H304.359Z" fill="#13604E"/>
<path d="M304.359 103.459C304.359 103.459 304.81 91.4287 291.376 90.4548C277.801 89.4691 274.573 99.837 274.217 101.666C273.79 103.863 273.932 106.12 275.914 109.255C276.709 110.514 278.608 113.245 283.817 114.029C283.817 114.029 291.899 114.765 293.524 106.749C293.524 106.749 294.165 101.191 288.908 100.146C288.908 100.146 287.33 99.8964 286.665 100.561C286.665 100.561 285.526 101.856 286.903 102.699C287.816 103.257 289.81 103.103 290.214 105.835C290.593 108.376 288.018 109.932 286.689 110.347C283.105 111.476 280.637 110.739 278.632 108.685C278.632 108.685 274.965 105.668 276.923 100.205C279.415 93.2576 285.633 91.2268 291.341 91.6187C291.341 91.6187 303.504 91.9394 304.062 106.749C304.062 106.749 304.347 104.493 304.335 103.459H304.359Z" fill="#13604E"/>
<path d="M304.359 64.4458C293.596 64.4458 284.862 73.1867 284.862 83.9584C284.862 94.7301 293.596 103.471 304.359 103.471V64.4458Z" fill="#4DD3B8"/>
<path d="M304.359 103.958C293.335 103.958 284.363 94.9796 284.363 83.9466C284.363 72.9136 293.335 63.9352 304.359 63.9352V103.958ZM304.359 64.9328C293.88 64.9328 285.36 73.4599 285.36 83.9466C285.36 94.4333 293.88 102.96 304.359 102.96V64.9328Z" fill="#13604E"/>
</g>
<path d="M12.4247 44.4344H292.576V123.566H12.4247V44.4344ZM12.4247 43.033C11.6534 43.033 11.0244 43.6624 11.0244 44.4344V123.566C11.0244 124.338 11.6534 124.967 12.4247 124.967H292.576C293.347 124.967 293.976 124.338 293.976 123.566V44.4344C293.976 43.6624 293.347 43.033 292.576 43.033H12.4247Z" fill="#0F594B"/>
</g>
<path d="M112.593 68.9531H100.933V67.7227H112.593V68.9531ZM114.625 72.5078H98.7262V71.2578H114.625V72.5078ZM107.378 78.5234H105.875V71.9414H107.378V78.5234ZM112.359 63.5234H102.496V68.3086H100.933V62.2539H112.359V63.5234ZM130.406 78.6211H128.882V61.2188H130.406V78.6211ZM129.312 66.4727H125.406V65.1836H129.312V66.4727ZM117.984 73.25C119.436 73.2565 120.748 73.224 121.92 73.1523C123.098 73.0807 124.332 72.944 125.621 72.7422L125.757 74.0312C124.442 74.2331 123.192 74.373 122.007 74.4512C120.823 74.5228 119.481 74.5586 117.984 74.5586H116.695V73.25H117.984ZM124.273 68.9727H118.218V73.582H116.695V67.7227H122.769V64.0703H116.636V62.8008H124.273V68.9727ZM129.195 71.2188H125.269V69.9297H129.195V71.2188ZM141.968 72.0586H140.445V69.3828H141.968V72.0586ZM141.226 61.4336C142.509 61.4336 143.609 61.5508 144.527 61.7852C145.451 62.0195 146.155 62.3613 146.636 62.8105C147.118 63.2598 147.359 63.8034 147.359 64.4414C147.359 65.0859 147.118 65.6361 146.636 66.0918C146.155 66.541 145.455 66.8828 144.537 67.1172C143.619 67.3451 142.515 67.4622 141.226 67.4688C139.931 67.4622 138.824 67.3451 137.906 67.1172C136.994 66.8828 136.295 66.541 135.806 66.0918C135.318 65.6361 135.074 65.0859 135.074 64.4414C135.074 63.8034 135.318 63.2598 135.806 62.8105C136.295 62.3613 136.998 62.0195 137.916 61.7852C138.834 61.5508 139.937 61.4336 141.226 61.4336ZM141.226 62.6055C140.269 62.612 139.449 62.6901 138.765 62.8398C138.088 62.9831 137.567 63.1914 137.203 63.4648C136.845 63.7383 136.669 64.0638 136.675 64.4414C136.669 64.832 136.845 65.1641 137.203 65.4375C137.567 65.7109 138.088 65.9225 138.765 66.0723C139.442 66.2155 140.263 66.2904 141.226 66.2969C142.19 66.2904 143.013 66.2155 143.697 66.0723C144.38 65.9225 144.901 65.7109 145.259 65.4375C145.617 65.1641 145.796 64.832 145.796 64.4414C145.796 64.0638 145.617 63.7383 145.259 63.4648C144.901 63.1914 144.377 62.9831 143.687 62.8398C143.003 62.6901 142.183 62.612 141.226 62.6055ZM149.136 69.8516H133.316V68.6211H149.136V69.8516ZM147.105 75.3789H136.793V77.4883H135.269V74.2461H145.601V72.6641H135.23V71.4922H147.105V75.3789ZM147.632 78.3867H135.269V77.1758H147.632V78.3867ZM168.941 67.0195H164.976V65.75H168.941V67.0195ZM170.015 71.5703H168.472V61.2188H170.015V71.5703ZM164.253 72.1172C165.451 72.1172 166.487 72.2441 167.359 72.498C168.231 72.752 168.902 73.1198 169.371 73.6016C169.839 74.0833 170.074 74.6628 170.074 75.3398C170.074 76.0169 169.839 76.5964 169.371 77.0781C168.902 77.5599 168.231 77.9277 167.359 78.1816C166.487 78.4421 165.451 78.5755 164.253 78.582C163.049 78.5755 162.011 78.4421 161.138 78.1816C160.272 77.9277 159.605 77.5599 159.136 77.0781C158.668 76.5964 158.433 76.0169 158.433 75.3398C158.433 74.6628 158.668 74.0833 159.136 73.6016C159.605 73.1198 160.276 72.752 161.148 72.498C162.02 72.2441 163.056 72.1172 164.253 72.1172ZM164.253 73.3086C163.368 73.3086 162.603 73.39 161.959 73.5527C161.314 73.7155 160.819 73.9499 160.474 74.2559C160.129 74.5618 159.957 74.9232 159.957 75.3398C159.957 75.7565 160.129 76.1146 160.474 76.4141C160.819 76.7135 161.314 76.9447 161.959 77.1074C162.603 77.2702 163.368 77.3516 164.253 77.3516C165.132 77.3516 165.894 77.2702 166.539 77.1074C167.19 76.9447 167.688 76.7135 168.033 76.4141C168.378 76.1146 168.55 75.7565 168.55 75.3398C168.55 74.9232 168.378 74.5618 168.033 74.2559C167.688 73.9499 167.19 73.7155 166.539 73.5527C165.894 73.39 165.132 73.3086 164.253 73.3086ZM161.382 64.4219C161.382 65.4635 161.177 66.4499 160.767 67.3809C160.357 68.3118 159.781 69.1257 159.039 69.8223C158.303 70.5189 157.457 71.0495 156.5 71.4141L155.699 70.1836C156.552 69.8776 157.31 69.4284 157.974 68.8359C158.645 68.237 159.169 67.5566 159.546 66.7949C159.924 66.0267 160.113 65.2357 160.113 64.4219V62.9766H161.382V64.4219ZM161.656 64.4023C161.656 65.151 161.835 65.877 162.193 66.5801C162.551 67.2767 163.056 67.8984 163.707 68.4453C164.358 68.9922 165.1 69.4089 165.933 69.6953L165.132 70.9258C164.201 70.5872 163.378 70.0892 162.662 69.4316C161.952 68.7741 161.399 68.0124 161.002 67.1465C160.604 66.2741 160.406 65.3594 160.406 64.4023V62.9766H161.656V64.4023ZM165.543 63.7773H156.187V62.4883H165.543V63.7773ZM186.929 70.6133H174.937V69.3633H186.929V70.6133ZM188.804 76.3945H172.906V75.1055H188.804V76.3945ZM181.558 75.6328H180.054V69.9102H181.558V75.6328ZM186.753 63.8945H176.48V69.9492H174.937V62.6445H186.753V63.8945ZM206.089 76.4336H190.191V75.1445H206.089V76.4336ZM198.843 75.7109H197.339V71.4141H198.843V75.7109ZM204.078 67.7617H193.707V71.2773H192.183V66.5117H202.574V63.7773H192.144V62.5078H204.078V67.7617ZM204.488 71.8633H192.183V70.5938H204.488V71.8633ZM101.656 109.211H89.6441V107.922H101.656V109.211ZM91.1871 108.371H89.6441V104.211H91.1871V108.371ZM103.472 102.824H87.5933V101.535H103.472V102.824ZM96.2457 102.023H94.7418V98.5859H96.2457V102.023ZM96.0308 93.4688C96.0308 94.5039 95.7151 95.4577 95.0836 96.3301C94.4521 97.196 93.6155 97.9219 92.5738 98.5078C91.5387 99.0938 90.4319 99.4974 89.2535 99.7188L88.6285 98.5078C89.6571 98.3385 90.6402 98.0065 91.5777 97.5117C92.5152 97.0169 93.2737 96.4147 93.8531 95.7051C94.4325 94.9954 94.7222 94.25 94.7222 93.4688V92.6875H96.0308V93.4688ZM96.2652 93.4688C96.2652 94.2565 96.5582 95.0085 97.1441 95.7246C97.7301 96.4342 98.4885 97.0365 99.4195 97.5312C100.357 98.0195 101.337 98.3451 102.359 98.5078L101.753 99.7188C100.575 99.4909 99.4651 99.0872 98.4234 98.5078C97.3883 97.9219 96.5517 97.196 95.9137 96.3301C95.2821 95.4577 94.9696 94.5039 94.9762 93.4688V92.6875H96.2652V93.4688ZM113.648 101.789H105.621V93.8008H113.648V101.789ZM107.125 100.559H112.164V95.0508H107.125V100.559ZM118.453 104.953H116.929V92.2188H118.453V104.953ZM121.07 98.8008H117.964V97.5117H121.07V98.8008ZM119.253 109.211H107.593V107.922H119.253V109.211ZM109.097 108.449H107.593V103.742H109.097V108.449ZM142.027 109.582H140.562V92.2188H142.027V109.582ZM140.953 100.48H137.554V99.2109H140.953V100.48ZM138.003 108.684H136.597V92.6094H138.003V108.684ZM128.941 103.977C130.354 103.977 131.529 103.944 132.466 103.879C133.41 103.814 134.364 103.684 135.328 103.488L135.464 104.777C134.488 104.979 133.524 105.113 132.574 105.178C131.623 105.243 130.412 105.279 128.941 105.285H127.828V103.977H128.941ZM134.332 95.6172H129.351V104.582H127.828V94.3477H134.332V95.6172ZM157.789 96.5742H152.867V95.2852H157.789V96.5742ZM157.828 100.285H152.867V99.0156H157.828V100.285ZM153.257 101.848H145.289V93.7422H153.257V101.848ZM146.812 100.617H151.753V95.0117H146.812V100.617ZM158.863 104.914H157.32V92.2383H158.863V104.914ZM159.253 109.211H147.632V107.922H159.253V109.211ZM149.175 108.488H147.632V103.781H149.175V108.488ZM175.425 104.387H173.921V101.32H175.425V104.387ZM175.054 94.1523C175.054 95.0508 174.742 95.8613 174.117 96.584C173.492 97.3066 172.658 97.8991 171.617 98.3613C170.582 98.8236 169.455 99.1328 168.238 99.2891L167.671 98.0781C168.707 97.9609 169.686 97.7135 170.611 97.3359C171.542 96.9583 172.287 96.4928 172.847 95.9395C173.407 95.3861 173.687 94.7904 173.687 94.1523V93.5859H175.054V94.1523ZM175.679 94.1523C175.679 94.7904 175.962 95.3861 176.529 95.9395C177.095 96.4928 177.841 96.9583 178.765 97.3359C179.69 97.7135 180.673 97.9609 181.714 98.0781L181.148 99.2891C179.931 99.1328 178.801 98.8236 177.759 98.3613C176.724 97.8991 175.891 97.3066 175.259 96.584C174.628 95.8613 174.312 95.0508 174.312 94.1523V93.5859H175.679V94.1523ZM181.187 94.1914H168.218V92.9414H181.187V94.1914ZM182.652 101.672H166.773V100.402H182.652V101.672ZM180.64 109.582H179.097V105.207H168.531V103.957H180.64V109.582ZM198.101 98.7227H186.207V97.4922H198.101V98.7227ZM199.937 102.336H184.039V101.086H199.937V102.336ZM187.73 98.1172H186.207V92.8633H187.73V98.1172ZM198.199 109.152H186.109V107.883H198.199V109.152ZM187.632 108.254H186.109V104.113H187.632V108.254ZM214.781 109.621H213.257V92.2188H214.781V109.621ZM217.691 100.383H214.429V99.0938H217.691V100.383ZM203.472 103.977C205.178 103.97 206.64 103.924 207.857 103.84C209.074 103.749 210.315 103.586 211.578 103.352L211.773 104.68C210.484 104.914 209.221 105.07 207.984 105.148C206.753 105.227 205.25 105.266 203.472 105.266H202.105V103.977H203.472ZM210.211 95.1875H203.628V104.562H202.105V93.918H210.211V95.1875Z" fill="white"/>
<path d="M14.1436 20.616H12.6243V3.22652H14.1436V20.616ZM17.0442 11.4309H13.7983V10.1326H17.0442V11.4309ZM2.80387 15.1188C4.56262 15.1188 6.05893 15.0773 7.29282 14.9945C8.53131 14.907 9.78821 14.7459 11.0635 14.511L11.2155 15.7818C9.90792 16.0212 8.62339 16.1846 7.36188 16.2721C6.10037 16.3596 4.58103 16.4079 2.80387 16.4171H1.42265V15.1188H2.80387ZM9.28177 11.058H2.94199V15.6436H1.42265V9.78729H7.74862V6.11326H1.38122V4.84254H9.28177V11.058ZM19.8266 19.1105C19.601 19.1105 19.3892 19.0529 19.1912 18.9378C18.9979 18.8227 18.8436 18.6708 18.7285 18.482C18.618 18.2887 18.5651 18.0792 18.5697 17.8536C18.5651 17.628 18.618 17.4185 18.7285 17.2251C18.8436 17.0272 18.9979 16.8729 19.1912 16.7624C19.3892 16.6519 19.601 16.5967 19.8266 16.5967C20.0522 16.5967 20.2617 16.6519 20.455 16.7624C20.653 16.8729 20.8073 17.0272 20.9178 17.2251C21.0283 17.4185 21.0835 17.628 21.0835 17.8536C21.0835 18.0792 21.0283 18.2887 20.9178 18.482C20.8073 18.6708 20.653 18.8227 20.455 18.9378C20.2617 19.0529 20.0522 19.1105 19.8266 19.1105Z" fill="white"/>
<defs>
<clipPath id="clip0_498_485">
<rect width="305" height="104" fill="white" transform="translate(0 32)"/>
</clipPath>
</defs>
</svg>
