<svg width="305" height="136" viewBox="0 0 305 136" fill="none" xmlns="http://www.w3.org/2000/svg">
<g clip-path="url(#clip0_498_436)">
<path d="M1.41202 134.599L303.6 134.599V33.4014L1.41202 33.4014V134.599Z" fill="#4AE6CA"/>
<path d="M2.63443 33.4014H302.366C303.042 33.4014 303.6 33.9477 303.6 34.6365V133.363C303.6 134.04 303.054 134.599 302.366 134.599H2.63443C1.95802 134.599 1.40028 134.052 1.40028 133.363V34.6365C1.40028 33.9596 1.94615 33.4014 2.63443 33.4014ZM2.63443 32C1.17481 32 0 33.1757 0 34.6365V133.363C0 134.812 1.17481 136 2.63443 136H302.366C303.813 136 305 134.824 305 133.363V34.6365C305 33.1757 303.813 32 302.366 32H2.63443Z" fill="#0F594B"/>
<path d="M12.4247 123.566L292.576 123.566V44.4343L12.4247 44.4343V123.566Z" fill="#0F594B"/>
<mask id="mask0_498_436" style="mask-type:luminance" maskUnits="userSpaceOnUse" x="12" y="44" width="281" height="80">
<path d="M12.4242 123.566L292.575 123.566V44.4345L12.4242 44.4345V123.566Z" fill="white"/>
</mask>
<g mask="url(#mask0_498_436)">
<path d="M39.5752 103.471C50.3432 103.471 59.0724 94.7349 59.0724 83.9584C59.0724 73.1819 50.3432 64.4458 39.5752 64.4458C28.8073 64.4458 20.0781 73.1819 20.0781 83.9584C20.0781 94.7349 28.8073 103.471 39.5752 103.471Z" fill="#4DD3B8"/>
<path d="M39.5873 103.958C28.5631 103.958 19.5918 94.9796 19.5918 83.9466C19.5918 72.9136 28.5631 63.9352 39.5873 63.9352C50.6116 63.9352 59.5828 72.9136 59.5828 83.9466C59.5828 94.9796 50.6116 103.958 39.5873 103.958ZM39.5873 64.9328C29.109 64.9328 20.5886 73.4599 20.5886 83.9466C20.5886 94.4333 29.109 102.96 39.5873 102.96C50.0657 102.96 58.586 94.4333 58.586 83.9466C58.586 73.4599 50.0657 64.9328 39.5873 64.9328Z" fill="#13604E"/>
<path d="M33.0723 96.9629C40.2487 96.9629 46.0664 91.1406 46.0664 83.9584C46.0664 76.7763 40.2487 70.954 33.0723 70.954C25.8958 70.954 20.0781 76.7763 20.0781 83.9584C20.0781 91.1406 25.8958 96.9629 33.0723 96.9629Z" fill="#13604E"/>
<path d="M20.0904 83.9585C30.8583 83.9585 39.5875 75.2224 39.5875 64.4458C39.5875 53.6693 30.8583 44.9332 20.0904 44.9332C9.32242 44.9332 0.593262 53.6693 0.593262 64.4458C0.593262 75.2224 9.32242 83.9585 20.0904 83.9585Z" fill="#4DD3B8"/>
<path d="M20.0903 84.4454C9.06601 84.4454 0.0947266 75.4789 0.0947266 64.4459C0.0947266 53.4129 9.06601 44.4344 20.0903 44.4344C31.1145 44.4344 40.0858 53.4129 40.0858 64.4459C40.0858 75.4789 31.1145 84.4573 20.0903 84.4573V84.4454ZM20.0903 45.4202C9.61189 45.4321 1.09154 53.9592 1.09154 64.4459C1.09154 74.9326 9.61189 83.4597 20.0903 83.4597C30.5686 83.4597 39.089 74.9326 39.089 64.4459C39.089 53.9592 30.5686 45.4321 20.0903 45.4321V45.4202Z" fill="#13604E"/>
<path d="M20.0904 122.984C30.8583 122.984 39.5875 114.248 39.5875 103.471C39.5875 92.6946 30.8583 83.9585 20.0904 83.9585C9.32242 83.9585 0.593262 92.6946 0.593262 103.471C0.593262 114.248 9.32242 122.984 20.0904 122.984Z" fill="#4DD3B8"/>
<path d="M20.0903 123.471C9.06601 123.471 0.0947266 114.504 0.0947266 103.471C0.0947266 92.4381 9.06601 83.4597 20.0903 83.4597C31.1145 83.4597 40.0858 92.4381 40.0858 103.471C40.0858 114.504 31.1145 123.483 20.0903 123.483V123.471ZM20.0903 84.4454C9.61189 84.4454 1.09154 92.9844 1.09154 103.471C1.09154 113.958 9.61189 122.485 20.0903 122.485C30.5686 122.485 39.089 113.958 39.089 103.471C39.089 92.9844 30.5686 84.4573 20.0903 84.4573V84.4454Z" fill="#13604E"/>
<path d="M0.593229 64.4459C0.593229 64.4459 0.130424 52.4153 13.5755 51.4414C27.1511 50.4557 30.3788 60.8236 30.7349 62.6525C31.1621 64.8496 31.0197 67.1061 29.0379 70.2414C28.2428 71.5003 26.3441 74.2319 21.1346 75.0157C21.1346 75.0157 13.0534 75.752 11.4276 67.7356C11.4276 67.7356 10.7868 62.1775 16.0438 61.1324C16.0438 61.1324 17.6221 60.883 18.2866 61.5481C18.2866 61.5481 19.4258 62.8426 18.0493 63.6858C17.1355 64.244 15.1419 64.0896 14.7384 66.8211C14.3587 69.3626 16.9338 70.9184 18.2629 71.3341C21.8466 72.4623 24.3149 71.726 26.3204 69.6714C26.3204 69.6714 29.9872 66.6548 28.0292 61.1918C25.5372 54.2442 19.319 52.2134 13.6111 52.6053C13.6111 52.6053 1.44764 52.9259 0.889898 67.7356C0.889898 67.7356 0.605095 65.4791 0.616962 64.4459H0.593229Z" fill="#13604E"/>
<path d="M0.593093 103.459C0.593093 103.459 0.142155 91.4287 13.5754 90.4548C27.1509 89.4691 30.3787 99.837 30.7347 101.666C31.1619 103.863 31.0195 106.12 29.0378 109.255C28.2427 110.514 26.344 113.245 21.1345 114.029C21.1345 114.029 13.0532 114.765 11.4275 106.749C11.4275 106.749 10.7867 101.191 16.0436 100.146C16.0436 100.146 17.6219 99.8964 18.2865 100.561C18.2865 100.561 19.4257 101.856 18.0491 102.699C17.1354 103.257 15.1418 103.103 14.7383 105.835C14.3586 108.376 16.9337 109.932 18.2627 110.347C21.8465 111.476 24.3148 110.739 26.3203 108.685C26.3203 108.685 29.9871 105.668 28.0291 100.205C25.5371 93.2576 19.3189 91.2268 13.611 91.6187C13.611 91.6187 1.4475 91.9394 0.889763 106.749C0.889763 106.749 0.60496 104.493 0.616827 103.459H0.593093Z" fill="#13604E"/>
<path d="M0.593262 64.4458C11.3564 64.4458 20.0904 73.1867 20.0904 83.9584C20.0904 94.7301 11.3564 103.471 0.593262 103.471V64.4458Z" fill="#4DD3B8"/>
<path d="M0.593262 63.947C11.6175 63.947 20.5888 72.9254 20.5888 83.9584C20.5888 94.9914 11.6175 103.958 0.593262 103.958V63.947ZM0.593262 102.972C11.0716 102.972 19.592 94.4451 19.592 83.9584C19.592 73.4717 11.0598 64.9327 0.593262 64.9327V102.972Z" fill="#13604E"/>
<path d="M265.364 103.471C276.132 103.471 284.861 94.7349 284.861 83.9584C284.861 73.1819 276.132 64.4458 265.364 64.4458C254.596 64.4458 245.867 73.1819 245.867 83.9584C245.867 94.7349 254.596 103.471 265.364 103.471Z" fill="#4DD3B8"/>
<path d="M245.381 83.9584C245.381 72.9254 254.352 63.947 265.376 63.947C276.401 63.947 285.372 72.9254 285.372 83.9584C285.372 94.9914 276.401 103.97 265.376 103.97C254.352 103.97 245.381 94.9914 245.381 83.9584ZM246.378 83.9584C246.378 94.4451 254.898 102.972 265.376 102.972C275.855 102.972 284.375 94.4451 284.375 83.9584C284.375 73.4717 275.855 64.9446 265.376 64.9446C254.898 64.9446 246.378 73.4717 246.378 83.9584Z" fill="#13604E"/>
<path d="M271.879 96.9629C279.056 96.9629 284.873 91.1406 284.873 83.9584C284.873 76.7763 279.056 70.954 271.879 70.954C264.703 70.954 258.885 76.7763 258.885 83.9584C258.885 91.1406 264.703 96.9629 271.879 96.9629Z" fill="#13604E"/>
<path d="M284.862 83.9585C295.63 83.9585 304.359 75.2224 304.359 64.4458C304.359 53.6693 295.63 44.9332 284.862 44.9332C274.094 44.9332 265.365 53.6693 265.365 64.4458C265.365 75.2224 274.094 83.9585 284.862 83.9585Z" fill="#4DD3B8"/>
<path d="M264.866 64.4459C264.866 53.4129 273.838 44.4344 284.862 44.4344C295.886 44.4344 304.857 53.4129 304.857 64.4459C304.857 75.4789 295.886 84.4573 284.862 84.4573C273.838 84.4573 264.866 75.4789 264.866 64.4459ZM265.863 64.4459C265.863 74.9326 274.383 83.4597 284.862 83.4597C295.34 83.4597 303.86 74.9326 303.86 64.4459C303.86 53.9592 295.34 45.4321 284.862 45.4321C274.383 45.4321 265.863 53.9592 265.863 64.4459Z" fill="#13604E"/>
<path d="M284.862 122.984C295.63 122.984 304.359 114.248 304.359 103.471C304.359 92.6946 295.63 83.9585 284.862 83.9585C274.094 83.9585 265.365 92.6946 265.365 103.471C265.365 114.248 274.094 122.984 284.862 122.984Z" fill="#4DD3B8"/>
<path d="M264.866 103.471C264.866 92.4381 273.838 83.4597 284.862 83.4597C295.886 83.4597 304.857 92.4381 304.857 103.471C304.857 114.504 295.886 123.483 284.862 123.483C273.838 123.483 264.866 114.504 264.866 103.471ZM265.863 103.471C265.863 113.958 274.383 122.485 284.862 122.485C295.34 122.485 303.86 113.958 303.86 103.471C303.86 92.9844 295.34 84.4573 284.862 84.4573C274.383 84.4573 265.863 92.9844 265.863 103.471Z" fill="#13604E"/>
<path d="M304.359 64.4459C304.359 64.4459 304.81 52.4153 291.376 51.4414C277.801 50.4557 274.573 60.8236 274.217 62.6525C273.79 64.8496 273.932 67.1061 275.914 70.2414C276.709 71.5003 278.608 74.2319 283.817 75.0157C283.817 75.0157 291.899 75.752 293.524 67.7356C293.524 67.7356 294.165 62.1775 288.908 61.1324C288.908 61.1324 287.33 60.883 286.665 61.5481C286.665 61.5481 285.526 62.8426 286.903 63.6858C287.816 64.244 289.81 64.0896 290.214 66.8211C290.593 69.3626 288.018 70.9184 286.689 71.3341C283.105 72.4623 280.637 71.726 278.632 69.6714C278.632 69.6714 274.965 66.6548 276.923 61.1918C279.415 54.2442 285.633 52.2134 291.341 52.6053C291.341 52.6053 303.504 52.9259 304.062 67.7356C304.062 67.7356 304.347 65.4791 304.335 64.4459H304.359Z" fill="#13604E"/>
<path d="M304.359 103.459C304.359 103.459 304.81 91.4287 291.376 90.4548C277.801 89.4691 274.573 99.837 274.217 101.666C273.79 103.863 273.932 106.12 275.914 109.255C276.709 110.514 278.608 113.245 283.817 114.029C283.817 114.029 291.899 114.765 293.524 106.749C293.524 106.749 294.165 101.191 288.908 100.146C288.908 100.146 287.33 99.8964 286.665 100.561C286.665 100.561 285.526 101.856 286.903 102.699C287.816 103.257 289.81 103.103 290.214 105.835C290.593 108.376 288.018 109.932 286.689 110.347C283.105 111.476 280.637 110.739 278.632 108.685C278.632 108.685 274.965 105.668 276.923 100.205C279.415 93.2576 285.633 91.2268 291.341 91.6187C291.341 91.6187 303.504 91.9394 304.062 106.749C304.062 106.749 304.347 104.493 304.335 103.459H304.359Z" fill="#13604E"/>
<path d="M304.359 64.4458C293.596 64.4458 284.862 73.1867 284.862 83.9584C284.862 94.7301 293.596 103.471 304.359 103.471V64.4458Z" fill="#4DD3B8"/>
<path d="M304.359 103.958C293.335 103.958 284.363 94.9796 284.363 83.9466C284.363 72.9136 293.335 63.9352 304.359 63.9352V103.958ZM304.359 64.9328C293.88 64.9328 285.36 73.4599 285.36 83.9466C285.36 94.4333 293.88 102.96 304.359 102.96V64.9328Z" fill="#13604E"/>
</g>
<path d="M12.4247 44.4344H292.576V123.566H12.4247V44.4344ZM12.4247 43.033C11.6534 43.033 11.0244 43.6624 11.0244 44.4344V123.566C11.0244 124.338 11.6534 124.967 12.4247 124.967H292.576C293.347 124.967 293.976 124.338 293.976 123.566V44.4344C293.976 43.6624 293.347 43.033 292.576 43.033H12.4247Z" fill="#0F594B"/>
</g>
<path d="M84.316 77.3438H73.0269V76.0742H84.316V77.3438ZM87.1285 89.0234H71.3082V87.7539H87.1285V89.0234ZM84.9996 77.9297C84.9996 78.8802 84.9898 79.7266 84.9703 80.4688C84.9508 81.2109 84.8922 82.0736 84.7945 83.0566C84.6969 84.0332 84.5504 85.0977 84.3551 86.25L82.7926 86.0938C83.0074 85.013 83.1637 83.9909 83.2613 83.0273C83.3655 82.0638 83.4306 81.2044 83.4566 80.4492C83.4827 79.6875 83.4957 78.8411 83.4957 77.9102V77.8125V76.0742H84.9996V77.8125V77.9297ZM102.988 84.8438H101.445V74.2383H102.988V84.8438ZM101.953 79.6875H98.1441V78.418H101.953V79.6875ZM102.988 91.6211H101.445V87.0703H91.2887V85.8398H102.988V91.6211ZM91.191 82.6562C92.6558 82.6562 93.9384 82.6204 95.0387 82.5488C96.1454 82.4772 97.2913 82.3438 98.4762 82.1484L98.6129 83.457C97.3173 83.6523 96.0673 83.7858 94.8629 83.8574C93.6584 83.9225 92.2522 83.9518 90.6441 83.9453H89.3355V82.6562H90.6441H91.191ZM97.0308 80.1172H90.859V83.5156H89.3355V78.8867H95.5465V76.5625H89.2965V75.293H97.0308V80.1172ZM120.273 91.6211H118.73V74.2188H120.273V91.6211ZM119.199 81.8164H114.921V80.5469H119.199V81.8164ZM111.601 79.375C111.595 80.5794 111.37 81.7676 110.927 82.9395C110.491 84.1048 109.895 85.1465 109.14 86.0645C108.392 86.9824 107.565 87.6758 106.66 88.1445L105.722 86.9531C106.556 86.5495 107.327 85.944 108.037 85.1367C108.746 84.3294 109.309 83.4212 109.726 82.4121C110.143 81.3965 110.351 80.3841 110.351 79.375V76.6797H111.601V79.375ZM111.894 79.375C111.894 80.319 112.102 81.276 112.519 82.2461C112.936 83.2096 113.496 84.0755 114.199 84.8438C114.902 85.612 115.67 86.1849 116.503 86.5625L115.586 87.793C114.674 87.3438 113.844 86.6797 113.095 85.8008C112.347 84.9154 111.754 83.9128 111.318 82.793C110.882 81.6667 110.664 80.5273 110.664 79.375V76.6797H111.894V79.375ZM115.878 77.2852H106.386V76.0156H115.878V77.2852ZM137.558 84.8438H136.015V74.2383H137.558V84.8438ZM136.523 79.6875H132.714V78.418H136.523V79.6875ZM137.558 91.6211H136.015V87.0703H125.859V85.8398H137.558V91.6211ZM125.761 82.6562C127.226 82.6562 128.509 82.6204 129.609 82.5488C130.716 82.4772 131.862 82.3438 133.046 82.1484L133.183 83.457C131.888 83.6523 130.638 83.7858 129.433 83.8574C128.229 83.9225 126.823 83.9518 125.214 83.9453H123.906V82.6562H125.214H125.761ZM131.601 80.1172H125.429V83.5156H123.906V78.8867H130.117V76.5625H123.867V75.293H131.601V80.1172ZM154.199 87.168H146.191V75.9766H154.199V87.168ZM147.675 85.918H152.675V77.207H147.675V85.918ZM158.906 91.582H157.382V74.2188H158.906V91.582ZM161.816 82.4805H158.554V81.1523H161.816V82.4805ZM170.664 74.6094C171.92 74.6094 173.007 74.7396 173.925 75C174.85 75.2604 175.559 75.6413 176.054 76.1426C176.549 76.6374 176.796 77.2266 176.796 77.9102C176.796 78.5872 176.549 79.1699 176.054 79.6582C175.559 80.1465 174.85 80.5176 173.925 80.7715C173.007 81.0254 171.92 81.1523 170.664 81.1523C169.407 81.1523 168.317 81.0254 167.392 80.7715C166.474 80.5176 165.765 80.1465 165.263 79.6582C164.762 79.1699 164.511 78.5872 164.511 77.9102C164.511 77.2266 164.762 76.6374 165.263 76.1426C165.765 75.6413 166.474 75.2604 167.392 75C168.317 74.7396 169.407 74.6094 170.664 74.6094ZM170.664 75.8398C169.733 75.8398 168.922 75.9212 168.232 76.084C167.548 76.2467 167.021 76.4844 166.65 76.7969C166.279 77.1094 166.093 77.4805 166.093 77.9102C166.093 78.3268 166.279 78.6849 166.65 78.9844C167.021 79.2839 167.548 79.5182 168.232 79.6875C168.922 79.8568 169.733 79.9414 170.664 79.9414C171.588 79.9414 172.395 79.8568 173.086 79.6875C173.776 79.5182 174.306 79.2839 174.677 78.9844C175.048 78.6849 175.234 78.3268 175.234 77.9102C175.234 77.4805 175.048 77.1094 174.677 76.7969C174.306 76.4844 173.776 76.2467 173.086 76.084C172.395 75.9212 171.588 75.8398 170.664 75.8398ZM176.64 91.3477H164.687V85.6445H176.64V91.3477ZM166.211 90.0977H175.136V86.875H166.211V90.0977ZM178.574 83.9258H162.753V82.6562H178.574V83.9258ZM190.488 82.2656H187.148V80.9961H190.488V82.2656ZM194.921 91.582H193.437V74.2188H194.921V91.582ZM191.425 90.7031H189.961V74.5898H191.425V90.7031ZM183.984 75.6836C184.733 75.6836 185.387 75.931 185.947 76.4258C186.513 76.9206 186.953 77.6237 187.265 78.5352C187.578 79.4401 187.734 80.5013 187.734 81.7188C187.734 82.9362 187.578 84.0007 187.265 84.9121C186.953 85.8171 186.513 86.5169 185.947 87.0117C185.387 87.5065 184.733 87.7539 183.984 87.7539C183.235 87.7539 182.581 87.5065 182.021 87.0117C181.468 86.5169 181.035 85.8171 180.722 84.9121C180.41 84.0007 180.253 82.9362 180.253 81.7188C180.253 80.5013 180.41 79.4401 180.722 78.5352C181.035 77.6237 181.468 76.9206 182.021 76.4258C182.581 75.931 183.235 75.6836 183.984 75.6836ZM183.984 77.1289C183.515 77.1289 183.108 77.3145 182.763 77.6855C182.418 78.0566 182.151 78.5905 181.962 79.2871C181.78 79.9772 181.692 80.7878 181.699 81.7188C181.692 82.6497 181.78 83.4603 181.962 84.1504C182.151 84.834 182.418 85.3646 182.763 85.7422C183.115 86.1133 183.522 86.2956 183.984 86.2891C184.453 86.2956 184.863 86.1133 185.214 85.7422C185.566 85.3646 185.833 84.834 186.015 84.1504C186.198 83.4603 186.289 82.6497 186.289 81.7188C186.289 80.7878 186.198 79.9772 186.015 79.2871C185.833 78.5905 185.566 78.0566 185.214 77.6855C184.863 77.3145 184.453 77.1289 183.984 77.1289ZM218.183 84.2383H202.343V82.9883H218.183V84.2383ZM216.367 81.0742H204.355V79.8047H216.367V81.0742ZM216.211 76.2305H205.878V80.2344H204.355V74.9805H216.211V76.2305ZM216.503 91.1914H204.394V89.9023H216.503V91.1914ZM205.918 90.2539H204.394V86.1133H205.918V90.2539ZM233.066 91.6211H231.543V74.2188H233.066V91.6211ZM235.976 82.3828H232.714V81.0938H235.976V82.3828ZM221.757 85.9766C223.463 85.9701 224.925 85.9245 226.142 85.8398C227.36 85.7487 228.6 85.5859 229.863 85.3516L230.058 86.6797C228.769 86.9141 227.506 87.0703 226.269 87.1484C225.039 87.2266 223.535 87.2656 221.757 87.2656H220.39V85.9766H221.757ZM228.496 77.1875H221.914V86.5625H220.39V75.918H228.496V77.1875Z" fill="white"/>
<path d="M16.9613 11.4448H13.7431V10.1602H16.9613V11.4448ZM14.1436 20.5746H12.6105V3.22652H14.1436V20.5746ZM2.94199 15.6713H1.42265V4.93923H2.94199V15.6713ZM2.80387 14.884C4.18508 14.884 5.53867 14.8241 6.86464 14.7044C8.19521 14.5801 9.55341 14.3729 10.9392 14.0829L11.1326 15.395C9.71455 15.6759 8.32643 15.8762 6.96823 15.9959C5.61464 16.111 4.22652 16.1685 2.80387 16.1685H1.42265V14.884H2.80387ZM19.8266 19.1105C19.601 19.1105 19.3892 19.0529 19.1912 18.9378C18.9979 18.8227 18.8436 18.6708 18.7285 18.482C18.618 18.2887 18.5651 18.0792 18.5697 17.8536C18.5651 17.628 18.618 17.4185 18.7285 17.2251C18.8436 17.0272 18.9979 16.8729 19.1912 16.7624C19.3892 16.6519 19.601 16.5967 19.8266 16.5967C20.0522 16.5967 20.2617 16.6519 20.455 16.7624C20.653 16.8729 20.8073 17.0272 20.9178 17.2251C21.0283 17.4185 21.0835 17.628 21.0835 17.8536C21.0835 18.0792 21.0283 18.2887 20.9178 18.482C20.8073 18.6708 20.653 18.8227 20.455 18.9378C20.2617 19.0529 20.0522 19.1105 19.8266 19.1105Z" fill="white"/>
<defs>
<clipPath id="clip0_498_436">
<rect width="305" height="104" fill="white" transform="translate(0 32)"/>
</clipPath>
</defs>
</svg>
