<svg width="305" height="136" viewBox="0 0 305 136" fill="none" xmlns="http://www.w3.org/2000/svg">
<g clip-path="url(#clip0_498_338)">
<path d="M1.41202 134.599L303.6 134.599V33.4014L1.41202 33.4014V134.599Z" fill="#4AE6CA"/>
<path d="M2.63443 33.4014H302.366C303.042 33.4014 303.6 33.9477 303.6 34.6365V133.363C303.6 134.04 303.054 134.599 302.366 134.599H2.63443C1.95802 134.599 1.40028 134.052 1.40028 133.363V34.6365C1.40028 33.9596 1.94615 33.4014 2.63443 33.4014ZM2.63443 32C1.17481 32 0 33.1757 0 34.6365V133.363C0 134.812 1.17481 136 2.63443 136H302.366C303.813 136 305 134.824 305 133.363V34.6365C305 33.1757 303.813 32 302.366 32H2.63443Z" fill="#0F594B"/>
<path d="M12.4247 123.566L292.576 123.566V44.4343L12.4247 44.4343V123.566Z" fill="#0F594B"/>
<mask id="mask0_498_338" style="mask-type:luminance" maskUnits="userSpaceOnUse" x="12" y="44" width="281" height="80">
<path d="M12.4242 123.566L292.575 123.566V44.4345L12.4242 44.4345V123.566Z" fill="white"/>
</mask>
<g mask="url(#mask0_498_338)">
<path d="M39.5752 103.471C50.3432 103.471 59.0724 94.7349 59.0724 83.9584C59.0724 73.1819 50.3432 64.4458 39.5752 64.4458C28.8073 64.4458 20.0781 73.1819 20.0781 83.9584C20.0781 94.7349 28.8073 103.471 39.5752 103.471Z" fill="#4DD3B8"/>
<path d="M39.5873 103.958C28.5631 103.958 19.5918 94.9796 19.5918 83.9466C19.5918 72.9136 28.5631 63.9352 39.5873 63.9352C50.6116 63.9352 59.5828 72.9136 59.5828 83.9466C59.5828 94.9796 50.6116 103.958 39.5873 103.958ZM39.5873 64.9328C29.109 64.9328 20.5886 73.4599 20.5886 83.9466C20.5886 94.4333 29.109 102.96 39.5873 102.96C50.0657 102.96 58.586 94.4333 58.586 83.9466C58.586 73.4599 50.0657 64.9328 39.5873 64.9328Z" fill="#13604E"/>
<path d="M33.0723 96.9629C40.2487 96.9629 46.0664 91.1406 46.0664 83.9584C46.0664 76.7763 40.2487 70.954 33.0723 70.954C25.8958 70.954 20.0781 76.7763 20.0781 83.9584C20.0781 91.1406 25.8958 96.9629 33.0723 96.9629Z" fill="#13604E"/>
<path d="M20.0904 83.9585C30.8583 83.9585 39.5875 75.2224 39.5875 64.4458C39.5875 53.6693 30.8583 44.9332 20.0904 44.9332C9.32242 44.9332 0.593262 53.6693 0.593262 64.4458C0.593262 75.2224 9.32242 83.9585 20.0904 83.9585Z" fill="#4DD3B8"/>
<path d="M20.0903 84.4454C9.06601 84.4454 0.0947266 75.4789 0.0947266 64.4459C0.0947266 53.4129 9.06601 44.4344 20.0903 44.4344C31.1145 44.4344 40.0858 53.4129 40.0858 64.4459C40.0858 75.4789 31.1145 84.4573 20.0903 84.4573V84.4454ZM20.0903 45.4202C9.61189 45.4321 1.09154 53.9592 1.09154 64.4459C1.09154 74.9326 9.61189 83.4597 20.0903 83.4597C30.5686 83.4597 39.089 74.9326 39.089 64.4459C39.089 53.9592 30.5686 45.4321 20.0903 45.4321V45.4202Z" fill="#13604E"/>
<path d="M20.0904 122.984C30.8583 122.984 39.5875 114.248 39.5875 103.471C39.5875 92.6946 30.8583 83.9585 20.0904 83.9585C9.32242 83.9585 0.593262 92.6946 0.593262 103.471C0.593262 114.248 9.32242 122.984 20.0904 122.984Z" fill="#4DD3B8"/>
<path d="M20.0903 123.471C9.06601 123.471 0.0947266 114.504 0.0947266 103.471C0.0947266 92.4381 9.06601 83.4597 20.0903 83.4597C31.1145 83.4597 40.0858 92.4381 40.0858 103.471C40.0858 114.504 31.1145 123.483 20.0903 123.483V123.471ZM20.0903 84.4454C9.61189 84.4454 1.09154 92.9844 1.09154 103.471C1.09154 113.958 9.61189 122.485 20.0903 122.485C30.5686 122.485 39.089 113.958 39.089 103.471C39.089 92.9844 30.5686 84.4573 20.0903 84.4573V84.4454Z" fill="#13604E"/>
<path d="M0.593229 64.4459C0.593229 64.4459 0.130424 52.4153 13.5755 51.4414C27.1511 50.4557 30.3788 60.8236 30.7349 62.6525C31.1621 64.8496 31.0197 67.1061 29.0379 70.2414C28.2428 71.5003 26.3441 74.2319 21.1346 75.0157C21.1346 75.0157 13.0534 75.752 11.4276 67.7356C11.4276 67.7356 10.7868 62.1775 16.0438 61.1324C16.0438 61.1324 17.6221 60.883 18.2866 61.5481C18.2866 61.5481 19.4258 62.8426 18.0493 63.6858C17.1355 64.244 15.1419 64.0896 14.7384 66.8211C14.3587 69.3626 16.9338 70.9184 18.2629 71.3341C21.8466 72.4623 24.3149 71.726 26.3204 69.6714C26.3204 69.6714 29.9872 66.6548 28.0292 61.1918C25.5372 54.2442 19.319 52.2134 13.6111 52.6053C13.6111 52.6053 1.44764 52.9259 0.889898 67.7356C0.889898 67.7356 0.605095 65.4791 0.616962 64.4459H0.593229Z" fill="#13604E"/>
<path d="M0.593093 103.459C0.593093 103.459 0.142155 91.4287 13.5754 90.4548C27.1509 89.4691 30.3787 99.837 30.7347 101.666C31.1619 103.863 31.0195 106.12 29.0378 109.255C28.2427 110.514 26.344 113.245 21.1345 114.029C21.1345 114.029 13.0532 114.765 11.4275 106.749C11.4275 106.749 10.7867 101.191 16.0436 100.146C16.0436 100.146 17.6219 99.8964 18.2865 100.561C18.2865 100.561 19.4257 101.856 18.0491 102.699C17.1354 103.257 15.1418 103.103 14.7383 105.835C14.3586 108.376 16.9337 109.932 18.2627 110.347C21.8465 111.476 24.3148 110.739 26.3203 108.685C26.3203 108.685 29.9871 105.668 28.0291 100.205C25.5371 93.2576 19.3189 91.2268 13.611 91.6187C13.611 91.6187 1.4475 91.9394 0.889763 106.749C0.889763 106.749 0.60496 104.493 0.616827 103.459H0.593093Z" fill="#13604E"/>
<path d="M0.593262 64.4458C11.3564 64.4458 20.0904 73.1867 20.0904 83.9584C20.0904 94.7301 11.3564 103.471 0.593262 103.471V64.4458Z" fill="#4DD3B8"/>
<path d="M0.593262 63.947C11.6175 63.947 20.5888 72.9254 20.5888 83.9584C20.5888 94.9914 11.6175 103.958 0.593262 103.958V63.947ZM0.593262 102.972C11.0716 102.972 19.592 94.4451 19.592 83.9584C19.592 73.4717 11.0598 64.9327 0.593262 64.9327V102.972Z" fill="#13604E"/>
<path d="M265.364 103.471C276.132 103.471 284.861 94.7349 284.861 83.9584C284.861 73.1819 276.132 64.4458 265.364 64.4458C254.596 64.4458 245.867 73.1819 245.867 83.9584C245.867 94.7349 254.596 103.471 265.364 103.471Z" fill="#4DD3B8"/>
<path d="M245.381 83.9584C245.381 72.9254 254.352 63.947 265.376 63.947C276.401 63.947 285.372 72.9254 285.372 83.9584C285.372 94.9914 276.401 103.97 265.376 103.97C254.352 103.97 245.381 94.9914 245.381 83.9584ZM246.378 83.9584C246.378 94.4451 254.898 102.972 265.376 102.972C275.855 102.972 284.375 94.4451 284.375 83.9584C284.375 73.4717 275.855 64.9446 265.376 64.9446C254.898 64.9446 246.378 73.4717 246.378 83.9584Z" fill="#13604E"/>
<path d="M271.879 96.9629C279.056 96.9629 284.873 91.1406 284.873 83.9584C284.873 76.7763 279.056 70.954 271.879 70.954C264.703 70.954 258.885 76.7763 258.885 83.9584C258.885 91.1406 264.703 96.9629 271.879 96.9629Z" fill="#13604E"/>
<path d="M284.862 83.9585C295.63 83.9585 304.359 75.2224 304.359 64.4458C304.359 53.6693 295.63 44.9332 284.862 44.9332C274.094 44.9332 265.365 53.6693 265.365 64.4458C265.365 75.2224 274.094 83.9585 284.862 83.9585Z" fill="#4DD3B8"/>
<path d="M264.866 64.4459C264.866 53.4129 273.838 44.4344 284.862 44.4344C295.886 44.4344 304.857 53.4129 304.857 64.4459C304.857 75.4789 295.886 84.4573 284.862 84.4573C273.838 84.4573 264.866 75.4789 264.866 64.4459ZM265.863 64.4459C265.863 74.9326 274.383 83.4597 284.862 83.4597C295.34 83.4597 303.86 74.9326 303.86 64.4459C303.86 53.9592 295.34 45.4321 284.862 45.4321C274.383 45.4321 265.863 53.9592 265.863 64.4459Z" fill="#13604E"/>
<path d="M284.862 122.984C295.63 122.984 304.359 114.248 304.359 103.471C304.359 92.6946 295.63 83.9585 284.862 83.9585C274.094 83.9585 265.365 92.6946 265.365 103.471C265.365 114.248 274.094 122.984 284.862 122.984Z" fill="#4DD3B8"/>
<path d="M264.866 103.471C264.866 92.4381 273.838 83.4597 284.862 83.4597C295.886 83.4597 304.857 92.4381 304.857 103.471C304.857 114.504 295.886 123.483 284.862 123.483C273.838 123.483 264.866 114.504 264.866 103.471ZM265.863 103.471C265.863 113.958 274.383 122.485 284.862 122.485C295.34 122.485 303.86 113.958 303.86 103.471C303.86 92.9844 295.34 84.4573 284.862 84.4573C274.383 84.4573 265.863 92.9844 265.863 103.471Z" fill="#13604E"/>
<path d="M304.359 64.4459C304.359 64.4459 304.81 52.4153 291.376 51.4414C277.801 50.4557 274.573 60.8236 274.217 62.6525C273.79 64.8496 273.932 67.1061 275.914 70.2414C276.709 71.5003 278.608 74.2319 283.817 75.0157C283.817 75.0157 291.899 75.752 293.524 67.7356C293.524 67.7356 294.165 62.1775 288.908 61.1324C288.908 61.1324 287.33 60.883 286.665 61.5481C286.665 61.5481 285.526 62.8426 286.903 63.6858C287.816 64.244 289.81 64.0896 290.214 66.8211C290.593 69.3626 288.018 70.9184 286.689 71.3341C283.105 72.4623 280.637 71.726 278.632 69.6714C278.632 69.6714 274.965 66.6548 276.923 61.1918C279.415 54.2442 285.633 52.2134 291.341 52.6053C291.341 52.6053 303.504 52.9259 304.062 67.7356C304.062 67.7356 304.347 65.4791 304.335 64.4459H304.359Z" fill="#13604E"/>
<path d="M304.359 103.459C304.359 103.459 304.81 91.4287 291.376 90.4548C277.801 89.4691 274.573 99.837 274.217 101.666C273.79 103.863 273.932 106.12 275.914 109.255C276.709 110.514 278.608 113.245 283.817 114.029C283.817 114.029 291.899 114.765 293.524 106.749C293.524 106.749 294.165 101.191 288.908 100.146C288.908 100.146 287.33 99.8964 286.665 100.561C286.665 100.561 285.526 101.856 286.903 102.699C287.816 103.257 289.81 103.103 290.214 105.835C290.593 108.376 288.018 109.932 286.689 110.347C283.105 111.476 280.637 110.739 278.632 108.685C278.632 108.685 274.965 105.668 276.923 100.205C279.415 93.2576 285.633 91.2268 291.341 91.6187C291.341 91.6187 303.504 91.9394 304.062 106.749C304.062 106.749 304.347 104.493 304.335 103.459H304.359Z" fill="#13604E"/>
<path d="M304.359 64.4458C293.596 64.4458 284.862 73.1867 284.862 83.9584C284.862 94.7301 293.596 103.471 304.359 103.471V64.4458Z" fill="#4DD3B8"/>
<path d="M304.359 103.958C293.335 103.958 284.363 94.9796 284.363 83.9466C284.363 72.9136 293.335 63.9352 304.359 63.9352V103.958ZM304.359 64.9328C293.88 64.9328 285.36 73.4599 285.36 83.9466C285.36 94.4333 293.88 102.96 304.359 102.96V64.9328Z" fill="#13604E"/>
</g>
<path d="M12.4247 44.4344H292.576V123.566H12.4247V44.4344ZM12.4247 43.033C11.6534 43.033 11.0244 43.6624 11.0244 44.4344V123.566C11.0244 124.338 11.6534 124.967 12.4247 124.967H292.576C293.347 124.967 293.976 124.338 293.976 123.566V44.4344C293.976 43.6624 293.347 43.033 292.576 43.033H12.4247Z" fill="#0F594B"/>
</g>
<path d="M109.517 62.5664C110.357 62.5664 111.106 62.8138 111.763 63.3086C112.427 63.8034 112.942 64.5098 113.306 65.4277C113.671 66.3457 113.853 67.4102 113.853 68.6211C113.853 69.8385 113.671 70.903 113.306 71.8145C112.942 72.7194 112.427 73.4193 111.763 73.9141C111.106 74.4089 110.357 74.6562 109.517 74.6562C108.664 74.6562 107.906 74.4089 107.242 73.9141C106.584 73.4193 106.073 72.7194 105.709 71.8145C105.344 70.903 105.162 69.8385 105.162 68.6211C105.162 67.4102 105.344 66.3457 105.709 65.4277C106.073 64.5098 106.584 63.8034 107.242 63.3086C107.906 62.8138 108.664 62.5664 109.517 62.5664ZM109.517 63.9336C108.951 63.9336 108.449 64.1289 108.013 64.5195C107.584 64.9102 107.245 65.4603 106.998 66.1699C106.75 66.873 106.627 67.6901 106.627 68.6211C106.627 69.5521 106.75 70.3724 106.998 71.082C107.245 71.7852 107.584 72.3288 108.013 72.7129C108.449 73.097 108.951 73.2891 109.517 73.2891C110.077 73.2891 110.578 73.097 111.021 72.7129C111.464 72.3288 111.806 71.7819 112.046 71.0723C112.287 70.3626 112.408 69.5456 112.408 68.6211C112.408 67.6966 112.287 66.8796 112.046 66.1699C111.806 65.4603 111.464 64.9102 111.021 64.5195C110.578 64.1289 110.077 63.9336 109.517 63.9336ZM119.244 78.6211H117.72V61.2188H119.244V78.6211ZM118.404 69.1289H113.345V67.8594H118.404V69.1289ZM136.529 70.9453H134.986V61.2383H136.529V70.9453ZM135.357 64.7539H131.529V63.4844H135.357V64.7539ZM124.107 69.1289C126.067 69.1159 127.525 69.0866 128.482 69.041C129.439 68.9954 130.416 68.888 131.412 68.7188L131.548 69.9883C130.52 70.1641 129.501 70.278 128.492 70.3301C127.489 70.3757 126.028 70.4049 124.107 70.418H122.877V69.1289H124.107ZM130.377 66.707H124.4V70.1836H122.877V65.5156H128.853V63.2891H122.837V62.0195H130.377V66.707ZM135.357 68.1133H131.529V66.8633H135.357V68.1133ZM126.744 73.6797H135.005V71.6484H136.529V78.3477H125.201V71.6484H126.744V73.6797ZM135.005 77.0977V74.9102H126.744V77.0977H135.005ZM145.357 66.5508C145.357 67.7487 145.129 68.9303 144.673 70.0957C144.218 71.2611 143.606 72.2962 142.837 73.2012C142.076 74.1061 141.242 74.7865 140.337 75.2422L139.42 74.0312C140.246 73.6341 141.015 73.0352 141.724 72.2344C142.44 71.4271 143.013 70.5221 143.443 69.5195C143.873 68.5169 144.087 67.5273 144.087 66.5508V63.6797H145.357V66.5508ZM145.63 66.5508C145.63 67.5078 145.845 68.4616 146.275 69.4121C146.705 70.3561 147.278 71.1992 147.994 71.9414C148.71 72.6836 149.491 73.237 150.337 73.6016L149.478 74.8125C148.534 74.3828 147.675 73.7448 146.9 72.8984C146.132 72.0521 145.52 71.0788 145.064 69.9785C144.615 68.8717 144.393 67.7292 144.4 66.5508V63.6797H145.63V66.5508ZM149.771 64.2852H139.986V63.0156H149.771V64.2852ZM153.736 78.582H152.193V61.2188H153.736V78.582ZM166.568 62.2148C167.427 62.2148 168.199 62.3841 168.882 62.7227C169.566 63.0612 170.103 63.5365 170.494 64.1484C170.884 64.7604 171.08 65.4505 171.08 66.2188C171.08 67 170.884 67.6934 170.494 68.2988C170.103 68.9043 169.566 69.3796 168.882 69.7246C168.199 70.0697 167.427 70.2422 166.568 70.2422C165.709 70.2422 164.937 70.0697 164.253 69.7246C163.57 69.3796 163.033 68.9043 162.642 68.2988C162.252 67.6868 162.056 66.9935 162.056 66.2188C162.056 65.4505 162.252 64.7604 162.642 64.1484C163.033 63.5365 163.57 63.0612 164.253 62.7227C164.944 62.3841 165.715 62.2148 166.568 62.2148ZM166.568 63.5039C166.008 63.5039 165.497 63.6211 165.035 63.8555C164.573 64.0898 164.211 64.4154 163.951 64.832C163.69 65.2422 163.56 65.7044 163.56 66.2188C163.56 66.7396 163.69 67.2083 163.951 67.625C164.211 68.0417 164.569 68.3704 165.025 68.6113C165.487 68.8522 166.002 68.9727 166.568 68.9727C167.134 68.9727 167.645 68.8522 168.101 68.6113C168.563 68.3704 168.925 68.0417 169.185 67.625C169.446 67.2083 169.576 66.7396 169.576 66.2188C169.576 65.7044 169.446 65.2422 169.185 64.832C168.925 64.4154 168.563 64.0898 168.101 63.8555C167.645 63.6211 167.134 63.5039 166.568 63.5039ZM175.298 69.9102H173.775V61.2188H175.298V69.9102ZM177.916 66.4141H174.634V65.1445H177.916V66.4141ZM164.4 76.8633C165.051 76.8633 165.748 76.821 166.49 76.7363C167.239 76.6452 167.955 76.4857 168.638 76.2578L168.873 77.4883C168.117 77.7357 167.362 77.9017 166.607 77.9863C165.852 78.0775 165.116 78.1198 164.4 78.1133H163.58V76.8633H164.4ZM165.064 77.332H163.58V71.7852H165.064V77.332ZM177.037 73.0547H168.267V71.8633H177.037V73.0547ZM172.642 73.6406C173.274 73.6406 173.834 73.7415 174.322 73.9434C174.817 74.1452 175.201 74.4316 175.474 74.8027C175.754 75.1738 175.897 75.6068 175.904 76.1016C175.897 76.5964 175.754 77.026 175.474 77.3906C175.201 77.7552 174.817 78.0384 174.322 78.2402C173.834 78.4421 173.274 78.543 172.642 78.543C172.004 78.543 171.441 78.4421 170.953 78.2402C170.464 78.0384 170.087 77.7552 169.82 77.3906C169.553 77.026 169.42 76.5964 169.42 76.1016C169.42 75.6068 169.553 75.1738 169.82 74.8027C170.087 74.4316 170.464 74.1452 170.953 73.9434C171.441 73.7415 172.004 73.6406 172.642 73.6406ZM172.642 74.7539C172.284 74.7539 171.962 74.8092 171.675 74.9199C171.395 75.0306 171.177 75.1901 171.021 75.3984C170.865 75.6068 170.787 75.8411 170.787 76.1016C170.787 76.3685 170.865 76.6029 171.021 76.8047C171.177 77 171.395 77.1562 171.675 77.2734C171.962 77.3906 172.284 77.4492 172.642 77.4492C173 77.4492 173.319 77.3906 173.599 77.2734C173.886 77.1562 174.107 77 174.263 76.8047C174.42 76.6029 174.498 76.3685 174.498 76.1016C174.498 75.8411 174.42 75.6068 174.263 75.3984C174.107 75.1901 173.886 75.0306 173.599 74.9199C173.319 74.8092 173 74.7539 172.642 74.7539ZM173.423 72.7812H171.92V70.3203H173.423V72.7812ZM192.447 78.6211H190.923V61.2188H192.447V78.6211ZM195.357 69.3828H192.095V68.0938H195.357V69.3828ZM181.138 72.9766C182.844 72.9701 184.306 72.9245 185.523 72.8398C186.74 72.7487 187.981 72.5859 189.244 72.3516L189.439 73.6797C188.15 73.9141 186.887 74.0703 185.65 74.1484C184.42 74.2266 182.916 74.2656 181.138 74.2656H179.771V72.9766H181.138ZM187.877 64.1875H181.295V73.5625H179.771V62.918H187.877V64.1875ZM198.13 77.1172C197.903 77.1172 197.691 77.0586 197.496 76.9414C197.307 76.8242 197.154 76.6712 197.037 76.4824C196.926 76.2871 196.874 76.0755 196.88 75.8477C196.874 75.6263 196.926 75.418 197.037 75.2227C197.154 75.0273 197.307 74.8743 197.496 74.7637C197.691 74.653 197.903 74.5977 198.13 74.5977C198.358 74.5977 198.567 74.653 198.755 74.7637C198.951 74.8743 199.104 75.0273 199.214 75.2227C199.325 75.418 199.38 75.6263 199.38 75.8477C199.38 76.0755 199.325 76.2871 199.214 76.4824C199.104 76.6712 198.951 76.8242 198.755 76.9414C198.567 77.0586 198.358 77.1172 198.13 77.1172ZM101.851 93.9766H89.0191V92.7656H101.851V93.9766ZM101.793 98.5273H89.0777V97.3359H101.793V98.5273ZM93.2183 98.1367H91.6949V93.2148H93.2183V98.1367ZM99.1754 98.1367H97.6519V93.2148H99.1754V98.1367ZM103.355 101.223H87.5347V99.9922H103.355V101.223ZM101.324 106.555H91.0113V108.684H89.4879V105.441H99.8199V103.938H89.4488V102.785H101.324V106.555ZM101.851 109.387H89.4879V108.215H101.851V109.387ZM119.566 105.168H118.101V92.2383H119.566V105.168ZM118.57 98.7227H115.23V97.4336H118.57V98.7227ZM115.66 104.66H114.234V92.5703H115.66V104.66ZM120.093 109.211H108.179V107.922H120.093V109.211ZM109.703 108.391H108.179V103.977H109.703V108.391ZM106.753 101.32C108.095 101.314 109.25 101.275 110.22 101.203C111.19 101.132 112.183 100.995 113.199 100.793L113.375 102.023C112.3 102.232 111.262 102.375 110.259 102.453C109.263 102.525 108.095 102.557 106.753 102.551H105.621V101.32H106.753ZM112.164 98.6836H107.105V101.965H105.621V97.4727H110.699V94.9727H105.582V93.7227H112.164V98.6836ZM132.691 100.09H129.39V98.8203H132.691V100.09ZM123.882 104.152C125.302 104.139 126.464 104.104 127.369 104.045C128.274 103.98 129.201 103.859 130.152 103.684L130.289 104.934C129.351 105.122 128.43 105.246 127.525 105.305C126.627 105.363 125.412 105.396 123.882 105.402H122.789V104.152H123.882ZM129.253 95.5781H124.253V104.562H122.789V94.3477H129.253V95.5781ZM128.453 100.246H123.785V99.0156H128.453V100.246ZM136.968 109.582H135.484V92.2188H136.968V109.582ZM133.414 108.684H131.949V92.6484H133.414V108.684ZM153.726 109.621H152.203V92.2188H153.726V109.621ZM141.851 104.113C143.427 104.12 144.892 104.077 146.246 103.986C147.606 103.895 149.032 103.729 150.523 103.488L150.679 104.777C149.169 105.012 147.724 105.174 146.343 105.266C144.963 105.357 143.466 105.402 141.851 105.402H140.406V104.113H141.851ZM148.453 100.012H141.968V104.602H140.406V98.7617H146.91V95.1094H140.367V93.8398H148.453V100.012ZM161.343 93.5664C162.183 93.5664 162.932 93.8138 163.589 94.3086C164.253 94.8034 164.768 95.5098 165.132 96.4277C165.497 97.3457 165.679 98.4102 165.679 99.6211C165.679 100.839 165.497 101.903 165.132 102.814C164.768 103.719 164.253 104.419 163.589 104.914C162.932 105.409 162.183 105.656 161.343 105.656C160.49 105.656 159.732 105.409 159.068 104.914C158.41 104.419 157.899 103.719 157.535 102.814C157.17 101.903 156.988 100.839 156.988 99.6211C156.988 98.4102 157.17 97.3457 157.535 96.4277C157.899 95.5098 158.41 94.8034 159.068 94.3086C159.732 93.8138 160.49 93.5664 161.343 93.5664ZM161.343 94.9336C160.777 94.9336 160.276 95.1289 159.839 95.5195C159.41 95.9102 159.071 96.4603 158.824 97.1699C158.576 97.873 158.453 98.6901 158.453 99.6211C158.453 100.552 158.576 101.372 158.824 102.082C159.071 102.785 159.41 103.329 159.839 103.713C160.276 104.097 160.777 104.289 161.343 104.289C161.903 104.289 162.405 104.097 162.847 103.713C163.29 103.329 163.632 102.782 163.873 102.072C164.114 101.363 164.234 100.546 164.234 99.6211C164.234 98.6966 164.114 97.8796 163.873 97.1699C163.632 96.4603 163.29 95.9102 162.847 95.5195C162.405 95.1289 161.903 94.9336 161.343 94.9336ZM171.07 109.621H169.546V92.2188H171.07V109.621ZM170.23 100.129H165.171V98.8594H170.23V100.129ZM185.562 105.188H184.058V101.379H185.562V105.188ZM185.269 95.6953C185.263 96.6849 185.051 97.5996 184.634 98.4395C184.224 99.2793 183.648 100.002 182.906 100.607C182.17 101.206 181.317 101.652 180.347 101.945L179.605 100.773C180.471 100.513 181.236 100.132 181.9 99.6309C182.571 99.1296 183.091 98.5436 183.462 97.873C183.834 97.196 184.019 96.4701 184.019 95.6953V95.2852H185.269V95.6953ZM185.562 95.6953C185.562 96.4375 185.754 97.1341 186.138 97.7852C186.522 98.4362 187.05 99.0026 187.72 99.4844C188.397 99.9661 189.169 100.331 190.035 100.578L189.312 101.789C188.329 101.49 187.46 101.044 186.705 100.451C185.956 99.8587 185.37 99.1556 184.947 98.3418C184.524 97.528 184.312 96.6458 184.312 95.6953V95.2852H185.562V95.6953ZM189.644 95.7734H180.035V94.5039H189.644V95.7734ZM185.562 95.0703H184.058V92.3555H185.562V95.0703ZM193.218 109.621H191.695V92.2188H193.218V109.621ZM179.371 104.719C181.649 104.706 183.671 104.663 185.435 104.592C187.206 104.52 188.908 104.361 190.543 104.113L190.66 105.246C189.429 105.467 188.153 105.633 186.832 105.744C185.517 105.855 184.27 105.926 183.091 105.959C181.913 105.985 180.647 105.995 179.293 105.988L179.078 104.719H179.371ZM209.234 95.2461H197.945V93.9766H209.234V95.2461ZM212.086 107.121H196.265V105.852H212.086V107.121ZM203.98 106.516H202.476V99.6406H203.98V106.516ZM210.191 95.9297C210.178 97.3685 210.132 98.6543 210.054 99.7871C209.983 100.92 209.813 102.232 209.546 103.723L207.984 103.547C208.186 102.544 208.332 101.594 208.423 100.695C208.521 99.7969 208.58 99.0156 208.599 98.3516C208.625 97.681 208.642 96.8411 208.648 95.832V95.7148V93.9766H210.191V95.7148V95.9297ZM216.226 104.016H214.586L214.449 93.8594H216.363L216.226 104.016ZM215.406 108.117C215.178 108.117 214.966 108.059 214.771 107.941C214.582 107.824 214.429 107.671 214.312 107.482C214.201 107.287 214.149 107.076 214.156 106.848C214.149 106.626 214.201 106.418 214.312 106.223C214.429 106.027 214.582 105.874 214.771 105.764C214.966 105.653 215.178 105.598 215.406 105.598C215.634 105.598 215.842 105.653 216.031 105.764C216.226 105.874 216.379 106.027 216.49 106.223C216.6 106.418 216.656 106.626 216.656 106.848C216.656 107.076 216.6 107.287 216.49 107.482C216.379 107.671 216.226 107.824 216.031 107.941C215.842 108.059 215.634 108.117 215.406 108.117Z" fill="white"/>
<path d="M14.1436 20.5746H12.6105V3.22652H14.1436V20.5746ZM16.9613 11.5829H13.7431V10.2845H16.9613V11.5829ZM9.6547 5.09116C9.65009 6.78085 9.36925 8.37615 8.81216 9.87707C8.25967 11.3734 7.3895 12.7546 6.20166 14.0207C5.01842 15.2822 3.50829 16.3665 1.67127 17.2735L0.814917 16.0718C2.42634 15.2707 3.77762 14.3292 4.86878 13.2472C5.95995 12.1653 6.77716 10.9613 7.32044 9.63536C7.86372 8.30939 8.13536 6.87753 8.13536 5.33978V5.09116H9.6547ZM8.92265 6.37569H1.62983V5.09116H8.92265V6.37569ZM19.8266 19.1105C19.601 19.1105 19.3892 19.0529 19.1912 18.9378C18.9979 18.8227 18.8436 18.6708 18.7285 18.482C18.618 18.2887 18.5651 18.0792 18.5697 17.8536C18.5651 17.628 18.618 17.4185 18.7285 17.2251C18.8436 17.0272 18.9979 16.8729 19.1912 16.7624C19.3892 16.6519 19.601 16.5967 19.8266 16.5967C20.0522 16.5967 20.2617 16.6519 20.455 16.7624C20.653 16.8729 20.8073 17.0272 20.9178 17.2251C21.0283 17.4185 21.0835 17.628 21.0835 17.8536C21.0835 18.0792 21.0283 18.2887 20.9178 18.482C20.8073 18.6708 20.653 18.8227 20.455 18.9378C20.2617 19.0529 20.0522 19.1105 19.8266 19.1105Z" fill="white"/>
<defs>
<clipPath id="clip0_498_338">
<rect width="305" height="104" fill="white" transform="translate(0 32)"/>
</clipPath>
</defs>
</svg>
