<svg width="305" height="136" viewBox="0 0 305 136" fill="none" xmlns="http://www.w3.org/2000/svg">
<g clip-path="url(#clip0_498_387)">
<path d="M1.41202 134.599L303.6 134.599V33.4014L1.41202 33.4014V134.599Z" fill="#4AE6CA"/>
<path d="M2.63443 33.4014H302.366C303.042 33.4014 303.6 33.9477 303.6 34.6365V133.363C303.6 134.04 303.054 134.599 302.366 134.599H2.63443C1.95802 134.599 1.40028 134.052 1.40028 133.363V34.6365C1.40028 33.9596 1.94615 33.4014 2.63443 33.4014ZM2.63443 32C1.17481 32 0 33.1757 0 34.6365V133.363C0 134.812 1.17481 136 2.63443 136H302.366C303.813 136 305 134.824 305 133.363V34.6365C305 33.1757 303.813 32 302.366 32H2.63443Z" fill="#0F594B"/>
<path d="M12.4247 123.566L292.576 123.566V44.4343L12.4247 44.4343V123.566Z" fill="#0F594B"/>
<mask id="mask0_498_387" style="mask-type:luminance" maskUnits="userSpaceOnUse" x="12" y="44" width="281" height="80">
<path d="M12.4242 123.566L292.575 123.566V44.4345L12.4242 44.4345V123.566Z" fill="white"/>
</mask>
<g mask="url(#mask0_498_387)">
<path d="M39.5752 103.471C50.3432 103.471 59.0724 94.7349 59.0724 83.9584C59.0724 73.1819 50.3432 64.4458 39.5752 64.4458C28.8073 64.4458 20.0781 73.1819 20.0781 83.9584C20.0781 94.7349 28.8073 103.471 39.5752 103.471Z" fill="#4DD3B8"/>
<path d="M39.5873 103.958C28.5631 103.958 19.5918 94.9796 19.5918 83.9466C19.5918 72.9136 28.5631 63.9352 39.5873 63.9352C50.6116 63.9352 59.5828 72.9136 59.5828 83.9466C59.5828 94.9796 50.6116 103.958 39.5873 103.958ZM39.5873 64.9328C29.109 64.9328 20.5886 73.4599 20.5886 83.9466C20.5886 94.4333 29.109 102.96 39.5873 102.96C50.0657 102.96 58.586 94.4333 58.586 83.9466C58.586 73.4599 50.0657 64.9328 39.5873 64.9328Z" fill="#13604E"/>
<path d="M33.0723 96.9629C40.2487 96.9629 46.0664 91.1406 46.0664 83.9584C46.0664 76.7763 40.2487 70.954 33.0723 70.954C25.8958 70.954 20.0781 76.7763 20.0781 83.9584C20.0781 91.1406 25.8958 96.9629 33.0723 96.9629Z" fill="#13604E"/>
<path d="M20.0904 83.9585C30.8583 83.9585 39.5875 75.2224 39.5875 64.4458C39.5875 53.6693 30.8583 44.9332 20.0904 44.9332C9.32242 44.9332 0.593262 53.6693 0.593262 64.4458C0.593262 75.2224 9.32242 83.9585 20.0904 83.9585Z" fill="#4DD3B8"/>
<path d="M20.0903 84.4454C9.06601 84.4454 0.0947266 75.4789 0.0947266 64.4459C0.0947266 53.4129 9.06601 44.4344 20.0903 44.4344C31.1145 44.4344 40.0858 53.4129 40.0858 64.4459C40.0858 75.4789 31.1145 84.4573 20.0903 84.4573V84.4454ZM20.0903 45.4202C9.61189 45.4321 1.09154 53.9592 1.09154 64.4459C1.09154 74.9326 9.61189 83.4597 20.0903 83.4597C30.5686 83.4597 39.089 74.9326 39.089 64.4459C39.089 53.9592 30.5686 45.4321 20.0903 45.4321V45.4202Z" fill="#13604E"/>
<path d="M20.0904 122.984C30.8583 122.984 39.5875 114.248 39.5875 103.471C39.5875 92.6946 30.8583 83.9585 20.0904 83.9585C9.32242 83.9585 0.593262 92.6946 0.593262 103.471C0.593262 114.248 9.32242 122.984 20.0904 122.984Z" fill="#4DD3B8"/>
<path d="M20.0903 123.471C9.06601 123.471 0.0947266 114.504 0.0947266 103.471C0.0947266 92.4381 9.06601 83.4597 20.0903 83.4597C31.1145 83.4597 40.0858 92.4381 40.0858 103.471C40.0858 114.504 31.1145 123.483 20.0903 123.483V123.471ZM20.0903 84.4454C9.61189 84.4454 1.09154 92.9844 1.09154 103.471C1.09154 113.958 9.61189 122.485 20.0903 122.485C30.5686 122.485 39.089 113.958 39.089 103.471C39.089 92.9844 30.5686 84.4573 20.0903 84.4573V84.4454Z" fill="#13604E"/>
<path d="M0.593229 64.4459C0.593229 64.4459 0.130424 52.4153 13.5755 51.4414C27.1511 50.4557 30.3788 60.8236 30.7349 62.6525C31.1621 64.8496 31.0197 67.1061 29.0379 70.2414C28.2428 71.5003 26.3441 74.2319 21.1346 75.0157C21.1346 75.0157 13.0534 75.752 11.4276 67.7356C11.4276 67.7356 10.7868 62.1775 16.0438 61.1324C16.0438 61.1324 17.6221 60.883 18.2866 61.5481C18.2866 61.5481 19.4258 62.8426 18.0493 63.6858C17.1355 64.244 15.1419 64.0896 14.7384 66.8211C14.3587 69.3626 16.9338 70.9184 18.2629 71.3341C21.8466 72.4623 24.3149 71.726 26.3204 69.6714C26.3204 69.6714 29.9872 66.6548 28.0292 61.1918C25.5372 54.2442 19.319 52.2134 13.6111 52.6053C13.6111 52.6053 1.44764 52.9259 0.889898 67.7356C0.889898 67.7356 0.605095 65.4791 0.616962 64.4459H0.593229Z" fill="#13604E"/>
<path d="M0.593093 103.459C0.593093 103.459 0.142155 91.4287 13.5754 90.4548C27.1509 89.4691 30.3787 99.837 30.7347 101.666C31.1619 103.863 31.0195 106.12 29.0378 109.255C28.2427 110.514 26.344 113.245 21.1345 114.029C21.1345 114.029 13.0532 114.765 11.4275 106.749C11.4275 106.749 10.7867 101.191 16.0436 100.146C16.0436 100.146 17.6219 99.8964 18.2865 100.561C18.2865 100.561 19.4257 101.856 18.0491 102.699C17.1354 103.257 15.1418 103.103 14.7383 105.835C14.3586 108.376 16.9337 109.932 18.2627 110.347C21.8465 111.476 24.3148 110.739 26.3203 108.685C26.3203 108.685 29.9871 105.668 28.0291 100.205C25.5371 93.2576 19.3189 91.2268 13.611 91.6187C13.611 91.6187 1.4475 91.9394 0.889763 106.749C0.889763 106.749 0.60496 104.493 0.616827 103.459H0.593093Z" fill="#13604E"/>
<path d="M0.593262 64.4458C11.3564 64.4458 20.0904 73.1867 20.0904 83.9584C20.0904 94.7301 11.3564 103.471 0.593262 103.471V64.4458Z" fill="#4DD3B8"/>
<path d="M0.593262 63.947C11.6175 63.947 20.5888 72.9254 20.5888 83.9584C20.5888 94.9914 11.6175 103.958 0.593262 103.958V63.947ZM0.593262 102.972C11.0716 102.972 19.592 94.4451 19.592 83.9584C19.592 73.4717 11.0598 64.9327 0.593262 64.9327V102.972Z" fill="#13604E"/>
<path d="M265.364 103.471C276.132 103.471 284.861 94.7349 284.861 83.9584C284.861 73.1819 276.132 64.4458 265.364 64.4458C254.596 64.4458 245.867 73.1819 245.867 83.9584C245.867 94.7349 254.596 103.471 265.364 103.471Z" fill="#4DD3B8"/>
<path d="M245.381 83.9584C245.381 72.9254 254.352 63.947 265.376 63.947C276.401 63.947 285.372 72.9254 285.372 83.9584C285.372 94.9914 276.401 103.97 265.376 103.97C254.352 103.97 245.381 94.9914 245.381 83.9584ZM246.378 83.9584C246.378 94.4451 254.898 102.972 265.376 102.972C275.855 102.972 284.375 94.4451 284.375 83.9584C284.375 73.4717 275.855 64.9446 265.376 64.9446C254.898 64.9446 246.378 73.4717 246.378 83.9584Z" fill="#13604E"/>
<path d="M271.879 96.9629C279.056 96.9629 284.873 91.1406 284.873 83.9584C284.873 76.7763 279.056 70.954 271.879 70.954C264.703 70.954 258.885 76.7763 258.885 83.9584C258.885 91.1406 264.703 96.9629 271.879 96.9629Z" fill="#13604E"/>
<path d="M284.862 83.9585C295.63 83.9585 304.359 75.2224 304.359 64.4458C304.359 53.6693 295.63 44.9332 284.862 44.9332C274.094 44.9332 265.365 53.6693 265.365 64.4458C265.365 75.2224 274.094 83.9585 284.862 83.9585Z" fill="#4DD3B8"/>
<path d="M264.866 64.4459C264.866 53.4129 273.838 44.4344 284.862 44.4344C295.886 44.4344 304.857 53.4129 304.857 64.4459C304.857 75.4789 295.886 84.4573 284.862 84.4573C273.838 84.4573 264.866 75.4789 264.866 64.4459ZM265.863 64.4459C265.863 74.9326 274.383 83.4597 284.862 83.4597C295.34 83.4597 303.86 74.9326 303.86 64.4459C303.86 53.9592 295.34 45.4321 284.862 45.4321C274.383 45.4321 265.863 53.9592 265.863 64.4459Z" fill="#13604E"/>
<path d="M284.862 122.984C295.63 122.984 304.359 114.248 304.359 103.471C304.359 92.6946 295.63 83.9585 284.862 83.9585C274.094 83.9585 265.365 92.6946 265.365 103.471C265.365 114.248 274.094 122.984 284.862 122.984Z" fill="#4DD3B8"/>
<path d="M264.866 103.471C264.866 92.4381 273.838 83.4597 284.862 83.4597C295.886 83.4597 304.857 92.4381 304.857 103.471C304.857 114.504 295.886 123.483 284.862 123.483C273.838 123.483 264.866 114.504 264.866 103.471ZM265.863 103.471C265.863 113.958 274.383 122.485 284.862 122.485C295.34 122.485 303.86 113.958 303.86 103.471C303.86 92.9844 295.34 84.4573 284.862 84.4573C274.383 84.4573 265.863 92.9844 265.863 103.471Z" fill="#13604E"/>
<path d="M304.359 64.4459C304.359 64.4459 304.81 52.4153 291.376 51.4414C277.801 50.4557 274.573 60.8236 274.217 62.6525C273.79 64.8496 273.932 67.1061 275.914 70.2414C276.709 71.5003 278.608 74.2319 283.817 75.0157C283.817 75.0157 291.899 75.752 293.524 67.7356C293.524 67.7356 294.165 62.1775 288.908 61.1324C288.908 61.1324 287.33 60.883 286.665 61.5481C286.665 61.5481 285.526 62.8426 286.903 63.6858C287.816 64.244 289.81 64.0896 290.214 66.8211C290.593 69.3626 288.018 70.9184 286.689 71.3341C283.105 72.4623 280.637 71.726 278.632 69.6714C278.632 69.6714 274.965 66.6548 276.923 61.1918C279.415 54.2442 285.633 52.2134 291.341 52.6053C291.341 52.6053 303.504 52.9259 304.062 67.7356C304.062 67.7356 304.347 65.4791 304.335 64.4459H304.359Z" fill="#13604E"/>
<path d="M304.359 103.459C304.359 103.459 304.81 91.4287 291.376 90.4548C277.801 89.4691 274.573 99.837 274.217 101.666C273.79 103.863 273.932 106.12 275.914 109.255C276.709 110.514 278.608 113.245 283.817 114.029C283.817 114.029 291.899 114.765 293.524 106.749C293.524 106.749 294.165 101.191 288.908 100.146C288.908 100.146 287.33 99.8964 286.665 100.561C286.665 100.561 285.526 101.856 286.903 102.699C287.816 103.257 289.81 103.103 290.214 105.835C290.593 108.376 288.018 109.932 286.689 110.347C283.105 111.476 280.637 110.739 278.632 108.685C278.632 108.685 274.965 105.668 276.923 100.205C279.415 93.2576 285.633 91.2268 291.341 91.6187C291.341 91.6187 303.504 91.9394 304.062 106.749C304.062 106.749 304.347 104.493 304.335 103.459H304.359Z" fill="#13604E"/>
<path d="M304.359 64.4458C293.596 64.4458 284.862 73.1867 284.862 83.9584C284.862 94.7301 293.596 103.471 304.359 103.471V64.4458Z" fill="#4DD3B8"/>
<path d="M304.359 103.958C293.335 103.958 284.363 94.9796 284.363 83.9466C284.363 72.9136 293.335 63.9352 304.359 63.9352V103.958ZM304.359 64.9328C293.88 64.9328 285.36 73.4599 285.36 83.9466C285.36 94.4333 293.88 102.96 304.359 102.96V64.9328Z" fill="#13604E"/>
</g>
<path d="M12.4247 44.4344H292.576V123.566H12.4247V44.4344ZM12.4247 43.033C11.6534 43.033 11.0244 43.6624 11.0244 44.4344V123.566C11.0244 124.338 11.6534 124.967 12.4247 124.967H292.576C293.347 124.967 293.976 124.338 293.976 123.566V44.4344C293.976 43.6624 293.347 43.033 292.576 43.033H12.4247Z" fill="#0F594B"/>
</g>
<path d="M75.2496 77.6758C75.2431 78.5352 75.0738 79.3848 74.7418 80.2246C74.4163 81.0645 73.9442 81.8229 73.3258 82.5C72.7073 83.1706 71.9879 83.6849 71.1676 84.043L70.3277 82.8516C71.0699 82.5326 71.7209 82.0898 72.2808 81.5234C72.8407 80.9505 73.2672 80.3288 73.5601 79.6582C73.8596 78.9876 74.0126 78.3268 74.0191 77.6758V75.3125H75.2496V77.6758ZM75.484 77.6758C75.4905 78.3203 75.637 78.9518 75.9234 79.5703C76.2164 80.1823 76.6298 80.7357 77.1637 81.2305C77.704 81.7253 78.3355 82.1094 79.0582 82.3828L78.2574 83.5547C77.4241 83.2357 76.7079 82.7767 76.109 82.1777C75.51 81.5723 75.051 80.8822 74.732 80.1074C74.4195 79.3327 74.2665 78.5221 74.273 77.6758V75.3125H75.484V77.6758ZM85.0543 84.9609H83.5894V74.2383H85.0543V84.9609ZM84.0777 80.1758H80.7574V78.9062H84.0777V80.1758ZM81.2847 84.4141H79.8394V74.5703H81.2847V84.4141ZM79.3121 85.3516C80.5035 85.3516 81.5354 85.472 82.4078 85.7129C83.2867 85.9538 83.9638 86.3086 84.439 86.7773C84.9143 87.2461 85.1519 87.806 85.1519 88.457C85.1519 89.1016 84.9143 89.6517 84.439 90.1074C83.9638 90.5697 83.2867 90.9245 82.4078 91.1719C81.5354 91.4193 80.5035 91.543 79.3121 91.543C78.1142 91.543 77.0758 91.4193 76.1969 91.1719C75.3179 90.9245 74.6441 90.5697 74.1754 90.1074C73.7131 89.6517 73.4853 89.1016 73.4918 88.457C73.4853 87.806 73.7131 87.2461 74.1754 86.7773C74.6441 86.3086 75.3179 85.9538 76.1969 85.7129C77.0758 85.472 78.1142 85.3516 79.3121 85.3516ZM79.3121 86.5234C78.4267 86.5234 77.6617 86.6016 77.0172 86.7578C76.3726 86.9141 75.8746 87.1387 75.523 87.4316C75.178 87.7181 75.0087 88.0599 75.0152 88.457C75.0087 88.8477 75.178 89.1862 75.523 89.4727C75.8746 89.7591 76.3726 89.9772 77.0172 90.127C77.6617 90.2767 78.4267 90.3516 79.3121 90.3516C80.1845 90.3516 80.9462 90.2767 81.5972 90.127C82.2483 89.9772 82.7463 89.7591 83.0914 89.4727C83.4429 89.1862 83.622 88.8477 83.6285 88.457C83.622 88.0599 83.4429 87.7181 83.0914 87.4316C82.7463 87.1387 82.2483 86.9141 81.5972 86.7578C80.9462 86.6016 80.1845 86.5234 79.3121 86.5234ZM101.168 84.4141H99.6441V74.2188H101.168V84.4141ZM103.785 79.9414H100.738V78.6328H103.785V79.9414ZM96.4019 75.332C96.4019 76.7839 96.0764 78.099 95.4254 79.2773C94.7743 80.4492 93.8336 81.4518 92.6031 82.2852C91.3791 83.1185 89.911 83.763 88.1988 84.2188L87.5738 83.0273C89.0842 82.6172 90.3798 82.0703 91.4605 81.3867C92.5413 80.6966 93.3681 79.8958 93.941 78.9844C94.5139 78.0729 94.8004 77.0833 94.8004 76.0156V75.332H96.4019ZM95.6402 76.6016H88.3551V75.332H95.6402V76.6016ZM101.168 91.582H99.6441V86.4648H89.8004V85.2148H101.168V91.582ZM113.648 83.7891H105.621V75.8008H113.648V83.7891ZM107.125 82.5586H112.164V77.0508H107.125V82.5586ZM118.453 86.9531H116.929V74.2188H118.453V86.9531ZM121.07 80.8008H117.964V79.5117H121.07V80.8008ZM119.253 91.2109H107.593V89.9219H119.253V91.2109ZM109.097 90.4492H107.593V85.7422H109.097V90.4492ZM135.855 78.4766H127.144V77.2266H135.855V78.4766ZM131.5 79.6484C132.222 79.6484 132.867 79.8177 133.433 80.1562C134.006 80.4948 134.452 80.9635 134.771 81.5625C135.097 82.1549 135.263 82.832 135.269 83.5938C135.263 84.362 135.097 85.0456 134.771 85.6445C134.452 86.2435 134.006 86.7155 133.433 87.0605C132.867 87.4056 132.222 87.5781 131.5 87.5781C130.79 87.5781 130.149 87.4056 129.576 87.0605C129.009 86.7155 128.567 86.2435 128.248 85.6445C127.929 85.0456 127.769 84.362 127.769 83.5938C127.769 82.8385 127.932 82.1615 128.257 81.5625C128.583 80.9635 129.026 80.4948 129.586 80.1562C130.152 79.8177 130.79 79.6484 131.5 79.6484ZM131.5 80.9375C131.044 80.944 130.637 81.0645 130.279 81.2988C129.921 81.5267 129.641 81.8424 129.439 82.2461C129.237 82.6432 129.136 83.0924 129.136 83.5938C129.136 84.1016 129.237 84.554 129.439 84.9512C129.641 85.3483 129.921 85.6608 130.279 85.8887C130.637 86.1165 131.044 86.2305 131.5 86.2305C131.955 86.2305 132.365 86.1165 132.73 85.8887C133.095 85.6608 133.381 85.3483 133.589 84.9512C133.798 84.554 133.902 84.1016 133.902 83.5938C133.902 83.0924 133.798 82.6432 133.589 82.2461C133.381 81.8424 133.095 81.5267 132.73 81.2988C132.365 81.0645 131.955 80.944 131.5 80.9375ZM141.968 91.582H140.503V74.2188H141.968V91.582ZM140.992 82.8125H137.671V81.543H140.992V82.8125ZM138.199 90.7227H136.753V74.6484H138.199V90.7227ZM132.281 77.9883H130.757V74.7461H132.281V77.9883ZM158.492 83.6133H146.5V82.3633H158.492V83.6133ZM160.367 89.3945H144.468V88.1055H160.367V89.3945ZM153.121 88.6328H151.617V82.9102H153.121V88.6328ZM158.316 76.8945H148.043V82.9492H146.5V75.6445H158.316V76.8945ZM181.128 91.582H179.586V74.2188H181.128V91.582ZM177.125 77.3828H167.203V76.1133H177.125V77.3828ZM166.753 85.9766C168.863 85.9701 170.855 85.9342 172.73 85.8691C174.605 85.7975 176.369 85.6641 178.023 85.4688L178.121 86.6211C176.441 86.8815 174.696 87.054 172.886 87.1387C171.083 87.2233 169.097 87.2721 166.929 87.2852L166.753 85.9766ZM170.66 86.3086H169.156V77.0508H170.66V86.3086ZM175.152 86.3086H173.648V77.0508H175.152V86.3086ZM197.222 76.5234H185.953V75.2734H197.222V76.5234ZM199.878 84.1602H184.078V82.9102H199.878V84.1602ZM192.125 83.2617H190.621V79.3164H192.125V83.2617ZM197.867 76.582C197.86 77.526 197.828 78.3789 197.769 79.1406C197.717 79.9023 197.593 80.7617 197.398 81.7188L195.855 81.5234C196.063 80.5924 196.197 79.7624 196.255 79.0332C196.314 78.2975 196.343 77.5065 196.343 76.6602V76.4844V75.2734H197.867V76.4844V76.582ZM198.316 91.2109H186.089V89.9219H198.316V91.2109ZM187.632 90.7812H186.089V85.9375H187.632V90.7812ZM214.781 91.582H213.257V74.2188H214.781V91.582ZM217.691 82.6562H214.429V81.3867H217.691V82.6562ZM211.578 78.2812H201.246V77.0117H211.578V78.2812ZM206.5 79.7266C207.307 79.7266 208.033 79.8958 208.677 80.2344C209.322 80.5729 209.826 81.0449 210.191 81.6504C210.562 82.2559 210.751 82.9427 210.757 83.7109C210.751 84.4857 210.562 85.1758 210.191 85.7812C209.826 86.3802 209.322 86.849 208.677 87.1875C208.033 87.526 207.307 87.6953 206.5 87.6953C205.686 87.6953 204.953 87.526 204.302 87.1875C203.658 86.849 203.153 86.3802 202.789 85.7812C202.424 85.1758 202.242 84.4857 202.242 83.7109C202.242 82.9427 202.424 82.2559 202.789 81.6504C203.153 81.0449 203.658 80.5729 204.302 80.2344C204.953 79.8958 205.686 79.7266 206.5 79.7266ZM206.5 81.0156C205.966 81.0156 205.487 81.1296 205.064 81.3574C204.641 81.5853 204.309 81.9076 204.068 82.3242C203.827 82.7344 203.707 83.1966 203.707 83.7109C203.707 84.2318 203.827 84.694 204.068 85.0977C204.309 85.5013 204.641 85.8203 205.064 86.0547C205.487 86.2826 205.966 86.3932 206.5 86.3867C207.027 86.3932 207.502 86.2826 207.925 86.0547C208.355 85.8203 208.687 85.5013 208.921 85.0977C209.162 84.694 209.286 84.2318 209.293 83.7109C209.286 83.1966 209.162 82.7344 208.921 82.3242C208.687 81.9076 208.355 81.5853 207.925 81.3574C207.502 81.1296 207.027 81.0156 206.5 81.0156ZM207.242 77.5977H205.718V74.4336H207.242V77.5977ZM232.066 91.6211H230.543V74.2188H232.066V91.6211ZM234.976 82.3828H231.714V81.0938H234.976V82.3828ZM220.757 85.9766C222.463 85.9701 223.925 85.9245 225.142 85.8398C226.36 85.7487 227.6 85.5859 228.863 85.3516L229.058 86.6797C227.769 86.9141 226.506 87.0703 225.269 87.1484C224.039 87.2266 222.535 87.2656 220.757 87.2656H219.39V85.9766H220.757ZM227.496 77.1875H220.914V86.5625H219.39V75.918H227.496V77.1875Z" fill="white"/>
<path d="M14.1436 20.616H12.6105V3.22652H14.1436V20.616ZM17.0442 11.3757H13.7983V10.0912H17.0442V11.3757ZM2.83149 14.9669C4.53039 14.9669 5.98987 14.9231 7.20995 14.8356C8.43462 14.7482 9.67772 14.5893 10.9392 14.3591L11.1326 15.6851C9.84346 15.9153 8.58195 16.0695 7.34807 16.1478C6.11418 16.2261 4.60866 16.2652 2.83149 16.2652H1.46409V14.9669H2.83149ZM9.57182 6.18232H2.99724V15.5608H1.46409V4.92541H9.57182V6.18232ZM19.8266 19.1105C19.601 19.1105 19.3892 19.0529 19.1912 18.9378C18.9979 18.8227 18.8436 18.6708 18.7285 18.482C18.618 18.2887 18.5651 18.0792 18.5697 17.8536C18.5651 17.628 18.618 17.4185 18.7285 17.2251C18.8436 17.0272 18.9979 16.8729 19.1912 16.7624C19.3892 16.6519 19.601 16.5967 19.8266 16.5967C20.0522 16.5967 20.2617 16.6519 20.455 16.7624C20.653 16.8729 20.8073 17.0272 20.9178 17.2251C21.0283 17.4185 21.0835 17.628 21.0835 17.8536C21.0835 18.0792 21.0283 18.2887 20.9178 18.482C20.8073 18.6708 20.653 18.8227 20.455 18.9378C20.2617 19.0529 20.0522 19.1105 19.8266 19.1105Z" fill="white"/>
<defs>
<clipPath id="clip0_498_387">
<rect width="305" height="104" fill="white" transform="translate(0 32)"/>
</clipPath>
</defs>
</svg>
