<svg width="305" height="136" viewBox="0 0 305 136" fill="none" xmlns="http://www.w3.org/2000/svg">
<g clip-path="url(#clip0_529_669)">
<path d="M1.41397 134.599L303.602 134.599V33.4014L1.41397 33.4014V134.599Z" fill="#4AE6CA"/>
<path d="M2.63443 33.4014H302.366C303.042 33.4014 303.6 33.9477 303.6 34.6365V133.363C303.6 134.04 303.054 134.599 302.366 134.599H2.63443C1.95802 134.599 1.40028 134.052 1.40028 133.363V34.6365C1.40028 33.9596 1.94615 33.4014 2.63443 33.4014ZM2.63443 32C1.17481 32 0 33.1757 0 34.6365V133.363C0 134.812 1.17481 136 2.63443 136H302.366C303.813 136 305 134.824 305 133.363V34.6365C305 33.1757 303.813 32 302.366 32H2.63443Z" fill="#0F594B"/>
<path d="M12.4232 123.566L292.574 123.566V44.4343L12.4232 44.4343V123.566Z" fill="#0F594B"/>
<mask id="mask0_529_669" style="mask-type:luminance" maskUnits="userSpaceOnUse" x="12" y="44" width="281" height="80">
<path d="M12.4272 123.566L292.578 123.566V44.4343L12.4272 44.4343V123.566Z" fill="white"/>
</mask>
<g mask="url(#mask0_529_669)">
<path d="M39.5792 103.471C50.3471 103.471 59.0763 94.7349 59.0763 83.9584C59.0763 73.1819 50.3471 64.4458 39.5792 64.4458C28.8112 64.4458 20.082 73.1819 20.082 83.9584C20.082 94.7349 28.8112 103.471 39.5792 103.471Z" fill="#4DD3B8"/>
<path d="M39.5893 103.958C28.565 103.958 19.5938 94.9795 19.5938 83.9465C19.5938 72.9135 28.565 63.9351 39.5893 63.9351C50.6135 63.9351 59.5848 72.9135 59.5848 83.9465C59.5848 94.9795 50.6135 103.958 39.5893 103.958ZM39.5893 64.9327C29.1109 64.9327 20.5906 73.4598 20.5906 83.9465C20.5906 94.4332 29.1109 102.96 39.5893 102.96C50.0676 102.96 58.588 94.4332 58.588 83.9465C58.588 73.4598 50.0676 64.9327 39.5893 64.9327Z" fill="#13604E"/>
<path d="M33.0762 96.9628C40.2526 96.9628 46.0703 91.1405 46.0703 83.9583C46.0703 76.7762 40.2526 70.9539 33.0762 70.9539C25.8997 70.9539 20.082 76.7762 20.082 83.9583C20.082 91.1405 25.8997 96.9628 33.0762 96.9628Z" fill="#13604E"/>
<path d="M20.0948 83.9583C30.8627 83.9583 39.5919 75.2222 39.5919 64.4457C39.5919 53.6692 30.8627 44.9331 20.0948 44.9331C9.32682 44.9331 0.597656 53.6692 0.597656 64.4457C0.597656 75.2222 9.32682 83.9583 20.0948 83.9583Z" fill="#4DD3B8"/>
<path d="M20.0932 84.4453C9.06894 84.4453 0.0976562 75.4787 0.0976562 64.4457C0.0976562 53.4127 9.06894 44.4343 20.0932 44.4343C31.1174 44.4343 40.0887 53.4127 40.0887 64.4457C40.0887 75.4787 31.1174 84.4572 20.0932 84.4572V84.4453ZM20.0932 45.4201C9.61482 45.4319 1.09447 53.959 1.09447 64.4457C1.09447 74.9324 9.61482 83.4596 20.0932 83.4596C30.5716 83.4596 39.0919 74.9324 39.0919 64.4457C39.0919 53.959 30.5716 45.4319 20.0932 45.4319V45.4201Z" fill="#13604E"/>
<path d="M20.0948 122.983C30.8627 122.983 39.5919 114.247 39.5919 103.471C39.5919 92.6943 30.8627 83.9583 20.0948 83.9583C9.32682 83.9583 0.597656 92.6943 0.597656 103.471C0.597656 114.247 9.32682 122.983 20.0948 122.983Z" fill="#4DD3B8"/>
<path d="M20.0932 123.47C9.06894 123.47 0.0976562 114.504 0.0976562 103.471C0.0976562 92.4379 9.06894 83.4595 20.0932 83.4595C31.1174 83.4595 40.0887 92.4379 40.0887 103.471C40.0887 114.504 31.1174 123.482 20.0932 123.482V123.47ZM20.0932 84.4452C9.61482 84.4452 1.09447 92.9842 1.09447 103.471C1.09447 113.958 9.61482 122.485 20.0932 122.485C30.5716 122.485 39.0919 113.958 39.0919 103.471C39.0919 92.9842 30.5716 84.4571 20.0932 84.4571V84.4452Z" fill="#13604E"/>
<path d="M0.59567 64.4459C0.59567 64.4459 0.132866 52.4153 13.5779 51.4414C27.1535 50.4557 30.3813 60.8236 30.7373 62.6525C31.1645 64.8496 31.0221 67.1061 29.0403 70.2414C28.2453 71.5003 26.3466 74.2319 21.1371 75.0157C21.1371 75.0157 13.0558 75.752 11.43 67.7356C11.43 67.7356 10.7892 62.1775 16.0462 61.1324C16.0462 61.1324 17.6245 60.883 18.289 61.5481C18.289 61.5481 19.4283 62.8426 18.0517 63.6858C17.138 64.244 15.1443 64.0896 14.7409 66.8211C14.3611 69.3626 16.9362 70.9184 18.2653 71.3341C21.8491 72.4623 24.3174 71.726 26.3229 69.6714C26.3229 69.6714 29.9897 66.6548 28.0317 61.1918C25.5396 54.2442 19.3215 52.2134 13.6135 52.6053C13.6135 52.6053 1.45008 52.9259 0.89234 67.7356C0.89234 67.7356 0.607537 65.4791 0.619404 64.4459H0.59567Z" fill="#13604E"/>
<path d="M0.595535 103.459C0.595535 103.459 0.144597 91.4284 13.5778 90.4546C27.1534 89.4689 30.3812 99.8368 30.7372 101.666C31.1644 103.863 31.022 106.119 29.0402 109.255C28.2451 110.514 26.3464 113.245 21.1369 114.029C21.1369 114.029 13.0557 114.765 11.4299 106.749C11.4299 106.749 10.7891 101.191 16.0461 100.146C16.0461 100.146 17.6244 99.8962 18.2889 100.561C18.2889 100.561 19.4281 101.856 18.0516 102.699C17.1378 103.257 15.1442 103.103 14.7407 105.834C14.361 108.376 16.9361 109.932 18.2652 110.347C21.8489 111.475 24.3172 110.739 26.3227 108.685C26.3227 108.685 29.9896 105.668 28.0315 100.205C25.5395 93.2574 19.3213 91.2265 13.6134 91.6185C13.6134 91.6185 1.44994 91.9391 0.892204 106.749C0.892204 106.749 0.607402 104.492 0.619268 103.459H0.595535Z" fill="#13604E"/>
<path d="M0.597656 64.4458C11.3608 64.4458 20.0948 73.1867 20.0948 83.9584C20.0948 94.7301 11.3608 103.471 0.597656 103.471V64.4458Z" fill="#4DD3B8"/>
<path d="M0.597656 63.947C11.6219 63.947 20.5932 72.9254 20.5932 83.9584C20.5932 94.9914 11.6219 103.958 0.597656 103.958V63.947ZM0.597656 102.972C11.076 102.972 19.5964 94.4451 19.5964 83.9584C19.5964 73.4717 11.0642 64.9327 0.597656 64.9327V102.972Z" fill="#13604E"/>
<path d="M265.368 103.471C276.136 103.471 284.865 94.7349 284.865 83.9584C284.865 73.1819 276.136 64.4458 265.368 64.4458C254.6 64.4458 245.871 73.1819 245.871 83.9584C245.871 94.7349 254.6 103.471 265.368 103.471Z" fill="#4DD3B8"/>
<path d="M245.383 83.9584C245.383 72.9254 254.354 63.947 265.378 63.947C276.403 63.947 285.374 72.9254 285.374 83.9584C285.374 94.9914 276.403 103.97 265.378 103.97C254.354 103.97 245.383 94.9914 245.383 83.9584ZM246.38 83.9584C246.38 94.4451 254.9 102.972 265.378 102.972C275.857 102.972 284.377 94.4451 284.377 83.9584C284.377 73.4717 275.857 64.9446 265.378 64.9446C254.9 64.9446 246.38 73.4717 246.38 83.9584Z" fill="#13604E"/>
<path d="M271.881 96.963C279.057 96.963 284.875 91.1407 284.875 83.9586C284.875 76.7764 279.057 70.9541 271.881 70.9541C264.704 70.9541 258.887 76.7764 258.887 83.9586C258.887 91.1407 264.704 96.963 271.881 96.963Z" fill="#13604E"/>
<path d="M284.864 83.9583C295.632 83.9583 304.361 75.2222 304.361 64.4457C304.361 53.6692 295.632 44.9331 284.864 44.9331C274.096 44.9331 265.367 53.6692 265.367 64.4457C265.367 75.2222 274.096 83.9583 284.864 83.9583Z" fill="#4DD3B8"/>
<path d="M264.867 64.4457C264.867 53.4127 273.838 44.4343 284.863 44.4343C295.887 44.4343 304.858 53.4127 304.858 64.4457C304.858 75.4787 295.887 84.4572 284.863 84.4572C273.838 84.4572 264.867 75.4787 264.867 64.4457ZM265.864 64.4457C265.864 74.9324 274.384 83.4596 284.863 83.4596C295.341 83.4596 303.861 74.9324 303.861 64.4457C303.861 53.959 295.341 45.4319 284.863 45.4319C274.384 45.4319 265.864 53.959 265.864 64.4457Z" fill="#13604E"/>
<path d="M284.864 122.983C295.632 122.983 304.361 114.247 304.361 103.471C304.361 92.6943 295.632 83.9583 284.864 83.9583C274.096 83.9583 265.367 92.6943 265.367 103.471C265.367 114.247 274.096 122.983 284.864 122.983Z" fill="#4DD3B8"/>
<path d="M264.867 103.471C264.867 92.4379 273.838 83.4595 284.863 83.4595C295.887 83.4595 304.858 92.4379 304.858 103.471C304.858 114.504 295.887 123.482 284.863 123.482C273.838 123.482 264.867 114.504 264.867 103.471ZM265.864 103.471C265.864 113.958 274.384 122.485 284.863 122.485C295.341 122.485 303.861 113.958 303.861 103.471C303.861 92.9842 295.341 84.4571 284.863 84.4571C274.384 84.4571 265.864 92.9842 265.864 103.471Z" fill="#13604E"/>
<path d="M304.362 64.4459C304.362 64.4459 304.813 52.4153 291.38 51.4414C277.804 50.4557 274.577 60.8236 274.221 62.6525C273.793 64.8496 273.936 67.1061 275.917 70.2414C276.713 71.5003 278.611 74.2319 283.821 75.0157C283.821 75.0157 291.902 75.752 293.528 67.7356C293.528 67.7356 294.169 62.1775 288.912 61.1324C288.912 61.1324 287.333 60.883 286.669 61.5481C286.669 61.5481 285.53 62.8426 286.906 63.6858C287.82 64.244 289.813 64.0896 290.217 66.8211C290.597 69.3626 288.022 70.9184 286.692 71.3341C283.109 72.4623 280.64 71.726 278.635 69.6714C278.635 69.6714 274.968 66.6548 276.926 61.1918C279.418 54.2442 285.636 52.2134 291.344 52.6053C291.344 52.6053 303.508 52.9259 304.065 67.7356C304.065 67.7356 304.35 65.4791 304.338 64.4459H304.362Z" fill="#13604E"/>
<path d="M304.362 103.459C304.362 103.459 304.813 91.4284 291.38 90.4546C277.804 89.4689 274.577 99.8368 274.221 101.666C273.793 103.863 273.936 106.119 275.917 109.255C276.713 110.514 278.611 113.245 283.821 114.029C283.821 114.029 291.902 114.765 293.528 106.749C293.528 106.749 294.169 101.191 288.912 100.146C288.912 100.146 287.333 99.8962 286.669 100.561C286.669 100.561 285.53 101.856 286.906 102.699C287.82 103.257 289.813 103.103 290.217 105.834C290.597 108.376 288.022 109.932 286.692 110.347C283.109 111.475 280.64 110.739 278.635 108.685C278.635 108.685 274.968 105.668 276.926 100.205C279.418 93.2574 285.636 91.2265 291.344 91.6185C291.344 91.6185 303.508 91.9391 304.065 106.749C304.065 106.749 304.35 104.492 304.338 103.459H304.362Z" fill="#13604E"/>
<path d="M304.36 64.4458C293.597 64.4458 284.863 73.1867 284.863 83.9584C284.863 94.7301 293.597 103.471 304.36 103.471V64.4458Z" fill="#4DD3B8"/>
<path d="M304.359 103.958C293.335 103.958 284.363 94.9795 284.363 83.9465C284.363 72.9135 293.335 63.9351 304.359 63.9351V103.958ZM304.359 64.9327C293.88 64.9327 285.36 73.4598 285.36 83.9465C285.36 94.4332 293.88 102.96 304.359 102.96V64.9327Z" fill="#13604E"/>
</g>
<path d="M12.4237 44.4344H292.575V123.566H12.4237V44.4344ZM12.4237 43.033C11.6524 43.033 11.0234 43.6624 11.0234 44.4344V123.566C11.0234 124.338 11.6524 124.967 12.4237 124.967H292.575C293.346 124.967 293.975 124.338 293.975 123.566V44.4344C293.975 43.6624 293.346 43.033 292.575 43.033H12.4237Z" fill="#0F594B"/>
</g>
<path d="M144.834 88.1367C146.018 88.1367 147.041 88.2604 147.9 88.5078C148.759 88.7552 149.417 89.123 149.873 89.6113C150.328 90.0931 150.556 90.6693 150.556 91.3398C150.556 92.0169 150.328 92.5964 149.873 93.0781C149.417 93.5599 148.759 93.9277 147.9 94.1816C147.041 94.4421 146.018 94.5755 144.834 94.582C143.642 94.5755 142.614 94.4421 141.748 94.1816C140.888 93.9277 140.227 93.5599 139.765 93.0781C139.303 92.5964 139.072 92.0169 139.072 91.3398C139.072 90.6693 139.303 90.0931 139.765 89.6113C140.227 89.123 140.892 88.7552 141.757 88.5078C142.623 88.2604 143.649 88.1367 144.834 88.1367ZM144.834 89.3477C143.961 89.3542 143.209 89.4388 142.578 89.6016C141.946 89.7578 141.458 89.9857 141.113 90.2852C140.774 90.5781 140.608 90.9297 140.615 91.3398C140.608 91.75 140.774 92.1048 141.113 92.4043C141.458 92.6973 141.946 92.9251 142.578 93.0879C143.216 93.2507 143.968 93.332 144.834 93.332C145.706 93.332 146.461 93.2507 147.099 93.0879C147.737 92.9251 148.225 92.6973 148.564 92.4043C148.903 92.1048 149.072 91.75 149.072 91.3398C149.072 90.9297 148.903 90.5781 148.564 90.2852C148.225 89.9857 147.737 89.7578 147.099 89.6016C146.461 89.4388 145.706 89.3542 144.834 89.3477ZM150.4 87.668H148.877V77.2188H150.4V87.668ZM153.017 82.9023H149.97V81.5938H153.017V82.9023ZM139.072 80.9688H144.13V78.3125H145.654V86.3203H137.568V78.3125H139.072V80.9688ZM144.13 85.0703V82.1797H139.072V85.0703H144.13ZM162.763 88.0586H161.24V85.3828H162.763V88.0586ZM162.021 77.4336C163.304 77.4336 164.404 77.5508 165.322 77.7852C166.246 78.0195 166.949 78.3613 167.431 78.8105C167.913 79.2598 168.154 79.8034 168.154 80.4414C168.154 81.0859 167.913 81.6361 167.431 82.0918C166.949 82.541 166.25 82.8828 165.332 83.1172C164.414 83.3451 163.31 83.4622 162.021 83.4688C160.725 83.4622 159.619 83.3451 158.701 83.1172C157.789 82.8828 157.089 82.541 156.601 82.0918C156.113 81.6361 155.869 81.0859 155.869 80.4414C155.869 79.8034 156.113 79.2598 156.601 78.8105C157.089 78.3613 157.793 78.0195 158.711 77.7852C159.628 77.5508 160.732 77.4336 162.021 77.4336ZM162.021 78.6055C161.064 78.612 160.244 78.6901 159.56 78.8398C158.883 78.9831 158.362 79.1914 157.998 79.4648C157.64 79.7383 157.464 80.0638 157.47 80.4414C157.464 80.832 157.64 81.1641 157.998 81.4375C158.362 81.7109 158.883 81.9225 159.56 82.0723C160.237 82.2155 161.058 82.2904 162.021 82.2969C162.985 82.2904 163.808 82.2155 164.492 82.0723C165.175 81.9225 165.696 81.7109 166.054 81.4375C166.412 81.1641 166.591 80.832 166.591 80.4414C166.591 80.0638 166.412 79.7383 166.054 79.4648C165.696 79.1914 165.172 78.9831 164.482 78.8398C163.798 78.6901 162.978 78.612 162.021 78.6055ZM169.931 85.8516H154.111V84.6211H169.931V85.8516ZM167.9 91.3789H157.587V93.4883H156.064V90.2461H166.396V88.6641H156.025V87.4922H167.9V91.3789ZM168.427 94.3867H156.064V93.1758H168.427V94.3867Z" fill="white"/>
<path d="M16.9613 11.4448H13.7431V10.1602H16.9613V11.4448ZM14.1436 20.5746H12.6105V3.22652H14.1436V20.5746ZM2.94199 15.6713H1.42265V4.93923H2.94199V15.6713ZM2.80387 14.884C4.18508 14.884 5.53867 14.8241 6.86464 14.7044C8.19521 14.5801 9.55341 14.3729 10.9392 14.0829L11.1326 15.395C9.71455 15.6759 8.32643 15.8762 6.96823 15.9959C5.61464 16.111 4.22652 16.1685 2.80387 16.1685H1.42265V14.884H2.80387ZM19.8266 19.1105C19.601 19.1105 19.3892 19.0529 19.1912 18.9378C18.9979 18.8227 18.8436 18.6708 18.7285 18.482C18.618 18.2887 18.5651 18.0792 18.5697 17.8536C18.5651 17.628 18.618 17.4185 18.7285 17.2251C18.8436 17.0272 18.9979 16.8729 19.1912 16.7624C19.3892 16.6519 19.601 16.5967 19.8266 16.5967C20.0522 16.5967 20.2617 16.6519 20.455 16.7624C20.653 16.8729 20.8073 17.0272 20.9178 17.2251C21.0283 17.4185 21.0835 17.628 21.0835 17.8536C21.0835 18.0792 21.0283 18.2887 20.9178 18.482C20.8073 18.6708 20.653 18.8227 20.455 18.9378C20.2617 19.0529 20.0522 19.1105 19.8266 19.1105Z" fill="white"/>
<defs>
<clipPath id="clip0_529_669">
<rect width="305" height="104" fill="white" transform="translate(0 32)"/>
</clipPath>
</defs>
</svg>
