<svg width="305" height="136" viewBox="0 0 305 136" fill="none" xmlns="http://www.w3.org/2000/svg">
<g clip-path="url(#clip0_529_620)">
<path d="M1.41397 134.599L303.602 134.599V33.4014L1.41397 33.4014V134.599Z" fill="#4AE6CA"/>
<path d="M2.63443 33.4014H302.366C303.042 33.4014 303.6 33.9477 303.6 34.6365V133.363C303.6 134.04 303.054 134.599 302.366 134.599H2.63443C1.95802 134.599 1.40028 134.052 1.40028 133.363V34.6365C1.40028 33.9596 1.94615 33.4014 2.63443 33.4014ZM2.63443 32C1.17481 32 0 33.1757 0 34.6365V133.363C0 134.812 1.17481 136 2.63443 136H302.366C303.813 136 305 134.824 305 133.363V34.6365C305 33.1757 303.813 32 302.366 32H2.63443Z" fill="#0F594B"/>
<path d="M12.4232 123.566L292.574 123.566V44.4343L12.4232 44.4343V123.566Z" fill="#0F594B"/>
<mask id="mask0_529_620" style="mask-type:luminance" maskUnits="userSpaceOnUse" x="12" y="44" width="281" height="80">
<path d="M12.4272 123.566L292.578 123.566V44.4345L12.4272 44.4345V123.566Z" fill="white"/>
</mask>
<g mask="url(#mask0_529_620)">
<path d="M39.5792 103.471C50.3471 103.471 59.0763 94.7349 59.0763 83.9584C59.0763 73.1819 50.3471 64.4458 39.5792 64.4458C28.8112 64.4458 20.082 73.1819 20.082 83.9584C20.082 94.7349 28.8112 103.471 39.5792 103.471Z" fill="#4DD3B8"/>
<path d="M39.5893 103.958C28.565 103.958 19.5938 94.9796 19.5938 83.9466C19.5938 72.9136 28.565 63.9352 39.5893 63.9352C50.6135 63.9352 59.5848 72.9136 59.5848 83.9466C59.5848 94.9796 50.6135 103.958 39.5893 103.958ZM39.5893 64.9328C29.1109 64.9328 20.5906 73.4599 20.5906 83.9466C20.5906 94.4333 29.1109 102.96 39.5893 102.96C50.0676 102.96 58.588 94.4333 58.588 83.9466C58.588 73.4599 50.0676 64.9328 39.5893 64.9328Z" fill="#13604E"/>
<path d="M33.0762 96.9629C40.2526 96.9629 46.0703 91.1406 46.0703 83.9584C46.0703 76.7763 40.2526 70.954 33.0762 70.954C25.8997 70.954 20.082 76.7763 20.082 83.9584C20.082 91.1406 25.8997 96.9629 33.0762 96.9629Z" fill="#13604E"/>
<path d="M20.0948 83.9585C30.8627 83.9585 39.5919 75.2224 39.5919 64.4458C39.5919 53.6693 30.8627 44.9332 20.0948 44.9332C9.32682 44.9332 0.597656 53.6693 0.597656 64.4458C0.597656 75.2224 9.32682 83.9585 20.0948 83.9585Z" fill="#4DD3B8"/>
<path d="M20.0932 84.4454C9.06894 84.4454 0.0976562 75.4789 0.0976562 64.4459C0.0976562 53.4129 9.06894 44.4344 20.0932 44.4344C31.1174 44.4344 40.0887 53.4129 40.0887 64.4459C40.0887 75.4789 31.1174 84.4573 20.0932 84.4573V84.4454ZM20.0932 45.4202C9.61482 45.4321 1.09447 53.9592 1.09447 64.4459C1.09447 74.9326 9.61482 83.4597 20.0932 83.4597C30.5716 83.4597 39.0919 74.9326 39.0919 64.4459C39.0919 53.9592 30.5716 45.4321 20.0932 45.4321V45.4202Z" fill="#13604E"/>
<path d="M20.0948 122.984C30.8627 122.984 39.5919 114.248 39.5919 103.471C39.5919 92.6946 30.8627 83.9585 20.0948 83.9585C9.32682 83.9585 0.597656 92.6946 0.597656 103.471C0.597656 114.248 9.32682 122.984 20.0948 122.984Z" fill="#4DD3B8"/>
<path d="M20.0932 123.471C9.06894 123.471 0.0976562 114.504 0.0976562 103.471C0.0976562 92.4381 9.06894 83.4597 20.0932 83.4597C31.1174 83.4597 40.0887 92.4381 40.0887 103.471C40.0887 114.504 31.1174 123.483 20.0932 123.483V123.471ZM20.0932 84.4454C9.61482 84.4454 1.09447 92.9844 1.09447 103.471C1.09447 113.958 9.61482 122.485 20.0932 122.485C30.5716 122.485 39.0919 113.958 39.0919 103.471C39.0919 92.9844 30.5716 84.4573 20.0932 84.4573V84.4454Z" fill="#13604E"/>
<path d="M0.59567 64.4459C0.59567 64.4459 0.132866 52.4153 13.5779 51.4414C27.1535 50.4557 30.3813 60.8236 30.7373 62.6525C31.1645 64.8496 31.0221 67.1061 29.0403 70.2414C28.2453 71.5003 26.3466 74.2319 21.1371 75.0157C21.1371 75.0157 13.0558 75.752 11.43 67.7356C11.43 67.7356 10.7892 62.1775 16.0462 61.1324C16.0462 61.1324 17.6245 60.883 18.289 61.5481C18.289 61.5481 19.4283 62.8426 18.0517 63.6858C17.138 64.244 15.1443 64.0896 14.7409 66.8211C14.3611 69.3626 16.9362 70.9184 18.2653 71.3341C21.8491 72.4623 24.3174 71.726 26.3229 69.6714C26.3229 69.6714 29.9897 66.6548 28.0317 61.1918C25.5396 54.2442 19.3215 52.2134 13.6135 52.6053C13.6135 52.6053 1.45008 52.9259 0.89234 67.7356C0.89234 67.7356 0.607537 65.4791 0.619404 64.4459H0.59567Z" fill="#13604E"/>
<path d="M0.595535 103.459C0.595535 103.459 0.144597 91.4287 13.5778 90.4548C27.1534 89.4691 30.3812 99.837 30.7372 101.666C31.1644 103.863 31.022 106.12 29.0402 109.255C28.2451 110.514 26.3464 113.245 21.1369 114.029C21.1369 114.029 13.0557 114.765 11.4299 106.749C11.4299 106.749 10.7891 101.191 16.0461 100.146C16.0461 100.146 17.6244 99.8964 18.2889 100.561C18.2889 100.561 19.4281 101.856 18.0516 102.699C17.1378 103.257 15.1442 103.103 14.7407 105.835C14.361 108.376 16.9361 109.932 18.2652 110.347C21.8489 111.476 24.3172 110.739 26.3227 108.685C26.3227 108.685 29.9896 105.668 28.0315 100.205C25.5395 93.2576 19.3213 91.2268 13.6134 91.6187C13.6134 91.6187 1.44994 91.9394 0.892204 106.749C0.892204 106.749 0.607402 104.493 0.619268 103.459H0.595535Z" fill="#13604E"/>
<path d="M0.597656 64.4458C11.3608 64.4458 20.0948 73.1867 20.0948 83.9584C20.0948 94.7301 11.3608 103.471 0.597656 103.471V64.4458Z" fill="#4DD3B8"/>
<path d="M0.597656 63.947C11.6219 63.947 20.5932 72.9254 20.5932 83.9584C20.5932 94.9914 11.6219 103.958 0.597656 103.958V63.947ZM0.597656 102.972C11.076 102.972 19.5964 94.4451 19.5964 83.9584C19.5964 73.4717 11.0642 64.9327 0.597656 64.9327V102.972Z" fill="#13604E"/>
<path d="M265.368 103.471C276.136 103.471 284.865 94.7349 284.865 83.9584C284.865 73.1819 276.136 64.4458 265.368 64.4458C254.6 64.4458 245.871 73.1819 245.871 83.9584C245.871 94.7349 254.6 103.471 265.368 103.471Z" fill="#4DD3B8"/>
<path d="M245.383 83.9584C245.383 72.9254 254.354 63.947 265.378 63.947C276.403 63.947 285.374 72.9254 285.374 83.9584C285.374 94.9914 276.403 103.97 265.378 103.97C254.354 103.97 245.383 94.9914 245.383 83.9584ZM246.38 83.9584C246.38 94.4451 254.9 102.972 265.378 102.972C275.857 102.972 284.377 94.4451 284.377 83.9584C284.377 73.4717 275.857 64.9446 265.378 64.9446C254.9 64.9446 246.38 73.4717 246.38 83.9584Z" fill="#13604E"/>
<path d="M271.881 96.9629C279.057 96.9629 284.875 91.1406 284.875 83.9584C284.875 76.7763 279.057 70.954 271.881 70.954C264.704 70.954 258.887 76.7763 258.887 83.9584C258.887 91.1406 264.704 96.9629 271.881 96.9629Z" fill="#13604E"/>
<path d="M284.864 83.9585C295.632 83.9585 304.361 75.2224 304.361 64.4458C304.361 53.6693 295.632 44.9332 284.864 44.9332C274.096 44.9332 265.367 53.6693 265.367 64.4458C265.367 75.2224 274.096 83.9585 284.864 83.9585Z" fill="#4DD3B8"/>
<path d="M264.867 64.4459C264.867 53.4129 273.838 44.4344 284.863 44.4344C295.887 44.4344 304.858 53.4129 304.858 64.4459C304.858 75.4789 295.887 84.4573 284.863 84.4573C273.838 84.4573 264.867 75.4789 264.867 64.4459ZM265.864 64.4459C265.864 74.9326 274.384 83.4597 284.863 83.4597C295.341 83.4597 303.861 74.9326 303.861 64.4459C303.861 53.9592 295.341 45.4321 284.863 45.4321C274.384 45.4321 265.864 53.9592 265.864 64.4459Z" fill="#13604E"/>
<path d="M284.864 122.984C295.632 122.984 304.361 114.248 304.361 103.471C304.361 92.6946 295.632 83.9585 284.864 83.9585C274.096 83.9585 265.367 92.6946 265.367 103.471C265.367 114.248 274.096 122.984 284.864 122.984Z" fill="#4DD3B8"/>
<path d="M264.867 103.471C264.867 92.4381 273.838 83.4597 284.863 83.4597C295.887 83.4597 304.858 92.4381 304.858 103.471C304.858 114.504 295.887 123.483 284.863 123.483C273.838 123.483 264.867 114.504 264.867 103.471ZM265.864 103.471C265.864 113.958 274.384 122.485 284.863 122.485C295.341 122.485 303.861 113.958 303.861 103.471C303.861 92.9844 295.341 84.4573 284.863 84.4573C274.384 84.4573 265.864 92.9844 265.864 103.471Z" fill="#13604E"/>
<path d="M304.362 64.4459C304.362 64.4459 304.813 52.4153 291.38 51.4414C277.804 50.4557 274.577 60.8236 274.221 62.6525C273.793 64.8496 273.936 67.1061 275.917 70.2414C276.713 71.5003 278.611 74.2319 283.821 75.0157C283.821 75.0157 291.902 75.752 293.528 67.7356C293.528 67.7356 294.169 62.1775 288.912 61.1324C288.912 61.1324 287.333 60.883 286.669 61.5481C286.669 61.5481 285.53 62.8426 286.906 63.6858C287.82 64.244 289.813 64.0896 290.217 66.8211C290.597 69.3626 288.022 70.9184 286.692 71.3341C283.109 72.4623 280.64 71.726 278.635 69.6714C278.635 69.6714 274.968 66.6548 276.926 61.1918C279.418 54.2442 285.636 52.2134 291.344 52.6053C291.344 52.6053 303.508 52.9259 304.065 67.7356C304.065 67.7356 304.35 65.4791 304.338 64.4459H304.362Z" fill="#13604E"/>
<path d="M304.362 103.459C304.362 103.459 304.813 91.4287 291.38 90.4548C277.804 89.4691 274.577 99.837 274.221 101.666C273.793 103.863 273.936 106.12 275.917 109.255C276.713 110.514 278.611 113.245 283.821 114.029C283.821 114.029 291.902 114.765 293.528 106.749C293.528 106.749 294.169 101.191 288.912 100.146C288.912 100.146 287.333 99.8964 286.669 100.561C286.669 100.561 285.53 101.856 286.906 102.699C287.82 103.257 289.813 103.103 290.217 105.835C290.597 108.376 288.022 109.932 286.692 110.347C283.109 111.476 280.64 110.739 278.635 108.685C278.635 108.685 274.968 105.668 276.926 100.205C279.418 93.2576 285.636 91.2268 291.344 91.6187C291.344 91.6187 303.508 91.9394 304.065 106.749C304.065 106.749 304.35 104.493 304.338 103.459H304.362Z" fill="#13604E"/>
<path d="M304.36 64.4458C293.597 64.4458 284.863 73.1867 284.863 83.9584C284.863 94.7301 293.597 103.471 304.36 103.471V64.4458Z" fill="#4DD3B8"/>
<path d="M304.359 103.958C293.335 103.958 284.363 94.9796 284.363 83.9466C284.363 72.9136 293.335 63.9352 304.359 63.9352V103.958ZM304.359 64.9328C293.88 64.9328 285.36 73.4599 285.36 83.9466C285.36 94.4333 293.88 102.96 304.359 102.96V64.9328Z" fill="#13604E"/>
</g>
<path d="M12.4237 44.4344H292.575V123.566H12.4237V44.4344ZM12.4237 43.033C11.6524 43.033 11.0234 43.6624 11.0234 44.4344V123.566C11.0234 124.338 11.6524 124.967 12.4237 124.967H292.575C293.346 124.967 293.975 124.338 293.975 123.566V44.4344C293.975 43.6624 293.346 43.033 292.575 43.033H12.4237Z" fill="#0F594B"/>
</g>
<path d="M151.978 78.5352H148.951V77.2656H151.978V78.5352ZM151.978 82.2266H148.951V80.9375H151.978V82.2266ZM149.4 85.4297H147.877V74.2188H149.4V85.4297ZM143.912 85.5469C145.084 85.5469 146.096 85.6673 146.949 85.9082C147.802 86.1491 148.456 86.4941 148.912 86.9434C149.367 87.3926 149.595 87.9297 149.595 88.5547C149.595 89.1797 149.367 89.7135 148.912 90.1562C148.456 90.599 147.802 90.9408 146.949 91.1816C146.096 91.4225 145.084 91.543 143.912 91.543C142.733 91.543 141.718 91.4225 140.865 91.1816C140.018 90.9408 139.367 90.599 138.912 90.1562C138.456 89.7135 138.228 89.1797 138.228 88.5547C138.228 87.9297 138.456 87.3926 138.912 86.9434C139.367 86.4941 140.018 86.1491 140.865 85.9082C141.718 85.6673 142.733 85.5469 143.912 85.5469ZM143.912 86.7578C143.046 86.7578 142.3 86.8262 141.675 86.9629C141.057 87.0996 140.578 87.3047 140.24 87.5781C139.908 87.8516 139.745 88.1771 139.752 88.5547C139.745 88.9258 139.908 89.248 140.24 89.5215C140.578 89.7884 141.06 89.9935 141.685 90.1367C142.31 90.2799 143.052 90.3516 143.912 90.3516C144.771 90.3516 145.513 90.2799 146.138 90.1367C146.763 89.9935 147.242 89.7884 147.574 89.5215C147.906 89.248 148.072 88.9258 148.072 88.5547C148.072 88.1771 147.906 87.8516 147.574 87.5781C147.242 87.3047 146.763 87.0996 146.138 86.9629C145.513 86.8262 144.771 86.7578 143.912 86.7578ZM146.216 77.4219H135.865V76.2109H146.216V77.4219ZM141.041 78.3203C141.867 78.3203 142.593 78.4473 143.218 78.7012C143.85 78.9551 144.338 79.3132 144.683 79.7754C145.035 80.2376 145.214 80.7747 145.22 81.3867C145.214 82.0052 145.035 82.5456 144.683 83.0078C144.338 83.4635 143.85 83.8184 143.218 84.0723C142.593 84.3262 141.867 84.4531 141.041 84.4531C140.207 84.4531 139.475 84.3262 138.843 84.0723C138.212 83.8184 137.724 83.4635 137.378 83.0078C137.033 82.5456 136.861 82.0052 136.861 81.3867C136.861 80.7747 137.033 80.2376 137.378 79.7754C137.724 79.3132 138.212 78.9551 138.843 78.7012C139.475 78.4473 140.207 78.3203 141.041 78.3203ZM141.041 79.4727C140.5 79.4792 140.022 79.5638 139.605 79.7266C139.195 79.8828 138.879 80.1042 138.658 80.3906C138.436 80.6771 138.326 81.0091 138.326 81.3867C138.326 81.7643 138.436 82.0931 138.658 82.373C138.879 82.653 139.195 82.8711 139.605 83.0273C140.022 83.1836 140.5 83.2617 141.041 83.2617C141.574 83.2617 142.05 83.1836 142.466 83.0273C142.883 82.8711 143.202 82.653 143.423 82.373C143.651 82.0931 143.768 81.7643 143.775 81.3867C143.768 81.0091 143.651 80.6771 143.423 80.3906C143.202 80.1042 142.883 79.8828 142.466 79.7266C142.05 79.5638 141.574 79.4792 141.041 79.4727ZM141.802 76.9141H140.279V74.082H141.802V76.9141ZM169.009 89.4336H153.111V88.1445H169.009V89.4336ZM161.763 88.7109H160.259V84.4141H161.763V88.7109ZM166.998 80.7617H156.627V84.2773H155.103V79.5117H165.494V76.7773H155.064V75.5078H166.998V80.7617ZM167.408 84.8633H155.103V83.5938H167.408V84.8633Z" fill="white"/>
<path d="M14.1436 20.616H12.6105V3.22652H14.1436V20.616ZM17.0442 11.3757H13.7983V10.0912H17.0442V11.3757ZM2.83149 14.9669C4.53039 14.9669 5.98987 14.9231 7.20995 14.8356C8.43462 14.7482 9.67772 14.5893 10.9392 14.3591L11.1326 15.6851C9.84346 15.9153 8.58195 16.0695 7.34807 16.1478C6.11418 16.2261 4.60866 16.2652 2.83149 16.2652H1.46409V14.9669H2.83149ZM9.57182 6.18232H2.99724V15.5608H1.46409V4.92541H9.57182V6.18232ZM19.8266 19.1105C19.601 19.1105 19.3892 19.0529 19.1912 18.9378C18.9979 18.8227 18.8436 18.6708 18.7285 18.482C18.618 18.2887 18.5651 18.0792 18.5697 17.8536C18.5651 17.628 18.618 17.4185 18.7285 17.2251C18.8436 17.0272 18.9979 16.8729 19.1912 16.7624C19.3892 16.6519 19.601 16.5967 19.8266 16.5967C20.0522 16.5967 20.2617 16.6519 20.455 16.7624C20.653 16.8729 20.8073 17.0272 20.9178 17.2251C21.0283 17.4185 21.0835 17.628 21.0835 17.8536C21.0835 18.0792 21.0283 18.2887 20.9178 18.482C20.8073 18.6708 20.653 18.8227 20.455 18.9378C20.2617 19.0529 20.0522 19.1105 19.8266 19.1105Z" fill="white"/>
<defs>
<clipPath id="clip0_529_620">
<rect width="305" height="104" fill="white" transform="translate(0 32)"/>
</clipPath>
</defs>
</svg>
