<svg width="305" height="136" viewBox="0 0 305 136" fill="none" xmlns="http://www.w3.org/2000/svg">
<g clip-path="url(#clip0_385_1704)">
<path d="M1.41202 134.599L303.6 134.599V33.4014L1.41202 33.4014V134.599Z" fill="#4AE6CA"/>
<path d="M2.63443 33.4014H302.366C303.042 33.4014 303.6 33.9477 303.6 34.6365V133.363C303.6 134.04 303.054 134.599 302.366 134.599H2.63443C1.95802 134.599 1.40028 134.052 1.40028 133.363V34.6365C1.40028 33.9596 1.94615 33.4014 2.63443 33.4014ZM2.63443 32C1.17481 32 0 33.1757 0 34.6365V133.363C0 134.812 1.17481 136 2.63443 136H302.366C303.813 136 305 134.824 305 133.363V34.6365C305 33.1757 303.813 32 302.366 32H2.63443Z" fill="#0F594B"/>
<path d="M12.4247 123.566L292.576 123.566V44.4345L12.4247 44.4345V123.566Z" fill="#0F594B"/>
<mask id="mask0_385_1704" style="mask-type:luminance" maskUnits="userSpaceOnUse" x="12" y="44" width="281" height="80">
<path d="M12.4242 123.565L292.575 123.565V44.4342L12.4242 44.4342V123.565Z" fill="white"/>
</mask>
<g mask="url(#mask0_385_1704)">
<path d="M39.5752 103.471C50.3432 103.471 59.0724 94.7349 59.0724 83.9584C59.0724 73.1819 50.3432 64.4458 39.5752 64.4458C28.8073 64.4458 20.0781 73.1819 20.0781 83.9584C20.0781 94.7349 28.8073 103.471 39.5752 103.471Z" fill="#4DD3B8"/>
<path d="M39.5873 103.958C28.5631 103.958 19.5918 94.9795 19.5918 83.9465C19.5918 72.9135 28.5631 63.9351 39.5873 63.9351C50.6116 63.9351 59.5828 72.9135 59.5828 83.9465C59.5828 94.9795 50.6116 103.958 39.5873 103.958ZM39.5873 64.9327C29.109 64.9327 20.5886 73.4598 20.5886 83.9465C20.5886 94.4332 29.109 102.96 39.5873 102.96C50.0657 102.96 58.586 94.4332 58.586 83.9465C58.586 73.4598 50.0657 64.9327 39.5873 64.9327Z" fill="#13604E"/>
<path d="M33.0723 96.9628C40.2487 96.9628 46.0664 91.1405 46.0664 83.9583C46.0664 76.7762 40.2487 70.9539 33.0723 70.9539C25.8958 70.9539 20.0781 76.7762 20.0781 83.9583C20.0781 91.1405 25.8958 96.9628 33.0723 96.9628Z" fill="#13604E"/>
<path d="M20.0904 83.9583C30.8583 83.9583 39.5875 75.2222 39.5875 64.4457C39.5875 53.6692 30.8583 44.9331 20.0904 44.9331C9.32242 44.9331 0.593262 53.6692 0.593262 64.4457C0.593262 75.2222 9.32242 83.9583 20.0904 83.9583Z" fill="#4DD3B8"/>
<path d="M20.0903 84.4453C9.06601 84.4453 0.0947266 75.4787 0.0947266 64.4457C0.0947266 53.4127 9.06601 44.4343 20.0903 44.4343C31.1145 44.4343 40.0858 53.4127 40.0858 64.4457C40.0858 75.4787 31.1145 84.4572 20.0903 84.4572V84.4453ZM20.0903 45.4201C9.61189 45.4319 1.09154 53.959 1.09154 64.4457C1.09154 74.9324 9.61189 83.4596 20.0903 83.4596C30.5686 83.4596 39.089 74.9324 39.089 64.4457C39.089 53.959 30.5686 45.4319 20.0903 45.4319V45.4201Z" fill="#13604E"/>
<path d="M20.0904 122.983C30.8583 122.983 39.5875 114.247 39.5875 103.471C39.5875 92.6943 30.8583 83.9583 20.0904 83.9583C9.32242 83.9583 0.593262 92.6943 0.593262 103.471C0.593262 114.247 9.32242 122.983 20.0904 122.983Z" fill="#4DD3B8"/>
<path d="M20.0903 123.47C9.06601 123.47 0.0947266 114.504 0.0947266 103.471C0.0947266 92.4379 9.06601 83.4595 20.0903 83.4595C31.1145 83.4595 40.0858 92.4379 40.0858 103.471C40.0858 114.504 31.1145 123.482 20.0903 123.482V123.47ZM20.0903 84.4452C9.61189 84.4452 1.09154 92.9842 1.09154 103.471C1.09154 113.958 9.61189 122.485 20.0903 122.485C30.5686 122.485 39.089 113.958 39.089 103.471C39.089 92.9842 30.5686 84.4571 20.0903 84.4571V84.4452Z" fill="#13604E"/>
<path d="M0.593229 64.4459C0.593229 64.4459 0.130424 52.4153 13.5755 51.4414C27.1511 50.4557 30.3788 60.8236 30.7349 62.6525C31.1621 64.8496 31.0197 67.1061 29.0379 70.2414C28.2428 71.5003 26.3441 74.2319 21.1346 75.0157C21.1346 75.0157 13.0534 75.752 11.4276 67.7356C11.4276 67.7356 10.7868 62.1775 16.0438 61.1324C16.0438 61.1324 17.6221 60.883 18.2866 61.5481C18.2866 61.5481 19.4258 62.8426 18.0493 63.6858C17.1355 64.244 15.1419 64.0896 14.7384 66.8211C14.3587 69.3626 16.9338 70.9184 18.2629 71.3341C21.8466 72.4623 24.3149 71.726 26.3204 69.6714C26.3204 69.6714 29.9872 66.6548 28.0292 61.1918C25.5372 54.2442 19.319 52.2134 13.6111 52.6053C13.6111 52.6053 1.44764 52.9259 0.889898 67.7356C0.889898 67.7356 0.605095 65.4791 0.616962 64.4459H0.593229Z" fill="#13604E"/>
<path d="M0.593093 103.459C0.593093 103.459 0.142155 91.4284 13.5754 90.4546C27.1509 89.4689 30.3787 99.8368 30.7347 101.666C31.1619 103.863 31.0195 106.119 29.0378 109.255C28.2427 110.514 26.344 113.245 21.1345 114.029C21.1345 114.029 13.0532 114.765 11.4275 106.749C11.4275 106.749 10.7867 101.191 16.0436 100.146C16.0436 100.146 17.6219 99.8962 18.2865 100.561C18.2865 100.561 19.4257 101.856 18.0491 102.699C17.1354 103.257 15.1418 103.103 14.7383 105.834C14.3586 108.376 16.9337 109.932 18.2627 110.347C21.8465 111.475 24.3148 110.739 26.3203 108.685C26.3203 108.685 29.9871 105.668 28.0291 100.205C25.5371 93.2574 19.3189 91.2265 13.611 91.6185C13.611 91.6185 1.4475 91.9391 0.889763 106.749C0.889763 106.749 0.60496 104.492 0.616827 103.459H0.593093Z" fill="#13604E"/>
<path d="M0.593262 64.4458C11.3564 64.4458 20.0904 73.1867 20.0904 83.9584C20.0904 94.7301 11.3564 103.471 0.593262 103.471V64.4458Z" fill="#4DD3B8"/>
<path d="M0.593262 63.947C11.6175 63.947 20.5888 72.9254 20.5888 83.9584C20.5888 94.9914 11.6175 103.958 0.593262 103.958V63.947ZM0.593262 102.972C11.0716 102.972 19.592 94.4451 19.592 83.9584C19.592 73.4717 11.0598 64.9327 0.593262 64.9327V102.972Z" fill="#13604E"/>
<path d="M265.364 103.471C276.132 103.471 284.861 94.7349 284.861 83.9584C284.861 73.1819 276.132 64.4458 265.364 64.4458C254.596 64.4458 245.867 73.1819 245.867 83.9584C245.867 94.7349 254.596 103.471 265.364 103.471Z" fill="#4DD3B8"/>
<path d="M245.381 83.9584C245.381 72.9254 254.352 63.947 265.376 63.947C276.401 63.947 285.372 72.9254 285.372 83.9584C285.372 94.9914 276.401 103.97 265.376 103.97C254.352 103.97 245.381 94.9914 245.381 83.9584ZM246.378 83.9584C246.378 94.4451 254.898 102.972 265.376 102.972C275.855 102.972 284.375 94.4451 284.375 83.9584C284.375 73.4717 275.855 64.9446 265.376 64.9446C254.898 64.9446 246.378 73.4717 246.378 83.9584Z" fill="#13604E"/>
<path d="M271.879 96.963C279.056 96.963 284.873 91.1407 284.873 83.9586C284.873 76.7764 279.056 70.9541 271.879 70.9541C264.703 70.9541 258.885 76.7764 258.885 83.9586C258.885 91.1407 264.703 96.963 271.879 96.963Z" fill="#13604E"/>
<path d="M284.862 83.9583C295.63 83.9583 304.359 75.2222 304.359 64.4457C304.359 53.6692 295.63 44.9331 284.862 44.9331C274.094 44.9331 265.365 53.6692 265.365 64.4457C265.365 75.2222 274.094 83.9583 284.862 83.9583Z" fill="#4DD3B8"/>
<path d="M264.866 64.4457C264.866 53.4127 273.838 44.4343 284.862 44.4343C295.886 44.4343 304.857 53.4127 304.857 64.4457C304.857 75.4787 295.886 84.4572 284.862 84.4572C273.838 84.4572 264.866 75.4787 264.866 64.4457ZM265.863 64.4457C265.863 74.9324 274.383 83.4596 284.862 83.4596C295.34 83.4596 303.86 74.9324 303.86 64.4457C303.86 53.959 295.34 45.4319 284.862 45.4319C274.383 45.4319 265.863 53.959 265.863 64.4457Z" fill="#13604E"/>
<path d="M284.862 122.983C295.63 122.983 304.359 114.247 304.359 103.471C304.359 92.6943 295.63 83.9583 284.862 83.9583C274.094 83.9583 265.365 92.6943 265.365 103.471C265.365 114.247 274.094 122.983 284.862 122.983Z" fill="#4DD3B8"/>
<path d="M264.866 103.471C264.866 92.4379 273.838 83.4595 284.862 83.4595C295.886 83.4595 304.857 92.4379 304.857 103.471C304.857 114.504 295.886 123.482 284.862 123.482C273.838 123.482 264.866 114.504 264.866 103.471ZM265.863 103.471C265.863 113.958 274.383 122.485 284.862 122.485C295.34 122.485 303.86 113.958 303.86 103.471C303.86 92.9842 295.34 84.4571 284.862 84.4571C274.383 84.4571 265.863 92.9842 265.863 103.471Z" fill="#13604E"/>
<path d="M304.359 64.4459C304.359 64.4459 304.81 52.4153 291.376 51.4414C277.801 50.4557 274.573 60.8236 274.217 62.6525C273.79 64.8496 273.932 67.1061 275.914 70.2414C276.709 71.5003 278.608 74.2319 283.817 75.0157C283.817 75.0157 291.899 75.752 293.524 67.7356C293.524 67.7356 294.165 62.1775 288.908 61.1324C288.908 61.1324 287.33 60.883 286.665 61.5481C286.665 61.5481 285.526 62.8426 286.903 63.6858C287.816 64.244 289.81 64.0896 290.214 66.8211C290.593 69.3626 288.018 70.9184 286.689 71.3341C283.105 72.4623 280.637 71.726 278.632 69.6714C278.632 69.6714 274.965 66.6548 276.923 61.1918C279.415 54.2442 285.633 52.2134 291.341 52.6053C291.341 52.6053 303.504 52.9259 304.062 67.7356C304.062 67.7356 304.347 65.4791 304.335 64.4459H304.359Z" fill="#13604E"/>
<path d="M304.359 103.459C304.359 103.459 304.81 91.4284 291.376 90.4546C277.801 89.4689 274.573 99.8368 274.217 101.666C273.79 103.863 273.932 106.119 275.914 109.255C276.709 110.514 278.608 113.245 283.817 114.029C283.817 114.029 291.899 114.765 293.524 106.749C293.524 106.749 294.165 101.191 288.908 100.146C288.908 100.146 287.33 99.8962 286.665 100.561C286.665 100.561 285.526 101.856 286.903 102.699C287.816 103.257 289.81 103.103 290.214 105.834C290.593 108.376 288.018 109.932 286.689 110.347C283.105 111.475 280.637 110.739 278.632 108.685C278.632 108.685 274.965 105.668 276.923 100.205C279.415 93.2574 285.633 91.2265 291.341 91.6185C291.341 91.6185 303.504 91.9391 304.062 106.749C304.062 106.749 304.347 104.492 304.335 103.459H304.359Z" fill="#13604E"/>
<path d="M304.359 64.4458C293.596 64.4458 284.862 73.1867 284.862 83.9584C284.862 94.7301 293.596 103.471 304.359 103.471V64.4458Z" fill="#4DD3B8"/>
<path d="M304.359 103.958C293.335 103.958 284.363 94.9795 284.363 83.9465C284.363 72.9135 293.335 63.9351 304.359 63.9351V103.958ZM304.359 64.9327C293.88 64.9327 285.36 73.4598 285.36 83.9465C285.36 94.4332 293.88 102.96 304.359 102.96V64.9327Z" fill="#13604E"/>
</g>
<path d="M12.4247 44.4344H292.576V123.566H12.4247V44.4344ZM12.4247 43.033C11.6534 43.033 11.0244 43.6624 11.0244 44.4344V123.566C11.0244 124.338 11.6534 124.967 12.4247 124.967H292.576C293.347 124.967 293.976 124.338 293.976 123.566V44.4344C293.976 43.6624 293.347 43.033 292.576 43.033H12.4247Z" fill="#0F594B"/>
</g>
<path d="M93.2891 74.0718H91.7559V61.2403H93.2891V74.0718ZM93.8277 78.2017H82.0736V76.9309H93.8277V78.2017ZM83.6068 77.5939H82.0736V72.8702H83.6068V77.5939ZM85.0018 65.2735C84.9972 66.2956 84.7877 67.2532 84.3733 68.1464C83.9636 69.0396 83.3881 69.8154 82.6468 70.4738C81.9056 71.1321 81.0515 71.6271 80.0847 71.9586L79.3112 70.7569C80.1721 70.4715 80.9364 70.0525 81.604 69.5C82.2762 68.9475 82.7987 68.3052 83.1717 67.5732C83.5446 66.8412 83.7311 66.0746 83.7311 65.2735V64.5414H85.0018V65.2735ZM85.2504 65.2735C85.2504 66.0285 85.4415 66.7491 85.8236 67.4351C86.2057 68.1211 86.7329 68.7242 87.4051 69.2445C88.0819 69.7647 88.8508 70.1584 89.7117 70.4254L88.9521 71.6547C87.976 71.337 87.115 70.8674 86.3692 70.2459C85.6233 69.6197 85.0409 68.8808 84.6219 68.029C84.2076 67.1727 84.0027 66.2541 84.0073 65.2735V64.5414H85.2504V65.2735ZM89.2421 64.8177H79.7255V63.5746H89.2421V64.8177ZM85.278 64.1961H83.7311V61.3094H85.278V64.1961ZM109.179 63.6298H98.2262V62.3591H109.179V63.6298ZM112.066 71.0884H96.2372V69.8177H112.066V71.0884ZM104.884 78.616H103.35V70.6464H104.884V78.616ZM109.966 63.9751C109.966 64.7578 109.955 65.4507 109.932 66.0539C109.909 66.657 109.849 67.3453 109.752 68.1188C109.656 68.8877 109.506 69.7164 109.304 70.605L107.77 70.4116C107.978 69.5506 108.129 68.7426 108.226 67.9876C108.327 67.2279 108.39 66.5534 108.413 65.9641C108.436 65.3702 108.447 64.6934 108.447 63.9337V63.8785V62.3591H109.966V63.8785V63.9751ZM119.199 62.4972C120.102 62.4972 120.907 62.6676 121.616 63.0083C122.325 63.349 122.878 63.8301 123.274 64.4517C123.674 65.0686 123.877 65.7753 123.881 66.5718C123.877 67.3683 123.674 68.075 123.274 68.692C122.878 69.3043 122.325 69.7831 121.616 70.1285C120.907 70.4738 120.102 70.6464 119.199 70.6464C118.297 70.6464 117.489 70.4738 116.775 70.1285C116.062 69.7831 115.504 69.302 115.104 68.6851C114.708 68.0681 114.512 67.3637 114.517 66.5718C114.512 65.7799 114.708 65.0732 115.104 64.4517C115.504 63.8301 116.062 63.349 116.775 63.0083C117.489 62.6676 118.297 62.4972 119.199 62.4972ZM119.199 63.837C118.587 63.837 118.039 63.9521 117.556 64.1823C117.077 64.4125 116.699 64.7371 116.423 65.1561C116.151 65.5704 116.018 66.0424 116.022 66.5718C116.018 67.1013 116.151 67.5755 116.423 67.9945C116.699 68.4088 117.077 68.7311 117.556 68.9613C118.039 69.1915 118.587 69.3066 119.199 69.3066C119.807 69.3066 120.352 69.1915 120.836 68.9613C121.319 68.7311 121.697 68.4088 121.969 67.9945C122.24 67.5755 122.376 67.1013 122.376 66.5718C122.376 66.0424 122.24 65.5704 121.969 65.1561C121.697 64.7371 121.319 64.4125 120.836 64.1823C120.352 63.9521 119.807 63.837 119.199 63.837ZM127.763 78.616H126.23V61.2265H127.763V78.616ZM113.619 73.4779C114.977 73.4825 116.264 73.4756 117.48 73.4572C118.7 73.4342 119.975 73.3789 121.306 73.2914C122.636 73.204 123.895 73.0727 125.083 72.8978L125.207 74.0304C123.983 74.2606 122.712 74.4309 121.395 74.5414C120.079 74.6519 118.847 74.721 117.701 74.7486C116.554 74.7762 115.263 74.7901 113.826 74.7901L113.619 73.4779ZM140.758 64.6796C140.753 65.5359 140.585 66.3831 140.254 67.221C139.927 68.0589 139.455 68.8163 138.838 69.4931C138.226 70.1699 137.508 70.6878 136.683 71.047L135.841 69.8591C136.582 69.5322 137.231 69.0879 137.788 68.5262C138.35 67.9599 138.781 67.3407 139.08 66.6685C139.379 65.9917 139.529 65.3287 139.529 64.6796V62.3177H140.758V64.6796ZM141.007 64.6796C141.007 65.3241 141.152 65.9549 141.442 66.5718C141.732 67.1888 142.146 67.7436 142.685 68.2362C143.223 68.7242 143.857 69.1041 144.584 69.3757L143.769 70.5635C142.94 70.2459 142.227 69.7855 141.628 69.1823C141.03 68.5746 140.572 67.884 140.254 67.1105C139.941 66.3324 139.787 65.5221 139.791 64.6796V62.3177H141.007V64.6796ZM150.565 71.9586H149.114V61.2403H150.565V71.9586ZM149.598 67.1796H146.269V65.9088H149.598V67.1796ZM146.794 71.4061H145.357V61.5718H146.794V71.4061ZM144.833 72.3453C146.025 72.3453 147.059 72.4673 147.933 72.7113C148.813 72.9553 149.487 73.3122 149.957 73.7818C150.427 74.2468 150.661 74.8039 150.661 75.453C150.661 76.0976 150.427 76.6524 149.957 77.1174C149.487 77.5824 148.813 77.9369 147.933 78.1809C147.059 78.425 146.025 78.547 144.833 78.547C143.631 78.547 142.59 78.425 141.711 78.1809C140.836 77.9369 140.164 77.5824 139.694 77.1174C139.229 76.6524 138.999 76.0976 139.004 75.453C138.999 74.8039 139.229 74.2468 139.694 73.7818C140.164 73.3122 140.836 72.9553 141.711 72.7113C142.59 72.4673 143.631 72.3453 144.833 72.3453ZM144.833 73.5331C143.949 73.5331 143.182 73.6091 142.533 73.761C141.884 73.913 141.384 74.134 141.034 74.424C140.689 74.7141 140.519 75.0571 140.523 75.453C140.519 75.8444 140.689 76.1851 141.034 76.4751C141.384 76.7606 141.884 76.977 142.533 77.1243C143.182 77.2762 143.949 77.3499 144.833 77.3453C145.707 77.3499 146.469 77.2762 147.118 77.1243C147.768 76.977 148.265 76.7606 148.61 76.4751C148.96 76.1851 149.137 75.8444 149.142 75.453C149.137 75.0571 148.96 74.7141 148.61 74.424C148.265 74.134 147.768 73.913 147.118 73.761C146.469 73.6091 145.707 73.5331 144.833 73.5331ZM158.029 61.8619C158.886 61.8665 159.657 62.0322 160.343 62.3591C161.029 62.6814 161.563 63.1349 161.945 63.7196C162.332 64.3043 162.527 64.9696 162.532 65.7155C162.527 66.4613 162.332 67.1243 161.945 67.7044C161.563 68.2845 161.029 68.7357 160.343 69.058C159.657 69.3803 158.886 69.5414 158.029 69.5414C157.164 69.5414 156.388 69.3803 155.702 69.058C155.016 68.7357 154.48 68.2845 154.093 67.7044C153.706 67.1243 153.513 66.4613 153.513 65.7155C153.513 64.9696 153.706 64.3043 154.093 63.7196C154.48 63.1349 155.016 62.6814 155.702 62.3591C156.388 62.0322 157.164 61.8665 158.029 61.8619ZM158.029 63.1602C157.454 63.1556 156.936 63.2615 156.475 63.4779C156.02 63.6897 155.661 63.9936 155.398 64.3895C155.14 64.7808 155.014 65.2228 155.018 65.7155C155.014 66.2127 155.14 66.657 155.398 67.0483C155.661 67.4397 156.02 67.7436 156.475 67.9599C156.936 68.1763 157.454 68.2845 158.029 68.2845C158.6 68.2845 159.116 68.1763 159.576 67.9599C160.037 67.7436 160.396 67.4397 160.654 67.0483C160.911 66.657 161.04 66.2127 161.04 65.7155C161.04 65.2228 160.911 64.7808 160.654 64.3895C160.396 63.9936 160.037 63.6897 159.576 63.4779C159.116 63.2615 158.6 63.1556 158.029 63.1602ZM167.449 70.1354H165.916V61.2265H167.449V70.1354ZM167.449 75.163H157.698V77.8011H156.206V74.0028H165.93V72.221H156.151V70.9779H167.449V75.163ZM168.071 78.3536H156.206V77.1105H168.071V78.3536ZM188.994 69.9972H187.461V61.2265H188.994V69.9972ZM191.605 66.1436H188.566V64.8453H191.605V66.1436ZM177.806 68.6575H176.259V62H177.806V68.6575ZM177.641 67.8287C178.985 67.8379 180.309 67.785 181.612 67.6699C182.919 67.5548 184.257 67.3591 185.624 67.0829L185.817 68.3674C184.427 68.6529 183.071 68.8531 181.75 68.9682C180.433 69.0833 179.063 69.1409 177.641 69.1409H176.259V67.8287H177.641ZM188.994 75.0663H179.478V77.732H177.958V73.8646H187.461V72.0552H177.917V70.826H188.994V75.0663ZM189.63 78.3536H177.958V77.0967H189.63V78.3536ZM206.542 78.5884H205.009V61.2265H206.542V78.5884ZM209.014 69.4448H205.782V68.1326H209.014V69.4448ZM196.348 66.4475C196.344 67.5433 196.249 68.6275 196.065 69.7003C195.886 70.773 195.582 71.7767 195.154 72.7113C194.726 73.6459 194.162 74.3895 193.462 74.942L192.453 73.8232C193.121 73.326 193.657 72.6653 194.063 71.8412C194.472 71.017 194.762 70.14 194.933 69.2099C195.108 68.2799 195.197 67.3591 195.202 66.4475V63.768H196.348V66.4475ZM196.652 66.4475C196.652 67.3499 196.721 68.2569 196.86 69.1685C196.998 70.0801 197.258 70.9687 197.64 71.8343C198.027 72.6998 198.563 73.4042 199.249 73.9475L198.351 75.0939C197.619 74.523 197.044 73.7449 196.625 72.7597C196.21 71.7744 195.923 70.7431 195.761 69.6657C195.6 68.5838 195.52 67.511 195.52 66.4475V63.768H196.652V66.4475ZM201.183 66.4475C201.183 67.5571 201.104 68.6529 200.948 69.7348C200.791 70.8122 200.501 71.8343 200.078 72.8011C199.659 73.768 199.083 74.5322 198.351 75.0939L197.481 73.9475C198.153 73.4227 198.68 72.7343 199.063 71.8826C199.445 71.0308 199.707 70.1446 199.85 69.2238C199.997 68.3029 200.073 67.3775 200.078 66.4475V63.768H201.183V66.4475ZM201.528 66.4475C201.528 67.3959 201.613 68.3329 201.784 69.2583C201.954 70.1837 202.242 71.0539 202.647 71.8688C203.057 72.6837 203.6 73.3352 204.277 73.8232L203.268 74.942C202.564 74.3987 201.995 73.6667 201.563 72.7459C201.134 71.825 200.831 70.8283 200.651 69.7555C200.471 68.6782 200.382 67.5755 200.382 66.4475V63.768H201.528V66.4475ZM197.978 64.279H193.02V62.9945H197.978V64.279ZM203.558 64.279H198.738V62.9945H203.558V64.279ZM215.995 74.1133H214.462V69.9834H215.995V74.1133ZM215.222 62.3591C216.106 62.3637 216.898 62.5387 217.598 62.884C218.298 63.2247 218.845 63.7035 219.241 64.3204C219.642 64.9374 219.844 65.6418 219.849 66.4337C219.844 67.2256 219.642 67.93 219.241 68.547C218.845 69.1639 218.295 69.6427 217.591 69.9834C216.891 70.3241 216.101 70.4945 215.222 70.4945C214.324 70.4945 213.523 70.3241 212.819 69.9834C212.119 69.6427 211.571 69.1662 211.175 68.5539C210.784 67.9369 210.59 67.2302 210.595 66.4337C210.59 65.6372 210.784 64.9328 211.175 64.3204C211.571 63.7035 212.119 63.2247 212.819 62.884C213.523 62.5387 214.324 62.3637 215.222 62.3591ZM215.222 63.6713C214.619 63.6759 214.078 63.7956 213.599 64.0304C213.125 64.2606 212.752 64.5852 212.48 65.0041C212.213 65.4231 212.082 65.8996 212.087 66.4337C212.082 66.9678 212.213 67.4443 212.48 67.8633C212.752 68.2822 213.125 68.6091 213.599 68.8439C214.078 69.0741 214.619 69.1869 215.222 69.1823C215.816 69.1869 216.348 69.0741 216.817 68.8439C217.292 68.6091 217.662 68.2822 217.929 67.8633C218.201 67.4443 218.339 66.9678 218.344 66.4337C218.339 65.8996 218.201 65.4231 217.929 65.0041C217.662 64.5852 217.292 64.2606 216.817 64.0304C216.348 63.7956 215.816 63.6759 215.222 63.6713ZM223.399 78.5884H221.879V61.2265H223.399V78.5884ZM226.23 69.7072H222.984V68.395H226.23V69.7072ZM210.719 73.5193C211.953 73.5101 213.113 73.4917 214.2 73.4641C215.286 73.4365 216.401 73.3858 217.542 73.3122C218.684 73.2385 219.757 73.1372 220.761 73.0083L220.871 74.1685C219.725 74.3619 218.523 74.5069 217.266 74.6036C216.014 74.7003 214.803 74.7601 213.634 74.7831C212.469 74.8062 211.267 74.8131 210.029 74.8039L209.766 73.5193H210.719ZM99.3943 109.616H97.8611V92.2265H99.3943V109.616ZM90.1677 93.5663C91.0241 93.5709 91.7884 93.8218 92.4606 94.3191C93.1327 94.8117 93.6576 95.5161 94.0351 96.4323C94.4127 97.3485 94.6014 98.4098 94.6014 99.616C94.6014 100.827 94.4127 101.89 94.0351 102.807C93.6576 103.718 93.1304 104.423 92.4537 104.92C91.7815 105.417 91.0195 105.666 90.1677 105.666C89.3068 105.666 88.5402 105.417 87.868 104.92C87.2004 104.423 86.6779 103.718 86.3003 102.807C85.9228 101.895 85.734 100.831 85.734 99.616C85.734 98.4052 85.9228 97.3439 86.3003 96.4323C86.6779 95.5161 87.2004 94.8117 87.868 94.3191C88.5402 93.8218 89.3068 93.5709 90.1677 93.5663ZM90.1677 94.9337C89.5922 94.9383 89.0789 95.1363 88.6277 95.5276C88.1811 95.9144 87.8335 96.4622 87.5849 97.1713C87.3362 97.8757 87.2119 98.6906 87.2119 99.616C87.2119 100.546 87.3362 101.366 87.5849 102.075C87.8335 102.784 88.1811 103.331 88.6277 103.718C89.0789 104.105 89.5922 104.298 90.1677 104.298C90.7432 104.298 91.252 104.105 91.694 103.718C92.1406 103.331 92.4882 102.784 92.7368 102.075C92.9854 101.366 93.1097 100.546 93.1097 99.616C93.1097 98.6906 92.9854 97.8757 92.7368 97.1713C92.4882 96.4622 92.1406 95.9144 91.694 95.5276C91.252 95.1363 90.7432 94.9383 90.1677 94.9337ZM118.24 102.448H102.342V101.191H118.24V102.448ZM116.196 96.7431H105.934V99.0635H104.414V95.5967H114.663V93.884H104.359V92.6547H116.196V96.7431ZM116.569 99.6851H104.414V98.4834H116.569V99.6851ZM116.196 109.354H104.511V104.036H116.196V109.354ZM106.016 108.097H114.69V105.279H106.016V108.097ZM127.556 92.5304C128.845 92.5304 129.948 92.6455 130.864 92.8757C131.78 93.1059 132.48 93.4466 132.963 93.8978C133.447 94.3444 133.688 94.8877 133.688 95.5276C133.688 96.1768 133.447 96.727 132.963 97.1782C132.48 97.6248 131.78 97.9678 130.864 98.2072C129.948 98.442 128.845 98.5617 127.556 98.5663C126.267 98.5617 125.164 98.442 124.248 98.2072C123.332 97.9678 122.629 97.6248 122.141 97.1782C121.653 96.727 121.409 96.1768 121.409 95.5276C121.409 94.8877 121.653 94.3444 122.141 93.8978C122.629 93.4466 123.332 93.1059 124.248 92.8757C125.164 92.6455 126.267 92.5304 127.556 92.5304ZM127.556 93.6906C126.607 93.6906 125.792 93.7643 125.111 93.9116C124.43 94.0589 123.907 94.2707 123.543 94.547C123.184 94.8186 123.007 95.1455 123.012 95.5276C123.007 95.9236 123.182 96.2597 123.536 96.5359C123.896 96.8122 124.416 97.0239 125.097 97.1713C125.779 97.3186 126.598 97.3923 127.556 97.3923C128.518 97.3923 129.34 97.3186 130.021 97.1713C130.707 97.0239 131.23 96.8122 131.589 96.5359C131.948 96.2597 132.128 95.9236 132.128 95.5276C132.128 95.1455 131.948 94.8186 131.589 94.547C131.23 94.2707 130.705 94.0589 130.014 93.9116C129.328 93.7643 128.509 93.6906 127.556 93.6906ZM135.484 100.983H119.655V99.7403H135.484V100.983ZM133.44 106.37H123.122V108.497H121.617V105.238H131.934V103.663H121.575V102.489H133.44V106.37ZM133.965 109.395H121.617V108.18H133.965V109.395ZM143.866 99.1464C145.233 99.1464 146.394 99.1142 147.347 99.0497C148.304 98.9807 149.285 98.8425 150.289 98.6354L150.399 99.8923C149.359 100.095 148.348 100.231 147.367 100.3C146.387 100.369 145.22 100.399 143.866 100.39H142.761V99.1464H143.866ZM149.377 94.5608H144.266V99.7265H142.761V93.2901H149.377V94.5608ZM156.697 101.329H155.247V92.2403H156.697V101.329ZM155.675 97.4061H152.347V96.1492H155.675V97.4061ZM152.816 101.149H151.366V92.5718H152.816V101.149ZM156.697 106.177H146.739V108.76H145.22V105.003H155.206V103.29H145.178V102.061H156.697V106.177ZM157.402 109.354H145.22V108.11H157.402V109.354ZM172.731 93.8425C172.731 94.8969 172.402 95.8637 171.744 96.7431C171.085 97.6179 170.218 98.3453 169.14 98.9254C168.068 99.5055 166.926 99.8969 165.715 100.099L165.079 98.8425C166.138 98.6952 167.154 98.3798 168.125 97.8964C169.097 97.413 169.884 96.8168 170.487 96.1077C171.09 95.3941 171.392 94.639 171.392 93.8425V92.8481H172.731V93.8425ZM172.98 93.8425C172.98 94.6252 173.284 95.3734 173.892 96.087C174.499 96.8006 175.289 97.4015 176.26 97.8895C177.236 98.3775 178.252 98.6952 179.306 98.8425L178.684 100.099C177.469 99.8969 176.323 99.5032 175.245 98.9185C174.168 98.3338 173.298 97.6017 172.635 96.7224C171.976 95.843 171.649 94.8831 171.654 93.8425V92.8481H172.98V93.8425ZM172.897 109.588H171.392V102.959H172.897V109.588ZM180.093 103.29H164.265V102.006H180.093V103.29ZM192.177 103.87C192.172 104.63 192.011 105.371 191.694 106.094C191.38 106.812 190.922 107.457 190.319 108.028C189.721 108.599 189.014 109.036 188.199 109.34L187.426 108.207C188.139 107.945 188.761 107.581 189.29 107.116C189.824 106.646 190.234 106.128 190.52 105.562C190.81 104.996 190.957 104.432 190.962 103.87V102.917H192.177V103.87ZM192.439 103.87C192.439 104.464 192.559 105.051 192.799 105.631C193.038 106.207 193.395 106.732 193.869 107.206C194.348 107.675 194.926 108.046 195.602 108.318L194.967 109.492C194.157 109.183 193.478 108.734 192.93 108.145C192.382 107.56 191.972 106.9 191.7 106.163C191.433 105.422 191.302 104.657 191.307 103.87V102.917H192.439V103.87ZM198.6 103.87C198.595 104.575 198.455 105.297 198.178 106.039C197.907 106.775 197.497 107.452 196.949 108.069C196.406 108.686 195.745 109.16 194.967 109.492L194.304 108.318C194.962 108.018 195.529 107.618 196.003 107.116C196.482 106.61 196.843 106.071 197.087 105.5C197.331 104.929 197.453 104.386 197.453 103.87V102.917H198.6V103.87ZM198.959 103.87C198.954 104.473 199.092 105.06 199.373 105.631C199.659 106.198 200.068 106.706 200.602 107.157C201.136 107.609 201.767 107.959 202.495 108.207L201.721 109.34C200.888 109.045 200.172 108.619 199.573 108.062C198.979 107.505 198.526 106.867 198.213 106.149C197.9 105.426 197.743 104.667 197.743 103.87V102.917H198.959V103.87ZM200.906 102.157H199.373V92.2403H200.906V102.157ZM191.528 93.2486C192.398 93.2486 193.178 93.419 193.869 93.7597C194.564 94.1004 195.105 94.5792 195.492 95.1961C195.879 95.8131 196.072 96.5175 196.072 97.3094C196.072 98.0921 195.879 98.7896 195.492 99.4019C195.105 100.014 194.564 100.491 193.869 100.831C193.178 101.172 192.398 101.343 191.528 101.343C190.658 101.343 189.875 101.172 189.18 100.831C188.489 100.491 187.948 100.014 187.557 99.4019C187.165 98.7896 186.97 98.0921 186.97 97.3094C186.97 96.5175 187.165 95.8131 187.557 95.1961C187.948 94.5792 188.489 94.1004 189.18 93.7597C189.875 93.419 190.658 93.2486 191.528 93.2486ZM191.528 94.5608C190.943 94.5562 190.416 94.6713 189.946 94.9061C189.481 95.1363 189.118 95.4632 188.855 95.8867C188.597 96.3057 188.471 96.7799 188.475 97.3094C188.471 97.8389 188.597 98.3131 188.855 98.732C189.118 99.1464 189.481 99.4733 189.946 99.7127C190.411 99.9475 190.938 100.067 191.528 100.072C192.113 100.067 192.635 99.9475 193.095 99.7127C193.56 99.4733 193.924 99.1464 194.187 98.732C194.449 98.3131 194.58 97.8389 194.58 97.3094C194.58 96.7799 194.449 96.3057 194.187 95.8867C193.924 95.4632 193.56 95.1363 193.095 94.9061C192.63 94.6713 192.108 94.5562 191.528 94.5608ZM217.294 109.616H215.76V92.2265H217.294V109.616ZM220.194 100.376H216.948V99.0912H220.194V100.376ZM205.981 103.967C207.68 103.967 209.14 103.923 210.36 103.836C211.585 103.748 212.828 103.589 214.089 103.359L214.283 104.685C212.993 104.915 211.732 105.07 210.498 105.148C209.264 105.226 207.759 105.265 205.981 105.265H204.614V103.967H205.981ZM212.722 95.1823H206.147V104.561H204.614V93.9254H212.722V95.1823Z" fill="white"/>
<path d="M14.1436 20.5746H12.6105V3.22652H14.1436V20.5746ZM16.9613 11.5829H13.7431V10.2845H16.9613V11.5829ZM9.6547 5.09116C9.65009 6.78085 9.36925 8.37615 8.81216 9.87707C8.25967 11.3734 7.3895 12.7546 6.20166 14.0207C5.01842 15.2822 3.50829 16.3665 1.67127 17.2735L0.814917 16.0718C2.42634 15.2707 3.77762 14.3292 4.86878 13.2472C5.95995 12.1653 6.77716 10.9613 7.32044 9.63536C7.86372 8.30939 8.13536 6.87753 8.13536 5.33978V5.09116H9.6547ZM8.92265 6.37569H1.62983V5.09116H8.92265V6.37569ZM19.8266 19.1105C19.601 19.1105 19.3892 19.0529 19.1912 18.9378C18.9979 18.8227 18.8436 18.6708 18.7285 18.482C18.618 18.2887 18.5651 18.0792 18.5697 17.8536C18.5651 17.628 18.618 17.4185 18.7285 17.2251C18.8436 17.0272 18.9979 16.8729 19.1912 16.7624C19.3892 16.6519 19.601 16.5967 19.8266 16.5967C20.0522 16.5967 20.2617 16.6519 20.455 16.7624C20.653 16.8729 20.8073 17.0272 20.9178 17.2251C21.0283 17.4185 21.0835 17.628 21.0835 17.8536C21.0835 18.0792 21.0283 18.2887 20.9178 18.482C20.8073 18.6708 20.653 18.8227 20.455 18.9378C20.2617 19.0529 20.0522 19.1105 19.8266 19.1105Z" fill="white"/>
<defs>
<clipPath id="clip0_385_1704">
<rect width="305" height="104" fill="white" transform="translate(0 32)"/>
</clipPath>
</defs>
</svg>
