<svg width="305" height="136" viewBox="0 0 305 136" fill="none" xmlns="http://www.w3.org/2000/svg">
<g clip-path="url(#clip0_380_1364)">
<path d="M1.41202 134.599L303.6 134.599V33.4014L1.41202 33.4014V134.599Z" fill="#4AE6CA"/>
<path d="M2.63443 33.4014H302.366C303.042 33.4014 303.6 33.9477 303.6 34.6365V133.363C303.6 134.04 303.054 134.599 302.366 134.599H2.63443C1.95802 134.599 1.40028 134.052 1.40028 133.363V34.6365C1.40028 33.9596 1.94615 33.4014 2.63443 33.4014ZM2.63443 32C1.17481 32 0 33.1757 0 34.6365V133.363C0 134.812 1.17481 136 2.63443 136H302.366C303.813 136 305 134.824 305 133.363V34.6365C305 33.1757 303.813 32 302.366 32H2.63443Z" fill="#0F594B"/>
<path d="M12.4247 123.566L292.576 123.566V44.4343L12.4247 44.4343V123.566Z" fill="#0F594B"/>
<mask id="mask0_380_1364" style="mask-type:luminance" maskUnits="userSpaceOnUse" x="12" y="44" width="281" height="80">
<path d="M12.4242 123.566L292.575 123.566V44.4345L12.4242 44.4345V123.566Z" fill="white"/>
</mask>
<g mask="url(#mask0_380_1364)">
<path d="M39.5752 103.471C50.3432 103.471 59.0724 94.7349 59.0724 83.9584C59.0724 73.1819 50.3432 64.4458 39.5752 64.4458C28.8073 64.4458 20.0781 73.1819 20.0781 83.9584C20.0781 94.7349 28.8073 103.471 39.5752 103.471Z" fill="#4DD3B8"/>
<path d="M39.5873 103.958C28.5631 103.958 19.5918 94.9796 19.5918 83.9466C19.5918 72.9136 28.5631 63.9352 39.5873 63.9352C50.6116 63.9352 59.5828 72.9136 59.5828 83.9466C59.5828 94.9796 50.6116 103.958 39.5873 103.958ZM39.5873 64.9328C29.109 64.9328 20.5886 73.4599 20.5886 83.9466C20.5886 94.4333 29.109 102.96 39.5873 102.96C50.0657 102.96 58.586 94.4333 58.586 83.9466C58.586 73.4599 50.0657 64.9328 39.5873 64.9328Z" fill="#13604E"/>
<path d="M33.0723 96.9629C40.2487 96.9629 46.0664 91.1406 46.0664 83.9584C46.0664 76.7763 40.2487 70.954 33.0723 70.954C25.8958 70.954 20.0781 76.7763 20.0781 83.9584C20.0781 91.1406 25.8958 96.9629 33.0723 96.9629Z" fill="#13604E"/>
<path d="M20.0904 83.9585C30.8583 83.9585 39.5875 75.2224 39.5875 64.4458C39.5875 53.6693 30.8583 44.9332 20.0904 44.9332C9.32242 44.9332 0.593262 53.6693 0.593262 64.4458C0.593262 75.2224 9.32242 83.9585 20.0904 83.9585Z" fill="#4DD3B8"/>
<path d="M20.0903 84.4454C9.06601 84.4454 0.0947266 75.4789 0.0947266 64.4459C0.0947266 53.4129 9.06601 44.4344 20.0903 44.4344C31.1145 44.4344 40.0858 53.4129 40.0858 64.4459C40.0858 75.4789 31.1145 84.4573 20.0903 84.4573V84.4454ZM20.0903 45.4202C9.61189 45.4321 1.09154 53.9592 1.09154 64.4459C1.09154 74.9326 9.61189 83.4597 20.0903 83.4597C30.5686 83.4597 39.089 74.9326 39.089 64.4459C39.089 53.9592 30.5686 45.4321 20.0903 45.4321V45.4202Z" fill="#13604E"/>
<path d="M20.0904 122.984C30.8583 122.984 39.5875 114.248 39.5875 103.471C39.5875 92.6946 30.8583 83.9585 20.0904 83.9585C9.32242 83.9585 0.593262 92.6946 0.593262 103.471C0.593262 114.248 9.32242 122.984 20.0904 122.984Z" fill="#4DD3B8"/>
<path d="M20.0903 123.471C9.06601 123.471 0.0947266 114.504 0.0947266 103.471C0.0947266 92.4381 9.06601 83.4597 20.0903 83.4597C31.1145 83.4597 40.0858 92.4381 40.0858 103.471C40.0858 114.504 31.1145 123.483 20.0903 123.483V123.471ZM20.0903 84.4454C9.61189 84.4454 1.09154 92.9844 1.09154 103.471C1.09154 113.958 9.61189 122.485 20.0903 122.485C30.5686 122.485 39.089 113.958 39.089 103.471C39.089 92.9844 30.5686 84.4573 20.0903 84.4573V84.4454Z" fill="#13604E"/>
<path d="M0.593229 64.4459C0.593229 64.4459 0.130424 52.4153 13.5755 51.4414C27.1511 50.4557 30.3788 60.8236 30.7349 62.6525C31.1621 64.8496 31.0197 67.1061 29.0379 70.2414C28.2428 71.5003 26.3441 74.2319 21.1346 75.0157C21.1346 75.0157 13.0534 75.752 11.4276 67.7356C11.4276 67.7356 10.7868 62.1775 16.0438 61.1324C16.0438 61.1324 17.6221 60.883 18.2866 61.5481C18.2866 61.5481 19.4258 62.8426 18.0493 63.6858C17.1355 64.244 15.1419 64.0896 14.7384 66.8211C14.3587 69.3626 16.9338 70.9184 18.2629 71.3341C21.8466 72.4623 24.3149 71.726 26.3204 69.6714C26.3204 69.6714 29.9872 66.6548 28.0292 61.1918C25.5372 54.2442 19.319 52.2134 13.6111 52.6053C13.6111 52.6053 1.44764 52.9259 0.889898 67.7356C0.889898 67.7356 0.605095 65.4791 0.616962 64.4459H0.593229Z" fill="#13604E"/>
<path d="M0.593093 103.459C0.593093 103.459 0.142155 91.4287 13.5754 90.4548C27.1509 89.4691 30.3787 99.837 30.7347 101.666C31.1619 103.863 31.0195 106.12 29.0378 109.255C28.2427 110.514 26.344 113.245 21.1345 114.029C21.1345 114.029 13.0532 114.765 11.4275 106.749C11.4275 106.749 10.7867 101.191 16.0436 100.146C16.0436 100.146 17.6219 99.8964 18.2865 100.561C18.2865 100.561 19.4257 101.856 18.0491 102.699C17.1354 103.257 15.1418 103.103 14.7383 105.835C14.3586 108.376 16.9337 109.932 18.2627 110.347C21.8465 111.476 24.3148 110.739 26.3203 108.685C26.3203 108.685 29.9871 105.668 28.0291 100.205C25.5371 93.2576 19.3189 91.2268 13.611 91.6187C13.611 91.6187 1.4475 91.9394 0.889763 106.749C0.889763 106.749 0.60496 104.493 0.616827 103.459H0.593093Z" fill="#13604E"/>
<path d="M0.593262 64.4458C11.3564 64.4458 20.0904 73.1867 20.0904 83.9584C20.0904 94.7301 11.3564 103.471 0.593262 103.471V64.4458Z" fill="#4DD3B8"/>
<path d="M0.593262 63.947C11.6175 63.947 20.5888 72.9254 20.5888 83.9584C20.5888 94.9914 11.6175 103.958 0.593262 103.958V63.947ZM0.593262 102.972C11.0716 102.972 19.592 94.4451 19.592 83.9584C19.592 73.4717 11.0598 64.9327 0.593262 64.9327V102.972Z" fill="#13604E"/>
<path d="M265.364 103.471C276.132 103.471 284.861 94.7349 284.861 83.9584C284.861 73.1819 276.132 64.4458 265.364 64.4458C254.596 64.4458 245.867 73.1819 245.867 83.9584C245.867 94.7349 254.596 103.471 265.364 103.471Z" fill="#4DD3B8"/>
<path d="M245.381 83.9584C245.381 72.9254 254.352 63.947 265.376 63.947C276.401 63.947 285.372 72.9254 285.372 83.9584C285.372 94.9914 276.401 103.97 265.376 103.97C254.352 103.97 245.381 94.9914 245.381 83.9584ZM246.378 83.9584C246.378 94.4451 254.898 102.972 265.376 102.972C275.855 102.972 284.375 94.4451 284.375 83.9584C284.375 73.4717 275.855 64.9446 265.376 64.9446C254.898 64.9446 246.378 73.4717 246.378 83.9584Z" fill="#13604E"/>
<path d="M271.879 96.9629C279.056 96.9629 284.873 91.1406 284.873 83.9584C284.873 76.7763 279.056 70.954 271.879 70.954C264.703 70.954 258.885 76.7763 258.885 83.9584C258.885 91.1406 264.703 96.9629 271.879 96.9629Z" fill="#13604E"/>
<path d="M284.862 83.9585C295.63 83.9585 304.359 75.2224 304.359 64.4458C304.359 53.6693 295.63 44.9332 284.862 44.9332C274.094 44.9332 265.365 53.6693 265.365 64.4458C265.365 75.2224 274.094 83.9585 284.862 83.9585Z" fill="#4DD3B8"/>
<path d="M264.866 64.4459C264.866 53.4129 273.838 44.4344 284.862 44.4344C295.886 44.4344 304.857 53.4129 304.857 64.4459C304.857 75.4789 295.886 84.4573 284.862 84.4573C273.838 84.4573 264.866 75.4789 264.866 64.4459ZM265.863 64.4459C265.863 74.9326 274.383 83.4597 284.862 83.4597C295.34 83.4597 303.86 74.9326 303.86 64.4459C303.86 53.9592 295.34 45.4321 284.862 45.4321C274.383 45.4321 265.863 53.9592 265.863 64.4459Z" fill="#13604E"/>
<path d="M284.862 122.984C295.63 122.984 304.359 114.248 304.359 103.471C304.359 92.6946 295.63 83.9585 284.862 83.9585C274.094 83.9585 265.365 92.6946 265.365 103.471C265.365 114.248 274.094 122.984 284.862 122.984Z" fill="#4DD3B8"/>
<path d="M264.866 103.471C264.866 92.4381 273.838 83.4597 284.862 83.4597C295.886 83.4597 304.857 92.4381 304.857 103.471C304.857 114.504 295.886 123.483 284.862 123.483C273.838 123.483 264.866 114.504 264.866 103.471ZM265.863 103.471C265.863 113.958 274.383 122.485 284.862 122.485C295.34 122.485 303.86 113.958 303.86 103.471C303.86 92.9844 295.34 84.4573 284.862 84.4573C274.383 84.4573 265.863 92.9844 265.863 103.471Z" fill="#13604E"/>
<path d="M304.359 64.4459C304.359 64.4459 304.81 52.4153 291.376 51.4414C277.801 50.4557 274.573 60.8236 274.217 62.6525C273.79 64.8496 273.932 67.1061 275.914 70.2414C276.709 71.5003 278.608 74.2319 283.817 75.0157C283.817 75.0157 291.899 75.752 293.524 67.7356C293.524 67.7356 294.165 62.1775 288.908 61.1324C288.908 61.1324 287.33 60.883 286.665 61.5481C286.665 61.5481 285.526 62.8426 286.903 63.6858C287.816 64.244 289.81 64.0896 290.214 66.8211C290.593 69.3626 288.018 70.9184 286.689 71.3341C283.105 72.4623 280.637 71.726 278.632 69.6714C278.632 69.6714 274.965 66.6548 276.923 61.1918C279.415 54.2442 285.633 52.2134 291.341 52.6053C291.341 52.6053 303.504 52.9259 304.062 67.7356C304.062 67.7356 304.347 65.4791 304.335 64.4459H304.359Z" fill="#13604E"/>
<path d="M304.359 103.459C304.359 103.459 304.81 91.4287 291.376 90.4548C277.801 89.4691 274.573 99.837 274.217 101.666C273.79 103.863 273.932 106.12 275.914 109.255C276.709 110.514 278.608 113.245 283.817 114.029C283.817 114.029 291.899 114.765 293.524 106.749C293.524 106.749 294.165 101.191 288.908 100.146C288.908 100.146 287.33 99.8964 286.665 100.561C286.665 100.561 285.526 101.856 286.903 102.699C287.816 103.257 289.81 103.103 290.214 105.835C290.593 108.376 288.018 109.932 286.689 110.347C283.105 111.476 280.637 110.739 278.632 108.685C278.632 108.685 274.965 105.668 276.923 100.205C279.415 93.2576 285.633 91.2268 291.341 91.6187C291.341 91.6187 303.504 91.9394 304.062 106.749C304.062 106.749 304.347 104.493 304.335 103.459H304.359Z" fill="#13604E"/>
<path d="M304.359 64.4458C293.596 64.4458 284.862 73.1867 284.862 83.9584C284.862 94.7301 293.596 103.471 304.359 103.471V64.4458Z" fill="#4DD3B8"/>
<path d="M304.359 103.958C293.335 103.958 284.363 94.9796 284.363 83.9466C284.363 72.9136 293.335 63.9352 304.359 63.9352V103.958ZM304.359 64.9328C293.88 64.9328 285.36 73.4599 285.36 83.9466C285.36 94.4333 293.88 102.96 304.359 102.96V64.9328Z" fill="#13604E"/>
</g>
<path d="M12.4247 44.4344H292.576V123.566H12.4247V44.4344ZM12.4247 43.033C11.6534 43.033 11.0244 43.6624 11.0244 44.4344V123.566C11.0244 124.338 11.6534 124.967 12.4247 124.967H292.576C293.347 124.967 293.976 124.338 293.976 123.566V44.4344C293.976 43.6624 293.347 43.033 292.576 43.033H12.4247Z" fill="#0F594B"/>
</g>
<path d="M95.3094 65.895C95.3094 67.1381 95.0976 68.3582 94.674 69.5552C94.2504 70.7523 93.668 71.8158 92.9268 72.7459C92.1901 73.6759 91.3683 74.3849 90.4613 74.8729L89.4945 73.6436C90.3278 73.2293 91.0921 72.61 91.7873 71.7859C92.4871 70.9618 93.0373 70.0341 93.4378 69.0028C93.843 67.9669 94.0479 66.9309 94.0525 65.895V62.732H95.3094V65.895ZM95.5718 65.895C95.5672 66.8895 95.7652 67.8817 96.1657 68.8715C96.5709 69.8614 97.1165 70.7477 97.8025 71.5304C98.4885 72.3131 99.2412 72.907 100.061 73.3122L99.1077 74.5414C98.2099 74.0672 97.395 73.3835 96.663 72.4903C95.9355 71.5925 95.3623 70.5681 94.9433 69.4171C94.529 68.2661 94.3241 67.0921 94.3287 65.895V62.732H95.5718V65.895ZM103.182 78.5884H101.649V61.2265H103.182V78.5884ZM106.083 69.5967H102.837V68.2707H106.083V69.5967ZM120.606 71.5856H119.072V61.2403H120.606V71.5856ZM123.23 67H120.122V65.6878H123.23V67ZM120.606 78.3536H109.611V72.442H120.606V78.3536ZM111.103 77.0967H119.114V73.6436H111.103V77.0967ZM109.155 69.3757C110.868 69.3849 112.334 69.355 113.554 69.2859C114.779 69.2122 116.043 69.0672 117.346 68.8508L117.498 70.0939C116.181 70.3241 114.899 70.4784 113.651 70.5566C112.403 70.6349 110.905 70.674 109.155 70.674H107.802V69.3757H109.155ZM115.633 66.9171H109.321V70.1354H107.802V65.7293H114.128V63.4365H107.76V62.1796H115.633V66.9171ZM138.623 78.616H137.09V61.2265H138.623V78.616ZM129.396 62.5663C130.253 62.5709 131.017 62.8218 131.689 63.3191C132.361 63.8117 132.886 64.5161 133.264 65.4323C133.641 66.3485 133.83 67.4098 133.83 68.616C133.83 69.8269 133.641 70.8904 133.264 71.8066C132.886 72.7182 132.359 73.4227 131.682 73.9199C131.01 74.4171 130.248 74.6657 129.396 74.6657C128.535 74.6657 127.769 74.4171 127.097 73.9199C126.429 73.4227 125.906 72.7182 125.529 71.8066C125.151 70.895 124.963 69.8315 124.963 68.616C124.963 67.4052 125.151 66.3439 125.529 65.4323C125.906 64.5161 126.429 63.8117 127.097 63.3191C127.769 62.8218 128.535 62.5709 129.396 62.5663ZM129.396 63.9337C128.821 63.9383 128.307 64.1363 127.856 64.5276C127.41 64.9144 127.062 65.4622 126.813 66.1713C126.565 66.8757 126.44 67.6906 126.44 68.616C126.44 69.546 126.565 70.3656 126.813 71.0746C127.062 71.7836 127.41 72.3315 127.856 72.7182C128.307 73.105 128.821 73.2983 129.396 73.2983C129.972 73.2983 130.481 73.105 130.922 72.7182C131.369 72.3315 131.717 71.7836 131.965 71.0746C132.214 70.3656 132.338 69.546 132.338 68.616C132.338 67.6906 132.214 66.8757 131.965 66.1713C131.717 65.4622 131.369 64.9144 130.922 64.5276C130.481 64.1363 129.972 63.9383 129.396 63.9337ZM152.226 72.8702C152.221 73.6298 152.06 74.3711 151.742 75.0939C151.429 75.8122 150.971 76.4567 150.368 77.0276C149.77 77.5985 149.063 78.0359 148.248 78.3398L147.474 77.2072C148.188 76.9448 148.81 76.581 149.339 76.116C149.873 75.6464 150.283 75.1285 150.568 74.5622C150.858 73.9959 151.006 73.4319 151.01 72.8702V71.9171H152.226V72.8702ZM152.488 72.8702C152.488 73.4641 152.608 74.0511 152.847 74.6312C153.087 75.2067 153.444 75.7316 153.918 76.2058C154.397 76.6754 154.974 77.046 155.651 77.3177L155.016 78.4917C154.206 78.1832 153.526 77.7343 152.979 77.145C152.431 76.5603 152.021 75.8996 151.749 75.163C151.482 74.4217 151.351 73.6575 151.356 72.8702V71.9171H152.488V72.8702ZM158.648 72.8702C158.644 73.5746 158.503 74.2974 158.227 75.0387C157.956 75.7753 157.546 76.4521 156.998 77.0691C156.455 77.686 155.794 78.1602 155.016 78.4917L154.353 77.3177C155.011 77.0184 155.578 76.6179 156.052 76.116C156.531 75.6096 156.892 75.0709 157.136 74.5C157.38 73.9291 157.502 73.3858 157.502 72.8702V71.9171H158.648V72.8702ZM159.008 72.8702C159.003 73.4733 159.141 74.0603 159.422 74.6312C159.707 75.1975 160.117 75.7063 160.651 76.1575C161.185 76.6087 161.816 76.9586 162.543 77.2072L161.77 78.3398C160.937 78.0451 160.221 77.6192 159.622 77.0622C159.028 76.5051 158.575 75.8674 158.262 75.1492C157.949 74.4263 157.792 73.6667 157.792 72.8702V71.9171H159.008V72.8702ZM160.955 71.1575H159.422V61.2403H160.955V71.1575ZM151.577 62.2486C152.447 62.2486 153.227 62.419 153.918 62.7597C154.613 63.1004 155.154 63.5792 155.541 64.1961C155.927 64.8131 156.121 65.5175 156.121 66.3094C156.121 67.0921 155.927 67.7896 155.541 68.4019C155.154 69.0143 154.613 69.4908 153.918 69.8315C153.227 70.1722 152.447 70.3425 151.577 70.3425C150.706 70.3425 149.924 70.1722 149.229 69.8315C148.538 69.4908 147.997 69.0143 147.606 68.4019C147.214 67.7896 147.019 67.0921 147.019 66.3094C147.019 65.5175 147.214 64.8131 147.606 64.1961C147.997 63.5792 148.538 63.1004 149.229 62.7597C149.924 62.419 150.706 62.2486 151.577 62.2486ZM151.577 63.5608C150.992 63.5562 150.465 63.6713 149.995 63.9061C149.53 64.1363 149.166 64.4632 148.904 64.8867C148.646 65.3057 148.52 65.7799 148.524 66.3094C148.52 66.8389 148.646 67.3131 148.904 67.732C149.166 68.1464 149.53 68.4733 149.995 68.7127C150.46 68.9475 150.987 69.0672 151.577 69.0718C152.161 69.0672 152.684 68.9475 153.144 68.7127C153.609 68.4733 153.973 68.1464 154.235 67.732C154.498 67.3131 154.629 66.8389 154.629 66.3094C154.629 65.7799 154.498 65.3057 154.235 64.8867C153.973 64.4632 153.609 64.1363 153.144 63.9061C152.679 63.6713 152.157 63.5562 151.577 63.5608ZM169.608 72.8564C169.608 73.6114 169.451 74.3504 169.138 75.0732C168.825 75.796 168.367 76.4475 167.764 77.0276C167.165 77.6077 166.458 78.0543 165.644 78.3674L164.884 77.2072C165.593 76.954 166.214 76.5948 166.749 76.1298C167.283 75.6602 167.69 75.14 167.971 74.5691C168.256 73.9936 168.401 73.4227 168.406 72.8564V71.8066H169.608V72.8564ZM169.884 72.8564C169.879 73.4595 169.997 74.0511 170.236 74.6312C170.48 75.2067 170.839 75.7339 171.313 76.2127C171.792 76.6915 172.375 77.0691 173.061 77.3453L172.384 78.5055C171.583 78.1971 170.908 77.7459 170.36 77.1519C169.813 76.5626 169.403 75.8973 169.131 75.1561C168.859 74.4102 168.724 73.6436 168.724 72.8564V71.8066H169.884V72.8564ZM176.03 72.8564C176.03 73.5608 175.894 74.2836 175.623 75.0249C175.351 75.7615 174.939 76.4429 174.387 77.0691C173.839 77.6952 173.171 78.174 172.384 78.5055L171.721 77.3453C172.384 77.0414 172.955 76.6363 173.434 76.1298C173.912 75.6234 174.272 75.0824 174.511 74.5069C174.755 73.9268 174.879 73.3766 174.884 72.8564V71.8066H176.03V72.8564ZM176.376 72.8564C176.376 73.4595 176.518 74.0488 176.804 74.6243C177.089 75.1952 177.499 75.7086 178.033 76.1644C178.567 76.6156 179.202 76.9632 179.939 77.2072L179.138 78.3674C178.309 78.0635 177.598 77.6308 177.004 77.0691C176.41 76.5074 175.957 75.8651 175.644 75.1423C175.335 74.4194 175.183 73.6575 175.188 72.8564V71.8066H176.376V72.8564ZM177.204 66.8619H172.522V65.5912H177.204V66.8619ZM168.682 62.221C169.52 62.2164 170.28 62.3867 170.961 62.732C171.643 63.0727 172.177 63.5539 172.563 64.1754C172.955 64.797 173.153 65.4991 173.157 66.2818C173.153 67.0645 172.955 67.7643 172.563 68.3812C172.177 68.9982 171.643 69.4793 170.961 69.8246C170.28 70.1699 169.52 70.3425 168.682 70.3425C167.826 70.3425 167.057 70.1699 166.376 69.8246C165.694 69.4793 165.16 68.9982 164.773 68.3812C164.387 67.7643 164.193 67.0645 164.193 66.2818C164.193 65.4945 164.387 64.7924 164.773 64.1754C165.16 63.5539 165.694 63.0727 166.376 62.732C167.057 62.3867 167.826 62.2164 168.682 62.221ZM168.682 63.5193C168.107 63.5147 167.589 63.6321 167.128 63.8715C166.673 64.1064 166.313 64.4355 166.051 64.8591C165.793 65.2781 165.667 65.7523 165.671 66.2818C165.667 66.8066 165.793 67.2808 166.051 67.7044C166.313 68.128 166.673 68.4618 167.128 68.7058C167.589 68.9452 168.107 69.0672 168.682 69.0718C169.249 69.0672 169.76 68.9452 170.215 68.7058C170.676 68.4618 171.035 68.128 171.293 67.7044C171.551 67.2808 171.679 66.8066 171.679 66.2818C171.679 65.7523 171.551 65.2781 171.293 64.8591C171.035 64.4355 170.676 64.1064 170.215 63.8715C169.76 63.6321 169.249 63.5147 168.682 63.5193ZM178.295 71.1436H176.762V61.2265H178.295V71.1436ZM197.445 69.4448H194.227V68.1602H197.445V69.4448ZM194.628 78.5746H193.094V61.2265H194.628V78.5746ZM183.426 73.6713H181.907V62.9392H183.426V73.6713ZM183.288 72.884C184.669 72.884 186.023 72.8241 187.349 72.7044C188.679 72.5801 190.037 72.3729 191.423 72.0829L191.617 73.395C190.199 73.6759 188.81 73.8762 187.452 73.9959C186.099 74.111 184.71 74.1685 183.288 74.1685H181.907V72.884H183.288ZM200.311 77.1105C200.085 77.1105 199.873 77.0529 199.675 76.9378C199.482 76.8227 199.328 76.6708 199.212 76.482C199.102 76.2887 199.049 76.0792 199.054 75.8536C199.049 75.628 199.102 75.4185 199.212 75.2251C199.328 75.0272 199.482 74.8729 199.675 74.7624C199.873 74.6519 200.085 74.5967 200.311 74.5967C200.536 74.5967 200.746 74.6519 200.939 74.7624C201.137 74.8729 201.291 75.0272 201.402 75.2251C201.512 75.4185 201.567 75.628 201.567 75.8536C201.567 76.0792 201.512 76.2887 201.402 76.482C201.291 76.6708 201.137 76.8227 200.939 76.9378C200.746 77.0529 200.536 77.1105 200.311 77.1105ZM205.389 77.1105C205.163 77.1105 204.951 77.0529 204.753 76.9378C204.56 76.8227 204.406 76.6708 204.291 76.482C204.18 76.2887 204.127 76.0792 204.132 75.8536C204.127 75.628 204.18 75.4185 204.291 75.2251C204.406 75.0272 204.56 74.8729 204.753 74.7624C204.951 74.6519 205.163 74.5967 205.389 74.5967C205.614 74.5967 205.824 74.6519 206.017 74.7624C206.215 74.8729 206.369 75.0272 206.48 75.2251C206.59 75.4185 206.646 75.628 206.646 75.8536C206.646 76.0792 206.59 76.2887 206.48 76.482C206.369 76.6708 206.215 76.8227 206.017 76.9378C205.824 77.0529 205.614 77.1105 205.389 77.1105ZM209.634 72.9254C209.644 72.0829 209.733 71.4015 209.904 70.8812C210.074 70.3564 210.307 69.9374 210.601 69.6243C210.901 69.3066 211.301 68.9936 211.803 68.6851C212.088 68.5101 212.339 68.3076 212.556 68.0773C212.772 67.8471 212.94 67.5847 213.06 67.2901C213.18 66.9954 213.239 66.6731 213.239 66.3232C213.239 65.8858 213.138 65.5037 212.936 65.1768C212.733 64.8453 212.452 64.5898 212.093 64.4102C211.738 64.2307 211.347 64.1409 210.919 64.1409C210.528 64.1409 210.159 64.2215 209.814 64.3826C209.473 64.5437 209.19 64.7947 208.965 65.1354C208.739 65.4715 208.608 65.895 208.571 66.4061H206.789C206.821 65.6372 207.022 64.9719 207.39 64.4102C207.763 63.8439 208.255 63.4111 208.868 63.1119C209.485 62.8126 210.168 62.663 210.919 62.663C211.72 62.663 212.427 62.8218 213.039 63.1395C213.651 63.4572 214.123 63.9015 214.455 64.4724C214.786 65.0387 214.952 65.6786 214.952 66.3923C214.952 66.8941 214.876 67.3522 214.724 67.7666C214.572 68.1763 214.354 68.5447 214.068 68.8715C213.783 69.1938 213.433 69.4816 213.018 69.7348C212.599 69.9926 212.27 70.2574 212.031 70.529C211.796 70.8006 211.623 71.1252 211.513 71.5028C211.402 71.8803 211.343 72.3545 211.333 72.9254V73.0083H209.634V72.9254ZM210.546 77.1105C210.32 77.1105 210.109 77.0529 209.911 76.9378C209.717 76.8227 209.563 76.6708 209.448 76.482C209.337 76.2887 209.284 76.0792 209.289 75.8536C209.284 75.628 209.337 75.4185 209.448 75.2251C209.563 75.0272 209.717 74.8729 209.911 74.7624C210.109 74.6519 210.32 74.5967 210.546 74.5967C210.772 74.5967 210.981 74.6519 211.174 74.7624C211.372 74.8729 211.527 75.0272 211.637 75.2251C211.748 75.4185 211.803 75.628 211.803 75.8536C211.803 76.0792 211.748 76.2887 211.637 76.482C211.527 76.6708 211.372 76.8227 211.174 76.9378C210.981 77.0529 210.772 77.1105 210.546 77.1105ZM121.018 99.3398H109.043V98.0829H121.018V99.3398ZM122.897 103.249H106.999V101.964H122.897V103.249ZM115.632 109.588H114.112V102.641H115.632V109.588ZM110.576 98.7182H109.043V93.1105H110.576V98.7182ZM137.226 94.6298H126.273V93.3591H137.226V94.6298ZM140.113 102.088H124.284V100.818H140.113V102.088ZM132.93 109.616H131.397V101.646H132.93V109.616ZM138.013 94.9751C138.013 95.7578 138.002 96.4507 137.979 97.0539C137.956 97.657 137.896 98.3453 137.799 99.1188C137.703 99.8877 137.553 100.716 137.35 101.605L135.817 101.412C136.024 100.551 136.176 99.7426 136.273 98.9876C136.374 98.2279 136.436 97.5534 136.46 96.9641C136.483 96.3702 136.494 95.6934 136.494 94.9337V94.8785V93.3591H138.013V94.8785V94.9751ZM155.036 95.9144H149.58V94.6575H155.036V95.9144ZM155.036 99.837H149.58V98.5663H155.036V99.837ZM147.274 103.884C147.274 104.639 147.117 105.378 146.804 106.101C146.491 106.824 146.033 107.473 145.43 108.048C144.831 108.628 144.124 109.073 143.31 109.381L142.55 108.221C143.259 107.968 143.88 107.609 144.415 107.144C144.949 106.674 145.356 106.154 145.637 105.583C145.922 105.012 146.067 104.446 146.072 103.884V102.682H147.274V103.884ZM147.55 103.884C147.545 104.483 147.663 105.072 147.902 105.652C148.146 106.232 148.505 106.762 148.979 107.24C149.458 107.715 150.041 108.087 150.727 108.359L150.05 109.533C149.249 109.225 148.574 108.773 148.026 108.18C147.479 107.59 147.069 106.925 146.797 106.184C146.526 105.438 146.39 104.671 146.39 103.884V102.682H147.55V103.884ZM153.696 103.884C153.696 104.588 153.56 105.311 153.289 106.052C153.017 106.789 152.605 107.471 152.053 108.097C151.505 108.723 150.837 109.202 150.05 109.533L149.387 108.359C150.05 108.06 150.621 107.657 151.1 107.151C151.578 106.64 151.938 106.096 152.177 105.521C152.421 104.945 152.545 104.4 152.55 103.884V102.682H153.696V103.884ZM154.042 103.884C154.042 104.483 154.184 105.067 154.47 105.638C154.755 106.209 155.165 106.722 155.699 107.178C156.233 107.629 156.869 107.977 157.605 108.221L156.804 109.381C155.975 109.077 155.264 108.647 154.67 108.09C154.076 107.533 153.623 106.893 153.31 106.17C153.001 105.442 152.849 104.68 152.854 103.884V102.682H154.042V103.884ZM146.348 93.1796C147.186 93.1796 147.946 93.3545 148.627 93.7044C149.309 94.0543 149.843 94.5424 150.229 95.1685C150.621 95.7901 150.819 96.4945 150.823 97.2818C150.819 98.0691 150.621 98.7735 150.229 99.395C149.843 100.012 149.309 100.493 148.627 100.838C147.946 101.184 147.186 101.356 146.348 101.356C145.492 101.356 144.723 101.184 144.042 100.838C143.36 100.493 142.826 100.012 142.439 99.395C142.053 98.7735 141.859 98.0691 141.859 97.2818C141.859 96.4899 142.053 95.7831 142.439 95.1616C142.826 94.5401 143.36 94.0543 144.042 93.7044C144.723 93.3545 145.492 93.1796 146.348 93.1796ZM146.348 94.4779C145.773 94.4779 145.255 94.5976 144.794 94.837C144.339 95.0764 143.979 95.4102 143.717 95.8384C143.459 96.2666 143.333 96.7477 143.337 97.2818C143.333 97.8158 143.459 98.2924 143.717 98.7113C143.979 99.1303 144.339 99.4618 144.794 99.7058C145.255 99.9452 145.773 100.067 146.348 100.072C146.915 100.067 147.426 99.9452 147.881 99.7058C148.342 99.4618 148.701 99.1303 148.959 98.7113C149.217 98.2924 149.345 97.8158 149.345 97.2818C149.345 96.7477 149.217 96.2666 148.959 95.8384C148.701 95.4102 148.342 95.0764 147.881 94.837C147.426 94.5976 146.915 94.4779 146.348 94.4779ZM155.962 102.144H154.428V92.2265H155.962V102.144ZM164.794 97.558C164.789 98.7505 164.559 99.9291 164.103 101.094C163.652 102.254 163.042 103.29 162.273 104.202C161.509 105.109 160.673 105.79 159.766 106.246L158.854 105.03C159.679 104.639 160.447 104.043 161.161 103.242C161.879 102.436 162.45 101.531 162.874 100.528C163.302 99.5239 163.518 98.5341 163.523 97.558V94.6851H164.794V97.558ZM165.07 97.558C165.07 98.5157 165.282 99.4664 165.705 100.41C166.129 101.354 166.7 102.197 167.418 102.938C168.136 103.679 168.919 104.234 169.766 104.602L168.91 105.818C167.97 105.39 167.114 104.754 166.341 103.912C165.567 103.064 164.952 102.088 164.497 100.983C164.045 99.8738 163.822 98.732 163.827 97.558V94.6851H165.07V97.558ZM169.2 95.2928H159.421V94.0083H169.2V95.2928ZM173.164 109.588H171.631V92.2265H173.164V109.588ZM177.977 108.11C177.751 108.11 177.539 108.053 177.341 107.938C177.148 107.823 176.994 107.671 176.879 107.482C176.768 107.289 176.715 107.079 176.72 106.854C176.715 106.628 176.768 106.419 176.879 106.225C176.994 106.027 177.148 105.873 177.341 105.762C177.539 105.652 177.751 105.597 177.977 105.597C178.202 105.597 178.412 105.652 178.605 105.762C178.803 105.873 178.957 106.027 179.068 106.225C179.178 106.419 179.233 106.628 179.233 106.854C179.233 107.079 179.178 107.289 179.068 107.482C178.957 107.671 178.803 107.823 178.605 107.938C178.412 108.053 178.202 108.11 177.977 108.11ZM183.055 108.11C182.829 108.11 182.617 108.053 182.419 107.938C182.226 107.823 182.072 107.671 181.957 107.482C181.846 107.289 181.793 107.079 181.798 106.854C181.793 106.628 181.846 106.419 181.957 106.225C182.072 106.027 182.226 105.873 182.419 105.762C182.617 105.652 182.829 105.597 183.055 105.597C183.28 105.597 183.49 105.652 183.683 105.762C183.881 105.873 184.035 106.027 184.146 106.225C184.256 106.419 184.312 106.628 184.312 106.854C184.312 107.079 184.256 107.289 184.146 107.482C184.035 107.671 183.881 107.823 183.683 107.938C183.49 108.053 183.28 108.11 183.055 108.11ZM188.133 108.11C187.907 108.11 187.695 108.053 187.497 107.938C187.304 107.823 187.15 107.671 187.035 107.482C186.924 107.289 186.871 107.079 186.876 106.854C186.871 106.628 186.924 106.419 187.035 106.225C187.15 106.027 187.304 105.873 187.497 105.762C187.695 105.652 187.907 105.597 188.133 105.597C188.358 105.597 188.568 105.652 188.761 105.762C188.959 105.873 189.113 106.027 189.224 106.225C189.334 106.419 189.39 106.628 189.39 106.854C189.39 107.079 189.334 107.289 189.224 107.482C189.113 107.671 188.959 107.823 188.761 107.938C188.568 108.053 188.358 108.11 188.133 108.11ZM192.379 103.925C192.388 103.083 192.478 102.401 192.648 101.881C192.818 101.356 193.051 100.937 193.345 100.624C193.645 100.307 194.045 99.9936 194.547 99.6851C194.833 99.5101 195.083 99.3076 195.3 99.0773C195.516 98.8471 195.684 98.5847 195.804 98.2901C195.924 97.9954 195.984 97.6731 195.984 97.3232C195.984 96.8858 195.882 96.5037 195.68 96.1768C195.477 95.8453 195.196 95.5898 194.837 95.4102C194.483 95.2307 194.091 95.1409 193.663 95.1409C193.272 95.1409 192.903 95.2215 192.558 95.3826C192.217 95.5437 191.934 95.7947 191.709 96.1354C191.483 96.4715 191.352 96.895 191.315 97.4061H189.533C189.565 96.6372 189.766 95.9719 190.134 95.4102C190.507 94.8439 191 94.4111 191.612 94.1119C192.229 93.8126 192.913 93.663 193.663 93.663C194.464 93.663 195.171 93.8218 195.783 94.1395C196.396 94.4572 196.867 94.9015 197.199 95.4724C197.53 96.0387 197.696 96.6786 197.696 97.3923C197.696 97.8941 197.62 98.3522 197.468 98.7666C197.316 99.1763 197.098 99.5447 196.812 99.8715C196.527 100.194 196.177 100.482 195.763 100.735C195.344 100.993 195.014 101.257 194.775 101.529C194.54 101.801 194.367 102.125 194.257 102.503C194.147 102.88 194.087 103.355 194.077 103.925V104.008H192.379V103.925ZM193.29 108.11C193.065 108.11 192.853 108.053 192.655 107.938C192.461 107.823 192.307 107.671 192.192 107.482C192.082 107.289 192.029 107.079 192.033 106.854C192.029 106.628 192.082 106.419 192.192 106.225C192.307 106.027 192.461 105.873 192.655 105.762C192.853 105.652 193.065 105.597 193.29 105.597C193.516 105.597 193.725 105.652 193.919 105.762C194.117 105.873 194.271 106.027 194.381 106.225C194.492 106.419 194.547 106.628 194.547 106.854C194.547 107.079 194.492 107.289 194.381 107.482C194.271 107.671 194.117 107.823 193.919 107.938C193.725 108.053 193.516 108.11 193.29 108.11Z" fill="white"/>
<path d="M14.1436 20.616H12.6243V3.22652H14.1436V20.616ZM17.0442 11.4309H13.7983V10.1326H17.0442V11.4309ZM2.80387 15.1188C4.56262 15.1188 6.05893 15.0773 7.29282 14.9945C8.53131 14.907 9.78821 14.7459 11.0635 14.511L11.2155 15.7818C9.90792 16.0212 8.62339 16.1846 7.36188 16.2721C6.10037 16.3596 4.58103 16.4079 2.80387 16.4171H1.42265V15.1188H2.80387ZM9.28177 11.058H2.94199V15.6436H1.42265V9.78729H7.74862V6.11326H1.38122V4.84254H9.28177V11.058ZM19.8266 19.1105C19.601 19.1105 19.3892 19.0529 19.1912 18.9378C18.9979 18.8227 18.8436 18.6708 18.7285 18.482C18.618 18.2887 18.5651 18.0792 18.5697 17.8536C18.5651 17.628 18.618 17.4185 18.7285 17.2251C18.8436 17.0272 18.9979 16.8729 19.1912 16.7624C19.3892 16.6519 19.601 16.5967 19.8266 16.5967C20.0522 16.5967 20.2617 16.6519 20.455 16.7624C20.653 16.8729 20.8073 17.0272 20.9178 17.2251C21.0283 17.4185 21.0835 17.628 21.0835 17.8536C21.0835 18.0792 21.0283 18.2887 20.9178 18.482C20.8073 18.6708 20.653 18.8227 20.455 18.9378C20.2617 19.0529 20.0522 19.1105 19.8266 19.1105Z" fill="white"/>
<defs>
<clipPath id="clip0_380_1364">
<rect width="305" height="104" fill="white" transform="translate(0 32)"/>
</clipPath>
</defs>
</svg>
