<svg width="305" height="136" viewBox="0 0 305 136" fill="none" xmlns="http://www.w3.org/2000/svg">
<g clip-path="url(#clip0_380_1355)">
<path d="M1.41202 134.599L303.6 134.599V33.4014L1.41202 33.4014V134.599Z" fill="#4AE6CA"/>
<path d="M2.63443 33.4014H302.366C303.042 33.4014 303.6 33.9477 303.6 34.6365V133.363C303.6 134.04 303.054 134.599 302.366 134.599H2.63443C1.95802 134.599 1.40028 134.052 1.40028 133.363V34.6365C1.40028 33.9596 1.94615 33.4014 2.63443 33.4014ZM2.63443 32C1.17481 32 0 33.1757 0 34.6365V133.363C0 134.812 1.17481 136 2.63443 136H302.366C303.813 136 305 134.824 305 133.363V34.6365C305 33.1757 303.813 32 302.366 32H2.63443Z" fill="#0F594B"/>
<path d="M12.4247 123.566L292.576 123.566V44.4345L12.4247 44.4345V123.566Z" fill="#0F594B"/>
<mask id="mask0_380_1355" style="mask-type:luminance" maskUnits="userSpaceOnUse" x="12" y="44" width="281" height="80">
<path d="M12.4242 123.565L292.575 123.565V44.4342L12.4242 44.4342V123.565Z" fill="white"/>
</mask>
<g mask="url(#mask0_380_1355)">
<path d="M39.5752 103.471C50.3432 103.471 59.0724 94.7349 59.0724 83.9584C59.0724 73.1819 50.3432 64.4458 39.5752 64.4458C28.8073 64.4458 20.0781 73.1819 20.0781 83.9584C20.0781 94.7349 28.8073 103.471 39.5752 103.471Z" fill="#4DD3B8"/>
<path d="M39.5873 103.958C28.5631 103.958 19.5918 94.9795 19.5918 83.9465C19.5918 72.9135 28.5631 63.9351 39.5873 63.9351C50.6116 63.9351 59.5828 72.9135 59.5828 83.9465C59.5828 94.9795 50.6116 103.958 39.5873 103.958ZM39.5873 64.9327C29.109 64.9327 20.5886 73.4598 20.5886 83.9465C20.5886 94.4332 29.109 102.96 39.5873 102.96C50.0657 102.96 58.586 94.4332 58.586 83.9465C58.586 73.4598 50.0657 64.9327 39.5873 64.9327Z" fill="#13604E"/>
<path d="M33.0723 96.9628C40.2487 96.9628 46.0664 91.1405 46.0664 83.9583C46.0664 76.7762 40.2487 70.9539 33.0723 70.9539C25.8958 70.9539 20.0781 76.7762 20.0781 83.9583C20.0781 91.1405 25.8958 96.9628 33.0723 96.9628Z" fill="#13604E"/>
<path d="M20.0904 83.9583C30.8583 83.9583 39.5875 75.2222 39.5875 64.4457C39.5875 53.6692 30.8583 44.9331 20.0904 44.9331C9.32242 44.9331 0.593262 53.6692 0.593262 64.4457C0.593262 75.2222 9.32242 83.9583 20.0904 83.9583Z" fill="#4DD3B8"/>
<path d="M20.0903 84.4453C9.06601 84.4453 0.0947266 75.4787 0.0947266 64.4457C0.0947266 53.4127 9.06601 44.4343 20.0903 44.4343C31.1145 44.4343 40.0858 53.4127 40.0858 64.4457C40.0858 75.4787 31.1145 84.4572 20.0903 84.4572V84.4453ZM20.0903 45.4201C9.61189 45.4319 1.09154 53.959 1.09154 64.4457C1.09154 74.9324 9.61189 83.4596 20.0903 83.4596C30.5686 83.4596 39.089 74.9324 39.089 64.4457C39.089 53.959 30.5686 45.4319 20.0903 45.4319V45.4201Z" fill="#13604E"/>
<path d="M20.0904 122.983C30.8583 122.983 39.5875 114.247 39.5875 103.471C39.5875 92.6943 30.8583 83.9583 20.0904 83.9583C9.32242 83.9583 0.593262 92.6943 0.593262 103.471C0.593262 114.247 9.32242 122.983 20.0904 122.983Z" fill="#4DD3B8"/>
<path d="M20.0903 123.47C9.06601 123.47 0.0947266 114.504 0.0947266 103.471C0.0947266 92.4379 9.06601 83.4595 20.0903 83.4595C31.1145 83.4595 40.0858 92.4379 40.0858 103.471C40.0858 114.504 31.1145 123.482 20.0903 123.482V123.47ZM20.0903 84.4452C9.61189 84.4452 1.09154 92.9842 1.09154 103.471C1.09154 113.958 9.61189 122.485 20.0903 122.485C30.5686 122.485 39.089 113.958 39.089 103.471C39.089 92.9842 30.5686 84.4571 20.0903 84.4571V84.4452Z" fill="#13604E"/>
<path d="M0.593229 64.4459C0.593229 64.4459 0.130424 52.4153 13.5755 51.4414C27.1511 50.4557 30.3788 60.8236 30.7349 62.6525C31.1621 64.8496 31.0197 67.1061 29.0379 70.2414C28.2428 71.5003 26.3441 74.2319 21.1346 75.0157C21.1346 75.0157 13.0534 75.752 11.4276 67.7356C11.4276 67.7356 10.7868 62.1775 16.0438 61.1324C16.0438 61.1324 17.6221 60.883 18.2866 61.5481C18.2866 61.5481 19.4258 62.8426 18.0493 63.6858C17.1355 64.244 15.1419 64.0896 14.7384 66.8211C14.3587 69.3626 16.9338 70.9184 18.2629 71.3341C21.8466 72.4623 24.3149 71.726 26.3204 69.6714C26.3204 69.6714 29.9872 66.6548 28.0292 61.1918C25.5372 54.2442 19.319 52.2134 13.6111 52.6053C13.6111 52.6053 1.44764 52.9259 0.889898 67.7356C0.889898 67.7356 0.605095 65.4791 0.616962 64.4459H0.593229Z" fill="#13604E"/>
<path d="M0.593093 103.459C0.593093 103.459 0.142155 91.4284 13.5754 90.4546C27.1509 89.4689 30.3787 99.8368 30.7347 101.666C31.1619 103.863 31.0195 106.119 29.0378 109.255C28.2427 110.514 26.344 113.245 21.1345 114.029C21.1345 114.029 13.0532 114.765 11.4275 106.749C11.4275 106.749 10.7867 101.191 16.0436 100.146C16.0436 100.146 17.6219 99.8962 18.2865 100.561C18.2865 100.561 19.4257 101.856 18.0491 102.699C17.1354 103.257 15.1418 103.103 14.7383 105.834C14.3586 108.376 16.9337 109.932 18.2627 110.347C21.8465 111.475 24.3148 110.739 26.3203 108.685C26.3203 108.685 29.9871 105.668 28.0291 100.205C25.5371 93.2574 19.3189 91.2265 13.611 91.6185C13.611 91.6185 1.4475 91.9391 0.889763 106.749C0.889763 106.749 0.60496 104.492 0.616827 103.459H0.593093Z" fill="#13604E"/>
<path d="M0.593262 64.4458C11.3564 64.4458 20.0904 73.1867 20.0904 83.9584C20.0904 94.7301 11.3564 103.471 0.593262 103.471V64.4458Z" fill="#4DD3B8"/>
<path d="M0.593262 63.947C11.6175 63.947 20.5888 72.9254 20.5888 83.9584C20.5888 94.9914 11.6175 103.958 0.593262 103.958V63.947ZM0.593262 102.972C11.0716 102.972 19.592 94.4451 19.592 83.9584C19.592 73.4717 11.0598 64.9327 0.593262 64.9327V102.972Z" fill="#13604E"/>
<path d="M265.364 103.471C276.132 103.471 284.861 94.7349 284.861 83.9584C284.861 73.1819 276.132 64.4458 265.364 64.4458C254.596 64.4458 245.867 73.1819 245.867 83.9584C245.867 94.7349 254.596 103.471 265.364 103.471Z" fill="#4DD3B8"/>
<path d="M245.381 83.9584C245.381 72.9254 254.352 63.947 265.376 63.947C276.401 63.947 285.372 72.9254 285.372 83.9584C285.372 94.9914 276.401 103.97 265.376 103.97C254.352 103.97 245.381 94.9914 245.381 83.9584ZM246.378 83.9584C246.378 94.4451 254.898 102.972 265.376 102.972C275.855 102.972 284.375 94.4451 284.375 83.9584C284.375 73.4717 275.855 64.9446 265.376 64.9446C254.898 64.9446 246.378 73.4717 246.378 83.9584Z" fill="#13604E"/>
<path d="M271.879 96.963C279.056 96.963 284.873 91.1407 284.873 83.9586C284.873 76.7764 279.056 70.9541 271.879 70.9541C264.703 70.9541 258.885 76.7764 258.885 83.9586C258.885 91.1407 264.703 96.963 271.879 96.963Z" fill="#13604E"/>
<path d="M284.862 83.9583C295.63 83.9583 304.359 75.2222 304.359 64.4457C304.359 53.6692 295.63 44.9331 284.862 44.9331C274.094 44.9331 265.365 53.6692 265.365 64.4457C265.365 75.2222 274.094 83.9583 284.862 83.9583Z" fill="#4DD3B8"/>
<path d="M264.866 64.4457C264.866 53.4127 273.838 44.4343 284.862 44.4343C295.886 44.4343 304.857 53.4127 304.857 64.4457C304.857 75.4787 295.886 84.4572 284.862 84.4572C273.838 84.4572 264.866 75.4787 264.866 64.4457ZM265.863 64.4457C265.863 74.9324 274.383 83.4596 284.862 83.4596C295.34 83.4596 303.86 74.9324 303.86 64.4457C303.86 53.959 295.34 45.4319 284.862 45.4319C274.383 45.4319 265.863 53.959 265.863 64.4457Z" fill="#13604E"/>
<path d="M284.862 122.983C295.63 122.983 304.359 114.247 304.359 103.471C304.359 92.6943 295.63 83.9583 284.862 83.9583C274.094 83.9583 265.365 92.6943 265.365 103.471C265.365 114.247 274.094 122.983 284.862 122.983Z" fill="#4DD3B8"/>
<path d="M264.866 103.471C264.866 92.4379 273.838 83.4595 284.862 83.4595C295.886 83.4595 304.857 92.4379 304.857 103.471C304.857 114.504 295.886 123.482 284.862 123.482C273.838 123.482 264.866 114.504 264.866 103.471ZM265.863 103.471C265.863 113.958 274.383 122.485 284.862 122.485C295.34 122.485 303.86 113.958 303.86 103.471C303.86 92.9842 295.34 84.4571 284.862 84.4571C274.383 84.4571 265.863 92.9842 265.863 103.471Z" fill="#13604E"/>
<path d="M304.359 64.4459C304.359 64.4459 304.81 52.4153 291.376 51.4414C277.801 50.4557 274.573 60.8236 274.217 62.6525C273.79 64.8496 273.932 67.1061 275.914 70.2414C276.709 71.5003 278.608 74.2319 283.817 75.0157C283.817 75.0157 291.899 75.752 293.524 67.7356C293.524 67.7356 294.165 62.1775 288.908 61.1324C288.908 61.1324 287.33 60.883 286.665 61.5481C286.665 61.5481 285.526 62.8426 286.903 63.6858C287.816 64.244 289.81 64.0896 290.214 66.8211C290.593 69.3626 288.018 70.9184 286.689 71.3341C283.105 72.4623 280.637 71.726 278.632 69.6714C278.632 69.6714 274.965 66.6548 276.923 61.1918C279.415 54.2442 285.633 52.2134 291.341 52.6053C291.341 52.6053 303.504 52.9259 304.062 67.7356C304.062 67.7356 304.347 65.4791 304.335 64.4459H304.359Z" fill="#13604E"/>
<path d="M304.359 103.459C304.359 103.459 304.81 91.4284 291.376 90.4546C277.801 89.4689 274.573 99.8368 274.217 101.666C273.79 103.863 273.932 106.119 275.914 109.255C276.709 110.514 278.608 113.245 283.817 114.029C283.817 114.029 291.899 114.765 293.524 106.749C293.524 106.749 294.165 101.191 288.908 100.146C288.908 100.146 287.33 99.8962 286.665 100.561C286.665 100.561 285.526 101.856 286.903 102.699C287.816 103.257 289.81 103.103 290.214 105.834C290.593 108.376 288.018 109.932 286.689 110.347C283.105 111.475 280.637 110.739 278.632 108.685C278.632 108.685 274.965 105.668 276.923 100.205C279.415 93.2574 285.633 91.2265 291.341 91.6185C291.341 91.6185 303.504 91.9391 304.062 106.749C304.062 106.749 304.347 104.492 304.335 103.459H304.359Z" fill="#13604E"/>
<path d="M304.359 64.4458C293.596 64.4458 284.862 73.1867 284.862 83.9584C284.862 94.7301 293.596 103.471 304.359 103.471V64.4458Z" fill="#4DD3B8"/>
<path d="M304.359 103.958C293.335 103.958 284.363 94.9795 284.363 83.9465C284.363 72.9135 293.335 63.9351 304.359 63.9351V103.958ZM304.359 64.9327C293.88 64.9327 285.36 73.4598 285.36 83.9465C285.36 94.4332 293.88 102.96 304.359 102.96V64.9327Z" fill="#13604E"/>
</g>
<path d="M12.4247 44.4344H292.576V123.566H12.4247V44.4344ZM12.4247 43.033C11.6534 43.033 11.0244 43.6624 11.0244 44.4344V123.566C11.0244 124.338 11.6534 124.967 12.4247 124.967H292.576C293.347 124.967 293.976 124.338 293.976 123.566V44.4344C293.976 43.6624 293.347 43.033 292.576 43.033H12.4247Z" fill="#0F594B"/>
</g>
<path d="M77.2487 66.558C77.2441 67.7505 77.0139 68.9291 76.5581 70.0939C76.1069 71.2541 75.4969 72.2901 74.728 73.2017C73.9637 74.1087 73.1281 74.7901 72.2211 75.2459L71.3095 74.0304C72.1336 73.639 72.9025 73.0428 73.6161 72.2417C74.3343 71.436 74.9052 70.5313 75.3288 69.5276C75.757 68.5239 75.9734 67.5341 75.978 66.558V63.6851H77.2487V66.558ZM77.5249 66.558C77.5249 67.5157 77.7367 68.4664 78.1603 69.4102C78.5839 70.3541 79.1548 71.1966 79.873 71.9378C80.5912 72.6791 81.3739 73.2339 82.2211 73.6022L81.3647 74.8177C80.4255 74.3895 79.5691 73.7541 78.7957 72.9116C78.0222 72.0645 77.4075 71.0884 76.9517 69.9834C76.5005 68.8738 76.2772 67.732 76.2819 66.558V63.6851H77.5249V66.558ZM81.6548 64.2928H71.8758V63.0083H81.6548V64.2928ZM85.6189 78.5884H84.0857V61.2265H85.6189V78.5884ZM102.932 73.9337H101.399V61.2403H102.932V73.9337ZM103.47 78.2017H91.7162V76.9309H103.47V78.2017ZM93.2493 77.3591H91.7162V72.6354H93.2493V77.3591ZM93.5532 62.4558C94.4096 62.4558 95.1853 62.6354 95.8805 62.9945C96.5758 63.3536 97.119 63.8577 97.5104 64.5069C97.9017 65.1561 98.0974 65.8904 98.0974 66.7099C98.0974 67.5387 97.9017 68.2776 97.5104 68.9268C97.119 69.576 96.5758 70.0824 95.8805 70.4461C95.1853 70.8052 94.4096 70.9825 93.5532 70.9779C92.6968 70.9825 91.9211 70.8052 91.2258 70.4461C90.5306 70.0824 89.9851 69.576 89.5891 68.9268C89.1932 68.2776 88.9952 67.5387 88.9952 66.7099C88.9952 65.8904 89.1932 65.1561 89.5891 64.5069C89.9851 63.8577 90.5306 63.3536 91.2258 62.9945C91.9211 62.6354 92.6968 62.4558 93.5532 62.4558ZM93.5532 63.7956C92.9731 63.7956 92.4505 63.9199 91.9855 64.1685C91.5205 64.4171 91.1545 64.7647 90.8875 65.2113C90.625 65.6533 90.4961 66.1529 90.5007 66.7099C90.4961 67.2762 90.625 67.7827 90.8875 68.2293C91.1545 68.6713 91.5205 69.0166 91.9855 69.2652C92.4505 69.5138 92.9731 69.6381 93.5532 69.6381C94.1241 69.6381 94.6421 69.5138 95.1071 69.2652C95.5721 69.0166 95.9381 68.6713 96.2051 68.2293C96.4722 67.7827 96.6057 67.2762 96.6057 66.7099C96.6057 66.1529 96.4722 65.6533 96.2051 65.2113C95.9381 64.7647 95.5721 64.4171 95.1071 64.1685C94.6421 63.9199 94.1241 63.7956 93.5532 63.7956ZM111.557 62.4972C112.459 62.4972 113.265 62.6676 113.974 63.0083C114.683 63.349 115.235 63.8301 115.631 64.4517C116.032 65.0686 116.234 65.7753 116.239 66.5718C116.234 67.3683 116.032 68.075 115.631 68.692C115.235 69.3043 114.683 69.7831 113.974 70.1285C113.265 70.4738 112.459 70.6464 111.557 70.6464C110.654 70.6464 109.846 70.4738 109.133 70.1285C108.419 69.7831 107.862 69.302 107.461 68.6851C107.065 68.0681 106.87 67.3637 106.874 66.5718C106.87 65.7799 107.065 65.0732 107.461 64.4517C107.862 63.8301 108.419 63.349 109.133 63.0083C109.846 62.6676 110.654 62.4972 111.557 62.4972ZM111.557 63.837C110.944 63.837 110.396 63.9521 109.913 64.1823C109.434 64.4125 109.057 64.7371 108.78 65.1561C108.509 65.5704 108.375 66.0424 108.38 66.5718C108.375 67.1013 108.509 67.5755 108.78 67.9945C109.057 68.4088 109.434 68.7311 109.913 68.9613C110.396 69.1915 110.944 69.3066 111.557 69.3066C112.164 69.3066 112.71 69.1915 113.193 68.9613C113.677 68.7311 114.054 68.4088 114.326 67.9945C114.598 67.5755 114.733 67.1013 114.733 66.5718C114.733 66.0424 114.598 65.5704 114.326 65.1561C114.054 64.7371 113.677 64.4125 113.193 64.1823C112.71 63.9521 112.164 63.837 111.557 63.837ZM120.12 78.616H118.587V61.2265H120.12V78.616ZM105.976 73.4779C107.335 73.4825 108.622 73.4756 109.837 73.4572C111.057 73.4342 112.332 73.3789 113.663 73.2914C114.994 73.204 116.253 73.0727 117.441 72.8978L117.565 74.0304C116.34 74.2606 115.069 74.4309 113.753 74.5414C112.436 74.6519 111.204 74.721 110.058 74.7486C108.912 74.7762 107.62 74.7901 106.184 74.7901L105.976 73.4779ZM135.477 73.9061H128.82V63.2569H135.477V73.9061ZM130.27 72.6768H134.027V64.4862H130.27V72.6768ZM143.06 78.5884H141.582V61.2265H143.06V78.5884ZM138.765 69.058H134.731V67.7735H138.765V69.058ZM139.58 77.7044H138.102V61.5994H139.58V77.7044ZM159.807 73.9751H158.274V61.2403H159.807V73.9751ZM160.345 78.2017H148.591V76.9309H160.345V78.2017ZM150.124 77.5387H148.591V72.8011H150.124V77.5387ZM151.34 63.9475C151.335 65.0709 151.128 66.1321 150.718 67.1312C150.313 68.1303 149.744 69.0051 149.012 69.7555C148.285 70.506 147.445 71.0746 146.492 71.4613L145.649 70.2597C146.515 69.9236 147.281 69.4332 147.949 68.7887C148.617 68.1395 149.134 67.3983 149.503 66.5649C149.871 65.727 150.055 64.8545 150.055 63.9475V62.2072H151.34V63.9475ZM151.616 63.9475C151.611 64.8177 151.793 65.651 152.162 66.4475C152.535 67.2394 153.053 67.9369 153.715 68.5401C154.378 69.1432 155.138 69.6013 155.994 69.9144L155.193 71.1436C154.231 70.7707 153.382 70.232 152.645 69.5276C151.913 68.8186 151.344 67.9853 150.939 67.0276C150.534 66.07 150.332 65.0433 150.332 63.9475V62.2072H151.616V63.9475ZM177.147 78.616H175.614V61.2265H177.147V78.616ZM176.084 68.8232H171.802V67.5525H176.084V68.8232ZM168.473 66.3785C168.468 67.5801 168.245 68.7657 167.803 69.9351C167.366 71.0999 166.77 72.1427 166.014 73.0635C165.264 73.9797 164.44 74.675 163.542 75.1492L162.603 73.9475C163.436 73.547 164.205 72.9438 164.909 72.1381C165.619 71.3278 166.18 70.4162 166.595 69.4033C167.014 68.3904 167.225 67.3821 167.23 66.3785V63.6713H168.473V66.3785ZM168.777 66.3785C168.777 67.3223 168.984 68.2776 169.398 69.2445C169.813 70.2067 170.37 71.0723 171.07 71.8412C171.774 72.61 172.543 73.1832 173.376 73.5608L172.451 74.7901C171.539 74.3435 170.711 73.6805 169.965 72.8011C169.219 71.9171 168.63 70.9134 168.197 69.7901C167.764 68.6667 167.548 67.5295 167.548 66.3785V63.6713H168.777V66.3785ZM172.755 64.2928H163.266V63.0083H172.755V64.2928ZM198.637 70.0663H197.104V61.2265H198.637V70.0663ZM201.247 66.2818H197.946V64.9972H201.247V66.2818ZM198.637 75.1215H189.106V77.7735H187.601V73.9613H197.117V72.1243H187.559V70.895H198.637V75.1215ZM199.272 78.3536H187.601V77.1105H199.272V78.3536ZM189.908 61.8619C190.769 61.8665 191.54 62.0322 192.221 62.3591C192.907 62.6814 193.443 63.1349 193.83 63.7196C194.217 64.3043 194.41 64.9696 194.41 65.7155C194.41 66.4659 194.217 67.1335 193.83 67.7182C193.443 68.2983 192.907 68.7518 192.221 69.0787C191.54 69.4056 190.769 69.5691 189.908 69.5691C189.047 69.5691 188.271 69.4056 187.58 69.0787C186.894 68.7518 186.356 68.296 185.964 67.7113C185.577 67.1266 185.386 66.4613 185.391 65.7155C185.386 64.9696 185.577 64.3043 185.964 63.7196C186.356 63.1349 186.894 62.6814 187.58 62.3591C188.266 62.0322 189.042 61.8665 189.908 61.8619ZM189.908 63.1464C189.332 63.1418 188.814 63.25 188.354 63.471C187.898 63.6874 187.539 63.9936 187.276 64.3895C187.019 64.7808 186.892 65.2228 186.896 65.7155C186.892 66.2127 187.019 66.6593 187.276 67.0552C187.539 67.4512 187.898 67.762 188.354 67.9876C188.814 68.2132 189.332 68.326 189.908 68.326C190.478 68.326 190.994 68.2132 191.455 67.9876C191.915 67.762 192.274 67.4512 192.532 67.0552C192.79 66.6593 192.919 66.2127 192.919 65.7155C192.919 65.2228 192.79 64.7808 192.532 64.3895C192.274 63.9936 191.915 63.6874 191.455 63.471C190.994 63.25 190.478 63.1418 189.908 63.1464ZM216.682 71.5304H215.149V61.2403H216.682V71.5304ZM204.665 69.4033C205.784 69.4079 206.788 69.3964 207.676 69.3688C208.569 69.3366 209.446 69.2813 210.307 69.203C211.168 69.1248 212.059 69.012 212.98 68.8646L213.173 70.1354C211.788 70.3517 210.455 70.4991 209.175 70.5773C207.895 70.651 206.392 70.6878 204.665 70.6878H203.256V69.4033H204.665ZM211.157 67H204.748V70.2044H203.256V65.7845H209.637V63.5331H203.215V62.2901H211.157V67ZM216.682 78.3536H205.383V72.4696H216.682V78.3536ZM206.903 77.0967H215.176V73.7127H206.903V77.0967ZM227.53 61.5304C228.819 61.5304 229.922 61.6455 230.838 61.8757C231.755 62.1059 232.454 62.4466 232.938 62.8978C233.421 63.3444 233.663 63.8877 233.663 64.5276C233.663 65.1768 233.421 65.727 232.938 66.1782C232.454 66.6248 231.755 66.9678 230.838 67.2072C229.922 67.442 228.819 67.5617 227.53 67.5663C226.241 67.5617 225.139 67.442 224.222 67.2072C223.306 66.9678 222.604 66.6248 222.116 66.1782C221.628 65.727 221.384 65.1768 221.384 64.5276C221.384 63.8877 221.628 63.3444 222.116 62.8978C222.604 62.4466 223.306 62.1059 224.222 61.8757C225.139 61.6455 226.241 61.5304 227.53 61.5304ZM227.53 62.6906C226.582 62.6906 225.767 62.7643 225.086 62.9116C224.404 63.0589 223.882 63.2707 223.518 63.547C223.159 63.8186 222.982 64.1455 222.986 64.5276C222.982 64.9236 223.156 65.2597 223.511 65.5359C223.87 65.8122 224.39 66.0239 225.072 66.1713C225.753 66.3186 226.573 66.3923 227.53 66.3923C228.493 66.3923 229.314 66.3186 229.996 66.1713C230.682 66.0239 231.204 65.8122 231.563 65.5359C231.923 65.2597 232.102 64.9236 232.102 64.5276C232.102 64.1455 231.923 63.8186 231.563 63.547C231.204 63.2707 230.68 63.0589 229.989 62.9116C229.303 62.7643 228.483 62.6906 227.53 62.6906ZM235.459 69.9834H219.63V68.7403H235.459V69.9834ZM233.414 75.3702H223.097V77.4972H221.591V74.2376H231.909V72.663H221.55V71.4889H233.414V75.3702ZM233.939 78.395H221.591V77.1796H233.939V78.395ZM107.002 107.365H91.1044V106.08H107.002V107.365ZM99.7646 106.481H98.2453V101.895H99.7646V106.481ZM94.516 96.5912H103.535V93.4558H105.055V102.337H92.9829V93.4558H94.516V96.5912ZM103.535 101.08V97.8481H94.516V101.08H103.535ZM121.359 95.2514H110.075V93.9807H121.359V95.2514ZM124.218 107.13H108.39V105.845H124.218V107.13ZM116.111 106.508H114.591V99.6436H116.111V106.508ZM122.312 95.8591C122.308 96.8168 122.291 97.6455 122.264 98.3453C122.241 99.0451 122.183 99.8508 122.091 100.762C121.999 101.674 121.856 102.659 121.663 103.718L120.116 103.539C120.314 102.54 120.459 101.593 120.551 100.7C120.648 99.8025 120.708 99.0083 120.731 98.3177C120.758 97.6225 120.774 96.8029 120.779 95.8591V95.7072V93.9807H122.312V95.7072V95.8591ZM139.354 104.588H137.849V101.84H139.354V104.588ZM146.523 102.213H130.694V100.97H146.523V102.213ZM144.562 109.533H143.015V105.459H132.448V104.202H144.562V109.533ZM139.354 94.5608H137.849V92.1436H139.354V94.5608ZM139.106 95.0304C139.106 95.9558 138.793 96.7684 138.167 97.4682C137.54 98.1634 136.7 98.7228 135.646 99.1464C134.592 99.57 133.42 99.8508 132.131 99.9889L131.633 98.8149C132.761 98.7044 133.79 98.4788 134.72 98.1381C135.655 97.7974 136.396 97.36 136.944 96.826C137.492 96.2919 137.766 95.6934 137.766 95.0304V94.7265H139.106V95.0304ZM139.437 95.0304C139.433 95.6934 139.702 96.2919 140.245 96.826C140.793 97.36 141.532 97.7974 142.462 98.1381C143.397 98.4788 144.433 98.7044 145.57 98.8149L145.073 99.9889C143.779 99.8508 142.605 99.57 141.551 99.1464C140.501 98.7228 139.663 98.1634 139.037 97.4682C138.411 96.7684 138.098 95.9558 138.098 95.0304V94.7265H139.437V95.0304ZM144.907 95.1685H132.324V93.9392H144.907V95.1685ZM161.419 109.588H159.899V92.2265H161.419V109.588ZM164.319 100.666H161.073V99.3812H164.319V100.666ZM158.214 96.2873H147.883V95.0166H158.214V96.2873ZM153.131 97.7238C153.942 97.7238 154.669 97.8918 155.314 98.2279C155.958 98.564 156.462 99.0359 156.826 99.6436C157.194 100.251 157.381 100.942 157.385 101.715C157.381 102.489 157.194 103.177 156.826 103.78C156.462 104.384 155.958 104.853 155.314 105.189C154.669 105.525 153.942 105.693 153.131 105.693C152.316 105.693 151.584 105.525 150.935 105.189C150.291 104.853 149.784 104.384 149.416 103.78C149.052 103.173 148.873 102.484 148.877 101.715C148.873 100.947 149.052 100.258 149.416 99.6506C149.784 99.0382 150.291 98.564 150.935 98.2279C151.584 97.8918 152.316 97.7238 153.131 97.7238ZM153.131 99.0083C152.597 99.0083 152.118 99.1234 151.695 99.3536C151.271 99.5838 150.938 99.9061 150.693 100.32C150.454 100.735 150.337 101.2 150.341 101.715C150.337 102.231 150.454 102.694 150.693 103.104C150.938 103.513 151.271 103.833 151.695 104.064C152.118 104.289 152.597 104.4 153.131 104.395C153.661 104.4 154.135 104.289 154.554 104.064C154.978 103.833 155.309 103.513 155.548 103.104C155.792 102.694 155.917 102.231 155.921 101.715C155.917 101.2 155.792 100.735 155.548 100.32C155.309 99.9061 154.978 99.5838 154.554 99.3536C154.135 99.1234 153.661 99.0083 153.131 99.0083ZM153.877 95.5967H152.344V92.4337H153.877V95.5967ZM173.939 96.4807H165.223V95.2238H173.939V96.4807ZM169.588 97.6547C170.306 97.6547 170.951 97.8227 171.521 98.1588C172.092 98.4949 172.537 98.9622 172.854 99.5608C173.177 100.155 173.34 100.831 173.345 101.591C173.34 102.36 173.177 103.046 172.854 103.649C172.537 104.248 172.092 104.717 171.521 105.058C170.951 105.399 170.306 105.569 169.588 105.569C168.874 105.569 168.232 105.399 167.661 105.058C167.095 104.717 166.65 104.248 166.328 103.649C166.01 103.046 165.854 102.36 165.858 101.591C165.854 100.831 166.01 100.155 166.328 99.5608C166.65 98.9622 167.095 98.4949 167.661 98.1588C168.232 97.8227 168.874 97.6547 169.588 97.6547ZM169.588 98.9392C169.132 98.9438 168.722 99.0612 168.358 99.2914C167.999 99.517 167.719 99.8324 167.516 100.238C167.313 100.638 167.212 101.089 167.212 101.591C167.212 102.102 167.313 102.558 167.516 102.959C167.719 103.355 167.999 103.668 168.358 103.898C168.722 104.123 169.132 104.234 169.588 104.229C170.044 104.234 170.453 104.123 170.817 103.898C171.185 103.668 171.471 103.352 171.673 102.952C171.876 102.551 171.977 102.098 171.977 101.591C171.977 101.089 171.876 100.638 171.673 100.238C171.471 99.8324 171.185 99.517 170.817 99.2914C170.453 99.0612 170.044 98.9438 169.588 98.9392ZM180.057 109.588H178.593V92.2265H180.057V109.588ZM179.077 100.818H175.748V99.547H179.077V100.818ZM176.287 108.732H174.836V92.6409H176.287V108.732ZM170.361 95.9972H168.828V92.7514H170.361V95.9972ZM190.837 94.395C190.832 95.3343 190.519 96.1906 189.898 96.9641C189.281 97.7376 188.459 98.3752 187.432 98.8771C186.41 99.3789 185.298 99.7173 184.097 99.8923L183.517 98.6768C184.548 98.5387 185.522 98.2624 186.438 97.8481C187.354 97.4337 188.088 96.9273 188.641 96.3287C189.193 95.7256 189.47 95.081 189.47 94.395V93.8564H190.837V94.395ZM191.459 94.395C191.454 95.0764 191.73 95.7187 192.287 96.3218C192.849 96.925 193.586 97.4337 194.497 97.8481C195.413 98.2624 196.389 98.5387 197.425 98.6768L196.831 99.8923C195.63 99.7173 194.516 99.3789 193.489 98.8771C192.467 98.3752 191.645 97.7376 191.023 96.9641C190.402 96.1906 190.091 95.3343 190.091 94.395V93.8564H191.459V94.395ZM196.956 94.3536H184V93.0967H196.956V94.3536ZM198.42 102.434H182.522V101.163H198.42V102.434ZM191.348 105.983H189.829V101.95H191.348V105.983ZM196.652 109.202H184.566V107.931H196.652V109.202ZM186.099 108.401H184.566V104.257H186.099V108.401ZM213.274 109.616H211.741V92.2265H213.274V109.616ZM216.175 100.376H212.929V99.0912H216.175V100.376ZM201.962 103.967C203.661 103.967 205.12 103.923 206.34 103.836C207.565 103.748 208.808 103.589 210.07 103.359L210.263 104.685C208.974 104.915 207.712 105.07 206.479 105.148C205.245 105.226 203.739 105.265 201.962 105.265H200.595V103.967H201.962ZM208.702 95.1823H202.128V104.561H200.595V93.9254H208.702V95.1823Z" fill="white"/>
<path d="M16.9613 11.4448H13.7431V10.1602H16.9613V11.4448ZM14.1436 20.5746H12.6105V3.22652H14.1436V20.5746ZM2.94199 15.6713H1.42265V4.93923H2.94199V15.6713ZM2.80387 14.884C4.18508 14.884 5.53867 14.8241 6.86464 14.7044C8.19521 14.5801 9.55341 14.3729 10.9392 14.0829L11.1326 15.395C9.71455 15.6759 8.32643 15.8762 6.96823 15.9959C5.61464 16.111 4.22652 16.1685 2.80387 16.1685H1.42265V14.884H2.80387ZM19.8266 19.1105C19.601 19.1105 19.3892 19.0529 19.1912 18.9378C18.9979 18.8227 18.8436 18.6708 18.7285 18.482C18.618 18.2887 18.5651 18.0792 18.5697 17.8536C18.5651 17.628 18.618 17.4185 18.7285 17.2251C18.8436 17.0272 18.9979 16.8729 19.1912 16.7624C19.3892 16.6519 19.601 16.5967 19.8266 16.5967C20.0522 16.5967 20.2617 16.6519 20.455 16.7624C20.653 16.8729 20.8073 17.0272 20.9178 17.2251C21.0283 17.4185 21.0835 17.628 21.0835 17.8536C21.0835 18.0792 21.0283 18.2887 20.9178 18.482C20.8073 18.6708 20.653 18.8227 20.455 18.9378C20.2617 19.0529 20.0522 19.1105 19.8266 19.1105Z" fill="white"/>
<defs>
<clipPath id="clip0_380_1355">
<rect width="305" height="104" fill="white" transform="translate(0 32)"/>
</clipPath>
</defs>
</svg>
