<svg width="305" height="136" viewBox="0 0 305 136" fill="none" xmlns="http://www.w3.org/2000/svg">
<g clip-path="url(#clip0_380_1346)">
<path d="M1.41202 134.599L303.6 134.599V33.4014L1.41202 33.4014V134.599Z" fill="#4AE6CA"/>
<path d="M2.63443 33.4014H302.366C303.042 33.4014 303.6 33.9477 303.6 34.6365V133.363C303.6 134.04 303.054 134.599 302.366 134.599H2.63443C1.95802 134.599 1.40028 134.052 1.40028 133.363V34.6365C1.40028 33.9596 1.94615 33.4014 2.63443 33.4014ZM2.63443 32C1.17481 32 0 33.1757 0 34.6365V133.363C0 134.812 1.17481 136 2.63443 136H302.366C303.813 136 305 134.824 305 133.363V34.6365C305 33.1757 303.813 32 302.366 32H2.63443Z" fill="#0F594B"/>
<path d="M12.4247 123.566L292.576 123.566V44.4343L12.4247 44.4343V123.566Z" fill="#0F594B"/>
<mask id="mask0_380_1346" style="mask-type:luminance" maskUnits="userSpaceOnUse" x="12" y="44" width="281" height="80">
<path d="M12.4242 123.566L292.575 123.566V44.4345L12.4242 44.4345V123.566Z" fill="white"/>
</mask>
<g mask="url(#mask0_380_1346)">
<path d="M39.5752 103.471C50.3432 103.471 59.0724 94.7349 59.0724 83.9584C59.0724 73.1819 50.3432 64.4458 39.5752 64.4458C28.8073 64.4458 20.0781 73.1819 20.0781 83.9584C20.0781 94.7349 28.8073 103.471 39.5752 103.471Z" fill="#4DD3B8"/>
<path d="M39.5873 103.958C28.5631 103.958 19.5918 94.9796 19.5918 83.9466C19.5918 72.9136 28.5631 63.9352 39.5873 63.9352C50.6116 63.9352 59.5828 72.9136 59.5828 83.9466C59.5828 94.9796 50.6116 103.958 39.5873 103.958ZM39.5873 64.9328C29.109 64.9328 20.5886 73.4599 20.5886 83.9466C20.5886 94.4333 29.109 102.96 39.5873 102.96C50.0657 102.96 58.586 94.4333 58.586 83.9466C58.586 73.4599 50.0657 64.9328 39.5873 64.9328Z" fill="#13604E"/>
<path d="M33.0723 96.9629C40.2487 96.9629 46.0664 91.1406 46.0664 83.9584C46.0664 76.7763 40.2487 70.954 33.0723 70.954C25.8958 70.954 20.0781 76.7763 20.0781 83.9584C20.0781 91.1406 25.8958 96.9629 33.0723 96.9629Z" fill="#13604E"/>
<path d="M20.0904 83.9585C30.8583 83.9585 39.5875 75.2224 39.5875 64.4458C39.5875 53.6693 30.8583 44.9332 20.0904 44.9332C9.32242 44.9332 0.593262 53.6693 0.593262 64.4458C0.593262 75.2224 9.32242 83.9585 20.0904 83.9585Z" fill="#4DD3B8"/>
<path d="M20.0903 84.4454C9.06601 84.4454 0.0947266 75.4789 0.0947266 64.4459C0.0947266 53.4129 9.06601 44.4344 20.0903 44.4344C31.1145 44.4344 40.0858 53.4129 40.0858 64.4459C40.0858 75.4789 31.1145 84.4573 20.0903 84.4573V84.4454ZM20.0903 45.4202C9.61189 45.4321 1.09154 53.9592 1.09154 64.4459C1.09154 74.9326 9.61189 83.4597 20.0903 83.4597C30.5686 83.4597 39.089 74.9326 39.089 64.4459C39.089 53.9592 30.5686 45.4321 20.0903 45.4321V45.4202Z" fill="#13604E"/>
<path d="M20.0904 122.984C30.8583 122.984 39.5875 114.248 39.5875 103.471C39.5875 92.6946 30.8583 83.9585 20.0904 83.9585C9.32242 83.9585 0.593262 92.6946 0.593262 103.471C0.593262 114.248 9.32242 122.984 20.0904 122.984Z" fill="#4DD3B8"/>
<path d="M20.0903 123.471C9.06601 123.471 0.0947266 114.504 0.0947266 103.471C0.0947266 92.4381 9.06601 83.4597 20.0903 83.4597C31.1145 83.4597 40.0858 92.4381 40.0858 103.471C40.0858 114.504 31.1145 123.483 20.0903 123.483V123.471ZM20.0903 84.4454C9.61189 84.4454 1.09154 92.9844 1.09154 103.471C1.09154 113.958 9.61189 122.485 20.0903 122.485C30.5686 122.485 39.089 113.958 39.089 103.471C39.089 92.9844 30.5686 84.4573 20.0903 84.4573V84.4454Z" fill="#13604E"/>
<path d="M0.593229 64.4459C0.593229 64.4459 0.130424 52.4153 13.5755 51.4414C27.1511 50.4557 30.3788 60.8236 30.7349 62.6525C31.1621 64.8496 31.0197 67.1061 29.0379 70.2414C28.2428 71.5003 26.3441 74.2319 21.1346 75.0157C21.1346 75.0157 13.0534 75.752 11.4276 67.7356C11.4276 67.7356 10.7868 62.1775 16.0438 61.1324C16.0438 61.1324 17.6221 60.883 18.2866 61.5481C18.2866 61.5481 19.4258 62.8426 18.0493 63.6858C17.1355 64.244 15.1419 64.0896 14.7384 66.8211C14.3587 69.3626 16.9338 70.9184 18.2629 71.3341C21.8466 72.4623 24.3149 71.726 26.3204 69.6714C26.3204 69.6714 29.9872 66.6548 28.0292 61.1918C25.5372 54.2442 19.319 52.2134 13.6111 52.6053C13.6111 52.6053 1.44764 52.9259 0.889898 67.7356C0.889898 67.7356 0.605095 65.4791 0.616962 64.4459H0.593229Z" fill="#13604E"/>
<path d="M0.593093 103.459C0.593093 103.459 0.142155 91.4287 13.5754 90.4548C27.1509 89.4691 30.3787 99.837 30.7347 101.666C31.1619 103.863 31.0195 106.12 29.0378 109.255C28.2427 110.514 26.344 113.245 21.1345 114.029C21.1345 114.029 13.0532 114.765 11.4275 106.749C11.4275 106.749 10.7867 101.191 16.0436 100.146C16.0436 100.146 17.6219 99.8964 18.2865 100.561C18.2865 100.561 19.4257 101.856 18.0491 102.699C17.1354 103.257 15.1418 103.103 14.7383 105.835C14.3586 108.376 16.9337 109.932 18.2627 110.347C21.8465 111.476 24.3148 110.739 26.3203 108.685C26.3203 108.685 29.9871 105.668 28.0291 100.205C25.5371 93.2576 19.3189 91.2268 13.611 91.6187C13.611 91.6187 1.4475 91.9394 0.889763 106.749C0.889763 106.749 0.60496 104.493 0.616827 103.459H0.593093Z" fill="#13604E"/>
<path d="M0.593262 64.4458C11.3564 64.4458 20.0904 73.1867 20.0904 83.9584C20.0904 94.7301 11.3564 103.471 0.593262 103.471V64.4458Z" fill="#4DD3B8"/>
<path d="M0.593262 63.947C11.6175 63.947 20.5888 72.9254 20.5888 83.9584C20.5888 94.9914 11.6175 103.958 0.593262 103.958V63.947ZM0.593262 102.972C11.0716 102.972 19.592 94.4451 19.592 83.9584C19.592 73.4717 11.0598 64.9327 0.593262 64.9327V102.972Z" fill="#13604E"/>
<path d="M265.364 103.471C276.132 103.471 284.861 94.7349 284.861 83.9584C284.861 73.1819 276.132 64.4458 265.364 64.4458C254.596 64.4458 245.867 73.1819 245.867 83.9584C245.867 94.7349 254.596 103.471 265.364 103.471Z" fill="#4DD3B8"/>
<path d="M245.381 83.9584C245.381 72.9254 254.352 63.947 265.376 63.947C276.401 63.947 285.372 72.9254 285.372 83.9584C285.372 94.9914 276.401 103.97 265.376 103.97C254.352 103.97 245.381 94.9914 245.381 83.9584ZM246.378 83.9584C246.378 94.4451 254.898 102.972 265.376 102.972C275.855 102.972 284.375 94.4451 284.375 83.9584C284.375 73.4717 275.855 64.9446 265.376 64.9446C254.898 64.9446 246.378 73.4717 246.378 83.9584Z" fill="#13604E"/>
<path d="M271.879 96.9629C279.056 96.9629 284.873 91.1406 284.873 83.9584C284.873 76.7763 279.056 70.954 271.879 70.954C264.703 70.954 258.885 76.7763 258.885 83.9584C258.885 91.1406 264.703 96.9629 271.879 96.9629Z" fill="#13604E"/>
<path d="M284.862 83.9585C295.63 83.9585 304.359 75.2224 304.359 64.4458C304.359 53.6693 295.63 44.9332 284.862 44.9332C274.094 44.9332 265.365 53.6693 265.365 64.4458C265.365 75.2224 274.094 83.9585 284.862 83.9585Z" fill="#4DD3B8"/>
<path d="M264.866 64.4459C264.866 53.4129 273.838 44.4344 284.862 44.4344C295.886 44.4344 304.857 53.4129 304.857 64.4459C304.857 75.4789 295.886 84.4573 284.862 84.4573C273.838 84.4573 264.866 75.4789 264.866 64.4459ZM265.863 64.4459C265.863 74.9326 274.383 83.4597 284.862 83.4597C295.34 83.4597 303.86 74.9326 303.86 64.4459C303.86 53.9592 295.34 45.4321 284.862 45.4321C274.383 45.4321 265.863 53.9592 265.863 64.4459Z" fill="#13604E"/>
<path d="M284.862 122.984C295.63 122.984 304.359 114.248 304.359 103.471C304.359 92.6946 295.63 83.9585 284.862 83.9585C274.094 83.9585 265.365 92.6946 265.365 103.471C265.365 114.248 274.094 122.984 284.862 122.984Z" fill="#4DD3B8"/>
<path d="M264.866 103.471C264.866 92.4381 273.838 83.4597 284.862 83.4597C295.886 83.4597 304.857 92.4381 304.857 103.471C304.857 114.504 295.886 123.483 284.862 123.483C273.838 123.483 264.866 114.504 264.866 103.471ZM265.863 103.471C265.863 113.958 274.383 122.485 284.862 122.485C295.34 122.485 303.86 113.958 303.86 103.471C303.86 92.9844 295.34 84.4573 284.862 84.4573C274.383 84.4573 265.863 92.9844 265.863 103.471Z" fill="#13604E"/>
<path d="M304.359 64.4459C304.359 64.4459 304.81 52.4153 291.376 51.4414C277.801 50.4557 274.573 60.8236 274.217 62.6525C273.79 64.8496 273.932 67.1061 275.914 70.2414C276.709 71.5003 278.608 74.2319 283.817 75.0157C283.817 75.0157 291.899 75.752 293.524 67.7356C293.524 67.7356 294.165 62.1775 288.908 61.1324C288.908 61.1324 287.33 60.883 286.665 61.5481C286.665 61.5481 285.526 62.8426 286.903 63.6858C287.816 64.244 289.81 64.0896 290.214 66.8211C290.593 69.3626 288.018 70.9184 286.689 71.3341C283.105 72.4623 280.637 71.726 278.632 69.6714C278.632 69.6714 274.965 66.6548 276.923 61.1918C279.415 54.2442 285.633 52.2134 291.341 52.6053C291.341 52.6053 303.504 52.9259 304.062 67.7356C304.062 67.7356 304.347 65.4791 304.335 64.4459H304.359Z" fill="#13604E"/>
<path d="M304.359 103.459C304.359 103.459 304.81 91.4287 291.376 90.4548C277.801 89.4691 274.573 99.837 274.217 101.666C273.79 103.863 273.932 106.12 275.914 109.255C276.709 110.514 278.608 113.245 283.817 114.029C283.817 114.029 291.899 114.765 293.524 106.749C293.524 106.749 294.165 101.191 288.908 100.146C288.908 100.146 287.33 99.8964 286.665 100.561C286.665 100.561 285.526 101.856 286.903 102.699C287.816 103.257 289.81 103.103 290.214 105.835C290.593 108.376 288.018 109.932 286.689 110.347C283.105 111.476 280.637 110.739 278.632 108.685C278.632 108.685 274.965 105.668 276.923 100.205C279.415 93.2576 285.633 91.2268 291.341 91.6187C291.341 91.6187 303.504 91.9394 304.062 106.749C304.062 106.749 304.347 104.493 304.335 103.459H304.359Z" fill="#13604E"/>
<path d="M304.359 64.4458C293.596 64.4458 284.862 73.1867 284.862 83.9584C284.862 94.7301 293.596 103.471 304.359 103.471V64.4458Z" fill="#4DD3B8"/>
<path d="M304.359 103.958C293.335 103.958 284.363 94.9796 284.363 83.9466C284.363 72.9136 293.335 63.9352 304.359 63.9352V103.958ZM304.359 64.9328C293.88 64.9328 285.36 73.4599 285.36 83.9466C285.36 94.4333 293.88 102.96 304.359 102.96V64.9328Z" fill="#13604E"/>
</g>
<path d="M12.4247 44.4344H292.576V123.566H12.4247V44.4344ZM12.4247 43.033C11.6534 43.033 11.0244 43.6624 11.0244 44.4344V123.566C11.0244 124.338 11.6534 124.967 12.4247 124.967H292.576C293.347 124.967 293.976 124.338 293.976 123.566V44.4344C293.976 43.6624 293.347 43.033 292.576 43.033H12.4247Z" fill="#0F594B"/>
</g>
<path d="M81.3732 64.6796C81.3686 65.5359 81.2006 66.3831 80.8691 67.221C80.5422 68.0589 80.0703 68.8163 79.4533 69.4931C78.841 70.1699 78.1228 70.6878 77.2986 71.047L76.4561 69.8591C77.1974 69.5322 77.8465 69.0879 78.4036 68.5262C78.9653 67.9599 79.3958 67.3407 79.6951 66.6685C79.9943 65.9917 80.1439 65.3287 80.1439 64.6796V62.3177H81.3732V64.6796ZM81.6218 64.6796C81.6218 65.3241 81.7669 65.9549 82.0569 66.5718C82.347 67.1888 82.7614 67.7436 83.3 68.2362C83.8387 68.7242 84.4718 69.1041 85.1992 69.3757L84.3843 70.5635C83.5555 70.2459 82.8419 69.7855 82.2434 69.1823C81.6449 68.5746 81.1868 67.884 80.8691 67.1105C80.556 66.3324 80.4018 65.5221 80.4064 64.6796V62.3177H81.6218V64.6796ZM91.1799 71.9586H89.7296V61.2403H91.1799V71.9586ZM90.213 67.1796H86.8843V65.9088H90.213V67.1796ZM87.4091 71.4061H85.9727V61.5718H87.4091V71.4061ZM85.4478 72.3453C86.6403 72.3453 87.6739 72.4673 88.5486 72.7113C89.428 72.9553 90.1025 73.3122 90.5721 73.7818C91.0417 74.2468 91.2765 74.8039 91.2765 75.453C91.2765 76.0976 91.0417 76.6524 90.5721 77.1174C90.1025 77.5824 89.428 77.9369 88.5486 78.1809C87.6739 78.425 86.6403 78.547 85.4478 78.547C84.2462 78.547 83.2056 78.425 82.3263 78.1809C81.4515 77.9369 80.7793 77.5824 80.3097 77.1174C79.8447 76.6524 79.6145 76.0976 79.6191 75.453C79.6145 74.8039 79.8447 74.2468 80.3097 73.7818C80.7793 73.3122 81.4515 72.9553 82.3263 72.7113C83.2056 72.4673 84.2462 72.3453 85.4478 72.3453ZM85.4478 73.5331C84.5638 73.5331 83.7973 73.6091 83.1481 73.761C82.4989 73.913 81.9994 74.134 81.6495 74.424C81.3042 74.7141 81.1338 75.0571 81.1384 75.453C81.1338 75.8444 81.3042 76.1851 81.6495 76.4751C81.9994 76.7606 82.4989 76.977 83.1481 77.1243C83.7973 77.2762 84.5638 77.3499 85.4478 77.3453C86.3226 77.3499 87.0846 77.2762 87.7337 77.1243C88.3829 76.977 88.8801 76.7606 89.2254 76.4751C89.5753 76.1851 89.7526 75.8444 89.7572 75.453C89.7526 75.0571 89.5753 74.7141 89.2254 74.424C88.8801 74.134 88.3829 73.913 87.7337 73.761C87.0846 73.6091 86.3226 73.5331 85.4478 73.5331ZM107.305 71.4199H105.772V61.2265H107.305V71.4199ZM109.915 66.9448H106.877V65.6326H109.915V66.9448ZM102.54 62.3315C102.535 63.7818 102.206 65.0939 101.552 66.268C100.903 67.4374 99.9659 68.4411 98.7413 69.279C97.5166 70.1169 96.0479 70.7615 94.3352 71.2127L93.6998 70.0249C95.21 69.6151 96.506 69.0672 97.5879 68.3812C98.6699 67.6906 99.4963 66.8918 100.067 65.9848C100.643 65.0732 100.933 64.0856 100.937 63.0221V62.3315H102.54ZM101.78 63.6022H94.4871V62.3315H101.78V63.6022ZM107.305 78.5884H105.772V73.4641H95.9374V72.2072H107.305V78.5884ZM125.322 78.616H123.789V61.2265H125.322V78.616ZM116.095 62.5663C116.952 62.5709 117.716 62.8218 118.388 63.3191C119.06 63.8117 119.585 64.5161 119.963 65.4323C120.34 66.3485 120.529 67.4098 120.529 68.616C120.529 69.8269 120.34 70.8904 119.963 71.8066C119.585 72.7182 119.058 73.4227 118.381 73.9199C117.709 74.4171 116.947 74.6657 116.095 74.6657C115.235 74.6657 114.468 74.4171 113.796 73.9199C113.128 73.4227 112.606 72.7182 112.228 71.8066C111.851 70.895 111.662 69.8315 111.662 68.616C111.662 67.4052 111.851 66.3439 112.228 65.4323C112.606 64.5161 113.128 63.8117 113.796 63.3191C114.468 62.8218 115.235 62.5709 116.095 62.5663ZM116.095 63.9337C115.52 63.9383 115.007 64.1363 114.555 64.5276C114.109 64.9144 113.761 65.4622 113.513 66.1713C113.264 66.8757 113.14 67.6906 113.14 68.616C113.14 69.546 113.264 70.3656 113.513 71.0746C113.761 71.7836 114.109 72.3315 114.555 72.7182C115.007 73.105 115.52 73.2983 116.095 73.2983C116.671 73.2983 117.18 73.105 117.622 72.7182C118.068 72.3315 118.416 71.7836 118.665 71.0746C118.913 70.3656 119.037 69.546 119.037 68.616C119.037 67.6906 118.913 66.8757 118.665 66.1713C118.416 65.4622 118.068 64.9144 117.622 64.5276C117.18 64.1363 116.671 63.9383 116.095 63.9337ZM138.897 64.0028C138.897 64.9834 138.69 65.8996 138.276 66.7514C137.861 67.5985 137.279 68.3306 136.529 68.9475C135.783 69.5599 134.919 70.0203 133.939 70.3287L133.179 69.1271C134.049 68.8554 134.821 68.4618 135.493 67.9461C136.169 67.4259 136.697 66.8273 137.074 66.1506C137.456 65.4692 137.65 64.7532 137.654 64.0028V62.5939H138.897V64.0028ZM139.187 63.9751C139.183 64.6565 139.362 65.3103 139.726 65.9365C140.094 66.5626 140.608 67.1151 141.266 67.5939C141.929 68.0681 142.687 68.4319 143.538 68.6851L142.806 69.8729C141.844 69.5875 140.992 69.1547 140.251 68.5746C139.514 67.9945 138.941 67.3085 138.531 66.5166C138.126 65.7247 137.926 64.8775 137.931 63.9751V62.5939H139.187V63.9751ZM143.069 63.4641H133.704V62.221H143.069V63.4641ZM146.895 70.1906H145.361V61.2265H146.895V70.1906ZM149.505 66.2956H146.204V65.0249H149.505V66.2956ZM146.895 75.1492H137.364V77.884H135.859V74.0166H145.375V72.2072H135.817V70.9917H146.895V75.1492ZM147.53 78.4227H135.859V77.2072H147.53V78.4227ZM171.465 69.7624H155.622V68.5193H171.465V69.7624ZM169.572 67.0967H157.735V65.8398H169.572V67.0967ZM169.393 63.0635H159.268V66.8204H157.735V61.8204H169.393V63.0635ZM169.407 75.3425H159.089V77.5663H157.583V74.1823H167.901V72.511H157.542V71.3094H169.407V75.3425ZM169.931 78.3812H157.583V77.1381H169.931V78.3812ZM178.846 66.558C178.842 67.7505 178.612 68.9291 178.156 70.0939C177.705 71.2541 177.095 72.2901 176.326 73.2017C175.561 74.1087 174.726 74.7901 173.819 75.2459L172.907 74.0304C173.731 73.639 174.5 73.0428 175.214 72.2417C175.932 71.436 176.503 70.5313 176.926 69.5276C177.355 68.5239 177.571 67.5341 177.576 66.558V63.6851H178.846V66.558ZM179.123 66.558C179.123 67.5157 179.334 68.4664 179.758 69.4102C180.182 70.3541 180.752 71.1966 181.471 71.9378C182.189 72.6791 182.972 73.2339 183.819 73.6022L182.962 74.8177C182.023 74.3895 181.167 73.7541 180.393 72.9116C179.62 72.0645 179.005 71.0884 178.549 69.9834C178.098 68.8738 177.875 67.732 177.88 66.558V63.6851H179.123V66.558ZM183.252 64.2928H173.473V63.0083H183.252V64.2928ZM187.217 78.5884H185.683V61.2265H187.217V78.5884ZM200.06 62.221C200.916 62.221 201.687 62.3913 202.373 62.732C203.059 63.0727 203.596 63.5493 203.983 64.1616C204.369 64.7693 204.563 65.4576 204.563 66.2265C204.563 67 204.369 67.6906 203.983 68.2983C203.596 68.9061 203.059 69.3826 202.373 69.7279C201.687 70.0686 200.916 70.2413 200.06 70.2459C199.199 70.2413 198.423 70.0686 197.733 69.7279C197.047 69.3826 196.508 68.9061 196.117 68.2983C195.73 67.6906 195.539 67 195.543 66.2265C195.539 65.4576 195.732 64.7693 196.123 64.1616C196.519 63.5493 197.06 63.0727 197.746 62.732C198.432 62.3913 199.204 62.221 200.06 62.221ZM200.06 63.5055C199.494 63.5055 198.98 63.6229 198.52 63.8577C198.064 64.0925 197.703 64.4171 197.436 64.8315C197.173 65.2459 197.044 65.7109 197.049 66.2265C197.044 66.7468 197.173 67.2164 197.436 67.6354C197.703 68.0497 198.064 68.3766 198.52 68.616C198.98 68.8554 199.494 68.9751 200.06 68.9751C200.626 68.9751 201.137 68.8554 201.593 68.616C202.053 68.3766 202.415 68.0497 202.677 67.6354C202.94 67.2164 203.071 66.7468 203.071 66.2265C203.071 65.7109 202.94 65.2459 202.677 64.8315C202.415 64.4171 202.053 64.0925 201.593 63.8577C201.137 63.6229 200.626 63.5055 200.06 63.5055ZM208.789 69.9006H207.256V61.2265H208.789V69.9006ZM211.4 66.4199H208.126V65.1354H211.4V66.4199ZM197.891 76.8619C198.545 76.8619 199.243 76.8181 199.984 76.7307C200.73 76.6432 201.441 76.4843 202.118 76.2541L202.367 77.4834C201.842 77.6584 201.312 77.7942 200.778 77.8909C200.244 77.9876 199.745 78.0497 199.28 78.0773C198.819 78.105 198.356 78.1188 197.891 78.1188H197.063V76.8619H197.891ZM198.554 77.3315H197.063V71.779H198.554V77.3315ZM210.53 73.0635H201.745V71.8619H210.53V73.0635ZM206.137 73.6436C206.763 73.6436 207.323 73.7426 207.815 73.9406C208.308 74.1386 208.69 74.4263 208.962 74.8039C209.238 75.1768 209.378 75.6096 209.383 76.1022C209.378 76.5948 209.238 77.0253 208.962 77.3936C208.69 77.7666 208.308 78.052 207.815 78.25C207.327 78.448 206.768 78.547 206.137 78.547C205.497 78.547 204.933 78.448 204.445 78.25C203.962 78.052 203.582 77.7666 203.306 77.3936C203.034 77.0253 202.901 76.5948 202.905 76.1022C202.901 75.6096 203.034 75.1768 203.306 74.8039C203.582 74.4263 203.964 74.1386 204.452 73.9406C204.94 73.7426 205.502 73.6436 206.137 73.6436ZM206.137 74.7486C205.778 74.7532 205.458 74.8131 205.177 74.9282C204.896 75.0387 204.675 75.1975 204.514 75.4047C204.353 75.6073 204.273 75.8398 204.273 76.1022C204.273 76.3692 204.353 76.6041 204.514 76.8066C204.675 77.0092 204.894 77.1657 205.17 77.2762C205.451 77.3867 205.774 77.442 206.137 77.442C206.496 77.442 206.816 77.3867 207.097 77.2762C207.378 77.1657 207.597 77.0092 207.753 76.8066C207.91 76.6041 207.988 76.3692 207.988 76.1022C207.988 75.8398 207.91 75.6073 207.753 75.4047C207.597 75.1975 207.378 75.0387 207.097 74.9282C206.816 74.8131 206.496 74.7532 206.137 74.7486ZM206.911 72.7873H205.405V70.3287H206.911V72.7873ZM225.467 64.2514H214.182V62.9807H225.467V64.2514ZM228.326 76.1298H212.497V74.8453H228.326V76.1298ZM220.218 75.5083H218.699V68.6436H220.218V75.5083ZM226.42 64.8591C226.415 65.8168 226.399 66.6455 226.371 67.3453C226.348 68.0451 226.291 68.8508 226.199 69.7624C226.107 70.674 225.964 71.6593 225.77 72.7182L224.223 72.5387C224.421 71.5396 224.566 70.5935 224.659 69.7003C224.755 68.8025 224.815 68.0083 224.838 67.3177C224.866 66.6225 224.882 65.8029 224.886 64.8591V64.7072V62.9807H226.42V64.7072V64.8591ZM116.119 94.8508H108.356V93.5663H116.119V94.8508ZM112.541 101.771H111.022V97.4199H112.541V101.771ZM117.017 94.6436C117.007 95.4908 116.975 96.2965 116.92 97.0608C116.865 97.8204 116.745 98.6768 116.561 99.6298L115.028 99.5055C115.226 98.5295 115.352 97.68 115.408 96.9572C115.467 96.2343 115.502 95.4586 115.511 94.6298V94.4917V93.5663H117.017V94.4917V94.6436ZM120.995 105.293H119.448V92.2265H120.995V105.293ZM123.536 99.1878H120.29V97.8757H123.536V99.1878ZM121.561 109.202H109.972V107.931H121.561V109.202ZM111.506 108.331H109.972V104.105H111.506V108.331ZM107.293 101.246C109.397 101.237 111.356 101.195 113.17 101.122C114.984 101.048 116.681 100.901 118.26 100.68L118.356 101.812C116.74 102.088 115.035 102.273 113.239 102.365C111.443 102.457 109.512 102.507 107.445 102.517L107.293 101.246ZM139.012 102.102H137.479V92.2403H139.012V102.102ZM139.012 109.354H127.713V103.097H139.012V109.354ZM129.233 108.097H137.506V104.34H129.233V108.097ZM130.545 94.616C130.54 95.6703 130.328 96.6671 129.91 97.6064C129.495 98.541 128.915 99.3605 128.169 100.065C127.423 100.765 126.567 101.297 125.6 101.66L124.813 100.445C125.678 100.141 126.45 99.692 127.126 99.0981C127.803 98.5041 128.328 97.8204 128.701 97.047C129.074 96.2689 129.26 95.4586 129.26 94.616V92.9171H130.545V94.616ZM130.821 94.616C130.817 95.4171 131.003 96.1837 131.381 96.9157C131.763 97.6478 132.288 98.2947 132.955 98.8564C133.627 99.4134 134.389 99.8416 135.241 100.141L134.468 101.315C133.505 100.983 132.651 100.488 131.905 99.8301C131.164 99.1717 130.584 98.3959 130.165 97.5028C129.746 96.6096 129.537 95.6473 129.537 94.616V92.9171H130.821V94.616ZM155.979 101.605H143.99V100.362H155.979V101.605ZM157.858 107.392H141.96V106.108H157.858V107.392ZM150.62 106.633H149.101V100.901H150.62V106.633ZM155.813 94.8923H145.523V100.942H143.99V93.6354H155.813V94.8923ZM167.718 104.575H170.881V102.406H172.303V109.354H166.267V102.406H167.718V104.575ZM170.881 108.138V105.762H167.718V108.138H170.881ZM176.944 103.773C176.944 104.561 176.806 105.33 176.53 106.08C176.254 106.826 175.844 107.498 175.3 108.097C174.762 108.695 174.108 109.16 173.339 109.492L172.538 108.318C173.215 108.037 173.795 107.655 174.278 107.171C174.766 106.683 175.132 106.147 175.376 105.562C175.625 104.973 175.752 104.377 175.756 103.773V102.296H176.944V103.773ZM177.262 103.773C177.257 104.4 177.377 105.012 177.621 105.61C177.87 106.209 178.236 106.748 178.719 107.227C179.207 107.701 179.794 108.064 180.48 108.318L179.679 109.492C178.892 109.174 178.226 108.721 177.683 108.131C177.144 107.547 176.742 106.879 176.475 106.128C176.207 105.378 176.074 104.593 176.074 103.773V102.296H177.262V103.773ZM177.787 97.5994H173.063V96.3149H177.787V97.5994ZM169.044 93C169.9 93 170.669 93.168 171.35 93.5041C172.032 93.8402 172.563 94.3122 172.945 94.9199C173.332 95.523 173.528 96.2136 173.533 96.9917C173.528 97.7698 173.332 98.4627 172.945 99.0704C172.563 99.6736 172.032 100.143 171.35 100.479C170.669 100.815 169.9 100.983 169.044 100.983C168.173 100.983 167.395 100.815 166.709 100.479C166.028 100.143 165.494 99.6736 165.107 99.0704C164.725 98.4673 164.536 97.7744 164.541 96.9917C164.536 96.209 164.725 95.5161 165.107 94.913C165.494 94.3099 166.028 93.8402 166.709 93.5041C167.395 93.168 168.173 93 169.044 93ZM169.044 94.2845C168.459 94.2845 167.934 94.3996 167.469 94.6298C167.009 94.86 166.649 95.18 166.392 95.5898C166.134 95.9995 166.005 96.4669 166.005 96.9917C166.005 97.5166 166.134 97.9839 166.392 98.3936C166.649 98.8034 167.009 99.128 167.469 99.3674C167.934 99.6022 168.459 99.7219 169.044 99.7265C169.624 99.7219 170.142 99.6022 170.597 99.3674C171.053 99.128 171.41 98.8034 171.668 98.3936C171.926 97.9839 172.055 97.5166 172.055 96.9917C172.055 96.4715 171.926 96.0064 171.668 95.5967C171.41 95.1823 171.053 94.86 170.597 94.6298C170.142 94.3996 169.624 94.2845 169.044 94.2845ZM178.657 101.425H177.124V92.2265H178.657V101.425ZM194.989 109.616H193.456V92.2265H194.989V109.616ZM197.889 100.376H194.644V99.0912H197.889V100.376ZM183.677 103.967C185.376 103.967 186.835 103.923 188.055 103.836C189.28 103.748 190.523 103.589 191.785 103.359L191.978 104.685C190.689 104.915 189.427 105.07 188.193 105.148C186.959 105.226 185.454 105.265 183.677 105.265H182.309V103.967H183.677ZM190.417 95.1823H183.843V104.561H182.309V93.9254H190.417V95.1823Z" fill="white"/>
<path d="M14.1436 20.616H12.6105V3.22652H14.1436V20.616ZM17.0442 11.3757H13.7983V10.0912H17.0442V11.3757ZM2.83149 14.9669C4.53039 14.9669 5.98987 14.9231 7.20995 14.8356C8.43462 14.7482 9.67772 14.5893 10.9392 14.3591L11.1326 15.6851C9.84346 15.9153 8.58195 16.0695 7.34807 16.1478C6.11418 16.2261 4.60866 16.2652 2.83149 16.2652H1.46409V14.9669H2.83149ZM9.57182 6.18232H2.99724V15.5608H1.46409V4.92541H9.57182V6.18232ZM19.8266 19.1105C19.601 19.1105 19.3892 19.0529 19.1912 18.9378C18.9979 18.8227 18.8436 18.6708 18.7285 18.482C18.618 18.2887 18.5651 18.0792 18.5697 17.8536C18.5651 17.628 18.618 17.4185 18.7285 17.2251C18.8436 17.0272 18.9979 16.8729 19.1912 16.7624C19.3892 16.6519 19.601 16.5967 19.8266 16.5967C20.0522 16.5967 20.2617 16.6519 20.455 16.7624C20.653 16.8729 20.8073 17.0272 20.9178 17.2251C21.0283 17.4185 21.0835 17.628 21.0835 17.8536C21.0835 18.0792 21.0283 18.2887 20.9178 18.482C20.8073 18.6708 20.653 18.8227 20.455 18.9378C20.2617 19.0529 20.0522 19.1105 19.8266 19.1105Z" fill="white"/>
<defs>
<clipPath id="clip0_380_1346">
<rect width="305" height="104" fill="white" transform="translate(0 32)"/>
</clipPath>
</defs>
</svg>
