<svg width="258" height="88" viewBox="0 0 258 88" fill="none" xmlns="http://www.w3.org/2000/svg">
    <g clip-path="url(#clip0_394_336)">
    <path d="M255.83 1.17969H1.17969V86.3897H255.83V1.17969Z" fill="#4AE6CA"/>
    <path d="M254.8 1.18C255.37 1.18 255.84 1.64 255.84 2.22V85.35C255.84 85.92 255.38 86.39 254.8 86.39H2.22C1.65 86.39 1.18 85.93 1.18 85.35V2.22C1.18 1.65 1.64 1.18 2.22 1.18H254.8ZM254.8 0H2.22C0.99 0 0 0.99 0 2.22V85.35C0 86.57 0.99 87.57 2.22 87.57H254.8C256.02 87.57 257.02 86.58 257.02 85.35V2.22C257.02 1 256.03 0 254.8 0Z" fill="#0F594B"/>
    <path d="M246.549 10.4697H10.4688V77.0997H246.549V10.4697Z" fill="#0F594B"/>
    <mask id="mask0_394_336" style="mask-type:luminance" maskUnits="userSpaceOnUse" x="10" y="10" width="237" height="68">
    <path d="M246.549 10.4697H10.4688V77.0997H246.549V10.4697Z" fill="white"/>
    </mask>
    <g mask="url(#mask0_394_336)">
    <path d="M180.778 110.42C189.978 110.42 197.438 102.96 197.438 93.7597C206.638 93.7597 214.098 86.2996 214.098 77.0996C223.298 77.0996 230.758 69.6396 230.758 60.4397C239.958 60.4397 247.418 52.9796 247.418 43.7796C247.418 34.5796 239.958 27.1197 230.758 27.1197C230.758 17.9197 223.298 10.4596 214.098 10.4596C214.098 1.25965 206.638 -6.20035 197.438 -6.20035C197.438 -15.4004 189.978 -22.8604 180.778 -22.8604H76.2377C67.0377 -22.8604 59.5777 -15.4004 59.5777 -6.20035C50.3777 -6.20035 42.9177 1.25965 42.9177 10.4596C33.7177 10.4596 26.2577 17.9197 26.2577 27.1197C17.0577 27.1197 9.59766 34.5796 9.59766 43.7796C9.59766 52.9796 17.0577 60.4397 26.2577 60.4397C26.2577 69.6396 33.7177 77.0996 42.9177 77.0996C42.9177 86.2996 50.3777 93.7597 59.5777 93.7597C59.5777 102.96 67.0377 110.42 76.2377 110.42H180.778Z" fill="#E06161" stroke="#FF9C9C" stroke-linecap="round" stroke-linejoin="round"/>
    <path d="M168.249 -22.8506C177.449 -22.8506 184.909 -15.3906 184.909 -6.19059C194.109 -6.19059 201.569 1.26941 201.569 10.4694C210.769 10.4694 218.229 17.9294 218.229 27.1294C227.429 27.1294 234.889 34.5894 234.889 43.7894C234.889 52.9894 227.429 60.4494 218.229 60.4494C218.229 69.6494 210.769 77.1094 201.569 77.1094C201.569 86.3094 194.109 93.7694 184.909 93.7694C184.909 102.969 177.449 110.429 168.249 110.429H88.7689C79.5689 110.429 72.1089 102.969 72.1089 93.7694C62.9089 93.7694 55.4489 86.3094 55.4489 77.1094C46.2489 77.1094 38.7889 69.6494 38.7889 60.4494C29.5889 60.4494 22.1289 52.9894 22.1289 43.7894C22.1289 34.5894 29.5889 27.1294 38.7889 27.1294C38.7889 17.9294 46.2489 10.4694 55.4489 10.4694C55.4489 1.26941 62.9089 -6.19059 72.1089 -6.19059C72.1089 -15.3906 79.5689 -22.8506 88.7689 -22.8506H168.249Z" fill="#2E6C9A" stroke="#4E8DC3" stroke-linecap="round" stroke-linejoin="round"/>
    <path d="M155.489 110.42C164.689 110.42 172.149 102.96 172.149 93.7597C181.349 93.7597 188.809 86.2996 188.809 77.0996C198.009 77.0996 205.469 69.6396 205.469 60.4397C214.669 60.4397 222.129 52.9796 222.129 43.7796C222.129 34.5796 214.669 27.1197 205.469 27.1197C205.469 17.9197 198.009 10.4596 188.809 10.4596C188.809 1.25965 181.349 -6.20035 172.149 -6.20035C172.149 -15.4004 164.689 -22.8604 155.489 -22.8604H101.519C92.3189 -22.8604 84.8589 -15.4004 84.8589 -6.20035C75.6589 -6.20035 68.1989 1.25965 68.1989 10.4596C58.9989 10.4596 51.5389 17.9197 51.5389 27.1197C42.3389 27.1197 34.8789 34.5796 34.8789 43.7796C34.8789 52.9796 42.3389 60.4397 51.5389 60.4397C51.5389 69.6396 58.9989 77.0996 68.1989 77.0996C68.1989 86.2996 75.6589 93.7597 84.8589 93.7597C84.8589 102.96 92.3189 110.42 101.519 110.42H155.489Z" fill="#0F594B" stroke="#4AE6CA" stroke-linecap="round" stroke-linejoin="round"/>
    </g>
    <path class="writing" d="M246.549 10.47V77.1H10.4691V10.47H246.549ZM246.549 9.29004H10.4691C9.81906 9.29004 9.28906 9.82004 9.28906 10.47V77.1C9.28906 77.75 9.81906 78.28 10.4691 78.28H246.549C247.199 78.28 247.729 77.75 247.729 77.1V10.47C247.729 9.82004 247.199 9.29004 246.549 9.29004Z" fill="#0F594B"/>
    <path class="whiteLine" d="M90.3097 46.3199C90.9697 47.0599 89.6497 50.7399 89.1097 49.9699C88.0497 48.4899 86.3997 46.0899 84.7997 44.1699C82.0297 46.7999 78.6897 49.1399 75.0897 50.6799C74.7497 50.6499 74.4297 50.1699 74.4297 49.8199C78.6797 47.0499 83.6197 41.7999 85.5397 38.5099L81.2897 38.5399C80.1197 38.5399 79.3197 38.8499 78.9497 39.1699C78.0097 38.9099 76.2697 37.4899 76.1497 37.1399C76.1197 37.0299 76.3197 36.6499 76.4397 36.6799C76.9797 36.8499 78.9797 36.9699 80.8897 36.9399L85.5997 36.8799C86.5397 36.8799 87.0597 36.7099 87.3997 36.3899C87.7697 36.2499 90.5097 36.9599 90.2797 37.3599C89.1697 39.2399 87.6497 41.2399 85.8597 43.0999C87.8297 44.3299 89.5697 45.4699 90.3097 46.2999V46.3199ZM81.9497 34.8099C81.0397 34.8099 79.0397 32.7299 78.9197 32.4699C78.8597 32.3299 79.0597 31.8399 79.2597 31.8699C80.3997 32.0699 81.5097 32.2999 82.9397 32.4699L86.3397 32.8099C86.6297 32.8399 87.9697 34.8099 87.0797 34.8099H81.9397H81.9497ZM97.8797 31.2399C97.8197 31.6699 97.7697 32.2099 97.7697 32.8099V47.4799C97.7697 52.1599 96.9697 55.5599 96.5397 56.5899C96.2797 56.8799 95.6797 57.0199 95.3397 56.9299C95.1097 56.1299 94.6297 53.5899 94.6297 49.3699V42.8299H92.9497C91.7497 42.8299 90.9797 43.0899 90.6097 43.3999C89.6697 43.1399 88.4997 41.7699 88.4097 41.4299C88.3797 41.3199 88.5497 40.9399 88.6697 40.9699C89.2397 41.1399 91.2397 41.2299 93.1497 41.2299H94.6297V32.7499C94.6297 32.0699 92.3497 30.7799 91.6297 30.4399C91.4597 30.3599 92.0897 29.6699 92.2597 29.6699C93.7497 29.6699 97.9697 30.5299 97.8797 31.2399Z" fill="white"/>
    <path class="whiteLine" d="M127.248 44.4898C127.248 44.6298 127.108 44.7198 126.878 44.7198L106.898 44.7498C105.728 44.7498 104.928 45.0598 104.558 45.3798C103.618 45.1198 101.878 43.6998 101.788 43.3498C101.728 43.2398 101.928 42.8898 102.048 42.9198C102.588 43.0598 104.588 43.1498 106.498 43.1498L122.058 43.0898C124.088 43.0898 124.768 41.9498 125.058 41.9498C125.428 41.9498 127.258 43.6898 127.258 44.4898H127.248ZM121.508 53.7398C121.968 54.1698 122.588 55.0298 122.588 55.4498C122.588 55.5898 122.478 55.7098 122.218 55.7098C121.908 55.7098 120.678 55.6798 118.848 55.6798H111.058C110.888 56.1398 110.598 56.5398 110.258 56.8798C109.998 57.1898 109.428 57.3398 109.058 57.2498C108.748 56.4498 108.568 54.3898 108.288 51.8498L107.998 49.3898C107.968 49.0498 107.028 48.3298 106.458 48.1298C106.428 47.9598 106.918 47.4198 107.148 47.4198C107.718 47.4198 109.658 47.5098 110.918 47.7298H117.908C118.848 47.7298 119.368 47.5898 119.708 47.2698C120.078 47.1298 122.508 47.5298 122.448 47.9298L121.508 53.7198V53.7398ZM108.258 36.0398C108.258 33.3298 110.598 31.4998 114.198 31.2998C114.228 31.1898 114.258 31.0998 114.258 31.0098C114.258 30.6998 114.168 30.3798 113.768 30.1498C113.768 29.4898 115.968 30.1498 115.968 30.4398C115.968 30.5798 115.798 30.9798 115.658 31.2998C119.138 31.5298 121.398 33.3598 121.398 36.0398C121.398 38.8898 118.798 40.7498 114.858 40.7498C110.918 40.7498 108.268 38.8898 108.268 36.0398H108.258ZM118.938 49.3698H111.318V54.0198H118.768L118.938 49.3698ZM111.398 35.9498C111.398 37.8598 112.768 39.1498 114.738 39.1498C116.818 39.1498 118.248 37.8598 118.248 35.9498C118.248 34.0398 116.848 32.7198 114.788 32.7198C112.728 32.7198 111.388 34.0298 111.388 35.9498H111.398Z" fill="white"/>
    <path class="whiteLine" d="M155.231 51.9403C155.231 52.0803 155.121 52.1703 154.891 52.1703L134.281 52.2003C133.111 52.2003 132.311 52.5103 131.971 52.8603C131.031 52.5703 129.261 51.1503 129.171 50.8103C129.141 50.6903 129.311 50.3503 129.461 50.3803C130.001 50.5203 132.001 50.6103 133.911 50.6103L150.071 50.5503C152.101 50.5503 152.751 49.4103 153.071 49.4103C153.411 49.4103 155.241 51.1503 155.241 51.9503L155.231 51.9403ZM134.651 39.3803C134.651 36.0403 137.331 33.7603 141.441 33.5603C141.471 33.4403 141.501 33.3603 141.501 33.2703C141.501 32.9803 141.411 32.6703 140.991 32.3603C140.991 31.7003 143.221 32.3603 143.221 32.7303C143.221 32.8703 143.051 33.2403 142.931 33.5603C146.901 33.8503 149.501 36.1003 149.501 39.3803C149.501 43.0303 146.531 45.4303 142.081 45.4303C137.631 45.4303 134.661 43.0303 134.661 39.3803H134.651ZM138.081 39.2903C138.081 41.9403 139.651 43.7103 141.961 43.7103C144.421 43.7103 146.071 41.9403 146.071 39.2903C146.071 36.8103 144.441 35.1203 142.021 35.1203C139.601 35.1203 138.081 36.8003 138.081 39.2903Z" fill="white"/>
    <path class="whiteLine" d="M182.63 52.03C182.63 52.17 182.52 52.26 182.29 52.26L161.68 52.29C160.51 52.29 159.71 52.6 159.37 52.95C158.43 52.66 156.66 51.24 156.57 50.89C156.54 50.78 156.71 50.43 156.86 50.46C157.4 50.6 159.4 50.69 161.31 50.69L168.22 50.66L168.16 46.12H164.36C162.16 46.12 161.36 45.35 161.33 43.66L161.27 40.29C161.27 39.98 160.41 39.52 159.87 39.32C159.84 39.15 160.3 38.61 160.58 38.61C161.21 38.61 163.52 38.72 164.41 39.01H174.03L174.09 35.13H165.15C163.98 35.13 163.18 35.47 162.84 35.79C161.9 35.53 160.13 34.11 160.04 33.73C160.01 33.62 160.18 33.27 160.3 33.3C160.87 33.44 162.87 33.53 164.78 33.53H172.86C173.8 33.53 174.29 33.33 174.66 32.99C175.03 32.96 177.66 33.33 177.6 33.73L176.77 38.87C177.4 39.3 177.77 40.13 177.77 40.3C177.77 40.47 177.68 40.59 177.51 40.59H164.41V43.16C164.41 44.27 164.75 44.5 166.21 44.5H173.69C175.72 44.5 176.4 43.36 176.69 43.36C177.03 43.36 178.86 45.1 178.86 45.9C178.86 46.04 178.75 46.13 178.52 46.13H171.47L171.27 50.67L177.47 50.64C179.5 50.64 180.15 49.5 180.47 49.5C180.81 49.5 182.64 51.24 182.64 52.04L182.63 52.03Z" fill="white"/>
    </g>
    <defs>
    <clipPath id="clip0_394_336">
    <rect width="257.02" height="87.57" fill="white"/>
    </clipPath>
    </defs>
</svg>
