<svg width="175" height="182" viewBox="0 0 175 182" fill="none" xmlns="http://www.w3.org/2000/svg">
<g clip-path="url(#clip0_606_689)">
<path d="M175 0H0V182H175V0Z" fill="black"/>
<path d="M146.303 91.0012L117.156 61.8542L88.0093 91.0012L117.156 120.148L146.303 91.0012Z" fill="#4761B2"/>
<path d="M88.436 91.0009L59.2891 61.854L30.1421 91.0009L59.2891 120.148L88.436 91.0009Z" fill="#919191"/>
<path d="M117.373 62.0681L88.2266 32.9211L59.0796 62.0681L88.2266 91.215L117.373 62.0681Z" fill="#1E1E1E"/>
<path d="M117.381 119.931L88.2344 90.7844L59.0874 119.931L88.2344 149.078L117.381 119.931Z" fill="#8E2D2D"/>
<path d="M88.436 79.1589L59.2891 50.012L30.1421 79.1589L59.2891 108.306L88.436 79.1589Z" fill="#EDEDED"/>
</g>
<defs>
<clipPath id="clip0_606_689">
<rect width="175" height="182" fill="white"/>
</clipPath>
</defs>
</svg>
