<svg width="305" height="136" viewBox="0 0 305 136" fill="none" xmlns="http://www.w3.org/2000/svg">
<g clip-path="url(#clip0_490_987)">
<path d="M1.41202 134.599L303.6 134.599V33.4014L1.41202 33.4014V134.599Z" fill="#4AE6CA"/>
<path d="M2.63443 33.4014H302.366C303.042 33.4014 303.6 33.9477 303.6 34.6365V133.363C303.6 134.04 303.054 134.599 302.366 134.599H2.63443C1.95802 134.599 1.40028 134.052 1.40028 133.363V34.6365C1.40028 33.9596 1.94615 33.4014 2.63443 33.4014ZM2.63443 32C1.17481 32 0 33.1757 0 34.6365V133.363C0 134.812 1.17481 136 2.63443 136H302.366C303.813 136 305 134.824 305 133.363V34.6365C305 33.1757 303.813 32 302.366 32H2.63443Z" fill="#0F594B"/>
<path d="M12.4247 123.566L292.576 123.566V44.4345L12.4247 44.4345V123.566Z" fill="#0F594B"/>
<mask id="mask0_490_987" style="mask-type:luminance" maskUnits="userSpaceOnUse" x="12" y="44" width="281" height="80">
<path d="M12.4242 123.565L292.575 123.565V44.4342L12.4242 44.4342V123.565Z" fill="white"/>
</mask>
<g mask="url(#mask0_490_987)">
<path d="M39.5752 103.471C50.3432 103.471 59.0724 94.7349 59.0724 83.9584C59.0724 73.1819 50.3432 64.4458 39.5752 64.4458C28.8073 64.4458 20.0781 73.1819 20.0781 83.9584C20.0781 94.7349 28.8073 103.471 39.5752 103.471Z" fill="#4DD3B8"/>
<path d="M39.5873 103.958C28.5631 103.958 19.5918 94.9795 19.5918 83.9465C19.5918 72.9135 28.5631 63.9351 39.5873 63.9351C50.6116 63.9351 59.5828 72.9135 59.5828 83.9465C59.5828 94.9795 50.6116 103.958 39.5873 103.958ZM39.5873 64.9327C29.109 64.9327 20.5886 73.4598 20.5886 83.9465C20.5886 94.4332 29.109 102.96 39.5873 102.96C50.0657 102.96 58.586 94.4332 58.586 83.9465C58.586 73.4598 50.0657 64.9327 39.5873 64.9327Z" fill="#13604E"/>
<path d="M33.0723 96.9628C40.2487 96.9628 46.0664 91.1405 46.0664 83.9583C46.0664 76.7762 40.2487 70.9539 33.0723 70.9539C25.8958 70.9539 20.0781 76.7762 20.0781 83.9583C20.0781 91.1405 25.8958 96.9628 33.0723 96.9628Z" fill="#13604E"/>
<path d="M20.0904 83.9583C30.8583 83.9583 39.5875 75.2222 39.5875 64.4457C39.5875 53.6692 30.8583 44.9331 20.0904 44.9331C9.32242 44.9331 0.593262 53.6692 0.593262 64.4457C0.593262 75.2222 9.32242 83.9583 20.0904 83.9583Z" fill="#4DD3B8"/>
<path d="M20.0903 84.4453C9.06601 84.4453 0.0947266 75.4787 0.0947266 64.4457C0.0947266 53.4127 9.06601 44.4343 20.0903 44.4343C31.1145 44.4343 40.0858 53.4127 40.0858 64.4457C40.0858 75.4787 31.1145 84.4572 20.0903 84.4572V84.4453ZM20.0903 45.4201C9.61189 45.4319 1.09154 53.959 1.09154 64.4457C1.09154 74.9324 9.61189 83.4596 20.0903 83.4596C30.5686 83.4596 39.089 74.9324 39.089 64.4457C39.089 53.959 30.5686 45.4319 20.0903 45.4319V45.4201Z" fill="#13604E"/>
<path d="M20.0904 122.983C30.8583 122.983 39.5875 114.247 39.5875 103.471C39.5875 92.6943 30.8583 83.9583 20.0904 83.9583C9.32242 83.9583 0.593262 92.6943 0.593262 103.471C0.593262 114.247 9.32242 122.983 20.0904 122.983Z" fill="#4DD3B8"/>
<path d="M20.0903 123.47C9.06601 123.47 0.0947266 114.504 0.0947266 103.471C0.0947266 92.4379 9.06601 83.4595 20.0903 83.4595C31.1145 83.4595 40.0858 92.4379 40.0858 103.471C40.0858 114.504 31.1145 123.482 20.0903 123.482V123.47ZM20.0903 84.4452C9.61189 84.4452 1.09154 92.9842 1.09154 103.471C1.09154 113.958 9.61189 122.485 20.0903 122.485C30.5686 122.485 39.089 113.958 39.089 103.471C39.089 92.9842 30.5686 84.4571 20.0903 84.4571V84.4452Z" fill="#13604E"/>
<path d="M0.593229 64.4459C0.593229 64.4459 0.130424 52.4153 13.5755 51.4414C27.1511 50.4557 30.3788 60.8236 30.7349 62.6525C31.1621 64.8496 31.0197 67.1061 29.0379 70.2414C28.2428 71.5003 26.3441 74.2319 21.1346 75.0157C21.1346 75.0157 13.0534 75.752 11.4276 67.7356C11.4276 67.7356 10.7868 62.1775 16.0438 61.1324C16.0438 61.1324 17.6221 60.883 18.2866 61.5481C18.2866 61.5481 19.4258 62.8426 18.0493 63.6858C17.1355 64.244 15.1419 64.0896 14.7384 66.8211C14.3587 69.3626 16.9338 70.9184 18.2629 71.3341C21.8466 72.4623 24.3149 71.726 26.3204 69.6714C26.3204 69.6714 29.9872 66.6548 28.0292 61.1918C25.5372 54.2442 19.319 52.2134 13.6111 52.6053C13.6111 52.6053 1.44764 52.9259 0.889898 67.7356C0.889898 67.7356 0.605095 65.4791 0.616962 64.4459H0.593229Z" fill="#13604E"/>
<path d="M0.593093 103.459C0.593093 103.459 0.142155 91.4284 13.5754 90.4546C27.1509 89.4689 30.3787 99.8368 30.7347 101.666C31.1619 103.863 31.0195 106.119 29.0378 109.255C28.2427 110.514 26.344 113.245 21.1345 114.029C21.1345 114.029 13.0532 114.765 11.4275 106.749C11.4275 106.749 10.7867 101.191 16.0436 100.146C16.0436 100.146 17.6219 99.8962 18.2865 100.561C18.2865 100.561 19.4257 101.856 18.0491 102.699C17.1354 103.257 15.1418 103.103 14.7383 105.834C14.3586 108.376 16.9337 109.932 18.2627 110.347C21.8465 111.475 24.3148 110.739 26.3203 108.685C26.3203 108.685 29.9871 105.668 28.0291 100.205C25.5371 93.2574 19.3189 91.2265 13.611 91.6185C13.611 91.6185 1.4475 91.9391 0.889763 106.749C0.889763 106.749 0.60496 104.492 0.616827 103.459H0.593093Z" fill="#13604E"/>
<path d="M0.593262 64.4458C11.3564 64.4458 20.0904 73.1867 20.0904 83.9584C20.0904 94.7301 11.3564 103.471 0.593262 103.471V64.4458Z" fill="#4DD3B8"/>
<path d="M0.593262 63.947C11.6175 63.947 20.5888 72.9254 20.5888 83.9584C20.5888 94.9914 11.6175 103.958 0.593262 103.958V63.947ZM0.593262 102.972C11.0716 102.972 19.592 94.4451 19.592 83.9584C19.592 73.4717 11.0598 64.9327 0.593262 64.9327V102.972Z" fill="#13604E"/>
<path d="M265.364 103.471C276.132 103.471 284.861 94.7349 284.861 83.9584C284.861 73.1819 276.132 64.4458 265.364 64.4458C254.596 64.4458 245.867 73.1819 245.867 83.9584C245.867 94.7349 254.596 103.471 265.364 103.471Z" fill="#4DD3B8"/>
<path d="M245.381 83.9584C245.381 72.9254 254.352 63.947 265.376 63.947C276.401 63.947 285.372 72.9254 285.372 83.9584C285.372 94.9914 276.401 103.97 265.376 103.97C254.352 103.97 245.381 94.9914 245.381 83.9584ZM246.378 83.9584C246.378 94.4451 254.898 102.972 265.376 102.972C275.855 102.972 284.375 94.4451 284.375 83.9584C284.375 73.4717 275.855 64.9446 265.376 64.9446C254.898 64.9446 246.378 73.4717 246.378 83.9584Z" fill="#13604E"/>
<path d="M271.879 96.963C279.056 96.963 284.873 91.1407 284.873 83.9586C284.873 76.7764 279.056 70.9541 271.879 70.9541C264.703 70.9541 258.885 76.7764 258.885 83.9586C258.885 91.1407 264.703 96.963 271.879 96.963Z" fill="#13604E"/>
<path d="M284.862 83.9583C295.63 83.9583 304.359 75.2222 304.359 64.4457C304.359 53.6692 295.63 44.9331 284.862 44.9331C274.094 44.9331 265.365 53.6692 265.365 64.4457C265.365 75.2222 274.094 83.9583 284.862 83.9583Z" fill="#4DD3B8"/>
<path d="M264.866 64.4457C264.866 53.4127 273.838 44.4343 284.862 44.4343C295.886 44.4343 304.857 53.4127 304.857 64.4457C304.857 75.4787 295.886 84.4572 284.862 84.4572C273.838 84.4572 264.866 75.4787 264.866 64.4457ZM265.863 64.4457C265.863 74.9324 274.383 83.4596 284.862 83.4596C295.34 83.4596 303.86 74.9324 303.86 64.4457C303.86 53.959 295.34 45.4319 284.862 45.4319C274.383 45.4319 265.863 53.959 265.863 64.4457Z" fill="#13604E"/>
<path d="M284.862 122.983C295.63 122.983 304.359 114.247 304.359 103.471C304.359 92.6943 295.63 83.9583 284.862 83.9583C274.094 83.9583 265.365 92.6943 265.365 103.471C265.365 114.247 274.094 122.983 284.862 122.983Z" fill="#4DD3B8"/>
<path d="M264.866 103.471C264.866 92.4379 273.838 83.4595 284.862 83.4595C295.886 83.4595 304.857 92.4379 304.857 103.471C304.857 114.504 295.886 123.482 284.862 123.482C273.838 123.482 264.866 114.504 264.866 103.471ZM265.863 103.471C265.863 113.958 274.383 122.485 284.862 122.485C295.34 122.485 303.86 113.958 303.86 103.471C303.86 92.9842 295.34 84.4571 284.862 84.4571C274.383 84.4571 265.863 92.9842 265.863 103.471Z" fill="#13604E"/>
<path d="M304.359 64.4459C304.359 64.4459 304.81 52.4153 291.376 51.4414C277.801 50.4557 274.573 60.8236 274.217 62.6525C273.79 64.8496 273.932 67.1061 275.914 70.2414C276.709 71.5003 278.608 74.2319 283.817 75.0157C283.817 75.0157 291.899 75.752 293.524 67.7356C293.524 67.7356 294.165 62.1775 288.908 61.1324C288.908 61.1324 287.33 60.883 286.665 61.5481C286.665 61.5481 285.526 62.8426 286.903 63.6858C287.816 64.244 289.81 64.0896 290.214 66.8211C290.593 69.3626 288.018 70.9184 286.689 71.3341C283.105 72.4623 280.637 71.726 278.632 69.6714C278.632 69.6714 274.965 66.6548 276.923 61.1918C279.415 54.2442 285.633 52.2134 291.341 52.6053C291.341 52.6053 303.504 52.9259 304.062 67.7356C304.062 67.7356 304.347 65.4791 304.335 64.4459H304.359Z" fill="#13604E"/>
<path d="M304.359 103.459C304.359 103.459 304.81 91.4284 291.376 90.4546C277.801 89.4689 274.573 99.8368 274.217 101.666C273.79 103.863 273.932 106.119 275.914 109.255C276.709 110.514 278.608 113.245 283.817 114.029C283.817 114.029 291.899 114.765 293.524 106.749C293.524 106.749 294.165 101.191 288.908 100.146C288.908 100.146 287.33 99.8962 286.665 100.561C286.665 100.561 285.526 101.856 286.903 102.699C287.816 103.257 289.81 103.103 290.214 105.834C290.593 108.376 288.018 109.932 286.689 110.347C283.105 111.475 280.637 110.739 278.632 108.685C278.632 108.685 274.965 105.668 276.923 100.205C279.415 93.2574 285.633 91.2265 291.341 91.6185C291.341 91.6185 303.504 91.9391 304.062 106.749C304.062 106.749 304.347 104.492 304.335 103.459H304.359Z" fill="#13604E"/>
<path d="M304.359 64.4458C293.596 64.4458 284.862 73.1867 284.862 83.9584C284.862 94.7301 293.596 103.471 304.359 103.471V64.4458Z" fill="#4DD3B8"/>
<path d="M304.359 103.958C293.335 103.958 284.363 94.9795 284.363 83.9465C284.363 72.9135 293.335 63.9351 304.359 63.9351V103.958ZM304.359 64.9327C293.88 64.9327 285.36 73.4598 285.36 83.9465C285.36 94.4332 293.88 102.96 304.359 102.96V64.9327Z" fill="#13604E"/>
</g>
<path d="M12.4247 44.4344H292.576V123.566H12.4247V44.4344ZM12.4247 43.033C11.6534 43.033 11.0244 43.6624 11.0244 44.4344V123.566C11.0244 124.338 11.6534 124.967 12.4247 124.967H292.576C293.347 124.967 293.976 124.338 293.976 123.566V44.4344C293.976 43.6624 293.347 43.033 292.576 43.033H12.4247Z" fill="#0F594B"/>
</g>
<path d="M101.91 78.6211H100.367V61.2188H101.91V78.6211ZM92.6715 62.5664C93.5308 62.5664 94.2958 62.8138 94.9664 63.3086C95.637 63.8034 96.161 64.5098 96.5387 65.4277C96.9163 66.3457 97.1051 67.4102 97.1051 68.6211C97.1051 69.832 96.9163 70.8932 96.5387 71.8047C96.161 72.7161 95.637 73.4193 94.9664 73.9141C94.2958 74.4089 93.5308 74.6562 92.6715 74.6562C91.8121 74.6562 91.0471 74.4089 90.3765 73.9141C89.706 73.4193 89.1819 72.7161 88.8043 71.8047C88.4267 70.8932 88.2379 69.832 88.2379 68.6211C88.2379 67.4102 88.4267 66.3457 88.8043 65.4277C89.1819 64.5098 89.706 63.8034 90.3765 63.3086C91.0471 62.8138 91.8121 62.5664 92.6715 62.5664ZM92.6715 63.9336C92.0985 63.9336 91.5875 64.1289 91.1383 64.5195C90.689 64.9102 90.3407 65.4603 90.0933 66.1699C89.8459 66.8796 89.7222 67.6966 89.7222 68.6211C89.7222 69.5521 89.8459 70.3724 90.0933 71.082C90.3407 71.7852 90.689 72.3288 91.1383 72.7129C91.5875 73.097 92.0985 73.2891 92.6715 73.2891C93.2509 73.2891 93.762 73.097 94.2047 72.7129C94.6539 72.3288 95.0022 71.7852 95.2496 71.082C95.497 70.3724 95.6207 69.5521 95.6207 68.6211C95.6207 67.6901 95.497 66.873 95.2496 66.1699C95.0022 65.4603 94.6539 64.9102 94.2047 64.5195C93.762 64.1289 93.2509 63.9336 92.6715 63.9336ZM113.531 72.2344H112.007V69.5391H113.531V72.2344ZM108.511 63.1719H117.105V61.5117H118.628V67.2148H106.988V61.5117H108.511V63.1719ZM117.105 66.0234V64.3438H108.511V66.0234H117.105ZM120.699 69.9297H104.878V68.6602H120.699V69.9297ZM118.668 75.4766H108.355V77.6445H106.832V74.3438H117.164V72.8008H106.793V71.6289H118.668V75.4766ZM119.195 78.3867H106.832V77.1758H119.195V78.3867ZM143.062 71.2188H127.183V69.9492H143.062V71.2188ZM135.836 70.5156H134.332V67.2734H135.836V70.5156ZM135.621 62.3125C135.621 63.3086 135.298 64.2168 134.654 65.0371C134.009 65.8509 133.16 66.5312 132.105 67.0781C131.057 67.625 129.931 68.0026 128.726 68.2109L128.14 66.9805C129.175 66.8372 130.168 66.541 131.119 66.0918C132.076 65.6426 132.847 65.0859 133.433 64.4219C134.019 63.7578 134.312 63.0547 134.312 62.3125V61.4922H135.621V62.3125ZM135.855 62.3125C135.855 63.0547 136.151 63.7578 136.744 64.4219C137.336 65.0859 138.108 65.6426 139.058 66.0918C140.015 66.541 141.011 66.8372 142.046 66.9805L141.421 68.2109C140.237 68.0026 139.12 67.625 138.072 67.0781C137.024 66.5312 136.174 65.8477 135.523 65.0273C134.878 64.2005 134.559 63.2956 134.566 62.3125V61.4922H135.855V62.3125ZM141.05 78.582H139.507V74.1484H128.941V72.918H141.05V78.582ZM154.918 69.2656H151.578V67.9961H154.918V69.2656ZM159.351 78.582H157.867V61.2188H159.351V78.582ZM155.855 77.7031H154.39V61.5898H155.855V77.7031ZM148.414 62.6836C149.162 62.6836 149.817 62.931 150.377 63.4258C150.943 63.9206 151.382 64.6237 151.695 65.5352C152.007 66.4401 152.164 67.5013 152.164 68.7188C152.164 69.9362 152.007 71.0007 151.695 71.9121C151.382 72.8171 150.943 73.5169 150.377 74.0117C149.817 74.5065 149.162 74.7539 148.414 74.7539C147.665 74.7539 147.011 74.5065 146.451 74.0117C145.897 73.5169 145.464 72.8171 145.152 71.9121C144.839 71.0007 144.683 69.9362 144.683 68.7188C144.683 67.5013 144.839 66.4401 145.152 65.5352C145.464 64.6237 145.897 63.9206 146.451 63.4258C147.011 62.931 147.665 62.6836 148.414 62.6836ZM148.414 64.1289C147.945 64.1289 147.538 64.3145 147.193 64.6855C146.848 65.0566 146.581 65.5905 146.392 66.2871C146.21 66.9772 146.122 67.7878 146.128 68.7188C146.122 69.6497 146.21 70.4603 146.392 71.1504C146.581 71.834 146.848 72.3646 147.193 72.7422C147.545 73.1133 147.951 73.2956 148.414 73.2891C148.882 73.2956 149.293 73.1133 149.644 72.7422C149.996 72.3646 150.263 71.834 150.445 71.1504C150.627 70.4603 150.718 69.6497 150.718 68.7188C150.718 67.7878 150.627 66.9772 150.445 66.2871C150.263 65.5905 149.996 65.0566 149.644 64.6855C149.293 64.3145 148.882 64.1289 148.414 64.1289ZM182.613 69.7539H166.773V68.5234H182.613V69.7539ZM180.718 67.0977H168.882V65.8477H180.718V67.0977ZM180.543 63.0547H170.425V66.8242H168.882V61.8242H180.543V63.0547ZM180.562 75.3398H170.25V77.5664H168.726V74.1875H179.058V72.5078H168.687V71.3164H180.562V75.3398ZM181.089 78.3867H168.726V77.1367H181.089V78.3867ZM188.726 62.5664C189.566 62.5664 190.315 62.8138 190.972 63.3086C191.636 63.8034 192.151 64.5098 192.515 65.4277C192.88 66.3457 193.062 67.4102 193.062 68.6211C193.062 69.8385 192.88 70.903 192.515 71.8145C192.151 72.7194 191.636 73.4193 190.972 73.9141C190.315 74.4089 189.566 74.6562 188.726 74.6562C187.873 74.6562 187.115 74.4089 186.451 73.9141C185.793 73.4193 185.282 72.7194 184.918 71.8145C184.553 70.903 184.371 69.8385 184.371 68.6211C184.371 67.4102 184.553 66.3457 184.918 65.4277C185.282 64.5098 185.793 63.8034 186.451 63.3086C187.115 62.8138 187.873 62.5664 188.726 62.5664ZM188.726 63.9336C188.16 63.9336 187.658 64.1289 187.222 64.5195C186.793 64.9102 186.454 65.4603 186.207 66.1699C185.959 66.873 185.836 67.6901 185.836 68.6211C185.836 69.5521 185.959 70.3724 186.207 71.082C186.454 71.7852 186.793 72.3288 187.222 72.7129C187.658 73.097 188.16 73.2891 188.726 73.2891C189.286 73.2891 189.787 73.097 190.23 72.7129C190.673 72.3288 191.015 71.7819 191.255 71.0723C191.496 70.3626 191.617 69.5456 191.617 68.6211C191.617 67.6966 191.496 66.8796 191.255 66.1699C191.015 65.4603 190.673 64.9102 190.23 64.5195C189.787 64.1289 189.286 63.9336 188.726 63.9336ZM198.453 78.6211H196.929V61.2188H198.453V78.6211ZM197.613 69.1289H192.554V67.8594H197.613V69.1289ZM214.781 78.582H213.257V61.2188H214.781V78.582ZM217.593 69.5781H214.39V68.2891H217.593V69.5781ZM210.289 63.0938C210.282 64.7799 210.002 66.375 209.449 67.8789C208.902 69.3763 208.036 70.7598 206.851 72.0293C205.666 73.2923 204.156 74.3763 202.32 75.2812L201.461 74.0703C203.069 73.2695 204.416 72.3288 205.503 71.248C206.597 70.1608 207.414 68.9564 207.955 67.6348C208.502 66.3132 208.778 64.8841 208.785 63.3477V63.0938H210.289ZM209.566 64.3828H202.261V63.0938H209.566V64.3828ZM94.7711 102.18H78.9508V100.91H94.7711V102.18ZM87.6226 101.457H86.0992V98.4102H87.6226V101.457ZM82.5836 94.582H91.1773V92.5898H92.7008V98.9766H81.0601V92.5898H82.5836V94.582ZM91.1773 97.7461V95.7539H82.5836V97.7461H91.1773ZM92.8375 109.348H80.8844V103.801H92.8375V109.348ZM82.4078 108.098H91.3336V105.012H82.4078V108.098ZM104.146 92.5312C105.429 92.5312 106.529 92.6452 107.447 92.873C108.371 93.1009 109.074 93.4395 109.556 93.8887C110.038 94.3379 110.279 94.8815 110.279 95.5195C110.279 96.1706 110.038 96.724 109.556 97.1797C109.074 97.6354 108.375 97.9805 107.457 98.2148C106.539 98.4427 105.435 98.5599 104.146 98.5664C102.85 98.5599 101.744 98.4427 100.826 98.2148C99.9143 97.9805 99.2144 97.6354 98.7262 97.1797C98.2379 96.724 97.9937 96.1706 97.9937 95.5195C97.9937 94.8815 98.2379 94.3379 98.7262 93.8887C99.2144 93.4395 99.9176 93.1009 100.836 92.873C101.753 92.6452 102.857 92.5312 104.146 92.5312ZM104.146 93.6836C103.189 93.6836 102.369 93.7585 101.685 93.9082C101.008 94.0579 100.487 94.2695 100.123 94.543C99.7646 94.8164 99.5888 95.1419 99.5953 95.5195C99.5888 95.9167 99.7646 96.2585 100.123 96.5449C100.487 96.8249 101.008 97.0365 101.685 97.1797C102.369 97.3229 103.189 97.3945 104.146 97.3945C105.103 97.3945 105.923 97.3229 106.607 97.1797C107.297 97.0365 107.821 96.8249 108.179 96.5449C108.537 96.265 108.716 95.9232 108.716 95.5195C108.716 95.1419 108.537 94.8164 108.179 94.543C107.821 94.2695 107.297 94.0579 106.607 93.9082C105.917 93.7585 105.097 93.6836 104.146 93.6836ZM112.056 100.988H96.2359V99.7383H112.056V100.988ZM110.025 106.379H99.7125V108.488H98.189V105.246H108.521V103.664H98.15V102.492H110.025V106.379ZM110.552 109.387H98.189V108.176H110.552V109.387ZM133.384 109.582H131.92V92.2188H133.384V109.582ZM132.31 100.48H128.912V99.2109H132.31V100.48ZM129.361 108.684H127.955V92.6094H129.361V108.684ZM120.298 103.977C121.711 103.977 122.886 103.944 123.824 103.879C124.768 103.814 125.722 103.684 126.685 103.488L126.822 104.777C125.845 104.979 124.882 105.113 123.931 105.178C122.981 105.243 121.77 105.279 120.298 105.285H119.185V103.977H120.298ZM125.689 95.6172H120.709V104.582H119.185V94.3477H125.689V95.6172ZM150.142 109.621H148.599V92.2188H150.142V109.621ZM138.365 98.293H143.541V93.7031H145.045V105.422H136.841V93.7031H138.365V98.293ZM143.541 104.133V99.5234H138.365V104.133H143.541ZM166.548 109.582H165.025V92.2188H166.548V109.582ZM169.459 100.656H166.197V99.3867H169.459V100.656ZM163.345 96.2812H153.013V95.0117H163.345V96.2812ZM158.267 97.7266C159.074 97.7266 159.8 97.8958 160.445 98.2344C161.089 98.5729 161.594 99.0449 161.959 99.6504C162.33 100.256 162.518 100.943 162.525 101.711C162.518 102.486 162.33 103.176 161.959 103.781C161.594 104.38 161.089 104.849 160.445 105.188C159.8 105.526 159.074 105.695 158.267 105.695C157.453 105.695 156.721 105.526 156.07 105.188C155.425 104.849 154.921 104.38 154.556 103.781C154.192 103.176 154.009 102.486 154.009 101.711C154.009 100.943 154.192 100.256 154.556 99.6504C154.921 99.0449 155.425 98.5729 156.07 98.2344C156.721 97.8958 157.453 97.7266 158.267 97.7266ZM158.267 99.0156C157.733 99.0156 157.255 99.1296 156.832 99.3574C156.408 99.5853 156.076 99.9076 155.836 100.324C155.595 100.734 155.474 101.197 155.474 101.711C155.474 102.232 155.595 102.694 155.836 103.098C156.076 103.501 156.408 103.82 156.832 104.055C157.255 104.283 157.733 104.393 158.267 104.387C158.795 104.393 159.27 104.283 159.693 104.055C160.123 103.82 160.455 103.501 160.689 103.098C160.93 102.694 161.054 102.232 161.06 101.711C161.054 101.197 160.93 100.734 160.689 100.324C160.455 99.9076 160.123 99.5853 159.693 99.3574C159.27 99.1296 158.795 99.0156 158.267 99.0156ZM159.009 95.5977H157.486V92.4336H159.009V95.5977ZM183.365 95.2461H172.076V93.9766H183.365V95.2461ZM186.216 107.121H170.396V105.852H186.216V107.121ZM178.111 106.516H176.607V99.6406H178.111V106.516ZM184.322 95.9297C184.309 97.3685 184.263 98.6543 184.185 99.7871C184.114 100.92 183.944 102.232 183.677 103.723L182.115 103.547C182.317 102.544 182.463 101.594 182.554 100.695C182.652 99.7969 182.711 99.0156 182.73 98.3516C182.756 97.681 182.772 96.8411 182.779 95.832V95.7148V93.9766H184.322V95.7148V95.9297ZM207.037 101.887H205.513V92.2383H207.037V101.887ZM198.58 94.582C198.573 95.6302 198.358 96.6198 197.935 97.5508C197.518 98.4753 196.933 99.2826 196.177 99.9727C195.429 100.656 194.569 101.171 193.599 101.516L192.818 100.305C193.684 100.005 194.455 99.5625 195.132 98.9766C195.816 98.3906 196.347 97.7201 196.724 96.9648C197.102 96.2031 197.291 95.4089 197.291 94.582V92.8828H198.58V94.582ZM198.853 94.582C198.847 95.3698 199.032 96.125 199.41 96.8477C199.794 97.5638 200.321 98.1986 200.992 98.752C201.662 99.2988 202.427 99.7122 203.287 99.9922L202.545 101.203C201.568 100.871 200.705 100.38 199.957 99.7285C199.208 99.071 198.622 98.3027 198.199 97.4238C197.776 96.5449 197.564 95.5977 197.564 94.582V92.8828H198.853V94.582ZM207.154 104.172H195.474V102.922H207.154V104.172ZM207.33 109.348H195.318V108.098H207.33V109.348ZM199.42 108.84H197.916V103.449H199.42V108.84ZM204.752 108.84H203.228V103.449H204.752V108.84ZM223.423 109.621H221.9V92.2188H223.423V109.621ZM226.334 100.383H223.072V99.0938H226.334V100.383ZM212.115 103.977C213.821 103.97 215.282 103.924 216.5 103.84C217.717 103.749 218.957 103.586 220.22 103.352L220.416 104.68C219.127 104.914 217.864 105.07 216.627 105.148C215.396 105.227 213.892 105.266 212.115 105.266H210.748V103.977H212.115ZM218.853 95.1875H212.271V104.562H210.748V93.918H218.853V95.1875Z" fill="white"/>
<path d="M14.1436 20.5746H12.6105V3.22652H14.1436V20.5746ZM16.9613 11.5829H13.7431V10.2845H16.9613V11.5829ZM9.6547 5.09116C9.65009 6.78085 9.36925 8.37615 8.81216 9.87707C8.25967 11.3734 7.3895 12.7546 6.20166 14.0207C5.01842 15.2822 3.50829 16.3665 1.67127 17.2735L0.814917 16.0718C2.42634 15.2707 3.77762 14.3292 4.86878 13.2472C5.95995 12.1653 6.77716 10.9613 7.32044 9.63536C7.86372 8.30939 8.13536 6.87753 8.13536 5.33978V5.09116H9.6547ZM8.92265 6.37569H1.62983V5.09116H8.92265V6.37569ZM19.8266 19.1105C19.601 19.1105 19.3892 19.0529 19.1912 18.9378C18.9979 18.8227 18.8436 18.6708 18.7285 18.482C18.618 18.2887 18.5651 18.0792 18.5697 17.8536C18.5651 17.628 18.618 17.4185 18.7285 17.2251C18.8436 17.0272 18.9979 16.8729 19.1912 16.7624C19.3892 16.6519 19.601 16.5967 19.8266 16.5967C20.0522 16.5967 20.2617 16.6519 20.455 16.7624C20.653 16.8729 20.8073 17.0272 20.9178 17.2251C21.0283 17.4185 21.0835 17.628 21.0835 17.8536C21.0835 18.0792 21.0283 18.2887 20.9178 18.482C20.8073 18.6708 20.653 18.8227 20.455 18.9378C20.2617 19.0529 20.0522 19.1105 19.8266 19.1105Z" fill="white"/>
<defs>
<clipPath id="clip0_490_987">
<rect width="305" height="104" fill="white" transform="translate(0 32)"/>
</clipPath>
</defs>
</svg>
