<svg width="305" height="136" viewBox="0 0 305 136" fill="none" xmlns="http://www.w3.org/2000/svg">
<g clip-path="url(#clip0_490_1085)">
<path d="M1.41202 134.599L303.6 134.599V33.4014L1.41202 33.4014V134.599Z" fill="#4AE6CA"/>
<path d="M2.63443 33.4014H302.366C303.042 33.4014 303.6 33.9477 303.6 34.6365V133.363C303.6 134.04 303.054 134.599 302.366 134.599H2.63443C1.95802 134.599 1.40028 134.052 1.40028 133.363V34.6365C1.40028 33.9596 1.94615 33.4014 2.63443 33.4014ZM2.63443 32C1.17481 32 0 33.1757 0 34.6365V133.363C0 134.812 1.17481 136 2.63443 136H302.366C303.813 136 305 134.824 305 133.363V34.6365C305 33.1757 303.813 32 302.366 32H2.63443Z" fill="#0F594B"/>
<path d="M12.4247 123.566L292.576 123.566V44.4345L12.4247 44.4345V123.566Z" fill="#0F594B"/>
<mask id="mask0_490_1085" style="mask-type:luminance" maskUnits="userSpaceOnUse" x="12" y="44" width="281" height="80">
<path d="M12.4242 123.565L292.575 123.565V44.4342L12.4242 44.4342V123.565Z" fill="white"/>
</mask>
<g mask="url(#mask0_490_1085)">
<path d="M39.5752 103.471C50.3432 103.471 59.0724 94.7349 59.0724 83.9584C59.0724 73.1819 50.3432 64.4458 39.5752 64.4458C28.8073 64.4458 20.0781 73.1819 20.0781 83.9584C20.0781 94.7349 28.8073 103.471 39.5752 103.471Z" fill="#4DD3B8"/>
<path d="M39.5873 103.958C28.5631 103.958 19.5918 94.9795 19.5918 83.9465C19.5918 72.9135 28.5631 63.9351 39.5873 63.9351C50.6116 63.9351 59.5828 72.9135 59.5828 83.9465C59.5828 94.9795 50.6116 103.958 39.5873 103.958ZM39.5873 64.9327C29.109 64.9327 20.5886 73.4598 20.5886 83.9465C20.5886 94.4332 29.109 102.96 39.5873 102.96C50.0657 102.96 58.586 94.4332 58.586 83.9465C58.586 73.4598 50.0657 64.9327 39.5873 64.9327Z" fill="#13604E"/>
<path d="M33.0723 96.9628C40.2487 96.9628 46.0664 91.1405 46.0664 83.9583C46.0664 76.7762 40.2487 70.9539 33.0723 70.9539C25.8958 70.9539 20.0781 76.7762 20.0781 83.9583C20.0781 91.1405 25.8958 96.9628 33.0723 96.9628Z" fill="#13604E"/>
<path d="M20.0904 83.9583C30.8583 83.9583 39.5875 75.2222 39.5875 64.4457C39.5875 53.6692 30.8583 44.9331 20.0904 44.9331C9.32242 44.9331 0.593262 53.6692 0.593262 64.4457C0.593262 75.2222 9.32242 83.9583 20.0904 83.9583Z" fill="#4DD3B8"/>
<path d="M20.0903 84.4453C9.06601 84.4453 0.0947266 75.4787 0.0947266 64.4457C0.0947266 53.4127 9.06601 44.4343 20.0903 44.4343C31.1145 44.4343 40.0858 53.4127 40.0858 64.4457C40.0858 75.4787 31.1145 84.4572 20.0903 84.4572V84.4453ZM20.0903 45.4201C9.61189 45.4319 1.09154 53.959 1.09154 64.4457C1.09154 74.9324 9.61189 83.4596 20.0903 83.4596C30.5686 83.4596 39.089 74.9324 39.089 64.4457C39.089 53.959 30.5686 45.4319 20.0903 45.4319V45.4201Z" fill="#13604E"/>
<path d="M20.0904 122.983C30.8583 122.983 39.5875 114.247 39.5875 103.471C39.5875 92.6943 30.8583 83.9583 20.0904 83.9583C9.32242 83.9583 0.593262 92.6943 0.593262 103.471C0.593262 114.247 9.32242 122.983 20.0904 122.983Z" fill="#4DD3B8"/>
<path d="M20.0903 123.47C9.06601 123.47 0.0947266 114.504 0.0947266 103.471C0.0947266 92.4379 9.06601 83.4595 20.0903 83.4595C31.1145 83.4595 40.0858 92.4379 40.0858 103.471C40.0858 114.504 31.1145 123.482 20.0903 123.482V123.47ZM20.0903 84.4452C9.61189 84.4452 1.09154 92.9842 1.09154 103.471C1.09154 113.958 9.61189 122.485 20.0903 122.485C30.5686 122.485 39.089 113.958 39.089 103.471C39.089 92.9842 30.5686 84.4571 20.0903 84.4571V84.4452Z" fill="#13604E"/>
<path d="M0.593229 64.4459C0.593229 64.4459 0.130424 52.4153 13.5755 51.4414C27.1511 50.4557 30.3788 60.8236 30.7349 62.6525C31.1621 64.8496 31.0197 67.1061 29.0379 70.2414C28.2428 71.5003 26.3441 74.2319 21.1346 75.0157C21.1346 75.0157 13.0534 75.752 11.4276 67.7356C11.4276 67.7356 10.7868 62.1775 16.0438 61.1324C16.0438 61.1324 17.6221 60.883 18.2866 61.5481C18.2866 61.5481 19.4258 62.8426 18.0493 63.6858C17.1355 64.244 15.1419 64.0896 14.7384 66.8211C14.3587 69.3626 16.9338 70.9184 18.2629 71.3341C21.8466 72.4623 24.3149 71.726 26.3204 69.6714C26.3204 69.6714 29.9872 66.6548 28.0292 61.1918C25.5372 54.2442 19.319 52.2134 13.6111 52.6053C13.6111 52.6053 1.44764 52.9259 0.889898 67.7356C0.889898 67.7356 0.605095 65.4791 0.616962 64.4459H0.593229Z" fill="#13604E"/>
<path d="M0.593093 103.459C0.593093 103.459 0.142155 91.4284 13.5754 90.4546C27.1509 89.4689 30.3787 99.8368 30.7347 101.666C31.1619 103.863 31.0195 106.119 29.0378 109.255C28.2427 110.514 26.344 113.245 21.1345 114.029C21.1345 114.029 13.0532 114.765 11.4275 106.749C11.4275 106.749 10.7867 101.191 16.0436 100.146C16.0436 100.146 17.6219 99.8962 18.2865 100.561C18.2865 100.561 19.4257 101.856 18.0491 102.699C17.1354 103.257 15.1418 103.103 14.7383 105.834C14.3586 108.376 16.9337 109.932 18.2627 110.347C21.8465 111.475 24.3148 110.739 26.3203 108.685C26.3203 108.685 29.9871 105.668 28.0291 100.205C25.5371 93.2574 19.3189 91.2265 13.611 91.6185C13.611 91.6185 1.4475 91.9391 0.889763 106.749C0.889763 106.749 0.60496 104.492 0.616827 103.459H0.593093Z" fill="#13604E"/>
<path d="M0.593262 64.4458C11.3564 64.4458 20.0904 73.1867 20.0904 83.9584C20.0904 94.7301 11.3564 103.471 0.593262 103.471V64.4458Z" fill="#4DD3B8"/>
<path d="M0.593262 63.947C11.6175 63.947 20.5888 72.9254 20.5888 83.9584C20.5888 94.9914 11.6175 103.958 0.593262 103.958V63.947ZM0.593262 102.972C11.0716 102.972 19.592 94.4451 19.592 83.9584C19.592 73.4717 11.0598 64.9327 0.593262 64.9327V102.972Z" fill="#13604E"/>
<path d="M265.364 103.471C276.132 103.471 284.861 94.7349 284.861 83.9584C284.861 73.1819 276.132 64.4458 265.364 64.4458C254.596 64.4458 245.867 73.1819 245.867 83.9584C245.867 94.7349 254.596 103.471 265.364 103.471Z" fill="#4DD3B8"/>
<path d="M245.381 83.9584C245.381 72.9254 254.352 63.947 265.376 63.947C276.401 63.947 285.372 72.9254 285.372 83.9584C285.372 94.9914 276.401 103.97 265.376 103.97C254.352 103.97 245.381 94.9914 245.381 83.9584ZM246.378 83.9584C246.378 94.4451 254.898 102.972 265.376 102.972C275.855 102.972 284.375 94.4451 284.375 83.9584C284.375 73.4717 275.855 64.9446 265.376 64.9446C254.898 64.9446 246.378 73.4717 246.378 83.9584Z" fill="#13604E"/>
<path d="M271.879 96.963C279.056 96.963 284.873 91.1407 284.873 83.9586C284.873 76.7764 279.056 70.9541 271.879 70.9541C264.703 70.9541 258.885 76.7764 258.885 83.9586C258.885 91.1407 264.703 96.963 271.879 96.963Z" fill="#13604E"/>
<path d="M284.862 83.9583C295.63 83.9583 304.359 75.2222 304.359 64.4457C304.359 53.6692 295.63 44.9331 284.862 44.9331C274.094 44.9331 265.365 53.6692 265.365 64.4457C265.365 75.2222 274.094 83.9583 284.862 83.9583Z" fill="#4DD3B8"/>
<path d="M264.866 64.4457C264.866 53.4127 273.838 44.4343 284.862 44.4343C295.886 44.4343 304.857 53.4127 304.857 64.4457C304.857 75.4787 295.886 84.4572 284.862 84.4572C273.838 84.4572 264.866 75.4787 264.866 64.4457ZM265.863 64.4457C265.863 74.9324 274.383 83.4596 284.862 83.4596C295.34 83.4596 303.86 74.9324 303.86 64.4457C303.86 53.959 295.34 45.4319 284.862 45.4319C274.383 45.4319 265.863 53.959 265.863 64.4457Z" fill="#13604E"/>
<path d="M284.862 122.983C295.63 122.983 304.359 114.247 304.359 103.471C304.359 92.6943 295.63 83.9583 284.862 83.9583C274.094 83.9583 265.365 92.6943 265.365 103.471C265.365 114.247 274.094 122.983 284.862 122.983Z" fill="#4DD3B8"/>
<path d="M264.866 103.471C264.866 92.4379 273.838 83.4595 284.862 83.4595C295.886 83.4595 304.857 92.4379 304.857 103.471C304.857 114.504 295.886 123.482 284.862 123.482C273.838 123.482 264.866 114.504 264.866 103.471ZM265.863 103.471C265.863 113.958 274.383 122.485 284.862 122.485C295.34 122.485 303.86 113.958 303.86 103.471C303.86 92.9842 295.34 84.4571 284.862 84.4571C274.383 84.4571 265.863 92.9842 265.863 103.471Z" fill="#13604E"/>
<path d="M304.359 64.4459C304.359 64.4459 304.81 52.4153 291.376 51.4414C277.801 50.4557 274.573 60.8236 274.217 62.6525C273.79 64.8496 273.932 67.1061 275.914 70.2414C276.709 71.5003 278.608 74.2319 283.817 75.0157C283.817 75.0157 291.899 75.752 293.524 67.7356C293.524 67.7356 294.165 62.1775 288.908 61.1324C288.908 61.1324 287.33 60.883 286.665 61.5481C286.665 61.5481 285.526 62.8426 286.903 63.6858C287.816 64.244 289.81 64.0896 290.214 66.8211C290.593 69.3626 288.018 70.9184 286.689 71.3341C283.105 72.4623 280.637 71.726 278.632 69.6714C278.632 69.6714 274.965 66.6548 276.923 61.1918C279.415 54.2442 285.633 52.2134 291.341 52.6053C291.341 52.6053 303.504 52.9259 304.062 67.7356C304.062 67.7356 304.347 65.4791 304.335 64.4459H304.359Z" fill="#13604E"/>
<path d="M304.359 103.459C304.359 103.459 304.81 91.4284 291.376 90.4546C277.801 89.4689 274.573 99.8368 274.217 101.666C273.79 103.863 273.932 106.119 275.914 109.255C276.709 110.514 278.608 113.245 283.817 114.029C283.817 114.029 291.899 114.765 293.524 106.749C293.524 106.749 294.165 101.191 288.908 100.146C288.908 100.146 287.33 99.8962 286.665 100.561C286.665 100.561 285.526 101.856 286.903 102.699C287.816 103.257 289.81 103.103 290.214 105.834C290.593 108.376 288.018 109.932 286.689 110.347C283.105 111.475 280.637 110.739 278.632 108.685C278.632 108.685 274.965 105.668 276.923 100.205C279.415 93.2574 285.633 91.2265 291.341 91.6185C291.341 91.6185 303.504 91.9391 304.062 106.749C304.062 106.749 304.347 104.492 304.335 103.459H304.359Z" fill="#13604E"/>
<path d="M304.359 64.4458C293.596 64.4458 284.862 73.1867 284.862 83.9584C284.862 94.7301 293.596 103.471 304.359 103.471V64.4458Z" fill="#4DD3B8"/>
<path d="M304.359 103.958C293.335 103.958 284.363 94.9795 284.363 83.9465C284.363 72.9135 293.335 63.9351 304.359 63.9351V103.958ZM304.359 64.9327C293.88 64.9327 285.36 73.4598 285.36 83.9465C285.36 94.4332 293.88 102.96 304.359 102.96V64.9327Z" fill="#13604E"/>
</g>
<path d="M12.4247 44.4344H292.576V123.566H12.4247V44.4344ZM12.4247 43.033C11.6534 43.033 11.0244 43.6624 11.0244 44.4344V123.566C11.0244 124.338 11.6534 124.967 12.4247 124.967H292.576C293.347 124.967 293.976 124.338 293.976 123.566V44.4344C293.976 43.6624 293.347 43.033 292.576 43.033H12.4247Z" fill="#0F594B"/>
</g>
<path d="M78.691 79.8555H72.109V78.5859H78.691V79.8555ZM75.6637 86.6328H74.2183V82.5312H75.6637V86.6328ZM79.3746 79.8555C79.3681 80.7148 79.3388 81.4961 79.2867 82.1992C79.2411 82.8958 79.1337 83.6771 78.9644 84.543L77.5191 84.3867C77.6819 83.5599 77.786 82.821 77.8316 82.1699C77.8837 81.5124 77.9163 80.7734 77.9293 79.9531V79.7383V78.5859H79.3746V79.7383V79.8555ZM71.1519 86.1445C72.6819 86.1445 74.2509 86.1152 75.859 86.0566C77.467 85.998 78.8928 85.8906 80.1363 85.7344L80.2144 86.8477C78.9449 87.0755 77.5321 87.2318 75.9762 87.3164C74.4202 87.3945 72.8642 87.4336 71.3082 87.4336L71.1519 86.1445ZM86.0543 90.4219H84.5504V77.2383H86.0543V90.4219ZM85.0387 84.0547H81.9722V82.7656H85.0387V84.0547ZM82.4215 89.9141H80.9957V77.5508H82.4215V89.9141ZM86.523 94.2109H74.2769V92.9219H86.523V94.2109ZM75.8394 93.3516H74.2769V89.0352H75.8394V93.3516ZM94.5113 81.8867C94.5113 83.1758 94.29 84.4258 93.8472 85.6367C93.4045 86.8477 92.7991 87.9219 92.0308 88.8594C91.2626 89.7904 90.4097 90.4935 89.4722 90.9688L88.4957 89.6797C89.3551 89.2891 90.1461 88.6868 90.8687 87.873C91.5914 87.0592 92.1643 86.1283 92.5875 85.0801C93.0172 84.0254 93.2353 82.9609 93.2418 81.8867V78.7227H94.5113V81.8867ZM94.7652 81.8867C94.7652 82.9154 94.9768 83.9342 95.4 84.9434C95.8232 85.9525 96.3928 86.8542 97.109 87.6484C97.8316 88.4362 98.6194 89.0221 99.4722 89.4062L98.5347 90.6172C97.5972 90.1615 96.7444 89.4876 95.9762 88.5957C95.2079 87.7038 94.5992 86.6751 94.15 85.5098C93.7008 84.3444 93.4762 83.1367 93.4762 81.8867V78.7227H94.7652V81.8867ZM102.91 94.6211H101.367V77.2188H102.91V94.6211ZM120.214 94.6211H118.691V77.2188H120.214V94.6211ZM108.339 89.1133C109.915 89.1198 111.38 89.0775 112.734 88.9863C114.095 88.8952 115.52 88.7292 117.011 88.4883L117.168 89.7773C115.657 90.0117 114.212 90.1745 112.832 90.2656C111.451 90.3568 109.954 90.4023 108.339 90.4023H106.894V89.1133H108.339ZM114.941 85.0117H108.457V89.6016H106.894V83.7617H113.398V80.1094H106.855V78.8398H114.941V85.0117ZM136.914 90.168H128.906V78.9766H136.914V90.168ZM130.39 88.918H135.39V80.207H130.39V88.918ZM141.621 94.582H140.097V77.2188H141.621V94.582ZM144.531 85.4805H141.269V84.1523H144.531V85.4805ZM153.378 77.6094C154.635 77.6094 155.722 77.7396 156.64 78C157.565 78.2604 158.274 78.6413 158.769 79.1426C159.264 79.6374 159.511 80.2266 159.511 80.9102C159.511 81.5872 159.264 82.1699 158.769 82.6582C158.274 83.1465 157.565 83.5176 156.64 83.7715C155.722 84.0254 154.635 84.1523 153.378 84.1523C152.122 84.1523 151.031 84.0254 150.107 83.7715C149.189 83.5176 148.479 83.1465 147.978 82.6582C147.477 82.1699 147.226 81.5872 147.226 80.9102C147.226 80.2266 147.477 79.6374 147.978 79.1426C148.479 78.6413 149.189 78.2604 150.107 78C151.031 77.7396 152.122 77.6094 153.378 77.6094ZM153.378 78.8398C152.448 78.8398 151.637 78.9212 150.947 79.084C150.263 79.2467 149.736 79.4844 149.365 79.7969C148.994 80.1094 148.808 80.4805 148.808 80.9102C148.808 81.3268 148.994 81.6849 149.365 81.9844C149.736 82.2839 150.263 82.5182 150.947 82.6875C151.637 82.8568 152.448 82.9414 153.378 82.9414C154.303 82.9414 155.11 82.8568 155.8 82.6875C156.49 82.5182 157.021 82.2839 157.392 81.9844C157.763 81.6849 157.949 81.3268 157.949 80.9102C157.949 80.4805 157.763 80.1094 157.392 79.7969C157.021 79.4844 156.49 79.2467 155.8 79.084C155.11 78.9212 154.303 78.8398 153.378 78.8398ZM159.355 94.3477H147.402V88.6445H159.355V94.3477ZM148.925 93.0977H157.851V89.875H148.925V93.0977ZM161.289 86.9258H145.468V85.6562H161.289V86.9258ZM177.07 94.6211H175.527V77.2188H177.07V94.6211ZM167.832 78.5664C168.691 78.5664 169.456 78.8138 170.127 79.3086C170.797 79.8034 171.321 80.5098 171.699 81.4277C172.076 82.3457 172.265 83.4102 172.265 84.6211C172.265 85.832 172.076 86.8932 171.699 87.8047C171.321 88.7161 170.797 89.4193 170.127 89.9141C169.456 90.4089 168.691 90.6562 167.832 90.6562C166.972 90.6562 166.207 90.4089 165.537 89.9141C164.866 89.4193 164.342 88.7161 163.964 87.8047C163.587 86.8932 163.398 85.832 163.398 84.6211C163.398 83.4102 163.587 82.3457 163.964 81.4277C164.342 80.5098 164.866 79.8034 165.537 79.3086C166.207 78.8138 166.972 78.5664 167.832 78.5664ZM167.832 79.9336C167.259 79.9336 166.748 80.1289 166.298 80.5195C165.849 80.9102 165.501 81.4603 165.253 82.1699C165.006 82.8796 164.882 83.6966 164.882 84.6211C164.882 85.5521 165.006 86.3724 165.253 87.082C165.501 87.7852 165.849 88.3288 166.298 88.7129C166.748 89.097 167.259 89.2891 167.832 89.2891C168.411 89.2891 168.922 89.097 169.365 88.7129C169.814 88.3288 170.162 87.7852 170.41 87.082C170.657 86.3724 170.781 85.5521 170.781 84.6211C170.781 83.6901 170.657 82.873 170.41 82.1699C170.162 81.4603 169.814 80.9102 169.365 80.5195C168.922 80.1289 168.411 79.9336 167.832 79.9336ZM190.976 81.8867C190.976 83.1758 190.755 84.4258 190.312 85.6367C189.869 86.8477 189.264 87.9219 188.496 88.8594C187.727 89.7904 186.875 90.4935 185.937 90.9688L184.961 89.6797C185.82 89.2891 186.611 88.6868 187.334 87.873C188.056 87.0592 188.629 86.1283 189.052 85.0801C189.482 84.0254 189.7 82.9609 189.707 81.8867V78.7227H190.976V81.8867ZM191.23 81.8867C191.23 82.9154 191.442 83.9342 191.865 84.9434C192.288 85.9525 192.858 86.8542 193.574 87.6484C194.296 88.4362 195.084 89.0221 195.937 89.4062L195 90.6172C194.062 90.1615 193.209 89.4876 192.441 88.5957C191.673 87.7038 191.064 86.6751 190.615 85.5098C190.166 84.3444 189.941 83.1367 189.941 81.8867V78.7227H191.23V81.8867ZM199.375 94.6211H197.832V77.2188H199.375V94.6211ZM216.679 94.6211H215.156V77.2188H216.679V94.6211ZM204.804 89.1133C206.38 89.1198 207.845 89.0775 209.199 88.9863C210.559 88.8952 211.985 88.7292 213.476 88.4883L213.632 89.7773C212.122 90.0117 210.677 90.1745 209.296 90.2656C207.916 90.3568 206.419 90.4023 204.804 90.4023H203.359V89.1133H204.804ZM211.406 85.0117H204.921V89.6016H203.359V83.7617H209.863V80.1094H203.32V78.8398H211.406V85.0117ZM233.066 94.6211H231.543V77.2188H233.066V94.6211ZM235.976 85.3828H232.714V84.0938H235.976V85.3828ZM221.757 88.9766C223.463 88.9701 224.925 88.9245 226.142 88.8398C227.36 88.7487 228.6 88.5859 229.863 88.3516L230.058 89.6797C228.769 89.9141 227.506 90.0703 226.269 90.1484C225.039 90.2266 223.535 90.2656 221.757 90.2656H220.39V88.9766H221.757ZM228.496 80.1875H221.914V89.5625H220.39V78.918H228.496V80.1875Z" fill="white"/>
<path d="M16.9613 11.4448H13.7431V10.1602H16.9613V11.4448ZM14.1436 20.5746H12.6105V3.22652H14.1436V20.5746ZM2.94199 15.6713H1.42265V4.93923H2.94199V15.6713ZM2.80387 14.884C4.18508 14.884 5.53867 14.8241 6.86464 14.7044C8.19521 14.5801 9.55341 14.3729 10.9392 14.0829L11.1326 15.395C9.71455 15.6759 8.32643 15.8762 6.96823 15.9959C5.61464 16.111 4.22652 16.1685 2.80387 16.1685H1.42265V14.884H2.80387ZM19.8266 19.1105C19.601 19.1105 19.3892 19.0529 19.1912 18.9378C18.9979 18.8227 18.8436 18.6708 18.7285 18.482C18.618 18.2887 18.5651 18.0792 18.5697 17.8536C18.5651 17.628 18.618 17.4185 18.7285 17.2251C18.8436 17.0272 18.9979 16.8729 19.1912 16.7624C19.3892 16.6519 19.601 16.5967 19.8266 16.5967C20.0522 16.5967 20.2617 16.6519 20.455 16.7624C20.653 16.8729 20.8073 17.0272 20.9178 17.2251C21.0283 17.4185 21.0835 17.628 21.0835 17.8536C21.0835 18.0792 21.0283 18.2887 20.9178 18.482C20.8073 18.6708 20.653 18.8227 20.455 18.9378C20.2617 19.0529 20.0522 19.1105 19.8266 19.1105Z" fill="white"/>
<defs>
<clipPath id="clip0_490_1085">
<rect width="305" height="104" fill="white" transform="translate(0 32)"/>
</clipPath>
</defs>
</svg>
