<svg width="305" height="136" viewBox="0 0 305 136" fill="none" xmlns="http://www.w3.org/2000/svg">
<g clip-path="url(#clip0_490_1134)">
<path d="M1.41202 134.599L303.6 134.599V33.4014L1.41202 33.4014V134.599Z" fill="#4AE6CA"/>
<path d="M2.63443 33.4014H302.366C303.042 33.4014 303.6 33.9477 303.6 34.6365V133.363C303.6 134.04 303.054 134.599 302.366 134.599H2.63443C1.95802 134.599 1.40028 134.052 1.40028 133.363V34.6365C1.40028 33.9596 1.94615 33.4014 2.63443 33.4014ZM2.63443 32C1.17481 32 0 33.1757 0 34.6365V133.363C0 134.812 1.17481 136 2.63443 136H302.366C303.813 136 305 134.824 305 133.363V34.6365C305 33.1757 303.813 32 302.366 32H2.63443Z" fill="#0F594B"/>
<path d="M12.4247 123.566L292.576 123.566V44.4343L12.4247 44.4343V123.566Z" fill="#0F594B"/>
<mask id="mask0_490_1134" style="mask-type:luminance" maskUnits="userSpaceOnUse" x="12" y="44" width="281" height="80">
<path d="M12.4242 123.566L292.575 123.566V44.4345L12.4242 44.4345V123.566Z" fill="white"/>
</mask>
<g mask="url(#mask0_490_1134)">
<path d="M39.5752 103.471C50.3432 103.471 59.0724 94.7349 59.0724 83.9584C59.0724 73.1819 50.3432 64.4458 39.5752 64.4458C28.8073 64.4458 20.0781 73.1819 20.0781 83.9584C20.0781 94.7349 28.8073 103.471 39.5752 103.471Z" fill="#4DD3B8"/>
<path d="M39.5873 103.958C28.5631 103.958 19.5918 94.9796 19.5918 83.9466C19.5918 72.9136 28.5631 63.9352 39.5873 63.9352C50.6116 63.9352 59.5828 72.9136 59.5828 83.9466C59.5828 94.9796 50.6116 103.958 39.5873 103.958ZM39.5873 64.9328C29.109 64.9328 20.5886 73.4599 20.5886 83.9466C20.5886 94.4333 29.109 102.96 39.5873 102.96C50.0657 102.96 58.586 94.4333 58.586 83.9466C58.586 73.4599 50.0657 64.9328 39.5873 64.9328Z" fill="#13604E"/>
<path d="M33.0723 96.9629C40.2487 96.9629 46.0664 91.1406 46.0664 83.9584C46.0664 76.7763 40.2487 70.954 33.0723 70.954C25.8958 70.954 20.0781 76.7763 20.0781 83.9584C20.0781 91.1406 25.8958 96.9629 33.0723 96.9629Z" fill="#13604E"/>
<path d="M20.0904 83.9585C30.8583 83.9585 39.5875 75.2224 39.5875 64.4458C39.5875 53.6693 30.8583 44.9332 20.0904 44.9332C9.32242 44.9332 0.593262 53.6693 0.593262 64.4458C0.593262 75.2224 9.32242 83.9585 20.0904 83.9585Z" fill="#4DD3B8"/>
<path d="M20.0903 84.4454C9.06601 84.4454 0.0947266 75.4789 0.0947266 64.4459C0.0947266 53.4129 9.06601 44.4344 20.0903 44.4344C31.1145 44.4344 40.0858 53.4129 40.0858 64.4459C40.0858 75.4789 31.1145 84.4573 20.0903 84.4573V84.4454ZM20.0903 45.4202C9.61189 45.4321 1.09154 53.9592 1.09154 64.4459C1.09154 74.9326 9.61189 83.4597 20.0903 83.4597C30.5686 83.4597 39.089 74.9326 39.089 64.4459C39.089 53.9592 30.5686 45.4321 20.0903 45.4321V45.4202Z" fill="#13604E"/>
<path d="M20.0904 122.984C30.8583 122.984 39.5875 114.248 39.5875 103.471C39.5875 92.6946 30.8583 83.9585 20.0904 83.9585C9.32242 83.9585 0.593262 92.6946 0.593262 103.471C0.593262 114.248 9.32242 122.984 20.0904 122.984Z" fill="#4DD3B8"/>
<path d="M20.0903 123.471C9.06601 123.471 0.0947266 114.504 0.0947266 103.471C0.0947266 92.4381 9.06601 83.4597 20.0903 83.4597C31.1145 83.4597 40.0858 92.4381 40.0858 103.471C40.0858 114.504 31.1145 123.483 20.0903 123.483V123.471ZM20.0903 84.4454C9.61189 84.4454 1.09154 92.9844 1.09154 103.471C1.09154 113.958 9.61189 122.485 20.0903 122.485C30.5686 122.485 39.089 113.958 39.089 103.471C39.089 92.9844 30.5686 84.4573 20.0903 84.4573V84.4454Z" fill="#13604E"/>
<path d="M0.593229 64.4459C0.593229 64.4459 0.130424 52.4153 13.5755 51.4414C27.1511 50.4557 30.3788 60.8236 30.7349 62.6525C31.1621 64.8496 31.0197 67.1061 29.0379 70.2414C28.2428 71.5003 26.3441 74.2319 21.1346 75.0157C21.1346 75.0157 13.0534 75.752 11.4276 67.7356C11.4276 67.7356 10.7868 62.1775 16.0438 61.1324C16.0438 61.1324 17.6221 60.883 18.2866 61.5481C18.2866 61.5481 19.4258 62.8426 18.0493 63.6858C17.1355 64.244 15.1419 64.0896 14.7384 66.8211C14.3587 69.3626 16.9338 70.9184 18.2629 71.3341C21.8466 72.4623 24.3149 71.726 26.3204 69.6714C26.3204 69.6714 29.9872 66.6548 28.0292 61.1918C25.5372 54.2442 19.319 52.2134 13.6111 52.6053C13.6111 52.6053 1.44764 52.9259 0.889898 67.7356C0.889898 67.7356 0.605095 65.4791 0.616962 64.4459H0.593229Z" fill="#13604E"/>
<path d="M0.593093 103.459C0.593093 103.459 0.142155 91.4287 13.5754 90.4548C27.1509 89.4691 30.3787 99.837 30.7347 101.666C31.1619 103.863 31.0195 106.12 29.0378 109.255C28.2427 110.514 26.344 113.245 21.1345 114.029C21.1345 114.029 13.0532 114.765 11.4275 106.749C11.4275 106.749 10.7867 101.191 16.0436 100.146C16.0436 100.146 17.6219 99.8964 18.2865 100.561C18.2865 100.561 19.4257 101.856 18.0491 102.699C17.1354 103.257 15.1418 103.103 14.7383 105.835C14.3586 108.376 16.9337 109.932 18.2627 110.347C21.8465 111.476 24.3148 110.739 26.3203 108.685C26.3203 108.685 29.9871 105.668 28.0291 100.205C25.5371 93.2576 19.3189 91.2268 13.611 91.6187C13.611 91.6187 1.4475 91.9394 0.889763 106.749C0.889763 106.749 0.60496 104.493 0.616827 103.459H0.593093Z" fill="#13604E"/>
<path d="M0.593262 64.4458C11.3564 64.4458 20.0904 73.1867 20.0904 83.9584C20.0904 94.7301 11.3564 103.471 0.593262 103.471V64.4458Z" fill="#4DD3B8"/>
<path d="M0.593262 63.947C11.6175 63.947 20.5888 72.9254 20.5888 83.9584C20.5888 94.9914 11.6175 103.958 0.593262 103.958V63.947ZM0.593262 102.972C11.0716 102.972 19.592 94.4451 19.592 83.9584C19.592 73.4717 11.0598 64.9327 0.593262 64.9327V102.972Z" fill="#13604E"/>
<path d="M265.364 103.471C276.132 103.471 284.861 94.7349 284.861 83.9584C284.861 73.1819 276.132 64.4458 265.364 64.4458C254.596 64.4458 245.867 73.1819 245.867 83.9584C245.867 94.7349 254.596 103.471 265.364 103.471Z" fill="#4DD3B8"/>
<path d="M245.381 83.9584C245.381 72.9254 254.352 63.947 265.376 63.947C276.401 63.947 285.372 72.9254 285.372 83.9584C285.372 94.9914 276.401 103.97 265.376 103.97C254.352 103.97 245.381 94.9914 245.381 83.9584ZM246.378 83.9584C246.378 94.4451 254.898 102.972 265.376 102.972C275.855 102.972 284.375 94.4451 284.375 83.9584C284.375 73.4717 275.855 64.9446 265.376 64.9446C254.898 64.9446 246.378 73.4717 246.378 83.9584Z" fill="#13604E"/>
<path d="M271.879 96.9629C279.056 96.9629 284.873 91.1406 284.873 83.9584C284.873 76.7763 279.056 70.954 271.879 70.954C264.703 70.954 258.885 76.7763 258.885 83.9584C258.885 91.1406 264.703 96.9629 271.879 96.9629Z" fill="#13604E"/>
<path d="M284.862 83.9585C295.63 83.9585 304.359 75.2224 304.359 64.4458C304.359 53.6693 295.63 44.9332 284.862 44.9332C274.094 44.9332 265.365 53.6693 265.365 64.4458C265.365 75.2224 274.094 83.9585 284.862 83.9585Z" fill="#4DD3B8"/>
<path d="M264.866 64.4459C264.866 53.4129 273.838 44.4344 284.862 44.4344C295.886 44.4344 304.857 53.4129 304.857 64.4459C304.857 75.4789 295.886 84.4573 284.862 84.4573C273.838 84.4573 264.866 75.4789 264.866 64.4459ZM265.863 64.4459C265.863 74.9326 274.383 83.4597 284.862 83.4597C295.34 83.4597 303.86 74.9326 303.86 64.4459C303.86 53.9592 295.34 45.4321 284.862 45.4321C274.383 45.4321 265.863 53.9592 265.863 64.4459Z" fill="#13604E"/>
<path d="M284.862 122.984C295.63 122.984 304.359 114.248 304.359 103.471C304.359 92.6946 295.63 83.9585 284.862 83.9585C274.094 83.9585 265.365 92.6946 265.365 103.471C265.365 114.248 274.094 122.984 284.862 122.984Z" fill="#4DD3B8"/>
<path d="M264.866 103.471C264.866 92.4381 273.838 83.4597 284.862 83.4597C295.886 83.4597 304.857 92.4381 304.857 103.471C304.857 114.504 295.886 123.483 284.862 123.483C273.838 123.483 264.866 114.504 264.866 103.471ZM265.863 103.471C265.863 113.958 274.383 122.485 284.862 122.485C295.34 122.485 303.86 113.958 303.86 103.471C303.86 92.9844 295.34 84.4573 284.862 84.4573C274.383 84.4573 265.863 92.9844 265.863 103.471Z" fill="#13604E"/>
<path d="M304.359 64.4459C304.359 64.4459 304.81 52.4153 291.376 51.4414C277.801 50.4557 274.573 60.8236 274.217 62.6525C273.79 64.8496 273.932 67.1061 275.914 70.2414C276.709 71.5003 278.608 74.2319 283.817 75.0157C283.817 75.0157 291.899 75.752 293.524 67.7356C293.524 67.7356 294.165 62.1775 288.908 61.1324C288.908 61.1324 287.33 60.883 286.665 61.5481C286.665 61.5481 285.526 62.8426 286.903 63.6858C287.816 64.244 289.81 64.0896 290.214 66.8211C290.593 69.3626 288.018 70.9184 286.689 71.3341C283.105 72.4623 280.637 71.726 278.632 69.6714C278.632 69.6714 274.965 66.6548 276.923 61.1918C279.415 54.2442 285.633 52.2134 291.341 52.6053C291.341 52.6053 303.504 52.9259 304.062 67.7356C304.062 67.7356 304.347 65.4791 304.335 64.4459H304.359Z" fill="#13604E"/>
<path d="M304.359 103.459C304.359 103.459 304.81 91.4287 291.376 90.4548C277.801 89.4691 274.573 99.837 274.217 101.666C273.79 103.863 273.932 106.12 275.914 109.255C276.709 110.514 278.608 113.245 283.817 114.029C283.817 114.029 291.899 114.765 293.524 106.749C293.524 106.749 294.165 101.191 288.908 100.146C288.908 100.146 287.33 99.8964 286.665 100.561C286.665 100.561 285.526 101.856 286.903 102.699C287.816 103.257 289.81 103.103 290.214 105.835C290.593 108.376 288.018 109.932 286.689 110.347C283.105 111.476 280.637 110.739 278.632 108.685C278.632 108.685 274.965 105.668 276.923 100.205C279.415 93.2576 285.633 91.2268 291.341 91.6187C291.341 91.6187 303.504 91.9394 304.062 106.749C304.062 106.749 304.347 104.493 304.335 103.459H304.359Z" fill="#13604E"/>
<path d="M304.359 64.4458C293.596 64.4458 284.862 73.1867 284.862 83.9584C284.862 94.7301 293.596 103.471 304.359 103.471V64.4458Z" fill="#4DD3B8"/>
<path d="M304.359 103.958C293.335 103.958 284.363 94.9796 284.363 83.9466C284.363 72.9136 293.335 63.9352 304.359 63.9352V103.958ZM304.359 64.9328C293.88 64.9328 285.36 73.4599 285.36 83.9466C285.36 94.4333 293.88 102.96 304.359 102.96V64.9328Z" fill="#13604E"/>
</g>
<path d="M12.4247 44.4344H292.576V123.566H12.4247V44.4344ZM12.4247 43.033C11.6534 43.033 11.0244 43.6624 11.0244 44.4344V123.566C11.0244 124.338 11.6534 124.967 12.4247 124.967H292.576C293.347 124.967 293.976 124.338 293.976 123.566V44.4344C293.976 43.6624 293.347 43.033 292.576 43.033H12.4247Z" fill="#0F594B"/>
</g>
<path d="M116.06 72.5859H114.537V70.1836H116.06V72.5859ZM122.291 63.6211H108.209V62.4883H122.291V63.6211ZM115.298 64.3047C117.141 64.3047 118.537 64.4935 119.488 64.8711C120.445 65.2422 120.923 65.8021 120.923 66.5508C120.923 67.2995 120.445 67.8626 119.488 68.2402C118.537 68.6178 117.141 68.8099 115.298 68.8164C113.443 68.8099 112.037 68.6178 111.08 68.2402C110.129 67.8626 109.654 67.2995 109.654 66.5508C109.654 65.8021 110.129 65.2422 111.08 64.8711C112.037 64.4935 113.443 64.3047 115.298 64.3047ZM115.298 65.3594C114.426 65.3594 113.69 65.4049 113.091 65.4961C112.492 65.5872 112.04 65.724 111.734 65.9062C111.434 66.082 111.288 66.2969 111.295 66.5508C111.295 66.7982 111.421 67.0065 111.675 67.1758C111.929 67.3451 112.3 67.4818 112.789 67.5859C113.283 67.6836 113.899 67.7422 114.634 67.7617C114.771 67.7747 114.992 67.7812 115.298 67.7812C115.598 67.7812 115.813 67.7747 115.943 67.7617C116.679 67.7422 117.297 67.6868 117.798 67.5957C118.306 67.498 118.687 67.3613 118.941 67.1855C119.195 67.0098 119.322 66.7982 119.322 66.5508C119.315 66.2969 119.159 66.082 118.853 65.9062C118.554 65.724 118.101 65.5872 117.496 65.4961C116.897 65.4049 116.164 65.3594 115.298 65.3594ZM116.06 63.3867H114.537V60.9453H116.06V63.3867ZM123.209 70.9453H107.388V69.793H123.209V70.9453ZM121.177 75.7891H110.904V77.5469H109.341V74.7148H119.634V73.4062H109.302V72.293H121.177V75.7891ZM121.705 78.3867H109.341V77.2539H121.705V78.3867ZM130.025 63.6797H125.123V62.4102H130.025V63.6797ZM135.65 63.6797H130.787V62.4102H135.65V63.6797ZM139.322 78.582H137.779V73.7578H127.291V72.5078H139.322V78.582ZM139.322 71.6289H137.779V61.2188H139.322V71.6289ZM138.716 66.7852H135.181V65.5156H138.716V66.7852ZM128.462 64.6172C128.456 65.3789 128.345 66.1504 128.13 66.9316C127.922 67.7064 127.584 68.429 127.115 69.0996C126.653 69.7702 126.067 70.2943 125.357 70.6719L124.517 69.5781C125.136 69.2396 125.656 68.7871 126.08 68.2207C126.509 67.6543 126.825 67.0553 127.027 66.4238C127.229 65.7923 127.33 65.1901 127.33 64.6172V63.0156H128.462V64.6172ZM128.775 64.6172C128.768 65.1576 128.837 65.7435 128.98 66.375C129.13 67 129.377 67.6152 129.722 68.2207C130.067 68.8197 130.533 69.3112 131.119 69.6953L130.396 70.8477C129.706 70.4245 129.159 69.8516 128.755 69.1289C128.352 68.3997 128.069 67.6445 127.906 66.8633C127.75 66.0755 127.675 65.3268 127.681 64.6172V63.0156H128.775V64.6172ZM133.13 64.6172C133.13 65.3789 133.052 66.1536 132.896 66.9414C132.74 67.7227 132.457 68.4681 132.046 69.1777C131.636 69.8809 131.086 70.4375 130.396 70.8477L129.673 69.6953C130.259 69.3307 130.728 68.8522 131.08 68.2598C131.431 67.6673 131.675 67.0586 131.812 66.4336C131.955 65.8021 132.03 65.1966 132.037 64.6172V63.0156H133.13V64.6172ZM133.502 64.6172C133.495 65.2096 133.589 65.8249 133.785 66.4629C133.987 67.0944 134.299 67.6901 134.722 68.25C135.145 68.8099 135.676 69.2526 136.314 69.5781L135.455 70.6719C134.739 70.3008 134.149 69.7832 133.687 69.1191C133.225 68.4486 132.886 67.7259 132.671 66.9512C132.463 66.1699 132.362 65.3919 132.369 64.6172V63.0156H133.502V64.6172ZM160.22 66.3945H154.869V65.1055H160.22V66.3945ZM160.22 71.8828H154.869V70.6133H160.22V71.8828ZM151.646 62.5664C152.486 62.5664 153.235 62.8138 153.892 63.3086C154.556 63.8034 155.071 64.5098 155.435 65.4277C155.8 66.3457 155.982 67.4102 155.982 68.6211C155.982 69.8385 155.8 70.903 155.435 71.8145C155.071 72.7194 154.556 73.4193 153.892 73.9141C153.235 74.4089 152.486 74.6562 151.646 74.6562C150.793 74.6562 150.035 74.4089 149.371 73.9141C148.713 73.4193 148.202 72.7194 147.837 71.8145C147.473 70.903 147.291 69.8385 147.291 68.6211C147.291 67.4102 147.473 66.3457 147.837 65.4277C148.202 64.5098 148.713 63.8034 149.371 63.3086C150.035 62.8138 150.793 62.5664 151.646 62.5664ZM151.646 63.9336C151.08 63.9336 150.578 64.1289 150.142 64.5195C149.712 64.9102 149.374 65.4603 149.127 66.1699C148.879 66.873 148.755 67.6901 148.755 68.6211C148.755 69.5521 148.879 70.3724 149.127 71.082C149.374 71.7852 149.712 72.3288 150.142 72.7129C150.578 73.097 151.08 73.2891 151.646 73.2891C152.206 73.2891 152.707 73.097 153.15 72.7129C153.593 72.3288 153.934 71.7819 154.175 71.0723C154.416 70.3626 154.537 69.5456 154.537 68.6211C154.537 67.6966 154.416 66.8796 154.175 66.1699C153.934 65.4603 153.593 64.9102 153.15 64.5195C152.707 64.1289 152.206 63.9336 151.646 63.9336ZM161.373 78.6211H159.849V61.2188H161.373V78.6211ZM179.009 72.2148H177.545V61.2188H179.009V72.2148ZM177.974 67.2344H174.615V65.9648H177.974V67.2344ZM175.22 71.5898H173.775V61.5703H175.22V71.5898ZM173.072 64.5391H164.166V63.3086H173.072V64.5391ZM168.638 65.4766C169.367 65.4766 170.015 65.597 170.582 65.8379C171.148 66.0788 171.587 66.4238 171.9 66.873C172.212 67.3223 172.369 67.8464 172.369 68.4453C172.369 69.0312 172.212 69.5456 171.9 69.9883C171.587 70.431 171.148 70.776 170.582 71.0234C170.015 71.2708 169.367 71.3945 168.638 71.3945C167.916 71.3945 167.271 71.2708 166.705 71.0234C166.145 70.776 165.709 70.431 165.396 69.9883C165.084 69.5456 164.927 69.0312 164.927 68.4453C164.927 67.8464 165.084 67.3223 165.396 66.873C165.709 66.4238 166.145 66.0788 166.705 65.8379C167.271 65.597 167.916 65.4766 168.638 65.4766ZM168.638 66.6094C168.183 66.6094 167.779 66.6842 167.427 66.834C167.076 66.9837 166.799 67.1986 166.597 67.4785C166.395 67.7585 166.295 68.0807 166.295 68.4453C166.295 68.7969 166.395 69.1094 166.597 69.3828C166.799 69.6562 167.076 69.8678 167.427 70.0176C167.779 70.1673 168.183 70.2422 168.638 70.2422C169.094 70.2422 169.501 70.1673 169.859 70.0176C170.217 69.8678 170.494 69.6562 170.689 69.3828C170.884 69.1094 170.982 68.7969 170.982 68.4453C170.982 68.0807 170.884 67.7585 170.689 67.4785C170.494 67.1986 170.217 66.9837 169.859 66.834C169.501 66.6842 169.094 66.6094 168.638 66.6094ZM169.4 64.0117H167.877V61.3555H169.4V64.0117ZM173.267 72.5078C174.485 72.5078 175.53 72.625 176.402 72.8594C177.281 73.0938 177.951 73.4421 178.414 73.9043C178.876 74.36 179.107 74.9102 179.107 75.5547C179.107 76.1862 178.876 76.7233 178.414 77.166C177.951 77.6152 177.281 77.957 176.402 78.1914C175.523 78.4258 174.478 78.543 173.267 78.543C172.05 78.543 171.002 78.4258 170.123 78.1914C169.25 77.957 168.583 77.6152 168.121 77.166C167.665 76.7233 167.44 76.1862 167.447 75.5547C167.44 74.9102 167.665 74.36 168.121 73.9043C168.583 73.4421 169.25 73.0938 170.123 72.8594C171.002 72.625 172.05 72.5078 173.267 72.5078ZM173.267 73.7188C172.369 73.7122 171.597 73.7806 170.953 73.9238C170.308 74.0605 169.813 74.2689 169.468 74.5488C169.13 74.8288 168.964 75.1641 168.97 75.5547C168.964 75.9258 169.13 76.248 169.468 76.5215C169.813 76.7884 170.308 76.9935 170.953 77.1367C171.604 77.2799 172.375 77.3516 173.267 77.3516C174.159 77.3516 174.927 77.2799 175.572 77.1367C176.223 76.9935 176.718 76.7884 177.056 76.5215C177.401 76.248 177.577 75.9258 177.584 75.5547C177.577 75.1576 177.401 74.8223 177.056 74.5488C176.718 74.2689 176.226 74.0605 175.582 73.9238C174.937 73.7806 174.166 73.7122 173.267 73.7188ZM189.459 61.5312C190.741 61.5312 191.841 61.6452 192.759 61.873C193.684 62.1009 194.387 62.4395 194.869 62.8887C195.35 63.3379 195.591 63.8815 195.591 64.5195C195.591 65.1706 195.35 65.724 194.869 66.1797C194.387 66.6354 193.687 66.9805 192.769 67.2148C191.851 67.4427 190.748 67.5599 189.459 67.5664C188.163 67.5599 187.056 67.4427 186.138 67.2148C185.227 66.9805 184.527 66.6354 184.039 66.1797C183.55 65.724 183.306 65.1706 183.306 64.5195C183.306 63.8815 183.55 63.3379 184.039 62.8887C184.527 62.4395 185.23 62.1009 186.148 61.873C187.066 61.6452 188.17 61.5312 189.459 61.5312ZM189.459 62.6836C188.502 62.6836 187.681 62.7585 186.998 62.9082C186.321 63.0579 185.8 63.2695 185.435 63.543C185.077 63.8164 184.901 64.1419 184.908 64.5195C184.901 64.9167 185.077 65.2585 185.435 65.5449C185.8 65.8249 186.321 66.0365 186.998 66.1797C187.681 66.3229 188.502 66.3945 189.459 66.3945C190.416 66.3945 191.236 66.3229 191.92 66.1797C192.61 66.0365 193.134 65.8249 193.492 65.5449C193.85 65.265 194.029 64.9232 194.029 64.5195C194.029 64.1419 193.85 63.8164 193.492 63.543C193.134 63.2695 192.61 63.0579 191.92 62.9082C191.229 62.7585 190.409 62.6836 189.459 62.6836ZM197.369 69.9883H181.548V68.7383H197.369V69.9883ZM195.337 75.3789H185.025V77.4883H183.502V74.2461H193.834V72.6641H183.462V71.4922H195.337V75.3789ZM195.865 78.3867H183.502V77.1758H195.865V78.3867ZM91.3726 103.82C92.0172 103.827 92.6291 103.807 93.2086 103.762C93.788 103.716 94.3935 103.618 95.025 103.469L95.2203 104.758C94.5562 104.908 93.9312 105.005 93.3453 105.051C92.7659 105.09 92.1083 105.109 91.3726 105.109H90.65V103.82H91.3726ZM94.9469 95.2461H92.1539V104.445H90.65V93.9766H94.9469V95.2461ZM97.0758 103.82C97.9742 103.82 98.7489 103.794 99.4 103.742C100.051 103.69 100.709 103.579 101.373 103.41L101.529 104.68C100.78 104.862 100.061 104.979 99.3707 105.031C98.6871 105.083 97.8245 105.109 96.7828 105.109H95.9039V103.82H96.7828H97.0758ZM100.65 95.2461H97.4469V104.465H95.9039V93.9766H100.65V95.2461ZM104.693 109.582H103.15V92.2188H104.693V109.582ZM103.716 99.8555H99.7906V98.6055H103.716V99.8555ZM123.638 100.441H120.435V99.1523H123.638V100.441ZM120.826 109.582H119.302V92.2188H120.826V109.582ZM109.634 104.68H108.111V93.9375H109.634V104.68ZM109.498 103.879C110.871 103.885 112.222 103.827 113.55 103.703C114.878 103.579 116.236 103.371 117.623 103.078L117.818 104.387C116.405 104.673 115.022 104.875 113.668 104.992C112.313 105.109 110.923 105.168 109.498 105.168H108.111V103.879H109.498ZM137.642 95.2461H126.353V93.9766H137.642V95.2461ZM140.494 107.121H124.673V105.852H140.494V107.121ZM132.388 106.516H130.884V99.6406H132.388V106.516ZM138.599 95.9297C138.586 97.3685 138.541 98.6543 138.462 99.7871C138.391 100.92 138.222 102.232 137.955 103.723L136.392 103.547C136.594 102.544 136.74 101.594 136.832 100.695C136.929 99.7969 136.988 99.0156 137.007 98.3516C137.033 97.681 137.05 96.8411 137.056 95.832V95.7148V93.9766H138.599V95.7148V95.9297ZM161.314 101.887H159.791V92.2383H161.314V101.887ZM152.857 94.582C152.85 95.6302 152.636 96.6198 152.212 97.5508C151.796 98.4753 151.21 99.2826 150.455 99.9727C149.706 100.656 148.847 101.171 147.877 101.516L147.095 100.305C147.961 100.005 148.733 99.5625 149.41 98.9766C150.093 98.3906 150.624 97.7201 151.002 96.9648C151.379 96.2031 151.568 95.4089 151.568 94.582V92.8828H152.857V94.582ZM153.13 94.582C153.124 95.3698 153.309 96.125 153.687 96.8477C154.071 97.5638 154.599 98.1986 155.269 98.752C155.94 99.2988 156.705 99.7122 157.564 99.9922L156.822 101.203C155.845 100.871 154.983 100.38 154.234 99.7285C153.485 99.071 152.899 98.3027 152.476 97.4238C152.053 96.5449 151.841 95.5977 151.841 94.582V92.8828H153.13V94.582ZM161.431 104.172H149.752V102.922H161.431V104.172ZM161.607 109.348H149.595V108.098H161.607V109.348ZM153.697 108.84H152.193V103.449H153.697V108.84ZM159.029 108.84H157.505V103.449H159.029V108.84ZM168.931 93.5664C169.771 93.5664 170.52 93.8138 171.177 94.3086C171.841 94.8034 172.356 95.5098 172.72 96.4277C173.085 97.3457 173.267 98.4102 173.267 99.6211C173.267 100.839 173.085 101.903 172.72 102.814C172.356 103.719 171.841 104.419 171.177 104.914C170.52 105.409 169.771 105.656 168.931 105.656C168.078 105.656 167.32 105.409 166.656 104.914C165.998 104.419 165.487 103.719 165.123 102.814C164.758 101.903 164.576 100.839 164.576 99.6211C164.576 98.4102 164.758 97.3457 165.123 96.4277C165.487 95.5098 165.998 94.8034 166.656 94.3086C167.32 93.8138 168.078 93.5664 168.931 93.5664ZM168.931 94.9336C168.365 94.9336 167.864 95.1289 167.427 95.5195C166.998 95.9102 166.659 96.4603 166.412 97.1699C166.164 97.873 166.041 98.6901 166.041 99.6211C166.041 100.552 166.164 101.372 166.412 102.082C166.659 102.785 166.998 103.329 167.427 103.713C167.864 104.097 168.365 104.289 168.931 104.289C169.491 104.289 169.992 104.097 170.435 103.713C170.878 103.329 171.22 102.782 171.461 102.072C171.701 101.363 171.822 100.546 171.822 99.6211C171.822 98.6966 171.701 97.8796 171.461 97.1699C171.22 96.4603 170.878 95.9102 170.435 95.5195C169.992 95.1289 169.491 94.9336 168.931 94.9336ZM178.658 109.621H177.134V92.2188H178.658V109.621ZM177.818 100.129H172.759V98.8594H177.818V100.129ZM187.525 95.9492C187.525 96.9844 187.32 97.9577 186.91 98.8691C186.5 99.7741 185.92 100.568 185.171 101.252C184.429 101.929 183.573 102.447 182.603 102.805L181.802 101.574C182.668 101.275 183.436 100.839 184.107 100.266C184.784 99.6927 185.311 99.0319 185.689 98.2832C186.067 97.5345 186.255 96.7565 186.255 95.9492V94.1328H187.525V95.9492ZM187.798 95.9492C187.798 96.7174 187.99 97.4531 188.375 98.1562C188.759 98.8594 189.286 99.4779 189.957 100.012C190.627 100.546 191.392 100.949 192.252 101.223L191.47 102.453C190.507 102.121 189.654 101.636 188.912 100.998C188.17 100.354 187.587 99.5983 187.164 98.7324C186.74 97.8665 186.529 96.9388 186.529 95.9492V94.1328H187.798V95.9492ZM191.802 94.9336H182.193V93.6836H191.802V94.9336ZM195.884 104.973H194.361V92.2383H195.884V104.973ZM196.431 109.211H184.673V107.922H196.431V109.211ZM186.197 108.488H184.673V103.762H186.197V108.488ZM212.271 109.621H210.748V92.2188H212.271V109.621ZM215.181 100.383H211.92V99.0938H215.181V100.383ZM200.962 103.977C202.668 103.97 204.13 103.924 205.347 103.84C206.565 103.749 207.805 103.586 209.068 103.352L209.263 104.68C207.974 104.914 206.711 105.07 205.474 105.148C204.244 105.227 202.74 105.266 200.962 105.266H199.595V103.977H200.962ZM207.701 95.1875H201.119V104.562H199.595V93.918H207.701V95.1875Z" fill="white"/>
<path d="M14.1436 20.616H12.6243V3.22652H14.1436V20.616ZM17.0442 11.4309H13.7983V10.1326H17.0442V11.4309ZM2.80387 15.1188C4.56262 15.1188 6.05893 15.0773 7.29282 14.9945C8.53131 14.907 9.78821 14.7459 11.0635 14.511L11.2155 15.7818C9.90792 16.0212 8.62339 16.1846 7.36188 16.2721C6.10037 16.3596 4.58103 16.4079 2.80387 16.4171H1.42265V15.1188H2.80387ZM9.28177 11.058H2.94199V15.6436H1.42265V9.78729H7.74862V6.11326H1.38122V4.84254H9.28177V11.058ZM19.8266 19.1105C19.601 19.1105 19.3892 19.0529 19.1912 18.9378C18.9979 18.8227 18.8436 18.6708 18.7285 18.482C18.618 18.2887 18.5651 18.0792 18.5697 17.8536C18.5651 17.628 18.618 17.4185 18.7285 17.2251C18.8436 17.0272 18.9979 16.8729 19.1912 16.7624C19.3892 16.6519 19.601 16.5967 19.8266 16.5967C20.0522 16.5967 20.2617 16.6519 20.455 16.7624C20.653 16.8729 20.8073 17.0272 20.9178 17.2251C21.0283 17.4185 21.0835 17.628 21.0835 17.8536C21.0835 18.0792 21.0283 18.2887 20.9178 18.482C20.8073 18.6708 20.653 18.8227 20.455 18.9378C20.2617 19.0529 20.0522 19.1105 19.8266 19.1105Z" fill="white"/>
<defs>
<clipPath id="clip0_490_1134">
<rect width="305" height="104" fill="white" transform="translate(0 32)"/>
</clipPath>
</defs>
</svg>
