<svg width="305" height="136" viewBox="0 0 305 136" fill="none" xmlns="http://www.w3.org/2000/svg">
<g clip-path="url(#clip0_490_1036)">
<path d="M1.41202 134.599L303.6 134.599V33.4014L1.41202 33.4014V134.599Z" fill="#4AE6CA"/>
<path d="M2.63443 33.4014H302.366C303.042 33.4014 303.6 33.9477 303.6 34.6365V133.363C303.6 134.04 303.054 134.599 302.366 134.599H2.63443C1.95802 134.599 1.40028 134.052 1.40028 133.363V34.6365C1.40028 33.9596 1.94615 33.4014 2.63443 33.4014ZM2.63443 32C1.17481 32 0 33.1757 0 34.6365V133.363C0 134.812 1.17481 136 2.63443 136H302.366C303.813 136 305 134.824 305 133.363V34.6365C305 33.1757 303.813 32 302.366 32H2.63443Z" fill="#0F594B"/>
<path d="M12.4247 123.566L292.576 123.566V44.4343L12.4247 44.4343V123.566Z" fill="#0F594B"/>
<mask id="mask0_490_1036" style="mask-type:luminance" maskUnits="userSpaceOnUse" x="12" y="44" width="281" height="80">
<path d="M12.4242 123.566L292.575 123.566V44.4345L12.4242 44.4345V123.566Z" fill="white"/>
</mask>
<g mask="url(#mask0_490_1036)">
<path d="M39.5752 103.471C50.3432 103.471 59.0724 94.7349 59.0724 83.9584C59.0724 73.1819 50.3432 64.4458 39.5752 64.4458C28.8073 64.4458 20.0781 73.1819 20.0781 83.9584C20.0781 94.7349 28.8073 103.471 39.5752 103.471Z" fill="#4DD3B8"/>
<path d="M39.5873 103.958C28.5631 103.958 19.5918 94.9796 19.5918 83.9466C19.5918 72.9136 28.5631 63.9352 39.5873 63.9352C50.6116 63.9352 59.5828 72.9136 59.5828 83.9466C59.5828 94.9796 50.6116 103.958 39.5873 103.958ZM39.5873 64.9328C29.109 64.9328 20.5886 73.4599 20.5886 83.9466C20.5886 94.4333 29.109 102.96 39.5873 102.96C50.0657 102.96 58.586 94.4333 58.586 83.9466C58.586 73.4599 50.0657 64.9328 39.5873 64.9328Z" fill="#13604E"/>
<path d="M33.0723 96.9629C40.2487 96.9629 46.0664 91.1406 46.0664 83.9584C46.0664 76.7763 40.2487 70.954 33.0723 70.954C25.8958 70.954 20.0781 76.7763 20.0781 83.9584C20.0781 91.1406 25.8958 96.9629 33.0723 96.9629Z" fill="#13604E"/>
<path d="M20.0904 83.9585C30.8583 83.9585 39.5875 75.2224 39.5875 64.4458C39.5875 53.6693 30.8583 44.9332 20.0904 44.9332C9.32242 44.9332 0.593262 53.6693 0.593262 64.4458C0.593262 75.2224 9.32242 83.9585 20.0904 83.9585Z" fill="#4DD3B8"/>
<path d="M20.0903 84.4454C9.06601 84.4454 0.0947266 75.4789 0.0947266 64.4459C0.0947266 53.4129 9.06601 44.4344 20.0903 44.4344C31.1145 44.4344 40.0858 53.4129 40.0858 64.4459C40.0858 75.4789 31.1145 84.4573 20.0903 84.4573V84.4454ZM20.0903 45.4202C9.61189 45.4321 1.09154 53.9592 1.09154 64.4459C1.09154 74.9326 9.61189 83.4597 20.0903 83.4597C30.5686 83.4597 39.089 74.9326 39.089 64.4459C39.089 53.9592 30.5686 45.4321 20.0903 45.4321V45.4202Z" fill="#13604E"/>
<path d="M20.0904 122.984C30.8583 122.984 39.5875 114.248 39.5875 103.471C39.5875 92.6946 30.8583 83.9585 20.0904 83.9585C9.32242 83.9585 0.593262 92.6946 0.593262 103.471C0.593262 114.248 9.32242 122.984 20.0904 122.984Z" fill="#4DD3B8"/>
<path d="M20.0903 123.471C9.06601 123.471 0.0947266 114.504 0.0947266 103.471C0.0947266 92.4381 9.06601 83.4597 20.0903 83.4597C31.1145 83.4597 40.0858 92.4381 40.0858 103.471C40.0858 114.504 31.1145 123.483 20.0903 123.483V123.471ZM20.0903 84.4454C9.61189 84.4454 1.09154 92.9844 1.09154 103.471C1.09154 113.958 9.61189 122.485 20.0903 122.485C30.5686 122.485 39.089 113.958 39.089 103.471C39.089 92.9844 30.5686 84.4573 20.0903 84.4573V84.4454Z" fill="#13604E"/>
<path d="M0.593229 64.4459C0.593229 64.4459 0.130424 52.4153 13.5755 51.4414C27.1511 50.4557 30.3788 60.8236 30.7349 62.6525C31.1621 64.8496 31.0197 67.1061 29.0379 70.2414C28.2428 71.5003 26.3441 74.2319 21.1346 75.0157C21.1346 75.0157 13.0534 75.752 11.4276 67.7356C11.4276 67.7356 10.7868 62.1775 16.0438 61.1324C16.0438 61.1324 17.6221 60.883 18.2866 61.5481C18.2866 61.5481 19.4258 62.8426 18.0493 63.6858C17.1355 64.244 15.1419 64.0896 14.7384 66.8211C14.3587 69.3626 16.9338 70.9184 18.2629 71.3341C21.8466 72.4623 24.3149 71.726 26.3204 69.6714C26.3204 69.6714 29.9872 66.6548 28.0292 61.1918C25.5372 54.2442 19.319 52.2134 13.6111 52.6053C13.6111 52.6053 1.44764 52.9259 0.889898 67.7356C0.889898 67.7356 0.605095 65.4791 0.616962 64.4459H0.593229Z" fill="#13604E"/>
<path d="M0.593093 103.459C0.593093 103.459 0.142155 91.4287 13.5754 90.4548C27.1509 89.4691 30.3787 99.837 30.7347 101.666C31.1619 103.863 31.0195 106.12 29.0378 109.255C28.2427 110.514 26.344 113.245 21.1345 114.029C21.1345 114.029 13.0532 114.765 11.4275 106.749C11.4275 106.749 10.7867 101.191 16.0436 100.146C16.0436 100.146 17.6219 99.8964 18.2865 100.561C18.2865 100.561 19.4257 101.856 18.0491 102.699C17.1354 103.257 15.1418 103.103 14.7383 105.835C14.3586 108.376 16.9337 109.932 18.2627 110.347C21.8465 111.476 24.3148 110.739 26.3203 108.685C26.3203 108.685 29.9871 105.668 28.0291 100.205C25.5371 93.2576 19.3189 91.2268 13.611 91.6187C13.611 91.6187 1.4475 91.9394 0.889763 106.749C0.889763 106.749 0.60496 104.493 0.616827 103.459H0.593093Z" fill="#13604E"/>
<path d="M0.593262 64.4458C11.3564 64.4458 20.0904 73.1867 20.0904 83.9584C20.0904 94.7301 11.3564 103.471 0.593262 103.471V64.4458Z" fill="#4DD3B8"/>
<path d="M0.593262 63.947C11.6175 63.947 20.5888 72.9254 20.5888 83.9584C20.5888 94.9914 11.6175 103.958 0.593262 103.958V63.947ZM0.593262 102.972C11.0716 102.972 19.592 94.4451 19.592 83.9584C19.592 73.4717 11.0598 64.9327 0.593262 64.9327V102.972Z" fill="#13604E"/>
<path d="M265.364 103.471C276.132 103.471 284.861 94.7349 284.861 83.9584C284.861 73.1819 276.132 64.4458 265.364 64.4458C254.596 64.4458 245.867 73.1819 245.867 83.9584C245.867 94.7349 254.596 103.471 265.364 103.471Z" fill="#4DD3B8"/>
<path d="M245.381 83.9584C245.381 72.9254 254.352 63.947 265.376 63.947C276.401 63.947 285.372 72.9254 285.372 83.9584C285.372 94.9914 276.401 103.97 265.376 103.97C254.352 103.97 245.381 94.9914 245.381 83.9584ZM246.378 83.9584C246.378 94.4451 254.898 102.972 265.376 102.972C275.855 102.972 284.375 94.4451 284.375 83.9584C284.375 73.4717 275.855 64.9446 265.376 64.9446C254.898 64.9446 246.378 73.4717 246.378 83.9584Z" fill="#13604E"/>
<path d="M271.879 96.9629C279.056 96.9629 284.873 91.1406 284.873 83.9584C284.873 76.7763 279.056 70.954 271.879 70.954C264.703 70.954 258.885 76.7763 258.885 83.9584C258.885 91.1406 264.703 96.9629 271.879 96.9629Z" fill="#13604E"/>
<path d="M284.862 83.9585C295.63 83.9585 304.359 75.2224 304.359 64.4458C304.359 53.6693 295.63 44.9332 284.862 44.9332C274.094 44.9332 265.365 53.6693 265.365 64.4458C265.365 75.2224 274.094 83.9585 284.862 83.9585Z" fill="#4DD3B8"/>
<path d="M264.866 64.4459C264.866 53.4129 273.838 44.4344 284.862 44.4344C295.886 44.4344 304.857 53.4129 304.857 64.4459C304.857 75.4789 295.886 84.4573 284.862 84.4573C273.838 84.4573 264.866 75.4789 264.866 64.4459ZM265.863 64.4459C265.863 74.9326 274.383 83.4597 284.862 83.4597C295.34 83.4597 303.86 74.9326 303.86 64.4459C303.86 53.9592 295.34 45.4321 284.862 45.4321C274.383 45.4321 265.863 53.9592 265.863 64.4459Z" fill="#13604E"/>
<path d="M284.862 122.984C295.63 122.984 304.359 114.248 304.359 103.471C304.359 92.6946 295.63 83.9585 284.862 83.9585C274.094 83.9585 265.365 92.6946 265.365 103.471C265.365 114.248 274.094 122.984 284.862 122.984Z" fill="#4DD3B8"/>
<path d="M264.866 103.471C264.866 92.4381 273.838 83.4597 284.862 83.4597C295.886 83.4597 304.857 92.4381 304.857 103.471C304.857 114.504 295.886 123.483 284.862 123.483C273.838 123.483 264.866 114.504 264.866 103.471ZM265.863 103.471C265.863 113.958 274.383 122.485 284.862 122.485C295.34 122.485 303.86 113.958 303.86 103.471C303.86 92.9844 295.34 84.4573 284.862 84.4573C274.383 84.4573 265.863 92.9844 265.863 103.471Z" fill="#13604E"/>
<path d="M304.359 64.4459C304.359 64.4459 304.81 52.4153 291.376 51.4414C277.801 50.4557 274.573 60.8236 274.217 62.6525C273.79 64.8496 273.932 67.1061 275.914 70.2414C276.709 71.5003 278.608 74.2319 283.817 75.0157C283.817 75.0157 291.899 75.752 293.524 67.7356C293.524 67.7356 294.165 62.1775 288.908 61.1324C288.908 61.1324 287.33 60.883 286.665 61.5481C286.665 61.5481 285.526 62.8426 286.903 63.6858C287.816 64.244 289.81 64.0896 290.214 66.8211C290.593 69.3626 288.018 70.9184 286.689 71.3341C283.105 72.4623 280.637 71.726 278.632 69.6714C278.632 69.6714 274.965 66.6548 276.923 61.1918C279.415 54.2442 285.633 52.2134 291.341 52.6053C291.341 52.6053 303.504 52.9259 304.062 67.7356C304.062 67.7356 304.347 65.4791 304.335 64.4459H304.359Z" fill="#13604E"/>
<path d="M304.359 103.459C304.359 103.459 304.81 91.4287 291.376 90.4548C277.801 89.4691 274.573 99.837 274.217 101.666C273.79 103.863 273.932 106.12 275.914 109.255C276.709 110.514 278.608 113.245 283.817 114.029C283.817 114.029 291.899 114.765 293.524 106.749C293.524 106.749 294.165 101.191 288.908 100.146C288.908 100.146 287.33 99.8964 286.665 100.561C286.665 100.561 285.526 101.856 286.903 102.699C287.816 103.257 289.81 103.103 290.214 105.835C290.593 108.376 288.018 109.932 286.689 110.347C283.105 111.476 280.637 110.739 278.632 108.685C278.632 108.685 274.965 105.668 276.923 100.205C279.415 93.2576 285.633 91.2268 291.341 91.6187C291.341 91.6187 303.504 91.9394 304.062 106.749C304.062 106.749 304.347 104.493 304.335 103.459H304.359Z" fill="#13604E"/>
<path d="M304.359 64.4458C293.596 64.4458 284.862 73.1867 284.862 83.9584C284.862 94.7301 293.596 103.471 304.359 103.471V64.4458Z" fill="#4DD3B8"/>
<path d="M304.359 103.958C293.335 103.958 284.363 94.9796 284.363 83.9466C284.363 72.9136 293.335 63.9352 304.359 63.9352V103.958ZM304.359 64.9328C293.88 64.9328 285.36 73.4599 285.36 83.9466C285.36 94.4333 293.88 102.96 304.359 102.96V64.9328Z" fill="#13604E"/>
</g>
<path d="M12.4247 44.4344H292.576V123.566H12.4247V44.4344ZM12.4247 43.033C11.6534 43.033 11.0244 43.6624 11.0244 44.4344V123.566C11.0244 124.338 11.6534 124.967 12.4247 124.967H292.576C293.347 124.967 293.976 124.338 293.976 123.566V44.4344C293.976 43.6624 293.347 43.033 292.576 43.033H12.4247Z" fill="#0F594B"/>
</g>
<path d="M94.4683 64.2852H83.3746V62.9961H94.4683V64.2852ZM97.2808 76.1406H81.4605V74.8516H97.2808V76.1406ZM95.3082 65.2422C95.3147 66.3099 95.3049 67.2279 95.2789 67.9961C95.2594 68.7643 95.1942 69.6172 95.0836 70.5547C94.9794 71.4857 94.8134 72.4948 94.5855 73.582L93.0426 73.4453C93.2769 72.4297 93.4495 71.4629 93.5601 70.5449C93.6708 69.627 93.7392 68.8034 93.7652 68.0742C93.7978 67.3385 93.8173 66.3945 93.8238 65.2422V65.1445V62.9961H95.3082V65.1445V65.2422ZM83.1207 69.5586L82.9058 68.2891L94.2144 67.8203V68.9531L83.1207 69.5586ZM113.082 78.6211H111.558V61.2188H113.082V78.6211ZM101.207 73.1133C102.782 73.1198 104.247 73.0775 105.601 72.9863C106.962 72.8952 108.388 72.7292 109.878 72.4883L110.035 73.7773C108.524 74.0117 107.079 74.1745 105.699 74.2656C104.319 74.3568 102.821 74.4023 101.207 74.4023H99.7613V73.1133H101.207ZM107.808 69.0117H101.324V73.6016H99.7613V67.7617H106.265V64.1094H99.7222V62.8398H107.808V69.0117ZM124.429 63.7773C124.429 64.9818 124.091 66.1048 123.414 67.1465C122.737 68.1816 121.858 69.0573 120.777 69.7734C119.703 70.4896 118.576 70.9844 117.398 71.2578L116.695 69.9688C117.717 69.7734 118.72 69.3698 119.703 68.7578C120.692 68.1458 121.503 67.4004 122.134 66.5215C122.766 65.6426 123.082 64.7279 123.082 63.7773V62.4492H124.429V63.7773ZM124.683 63.7773C124.683 64.7279 125.002 65.6426 125.64 66.5215C126.278 67.4004 127.092 68.1491 128.082 68.7676C129.078 69.3796 130.087 69.7799 131.109 69.9688L130.406 71.2578C129.234 70.9844 128.108 70.4896 127.027 69.7734C125.946 69.0573 125.067 68.1816 124.39 67.1465C123.713 66.1048 123.375 64.9818 123.375 63.7773V62.4492H124.683V63.7773ZM131.929 76.2188H116.031V74.9492H131.929V76.2188ZM142.046 74.168H134.039V62.9766H142.046V74.168ZM135.523 72.918H140.523V64.207H135.523V72.918ZM146.753 78.582H145.23V61.2188H146.753V78.582ZM149.664 69.4805H146.402V68.1523H149.664V69.4805ZM159 63.7773C159 64.9818 158.661 66.1048 157.984 67.1465C157.307 68.1816 156.428 69.0573 155.347 69.7734C154.273 70.4896 153.147 70.9844 151.968 71.2578L151.265 69.9688C152.287 69.7734 153.29 69.3698 154.273 68.7578C155.263 68.1458 156.073 67.4004 156.705 66.5215C157.336 65.6426 157.652 64.7279 157.652 63.7773V62.4492H159V63.7773ZM159.253 63.7773C159.253 64.7279 159.573 65.6426 160.211 66.5215C160.849 67.4004 161.662 68.1491 162.652 68.7676C163.648 69.3796 164.657 69.7799 165.679 69.9688L164.976 71.2578C163.804 70.9844 162.678 70.4896 161.597 69.7734C160.517 69.0573 159.638 68.1816 158.961 67.1465C158.283 66.1048 157.945 64.9818 157.945 63.7773V62.4492H159.253V63.7773ZM166.5 76.2188H150.601V74.9492H166.5V76.2188ZM177.847 64.6758C177.841 65.5352 177.671 66.3848 177.339 67.2246C177.014 68.0645 176.542 68.8229 175.923 69.5C175.305 70.1706 174.586 70.6849 173.765 71.043L172.925 69.8516C173.668 69.5326 174.319 69.0898 174.878 68.5234C175.438 67.9505 175.865 67.3288 176.158 66.6582C176.457 65.9876 176.61 65.3268 176.617 64.6758V62.3125H177.847V64.6758ZM178.082 64.6758C178.088 65.3203 178.235 65.9518 178.521 66.5703C178.814 67.1823 179.227 67.7357 179.761 68.2305C180.302 68.7253 180.933 69.1094 181.656 69.3828L180.855 70.5547C180.022 70.2357 179.306 69.7767 178.707 69.1777C178.108 68.5723 177.649 67.8822 177.33 67.1074C177.017 66.3327 176.864 65.5221 176.871 64.6758V62.3125H178.082V64.6758ZM187.652 71.9609H186.187V61.2383H187.652V71.9609ZM186.675 67.1758H183.355V65.9062H186.675V67.1758ZM183.882 71.4141H182.437V61.5703H183.882V71.4141ZM181.91 72.3516C183.101 72.3516 184.133 72.472 185.005 72.7129C185.884 72.9538 186.561 73.3086 187.037 73.7773C187.512 74.2461 187.75 74.806 187.75 75.457C187.75 76.1016 187.512 76.6517 187.037 77.1074C186.561 77.5697 185.884 77.9245 185.005 78.1719C184.133 78.4193 183.101 78.543 181.91 78.543C180.712 78.543 179.673 78.4193 178.795 78.1719C177.916 77.9245 177.242 77.5697 176.773 77.1074C176.311 76.6517 176.083 76.1016 176.089 75.457C176.083 74.806 176.311 74.2461 176.773 73.7773C177.242 73.3086 177.916 72.9538 178.795 72.7129C179.673 72.472 180.712 72.3516 181.91 72.3516ZM181.91 73.5234C181.024 73.5234 180.259 73.6016 179.615 73.7578C178.97 73.9141 178.472 74.1387 178.121 74.4316C177.776 74.7181 177.606 75.0599 177.613 75.457C177.606 75.8477 177.776 76.1862 178.121 76.4727C178.472 76.7591 178.97 76.9772 179.615 77.127C180.259 77.2767 181.024 77.3516 181.91 77.3516C182.782 77.3516 183.544 77.2767 184.195 77.127C184.846 76.9772 185.344 76.7591 185.689 76.4727C186.041 76.1862 186.22 75.8477 186.226 75.457C186.22 75.0599 186.041 74.7181 185.689 74.4316C185.344 74.1387 184.846 73.9141 184.195 73.7578C183.544 73.6016 182.782 73.5234 181.91 73.5234ZM203.765 71.4141H202.242V61.2188H203.765V71.4141ZM206.382 66.9414H203.336V65.6328H206.382V66.9414ZM199 62.332C199 63.7839 198.674 65.099 198.023 66.2773C197.372 67.4492 196.431 68.4518 195.201 69.2852C193.977 70.1185 192.509 70.763 190.796 71.2188L190.171 70.0273C191.682 69.6172 192.977 69.0703 194.058 68.3867C195.139 67.6966 195.966 66.8958 196.539 65.9844C197.112 65.0729 197.398 64.0833 197.398 63.0156V62.332H199ZM198.238 63.6016H190.953V62.332H198.238V63.6016ZM203.765 78.582H202.242V73.4648H192.398V72.2148H203.765V78.582ZM217.925 69.2656H214.586V67.9961H217.925V69.2656ZM222.359 78.582H220.875V61.2188H222.359V78.582ZM218.863 77.7031H217.398V61.5898H218.863V77.7031ZM211.421 62.6836C212.17 62.6836 212.824 62.931 213.384 63.4258C213.951 63.9206 214.39 64.6237 214.703 65.5352C215.015 66.4401 215.171 67.5013 215.171 68.7188C215.171 69.9362 215.015 71.0007 214.703 71.9121C214.39 72.8171 213.951 73.5169 213.384 74.0117C212.824 74.5065 212.17 74.7539 211.421 74.7539C210.673 74.7539 210.018 74.5065 209.459 74.0117C208.905 73.5169 208.472 72.8171 208.16 71.9121C207.847 71.0007 207.691 69.9362 207.691 68.7188C207.691 67.5013 207.847 66.4401 208.16 65.5352C208.472 64.6237 208.905 63.9206 209.459 63.4258C210.018 62.931 210.673 62.6836 211.421 62.6836ZM211.421 64.1289C210.953 64.1289 210.546 64.3145 210.201 64.6855C209.856 65.0566 209.589 65.5905 209.4 66.2871C209.218 66.9772 209.13 67.7878 209.136 68.7188C209.13 69.6497 209.218 70.4603 209.4 71.1504C209.589 71.834 209.856 72.3646 210.201 72.7422C210.552 73.1133 210.959 73.2956 211.421 73.2891C211.89 73.2956 212.3 73.1133 212.652 72.7422C213.003 72.3646 213.27 71.834 213.453 71.1504C213.635 70.4603 213.726 69.6497 213.726 68.7188C213.726 67.7878 213.635 66.9772 213.453 66.2871C213.27 65.5905 213.003 65.0566 212.652 64.6855C212.3 64.3145 211.89 64.1289 211.421 64.1289ZM114.771 94.8555H108.189V93.5859H114.771V94.8555ZM111.744 101.633H110.298V97.5312H111.744V101.633ZM115.455 94.8555C115.448 95.7148 115.419 96.4961 115.367 97.1992C115.321 97.8958 115.214 98.6771 115.045 99.543L113.599 99.3867C113.762 98.5599 113.866 97.821 113.912 97.1699C113.964 96.5124 113.996 95.7734 114.009 94.9531V94.7383V93.5859H115.455V94.7383V94.8555ZM107.232 101.145C108.762 101.145 110.331 101.115 111.939 101.057C113.547 100.998 114.973 100.891 116.216 100.734L116.295 101.848C115.025 102.076 113.612 102.232 112.056 102.316C110.5 102.395 108.944 102.434 107.388 102.434L107.232 101.145ZM122.134 105.422H120.63V92.2383H122.134V105.422ZM121.119 99.0547H118.052V97.7656H121.119V99.0547ZM118.502 104.914H117.076V92.5508H118.502V104.914ZM122.603 109.211H110.357V107.922H122.603V109.211ZM111.92 108.352H110.357V104.035H111.92V108.352ZM138.99 109.582H137.447V92.2188H138.99V109.582ZM135.572 96.3008H125.064V95.0508H135.572V96.3008ZM130.357 97.7266C131.177 97.7266 131.916 97.8958 132.574 98.2344C133.231 98.5729 133.742 99.0449 134.107 99.6504C134.472 100.256 134.654 100.943 134.654 101.711C134.654 102.486 134.472 103.176 134.107 103.781C133.742 104.38 133.231 104.849 132.574 105.188C131.916 105.526 131.177 105.695 130.357 105.695C129.524 105.695 128.781 105.526 128.13 105.188C127.479 104.849 126.968 104.38 126.597 103.781C126.226 103.176 126.041 102.486 126.041 101.711C126.041 100.943 126.226 100.256 126.597 99.6504C126.968 99.0449 127.479 98.5729 128.13 98.2344C128.781 97.8958 129.524 97.7266 130.357 97.7266ZM130.357 99.0156C129.81 99.0156 129.319 99.1296 128.882 99.3574C128.446 99.5853 128.104 99.9043 127.857 100.314C127.61 100.725 127.486 101.19 127.486 101.711C127.486 102.232 127.61 102.694 127.857 103.098C128.104 103.501 128.446 103.82 128.882 104.055C129.319 104.283 129.81 104.393 130.357 104.387C130.897 104.393 131.382 104.283 131.812 104.055C132.248 103.82 132.587 103.501 132.828 103.098C133.069 102.694 133.189 102.232 133.189 101.711C133.189 101.197 133.069 100.734 132.828 100.324C132.587 99.9076 132.248 99.5853 131.812 99.3574C131.382 99.1296 130.897 99.0156 130.357 99.0156ZM131.08 95.8125H129.537V92.3945H131.08V95.8125ZM160.474 96.6914H155.962V95.4219H160.474V96.6914ZM161.373 101.203H159.83V92.2188H161.373V101.203ZM161.373 106.223H151.666V108.879H150.162V105.051H159.849V103.312H150.123V102.082H161.373V106.223ZM162.017 109.348H150.162V108.117H162.017V109.348ZM152.623 94.4258C152.623 95.4805 152.421 96.4603 152.017 97.3652C151.614 98.2702 151.047 99.0579 150.318 99.7285C149.595 100.393 148.755 100.897 147.798 101.242L146.959 100.012C147.824 99.7253 148.589 99.3021 149.253 98.7422C149.924 98.1823 150.445 97.5312 150.816 96.7891C151.194 96.0469 151.386 95.2591 151.392 94.4258V92.7852H152.623V94.4258ZM152.896 94.4258C152.89 95.1745 153.069 95.8939 153.433 96.584C153.804 97.2676 154.315 97.8763 154.966 98.4102C155.624 98.944 156.373 99.3477 157.212 99.6211L156.392 100.812C155.461 100.48 154.634 100.002 153.912 99.377C153.196 98.7454 152.636 98.0033 152.232 97.1504C151.828 96.2975 151.627 95.3893 151.627 94.4258V92.7852H152.896V94.4258ZM166.177 101.34C167.518 101.34 168.668 101.307 169.625 101.242C170.582 101.171 171.568 101.034 172.584 100.832L172.759 102.082C171.705 102.277 170.686 102.411 169.703 102.482C168.726 102.554 167.577 102.59 166.255 102.59H166.177H165.064V101.34H166.177ZM171.216 98.6055H166.568V101.945H165.064V97.4336H169.732V94.875H165.025V93.6445H171.216V98.6055ZM175.142 98.3516H171.939V97.0625H175.142V98.3516ZM179.009 105.285H177.545V92.2383H179.009V105.285ZM175.572 104.816H174.107V92.5508H175.572V104.816ZM179.537 109.211H167.623V107.922H179.537V109.211ZM169.146 108.723H167.623V103.977H169.146V108.723ZM194.986 109.621H193.462V92.2188H194.986V109.621ZM197.896 100.383H194.634V99.0938H197.896V100.383ZM183.677 103.977C185.383 103.97 186.845 103.924 188.062 103.84C189.28 103.749 190.52 103.586 191.783 103.352L191.978 104.68C190.689 104.914 189.426 105.07 188.189 105.148C186.959 105.227 185.455 105.266 183.677 105.266H182.31V103.977H183.677ZM190.416 95.1875H183.834V104.562H182.31V93.918H190.416V95.1875Z" fill="white"/>
<path d="M14.1436 20.616H12.6105V3.22652H14.1436V20.616ZM17.0442 11.3757H13.7983V10.0912H17.0442V11.3757ZM2.83149 14.9669C4.53039 14.9669 5.98987 14.9231 7.20995 14.8356C8.43462 14.7482 9.67772 14.5893 10.9392 14.3591L11.1326 15.6851C9.84346 15.9153 8.58195 16.0695 7.34807 16.1478C6.11418 16.2261 4.60866 16.2652 2.83149 16.2652H1.46409V14.9669H2.83149ZM9.57182 6.18232H2.99724V15.5608H1.46409V4.92541H9.57182V6.18232ZM19.8266 19.1105C19.601 19.1105 19.3892 19.0529 19.1912 18.9378C18.9979 18.8227 18.8436 18.6708 18.7285 18.482C18.618 18.2887 18.5651 18.0792 18.5697 17.8536C18.5651 17.628 18.618 17.4185 18.7285 17.2251C18.8436 17.0272 18.9979 16.8729 19.1912 16.7624C19.3892 16.6519 19.601 16.5967 19.8266 16.5967C20.0522 16.5967 20.2617 16.6519 20.455 16.7624C20.653 16.8729 20.8073 17.0272 20.9178 17.2251C21.0283 17.4185 21.0835 17.628 21.0835 17.8536C21.0835 18.0792 21.0283 18.2887 20.9178 18.482C20.8073 18.6708 20.653 18.8227 20.455 18.9378C20.2617 19.0529 20.0522 19.1105 19.8266 19.1105Z" fill="white"/>
<defs>
<clipPath id="clip0_490_1036">
<rect width="305" height="104" fill="white" transform="translate(0 32)"/>
</clipPath>
</defs>
</svg>
