<svg width="305" height="136" viewBox="0 0 305 136" fill="none" xmlns="http://www.w3.org/2000/svg">
<g clip-path="url(#clip0_491_1476)">
<path d="M1.41202 134.599L303.6 134.599V33.4014L1.41202 33.4014V134.599Z" fill="#4AE6CA"/>
<path d="M2.63443 33.4014H302.366C303.042 33.4014 303.6 33.9477 303.6 34.6365V133.363C303.6 134.04 303.054 134.599 302.366 134.599H2.63443C1.95802 134.599 1.40028 134.052 1.40028 133.363V34.6365C1.40028 33.9596 1.94615 33.4014 2.63443 33.4014ZM2.63443 32C1.17481 32 0 33.1757 0 34.6365V133.363C0 134.812 1.17481 136 2.63443 136H302.366C303.813 136 305 134.824 305 133.363V34.6365C305 33.1757 303.813 32 302.366 32H2.63443Z" fill="#0F594B"/>
<path d="M12.4247 123.566L292.576 123.566V44.4343L12.4247 44.4343V123.566Z" fill="#0F594B"/>
<mask id="mask0_491_1476" style="mask-type:luminance" maskUnits="userSpaceOnUse" x="12" y="44" width="281" height="80">
<path d="M12.4242 123.566L292.575 123.566V44.4345L12.4242 44.4345V123.566Z" fill="white"/>
</mask>
<g mask="url(#mask0_491_1476)">
<path d="M39.5752 103.471C50.3432 103.471 59.0724 94.7349 59.0724 83.9584C59.0724 73.1819 50.3432 64.4458 39.5752 64.4458C28.8073 64.4458 20.0781 73.1819 20.0781 83.9584C20.0781 94.7349 28.8073 103.471 39.5752 103.471Z" fill="#4DD3B8"/>
<path d="M39.5873 103.958C28.5631 103.958 19.5918 94.9796 19.5918 83.9466C19.5918 72.9136 28.5631 63.9352 39.5873 63.9352C50.6116 63.9352 59.5828 72.9136 59.5828 83.9466C59.5828 94.9796 50.6116 103.958 39.5873 103.958ZM39.5873 64.9328C29.109 64.9328 20.5886 73.4599 20.5886 83.9466C20.5886 94.4333 29.109 102.96 39.5873 102.96C50.0657 102.96 58.586 94.4333 58.586 83.9466C58.586 73.4599 50.0657 64.9328 39.5873 64.9328Z" fill="#13604E"/>
<path d="M33.0723 96.9629C40.2487 96.9629 46.0664 91.1406 46.0664 83.9584C46.0664 76.7763 40.2487 70.954 33.0723 70.954C25.8958 70.954 20.0781 76.7763 20.0781 83.9584C20.0781 91.1406 25.8958 96.9629 33.0723 96.9629Z" fill="#13604E"/>
<path d="M20.0904 83.9585C30.8583 83.9585 39.5875 75.2224 39.5875 64.4458C39.5875 53.6693 30.8583 44.9332 20.0904 44.9332C9.32242 44.9332 0.593262 53.6693 0.593262 64.4458C0.593262 75.2224 9.32242 83.9585 20.0904 83.9585Z" fill="#4DD3B8"/>
<path d="M20.0903 84.4454C9.06601 84.4454 0.0947266 75.4789 0.0947266 64.4459C0.0947266 53.4129 9.06601 44.4344 20.0903 44.4344C31.1145 44.4344 40.0858 53.4129 40.0858 64.4459C40.0858 75.4789 31.1145 84.4573 20.0903 84.4573V84.4454ZM20.0903 45.4202C9.61189 45.4321 1.09154 53.9592 1.09154 64.4459C1.09154 74.9326 9.61189 83.4597 20.0903 83.4597C30.5686 83.4597 39.089 74.9326 39.089 64.4459C39.089 53.9592 30.5686 45.4321 20.0903 45.4321V45.4202Z" fill="#13604E"/>
<path d="M20.0904 122.984C30.8583 122.984 39.5875 114.248 39.5875 103.471C39.5875 92.6946 30.8583 83.9585 20.0904 83.9585C9.32242 83.9585 0.593262 92.6946 0.593262 103.471C0.593262 114.248 9.32242 122.984 20.0904 122.984Z" fill="#4DD3B8"/>
<path d="M20.0903 123.471C9.06601 123.471 0.0947266 114.504 0.0947266 103.471C0.0947266 92.4381 9.06601 83.4597 20.0903 83.4597C31.1145 83.4597 40.0858 92.4381 40.0858 103.471C40.0858 114.504 31.1145 123.483 20.0903 123.483V123.471ZM20.0903 84.4454C9.61189 84.4454 1.09154 92.9844 1.09154 103.471C1.09154 113.958 9.61189 122.485 20.0903 122.485C30.5686 122.485 39.089 113.958 39.089 103.471C39.089 92.9844 30.5686 84.4573 20.0903 84.4573V84.4454Z" fill="#13604E"/>
<path d="M0.593229 64.4459C0.593229 64.4459 0.130424 52.4153 13.5755 51.4414C27.1511 50.4557 30.3788 60.8236 30.7349 62.6525C31.1621 64.8496 31.0197 67.1061 29.0379 70.2414C28.2428 71.5003 26.3441 74.2319 21.1346 75.0157C21.1346 75.0157 13.0534 75.752 11.4276 67.7356C11.4276 67.7356 10.7868 62.1775 16.0438 61.1324C16.0438 61.1324 17.6221 60.883 18.2866 61.5481C18.2866 61.5481 19.4258 62.8426 18.0493 63.6858C17.1355 64.244 15.1419 64.0896 14.7384 66.8211C14.3587 69.3626 16.9338 70.9184 18.2629 71.3341C21.8466 72.4623 24.3149 71.726 26.3204 69.6714C26.3204 69.6714 29.9872 66.6548 28.0292 61.1918C25.5372 54.2442 19.319 52.2134 13.6111 52.6053C13.6111 52.6053 1.44764 52.9259 0.889898 67.7356C0.889898 67.7356 0.605095 65.4791 0.616962 64.4459H0.593229Z" fill="#13604E"/>
<path d="M0.593093 103.459C0.593093 103.459 0.142155 91.4287 13.5754 90.4548C27.1509 89.4691 30.3787 99.837 30.7347 101.666C31.1619 103.863 31.0195 106.12 29.0378 109.255C28.2427 110.514 26.344 113.245 21.1345 114.029C21.1345 114.029 13.0532 114.765 11.4275 106.749C11.4275 106.749 10.7867 101.191 16.0436 100.146C16.0436 100.146 17.6219 99.8964 18.2865 100.561C18.2865 100.561 19.4257 101.856 18.0491 102.699C17.1354 103.257 15.1418 103.103 14.7383 105.835C14.3586 108.376 16.9337 109.932 18.2627 110.347C21.8465 111.476 24.3148 110.739 26.3203 108.685C26.3203 108.685 29.9871 105.668 28.0291 100.205C25.5371 93.2576 19.3189 91.2268 13.611 91.6187C13.611 91.6187 1.4475 91.9394 0.889763 106.749C0.889763 106.749 0.60496 104.493 0.616827 103.459H0.593093Z" fill="#13604E"/>
<path d="M0.593262 64.4458C11.3564 64.4458 20.0904 73.1867 20.0904 83.9584C20.0904 94.7301 11.3564 103.471 0.593262 103.471V64.4458Z" fill="#4DD3B8"/>
<path d="M0.593262 63.947C11.6175 63.947 20.5888 72.9254 20.5888 83.9584C20.5888 94.9914 11.6175 103.958 0.593262 103.958V63.947ZM0.593262 102.972C11.0716 102.972 19.592 94.4451 19.592 83.9584C19.592 73.4717 11.0598 64.9327 0.593262 64.9327V102.972Z" fill="#13604E"/>
<path d="M265.364 103.471C276.132 103.471 284.861 94.7349 284.861 83.9584C284.861 73.1819 276.132 64.4458 265.364 64.4458C254.596 64.4458 245.867 73.1819 245.867 83.9584C245.867 94.7349 254.596 103.471 265.364 103.471Z" fill="#4DD3B8"/>
<path d="M245.381 83.9584C245.381 72.9254 254.352 63.947 265.376 63.947C276.401 63.947 285.372 72.9254 285.372 83.9584C285.372 94.9914 276.401 103.97 265.376 103.97C254.352 103.97 245.381 94.9914 245.381 83.9584ZM246.378 83.9584C246.378 94.4451 254.898 102.972 265.376 102.972C275.855 102.972 284.375 94.4451 284.375 83.9584C284.375 73.4717 275.855 64.9446 265.376 64.9446C254.898 64.9446 246.378 73.4717 246.378 83.9584Z" fill="#13604E"/>
<path d="M271.879 96.9629C279.056 96.9629 284.873 91.1406 284.873 83.9584C284.873 76.7763 279.056 70.954 271.879 70.954C264.703 70.954 258.885 76.7763 258.885 83.9584C258.885 91.1406 264.703 96.9629 271.879 96.9629Z" fill="#13604E"/>
<path d="M284.862 83.9585C295.63 83.9585 304.359 75.2224 304.359 64.4458C304.359 53.6693 295.63 44.9332 284.862 44.9332C274.094 44.9332 265.365 53.6693 265.365 64.4458C265.365 75.2224 274.094 83.9585 284.862 83.9585Z" fill="#4DD3B8"/>
<path d="M264.866 64.4459C264.866 53.4129 273.838 44.4344 284.862 44.4344C295.886 44.4344 304.857 53.4129 304.857 64.4459C304.857 75.4789 295.886 84.4573 284.862 84.4573C273.838 84.4573 264.866 75.4789 264.866 64.4459ZM265.863 64.4459C265.863 74.9326 274.383 83.4597 284.862 83.4597C295.34 83.4597 303.86 74.9326 303.86 64.4459C303.86 53.9592 295.34 45.4321 284.862 45.4321C274.383 45.4321 265.863 53.9592 265.863 64.4459Z" fill="#13604E"/>
<path d="M284.862 122.984C295.63 122.984 304.359 114.248 304.359 103.471C304.359 92.6946 295.63 83.9585 284.862 83.9585C274.094 83.9585 265.365 92.6946 265.365 103.471C265.365 114.248 274.094 122.984 284.862 122.984Z" fill="#4DD3B8"/>
<path d="M264.866 103.471C264.866 92.4381 273.838 83.4597 284.862 83.4597C295.886 83.4597 304.857 92.4381 304.857 103.471C304.857 114.504 295.886 123.483 284.862 123.483C273.838 123.483 264.866 114.504 264.866 103.471ZM265.863 103.471C265.863 113.958 274.383 122.485 284.862 122.485C295.34 122.485 303.86 113.958 303.86 103.471C303.86 92.9844 295.34 84.4573 284.862 84.4573C274.383 84.4573 265.863 92.9844 265.863 103.471Z" fill="#13604E"/>
<path d="M304.359 64.4459C304.359 64.4459 304.81 52.4153 291.376 51.4414C277.801 50.4557 274.573 60.8236 274.217 62.6525C273.79 64.8496 273.932 67.1061 275.914 70.2414C276.709 71.5003 278.608 74.2319 283.817 75.0157C283.817 75.0157 291.899 75.752 293.524 67.7356C293.524 67.7356 294.165 62.1775 288.908 61.1324C288.908 61.1324 287.33 60.883 286.665 61.5481C286.665 61.5481 285.526 62.8426 286.903 63.6858C287.816 64.244 289.81 64.0896 290.214 66.8211C290.593 69.3626 288.018 70.9184 286.689 71.3341C283.105 72.4623 280.637 71.726 278.632 69.6714C278.632 69.6714 274.965 66.6548 276.923 61.1918C279.415 54.2442 285.633 52.2134 291.341 52.6053C291.341 52.6053 303.504 52.9259 304.062 67.7356C304.062 67.7356 304.347 65.4791 304.335 64.4459H304.359Z" fill="#13604E"/>
<path d="M304.359 103.459C304.359 103.459 304.81 91.4287 291.376 90.4548C277.801 89.4691 274.573 99.837 274.217 101.666C273.79 103.863 273.932 106.12 275.914 109.255C276.709 110.514 278.608 113.245 283.817 114.029C283.817 114.029 291.899 114.765 293.524 106.749C293.524 106.749 294.165 101.191 288.908 100.146C288.908 100.146 287.33 99.8964 286.665 100.561C286.665 100.561 285.526 101.856 286.903 102.699C287.816 103.257 289.81 103.103 290.214 105.835C290.593 108.376 288.018 109.932 286.689 110.347C283.105 111.476 280.637 110.739 278.632 108.685C278.632 108.685 274.965 105.668 276.923 100.205C279.415 93.2576 285.633 91.2268 291.341 91.6187C291.341 91.6187 303.504 91.9394 304.062 106.749C304.062 106.749 304.347 104.493 304.335 103.459H304.359Z" fill="#13604E"/>
<path d="M304.359 64.4458C293.596 64.4458 284.862 73.1867 284.862 83.9584C284.862 94.7301 293.596 103.471 304.359 103.471V64.4458Z" fill="#4DD3B8"/>
<path d="M304.359 103.958C293.335 103.958 284.363 94.9796 284.363 83.9466C284.363 72.9136 293.335 63.9352 304.359 63.9352V103.958ZM304.359 64.9328C293.88 64.9328 285.36 73.4599 285.36 83.9466C285.36 94.4333 293.88 102.96 304.359 102.96V64.9328Z" fill="#13604E"/>
</g>
<path d="M12.4247 44.4344H292.576V123.566H12.4247V44.4344ZM12.4247 43.033C11.6534 43.033 11.0244 43.6624 11.0244 44.4344V123.566C11.0244 124.338 11.6534 124.967 12.4247 124.967H292.576C293.347 124.967 293.976 124.338 293.976 123.566V44.4344C293.976 43.6624 293.347 43.033 292.576 43.033H12.4247Z" fill="#0F594B"/>
</g>
<path d="M128.193 75.3789H126.689V71.0234H128.193V75.3789ZM127.451 62.3516C128.675 62.3581 129.768 62.5501 130.732 62.9277C131.696 63.2988 132.448 63.8294 132.988 64.5195C133.528 65.2096 133.798 66.0039 133.798 66.9023C133.798 67.8138 133.528 68.6113 132.988 69.2949C132.448 69.9785 131.696 70.5091 130.732 70.8867C129.768 71.2643 128.675 71.4531 127.451 71.4531C126.227 71.4531 125.136 71.2643 124.179 70.8867C123.222 70.5091 122.47 69.9785 121.923 69.2949C121.377 68.6048 121.103 67.8073 121.103 66.9023C121.103 66.0039 121.377 65.2096 121.923 64.5195C122.47 63.8294 123.222 63.2988 124.179 62.9277C125.136 62.5501 126.227 62.3581 127.451 62.3516ZM127.451 63.6211C126.52 63.6211 125.683 63.7578 124.941 64.0312C124.205 64.3047 123.629 64.6921 123.212 65.1934C122.796 65.6882 122.587 66.2578 122.587 66.9023C122.587 67.5599 122.796 68.1393 123.212 68.6406C123.629 69.1354 124.205 69.5228 124.941 69.8027C125.677 70.0762 126.513 70.2161 127.451 70.2227C128.388 70.2161 129.225 70.0762 129.961 69.8027C130.696 69.5228 131.272 69.1354 131.689 68.6406C132.106 68.1393 132.314 67.5599 132.314 66.9023C132.314 66.2578 132.106 65.6882 131.689 65.1934C131.272 64.6921 130.693 64.3047 129.951 64.0312C129.215 63.7578 128.382 63.6211 127.451 63.6211ZM135.439 76.3555H119.541V75.0664H135.439V76.3555ZM145.869 74.2266H137.841V62.9375H145.869V74.2266ZM139.345 72.9766H144.365V64.168H139.345V72.9766ZM151.142 78.6211H149.599V61.2188H151.142V78.6211ZM159.697 66.5508C159.697 67.7292 159.475 68.901 159.033 70.0664C158.59 71.2253 157.988 72.2637 157.226 73.1816C156.464 74.0996 155.641 74.7865 154.755 75.2422L153.818 74.0312C154.645 73.6276 155.413 73.0221 156.123 72.2148C156.839 71.4076 157.408 70.5026 157.832 69.5C158.261 68.4974 158.479 67.5143 158.486 66.5508V63.6797H159.697V66.5508ZM159.99 66.5508C159.983 67.4622 160.179 68.3867 160.576 69.3242C160.979 70.2617 161.526 71.1113 162.216 71.873C162.906 72.6283 163.668 73.2044 164.502 73.6016L163.623 74.8125C162.718 74.3698 161.894 73.7155 161.152 72.8496C160.416 71.9837 159.834 71.0007 159.404 69.9004C158.974 68.7936 158.759 67.6771 158.759 66.5508V63.6797H159.99V66.5508ZM163.896 64.2852H154.443V63.0156H163.896V64.2852ZM167.548 78.582H166.025V61.2188H167.548V78.582ZM170.459 69.5586H167.197V68.25H170.459V69.5586ZM184.834 78.6211H183.31V61.2188H184.834V78.6211ZM187.744 69.3828H184.482V68.0938H187.744V69.3828ZM173.525 72.9766C175.231 72.9701 176.692 72.9245 177.91 72.8398C179.127 72.7487 180.367 72.5859 181.63 72.3516L181.826 73.6797C180.537 73.9141 179.274 74.0703 178.037 74.1484C176.806 74.2266 175.302 74.2656 173.525 74.2656H172.158V72.9766H173.525ZM180.263 64.1875H173.681V73.5625H172.158V62.918H180.263V64.1875ZM122.441 102.609C122.448 100.799 122.688 99.1198 123.164 97.5703C123.639 96.0208 124.336 94.582 125.253 93.2539H126.738C126.295 93.9049 125.878 94.7448 125.488 95.7734C125.097 96.8021 124.781 97.9186 124.541 99.123C124.3 100.327 124.179 101.49 124.179 102.609C124.179 103.729 124.3 104.888 124.541 106.086C124.781 107.284 125.097 108.4 125.488 109.436C125.878 110.477 126.295 111.327 126.738 111.984H125.253C124.336 110.65 123.639 109.208 123.164 107.658C122.688 106.109 122.448 104.426 122.441 102.609ZM136.836 106.379H135.332V102.023H136.836V106.379ZM136.093 93.3516C137.317 93.3581 138.411 93.5501 139.375 93.9277C140.338 94.2988 141.09 94.8294 141.63 95.5195C142.171 96.2096 142.441 97.0039 142.441 97.9023C142.441 98.8138 142.171 99.6113 141.63 100.295C141.09 100.979 140.338 101.509 139.375 101.887C138.411 102.264 137.317 102.453 136.093 102.453C134.869 102.453 133.779 102.264 132.822 101.887C131.865 101.509 131.113 100.979 130.566 100.295C130.019 99.6048 129.746 98.8073 129.746 97.9023C129.746 97.0039 130.019 96.2096 130.566 95.5195C131.113 94.8294 131.865 94.2988 132.822 93.9277C133.779 93.5501 134.869 93.3581 136.093 93.3516ZM136.093 94.6211C135.162 94.6211 134.326 94.7578 133.584 95.0312C132.848 95.3047 132.272 95.6921 131.855 96.1934C131.438 96.6882 131.23 97.2578 131.23 97.9023C131.23 98.5599 131.438 99.1393 131.855 99.6406C132.272 100.135 132.848 100.523 133.584 100.803C134.319 101.076 135.156 101.216 136.093 101.223C137.031 101.216 137.867 101.076 138.603 100.803C139.339 100.523 139.915 100.135 140.332 99.6406C140.748 99.1393 140.957 98.5599 140.957 97.9023C140.957 97.2578 140.748 96.6882 140.332 96.1934C139.915 95.6921 139.336 95.3047 138.593 95.0312C137.858 94.7578 137.024 94.6211 136.093 94.6211ZM144.082 107.355H128.183V106.066H144.082V107.355ZM154.511 105.227H146.484V93.9375H154.511V105.227ZM147.988 103.977H153.007V95.168H147.988V103.977ZM159.785 109.621H158.242V92.2188H159.785V109.621ZM168.339 97.5508C168.339 98.7292 168.118 99.901 167.675 101.066C167.233 102.225 166.63 103.264 165.869 104.182C165.107 105.1 164.283 105.786 163.398 106.242L162.461 105.031C163.287 104.628 164.056 104.022 164.765 103.215C165.481 102.408 166.051 101.503 166.474 100.5C166.904 99.4974 167.122 98.5143 167.128 97.5508V94.6797H168.339V97.5508ZM168.632 97.5508C168.626 98.4622 168.821 99.3867 169.218 100.324C169.622 101.262 170.169 102.111 170.859 102.873C171.549 103.628 172.311 104.204 173.144 104.602L172.265 105.812C171.36 105.37 170.537 104.715 169.795 103.85C169.059 102.984 168.476 102.001 168.046 100.9C167.617 99.7936 167.402 98.6771 167.402 97.5508V94.6797H168.632V97.5508ZM172.539 95.2852H163.086V94.0156H172.539V95.2852ZM176.191 109.582H174.668V92.2188H176.191V109.582ZM179.101 100.559H175.839V99.25H179.101V100.559ZM183.652 97.5703C184.127 99.1198 184.368 100.799 184.375 102.609C184.368 104.426 184.127 106.109 183.652 107.658C183.177 109.208 182.48 110.65 181.562 111.984H180.078C180.52 111.327 180.937 110.477 181.328 109.436C181.718 108.4 182.034 107.284 182.275 106.086C182.516 104.888 182.636 103.729 182.636 102.609C182.636 101.49 182.516 100.327 182.275 99.123C182.034 97.9186 181.718 96.8021 181.328 95.7734C180.937 94.7448 180.52 93.9049 180.078 93.2539H181.562C182.48 94.582 183.177 96.0208 183.652 97.5703Z" fill="white"/>
<path d="M16.9613 11.4448H13.7431V10.1602H16.9613V11.4448ZM14.1436 20.5746H12.6105V3.22652H14.1436V20.5746ZM2.94199 15.6713H1.42265V4.93923H2.94199V15.6713ZM2.80387 14.884C4.18508 14.884 5.53867 14.8241 6.86464 14.7044C8.19521 14.5801 9.55341 14.3729 10.9392 14.0829L11.1326 15.395C9.71455 15.6759 8.32643 15.8762 6.96823 15.9959C5.61464 16.111 4.22652 16.1685 2.80387 16.1685H1.42265V14.884H2.80387ZM19.8266 19.1105C19.601 19.1105 19.3892 19.0529 19.1912 18.9378C18.9979 18.8227 18.8436 18.6708 18.7285 18.482C18.618 18.2887 18.5651 18.0792 18.5697 17.8536C18.5651 17.628 18.618 17.4185 18.7285 17.2251C18.8436 17.0272 18.9979 16.8729 19.1912 16.7624C19.3892 16.6519 19.601 16.5967 19.8266 16.5967C20.0522 16.5967 20.2617 16.6519 20.455 16.7624C20.653 16.8729 20.8073 17.0272 20.9178 17.2251C21.0283 17.4185 21.0835 17.628 21.0835 17.8536C21.0835 18.0792 21.0283 18.2887 20.9178 18.482C20.8073 18.6708 20.653 18.8227 20.455 18.9378C20.2617 19.0529 20.0522 19.1105 19.8266 19.1105Z" fill="white"/>
<defs>
<clipPath id="clip0_491_1476">
<rect width="305" height="104" fill="white" transform="translate(0 32)"/>
</clipPath>
</defs>
</svg>
