<svg width="305" height="136" viewBox="0 0 305 136" fill="none" xmlns="http://www.w3.org/2000/svg">
<g clip-path="url(#clip0_491_1427)">
<path d="M1.41202 134.599L303.6 134.599V33.4014L1.41202 33.4014V134.599Z" fill="#4AE6CA"/>
<path d="M2.63443 33.4014H302.366C303.042 33.4014 303.6 33.9477 303.6 34.6365V133.363C303.6 134.04 303.054 134.599 302.366 134.599H2.63443C1.95802 134.599 1.40028 134.052 1.40028 133.363V34.6365C1.40028 33.9596 1.94615 33.4014 2.63443 33.4014ZM2.63443 32C1.17481 32 0 33.1757 0 34.6365V133.363C0 134.812 1.17481 136 2.63443 136H302.366C303.813 136 305 134.824 305 133.363V34.6365C305 33.1757 303.813 32 302.366 32H2.63443Z" fill="#0F594B"/>
<path d="M12.4247 123.566L292.576 123.566V44.4343L12.4247 44.4343V123.566Z" fill="#0F594B"/>
<mask id="mask0_491_1427" style="mask-type:luminance" maskUnits="userSpaceOnUse" x="12" y="44" width="281" height="80">
<path d="M12.4242 123.566L292.575 123.566V44.4345L12.4242 44.4345V123.566Z" fill="white"/>
</mask>
<g mask="url(#mask0_491_1427)">
<path d="M39.5752 103.471C50.3432 103.471 59.0724 94.7349 59.0724 83.9584C59.0724 73.1819 50.3432 64.4458 39.5752 64.4458C28.8073 64.4458 20.0781 73.1819 20.0781 83.9584C20.0781 94.7349 28.8073 103.471 39.5752 103.471Z" fill="#4DD3B8"/>
<path d="M39.5873 103.958C28.5631 103.958 19.5918 94.9796 19.5918 83.9466C19.5918 72.9136 28.5631 63.9352 39.5873 63.9352C50.6116 63.9352 59.5828 72.9136 59.5828 83.9466C59.5828 94.9796 50.6116 103.958 39.5873 103.958ZM39.5873 64.9328C29.109 64.9328 20.5886 73.4599 20.5886 83.9466C20.5886 94.4333 29.109 102.96 39.5873 102.96C50.0657 102.96 58.586 94.4333 58.586 83.9466C58.586 73.4599 50.0657 64.9328 39.5873 64.9328Z" fill="#13604E"/>
<path d="M33.0723 96.9629C40.2487 96.9629 46.0664 91.1406 46.0664 83.9584C46.0664 76.7763 40.2487 70.954 33.0723 70.954C25.8958 70.954 20.0781 76.7763 20.0781 83.9584C20.0781 91.1406 25.8958 96.9629 33.0723 96.9629Z" fill="#13604E"/>
<path d="M20.0904 83.9585C30.8583 83.9585 39.5875 75.2224 39.5875 64.4458C39.5875 53.6693 30.8583 44.9332 20.0904 44.9332C9.32242 44.9332 0.593262 53.6693 0.593262 64.4458C0.593262 75.2224 9.32242 83.9585 20.0904 83.9585Z" fill="#4DD3B8"/>
<path d="M20.0903 84.4454C9.06601 84.4454 0.0947266 75.4789 0.0947266 64.4459C0.0947266 53.4129 9.06601 44.4344 20.0903 44.4344C31.1145 44.4344 40.0858 53.4129 40.0858 64.4459C40.0858 75.4789 31.1145 84.4573 20.0903 84.4573V84.4454ZM20.0903 45.4202C9.61189 45.4321 1.09154 53.9592 1.09154 64.4459C1.09154 74.9326 9.61189 83.4597 20.0903 83.4597C30.5686 83.4597 39.089 74.9326 39.089 64.4459C39.089 53.9592 30.5686 45.4321 20.0903 45.4321V45.4202Z" fill="#13604E"/>
<path d="M20.0904 122.984C30.8583 122.984 39.5875 114.248 39.5875 103.471C39.5875 92.6946 30.8583 83.9585 20.0904 83.9585C9.32242 83.9585 0.593262 92.6946 0.593262 103.471C0.593262 114.248 9.32242 122.984 20.0904 122.984Z" fill="#4DD3B8"/>
<path d="M20.0903 123.471C9.06601 123.471 0.0947266 114.504 0.0947266 103.471C0.0947266 92.4381 9.06601 83.4597 20.0903 83.4597C31.1145 83.4597 40.0858 92.4381 40.0858 103.471C40.0858 114.504 31.1145 123.483 20.0903 123.483V123.471ZM20.0903 84.4454C9.61189 84.4454 1.09154 92.9844 1.09154 103.471C1.09154 113.958 9.61189 122.485 20.0903 122.485C30.5686 122.485 39.089 113.958 39.089 103.471C39.089 92.9844 30.5686 84.4573 20.0903 84.4573V84.4454Z" fill="#13604E"/>
<path d="M0.593229 64.4459C0.593229 64.4459 0.130424 52.4153 13.5755 51.4414C27.1511 50.4557 30.3788 60.8236 30.7349 62.6525C31.1621 64.8496 31.0197 67.1061 29.0379 70.2414C28.2428 71.5003 26.3441 74.2319 21.1346 75.0157C21.1346 75.0157 13.0534 75.752 11.4276 67.7356C11.4276 67.7356 10.7868 62.1775 16.0438 61.1324C16.0438 61.1324 17.6221 60.883 18.2866 61.5481C18.2866 61.5481 19.4258 62.8426 18.0493 63.6858C17.1355 64.244 15.1419 64.0896 14.7384 66.8211C14.3587 69.3626 16.9338 70.9184 18.2629 71.3341C21.8466 72.4623 24.3149 71.726 26.3204 69.6714C26.3204 69.6714 29.9872 66.6548 28.0292 61.1918C25.5372 54.2442 19.319 52.2134 13.6111 52.6053C13.6111 52.6053 1.44764 52.9259 0.889898 67.7356C0.889898 67.7356 0.605095 65.4791 0.616962 64.4459H0.593229Z" fill="#13604E"/>
<path d="M0.593093 103.459C0.593093 103.459 0.142155 91.4287 13.5754 90.4548C27.1509 89.4691 30.3787 99.837 30.7347 101.666C31.1619 103.863 31.0195 106.12 29.0378 109.255C28.2427 110.514 26.344 113.245 21.1345 114.029C21.1345 114.029 13.0532 114.765 11.4275 106.749C11.4275 106.749 10.7867 101.191 16.0436 100.146C16.0436 100.146 17.6219 99.8964 18.2865 100.561C18.2865 100.561 19.4257 101.856 18.0491 102.699C17.1354 103.257 15.1418 103.103 14.7383 105.835C14.3586 108.376 16.9337 109.932 18.2627 110.347C21.8465 111.476 24.3148 110.739 26.3203 108.685C26.3203 108.685 29.9871 105.668 28.0291 100.205C25.5371 93.2576 19.3189 91.2268 13.611 91.6187C13.611 91.6187 1.4475 91.9394 0.889763 106.749C0.889763 106.749 0.60496 104.493 0.616827 103.459H0.593093Z" fill="#13604E"/>
<path d="M0.593262 64.4458C11.3564 64.4458 20.0904 73.1867 20.0904 83.9584C20.0904 94.7301 11.3564 103.471 0.593262 103.471V64.4458Z" fill="#4DD3B8"/>
<path d="M0.593262 63.947C11.6175 63.947 20.5888 72.9254 20.5888 83.9584C20.5888 94.9914 11.6175 103.958 0.593262 103.958V63.947ZM0.593262 102.972C11.0716 102.972 19.592 94.4451 19.592 83.9584C19.592 73.4717 11.0598 64.9327 0.593262 64.9327V102.972Z" fill="#13604E"/>
<path d="M265.364 103.471C276.132 103.471 284.861 94.7349 284.861 83.9584C284.861 73.1819 276.132 64.4458 265.364 64.4458C254.596 64.4458 245.867 73.1819 245.867 83.9584C245.867 94.7349 254.596 103.471 265.364 103.471Z" fill="#4DD3B8"/>
<path d="M245.381 83.9584C245.381 72.9254 254.352 63.947 265.376 63.947C276.401 63.947 285.372 72.9254 285.372 83.9584C285.372 94.9914 276.401 103.97 265.376 103.97C254.352 103.97 245.381 94.9914 245.381 83.9584ZM246.378 83.9584C246.378 94.4451 254.898 102.972 265.376 102.972C275.855 102.972 284.375 94.4451 284.375 83.9584C284.375 73.4717 275.855 64.9446 265.376 64.9446C254.898 64.9446 246.378 73.4717 246.378 83.9584Z" fill="#13604E"/>
<path d="M271.879 96.9629C279.056 96.9629 284.873 91.1406 284.873 83.9584C284.873 76.7763 279.056 70.954 271.879 70.954C264.703 70.954 258.885 76.7763 258.885 83.9584C258.885 91.1406 264.703 96.9629 271.879 96.9629Z" fill="#13604E"/>
<path d="M284.862 83.9585C295.63 83.9585 304.359 75.2224 304.359 64.4458C304.359 53.6693 295.63 44.9332 284.862 44.9332C274.094 44.9332 265.365 53.6693 265.365 64.4458C265.365 75.2224 274.094 83.9585 284.862 83.9585Z" fill="#4DD3B8"/>
<path d="M264.866 64.4459C264.866 53.4129 273.838 44.4344 284.862 44.4344C295.886 44.4344 304.857 53.4129 304.857 64.4459C304.857 75.4789 295.886 84.4573 284.862 84.4573C273.838 84.4573 264.866 75.4789 264.866 64.4459ZM265.863 64.4459C265.863 74.9326 274.383 83.4597 284.862 83.4597C295.34 83.4597 303.86 74.9326 303.86 64.4459C303.86 53.9592 295.34 45.4321 284.862 45.4321C274.383 45.4321 265.863 53.9592 265.863 64.4459Z" fill="#13604E"/>
<path d="M284.862 122.984C295.63 122.984 304.359 114.248 304.359 103.471C304.359 92.6946 295.63 83.9585 284.862 83.9585C274.094 83.9585 265.365 92.6946 265.365 103.471C265.365 114.248 274.094 122.984 284.862 122.984Z" fill="#4DD3B8"/>
<path d="M264.866 103.471C264.866 92.4381 273.838 83.4597 284.862 83.4597C295.886 83.4597 304.857 92.4381 304.857 103.471C304.857 114.504 295.886 123.483 284.862 123.483C273.838 123.483 264.866 114.504 264.866 103.471ZM265.863 103.471C265.863 113.958 274.383 122.485 284.862 122.485C295.34 122.485 303.86 113.958 303.86 103.471C303.86 92.9844 295.34 84.4573 284.862 84.4573C274.383 84.4573 265.863 92.9844 265.863 103.471Z" fill="#13604E"/>
<path d="M304.359 64.4459C304.359 64.4459 304.81 52.4153 291.376 51.4414C277.801 50.4557 274.573 60.8236 274.217 62.6525C273.79 64.8496 273.932 67.1061 275.914 70.2414C276.709 71.5003 278.608 74.2319 283.817 75.0157C283.817 75.0157 291.899 75.752 293.524 67.7356C293.524 67.7356 294.165 62.1775 288.908 61.1324C288.908 61.1324 287.33 60.883 286.665 61.5481C286.665 61.5481 285.526 62.8426 286.903 63.6858C287.816 64.244 289.81 64.0896 290.214 66.8211C290.593 69.3626 288.018 70.9184 286.689 71.3341C283.105 72.4623 280.637 71.726 278.632 69.6714C278.632 69.6714 274.965 66.6548 276.923 61.1918C279.415 54.2442 285.633 52.2134 291.341 52.6053C291.341 52.6053 303.504 52.9259 304.062 67.7356C304.062 67.7356 304.347 65.4791 304.335 64.4459H304.359Z" fill="#13604E"/>
<path d="M304.359 103.459C304.359 103.459 304.81 91.4287 291.376 90.4548C277.801 89.4691 274.573 99.837 274.217 101.666C273.79 103.863 273.932 106.12 275.914 109.255C276.709 110.514 278.608 113.245 283.817 114.029C283.817 114.029 291.899 114.765 293.524 106.749C293.524 106.749 294.165 101.191 288.908 100.146C288.908 100.146 287.33 99.8964 286.665 100.561C286.665 100.561 285.526 101.856 286.903 102.699C287.816 103.257 289.81 103.103 290.214 105.835C290.593 108.376 288.018 109.932 286.689 110.347C283.105 111.476 280.637 110.739 278.632 108.685C278.632 108.685 274.965 105.668 276.923 100.205C279.415 93.2576 285.633 91.2268 291.341 91.6187C291.341 91.6187 303.504 91.9394 304.062 106.749C304.062 106.749 304.347 104.493 304.335 103.459H304.359Z" fill="#13604E"/>
<path d="M304.359 64.4458C293.596 64.4458 284.862 73.1867 284.862 83.9584C284.862 94.7301 293.596 103.471 304.359 103.471V64.4458Z" fill="#4DD3B8"/>
<path d="M304.359 103.958C293.335 103.958 284.363 94.9796 284.363 83.9466C284.363 72.9136 293.335 63.9352 304.359 63.9352V103.958ZM304.359 64.9328C293.88 64.9328 285.36 73.4599 285.36 83.9466C285.36 94.4333 293.88 102.96 304.359 102.96V64.9328Z" fill="#13604E"/>
</g>
<path d="M12.4247 44.4344H292.576V123.566H12.4247V44.4344ZM12.4247 43.033C11.6534 43.033 11.0244 43.6624 11.0244 44.4344V123.566C11.0244 124.338 11.6534 124.967 12.4247 124.967H292.576C293.347 124.967 293.976 124.338 293.976 123.566V44.4344C293.976 43.6624 293.347 43.033 292.576 43.033H12.4247Z" fill="#0F594B"/>
</g>
<path d="M140.757 71.082H139.234V61.2188H140.757V71.082ZM143.375 66.7461H140.328V65.4766H143.375V66.7461ZM136.011 62.3516C136.005 63.7969 135.676 65.1055 135.025 66.2773C134.38 67.4492 133.443 68.4551 132.212 69.2949C130.982 70.1348 129.507 70.7891 127.789 71.2578L127.164 70.0273C128.681 69.6172 129.976 69.0703 131.05 68.3867C132.131 67.6966 132.958 66.8958 133.531 65.9844C134.104 65.0729 134.39 64.0833 134.39 63.0156V62.3516H136.011ZM135.23 63.6211H127.945V62.3516H135.23V63.6211ZM140.757 78.3477H129.761V71.8828H140.757V78.3477ZM131.285 77.0977H139.234V73.1523H131.285V77.0977ZM157.769 63.3281H146.48V62.0781H157.769V63.3281ZM160.367 69.5195H144.468V68.2695H160.367V69.5195ZM153.14 73.25H151.617V69.1094H153.14V73.25ZM158.277 63.3281C158.277 64.3242 158.244 65.2389 158.179 66.0723C158.114 66.8991 157.958 67.8464 157.711 68.9141L156.207 68.7188C156.376 68.0091 156.5 67.3483 156.578 66.7363C156.656 66.1178 156.705 65.571 156.724 65.0957C156.744 64.6204 156.753 64.0703 156.753 63.4453V63.3281V62.0781H158.277V63.3281ZM158.394 78.582H156.851V73.9922H146.109V72.7227H158.394V78.582ZM175.191 78.6211H173.668V61.2188H175.191V78.6211ZM178.101 69.3828H174.839V68.0938H178.101V69.3828ZM163.882 72.9766C165.588 72.9701 167.05 72.9245 168.267 72.8398C169.485 72.7487 170.725 72.5859 171.988 72.3516L172.183 73.6797C170.894 73.9141 169.631 74.0703 168.394 74.1484C167.164 74.2266 165.66 74.2656 163.882 74.2656H162.515V72.9766H163.882ZM170.621 64.1875H164.039V73.5625H162.515V62.918H170.621V64.1875ZM99.0875 102.609C99.094 100.799 99.3349 99.1198 99.8101 97.5703C100.285 96.0208 100.982 94.582 101.9 93.2539H103.384C102.942 93.9049 102.525 94.7448 102.134 95.7734C101.744 96.8021 101.428 97.9186 101.187 99.123C100.946 100.327 100.826 101.49 100.826 102.609C100.826 103.729 100.946 104.888 101.187 106.086C101.428 107.284 101.744 108.4 102.134 109.436C102.525 110.477 102.942 111.327 103.384 111.984H101.9C100.982 110.65 100.285 109.208 99.8101 107.658C99.3349 106.109 99.094 104.426 99.0875 102.609ZM118.13 94.3281H106.841V93.0781H118.13V94.3281ZM120.728 100.52H104.83V99.2695H120.728V100.52ZM113.502 104.25H111.978V100.109H113.502V104.25ZM118.638 94.3281C118.638 95.3242 118.606 96.2389 118.541 97.0723C118.475 97.8991 118.319 98.8464 118.072 99.9141L116.568 99.7188C116.737 99.0091 116.861 98.3483 116.939 97.7363C117.017 97.1178 117.066 96.571 117.086 96.0957C117.105 95.6204 117.115 95.0703 117.115 94.4453V94.3281V93.0781H118.638V94.3281ZM118.755 109.582H117.212V104.992H106.47V103.723H118.755V109.582ZM128.228 105.402H126.685V102.57H128.228V105.402ZM135.591 109.582H134.048V92.2188H135.591V109.582ZM138.365 100.91H135.123V99.6211H138.365V100.91ZM121.9 104.953C124.211 104.947 126.239 104.914 127.984 104.855C129.729 104.79 131.399 104.641 132.994 104.406L133.091 105.578C131.92 105.78 130.702 105.93 129.439 106.027C128.176 106.118 126.975 106.18 125.836 106.213C124.696 106.245 123.469 106.262 122.154 106.262L121.9 104.953ZM132.681 95.5977H122.212V94.3477H132.681V95.5977ZM127.466 96.6133C128.267 96.6133 128.977 96.7435 129.595 97.0039C130.22 97.2643 130.709 97.6419 131.06 98.1367C131.412 98.625 131.587 99.1914 131.587 99.8359C131.587 100.474 131.412 101.034 131.06 101.516C130.709 101.997 130.22 102.368 129.595 102.629C128.977 102.889 128.267 103.02 127.466 103.02C126.653 103.02 125.933 102.889 125.308 102.629C124.69 102.368 124.208 101.997 123.863 101.516C123.524 101.034 123.358 100.474 123.365 99.8359C123.358 99.1914 123.524 98.625 123.863 98.1367C124.208 97.6419 124.69 97.2643 125.308 97.0039C125.933 96.7435 126.653 96.6133 127.466 96.6133ZM127.466 97.8047C126.939 97.8047 126.474 97.8893 126.07 98.0586C125.673 98.2279 125.36 98.4655 125.132 98.7715C124.905 99.0775 124.791 99.4323 124.791 99.8359C124.791 100.233 124.905 100.581 125.132 100.881C125.36 101.174 125.673 101.405 126.07 101.574C126.467 101.737 126.933 101.815 127.466 101.809C127.987 101.815 128.449 101.737 128.853 101.574C129.257 101.405 129.569 101.174 129.791 100.881C130.012 100.581 130.123 100.233 130.123 99.8359C130.123 99.4388 130.012 99.0872 129.791 98.7812C129.569 98.4688 129.257 98.2279 128.853 98.0586C128.449 97.8893 127.987 97.8047 127.466 97.8047ZM128.228 95.1484H126.685V92.2578H128.228V95.1484ZM140.728 112.004H139.283L140.357 106.691H142.252L140.728 112.004ZM162.486 94.6211H151.529V93.3516H162.486V94.6211ZM165.357 102.082H149.537V100.812H165.357V102.082ZM158.189 109.621H156.646V101.652H158.189V109.621ZM163.267 94.9727C163.267 95.7604 163.257 96.457 163.238 97.0625C163.218 97.6615 163.156 98.3483 163.052 99.123C162.955 99.8913 162.805 100.721 162.603 101.613L161.08 101.418C161.281 100.559 161.428 99.7513 161.519 98.9961C161.617 98.2409 161.679 97.5671 161.705 96.9746C161.731 96.3822 161.744 95.7083 161.744 94.9531V94.875V93.3516H163.267V94.875V94.9727ZM181.177 109.582H179.634V92.2188H181.177V109.582ZM176.041 94.1133C176.034 95.832 175.748 97.4401 175.181 98.9375C174.621 100.435 173.736 101.815 172.525 103.078C171.314 104.335 169.765 105.415 167.877 106.32L167.037 105.07C168.71 104.276 170.1 103.339 171.207 102.258C172.32 101.177 173.147 99.9792 173.687 98.6641C174.234 97.3424 174.511 95.9036 174.517 94.3477V94.1133H176.041ZM175.142 95.3633H167.837V94.1133H175.142V95.3633ZM189.693 97.5508C189.693 98.7292 189.472 99.901 189.029 101.066C188.586 102.225 187.984 103.264 187.222 104.182C186.461 105.1 185.637 105.786 184.752 106.242L183.814 105.031C184.641 104.628 185.409 104.022 186.119 103.215C186.835 102.408 187.405 101.503 187.828 100.5C188.257 99.4974 188.475 98.5143 188.482 97.5508V94.6797H189.693V97.5508ZM189.986 97.5508C189.979 98.4622 190.175 99.3867 190.572 100.324C190.975 101.262 191.522 102.111 192.212 102.873C192.903 103.628 193.664 104.204 194.498 104.602L193.619 105.812C192.714 105.37 191.89 104.715 191.148 103.85C190.412 102.984 189.83 102.001 189.4 100.9C188.97 99.7936 188.755 98.6771 188.755 97.5508V94.6797H189.986V97.5508ZM193.892 95.2852H184.439V94.0156H193.892V95.2852ZM197.545 109.582H196.021V92.2188H197.545V109.582ZM200.455 100.559H197.193V99.25H200.455V100.559ZM205.005 97.5703C205.481 99.1198 205.722 100.799 205.728 102.609C205.722 104.426 205.481 106.109 205.005 107.658C204.53 109.208 203.834 110.65 202.916 111.984H201.431C201.874 111.327 202.291 110.477 202.681 109.436C203.072 108.4 203.388 107.284 203.628 106.086C203.869 104.888 203.99 103.729 203.99 102.609C203.99 101.49 203.869 100.327 203.628 99.123C203.388 97.9186 203.072 96.8021 202.681 95.7734C202.291 94.7448 201.874 93.9049 201.431 93.2539H202.916C203.834 94.582 204.53 96.0208 205.005 97.5703Z" fill="white"/>
<path d="M14.1436 20.616H12.6105V3.22652H14.1436V20.616ZM17.0442 11.3757H13.7983V10.0912H17.0442V11.3757ZM2.83149 14.9669C4.53039 14.9669 5.98987 14.9231 7.20995 14.8356C8.43462 14.7482 9.67772 14.5893 10.9392 14.3591L11.1326 15.6851C9.84346 15.9153 8.58195 16.0695 7.34807 16.1478C6.11418 16.2261 4.60866 16.2652 2.83149 16.2652H1.46409V14.9669H2.83149ZM9.57182 6.18232H2.99724V15.5608H1.46409V4.92541H9.57182V6.18232ZM19.8266 19.1105C19.601 19.1105 19.3892 19.0529 19.1912 18.9378C18.9979 18.8227 18.8436 18.6708 18.7285 18.482C18.618 18.2887 18.5651 18.0792 18.5697 17.8536C18.5651 17.628 18.618 17.4185 18.7285 17.2251C18.8436 17.0272 18.9979 16.8729 19.1912 16.7624C19.3892 16.6519 19.601 16.5967 19.8266 16.5967C20.0522 16.5967 20.2617 16.6519 20.455 16.7624C20.653 16.8729 20.8073 17.0272 20.9178 17.2251C21.0283 17.4185 21.0835 17.628 21.0835 17.8536C21.0835 18.0792 21.0283 18.2887 20.9178 18.482C20.8073 18.6708 20.653 18.8227 20.455 18.9378C20.2617 19.0529 20.0522 19.1105 19.8266 19.1105Z" fill="white"/>
<defs>
<clipPath id="clip0_491_1427">
<rect width="305" height="104" fill="white" transform="translate(0 32)"/>
</clipPath>
</defs>
</svg>
