<svg width="305" height="136" viewBox="0 0 305 136" fill="none" xmlns="http://www.w3.org/2000/svg">
<g clip-path="url(#clip0_491_1378)">
<path d="M1.41202 134.599L303.6 134.599V33.4014L1.41202 33.4014V134.599Z" fill="#4AE6CA"/>
<path d="M2.63443 33.4014H302.366C303.042 33.4014 303.6 33.9477 303.6 34.6365V133.363C303.6 134.04 303.054 134.599 302.366 134.599H2.63443C1.95802 134.599 1.40028 134.052 1.40028 133.363V34.6365C1.40028 33.9596 1.94615 33.4014 2.63443 33.4014ZM2.63443 32C1.17481 32 0 33.1757 0 34.6365V133.363C0 134.812 1.17481 136 2.63443 136H302.366C303.813 136 305 134.824 305 133.363V34.6365C305 33.1757 303.813 32 302.366 32H2.63443Z" fill="#0F594B"/>
<path d="M12.4247 123.566L292.576 123.566V44.4343L12.4247 44.4343V123.566Z" fill="#0F594B"/>
<mask id="mask0_491_1378" style="mask-type:luminance" maskUnits="userSpaceOnUse" x="12" y="44" width="281" height="80">
<path d="M12.4242 123.566L292.575 123.566V44.4345L12.4242 44.4345V123.566Z" fill="white"/>
</mask>
<g mask="url(#mask0_491_1378)">
<path d="M39.5752 103.471C50.3432 103.471 59.0724 94.7349 59.0724 83.9584C59.0724 73.1819 50.3432 64.4458 39.5752 64.4458C28.8073 64.4458 20.0781 73.1819 20.0781 83.9584C20.0781 94.7349 28.8073 103.471 39.5752 103.471Z" fill="#4DD3B8"/>
<path d="M39.5873 103.958C28.5631 103.958 19.5918 94.9796 19.5918 83.9466C19.5918 72.9136 28.5631 63.9352 39.5873 63.9352C50.6116 63.9352 59.5828 72.9136 59.5828 83.9466C59.5828 94.9796 50.6116 103.958 39.5873 103.958ZM39.5873 64.9328C29.109 64.9328 20.5886 73.4599 20.5886 83.9466C20.5886 94.4333 29.109 102.96 39.5873 102.96C50.0657 102.96 58.586 94.4333 58.586 83.9466C58.586 73.4599 50.0657 64.9328 39.5873 64.9328Z" fill="#13604E"/>
<path d="M33.0723 96.9629C40.2487 96.9629 46.0664 91.1406 46.0664 83.9584C46.0664 76.7763 40.2487 70.954 33.0723 70.954C25.8958 70.954 20.0781 76.7763 20.0781 83.9584C20.0781 91.1406 25.8958 96.9629 33.0723 96.9629Z" fill="#13604E"/>
<path d="M20.0904 83.9585C30.8583 83.9585 39.5875 75.2224 39.5875 64.4458C39.5875 53.6693 30.8583 44.9332 20.0904 44.9332C9.32242 44.9332 0.593262 53.6693 0.593262 64.4458C0.593262 75.2224 9.32242 83.9585 20.0904 83.9585Z" fill="#4DD3B8"/>
<path d="M20.0903 84.4454C9.06601 84.4454 0.0947266 75.4789 0.0947266 64.4459C0.0947266 53.4129 9.06601 44.4344 20.0903 44.4344C31.1145 44.4344 40.0858 53.4129 40.0858 64.4459C40.0858 75.4789 31.1145 84.4573 20.0903 84.4573V84.4454ZM20.0903 45.4202C9.61189 45.4321 1.09154 53.9592 1.09154 64.4459C1.09154 74.9326 9.61189 83.4597 20.0903 83.4597C30.5686 83.4597 39.089 74.9326 39.089 64.4459C39.089 53.9592 30.5686 45.4321 20.0903 45.4321V45.4202Z" fill="#13604E"/>
<path d="M20.0904 122.984C30.8583 122.984 39.5875 114.248 39.5875 103.471C39.5875 92.6946 30.8583 83.9585 20.0904 83.9585C9.32242 83.9585 0.593262 92.6946 0.593262 103.471C0.593262 114.248 9.32242 122.984 20.0904 122.984Z" fill="#4DD3B8"/>
<path d="M20.0903 123.471C9.06601 123.471 0.0947266 114.504 0.0947266 103.471C0.0947266 92.4381 9.06601 83.4597 20.0903 83.4597C31.1145 83.4597 40.0858 92.4381 40.0858 103.471C40.0858 114.504 31.1145 123.483 20.0903 123.483V123.471ZM20.0903 84.4454C9.61189 84.4454 1.09154 92.9844 1.09154 103.471C1.09154 113.958 9.61189 122.485 20.0903 122.485C30.5686 122.485 39.089 113.958 39.089 103.471C39.089 92.9844 30.5686 84.4573 20.0903 84.4573V84.4454Z" fill="#13604E"/>
<path d="M0.593229 64.4459C0.593229 64.4459 0.130424 52.4153 13.5755 51.4414C27.1511 50.4557 30.3788 60.8236 30.7349 62.6525C31.1621 64.8496 31.0197 67.1061 29.0379 70.2414C28.2428 71.5003 26.3441 74.2319 21.1346 75.0157C21.1346 75.0157 13.0534 75.752 11.4276 67.7356C11.4276 67.7356 10.7868 62.1775 16.0438 61.1324C16.0438 61.1324 17.6221 60.883 18.2866 61.5481C18.2866 61.5481 19.4258 62.8426 18.0493 63.6858C17.1355 64.244 15.1419 64.0896 14.7384 66.8211C14.3587 69.3626 16.9338 70.9184 18.2629 71.3341C21.8466 72.4623 24.3149 71.726 26.3204 69.6714C26.3204 69.6714 29.9872 66.6548 28.0292 61.1918C25.5372 54.2442 19.319 52.2134 13.6111 52.6053C13.6111 52.6053 1.44764 52.9259 0.889898 67.7356C0.889898 67.7356 0.605095 65.4791 0.616962 64.4459H0.593229Z" fill="#13604E"/>
<path d="M0.593093 103.459C0.593093 103.459 0.142155 91.4287 13.5754 90.4548C27.1509 89.4691 30.3787 99.837 30.7347 101.666C31.1619 103.863 31.0195 106.12 29.0378 109.255C28.2427 110.514 26.344 113.245 21.1345 114.029C21.1345 114.029 13.0532 114.765 11.4275 106.749C11.4275 106.749 10.7867 101.191 16.0436 100.146C16.0436 100.146 17.6219 99.8964 18.2865 100.561C18.2865 100.561 19.4257 101.856 18.0491 102.699C17.1354 103.257 15.1418 103.103 14.7383 105.835C14.3586 108.376 16.9337 109.932 18.2627 110.347C21.8465 111.476 24.3148 110.739 26.3203 108.685C26.3203 108.685 29.9871 105.668 28.0291 100.205C25.5371 93.2576 19.3189 91.2268 13.611 91.6187C13.611 91.6187 1.4475 91.9394 0.889763 106.749C0.889763 106.749 0.60496 104.493 0.616827 103.459H0.593093Z" fill="#13604E"/>
<path d="M0.593262 64.4458C11.3564 64.4458 20.0904 73.1867 20.0904 83.9584C20.0904 94.7301 11.3564 103.471 0.593262 103.471V64.4458Z" fill="#4DD3B8"/>
<path d="M0.593262 63.947C11.6175 63.947 20.5888 72.9254 20.5888 83.9584C20.5888 94.9914 11.6175 103.958 0.593262 103.958V63.947ZM0.593262 102.972C11.0716 102.972 19.592 94.4451 19.592 83.9584C19.592 73.4717 11.0598 64.9327 0.593262 64.9327V102.972Z" fill="#13604E"/>
<path d="M265.364 103.471C276.132 103.471 284.861 94.7349 284.861 83.9584C284.861 73.1819 276.132 64.4458 265.364 64.4458C254.596 64.4458 245.867 73.1819 245.867 83.9584C245.867 94.7349 254.596 103.471 265.364 103.471Z" fill="#4DD3B8"/>
<path d="M245.381 83.9584C245.381 72.9254 254.352 63.947 265.376 63.947C276.401 63.947 285.372 72.9254 285.372 83.9584C285.372 94.9914 276.401 103.97 265.376 103.97C254.352 103.97 245.381 94.9914 245.381 83.9584ZM246.378 83.9584C246.378 94.4451 254.898 102.972 265.376 102.972C275.855 102.972 284.375 94.4451 284.375 83.9584C284.375 73.4717 275.855 64.9446 265.376 64.9446C254.898 64.9446 246.378 73.4717 246.378 83.9584Z" fill="#13604E"/>
<path d="M271.879 96.9629C279.056 96.9629 284.873 91.1406 284.873 83.9584C284.873 76.7763 279.056 70.954 271.879 70.954C264.703 70.954 258.885 76.7763 258.885 83.9584C258.885 91.1406 264.703 96.9629 271.879 96.9629Z" fill="#13604E"/>
<path d="M284.862 83.9585C295.63 83.9585 304.359 75.2224 304.359 64.4458C304.359 53.6693 295.63 44.9332 284.862 44.9332C274.094 44.9332 265.365 53.6693 265.365 64.4458C265.365 75.2224 274.094 83.9585 284.862 83.9585Z" fill="#4DD3B8"/>
<path d="M264.866 64.4459C264.866 53.4129 273.838 44.4344 284.862 44.4344C295.886 44.4344 304.857 53.4129 304.857 64.4459C304.857 75.4789 295.886 84.4573 284.862 84.4573C273.838 84.4573 264.866 75.4789 264.866 64.4459ZM265.863 64.4459C265.863 74.9326 274.383 83.4597 284.862 83.4597C295.34 83.4597 303.86 74.9326 303.86 64.4459C303.86 53.9592 295.34 45.4321 284.862 45.4321C274.383 45.4321 265.863 53.9592 265.863 64.4459Z" fill="#13604E"/>
<path d="M284.862 122.984C295.63 122.984 304.359 114.248 304.359 103.471C304.359 92.6946 295.63 83.9585 284.862 83.9585C274.094 83.9585 265.365 92.6946 265.365 103.471C265.365 114.248 274.094 122.984 284.862 122.984Z" fill="#4DD3B8"/>
<path d="M264.866 103.471C264.866 92.4381 273.838 83.4597 284.862 83.4597C295.886 83.4597 304.857 92.4381 304.857 103.471C304.857 114.504 295.886 123.483 284.862 123.483C273.838 123.483 264.866 114.504 264.866 103.471ZM265.863 103.471C265.863 113.958 274.383 122.485 284.862 122.485C295.34 122.485 303.86 113.958 303.86 103.471C303.86 92.9844 295.34 84.4573 284.862 84.4573C274.383 84.4573 265.863 92.9844 265.863 103.471Z" fill="#13604E"/>
<path d="M304.359 64.4459C304.359 64.4459 304.81 52.4153 291.376 51.4414C277.801 50.4557 274.573 60.8236 274.217 62.6525C273.79 64.8496 273.932 67.1061 275.914 70.2414C276.709 71.5003 278.608 74.2319 283.817 75.0157C283.817 75.0157 291.899 75.752 293.524 67.7356C293.524 67.7356 294.165 62.1775 288.908 61.1324C288.908 61.1324 287.33 60.883 286.665 61.5481C286.665 61.5481 285.526 62.8426 286.903 63.6858C287.816 64.244 289.81 64.0896 290.214 66.8211C290.593 69.3626 288.018 70.9184 286.689 71.3341C283.105 72.4623 280.637 71.726 278.632 69.6714C278.632 69.6714 274.965 66.6548 276.923 61.1918C279.415 54.2442 285.633 52.2134 291.341 52.6053C291.341 52.6053 303.504 52.9259 304.062 67.7356C304.062 67.7356 304.347 65.4791 304.335 64.4459H304.359Z" fill="#13604E"/>
<path d="M304.359 103.459C304.359 103.459 304.81 91.4287 291.376 90.4548C277.801 89.4691 274.573 99.837 274.217 101.666C273.79 103.863 273.932 106.12 275.914 109.255C276.709 110.514 278.608 113.245 283.817 114.029C283.817 114.029 291.899 114.765 293.524 106.749C293.524 106.749 294.165 101.191 288.908 100.146C288.908 100.146 287.33 99.8964 286.665 100.561C286.665 100.561 285.526 101.856 286.903 102.699C287.816 103.257 289.81 103.103 290.214 105.835C290.593 108.376 288.018 109.932 286.689 110.347C283.105 111.476 280.637 110.739 278.632 108.685C278.632 108.685 274.965 105.668 276.923 100.205C279.415 93.2576 285.633 91.2268 291.341 91.6187C291.341 91.6187 303.504 91.9394 304.062 106.749C304.062 106.749 304.347 104.493 304.335 103.459H304.359Z" fill="#13604E"/>
<path d="M304.359 64.4458C293.596 64.4458 284.862 73.1867 284.862 83.9584C284.862 94.7301 293.596 103.471 304.359 103.471V64.4458Z" fill="#4DD3B8"/>
<path d="M304.359 103.958C293.335 103.958 284.363 94.9796 284.363 83.9466C284.363 72.9136 293.335 63.9352 304.359 63.9352V103.958ZM304.359 64.9328C293.88 64.9328 285.36 73.4599 285.36 83.9466C285.36 94.4333 293.88 102.96 304.359 102.96V64.9328Z" fill="#13604E"/>
</g>
<path d="M12.4247 44.4344H292.576V123.566H12.4247V44.4344ZM12.4247 43.033C11.6534 43.033 11.0244 43.6624 11.0244 44.4344V123.566C11.0244 124.338 11.6534 124.967 12.4247 124.967H292.576C293.347 124.967 293.976 124.338 293.976 123.566V44.4344C293.976 43.6624 293.347 43.033 292.576 43.033H12.4247Z" fill="#0F594B"/>
</g>
<path d="M140.757 71.082H139.234V61.2188H140.757V71.082ZM143.375 66.7656H140.328V65.4766H143.375V66.7656ZM129.351 68.7773C131.174 68.7904 132.665 68.7578 133.824 68.6797C134.989 68.5951 136.155 68.4388 137.32 68.2109L137.515 69.4609C136.343 69.7018 135.168 69.8613 133.99 69.9395C132.818 70.0176 131.272 70.0534 129.351 70.0469H128.003V68.7773H129.351ZM135.699 63.6602H129.527V69.5195H128.003V62.4102H135.699V63.6602ZM140.757 78.3477H129.8V71.9805H140.757V78.3477ZM131.304 77.0977H139.234V73.2305H131.304V77.0977ZM158.043 71.6484H156.519V61.2188H158.043V71.6484ZM160.66 67.0195H157.613V65.75H160.66V67.0195ZM153.316 62.5078C153.316 63.9661 152.987 65.2943 152.33 66.4922C151.672 67.6901 150.731 68.7285 149.507 69.6074C148.283 70.4798 146.825 71.1667 145.132 71.668L144.488 70.418C145.972 69.9883 147.255 69.4154 148.336 68.6992C149.416 67.9831 150.243 67.1595 150.816 66.2285C151.395 65.2975 151.688 64.2917 151.695 63.2109V62.5078H153.316ZM152.554 63.7773H145.25V62.5078H152.554V63.7773ZM152.554 71.8438C153.707 71.8438 154.709 71.9772 155.562 72.2441C156.421 72.5111 157.082 72.8952 157.545 73.3965C158.007 73.8978 158.238 74.4935 158.238 75.1836C158.238 75.8802 158.007 76.4824 157.545 76.9902C157.082 77.4915 156.425 77.8757 155.572 78.1426C154.719 78.4095 153.713 78.543 152.554 78.543C151.402 78.543 150.396 78.4095 149.537 78.1426C148.684 77.8757 148.026 77.4915 147.564 76.9902C147.102 76.4824 146.871 75.8802 146.871 75.1836C146.871 74.5 147.102 73.9076 147.564 73.4062C148.026 72.8984 148.687 72.5111 149.546 72.2441C150.406 71.9772 151.408 71.8438 152.554 71.8438ZM152.554 73.0742C151.708 73.0742 150.972 73.1589 150.347 73.3281C149.722 73.4974 149.237 73.7415 148.892 74.0605C148.554 74.3796 148.388 74.7539 148.394 75.1836C148.388 75.6133 148.554 75.9876 148.892 76.3066C149.237 76.6257 149.722 76.873 150.347 77.0488C150.979 77.2246 151.714 77.3125 152.554 77.3125C153.394 77.3125 154.13 77.2246 154.761 77.0488C155.399 76.873 155.891 76.6257 156.236 76.3066C156.581 75.9876 156.753 75.6133 156.753 75.1836C156.753 74.7539 156.581 74.3796 156.236 74.0605C155.891 73.7415 155.403 73.4974 154.771 73.3281C154.14 73.1589 153.401 73.0742 152.554 73.0742ZM175.191 78.6211H173.668V61.2188H175.191V78.6211ZM178.101 69.3828H174.839V68.0938H178.101V69.3828ZM163.882 72.9766C165.588 72.9701 167.05 72.9245 168.267 72.8398C169.485 72.7487 170.725 72.5859 171.988 72.3516L172.183 73.6797C170.894 73.9141 169.631 74.0703 168.394 74.1484C167.164 74.2266 165.66 74.2656 163.882 74.2656H162.515V72.9766H163.882ZM170.621 64.1875H164.039V73.5625H162.515V62.918H170.621V64.1875ZM116.373 102.609C116.379 100.799 116.62 99.1198 117.095 97.5703C117.571 96.0208 118.267 94.582 119.185 93.2539H120.67C120.227 93.9049 119.81 94.7448 119.42 95.7734C119.029 96.8021 118.713 97.9186 118.472 99.123C118.231 100.327 118.111 101.49 118.111 102.609C118.111 103.729 118.231 104.888 118.472 106.086C118.713 107.284 119.029 108.4 119.42 109.436C119.81 110.477 120.227 111.327 120.67 111.984H119.185C118.267 110.65 117.571 109.208 117.095 107.658C116.62 106.109 116.379 104.426 116.373 102.609ZM127.056 95.6758C127.05 96.5352 126.88 97.3848 126.548 98.2246C126.223 99.0645 125.751 99.8229 125.132 100.5C124.514 101.171 123.795 101.685 122.974 102.043L122.134 100.852C122.877 100.533 123.528 100.09 124.087 99.5234C124.647 98.9505 125.074 98.3288 125.367 97.6582C125.666 96.9876 125.819 96.3268 125.826 95.6758V93.3125H127.056V95.6758ZM127.291 95.6758C127.297 96.3203 127.444 96.9518 127.73 97.5703C128.023 98.1823 128.436 98.7357 128.97 99.2305C129.511 99.7253 130.142 100.109 130.865 100.383L130.064 101.555C129.231 101.236 128.515 100.777 127.916 100.178C127.317 99.5723 126.858 98.8822 126.539 98.1074C126.226 97.3327 126.073 96.5221 126.08 95.6758V93.3125H127.291V95.6758ZM136.861 102.961H135.396V92.2383H136.861V102.961ZM135.884 98.1758H132.564V96.9062H135.884V98.1758ZM133.091 102.414H131.646V92.5703H133.091V102.414ZM131.119 103.352C132.31 103.352 133.342 103.472 134.214 103.713C135.093 103.954 135.77 104.309 136.246 104.777C136.721 105.246 136.959 105.806 136.959 106.457C136.959 107.102 136.721 107.652 136.246 108.107C135.77 108.57 135.093 108.924 134.214 109.172C133.342 109.419 132.31 109.543 131.119 109.543C129.921 109.543 128.882 109.419 128.003 109.172C127.125 108.924 126.451 108.57 125.982 108.107C125.52 107.652 125.292 107.102 125.298 106.457C125.292 105.806 125.52 105.246 125.982 104.777C126.451 104.309 127.125 103.954 128.003 103.713C128.882 103.472 129.921 103.352 131.119 103.352ZM131.119 104.523C130.233 104.523 129.468 104.602 128.824 104.758C128.179 104.914 127.681 105.139 127.33 105.432C126.985 105.718 126.815 106.06 126.822 106.457C126.815 106.848 126.985 107.186 127.33 107.473C127.681 107.759 128.179 107.977 128.824 108.127C129.468 108.277 130.233 108.352 131.119 108.352C131.991 108.352 132.753 108.277 133.404 108.127C134.055 107.977 134.553 107.759 134.898 107.473C135.25 107.186 135.429 106.848 135.435 106.457C135.429 106.06 135.25 105.718 134.898 105.432C134.553 105.139 134.055 104.914 133.404 104.758C132.753 104.602 131.991 104.523 131.119 104.523ZM152.974 102.648H151.451V92.2188H152.974V102.648ZM155.591 98.0195H152.545V96.75H155.591V98.0195ZM148.248 93.5078C148.248 94.9661 147.919 96.2943 147.261 97.4922C146.604 98.6901 145.663 99.7285 144.439 100.607C143.215 101.48 141.757 102.167 140.064 102.668L139.42 101.418C140.904 100.988 142.186 100.415 143.267 99.6992C144.348 98.9831 145.175 98.1595 145.748 97.2285C146.327 96.2975 146.62 95.2917 146.627 94.2109V93.5078H148.248ZM147.486 94.7773H140.181V93.5078H147.486V94.7773ZM147.486 102.844C148.638 102.844 149.641 102.977 150.494 103.244C151.353 103.511 152.014 103.895 152.476 104.396C152.938 104.898 153.17 105.493 153.17 106.184C153.17 106.88 152.938 107.482 152.476 107.99C152.014 108.492 151.356 108.876 150.503 109.143C149.651 109.41 148.645 109.543 147.486 109.543C146.334 109.543 145.328 109.41 144.468 109.143C143.615 108.876 142.958 108.492 142.496 107.99C142.033 107.482 141.802 106.88 141.802 106.184C141.802 105.5 142.033 104.908 142.496 104.406C142.958 103.898 143.619 103.511 144.478 103.244C145.337 102.977 146.34 102.844 147.486 102.844ZM147.486 104.074C146.64 104.074 145.904 104.159 145.279 104.328C144.654 104.497 144.169 104.742 143.824 105.061C143.485 105.38 143.319 105.754 143.326 106.184C143.319 106.613 143.485 106.988 143.824 107.307C144.169 107.626 144.654 107.873 145.279 108.049C145.91 108.225 146.646 108.312 147.486 108.312C148.326 108.312 149.061 108.225 149.693 108.049C150.331 107.873 150.823 107.626 151.168 107.307C151.513 106.988 151.685 106.613 151.685 106.184C151.685 105.754 151.513 105.38 151.168 105.061C150.823 104.742 150.334 104.497 149.703 104.328C149.071 104.159 148.332 104.074 147.486 104.074ZM158.013 112.004H156.568L157.642 106.691H159.537L158.013 112.004ZM182.701 99.6797H166.822V98.4102H182.701V99.6797ZM175.474 102.59H173.97V99.2109H175.474V102.59ZM180.67 106.145H170.298V108.723H168.755V104.953H179.127V103.078H168.716V101.828H180.67V106.145ZM181.236 109.387H168.755V108.137H181.236V109.387ZM173.033 94.1523H168.365V92.8633H173.033V94.1523ZM173.97 93.5078C173.964 94.0221 173.944 94.5267 173.912 95.0215C173.886 95.5098 173.814 96.1087 173.697 96.8184C173.58 97.5215 173.404 98.2669 173.17 99.0547L171.705 98.7617C171.933 97.9805 172.099 97.2578 172.203 96.5938C172.313 95.9297 172.382 95.3861 172.408 94.9629C172.434 94.5332 172.453 94.0417 172.466 93.4883V93.4297V92.8633H173.97V93.4297V93.5078ZM180.005 94.1523H175.279V92.8633H180.005V94.1523ZM180.806 93.5273C180.8 94.3542 180.754 95.194 180.67 96.0469C180.585 96.8932 180.396 97.8698 180.103 98.9766L178.619 98.7812C178.834 97.9935 178.993 97.2643 179.097 96.5938C179.208 95.9167 179.273 95.3503 179.293 94.8945C179.312 94.4388 179.322 93.957 179.322 93.4492V92.8633H180.806V93.4492V93.5273ZM187.72 97.5703C188.196 99.1198 188.436 100.799 188.443 102.609C188.436 104.426 188.196 106.109 187.72 107.658C187.245 109.208 186.548 110.65 185.63 111.984H184.146C184.589 111.327 185.005 110.477 185.396 109.436C185.787 108.4 186.102 107.284 186.343 106.086C186.584 104.888 186.705 103.729 186.705 102.609C186.705 101.49 186.584 100.327 186.343 99.123C186.102 97.9186 185.787 96.8021 185.396 95.7734C185.005 94.7448 184.589 93.9049 184.146 93.2539H185.63C186.548 94.582 187.245 96.0208 187.72 97.5703Z" fill="white"/>
<path d="M14.1436 20.5746H12.6105V3.22652H14.1436V20.5746ZM16.9613 11.5829H13.7431V10.2845H16.9613V11.5829ZM9.6547 5.09116C9.65009 6.78085 9.36925 8.37615 8.81216 9.87707C8.25967 11.3734 7.3895 12.7546 6.20166 14.0207C5.01842 15.2822 3.50829 16.3665 1.67127 17.2735L0.814917 16.0718C2.42634 15.2707 3.77762 14.3292 4.86878 13.2472C5.95995 12.1653 6.77716 10.9613 7.32044 9.63536C7.86372 8.30939 8.13536 6.87753 8.13536 5.33978V5.09116H9.6547ZM8.92265 6.37569H1.62983V5.09116H8.92265V6.37569ZM19.8266 19.1105C19.601 19.1105 19.3892 19.0529 19.1912 18.9378C18.9979 18.8227 18.8436 18.6708 18.7285 18.482C18.618 18.2887 18.5651 18.0792 18.5697 17.8536C18.5651 17.628 18.618 17.4185 18.7285 17.2251C18.8436 17.0272 18.9979 16.8729 19.1912 16.7624C19.3892 16.6519 19.601 16.5967 19.8266 16.5967C20.0522 16.5967 20.2617 16.6519 20.455 16.7624C20.653 16.8729 20.8073 17.0272 20.9178 17.2251C21.0283 17.4185 21.0835 17.628 21.0835 17.8536C21.0835 18.0792 21.0283 18.2887 20.9178 18.482C20.8073 18.6708 20.653 18.8227 20.455 18.9378C20.2617 19.0529 20.0522 19.1105 19.8266 19.1105Z" fill="white"/>
<defs>
<clipPath id="clip0_491_1378">
<rect width="305" height="104" fill="white" transform="translate(0 32)"/>
</clipPath>
</defs>
</svg>
