<svg width="305" height="136" viewBox="0 0 305 136" fill="none" xmlns="http://www.w3.org/2000/svg">
<g clip-path="url(#clip0_491_1525)">
<path d="M1.41202 134.599L303.6 134.599V33.4014L1.41202 33.4014V134.599Z" fill="#4AE6CA"/>
<path d="M2.63443 33.4014H302.366C303.042 33.4014 303.6 33.9477 303.6 34.6365V133.363C303.6 134.04 303.054 134.599 302.366 134.599H2.63443C1.95802 134.599 1.40028 134.052 1.40028 133.363V34.6365C1.40028 33.9596 1.94615 33.4014 2.63443 33.4014ZM2.63443 32C1.17481 32 0 33.1757 0 34.6365V133.363C0 134.812 1.17481 136 2.63443 136H302.366C303.813 136 305 134.824 305 133.363V34.6365C305 33.1757 303.813 32 302.366 32H2.63443Z" fill="#0F594B"/>
<path d="M12.4247 123.566L292.576 123.566V44.4343L12.4247 44.4343V123.566Z" fill="#0F594B"/>
<mask id="mask0_491_1525" style="mask-type:luminance" maskUnits="userSpaceOnUse" x="12" y="44" width="281" height="80">
<path d="M12.4242 123.566L292.575 123.566V44.4345L12.4242 44.4345V123.566Z" fill="white"/>
</mask>
<g mask="url(#mask0_491_1525)">
<path d="M39.5752 103.471C50.3432 103.471 59.0724 94.7349 59.0724 83.9584C59.0724 73.1819 50.3432 64.4458 39.5752 64.4458C28.8073 64.4458 20.0781 73.1819 20.0781 83.9584C20.0781 94.7349 28.8073 103.471 39.5752 103.471Z" fill="#4DD3B8"/>
<path d="M39.5873 103.958C28.5631 103.958 19.5918 94.9796 19.5918 83.9466C19.5918 72.9136 28.5631 63.9352 39.5873 63.9352C50.6116 63.9352 59.5828 72.9136 59.5828 83.9466C59.5828 94.9796 50.6116 103.958 39.5873 103.958ZM39.5873 64.9328C29.109 64.9328 20.5886 73.4599 20.5886 83.9466C20.5886 94.4333 29.109 102.96 39.5873 102.96C50.0657 102.96 58.586 94.4333 58.586 83.9466C58.586 73.4599 50.0657 64.9328 39.5873 64.9328Z" fill="#13604E"/>
<path d="M33.0723 96.9629C40.2487 96.9629 46.0664 91.1406 46.0664 83.9584C46.0664 76.7763 40.2487 70.954 33.0723 70.954C25.8958 70.954 20.0781 76.7763 20.0781 83.9584C20.0781 91.1406 25.8958 96.9629 33.0723 96.9629Z" fill="#13604E"/>
<path d="M20.0904 83.9585C30.8583 83.9585 39.5875 75.2224 39.5875 64.4458C39.5875 53.6693 30.8583 44.9332 20.0904 44.9332C9.32242 44.9332 0.593262 53.6693 0.593262 64.4458C0.593262 75.2224 9.32242 83.9585 20.0904 83.9585Z" fill="#4DD3B8"/>
<path d="M20.0903 84.4454C9.06601 84.4454 0.0947266 75.4789 0.0947266 64.4459C0.0947266 53.4129 9.06601 44.4344 20.0903 44.4344C31.1145 44.4344 40.0858 53.4129 40.0858 64.4459C40.0858 75.4789 31.1145 84.4573 20.0903 84.4573V84.4454ZM20.0903 45.4202C9.61189 45.4321 1.09154 53.9592 1.09154 64.4459C1.09154 74.9326 9.61189 83.4597 20.0903 83.4597C30.5686 83.4597 39.089 74.9326 39.089 64.4459C39.089 53.9592 30.5686 45.4321 20.0903 45.4321V45.4202Z" fill="#13604E"/>
<path d="M20.0904 122.984C30.8583 122.984 39.5875 114.248 39.5875 103.471C39.5875 92.6946 30.8583 83.9585 20.0904 83.9585C9.32242 83.9585 0.593262 92.6946 0.593262 103.471C0.593262 114.248 9.32242 122.984 20.0904 122.984Z" fill="#4DD3B8"/>
<path d="M20.0903 123.471C9.06601 123.471 0.0947266 114.504 0.0947266 103.471C0.0947266 92.4381 9.06601 83.4597 20.0903 83.4597C31.1145 83.4597 40.0858 92.4381 40.0858 103.471C40.0858 114.504 31.1145 123.483 20.0903 123.483V123.471ZM20.0903 84.4454C9.61189 84.4454 1.09154 92.9844 1.09154 103.471C1.09154 113.958 9.61189 122.485 20.0903 122.485C30.5686 122.485 39.089 113.958 39.089 103.471C39.089 92.9844 30.5686 84.4573 20.0903 84.4573V84.4454Z" fill="#13604E"/>
<path d="M0.593229 64.4459C0.593229 64.4459 0.130424 52.4153 13.5755 51.4414C27.1511 50.4557 30.3788 60.8236 30.7349 62.6525C31.1621 64.8496 31.0197 67.1061 29.0379 70.2414C28.2428 71.5003 26.3441 74.2319 21.1346 75.0157C21.1346 75.0157 13.0534 75.752 11.4276 67.7356C11.4276 67.7356 10.7868 62.1775 16.0438 61.1324C16.0438 61.1324 17.6221 60.883 18.2866 61.5481C18.2866 61.5481 19.4258 62.8426 18.0493 63.6858C17.1355 64.244 15.1419 64.0896 14.7384 66.8211C14.3587 69.3626 16.9338 70.9184 18.2629 71.3341C21.8466 72.4623 24.3149 71.726 26.3204 69.6714C26.3204 69.6714 29.9872 66.6548 28.0292 61.1918C25.5372 54.2442 19.319 52.2134 13.6111 52.6053C13.6111 52.6053 1.44764 52.9259 0.889898 67.7356C0.889898 67.7356 0.605095 65.4791 0.616962 64.4459H0.593229Z" fill="#13604E"/>
<path d="M0.593093 103.459C0.593093 103.459 0.142155 91.4287 13.5754 90.4548C27.1509 89.4691 30.3787 99.837 30.7347 101.666C31.1619 103.863 31.0195 106.12 29.0378 109.255C28.2427 110.514 26.344 113.245 21.1345 114.029C21.1345 114.029 13.0532 114.765 11.4275 106.749C11.4275 106.749 10.7867 101.191 16.0436 100.146C16.0436 100.146 17.6219 99.8964 18.2865 100.561C18.2865 100.561 19.4257 101.856 18.0491 102.699C17.1354 103.257 15.1418 103.103 14.7383 105.835C14.3586 108.376 16.9337 109.932 18.2627 110.347C21.8465 111.476 24.3148 110.739 26.3203 108.685C26.3203 108.685 29.9871 105.668 28.0291 100.205C25.5371 93.2576 19.3189 91.2268 13.611 91.6187C13.611 91.6187 1.4475 91.9394 0.889763 106.749C0.889763 106.749 0.60496 104.493 0.616827 103.459H0.593093Z" fill="#13604E"/>
<path d="M0.593262 64.4458C11.3564 64.4458 20.0904 73.1867 20.0904 83.9584C20.0904 94.7301 11.3564 103.471 0.593262 103.471V64.4458Z" fill="#4DD3B8"/>
<path d="M0.593262 63.947C11.6175 63.947 20.5888 72.9254 20.5888 83.9584C20.5888 94.9914 11.6175 103.958 0.593262 103.958V63.947ZM0.593262 102.972C11.0716 102.972 19.592 94.4451 19.592 83.9584C19.592 73.4717 11.0598 64.9327 0.593262 64.9327V102.972Z" fill="#13604E"/>
<path d="M265.364 103.471C276.132 103.471 284.861 94.7349 284.861 83.9584C284.861 73.1819 276.132 64.4458 265.364 64.4458C254.596 64.4458 245.867 73.1819 245.867 83.9584C245.867 94.7349 254.596 103.471 265.364 103.471Z" fill="#4DD3B8"/>
<path d="M245.381 83.9584C245.381 72.9254 254.352 63.947 265.376 63.947C276.401 63.947 285.372 72.9254 285.372 83.9584C285.372 94.9914 276.401 103.97 265.376 103.97C254.352 103.97 245.381 94.9914 245.381 83.9584ZM246.378 83.9584C246.378 94.4451 254.898 102.972 265.376 102.972C275.855 102.972 284.375 94.4451 284.375 83.9584C284.375 73.4717 275.855 64.9446 265.376 64.9446C254.898 64.9446 246.378 73.4717 246.378 83.9584Z" fill="#13604E"/>
<path d="M271.879 96.9629C279.056 96.9629 284.873 91.1406 284.873 83.9584C284.873 76.7763 279.056 70.954 271.879 70.954C264.703 70.954 258.885 76.7763 258.885 83.9584C258.885 91.1406 264.703 96.9629 271.879 96.9629Z" fill="#13604E"/>
<path d="M284.862 83.9585C295.63 83.9585 304.359 75.2224 304.359 64.4458C304.359 53.6693 295.63 44.9332 284.862 44.9332C274.094 44.9332 265.365 53.6693 265.365 64.4458C265.365 75.2224 274.094 83.9585 284.862 83.9585Z" fill="#4DD3B8"/>
<path d="M264.866 64.4459C264.866 53.4129 273.838 44.4344 284.862 44.4344C295.886 44.4344 304.857 53.4129 304.857 64.4459C304.857 75.4789 295.886 84.4573 284.862 84.4573C273.838 84.4573 264.866 75.4789 264.866 64.4459ZM265.863 64.4459C265.863 74.9326 274.383 83.4597 284.862 83.4597C295.34 83.4597 303.86 74.9326 303.86 64.4459C303.86 53.9592 295.34 45.4321 284.862 45.4321C274.383 45.4321 265.863 53.9592 265.863 64.4459Z" fill="#13604E"/>
<path d="M284.862 122.984C295.63 122.984 304.359 114.248 304.359 103.471C304.359 92.6946 295.63 83.9585 284.862 83.9585C274.094 83.9585 265.365 92.6946 265.365 103.471C265.365 114.248 274.094 122.984 284.862 122.984Z" fill="#4DD3B8"/>
<path d="M264.866 103.471C264.866 92.4381 273.838 83.4597 284.862 83.4597C295.886 83.4597 304.857 92.4381 304.857 103.471C304.857 114.504 295.886 123.483 284.862 123.483C273.838 123.483 264.866 114.504 264.866 103.471ZM265.863 103.471C265.863 113.958 274.383 122.485 284.862 122.485C295.34 122.485 303.86 113.958 303.86 103.471C303.86 92.9844 295.34 84.4573 284.862 84.4573C274.383 84.4573 265.863 92.9844 265.863 103.471Z" fill="#13604E"/>
<path d="M304.359 64.4459C304.359 64.4459 304.81 52.4153 291.376 51.4414C277.801 50.4557 274.573 60.8236 274.217 62.6525C273.79 64.8496 273.932 67.1061 275.914 70.2414C276.709 71.5003 278.608 74.2319 283.817 75.0157C283.817 75.0157 291.899 75.752 293.524 67.7356C293.524 67.7356 294.165 62.1775 288.908 61.1324C288.908 61.1324 287.33 60.883 286.665 61.5481C286.665 61.5481 285.526 62.8426 286.903 63.6858C287.816 64.244 289.81 64.0896 290.214 66.8211C290.593 69.3626 288.018 70.9184 286.689 71.3341C283.105 72.4623 280.637 71.726 278.632 69.6714C278.632 69.6714 274.965 66.6548 276.923 61.1918C279.415 54.2442 285.633 52.2134 291.341 52.6053C291.341 52.6053 303.504 52.9259 304.062 67.7356C304.062 67.7356 304.347 65.4791 304.335 64.4459H304.359Z" fill="#13604E"/>
<path d="M304.359 103.459C304.359 103.459 304.81 91.4287 291.376 90.4548C277.801 89.4691 274.573 99.837 274.217 101.666C273.79 103.863 273.932 106.12 275.914 109.255C276.709 110.514 278.608 113.245 283.817 114.029C283.817 114.029 291.899 114.765 293.524 106.749C293.524 106.749 294.165 101.191 288.908 100.146C288.908 100.146 287.33 99.8964 286.665 100.561C286.665 100.561 285.526 101.856 286.903 102.699C287.816 103.257 289.81 103.103 290.214 105.835C290.593 108.376 288.018 109.932 286.689 110.347C283.105 111.476 280.637 110.739 278.632 108.685C278.632 108.685 274.965 105.668 276.923 100.205C279.415 93.2576 285.633 91.2268 291.341 91.6187C291.341 91.6187 303.504 91.9394 304.062 106.749C304.062 106.749 304.347 104.493 304.335 103.459H304.359Z" fill="#13604E"/>
<path d="M304.359 64.4458C293.596 64.4458 284.862 73.1867 284.862 83.9584C284.862 94.7301 293.596 103.471 304.359 103.471V64.4458Z" fill="#4DD3B8"/>
<path d="M304.359 103.958C293.335 103.958 284.363 94.9796 284.363 83.9466C284.363 72.9136 293.335 63.9352 304.359 63.9352V103.958ZM304.359 64.9328C293.88 64.9328 285.36 73.4599 285.36 83.9466C285.36 94.4333 293.88 102.96 304.359 102.96V64.9328Z" fill="#13604E"/>
</g>
<path d="M12.4247 44.4344H292.576V123.566H12.4247V44.4344ZM12.4247 43.033C11.6534 43.033 11.0244 43.6624 11.0244 44.4344V123.566C11.0244 124.338 11.6534 124.967 12.4247 124.967H292.576C293.347 124.967 293.976 124.338 293.976 123.566V44.4344C293.976 43.6624 293.347 43.033 292.576 43.033H12.4247Z" fill="#0F594B"/>
</g>
<path d="M132.789 63.8555C132.789 64.9492 132.59 65.9714 132.193 66.9219C131.796 67.8724 131.229 68.7025 130.494 69.4121C129.765 70.1152 128.915 70.6523 127.945 71.0234L127.125 69.8125C127.997 69.487 128.765 69.0247 129.429 68.4258C130.093 67.8268 130.608 67.1335 130.972 66.3457C131.337 65.5579 131.519 64.7279 131.519 63.8555V62.1172H132.789V63.8555ZM133.023 63.8164C133.023 64.6042 133.205 65.3659 133.57 66.1016C133.934 66.8307 134.446 67.4753 135.103 68.0352C135.767 68.5951 136.519 69.0182 137.359 69.3047L136.5 70.5156C135.582 70.1706 134.765 69.666 134.048 69.002C133.339 68.3314 132.785 67.5501 132.388 66.6582C131.991 65.7663 131.793 64.819 131.793 63.8164V62.1172H133.023V63.8164ZM140.757 71.3945H139.234V61.2188H140.757V71.3945ZM143.375 66.8438H140.328V65.5547H143.375V66.8438ZM140.757 78.3477H129.8V72.1953H140.757V78.3477ZM131.304 77.0977H139.234V73.4453H131.304V77.0977ZM150.269 71.6094H148.746V68.0547H150.269V71.6094ZM156.05 71.6094H154.527V68.0547H156.05V71.6094ZM157.769 63.1719H146.48V61.9219H157.769V63.1719ZM160.367 68.7188H144.468V67.4492H160.367V68.7188ZM158.277 63.0156C158.277 63.9141 158.251 64.7409 158.199 65.4961C158.147 66.2448 158.017 67.0846 157.808 68.0156L156.304 67.8398C156.5 66.9414 156.623 66.1471 156.675 65.457C156.727 64.7604 156.753 63.9922 156.753 63.1523V63.0156V61.9219H158.277V63.0156ZM158.336 75.1836H147.925V77.5859H146.382V74.0703H156.812V72.2344H146.363V71.0039H158.336V75.1836ZM158.785 78.3867H146.382V77.1367H158.785V78.3867ZM175.191 78.6211H173.668V61.2188H175.191V78.6211ZM178.101 69.3828H174.839V68.0938H178.101V69.3828ZM163.882 72.9766C165.588 72.9701 167.05 72.9245 168.267 72.8398C169.485 72.7487 170.725 72.5859 171.988 72.3516L172.183 73.6797C170.894 73.9141 169.631 74.0703 168.394 74.1484C167.164 74.2266 165.66 74.2656 163.882 74.2656H162.515V72.9766H163.882ZM170.621 64.1875H164.039V73.5625H162.515V62.918H170.621V64.1875ZM85.3765 102.609C85.3831 100.799 85.6239 99.1198 86.0992 97.5703C86.5745 96.0208 87.2711 94.582 88.189 93.2539H89.6734C89.2307 93.9049 88.814 94.7448 88.4234 95.7734C88.0328 96.8021 87.717 97.9186 87.4762 99.123C87.2353 100.327 87.1148 101.49 87.1148 102.609C87.1148 103.729 87.2353 104.888 87.4762 106.086C87.717 107.284 88.0328 108.4 88.4234 109.436C88.814 110.477 89.2307 111.327 89.6734 111.984H88.189C87.2711 110.65 86.5745 109.208 86.0992 107.658C85.6239 106.109 85.3831 104.426 85.3765 102.609ZM105.455 104.934H103.931V92.2383H105.455V104.934ZM106.002 109.211H94.2437V107.922H106.002V109.211ZM95.7672 108.352H94.2437V103.645H95.7672V108.352ZM96.0797 93.4492C96.939 93.4492 97.7138 93.6315 98.4039 93.9961C99.094 94.3607 99.6376 94.8652 100.035 95.5098C100.432 96.1543 100.63 96.8867 100.63 97.707C100.63 98.5339 100.432 99.2728 100.035 99.9238C99.6376 100.568 99.094 101.073 98.4039 101.438C97.7138 101.802 96.939 101.984 96.0797 101.984C95.2203 101.984 94.4456 101.802 93.7554 101.438C93.0653 101.073 92.5217 100.568 92.1246 99.9238C91.7275 99.2728 91.5289 98.5339 91.5289 97.707C91.5289 96.8867 91.7275 96.1543 92.1246 95.5098C92.5217 94.8652 93.0653 94.3607 93.7554 93.9961C94.4456 93.6315 95.2203 93.4492 96.0797 93.4492ZM96.0797 94.7969C95.5002 94.7969 94.9762 94.9206 94.5074 95.168C94.0452 95.4154 93.6806 95.7604 93.4137 96.2031C93.1532 96.6458 93.0263 97.1471 93.0328 97.707C93.0263 98.2734 93.1532 98.7812 93.4137 99.2305C93.6806 99.6732 94.0452 100.018 94.5074 100.266C94.9762 100.513 95.5002 100.637 96.0797 100.637C96.6526 100.637 97.1702 100.513 97.6324 100.266C98.0946 100.018 98.4592 99.6732 98.7262 99.2305C98.9931 98.7812 99.1265 98.2734 99.1265 97.707C99.1265 97.1471 98.9931 96.6458 98.7262 96.2031C98.4592 95.7604 98.0946 95.4154 97.6324 95.168C97.1702 94.9206 96.6526 94.7969 96.0797 94.7969ZM114.009 94.8555C114.009 95.9492 113.811 96.9714 113.414 97.9219C113.017 98.8724 112.45 99.7025 111.714 100.412C110.985 101.115 110.136 101.652 109.166 102.023L108.345 100.812C109.218 100.487 109.986 100.025 110.65 99.4258C111.314 98.8268 111.828 98.1335 112.193 97.3457C112.558 96.5579 112.74 95.7279 112.74 94.8555V93.1172H114.009V94.8555ZM114.244 94.8164C114.244 95.6042 114.426 96.3659 114.791 97.1016C115.155 97.8307 115.666 98.4753 116.324 99.0352C116.988 99.5951 117.74 100.018 118.58 100.305L117.72 101.516C116.802 101.171 115.985 100.666 115.269 100.002C114.559 99.3314 114.006 98.5501 113.609 97.6582C113.212 96.7663 113.013 95.819 113.013 94.8164V93.1172H114.244V94.8164ZM121.978 102.395H120.455V92.2188H121.978V102.395ZM124.595 97.8438H121.548V96.5547H124.595V97.8438ZM121.978 109.348H111.021V103.195H121.978V109.348ZM112.525 108.098H120.455V104.445H112.525V108.098ZM127.017 112.004H125.572L126.646 106.691H128.541L127.017 112.004ZM141.627 102.609H140.103V99.0547H141.627V102.609ZM147.408 102.609H145.884V99.0547H147.408V102.609ZM149.127 94.1719H137.837V92.9219H149.127V94.1719ZM151.724 99.7188H135.826V98.4492H151.724V99.7188ZM149.634 94.0156C149.634 94.9141 149.608 95.7409 149.556 96.4961C149.504 97.2448 149.374 98.0846 149.166 99.0156L147.662 98.8398C147.857 97.9414 147.981 97.1471 148.033 96.457C148.085 95.7604 148.111 94.9922 148.111 94.1523V94.0156V92.9219H149.634V94.0156ZM149.693 106.184H139.283V108.586H137.74V105.07H148.17V103.234H137.72V102.004H149.693V106.184ZM150.142 109.387H137.74V108.137H150.142V109.387ZM167.466 109.582H165.923V92.2188H167.466V109.582ZM163.462 95.3828H153.541V94.1133H163.462V95.3828ZM153.091 103.977C155.201 103.97 157.193 103.934 159.068 103.869C160.943 103.798 162.707 103.664 164.361 103.469L164.459 104.621C162.779 104.882 161.034 105.054 159.224 105.139C157.421 105.223 155.435 105.272 153.267 105.285L153.091 103.977ZM156.998 104.309H155.494V95.0508H156.998V104.309ZM161.49 104.309H159.986V95.0508H161.49V104.309ZM171.724 112.004H170.279L171.353 106.691H173.248L171.724 112.004ZM195.377 109.582H193.912V92.2188H195.377V109.582ZM194.302 100.48H190.904V99.2109H194.302V100.48ZM191.353 108.684H189.947V92.6094H191.353V108.684ZM182.291 103.977C183.703 103.977 184.878 103.944 185.816 103.879C186.76 103.814 187.714 103.684 188.677 103.488L188.814 104.777C187.837 104.979 186.874 105.113 185.923 105.178C184.973 105.243 183.762 105.279 182.291 105.285H181.177V103.977H182.291ZM187.681 95.6172H182.701V104.582H181.177V94.3477H187.681V95.6172ZM206.47 109.621H204.966V103.234H206.47V109.621ZM213.638 104.016H197.818V102.727H213.638V104.016ZM206.314 95.6562C206.314 96.6198 205.992 97.502 205.347 98.3027C204.703 99.1035 203.85 99.7708 202.789 100.305C201.734 100.832 200.598 101.19 199.38 101.379L198.814 100.148C199.856 100.005 200.849 99.7122 201.793 99.2695C202.737 98.8268 203.502 98.2897 204.087 97.6582C204.673 97.0267 204.966 96.3594 204.966 95.6562V95.1875H206.314V95.6562ZM206.49 95.6562C206.49 96.3529 206.78 97.0202 207.359 97.6582C207.938 98.2897 208.7 98.8268 209.644 99.2695C210.588 99.7122 211.581 100.005 212.623 100.148L212.056 101.379C210.839 101.197 209.703 100.835 208.648 100.295C207.6 99.7546 206.757 99.084 206.119 98.2832C205.481 97.4759 205.162 96.6003 205.162 95.6562V95.1875H206.49V95.6562ZM212.115 95.6367H199.361V94.3867H212.115V95.6367ZM206.47 94.8164H204.966V92.2188H206.47V94.8164ZM218.716 97.5703C219.192 99.1198 219.433 100.799 219.439 102.609C219.433 104.426 219.192 106.109 218.716 107.658C218.241 109.208 217.545 110.65 216.627 111.984H215.142C215.585 111.327 216.002 110.477 216.392 109.436C216.783 108.4 217.099 107.284 217.339 106.086C217.58 104.888 217.701 103.729 217.701 102.609C217.701 101.49 217.58 100.327 217.339 99.123C217.099 97.9186 216.783 96.8021 216.392 95.7734C216.002 94.7448 215.585 93.9049 215.142 93.2539H216.627C217.545 94.582 218.241 96.0208 218.716 97.5703Z" fill="white"/>
<path d="M14.1436 20.616H12.6243V3.22652H14.1436V20.616ZM17.0442 11.4309H13.7983V10.1326H17.0442V11.4309ZM2.80387 15.1188C4.56262 15.1188 6.05893 15.0773 7.29282 14.9945C8.53131 14.907 9.78821 14.7459 11.0635 14.511L11.2155 15.7818C9.90792 16.0212 8.62339 16.1846 7.36188 16.2721C6.10037 16.3596 4.58103 16.4079 2.80387 16.4171H1.42265V15.1188H2.80387ZM9.28177 11.058H2.94199V15.6436H1.42265V9.78729H7.74862V6.11326H1.38122V4.84254H9.28177V11.058ZM19.8266 19.1105C19.601 19.1105 19.3892 19.0529 19.1912 18.9378C18.9979 18.8227 18.8436 18.6708 18.7285 18.482C18.618 18.2887 18.5651 18.0792 18.5697 17.8536C18.5651 17.628 18.618 17.4185 18.7285 17.2251C18.8436 17.0272 18.9979 16.8729 19.1912 16.7624C19.3892 16.6519 19.601 16.5967 19.8266 16.5967C20.0522 16.5967 20.2617 16.6519 20.455 16.7624C20.653 16.8729 20.8073 17.0272 20.9178 17.2251C21.0283 17.4185 21.0835 17.628 21.0835 17.8536C21.0835 18.0792 21.0283 18.2887 20.9178 18.482C20.8073 18.6708 20.653 18.8227 20.455 18.9378C20.2617 19.0529 20.0522 19.1105 19.8266 19.1105Z" fill="white"/>
<defs>
<clipPath id="clip0_491_1525">
<rect width="305" height="104" fill="white" transform="translate(0 32)"/>
</clipPath>
</defs>
</svg>
