<svg width="305" height="136" viewBox="0 0 305 136" fill="none" xmlns="http://www.w3.org/2000/svg">
<g clip-path="url(#clip0_533_1368)">
<path d="M1.41397 134.599L303.602 134.599V33.4014L1.41397 33.4014V134.599Z" fill="#4AE6CA"/>
<path d="M2.63443 33.4014H302.366C303.042 33.4014 303.6 33.9477 303.6 34.6365V133.363C303.6 134.04 303.054 134.599 302.366 134.599H2.63443C1.95802 134.599 1.40028 134.052 1.40028 133.363V34.6365C1.40028 33.9596 1.94615 33.4014 2.63443 33.4014ZM2.63443 32C1.17481 32 0 33.1757 0 34.6365V133.363C0 134.812 1.17481 136 2.63443 136H302.366C303.813 136 305 134.824 305 133.363V34.6365C305 33.1757 303.813 32 302.366 32H2.63443Z" fill="#0F594B"/>
<path d="M12.4232 123.565L292.574 123.565V44.4342L12.4232 44.4342V123.565Z" fill="#0F594B"/>
<mask id="mask0_533_1368" style="mask-type:luminance" maskUnits="userSpaceOnUse" x="12" y="44" width="281" height="80">
<path d="M12.4272 123.565L292.578 123.565V44.4342L12.4272 44.4342V123.565Z" fill="white"/>
</mask>
<g mask="url(#mask0_533_1368)">
<path d="M39.5792 103.472C50.3471 103.472 59.0763 94.7354 59.0763 83.9589C59.0763 73.1824 50.3471 64.4463 39.5792 64.4463C28.8112 64.4463 20.082 73.1824 20.082 83.9589C20.082 94.7354 28.8112 103.472 39.5792 103.472Z" fill="#4DD3B8"/>
<path d="M39.5893 103.958C28.565 103.958 19.5938 94.98 19.5938 83.947C19.5938 72.914 28.565 63.9355 39.5893 63.9355C50.6135 63.9355 59.5848 72.914 59.5848 83.947C59.5848 94.98 50.6135 103.958 39.5893 103.958ZM39.5893 64.9331C29.1109 64.9331 20.5906 73.4603 20.5906 83.947C20.5906 94.4337 29.1109 102.961 39.5893 102.961C50.0676 102.961 58.588 94.4337 58.588 83.947C58.588 73.4603 50.0676 64.9331 39.5893 64.9331Z" fill="#13604E"/>
<path d="M33.0762 96.963C40.2526 96.963 46.0703 91.1407 46.0703 83.9586C46.0703 76.7764 40.2526 70.9541 33.0762 70.9541C25.8997 70.9541 20.082 76.7764 20.082 83.9586C20.082 91.1407 25.8997 96.963 33.0762 96.963Z" fill="#13604E"/>
<path d="M20.0948 83.9588C30.8627 83.9588 39.5919 75.2227 39.5919 64.4462C39.5919 53.6697 30.8627 44.9336 20.0948 44.9336C9.32682 44.9336 0.597656 53.6697 0.597656 64.4462C0.597656 75.2227 9.32682 83.9588 20.0948 83.9588Z" fill="#4DD3B8"/>
<path d="M20.0932 84.4455C9.06894 84.4455 0.0976562 75.479 0.0976562 64.446C0.0976562 53.413 9.06894 44.4346 20.0932 44.4346C31.1174 44.4346 40.0887 53.413 40.0887 64.446C40.0887 75.479 31.1174 84.4574 20.0932 84.4574V84.4455ZM20.0932 45.4203C9.61482 45.4322 1.09447 53.9593 1.09447 64.446C1.09447 74.9327 9.61482 83.4598 20.0932 83.4598C30.5716 83.4598 39.0919 74.9327 39.0919 64.446C39.0919 53.9593 30.5716 45.4322 20.0932 45.4322V45.4203Z" fill="#13604E"/>
<path d="M20.0948 122.984C30.8627 122.984 39.5919 114.248 39.5919 103.472C39.5919 92.6951 30.8627 83.959 20.0948 83.959C9.32682 83.959 0.597656 92.6951 0.597656 103.472C0.597656 114.248 9.32682 122.984 20.0948 122.984Z" fill="#4DD3B8"/>
<path d="M20.0932 123.471C9.06894 123.471 0.0976562 114.504 0.0976562 103.471C0.0976562 92.4384 9.06894 83.46 20.0932 83.46C31.1174 83.46 40.0887 92.4384 40.0887 103.471C40.0887 114.504 31.1174 123.483 20.0932 123.483V123.471ZM20.0932 84.4457C9.61482 84.4457 1.09447 92.9847 1.09447 103.471C1.09447 113.958 9.61482 122.485 20.0932 122.485C30.5716 122.485 39.0919 113.958 39.0919 103.471C39.0919 92.9847 30.5716 84.4576 20.0932 84.4576V84.4457Z" fill="#13604E"/>
<path d="M0.59567 64.4463C0.59567 64.4463 0.132866 52.4157 13.5779 51.4419C27.1535 50.4562 30.3813 60.8241 30.7373 62.653C31.1645 64.8501 31.0221 67.1066 29.0403 70.2419C28.2453 71.5008 26.3466 74.2323 21.1371 75.0162C21.1371 75.0162 13.0558 75.7525 11.43 67.7361C11.43 67.7361 10.7892 62.178 16.0462 61.1329C16.0462 61.1329 17.6245 60.8835 18.289 61.5485C18.289 61.5485 19.4283 62.8431 18.0517 63.6863C17.138 64.2444 15.1443 64.0901 14.7409 66.8216C14.3611 69.3631 16.9362 70.9189 18.2653 71.3345C21.8491 72.4628 24.3174 71.7265 26.3229 69.6719C26.3229 69.6719 29.9897 66.6553 28.0317 61.1923C25.5396 54.2447 19.3215 52.2138 13.6135 52.6058C13.6135 52.6058 1.45008 52.9264 0.89234 67.7361C0.89234 67.7361 0.607537 65.4796 0.619404 64.4463H0.59567Z" fill="#13604E"/>
<path d="M0.595535 103.459C0.595535 103.459 0.144597 91.4284 13.5778 90.4546C27.1534 89.4689 30.3812 99.8368 30.7372 101.666C31.1644 103.863 31.022 106.119 29.0402 109.255C28.2451 110.514 26.3464 113.245 21.1369 114.029C21.1369 114.029 13.0557 114.765 11.4299 106.749C11.4299 106.749 10.7891 101.191 16.0461 100.146C16.0461 100.146 17.6244 99.8962 18.2889 100.561C18.2889 100.561 19.4281 101.856 18.0516 102.699C17.1378 103.257 15.1442 103.103 14.7407 105.834C14.361 108.376 16.9361 109.932 18.2652 110.347C21.8489 111.475 24.3172 110.739 26.3227 108.685C26.3227 108.685 29.9896 105.668 28.0315 100.205C25.5395 93.2574 19.3213 91.2265 13.6134 91.6185C13.6134 91.6185 1.44994 91.9391 0.892204 106.749C0.892204 106.749 0.607402 104.492 0.619268 103.459H0.595535Z" fill="#13604E"/>
<path d="M0.597656 64.4463C11.3608 64.4463 20.0948 73.1872 20.0948 83.9589C20.0948 94.7306 11.3608 103.472 0.597656 103.472V64.4463Z" fill="#4DD3B8"/>
<path d="M0.597656 63.9473C11.6219 63.9473 20.5932 72.9257 20.5932 83.9587C20.5932 94.9917 11.6219 103.958 0.597656 103.958V63.9473ZM0.597656 102.973C11.076 102.973 19.5964 94.4454 19.5964 83.9587C19.5964 73.472 11.0642 64.933 0.597656 64.933V102.973Z" fill="#13604E"/>
<path d="M265.368 103.472C276.136 103.472 284.865 94.7354 284.865 83.9589C284.865 73.1824 276.136 64.4463 265.368 64.4463C254.6 64.4463 245.871 73.1824 245.871 83.9589C245.871 94.7354 254.6 103.472 265.368 103.472Z" fill="#4DD3B8"/>
<path d="M245.383 83.9587C245.383 72.9257 254.354 63.9473 265.378 63.9473C276.403 63.9473 285.374 72.9257 285.374 83.9587C285.374 94.9917 276.403 103.97 265.378 103.97C254.354 103.97 245.383 94.9917 245.383 83.9587ZM246.38 83.9587C246.38 94.4454 254.9 102.973 265.378 102.973C275.857 102.973 284.377 94.4454 284.377 83.9587C284.377 73.472 275.857 64.9449 265.378 64.9449C254.9 64.9449 246.38 73.472 246.38 83.9587Z" fill="#13604E"/>
<path d="M271.881 96.963C279.057 96.963 284.875 91.1407 284.875 83.9586C284.875 76.7764 279.057 70.9541 271.881 70.9541C264.704 70.9541 258.887 76.7764 258.887 83.9586C258.887 91.1407 264.704 96.963 271.881 96.963Z" fill="#13604E"/>
<path d="M284.864 83.9588C295.632 83.9588 304.361 75.2227 304.361 64.4462C304.361 53.6697 295.632 44.9336 284.864 44.9336C274.096 44.9336 265.367 53.6697 265.367 64.4462C265.367 75.2227 274.096 83.9588 284.864 83.9588Z" fill="#4DD3B8"/>
<path d="M264.867 64.446C264.867 53.413 273.838 44.4346 284.863 44.4346C295.887 44.4346 304.858 53.413 304.858 64.446C304.858 75.479 295.887 84.4574 284.863 84.4574C273.838 84.4574 264.867 75.479 264.867 64.446ZM265.864 64.446C265.864 74.9327 274.384 83.4598 284.863 83.4598C295.341 83.4598 303.861 74.9327 303.861 64.446C303.861 53.9593 295.341 45.4322 284.863 45.4322C274.384 45.4322 265.864 53.9593 265.864 64.446Z" fill="#13604E"/>
<path d="M284.864 122.984C295.632 122.984 304.361 114.248 304.361 103.472C304.361 92.6951 295.632 83.959 284.864 83.959C274.096 83.959 265.367 92.6951 265.367 103.472C265.367 114.248 274.096 122.984 284.864 122.984Z" fill="#4DD3B8"/>
<path d="M264.867 103.471C264.867 92.4384 273.838 83.46 284.863 83.46C295.887 83.46 304.858 92.4384 304.858 103.471C304.858 114.504 295.887 123.483 284.863 123.483C273.838 123.483 264.867 114.504 264.867 103.471ZM265.864 103.471C265.864 113.958 274.384 122.485 284.863 122.485C295.341 122.485 303.861 113.958 303.861 103.471C303.861 92.9847 295.341 84.4576 284.863 84.4576C274.384 84.4576 265.864 92.9847 265.864 103.471Z" fill="#13604E"/>
<path d="M304.362 64.4463C304.362 64.4463 304.813 52.4157 291.38 51.4419C277.804 50.4562 274.577 60.8241 274.221 62.653C273.793 64.8501 273.936 67.1066 275.917 70.2419C276.713 71.5008 278.611 74.2323 283.821 75.0162C283.821 75.0162 291.902 75.7525 293.528 67.7361C293.528 67.7361 294.169 62.178 288.912 61.1329C288.912 61.1329 287.333 60.8835 286.669 61.5485C286.669 61.5485 285.53 62.8431 286.906 63.6863C287.82 64.2444 289.813 64.0901 290.217 66.8216C290.597 69.3631 288.022 70.9189 286.692 71.3345C283.109 72.4628 280.64 71.7265 278.635 69.6719C278.635 69.6719 274.968 66.6553 276.926 61.1923C279.418 54.2447 285.636 52.2138 291.344 52.6058C291.344 52.6058 303.508 52.9264 304.065 67.7361C304.065 67.7361 304.35 65.4796 304.338 64.4463H304.362Z" fill="#13604E"/>
<path d="M304.362 103.459C304.362 103.459 304.813 91.4284 291.38 90.4546C277.804 89.4689 274.577 99.8368 274.221 101.666C273.793 103.863 273.936 106.119 275.917 109.255C276.713 110.514 278.611 113.245 283.821 114.029C283.821 114.029 291.902 114.765 293.528 106.749C293.528 106.749 294.169 101.191 288.912 100.146C288.912 100.146 287.333 99.8962 286.669 100.561C286.669 100.561 285.53 101.856 286.906 102.699C287.82 103.257 289.813 103.103 290.217 105.834C290.597 108.376 288.022 109.932 286.692 110.347C283.109 111.475 280.64 110.739 278.635 108.685C278.635 108.685 274.968 105.668 276.926 100.205C279.418 93.2574 285.636 91.2265 291.344 91.6185C291.344 91.6185 303.508 91.9391 304.065 106.749C304.065 106.749 304.35 104.492 304.338 103.459H304.362Z" fill="#13604E"/>
<path d="M304.36 64.4463C293.597 64.4463 284.863 73.1872 284.863 83.9589C284.863 94.7306 293.597 103.472 304.36 103.472V64.4463Z" fill="#4DD3B8"/>
<path d="M304.359 103.958C293.335 103.958 284.363 94.98 284.363 83.947C284.363 72.914 293.335 63.9355 304.359 63.9355V103.958ZM304.359 64.9331C293.88 64.9331 285.36 73.4603 285.36 83.947C285.36 94.4337 293.88 102.961 304.359 102.961V64.9331Z" fill="#13604E"/>
</g>
<path d="M12.4237 44.4346H292.575V123.566H12.4237V44.4346ZM12.4237 43.0332C11.6524 43.0332 11.0234 43.6626 11.0234 44.4346V123.566C11.0234 124.338 11.6524 124.967 12.4237 124.967H292.575C293.346 124.967 293.975 124.338 293.975 123.566V44.4346C293.975 43.6626 293.346 43.0332 292.575 43.0332H12.4237Z" fill="#0F594B"/>
</g>
<path d="M85.1324 80.582H83.6285V63.2188H85.1324V80.582ZM84.0777 71.5977H80.6793V70.2891H84.0777V71.5977ZM81.1285 79.6836H79.6832V63.6094H81.1285V79.6836ZM72.7105 75.3477H71.1871V65.3477H72.7105V75.3477ZM72.2613 74.7227C73.2965 74.7292 74.3088 74.6934 75.2984 74.6152C76.2945 74.5306 77.3264 74.3776 78.3941 74.1562L78.5894 75.5234C77.4436 75.7318 76.3596 75.8783 75.3375 75.9629C74.3219 76.0475 73.2965 76.0898 72.2613 76.0898H71.1871V74.7227H72.2613ZM101.031 80.582H99.5074V63.2188H101.031V80.582ZM103.843 71.5781H100.64V70.2891H103.843V71.5781ZM96.5387 65.0938C96.5321 66.7799 96.2522 68.375 95.6988 69.8789C95.1519 71.3763 94.286 72.7598 93.1012 74.0293C91.9163 75.2923 90.4058 76.3763 88.5699 77.2812L87.7105 76.0703C89.3186 75.2695 90.6663 74.3288 91.7535 73.248C92.8472 72.1608 93.6643 70.9564 94.2047 69.6348C94.7515 68.3132 95.0282 66.8841 95.0347 65.3477V65.0938H96.5387ZM95.816 66.3828H88.5113V65.0938H95.816V66.3828ZM118.55 71.0703H117.046V68.3945H118.55V71.0703ZM118.16 64.8203C118.16 65.6667 117.841 66.4186 117.203 67.0762C116.565 67.7337 115.718 68.2643 114.664 68.668C113.615 69.0716 112.476 69.332 111.246 69.4492L110.738 68.2969C111.786 68.2122 112.776 68.0104 113.707 67.6914C114.644 67.3659 115.396 66.9557 115.962 66.4609C116.529 65.9596 116.812 65.4128 116.812 64.8203V64.2734H118.16V64.8203ZM118.804 64.8203C118.804 65.4128 119.087 65.9596 119.654 66.4609C120.22 66.9557 120.969 67.3659 121.9 67.6914C122.831 68.0104 123.824 68.2122 124.878 68.2969L124.371 69.4492C123.14 69.332 122.001 69.0716 120.953 68.668C119.911 68.2643 119.071 67.7337 118.433 67.0762C117.795 66.4186 117.476 65.6667 117.476 64.8203V64.2734H118.804V64.8203ZM124.312 64.9766H111.343V63.7656H124.312V64.9766ZM124.273 75.2305H111.382V74.0195H124.273V75.2305ZM125.777 71.7148H109.878V70.4453H125.777V71.7148ZM117.808 76.0898C118.928 76.0964 119.882 76.1842 120.67 76.3535C121.457 76.5163 122.053 76.7702 122.457 77.1152C122.86 77.4603 123.062 77.8802 123.062 78.375C123.062 78.8763 122.857 79.2962 122.447 79.6348C122.037 79.9798 121.441 80.2402 120.66 80.416C119.878 80.5983 118.928 80.6862 117.808 80.6797C116.109 80.6862 114.81 80.4909 113.912 80.0938C113.013 79.7031 112.567 79.1302 112.574 78.375C112.574 77.8802 112.776 77.4603 113.179 77.1152C113.583 76.7702 114.172 76.5163 114.947 76.3535C115.728 76.1842 116.682 76.0964 117.808 76.0898ZM117.808 77.1641C117.02 77.1706 116.35 77.2194 115.796 77.3105C115.25 77.3952 114.833 77.5286 114.546 77.7109C114.26 77.8867 114.117 78.1081 114.117 78.375C114.117 78.6419 114.263 78.8665 114.556 79.0488C114.849 79.2376 115.269 79.3776 115.816 79.4688C116.369 79.5664 117.033 79.612 117.808 79.6055C118.589 79.612 119.257 79.5664 119.81 79.4688C120.364 79.3776 120.783 79.2376 121.07 79.0488C121.356 78.8665 121.5 78.6419 121.5 78.375C121.5 78.1081 121.356 77.8867 121.07 77.7109C120.783 77.5286 120.364 77.3952 119.81 77.3105C119.263 77.2194 118.596 77.1706 117.808 77.1641ZM118.57 74.8203H117.046V72.3789H118.57V74.8203ZM131.832 64.5664C132.678 64.5664 133.433 64.8138 134.097 65.3086C134.761 65.8034 135.279 66.5098 135.65 67.4277C136.028 68.3457 136.22 69.4102 136.226 70.6211C136.22 71.832 136.028 72.8932 135.65 73.8047C135.279 74.7161 134.761 75.4193 134.097 75.9141C133.433 76.4089 132.678 76.6562 131.832 76.6562C130.979 76.6562 130.22 76.4089 129.556 75.9141C128.899 75.4193 128.384 74.7194 128.013 73.8145C127.642 72.903 127.457 71.8385 127.457 70.6211C127.457 69.4102 127.642 68.3457 128.013 67.4277C128.384 66.5098 128.899 65.8034 129.556 65.3086C130.22 64.8138 130.979 64.5664 131.832 64.5664ZM131.832 65.9336C131.265 65.9336 130.761 66.1289 130.318 66.5195C129.882 66.9102 129.537 67.4603 129.283 68.1699C129.029 68.873 128.902 69.6901 128.902 70.6211C128.902 71.5521 129.029 72.3724 129.283 73.082C129.537 73.7852 129.882 74.3288 130.318 74.7129C130.761 75.097 131.265 75.2891 131.832 75.2891C132.405 75.2891 132.912 75.097 133.355 74.7129C133.798 74.3288 134.14 73.7852 134.38 73.082C134.621 72.3724 134.742 71.5521 134.742 70.6211C134.742 69.6901 134.621 68.873 134.38 68.1699C134.14 67.4603 133.798 66.9102 133.355 66.5195C132.912 66.1289 132.405 65.9336 131.832 65.9336ZM140.621 80.582H139.097V63.2188H140.621V80.582ZM143.531 71.4805H140.269V70.1523H143.531V71.4805ZM157.906 80.582H156.382V63.2188H157.906V80.582ZM160.816 71.6562H157.554V70.3867H160.816V71.6562ZM154.703 67.2812H144.371V66.0117H154.703V67.2812ZM149.625 68.7266C150.432 68.7266 151.158 68.8958 151.802 69.2344C152.447 69.5729 152.951 70.0449 153.316 70.6504C153.687 71.2559 153.876 71.9427 153.882 72.7109C153.876 73.4857 153.687 74.1758 153.316 74.7812C152.951 75.3802 152.447 75.849 151.802 76.1875C151.158 76.526 150.432 76.6953 149.625 76.6953C148.811 76.6953 148.078 76.526 147.427 76.1875C146.783 75.849 146.278 75.3802 145.914 74.7812C145.549 74.1758 145.367 73.4857 145.367 72.7109C145.367 71.9427 145.549 71.2559 145.914 70.6504C146.278 70.0449 146.783 69.5729 147.427 69.2344C148.078 68.8958 148.811 68.7266 149.625 68.7266ZM149.625 70.0156C149.091 70.0156 148.612 70.1296 148.189 70.3574C147.766 70.5853 147.434 70.9076 147.193 71.3242C146.952 71.7344 146.832 72.1966 146.832 72.7109C146.832 73.2318 146.952 73.694 147.193 74.0977C147.434 74.5013 147.766 74.8203 148.189 75.0547C148.612 75.2826 149.091 75.3932 149.625 75.3867C150.152 75.3932 150.627 75.2826 151.05 75.0547C151.48 74.8203 151.812 74.5013 152.046 74.0977C152.287 73.694 152.411 73.2318 152.418 72.7109C152.411 72.1966 152.287 71.7344 152.046 71.3242C151.812 70.9076 151.48 70.5853 151.05 70.3574C150.627 70.1296 150.152 70.0156 149.625 70.0156ZM150.367 66.5977H148.843V63.4336H150.367V66.5977ZM175.796 69.7227H163.902V68.4922H175.796V69.7227ZM177.632 73.3359H161.734V72.0859H177.632V73.3359ZM165.425 69.1172H163.902V63.8633H165.425V69.1172ZM175.894 80.1523H163.804V78.8828H175.894V80.1523ZM165.328 79.2539H163.804V75.1133H165.328V79.2539ZM189.625 67.8867C189.625 69.1367 189.413 70.3574 188.99 71.5488C188.567 72.7402 187.984 73.8047 187.242 74.7422C186.506 75.6732 185.686 76.3828 184.781 76.8711L183.804 75.6406C184.644 75.2305 185.409 74.6152 186.099 73.7949C186.796 72.9681 187.346 72.0371 187.75 71.002C188.16 69.9668 188.368 68.9284 188.375 67.8867V64.7227H189.625V67.8867ZM189.878 67.8867C189.878 68.8828 190.08 69.8789 190.484 70.875C190.888 71.8646 191.431 72.75 192.115 73.5312C192.798 74.3125 193.55 74.9049 194.371 75.3086L193.433 76.5391C192.535 76.0703 191.721 75.3867 190.992 74.4883C190.263 73.5898 189.686 72.5677 189.263 71.4219C188.847 70.2695 188.642 69.0911 188.648 67.8867V64.7227H189.878V67.8867ZM197.496 80.582H195.972V63.2188H197.496V80.582ZM200.406 71.5977H197.144V70.2695H200.406V71.5977ZM214.918 73.5898H213.394V63.2383H214.918V73.5898ZM217.554 69H214.429V67.6914H217.554V69ZM214.918 80.3477H203.921V74.4492H214.918V80.3477ZM205.425 79.0977H213.433V75.6406H205.425V79.0977ZM203.472 71.3828C205.178 71.3893 206.643 71.3568 207.867 71.2852C209.091 71.2135 210.354 71.0703 211.656 70.8555L211.812 72.0859C210.497 72.3138 209.214 72.4701 207.964 72.5547C206.721 72.6328 205.224 72.6719 203.472 72.6719H202.125V71.3828H203.472ZM209.957 68.9219H203.628V72.1445H202.125V67.7305H208.453V65.4453H202.086V64.1758H209.957V68.9219ZM232.945 80.6211H231.402V63.2188H232.945V80.6211ZM223.707 64.5664C224.566 64.5664 225.331 64.8138 226.002 65.3086C226.672 65.8034 227.196 66.5098 227.574 67.4277C227.951 68.3457 228.14 69.4102 228.14 70.6211C228.14 71.832 227.951 72.8932 227.574 73.8047C227.196 74.7161 226.672 75.4193 226.002 75.9141C225.331 76.4089 224.566 76.6562 223.707 76.6562C222.847 76.6562 222.082 76.4089 221.412 75.9141C220.741 75.4193 220.217 74.7161 219.839 73.8047C219.462 72.8932 219.273 71.832 219.273 70.6211C219.273 69.4102 219.462 68.3457 219.839 67.4277C220.217 66.5098 220.741 65.8034 221.412 65.3086C222.082 64.8138 222.847 64.5664 223.707 64.5664ZM223.707 65.9336C223.134 65.9336 222.623 66.1289 222.173 66.5195C221.724 66.9102 221.376 67.4603 221.128 68.1699C220.881 68.8796 220.757 69.6966 220.757 70.6211C220.757 71.5521 220.881 72.3724 221.128 73.082C221.376 73.7852 221.724 74.3288 222.173 74.7129C222.623 75.097 223.134 75.2891 223.707 75.2891C224.286 75.2891 224.797 75.097 225.24 74.7129C225.689 74.3288 226.037 73.7852 226.285 73.082C226.532 72.3724 226.656 71.5521 226.656 70.6211C226.656 69.6901 226.532 68.873 226.285 68.1699C226.037 67.4603 225.689 66.9102 225.24 66.5195C224.797 66.1289 224.286 65.9336 223.707 65.9336ZM86.5582 102.441H83.3551V101.152H86.5582V102.441ZM83.7457 111.582H82.2222V94.2188H83.7457V111.582ZM72.5543 106.68H71.0308V95.9375H72.5543V106.68ZM72.4176 105.879C73.7913 105.885 75.1422 105.827 76.4703 105.703C77.7984 105.579 79.1558 105.371 80.5426 105.078L80.7379 106.387C79.3251 106.673 77.9416 106.875 76.5875 106.992C75.2333 107.109 73.8433 107.168 72.4176 107.168H71.0308V105.879H72.4176ZM103.472 103.496H87.5738V102.285H103.472V103.496ZM101.48 108.574H91.0504V110.645H89.5074V107.52H99.9566V106.035H89.4879V104.883H101.48V108.574ZM102.046 111.348H89.5074V110.234H102.046V111.348ZM101.421 98.3398H91.1676V100.254H89.6441V97.2852H99.8785V95.8594H89.5855V94.7461H101.421V98.3398ZM101.734 100.977H89.6441V99.8633H101.734V100.977ZM118.55 102.07H117.046V99.3945H118.55V102.07ZM118.16 95.8203C118.16 96.6667 117.841 97.4186 117.203 98.0762C116.565 98.7337 115.718 99.2643 114.664 99.668C113.615 100.072 112.476 100.332 111.246 100.449L110.738 99.2969C111.786 99.2122 112.776 99.0104 113.707 98.6914C114.644 98.3659 115.396 97.9557 115.962 97.4609C116.529 96.9596 116.812 96.4128 116.812 95.8203V95.2734H118.16V95.8203ZM118.804 95.8203C118.804 96.4128 119.087 96.9596 119.654 97.4609C120.22 97.9557 120.969 98.3659 121.9 98.6914C122.831 99.0104 123.824 99.2122 124.878 99.2969L124.371 100.449C123.14 100.332 122.001 100.072 120.953 99.668C119.911 99.2643 119.071 98.7337 118.433 98.0762C117.795 97.4186 117.476 96.6667 117.476 95.8203V95.2734H118.804V95.8203ZM124.312 95.9766H111.343V94.7656H124.312V95.9766ZM124.273 106.23H111.382V105.02H124.273V106.23ZM125.777 102.715H109.878V101.445H125.777V102.715ZM117.808 107.09C118.928 107.096 119.882 107.184 120.67 107.354C121.457 107.516 122.053 107.77 122.457 108.115C122.86 108.46 123.062 108.88 123.062 109.375C123.062 109.876 122.857 110.296 122.447 110.635C122.037 110.98 121.441 111.24 120.66 111.416C119.878 111.598 118.928 111.686 117.808 111.68C116.109 111.686 114.81 111.491 113.912 111.094C113.013 110.703 112.567 110.13 112.574 109.375C112.574 108.88 112.776 108.46 113.179 108.115C113.583 107.77 114.172 107.516 114.947 107.354C115.728 107.184 116.682 107.096 117.808 107.09ZM117.808 108.164C117.02 108.171 116.35 108.219 115.796 108.311C115.25 108.395 114.833 108.529 114.546 108.711C114.26 108.887 114.117 109.108 114.117 109.375C114.117 109.642 114.263 109.867 114.556 110.049C114.849 110.238 115.269 110.378 115.816 110.469C116.369 110.566 117.033 110.612 117.808 110.605C118.589 110.612 119.257 110.566 119.81 110.469C120.364 110.378 120.783 110.238 121.07 110.049C121.356 109.867 121.5 109.642 121.5 109.375C121.5 109.108 121.356 108.887 121.07 108.711C120.783 108.529 120.364 108.395 119.81 108.311C119.263 108.219 118.596 108.171 117.808 108.164ZM118.57 105.82H117.046V103.379H118.57V105.82ZM131.832 95.5664C132.678 95.5664 133.433 95.8138 134.097 96.3086C134.761 96.8034 135.279 97.5098 135.65 98.4277C136.028 99.3457 136.22 100.41 136.226 101.621C136.22 102.832 136.028 103.893 135.65 104.805C135.279 105.716 134.761 106.419 134.097 106.914C133.433 107.409 132.678 107.656 131.832 107.656C130.979 107.656 130.22 107.409 129.556 106.914C128.899 106.419 128.384 105.719 128.013 104.814C127.642 103.903 127.457 102.839 127.457 101.621C127.457 100.41 127.642 99.3457 128.013 98.4277C128.384 97.5098 128.899 96.8034 129.556 96.3086C130.22 95.8138 130.979 95.5664 131.832 95.5664ZM131.832 96.9336C131.265 96.9336 130.761 97.1289 130.318 97.5195C129.882 97.9102 129.537 98.4603 129.283 99.1699C129.029 99.873 128.902 100.69 128.902 101.621C128.902 102.552 129.029 103.372 129.283 104.082C129.537 104.785 129.882 105.329 130.318 105.713C130.761 106.097 131.265 106.289 131.832 106.289C132.405 106.289 132.912 106.097 133.355 105.713C133.798 105.329 134.14 104.785 134.38 104.082C134.621 103.372 134.742 102.552 134.742 101.621C134.742 100.69 134.621 99.873 134.38 99.1699C134.14 98.4603 133.798 97.9102 133.355 97.5195C132.912 97.1289 132.405 96.9336 131.832 96.9336ZM140.621 111.582H139.097V94.2188H140.621V111.582ZM143.531 102.48H140.269V101.152H143.531V102.48ZM157.906 111.582H156.382V94.2188H157.906V111.582ZM160.816 102.656H157.554V101.387H160.816V102.656ZM154.703 98.2812H144.371V97.0117H154.703V98.2812ZM149.625 99.7266C150.432 99.7266 151.158 99.8958 151.802 100.234C152.447 100.573 152.951 101.045 153.316 101.65C153.687 102.256 153.876 102.943 153.882 103.711C153.876 104.486 153.687 105.176 153.316 105.781C152.951 106.38 152.447 106.849 151.802 107.188C151.158 107.526 150.432 107.695 149.625 107.695C148.811 107.695 148.078 107.526 147.427 107.188C146.783 106.849 146.278 106.38 145.914 105.781C145.549 105.176 145.367 104.486 145.367 103.711C145.367 102.943 145.549 102.256 145.914 101.65C146.278 101.045 146.783 100.573 147.427 100.234C148.078 99.8958 148.811 99.7266 149.625 99.7266ZM149.625 101.016C149.091 101.016 148.612 101.13 148.189 101.357C147.766 101.585 147.434 101.908 147.193 102.324C146.952 102.734 146.832 103.197 146.832 103.711C146.832 104.232 146.952 104.694 147.193 105.098C147.434 105.501 147.766 105.82 148.189 106.055C148.612 106.283 149.091 106.393 149.625 106.387C150.152 106.393 150.627 106.283 151.05 106.055C151.48 105.82 151.812 105.501 152.046 105.098C152.287 104.694 152.411 104.232 152.418 103.711C152.411 103.197 152.287 102.734 152.046 102.324C151.812 101.908 151.48 101.585 151.05 101.357C150.627 101.13 150.152 101.016 149.625 101.016ZM150.367 97.5977H148.843V94.4336H150.367V97.5977ZM176.617 111.582H175.152V94.2188H176.617V111.582ZM171.949 102.598H167.496V101.348H171.949V102.598ZM172.964 110.703H171.5V94.6875H172.964V110.703ZM169.253 96.4453C169.247 97.9948 169.016 99.4596 168.56 100.84C168.111 102.22 167.398 103.506 166.421 104.697C165.445 105.889 164.195 106.934 162.671 107.832L161.773 106.719C163.121 105.918 164.24 105 165.132 103.965C166.031 102.923 166.692 101.797 167.115 100.586C167.545 99.375 167.763 98.0859 167.769 96.7188V96.4453H169.253ZM168.355 97.7148H162.515V96.4453H168.355V97.7148ZM194.41 102.988H185.484V101.719H194.41V102.988ZM190.601 106.758H189.078V102.715H190.601V106.758ZM194.332 97.1289H186.988V102.188H185.484V95.8789H194.332V97.1289ZM198.296 111.621H196.773V94.2188H198.296V111.621ZM184.156 106.523C186.304 106.523 188.332 106.491 190.24 106.426C192.147 106.361 193.941 106.23 195.621 106.035L195.738 107.188C194.533 107.363 193.277 107.497 191.968 107.588C190.666 107.673 189.397 107.734 188.16 107.773C186.929 107.806 185.666 107.819 184.371 107.812L184.156 106.523ZM215.699 111.582H214.156V94.2188H215.699V111.582ZM210.562 96.1133C210.556 97.832 210.269 99.4401 209.703 100.938C209.143 102.435 208.257 103.815 207.046 105.078C205.836 106.335 204.286 107.415 202.398 108.32L201.558 107.07C203.231 106.276 204.621 105.339 205.728 104.258C206.841 103.177 207.668 101.979 208.209 100.664C208.755 99.3424 209.032 97.9036 209.039 96.3477V96.1133H210.562ZM209.664 97.3633H202.359V96.1133H209.664V97.3633ZM234.507 103.496H218.609V102.285H234.507V103.496ZM232.515 108.574H222.086V110.645H220.543V107.52H230.992V106.035H220.523V104.883H232.515V108.574ZM233.082 111.348H220.543V110.234H233.082V111.348ZM232.457 98.3398H222.203V100.254H220.679V97.2852H230.914V95.8594H220.621V94.7461H232.457V98.3398ZM232.769 100.977H220.679V99.8633H232.769V100.977Z" fill="white"/>
<path d="M14.1436 20.5746H12.6105V3.22652H14.1436V20.5746ZM16.9613 11.5829H13.7431V10.2845H16.9613V11.5829ZM9.6547 5.09116C9.65009 6.78085 9.36925 8.37615 8.81216 9.87707C8.25967 11.3734 7.3895 12.7546 6.20166 14.0207C5.01842 15.2822 3.50829 16.3665 1.67127 17.2735L0.814917 16.0718C2.42634 15.2707 3.77762 14.3292 4.86878 13.2472C5.95995 12.1653 6.77716 10.9613 7.32044 9.63536C7.86372 8.30939 8.13536 6.87753 8.13536 5.33978V5.09116H9.6547ZM8.92265 6.37569H1.62983V5.09116H8.92265V6.37569ZM19.8266 19.1105C19.601 19.1105 19.3892 19.0529 19.1912 18.9378C18.9979 18.8227 18.8436 18.6708 18.7285 18.482C18.618 18.2887 18.5651 18.0792 18.5697 17.8536C18.5651 17.628 18.618 17.4185 18.7285 17.2251C18.8436 17.0272 18.9979 16.8729 19.1912 16.7624C19.3892 16.6519 19.601 16.5967 19.8266 16.5967C20.0522 16.5967 20.2617 16.6519 20.455 16.7624C20.653 16.8729 20.8073 17.0272 20.9178 17.2251C21.0283 17.4185 21.0835 17.628 21.0835 17.8536C21.0835 18.0792 21.0283 18.2887 20.9178 18.482C20.8073 18.6708 20.653 18.8227 20.455 18.9378C20.2617 19.0529 20.0522 19.1105 19.8266 19.1105Z" fill="white"/>
<defs>
<clipPath id="clip0_533_1368">
<rect width="305" height="104" fill="white" transform="translate(0 32)"/>
</clipPath>
</defs>
</svg>
