<svg width="305" height="136" viewBox="0 0 305 136" fill="none" xmlns="http://www.w3.org/2000/svg">
<g clip-path="url(#clip0_533_1270)">
<path d="M1.41397 134.599L303.602 134.599V33.4014L1.41397 33.4014V134.599Z" fill="#4AE6CA"/>
<path d="M2.63443 33.4014H302.366C303.042 33.4014 303.6 33.9477 303.6 34.6365V133.363C303.6 134.04 303.054 134.599 302.366 134.599H2.63443C1.95802 134.599 1.40028 134.052 1.40028 133.363V34.6365C1.40028 33.9596 1.94615 33.4014 2.63443 33.4014ZM2.63443 32C1.17481 32 0 33.1757 0 34.6365V133.363C0 134.812 1.17481 136 2.63443 136H302.366C303.813 136 305 134.824 305 133.363V34.6365C305 33.1757 303.813 32 302.366 32H2.63443Z" fill="#0F594B"/>
<path d="M12.4232 123.565L292.574 123.565V44.4342L12.4232 44.4342V123.565Z" fill="#0F594B"/>
<mask id="mask0_533_1270" style="mask-type:luminance" maskUnits="userSpaceOnUse" x="12" y="44" width="281" height="80">
<path d="M12.4272 123.565L292.578 123.565V44.4342L12.4272 44.4342V123.565Z" fill="white"/>
</mask>
<g mask="url(#mask0_533_1270)">
<path d="M39.5792 103.472C50.3471 103.472 59.0763 94.7354 59.0763 83.9589C59.0763 73.1824 50.3471 64.4463 39.5792 64.4463C28.8112 64.4463 20.082 73.1824 20.082 83.9589C20.082 94.7354 28.8112 103.472 39.5792 103.472Z" fill="#4DD3B8"/>
<path d="M39.5893 103.958C28.565 103.958 19.5938 94.98 19.5938 83.947C19.5938 72.914 28.565 63.9355 39.5893 63.9355C50.6135 63.9355 59.5848 72.914 59.5848 83.947C59.5848 94.98 50.6135 103.958 39.5893 103.958ZM39.5893 64.9331C29.1109 64.9331 20.5906 73.4603 20.5906 83.947C20.5906 94.4337 29.1109 102.961 39.5893 102.961C50.0676 102.961 58.588 94.4337 58.588 83.947C58.588 73.4603 50.0676 64.9331 39.5893 64.9331Z" fill="#13604E"/>
<path d="M33.0762 96.963C40.2526 96.963 46.0703 91.1407 46.0703 83.9586C46.0703 76.7764 40.2526 70.9541 33.0762 70.9541C25.8997 70.9541 20.082 76.7764 20.082 83.9586C20.082 91.1407 25.8997 96.963 33.0762 96.963Z" fill="#13604E"/>
<path d="M20.0948 83.9588C30.8627 83.9588 39.5919 75.2227 39.5919 64.4462C39.5919 53.6697 30.8627 44.9336 20.0948 44.9336C9.32682 44.9336 0.597656 53.6697 0.597656 64.4462C0.597656 75.2227 9.32682 83.9588 20.0948 83.9588Z" fill="#4DD3B8"/>
<path d="M20.0932 84.4455C9.06894 84.4455 0.0976562 75.479 0.0976562 64.446C0.0976562 53.413 9.06894 44.4346 20.0932 44.4346C31.1174 44.4346 40.0887 53.413 40.0887 64.446C40.0887 75.479 31.1174 84.4574 20.0932 84.4574V84.4455ZM20.0932 45.4203C9.61482 45.4322 1.09447 53.9593 1.09447 64.446C1.09447 74.9327 9.61482 83.4598 20.0932 83.4598C30.5716 83.4598 39.0919 74.9327 39.0919 64.446C39.0919 53.9593 30.5716 45.4322 20.0932 45.4322V45.4203Z" fill="#13604E"/>
<path d="M20.0948 122.984C30.8627 122.984 39.5919 114.248 39.5919 103.472C39.5919 92.6951 30.8627 83.959 20.0948 83.959C9.32682 83.959 0.597656 92.6951 0.597656 103.472C0.597656 114.248 9.32682 122.984 20.0948 122.984Z" fill="#4DD3B8"/>
<path d="M20.0932 123.471C9.06894 123.471 0.0976562 114.504 0.0976562 103.471C0.0976562 92.4384 9.06894 83.46 20.0932 83.46C31.1174 83.46 40.0887 92.4384 40.0887 103.471C40.0887 114.504 31.1174 123.483 20.0932 123.483V123.471ZM20.0932 84.4457C9.61482 84.4457 1.09447 92.9847 1.09447 103.471C1.09447 113.958 9.61482 122.485 20.0932 122.485C30.5716 122.485 39.0919 113.958 39.0919 103.471C39.0919 92.9847 30.5716 84.4576 20.0932 84.4576V84.4457Z" fill="#13604E"/>
<path d="M0.59567 64.4463C0.59567 64.4463 0.132866 52.4157 13.5779 51.4419C27.1535 50.4562 30.3813 60.8241 30.7373 62.653C31.1645 64.8501 31.0221 67.1066 29.0403 70.2419C28.2453 71.5008 26.3466 74.2323 21.1371 75.0162C21.1371 75.0162 13.0558 75.7525 11.43 67.7361C11.43 67.7361 10.7892 62.178 16.0462 61.1329C16.0462 61.1329 17.6245 60.8835 18.289 61.5485C18.289 61.5485 19.4283 62.8431 18.0517 63.6863C17.138 64.2444 15.1443 64.0901 14.7409 66.8216C14.3611 69.3631 16.9362 70.9189 18.2653 71.3345C21.8491 72.4628 24.3174 71.7265 26.3229 69.6719C26.3229 69.6719 29.9897 66.6553 28.0317 61.1923C25.5396 54.2447 19.3215 52.2138 13.6135 52.6058C13.6135 52.6058 1.45008 52.9264 0.89234 67.7361C0.89234 67.7361 0.607537 65.4796 0.619404 64.4463H0.59567Z" fill="#13604E"/>
<path d="M0.595535 103.459C0.595535 103.459 0.144597 91.4284 13.5778 90.4546C27.1534 89.4689 30.3812 99.8368 30.7372 101.666C31.1644 103.863 31.022 106.119 29.0402 109.255C28.2451 110.514 26.3464 113.245 21.1369 114.029C21.1369 114.029 13.0557 114.765 11.4299 106.749C11.4299 106.749 10.7891 101.191 16.0461 100.146C16.0461 100.146 17.6244 99.8962 18.2889 100.561C18.2889 100.561 19.4281 101.856 18.0516 102.699C17.1378 103.257 15.1442 103.103 14.7407 105.834C14.361 108.376 16.9361 109.932 18.2652 110.347C21.8489 111.475 24.3172 110.739 26.3227 108.685C26.3227 108.685 29.9896 105.668 28.0315 100.205C25.5395 93.2574 19.3213 91.2265 13.6134 91.6185C13.6134 91.6185 1.44994 91.9391 0.892204 106.749C0.892204 106.749 0.607402 104.492 0.619268 103.459H0.595535Z" fill="#13604E"/>
<path d="M0.597656 64.4463C11.3608 64.4463 20.0948 73.1872 20.0948 83.9589C20.0948 94.7306 11.3608 103.472 0.597656 103.472V64.4463Z" fill="#4DD3B8"/>
<path d="M0.597656 63.9473C11.6219 63.9473 20.5932 72.9257 20.5932 83.9587C20.5932 94.9917 11.6219 103.958 0.597656 103.958V63.9473ZM0.597656 102.973C11.076 102.973 19.5964 94.4454 19.5964 83.9587C19.5964 73.472 11.0642 64.933 0.597656 64.933V102.973Z" fill="#13604E"/>
<path d="M265.368 103.472C276.136 103.472 284.865 94.7354 284.865 83.9589C284.865 73.1824 276.136 64.4463 265.368 64.4463C254.6 64.4463 245.871 73.1824 245.871 83.9589C245.871 94.7354 254.6 103.472 265.368 103.472Z" fill="#4DD3B8"/>
<path d="M245.383 83.9587C245.383 72.9257 254.354 63.9473 265.378 63.9473C276.403 63.9473 285.374 72.9257 285.374 83.9587C285.374 94.9917 276.403 103.97 265.378 103.97C254.354 103.97 245.383 94.9917 245.383 83.9587ZM246.38 83.9587C246.38 94.4454 254.9 102.973 265.378 102.973C275.857 102.973 284.377 94.4454 284.377 83.9587C284.377 73.472 275.857 64.9449 265.378 64.9449C254.9 64.9449 246.38 73.472 246.38 83.9587Z" fill="#13604E"/>
<path d="M271.881 96.963C279.057 96.963 284.875 91.1407 284.875 83.9586C284.875 76.7764 279.057 70.9541 271.881 70.9541C264.704 70.9541 258.887 76.7764 258.887 83.9586C258.887 91.1407 264.704 96.963 271.881 96.963Z" fill="#13604E"/>
<path d="M284.864 83.9588C295.632 83.9588 304.361 75.2227 304.361 64.4462C304.361 53.6697 295.632 44.9336 284.864 44.9336C274.096 44.9336 265.367 53.6697 265.367 64.4462C265.367 75.2227 274.096 83.9588 284.864 83.9588Z" fill="#4DD3B8"/>
<path d="M264.867 64.446C264.867 53.413 273.838 44.4346 284.863 44.4346C295.887 44.4346 304.858 53.413 304.858 64.446C304.858 75.479 295.887 84.4574 284.863 84.4574C273.838 84.4574 264.867 75.479 264.867 64.446ZM265.864 64.446C265.864 74.9327 274.384 83.4598 284.863 83.4598C295.341 83.4598 303.861 74.9327 303.861 64.446C303.861 53.9593 295.341 45.4322 284.863 45.4322C274.384 45.4322 265.864 53.9593 265.864 64.446Z" fill="#13604E"/>
<path d="M284.864 122.984C295.632 122.984 304.361 114.248 304.361 103.472C304.361 92.6951 295.632 83.959 284.864 83.959C274.096 83.959 265.367 92.6951 265.367 103.472C265.367 114.248 274.096 122.984 284.864 122.984Z" fill="#4DD3B8"/>
<path d="M264.867 103.471C264.867 92.4384 273.838 83.46 284.863 83.46C295.887 83.46 304.858 92.4384 304.858 103.471C304.858 114.504 295.887 123.483 284.863 123.483C273.838 123.483 264.867 114.504 264.867 103.471ZM265.864 103.471C265.864 113.958 274.384 122.485 284.863 122.485C295.341 122.485 303.861 113.958 303.861 103.471C303.861 92.9847 295.341 84.4576 284.863 84.4576C274.384 84.4576 265.864 92.9847 265.864 103.471Z" fill="#13604E"/>
<path d="M304.362 64.4463C304.362 64.4463 304.813 52.4157 291.38 51.4419C277.804 50.4562 274.577 60.8241 274.221 62.653C273.793 64.8501 273.936 67.1066 275.917 70.2419C276.713 71.5008 278.611 74.2323 283.821 75.0162C283.821 75.0162 291.902 75.7525 293.528 67.7361C293.528 67.7361 294.169 62.178 288.912 61.1329C288.912 61.1329 287.333 60.8835 286.669 61.5485C286.669 61.5485 285.53 62.8431 286.906 63.6863C287.82 64.2444 289.813 64.0901 290.217 66.8216C290.597 69.3631 288.022 70.9189 286.692 71.3345C283.109 72.4628 280.64 71.7265 278.635 69.6719C278.635 69.6719 274.968 66.6553 276.926 61.1923C279.418 54.2447 285.636 52.2138 291.344 52.6058C291.344 52.6058 303.508 52.9264 304.065 67.7361C304.065 67.7361 304.35 65.4796 304.338 64.4463H304.362Z" fill="#13604E"/>
<path d="M304.362 103.459C304.362 103.459 304.813 91.4284 291.38 90.4546C277.804 89.4689 274.577 99.8368 274.221 101.666C273.793 103.863 273.936 106.119 275.917 109.255C276.713 110.514 278.611 113.245 283.821 114.029C283.821 114.029 291.902 114.765 293.528 106.749C293.528 106.749 294.169 101.191 288.912 100.146C288.912 100.146 287.333 99.8962 286.669 100.561C286.669 100.561 285.53 101.856 286.906 102.699C287.82 103.257 289.813 103.103 290.217 105.834C290.597 108.376 288.022 109.932 286.692 110.347C283.109 111.475 280.64 110.739 278.635 108.685C278.635 108.685 274.968 105.668 276.926 100.205C279.418 93.2574 285.636 91.2265 291.344 91.6185C291.344 91.6185 303.508 91.9391 304.065 106.749C304.065 106.749 304.35 104.492 304.338 103.459H304.362Z" fill="#13604E"/>
<path d="M304.36 64.4463C293.597 64.4463 284.863 73.1872 284.863 83.9589C284.863 94.7306 293.597 103.472 304.36 103.472V64.4463Z" fill="#4DD3B8"/>
<path d="M304.359 103.958C293.335 103.958 284.363 94.98 284.363 83.947C284.363 72.914 293.335 63.9355 304.359 63.9355V103.958ZM304.359 64.9331C293.88 64.9331 285.36 73.4603 285.36 83.947C285.36 94.4337 293.88 102.961 304.359 102.961V64.9331Z" fill="#13604E"/>
</g>
<path d="M12.4237 44.4346H292.575V123.566H12.4237V44.4346ZM12.4237 43.0332C11.6524 43.0332 11.0234 43.6626 11.0234 44.4346V123.566C11.0234 124.338 11.6524 124.967 12.4237 124.967H292.575C293.346 124.967 293.975 124.338 293.975 123.566V44.4346C293.975 43.6626 293.346 43.0332 292.575 43.0332H12.4237Z" fill="#0F594B"/>
</g>
<path d="M116.021 68.3242H114.517V65.9805H116.021V68.3242ZM115.298 60.4336C116.581 60.4336 117.681 60.5508 118.599 60.7852C119.524 61.0195 120.227 61.3613 120.709 61.8105C121.19 62.2598 121.431 62.8034 121.431 63.4414C121.431 64.0859 121.19 64.6361 120.709 65.0918C120.227 65.541 119.527 65.8828 118.609 66.1172C117.691 66.3451 116.587 66.4622 115.298 66.4688C114.003 66.4622 112.896 66.3451 111.978 66.1172C111.067 65.8828 110.367 65.541 109.878 65.0918C109.39 64.6361 109.146 64.0859 109.146 63.4414C109.146 62.8034 109.39 62.2598 109.878 61.8105C110.367 61.3613 111.07 61.0195 111.988 60.7852C112.906 60.5508 114.009 60.4336 115.298 60.4336ZM115.298 61.6055C114.341 61.612 113.521 61.6901 112.837 61.8398C112.16 61.9831 111.64 62.1914 111.275 62.4648C110.917 62.7383 110.741 63.0638 110.748 63.4414C110.741 63.832 110.917 64.1641 111.275 64.4375C111.64 64.7109 112.16 64.9225 112.837 65.0723C113.515 65.2155 114.335 65.2904 115.298 65.2969C116.262 65.2904 117.086 65.2155 117.769 65.0723C118.453 64.9225 118.974 64.7109 119.332 64.4375C119.69 64.1641 119.869 63.832 119.869 63.4414C119.869 63.0638 119.69 62.7383 119.332 62.4648C118.974 62.1914 118.449 61.9831 117.759 61.8398C117.076 61.6901 116.255 61.612 115.298 61.6055ZM123.209 69.0273H107.388V67.7773H123.209V69.0273ZM121.177 74.3789H110.865V76.5469H109.341V73.2461H119.673V71.6836H109.302V70.4922H121.177V74.3789ZM121.705 77.3867H109.341V76.1758H121.705V77.3867ZM133.345 64.4766H124.634V63.2266H133.345V64.4766ZM128.99 65.6484C129.712 65.6484 130.357 65.8177 130.923 66.1562C131.496 66.4948 131.942 66.9635 132.261 67.5625C132.587 68.1549 132.753 68.832 132.759 69.5938C132.753 70.362 132.587 71.0456 132.261 71.6445C131.942 72.2435 131.496 72.7155 130.923 73.0605C130.357 73.4056 129.712 73.5781 128.99 73.5781C128.28 73.5781 127.639 73.4056 127.066 73.0605C126.5 72.7155 126.057 72.2435 125.738 71.6445C125.419 71.0456 125.259 70.362 125.259 69.5938C125.259 68.8385 125.422 68.1615 125.748 67.5625C126.073 66.9635 126.516 66.4948 127.076 66.1562C127.642 65.8177 128.28 65.6484 128.99 65.6484ZM128.99 66.9375C128.534 66.944 128.127 67.0645 127.769 67.2988C127.411 67.5267 127.131 67.8424 126.929 68.2461C126.727 68.6432 126.627 69.0924 126.627 69.5938C126.627 70.1016 126.727 70.554 126.929 70.9512C127.131 71.3483 127.411 71.6608 127.769 71.8887C128.127 72.1165 128.534 72.2305 128.99 72.2305C129.446 72.2305 129.856 72.1165 130.22 71.8887C130.585 71.6608 130.871 71.3483 131.08 70.9512C131.288 70.554 131.392 70.1016 131.392 69.5938C131.392 69.0924 131.288 68.6432 131.08 68.2461C130.871 67.8424 130.585 67.5267 130.22 67.2988C129.856 67.0645 129.446 66.944 128.99 66.9375ZM139.459 77.582H137.994V60.2188H139.459V77.582ZM138.482 68.8125H135.162V67.543H138.482V68.8125ZM135.689 76.7227H134.244V60.6484H135.689V76.7227ZM129.771 63.9883H128.248V60.7461H129.771V63.9883ZM156.002 66.7227H144.107V65.4922H156.002V66.7227ZM157.837 70.3359H141.939V69.0859H157.837V70.3359ZM145.63 66.1172H144.107V60.8633H145.63V66.1172ZM156.099 77.1523H144.009V75.8828H156.099V77.1523ZM145.533 76.2539H144.009V72.1133H145.533V76.2539ZM179.107 77.582H177.642V60.2188H179.107V77.582ZM174.615 67.7383H171.216V66.4883H174.615V67.7383ZM175.591 76.6836H174.146V60.6484H175.591V76.6836ZM169.087 65.1797C169.081 66.4297 168.912 67.6374 168.58 68.8027C168.254 69.9681 167.785 71.0163 167.173 71.9473C166.568 72.8717 165.852 73.5911 165.025 74.1055L164.048 72.9531C164.836 72.4844 165.52 71.8398 166.099 71.0195C166.685 70.1992 167.128 69.2845 167.427 68.2754C167.733 67.2663 167.883 66.2344 167.877 65.1797V62.9141H169.087V65.1797ZM169.361 65.1797C169.361 66.1888 169.511 67.1719 169.81 68.1289C170.11 69.0794 170.539 69.9453 171.099 70.7266C171.659 71.5013 172.33 72.1133 173.111 72.5625L172.173 73.6953C171.34 73.194 170.627 72.5072 170.035 71.6348C169.442 70.7559 168.987 69.763 168.668 68.6562C168.355 67.543 168.202 66.3841 168.209 65.1797V62.9141H169.361V65.1797ZM172.545 63.5391H164.537V62.2695H172.545V63.5391ZM183.795 63.4609H188.853V60.9609H190.377V68.5195H182.291V60.9609H183.795V63.4609ZM188.853 67.2695V64.6523H183.795V67.2695H188.853ZM195.123 69.2031H193.599V60.2188H195.123V69.2031ZM197.74 65.2773H194.439V63.9883H197.74V65.2773ZM195.123 74.2227H185.591V76.8398H184.087V73.0508H193.599V71.2539H184.048V70.0234H195.123V74.2227ZM195.767 77.3867H184.087V76.1367H195.767V77.3867ZM94.898 108.621H93.3746V91.2188H94.898V108.621ZM97.8082 99.3828H94.5465V98.0938H97.8082V99.3828ZM83.5894 102.977C85.2952 102.97 86.7567 102.924 87.9742 102.84C89.1916 102.749 90.4319 102.586 91.6949 102.352L91.8902 103.68C90.6012 103.914 89.3381 104.07 88.1012 104.148C86.8707 104.227 85.3668 104.266 83.5894 104.266H82.2222V102.977H83.5894ZM90.3277 94.1875H83.7457V103.562H82.2222V92.918H90.3277V94.1875ZM113.062 108.621H111.519V91.2188H113.062V108.621ZM103.824 92.5664C104.683 92.5664 105.448 92.8138 106.119 93.3086C106.789 93.8034 107.313 94.5098 107.691 95.4277C108.069 96.3457 108.257 97.4102 108.257 98.6211C108.257 99.832 108.069 100.893 107.691 101.805C107.313 102.716 106.789 103.419 106.119 103.914C105.448 104.409 104.683 104.656 103.824 104.656C102.964 104.656 102.199 104.409 101.529 103.914C100.858 103.419 100.334 102.716 99.9566 101.805C99.579 100.893 99.3902 99.832 99.3902 98.6211C99.3902 97.4102 99.579 96.3457 99.9566 95.4277C100.334 94.5098 100.858 93.8034 101.529 93.3086C102.199 92.8138 102.964 92.5664 103.824 92.5664ZM103.824 93.9336C103.251 93.9336 102.74 94.1289 102.291 94.5195C101.841 94.9102 101.493 95.4603 101.246 96.1699C100.998 96.8796 100.875 97.6966 100.875 98.6211C100.875 99.5521 100.998 100.372 101.246 101.082C101.493 101.785 101.841 102.329 102.291 102.713C102.74 103.097 103.251 103.289 103.824 103.289C104.403 103.289 104.914 103.097 105.357 102.713C105.806 102.329 106.155 101.785 106.402 101.082C106.649 100.372 106.773 99.5521 106.773 98.6211C106.773 97.6901 106.649 96.873 106.402 96.1699C106.155 95.4603 105.806 94.9102 105.357 94.5195C104.914 94.1289 104.403 93.9336 103.824 93.9336ZM120.699 92.5664C121.539 92.5664 122.287 92.8138 122.945 93.3086C123.609 93.8034 124.123 94.5098 124.488 95.4277C124.852 96.3457 125.035 97.4102 125.035 98.6211C125.035 99.8385 124.852 100.903 124.488 101.814C124.123 102.719 123.609 103.419 122.945 103.914C122.287 104.409 121.539 104.656 120.699 104.656C119.846 104.656 119.087 104.409 118.423 103.914C117.766 103.419 117.255 102.719 116.89 101.814C116.526 100.903 116.343 99.8385 116.343 98.6211C116.343 97.4102 116.526 96.3457 116.89 95.4277C117.255 94.5098 117.766 93.8034 118.423 93.3086C119.087 92.8138 119.846 92.5664 120.699 92.5664ZM120.699 93.9336C120.132 93.9336 119.631 94.1289 119.195 94.5195C118.765 94.9102 118.427 95.4603 118.179 96.1699C117.932 96.873 117.808 97.6901 117.808 98.6211C117.808 99.5521 117.932 100.372 118.179 101.082C118.427 101.785 118.765 102.329 119.195 102.713C119.631 103.097 120.132 103.289 120.699 103.289C121.259 103.289 121.76 103.097 122.203 102.713C122.645 102.329 122.987 101.782 123.228 101.072C123.469 100.363 123.589 99.5456 123.589 98.6211C123.589 97.6966 123.469 96.8796 123.228 96.1699C122.987 95.4603 122.645 94.9102 122.203 94.5195C121.76 94.1289 121.259 93.9336 120.699 93.9336ZM130.425 108.621H128.902V91.2188H130.425V108.621ZM129.586 99.1289H124.527V97.8594H129.586V99.1289ZM147.378 101.863H135.367V100.613H147.378V101.863ZM149.214 106.316H133.316V105.047H149.214V106.316ZM147.183 94.0117H136.929V100.984H135.367V92.7227H147.183V94.0117ZM146.812 97.8203H136.441V96.5898H146.812V97.8203ZM161.324 94.0117C161.324 95.1185 161.122 96.1504 160.718 97.1074C160.315 98.0645 159.745 98.8945 159.009 99.5977C158.274 100.301 157.418 100.835 156.441 101.199L155.601 99.9492C156.487 99.6367 157.268 99.1842 157.945 98.5918C158.622 97.9993 159.143 97.3092 159.507 96.5215C159.878 95.7337 160.067 94.8971 160.074 94.0117V92.2148H161.324V94.0117ZM161.597 93.9531C161.591 94.7669 161.767 95.5417 162.125 96.2773C162.489 97.0065 162.997 97.651 163.648 98.2109C164.299 98.7708 165.048 99.194 165.894 99.4805L165.035 100.672C164.104 100.32 163.283 99.8158 162.574 99.1582C161.871 98.5007 161.321 97.7292 160.923 96.8438C160.526 95.9518 160.328 94.9883 160.328 93.9531V92.2148H161.597V93.9531ZM170.015 101.512H168.472V91.2188H170.015V101.512ZM164.253 102.02C165.451 102.02 166.487 102.146 167.359 102.4C168.231 102.654 168.902 103.029 169.371 103.523C169.839 104.018 170.074 104.611 170.074 105.301C170.074 105.984 169.839 106.567 169.371 107.049C168.902 107.537 168.231 107.908 167.359 108.162C166.487 108.416 165.451 108.543 164.253 108.543C163.049 108.543 162.011 108.416 161.138 108.162C160.272 107.908 159.605 107.537 159.136 107.049C158.668 106.567 158.433 105.984 158.433 105.301C158.433 104.611 158.668 104.018 159.136 103.523C159.605 103.029 160.272 102.654 161.138 102.4C162.011 102.146 163.049 102.02 164.253 102.02ZM164.253 103.23C163.368 103.23 162.603 103.312 161.959 103.475C161.314 103.637 160.819 103.875 160.474 104.188C160.129 104.5 159.957 104.871 159.957 105.301C159.957 105.717 160.129 106.076 160.474 106.375C160.819 106.674 161.314 106.906 161.959 107.068C162.603 107.231 163.368 107.312 164.253 107.312C165.132 107.312 165.894 107.231 166.539 107.068C167.19 106.906 167.688 106.674 168.033 106.375C168.378 106.076 168.55 105.717 168.55 105.301C168.55 104.871 168.378 104.5 168.033 104.188C167.688 103.875 167.19 103.637 166.539 103.475C165.894 103.312 165.132 103.23 164.253 103.23ZM168.804 96.2188H164.605V94.9492H168.804V96.2188ZM180.757 102.195C181.994 102.195 183.072 102.319 183.99 102.566C184.908 102.814 185.614 103.178 186.109 103.66C186.604 104.142 186.851 104.715 186.851 105.379C186.851 106.036 186.604 106.6 186.109 107.068C185.614 107.544 184.908 107.908 183.99 108.162C183.072 108.416 181.994 108.543 180.757 108.543C179.52 108.543 178.446 108.416 177.535 108.162C176.623 107.908 175.92 107.544 175.425 107.068C174.931 106.6 174.683 106.036 174.683 105.379C174.683 104.715 174.931 104.142 175.425 103.66C175.92 103.178 176.623 102.814 177.535 102.566C178.446 102.319 179.52 102.195 180.757 102.195ZM180.757 103.367C179.839 103.367 179.035 103.449 178.345 103.611C177.662 103.774 177.134 104.008 176.763 104.314C176.392 104.614 176.207 104.969 176.207 105.379C176.207 105.776 176.392 106.124 176.763 106.424C177.134 106.717 177.662 106.941 178.345 107.098C179.035 107.254 179.839 107.332 180.757 107.332C181.675 107.332 182.476 107.254 183.16 107.098C183.85 106.941 184.38 106.717 184.752 106.424C185.129 106.124 185.321 105.776 185.328 105.379C185.321 104.969 185.129 104.614 184.752 104.314C184.38 104.008 183.85 103.774 183.16 103.611C182.476 103.449 181.675 103.367 180.757 103.367ZM186.07 93.3672H174.8V92.1172H186.07V93.3672ZM188.726 100.574H172.925V99.3242H188.726V100.574ZM180.972 99.7148H179.468V95.9648H180.972V99.7148ZM186.714 93.6602C186.708 94.5846 186.675 95.3757 186.617 96.0332C186.565 96.6908 186.434 97.4102 186.226 98.1914L184.722 98.0156C184.924 97.2409 185.051 96.541 185.103 95.916C185.162 95.291 185.191 94.5651 185.191 93.7383V93.582V92.1172H186.714V93.582V93.6602ZM203.628 108.582H202.105V91.2188H203.628V108.582ZM206.539 99.6562H203.277V98.3867H206.539V99.6562ZM200.425 95.2812H190.093V94.0117H200.425V95.2812ZM195.347 96.7266C196.155 96.7266 196.88 96.8958 197.525 97.2344C198.17 97.5729 198.674 98.0449 199.039 98.6504C199.41 99.2559 199.599 99.9427 199.605 100.711C199.599 101.486 199.41 102.176 199.039 102.781C198.674 103.38 198.17 103.849 197.525 104.188C196.88 104.526 196.155 104.695 195.347 104.695C194.533 104.695 193.801 104.526 193.15 104.188C192.505 103.849 192.001 103.38 191.636 102.781C191.272 102.176 191.089 101.486 191.089 100.711C191.089 99.9427 191.272 99.2559 191.636 98.6504C192.001 98.0449 192.505 97.5729 193.15 97.2344C193.801 96.8958 194.533 96.7266 195.347 96.7266ZM195.347 98.0156C194.813 98.0156 194.335 98.1296 193.912 98.3574C193.489 98.5853 193.156 98.9076 192.916 99.3242C192.675 99.7344 192.554 100.197 192.554 100.711C192.554 101.232 192.675 101.694 192.916 102.098C193.156 102.501 193.489 102.82 193.912 103.055C194.335 103.283 194.813 103.393 195.347 103.387C195.875 103.393 196.35 103.283 196.773 103.055C197.203 102.82 197.535 102.501 197.769 102.098C198.01 101.694 198.134 101.232 198.14 100.711C198.134 100.197 198.01 99.7344 197.769 99.3242C197.535 98.9076 197.203 98.5853 196.773 98.3574C196.35 98.1296 195.875 98.0156 195.347 98.0156ZM196.089 94.5977H194.566V91.4336H196.089V94.5977ZM213.062 96.5508C213.062 97.7292 212.841 98.901 212.398 100.066C211.955 101.225 211.353 102.264 210.591 103.182C209.83 104.1 209.006 104.786 208.121 105.242L207.183 104.031C208.01 103.628 208.778 103.022 209.488 102.215C210.204 101.408 210.774 100.503 211.197 99.5C211.627 98.4974 211.845 97.5143 211.851 96.5508V93.6797H213.062V96.5508ZM213.355 96.5508C213.349 97.4622 213.544 98.3867 213.941 99.3242C214.345 100.262 214.892 101.111 215.582 101.873C216.272 102.628 217.033 103.204 217.867 103.602L216.988 104.812C216.083 104.37 215.259 103.715 214.517 102.85C213.781 101.984 213.199 101.001 212.769 99.9004C212.339 98.7936 212.125 97.6771 212.125 96.5508V93.6797H213.355V96.5508ZM217.261 94.2852H207.808V93.0156H217.261V94.2852ZM220.914 108.582H219.39V91.2188H220.914V108.582ZM223.824 99.5586H220.562V98.25H223.824V99.5586Z" fill="white"/>
<path d="M14.1436 20.616H12.6105V3.22652H14.1436V20.616ZM17.0442 11.3757H13.7983V10.0912H17.0442V11.3757ZM2.83149 14.9669C4.53039 14.9669 5.98987 14.9231 7.20995 14.8356C8.43462 14.7482 9.67772 14.5893 10.9392 14.3591L11.1326 15.6851C9.84346 15.9153 8.58195 16.0695 7.34807 16.1478C6.11418 16.2261 4.60866 16.2652 2.83149 16.2652H1.46409V14.9669H2.83149ZM9.57182 6.18232H2.99724V15.5608H1.46409V4.92541H9.57182V6.18232ZM19.8266 19.1105C19.601 19.1105 19.3892 19.0529 19.1912 18.9378C18.9979 18.8227 18.8436 18.6708 18.7285 18.482C18.618 18.2887 18.5651 18.0792 18.5697 17.8536C18.5651 17.628 18.618 17.4185 18.7285 17.2251C18.8436 17.0272 18.9979 16.8729 19.1912 16.7624C19.3892 16.6519 19.601 16.5967 19.8266 16.5967C20.0522 16.5967 20.2617 16.6519 20.455 16.7624C20.653 16.8729 20.8073 17.0272 20.9178 17.2251C21.0283 17.4185 21.0835 17.628 21.0835 17.8536C21.0835 18.0792 21.0283 18.2887 20.9178 18.482C20.8073 18.6708 20.653 18.8227 20.455 18.9378C20.2617 19.0529 20.0522 19.1105 19.8266 19.1105Z" fill="white"/>
<defs>
<clipPath id="clip0_533_1270">
<rect width="305" height="104" fill="white" transform="translate(0 32)"/>
</clipPath>
</defs>
</svg>
