<svg width="305" height="136" viewBox="0 0 305 136" fill="none" xmlns="http://www.w3.org/2000/svg">
<g clip-path="url(#clip0_533_1221)">
<path d="M1.41397 134.599L303.602 134.599V33.4014L1.41397 33.4014V134.599Z" fill="#4AE6CA"/>
<path d="M2.63443 33.4014H302.366C303.042 33.4014 303.6 33.9477 303.6 34.6365V133.363C303.6 134.04 303.054 134.599 302.366 134.599H2.63443C1.95802 134.599 1.40028 134.052 1.40028 133.363V34.6365C1.40028 33.9596 1.94615 33.4014 2.63443 33.4014ZM2.63443 32C1.17481 32 0 33.1757 0 34.6365V133.363C0 134.812 1.17481 136 2.63443 136H302.366C303.813 136 305 134.824 305 133.363V34.6365C305 33.1757 303.813 32 302.366 32H2.63443Z" fill="#0F594B"/>
<path d="M12.4232 123.565L292.574 123.565V44.4342L12.4232 44.4342V123.565Z" fill="#0F594B"/>
<mask id="mask0_533_1221" style="mask-type:luminance" maskUnits="userSpaceOnUse" x="12" y="44" width="281" height="80">
<path d="M12.4272 123.565L292.578 123.565V44.4342L12.4272 44.4342V123.565Z" fill="white"/>
</mask>
<g mask="url(#mask0_533_1221)">
<path d="M39.5792 103.472C50.3471 103.472 59.0763 94.7354 59.0763 83.9589C59.0763 73.1824 50.3471 64.4463 39.5792 64.4463C28.8112 64.4463 20.082 73.1824 20.082 83.9589C20.082 94.7354 28.8112 103.472 39.5792 103.472Z" fill="#4DD3B8"/>
<path d="M39.5893 103.958C28.565 103.958 19.5938 94.98 19.5938 83.947C19.5938 72.914 28.565 63.9355 39.5893 63.9355C50.6135 63.9355 59.5848 72.914 59.5848 83.947C59.5848 94.98 50.6135 103.958 39.5893 103.958ZM39.5893 64.9331C29.1109 64.9331 20.5906 73.4603 20.5906 83.947C20.5906 94.4337 29.1109 102.961 39.5893 102.961C50.0676 102.961 58.588 94.4337 58.588 83.947C58.588 73.4603 50.0676 64.9331 39.5893 64.9331Z" fill="#13604E"/>
<path d="M33.0762 96.963C40.2526 96.963 46.0703 91.1407 46.0703 83.9586C46.0703 76.7764 40.2526 70.9541 33.0762 70.9541C25.8997 70.9541 20.082 76.7764 20.082 83.9586C20.082 91.1407 25.8997 96.963 33.0762 96.963Z" fill="#13604E"/>
<path d="M20.0948 83.9588C30.8627 83.9588 39.5919 75.2227 39.5919 64.4462C39.5919 53.6697 30.8627 44.9336 20.0948 44.9336C9.32682 44.9336 0.597656 53.6697 0.597656 64.4462C0.597656 75.2227 9.32682 83.9588 20.0948 83.9588Z" fill="#4DD3B8"/>
<path d="M20.0932 84.4455C9.06894 84.4455 0.0976562 75.479 0.0976562 64.446C0.0976562 53.413 9.06894 44.4346 20.0932 44.4346C31.1174 44.4346 40.0887 53.413 40.0887 64.446C40.0887 75.479 31.1174 84.4574 20.0932 84.4574V84.4455ZM20.0932 45.4203C9.61482 45.4322 1.09447 53.9593 1.09447 64.446C1.09447 74.9327 9.61482 83.4598 20.0932 83.4598C30.5716 83.4598 39.0919 74.9327 39.0919 64.446C39.0919 53.9593 30.5716 45.4322 20.0932 45.4322V45.4203Z" fill="#13604E"/>
<path d="M20.0948 122.984C30.8627 122.984 39.5919 114.248 39.5919 103.472C39.5919 92.6951 30.8627 83.959 20.0948 83.959C9.32682 83.959 0.597656 92.6951 0.597656 103.472C0.597656 114.248 9.32682 122.984 20.0948 122.984Z" fill="#4DD3B8"/>
<path d="M20.0932 123.471C9.06894 123.471 0.0976562 114.504 0.0976562 103.471C0.0976562 92.4384 9.06894 83.46 20.0932 83.46C31.1174 83.46 40.0887 92.4384 40.0887 103.471C40.0887 114.504 31.1174 123.483 20.0932 123.483V123.471ZM20.0932 84.4457C9.61482 84.4457 1.09447 92.9847 1.09447 103.471C1.09447 113.958 9.61482 122.485 20.0932 122.485C30.5716 122.485 39.0919 113.958 39.0919 103.471C39.0919 92.9847 30.5716 84.4576 20.0932 84.4576V84.4457Z" fill="#13604E"/>
<path d="M0.59567 64.4463C0.59567 64.4463 0.132866 52.4157 13.5779 51.4419C27.1535 50.4562 30.3813 60.8241 30.7373 62.653C31.1645 64.8501 31.0221 67.1066 29.0403 70.2419C28.2453 71.5008 26.3466 74.2323 21.1371 75.0162C21.1371 75.0162 13.0558 75.7525 11.43 67.7361C11.43 67.7361 10.7892 62.178 16.0462 61.1329C16.0462 61.1329 17.6245 60.8835 18.289 61.5485C18.289 61.5485 19.4283 62.8431 18.0517 63.6863C17.138 64.2444 15.1443 64.0901 14.7409 66.8216C14.3611 69.3631 16.9362 70.9189 18.2653 71.3345C21.8491 72.4628 24.3174 71.7265 26.3229 69.6719C26.3229 69.6719 29.9897 66.6553 28.0317 61.1923C25.5396 54.2447 19.3215 52.2138 13.6135 52.6058C13.6135 52.6058 1.45008 52.9264 0.89234 67.7361C0.89234 67.7361 0.607537 65.4796 0.619404 64.4463H0.59567Z" fill="#13604E"/>
<path d="M0.595535 103.459C0.595535 103.459 0.144597 91.4284 13.5778 90.4546C27.1534 89.4689 30.3812 99.8368 30.7372 101.666C31.1644 103.863 31.022 106.119 29.0402 109.255C28.2451 110.514 26.3464 113.245 21.1369 114.029C21.1369 114.029 13.0557 114.765 11.4299 106.749C11.4299 106.749 10.7891 101.191 16.0461 100.146C16.0461 100.146 17.6244 99.8962 18.2889 100.561C18.2889 100.561 19.4281 101.856 18.0516 102.699C17.1378 103.257 15.1442 103.103 14.7407 105.834C14.361 108.376 16.9361 109.932 18.2652 110.347C21.8489 111.475 24.3172 110.739 26.3227 108.685C26.3227 108.685 29.9896 105.668 28.0315 100.205C25.5395 93.2574 19.3213 91.2265 13.6134 91.6185C13.6134 91.6185 1.44994 91.9391 0.892204 106.749C0.892204 106.749 0.607402 104.492 0.619268 103.459H0.595535Z" fill="#13604E"/>
<path d="M0.597656 64.4463C11.3608 64.4463 20.0948 73.1872 20.0948 83.9589C20.0948 94.7306 11.3608 103.472 0.597656 103.472V64.4463Z" fill="#4DD3B8"/>
<path d="M0.597656 63.9473C11.6219 63.9473 20.5932 72.9257 20.5932 83.9587C20.5932 94.9917 11.6219 103.958 0.597656 103.958V63.9473ZM0.597656 102.973C11.076 102.973 19.5964 94.4454 19.5964 83.9587C19.5964 73.472 11.0642 64.933 0.597656 64.933V102.973Z" fill="#13604E"/>
<path d="M265.368 103.472C276.136 103.472 284.865 94.7354 284.865 83.9589C284.865 73.1824 276.136 64.4463 265.368 64.4463C254.6 64.4463 245.871 73.1824 245.871 83.9589C245.871 94.7354 254.6 103.472 265.368 103.472Z" fill="#4DD3B8"/>
<path d="M245.383 83.9587C245.383 72.9257 254.354 63.9473 265.378 63.9473C276.403 63.9473 285.374 72.9257 285.374 83.9587C285.374 94.9917 276.403 103.97 265.378 103.97C254.354 103.97 245.383 94.9917 245.383 83.9587ZM246.38 83.9587C246.38 94.4454 254.9 102.973 265.378 102.973C275.857 102.973 284.377 94.4454 284.377 83.9587C284.377 73.472 275.857 64.9449 265.378 64.9449C254.9 64.9449 246.38 73.472 246.38 83.9587Z" fill="#13604E"/>
<path d="M271.881 96.963C279.057 96.963 284.875 91.1407 284.875 83.9586C284.875 76.7764 279.057 70.9541 271.881 70.9541C264.704 70.9541 258.887 76.7764 258.887 83.9586C258.887 91.1407 264.704 96.963 271.881 96.963Z" fill="#13604E"/>
<path d="M284.864 83.9588C295.632 83.9588 304.361 75.2227 304.361 64.4462C304.361 53.6697 295.632 44.9336 284.864 44.9336C274.096 44.9336 265.367 53.6697 265.367 64.4462C265.367 75.2227 274.096 83.9588 284.864 83.9588Z" fill="#4DD3B8"/>
<path d="M264.867 64.446C264.867 53.413 273.838 44.4346 284.863 44.4346C295.887 44.4346 304.858 53.413 304.858 64.446C304.858 75.479 295.887 84.4574 284.863 84.4574C273.838 84.4574 264.867 75.479 264.867 64.446ZM265.864 64.446C265.864 74.9327 274.384 83.4598 284.863 83.4598C295.341 83.4598 303.861 74.9327 303.861 64.446C303.861 53.9593 295.341 45.4322 284.863 45.4322C274.384 45.4322 265.864 53.9593 265.864 64.446Z" fill="#13604E"/>
<path d="M284.864 122.984C295.632 122.984 304.361 114.248 304.361 103.472C304.361 92.6951 295.632 83.959 284.864 83.959C274.096 83.959 265.367 92.6951 265.367 103.472C265.367 114.248 274.096 122.984 284.864 122.984Z" fill="#4DD3B8"/>
<path d="M264.867 103.471C264.867 92.4384 273.838 83.46 284.863 83.46C295.887 83.46 304.858 92.4384 304.858 103.471C304.858 114.504 295.887 123.483 284.863 123.483C273.838 123.483 264.867 114.504 264.867 103.471ZM265.864 103.471C265.864 113.958 274.384 122.485 284.863 122.485C295.341 122.485 303.861 113.958 303.861 103.471C303.861 92.9847 295.341 84.4576 284.863 84.4576C274.384 84.4576 265.864 92.9847 265.864 103.471Z" fill="#13604E"/>
<path d="M304.362 64.4463C304.362 64.4463 304.813 52.4157 291.38 51.4419C277.804 50.4562 274.577 60.8241 274.221 62.653C273.793 64.8501 273.936 67.1066 275.917 70.2419C276.713 71.5008 278.611 74.2323 283.821 75.0162C283.821 75.0162 291.902 75.7525 293.528 67.7361C293.528 67.7361 294.169 62.178 288.912 61.1329C288.912 61.1329 287.333 60.8835 286.669 61.5485C286.669 61.5485 285.53 62.8431 286.906 63.6863C287.82 64.2444 289.813 64.0901 290.217 66.8216C290.597 69.3631 288.022 70.9189 286.692 71.3345C283.109 72.4628 280.64 71.7265 278.635 69.6719C278.635 69.6719 274.968 66.6553 276.926 61.1923C279.418 54.2447 285.636 52.2138 291.344 52.6058C291.344 52.6058 303.508 52.9264 304.065 67.7361C304.065 67.7361 304.35 65.4796 304.338 64.4463H304.362Z" fill="#13604E"/>
<path d="M304.362 103.459C304.362 103.459 304.813 91.4284 291.38 90.4546C277.804 89.4689 274.577 99.8368 274.221 101.666C273.793 103.863 273.936 106.119 275.917 109.255C276.713 110.514 278.611 113.245 283.821 114.029C283.821 114.029 291.902 114.765 293.528 106.749C293.528 106.749 294.169 101.191 288.912 100.146C288.912 100.146 287.333 99.8962 286.669 100.561C286.669 100.561 285.53 101.856 286.906 102.699C287.82 103.257 289.813 103.103 290.217 105.834C290.597 108.376 288.022 109.932 286.692 110.347C283.109 111.475 280.64 110.739 278.635 108.685C278.635 108.685 274.968 105.668 276.926 100.205C279.418 93.2574 285.636 91.2265 291.344 91.6185C291.344 91.6185 303.508 91.9391 304.065 106.749C304.065 106.749 304.35 104.492 304.338 103.459H304.362Z" fill="#13604E"/>
<path d="M304.36 64.4463C293.597 64.4463 284.863 73.1872 284.863 83.9589C284.863 94.7306 293.597 103.472 304.36 103.472V64.4463Z" fill="#4DD3B8"/>
<path d="M304.359 103.958C293.335 103.958 284.363 94.98 284.363 83.947C284.363 72.914 293.335 63.9355 304.359 63.9355V103.958ZM304.359 64.9331C293.88 64.9331 285.36 73.4603 285.36 83.947C285.36 94.4337 293.88 102.961 304.359 102.961V64.9331Z" fill="#13604E"/>
</g>
<path d="M12.4237 44.4346H292.575V123.566H12.4237V44.4346ZM12.4237 43.0332C11.6524 43.0332 11.0234 43.6626 11.0234 44.4346V123.566C11.0234 124.338 11.6524 124.967 12.4237 124.967H292.575C293.346 124.967 293.975 124.338 293.975 123.566V44.4346C293.975 43.6626 293.346 43.0332 292.575 43.0332H12.4237Z" fill="#0F594B"/>
</g>
<path d="M134.361 84.4727H118.541V83.2031H134.361V84.4727ZM127.212 83.6133H125.689V80.5859H127.212V83.6133ZM132.408 91.582H130.865V87.4219H120.298V86.1914H132.408V91.582ZM122.173 76.6406H130.767V74.6289H132.291V81.1133H120.65V74.6289H122.173V76.6406ZM130.767 79.8828V77.8125H122.173V79.8828H130.767ZM142.193 86.2109H140.67V81.9922H142.193V86.2109ZM150.201 87.3633H148.638V74.2383H150.201V87.3633ZM150.63 91.2109H138.306V89.9219H150.63V91.2109ZM139.849 90.332H138.306V85.8984H139.849V90.332ZM135.709 81.1133C135.949 81.1133 136.19 81.1133 136.431 81.1133C138.469 81.1003 140.36 81.0579 142.105 80.9863C143.856 80.9082 145.507 80.7617 147.056 80.5469L147.173 81.6602C145.474 81.9466 143.697 82.1387 141.841 82.2363C139.992 82.3275 138.02 82.3763 135.923 82.3828L135.709 81.1133ZM149.029 84.9219H144.81V83.6719H149.029V84.9219ZM144.849 76.543H137.271V75.293H144.849V76.543ZM145.435 75.9766C145.442 76.7578 145.416 77.5749 145.357 78.4277C145.305 79.2806 145.175 80.2539 144.966 81.3477L143.443 81.2305C143.645 80.1432 143.772 79.196 143.824 78.3887C143.882 77.5749 143.912 76.7708 143.912 75.9766V75.293H145.435V75.9766ZM166.705 84.5898H165.162V74.2188H166.705V84.5898ZM169.302 80.0391H166.255V78.75H169.302V80.0391ZM161.119 84.9219C162.297 84.9219 163.316 85.0521 164.175 85.3125C165.041 85.5729 165.702 85.9538 166.158 86.4551C166.614 86.9499 166.841 87.5391 166.841 88.2227C166.841 88.9193 166.614 89.515 166.158 90.0098C165.702 90.5111 165.041 90.8919 164.175 91.1523C163.316 91.4128 162.297 91.543 161.119 91.543C159.94 91.543 158.918 91.4128 158.052 91.1523C157.193 90.8919 156.529 90.5111 156.06 90.0098C155.591 89.515 155.357 88.9193 155.357 88.2227C155.357 87.5391 155.591 86.9499 156.06 86.4551C156.529 85.9538 157.193 85.5729 158.052 85.3125C158.918 85.0521 159.94 84.9219 161.119 84.9219ZM161.119 86.1914C160.253 86.1849 159.501 86.263 158.863 86.4258C158.231 86.582 157.74 86.8164 157.388 87.1289C157.037 87.4349 156.861 87.7995 156.861 88.2227C156.861 88.6458 157.033 89.0169 157.378 89.3359C157.724 89.6484 158.215 89.8893 158.853 90.0586C159.498 90.2279 160.253 90.3125 161.119 90.3125C161.978 90.3125 162.73 90.2279 163.375 90.0586C164.019 89.8893 164.511 89.6484 164.849 89.3359C165.188 89.0169 165.357 88.6458 165.357 88.2227C165.357 87.7995 165.188 87.4349 164.849 87.1289C164.511 86.8164 164.019 86.582 163.375 86.4258C162.73 86.263 161.978 86.1849 161.119 86.1914ZM155.259 81.9141C157.18 81.901 158.713 81.8555 159.859 81.7773C161.011 81.6992 162.154 81.543 163.287 81.3086L163.443 82.5781C162.278 82.8125 161.106 82.9688 159.927 83.0469C158.755 83.125 157.199 83.1641 155.259 83.1641H153.912V81.9141H155.259ZM161.627 76.8164H155.416V82.7344H153.912V75.5469H161.627V76.8164ZM176.06 77.9102C176.06 78.8802 175.855 79.7884 175.445 80.6348C175.035 81.4746 174.459 82.2038 173.716 82.8223C172.974 83.4408 172.121 83.9062 171.158 84.2188L170.396 83.0273C171.255 82.7669 172.02 82.3796 172.691 81.8652C173.362 81.3509 173.882 80.7552 174.253 80.0781C174.625 79.3945 174.81 78.6719 174.81 77.9102V77.1484H176.06V77.9102ZM176.314 77.9102C176.314 78.6198 176.506 79.2936 176.89 79.9316C177.274 80.5632 177.798 81.1165 178.462 81.5918C179.133 82.0671 179.895 82.4284 180.748 82.6758L180.045 83.8867C179.068 83.6003 178.205 83.1673 177.457 82.5879C176.708 82.0085 176.122 81.3184 175.699 80.5176C175.276 79.7103 175.064 78.8411 175.064 77.9102V77.1484H176.314V77.9102ZM180.24 77.5195H170.884V76.2891H180.24V77.5195ZM176.353 76.7773H174.81V74.1406H176.353V76.7773ZM183.677 80.3711H179.732V79.1016H183.677V80.3711ZM184.791 84.5117H183.248V74.2188H184.791V84.5117ZM184.791 91.3477H173.443V85.4102H184.791V91.3477ZM174.966 90.0977H183.287V86.6602H174.966V90.0977Z" fill="white"/>
<path d="M14.1436 20.616H12.6243V3.22652H14.1436V20.616ZM17.0442 11.4309H13.7983V10.1326H17.0442V11.4309ZM2.80387 15.1188C4.56262 15.1188 6.05893 15.0773 7.29282 14.9945C8.53131 14.907 9.78821 14.7459 11.0635 14.511L11.2155 15.7818C9.90792 16.0212 8.62339 16.1846 7.36188 16.2721C6.10037 16.3596 4.58103 16.4079 2.80387 16.4171H1.42265V15.1188H2.80387ZM9.28177 11.058H2.94199V15.6436H1.42265V9.78729H7.74862V6.11326H1.38122V4.84254H9.28177V11.058ZM19.8266 19.1105C19.601 19.1105 19.3892 19.0529 19.1912 18.9378C18.9979 18.8227 18.8436 18.6708 18.7285 18.482C18.618 18.2887 18.5651 18.0792 18.5697 17.8536C18.5651 17.628 18.618 17.4185 18.7285 17.2251C18.8436 17.0272 18.9979 16.8729 19.1912 16.7624C19.3892 16.6519 19.601 16.5967 19.8266 16.5967C20.0522 16.5967 20.2617 16.6519 20.455 16.7624C20.653 16.8729 20.8073 17.0272 20.9178 17.2251C21.0283 17.4185 21.0835 17.628 21.0835 17.8536C21.0835 18.0792 21.0283 18.2887 20.9178 18.482C20.8073 18.6708 20.653 18.8227 20.455 18.9378C20.2617 19.0529 20.0522 19.1105 19.8266 19.1105Z" fill="white"/>
<defs>
<clipPath id="clip0_533_1221">
<rect width="305" height="104" fill="white" transform="translate(0 32)"/>
</clipPath>
</defs>
</svg>
