<svg width="305" height="136" viewBox="0 0 305 136" fill="none" xmlns="http://www.w3.org/2000/svg">
<g clip-path="url(#clip0_533_1319)">
<path d="M1.41397 134.599L303.602 134.599V33.4014L1.41397 33.4014V134.599Z" fill="#4AE6CA"/>
<path d="M2.63443 33.4014H302.366C303.042 33.4014 303.6 33.9477 303.6 34.6365V133.363C303.6 134.04 303.054 134.599 302.366 134.599H2.63443C1.95802 134.599 1.40028 134.052 1.40028 133.363V34.6365C1.40028 33.9596 1.94615 33.4014 2.63443 33.4014ZM2.63443 32C1.17481 32 0 33.1757 0 34.6365V133.363C0 134.812 1.17481 136 2.63443 136H302.366C303.813 136 305 134.824 305 133.363V34.6365C305 33.1757 303.813 32 302.366 32H2.63443Z" fill="#0F594B"/>
<path d="M12.4232 123.565L292.574 123.565V44.4342L12.4232 44.4342V123.565Z" fill="#0F594B"/>
<mask id="mask0_533_1319" style="mask-type:luminance" maskUnits="userSpaceOnUse" x="12" y="44" width="281" height="80">
<path d="M12.4272 123.565L292.578 123.565V44.4342L12.4272 44.4342V123.565Z" fill="white"/>
</mask>
<g mask="url(#mask0_533_1319)">
<path d="M39.5792 103.472C50.3471 103.472 59.0763 94.7354 59.0763 83.9589C59.0763 73.1824 50.3471 64.4463 39.5792 64.4463C28.8112 64.4463 20.082 73.1824 20.082 83.9589C20.082 94.7354 28.8112 103.472 39.5792 103.472Z" fill="#4DD3B8"/>
<path d="M39.5893 103.958C28.565 103.958 19.5938 94.98 19.5938 83.947C19.5938 72.914 28.565 63.9355 39.5893 63.9355C50.6135 63.9355 59.5848 72.914 59.5848 83.947C59.5848 94.98 50.6135 103.958 39.5893 103.958ZM39.5893 64.9331C29.1109 64.9331 20.5906 73.4603 20.5906 83.947C20.5906 94.4337 29.1109 102.961 39.5893 102.961C50.0676 102.961 58.588 94.4337 58.588 83.947C58.588 73.4603 50.0676 64.9331 39.5893 64.9331Z" fill="#13604E"/>
<path d="M33.0762 96.963C40.2526 96.963 46.0703 91.1407 46.0703 83.9586C46.0703 76.7764 40.2526 70.9541 33.0762 70.9541C25.8997 70.9541 20.082 76.7764 20.082 83.9586C20.082 91.1407 25.8997 96.963 33.0762 96.963Z" fill="#13604E"/>
<path d="M20.0948 83.9588C30.8627 83.9588 39.5919 75.2227 39.5919 64.4462C39.5919 53.6697 30.8627 44.9336 20.0948 44.9336C9.32682 44.9336 0.597656 53.6697 0.597656 64.4462C0.597656 75.2227 9.32682 83.9588 20.0948 83.9588Z" fill="#4DD3B8"/>
<path d="M20.0932 84.4455C9.06894 84.4455 0.0976562 75.479 0.0976562 64.446C0.0976562 53.413 9.06894 44.4346 20.0932 44.4346C31.1174 44.4346 40.0887 53.413 40.0887 64.446C40.0887 75.479 31.1174 84.4574 20.0932 84.4574V84.4455ZM20.0932 45.4203C9.61482 45.4322 1.09447 53.9593 1.09447 64.446C1.09447 74.9327 9.61482 83.4598 20.0932 83.4598C30.5716 83.4598 39.0919 74.9327 39.0919 64.446C39.0919 53.9593 30.5716 45.4322 20.0932 45.4322V45.4203Z" fill="#13604E"/>
<path d="M20.0948 122.984C30.8627 122.984 39.5919 114.248 39.5919 103.472C39.5919 92.6951 30.8627 83.959 20.0948 83.959C9.32682 83.959 0.597656 92.6951 0.597656 103.472C0.597656 114.248 9.32682 122.984 20.0948 122.984Z" fill="#4DD3B8"/>
<path d="M20.0932 123.471C9.06894 123.471 0.0976562 114.504 0.0976562 103.471C0.0976562 92.4384 9.06894 83.46 20.0932 83.46C31.1174 83.46 40.0887 92.4384 40.0887 103.471C40.0887 114.504 31.1174 123.483 20.0932 123.483V123.471ZM20.0932 84.4457C9.61482 84.4457 1.09447 92.9847 1.09447 103.471C1.09447 113.958 9.61482 122.485 20.0932 122.485C30.5716 122.485 39.0919 113.958 39.0919 103.471C39.0919 92.9847 30.5716 84.4576 20.0932 84.4576V84.4457Z" fill="#13604E"/>
<path d="M0.59567 64.4463C0.59567 64.4463 0.132866 52.4157 13.5779 51.4419C27.1535 50.4562 30.3813 60.8241 30.7373 62.653C31.1645 64.8501 31.0221 67.1066 29.0403 70.2419C28.2453 71.5008 26.3466 74.2323 21.1371 75.0162C21.1371 75.0162 13.0558 75.7525 11.43 67.7361C11.43 67.7361 10.7892 62.178 16.0462 61.1329C16.0462 61.1329 17.6245 60.8835 18.289 61.5485C18.289 61.5485 19.4283 62.8431 18.0517 63.6863C17.138 64.2444 15.1443 64.0901 14.7409 66.8216C14.3611 69.3631 16.9362 70.9189 18.2653 71.3345C21.8491 72.4628 24.3174 71.7265 26.3229 69.6719C26.3229 69.6719 29.9897 66.6553 28.0317 61.1923C25.5396 54.2447 19.3215 52.2138 13.6135 52.6058C13.6135 52.6058 1.45008 52.9264 0.89234 67.7361C0.89234 67.7361 0.607537 65.4796 0.619404 64.4463H0.59567Z" fill="#13604E"/>
<path d="M0.595535 103.459C0.595535 103.459 0.144597 91.4284 13.5778 90.4546C27.1534 89.4689 30.3812 99.8368 30.7372 101.666C31.1644 103.863 31.022 106.119 29.0402 109.255C28.2451 110.514 26.3464 113.245 21.1369 114.029C21.1369 114.029 13.0557 114.765 11.4299 106.749C11.4299 106.749 10.7891 101.191 16.0461 100.146C16.0461 100.146 17.6244 99.8962 18.2889 100.561C18.2889 100.561 19.4281 101.856 18.0516 102.699C17.1378 103.257 15.1442 103.103 14.7407 105.834C14.361 108.376 16.9361 109.932 18.2652 110.347C21.8489 111.475 24.3172 110.739 26.3227 108.685C26.3227 108.685 29.9896 105.668 28.0315 100.205C25.5395 93.2574 19.3213 91.2265 13.6134 91.6185C13.6134 91.6185 1.44994 91.9391 0.892204 106.749C0.892204 106.749 0.607402 104.492 0.619268 103.459H0.595535Z" fill="#13604E"/>
<path d="M0.597656 64.4463C11.3608 64.4463 20.0948 73.1872 20.0948 83.9589C20.0948 94.7306 11.3608 103.472 0.597656 103.472V64.4463Z" fill="#4DD3B8"/>
<path d="M0.597656 63.9473C11.6219 63.9473 20.5932 72.9257 20.5932 83.9587C20.5932 94.9917 11.6219 103.958 0.597656 103.958V63.9473ZM0.597656 102.973C11.076 102.973 19.5964 94.4454 19.5964 83.9587C19.5964 73.472 11.0642 64.933 0.597656 64.933V102.973Z" fill="#13604E"/>
<path d="M265.368 103.472C276.136 103.472 284.865 94.7354 284.865 83.9589C284.865 73.1824 276.136 64.4463 265.368 64.4463C254.6 64.4463 245.871 73.1824 245.871 83.9589C245.871 94.7354 254.6 103.472 265.368 103.472Z" fill="#4DD3B8"/>
<path d="M245.383 83.9587C245.383 72.9257 254.354 63.9473 265.378 63.9473C276.403 63.9473 285.374 72.9257 285.374 83.9587C285.374 94.9917 276.403 103.97 265.378 103.97C254.354 103.97 245.383 94.9917 245.383 83.9587ZM246.38 83.9587C246.38 94.4454 254.9 102.973 265.378 102.973C275.857 102.973 284.377 94.4454 284.377 83.9587C284.377 73.472 275.857 64.9449 265.378 64.9449C254.9 64.9449 246.38 73.472 246.38 83.9587Z" fill="#13604E"/>
<path d="M271.881 96.963C279.057 96.963 284.875 91.1407 284.875 83.9586C284.875 76.7764 279.057 70.9541 271.881 70.9541C264.704 70.9541 258.887 76.7764 258.887 83.9586C258.887 91.1407 264.704 96.963 271.881 96.963Z" fill="#13604E"/>
<path d="M284.864 83.9588C295.632 83.9588 304.361 75.2227 304.361 64.4462C304.361 53.6697 295.632 44.9336 284.864 44.9336C274.096 44.9336 265.367 53.6697 265.367 64.4462C265.367 75.2227 274.096 83.9588 284.864 83.9588Z" fill="#4DD3B8"/>
<path d="M264.867 64.446C264.867 53.413 273.838 44.4346 284.863 44.4346C295.887 44.4346 304.858 53.413 304.858 64.446C304.858 75.479 295.887 84.4574 284.863 84.4574C273.838 84.4574 264.867 75.479 264.867 64.446ZM265.864 64.446C265.864 74.9327 274.384 83.4598 284.863 83.4598C295.341 83.4598 303.861 74.9327 303.861 64.446C303.861 53.9593 295.341 45.4322 284.863 45.4322C274.384 45.4322 265.864 53.9593 265.864 64.446Z" fill="#13604E"/>
<path d="M284.864 122.984C295.632 122.984 304.361 114.248 304.361 103.472C304.361 92.6951 295.632 83.959 284.864 83.959C274.096 83.959 265.367 92.6951 265.367 103.472C265.367 114.248 274.096 122.984 284.864 122.984Z" fill="#4DD3B8"/>
<path d="M264.867 103.471C264.867 92.4384 273.838 83.46 284.863 83.46C295.887 83.46 304.858 92.4384 304.858 103.471C304.858 114.504 295.887 123.483 284.863 123.483C273.838 123.483 264.867 114.504 264.867 103.471ZM265.864 103.471C265.864 113.958 274.384 122.485 284.863 122.485C295.341 122.485 303.861 113.958 303.861 103.471C303.861 92.9847 295.341 84.4576 284.863 84.4576C274.384 84.4576 265.864 92.9847 265.864 103.471Z" fill="#13604E"/>
<path d="M304.362 64.4463C304.362 64.4463 304.813 52.4157 291.38 51.4419C277.804 50.4562 274.577 60.8241 274.221 62.653C273.793 64.8501 273.936 67.1066 275.917 70.2419C276.713 71.5008 278.611 74.2323 283.821 75.0162C283.821 75.0162 291.902 75.7525 293.528 67.7361C293.528 67.7361 294.169 62.178 288.912 61.1329C288.912 61.1329 287.333 60.8835 286.669 61.5485C286.669 61.5485 285.53 62.8431 286.906 63.6863C287.82 64.2444 289.813 64.0901 290.217 66.8216C290.597 69.3631 288.022 70.9189 286.692 71.3345C283.109 72.4628 280.64 71.7265 278.635 69.6719C278.635 69.6719 274.968 66.6553 276.926 61.1923C279.418 54.2447 285.636 52.2138 291.344 52.6058C291.344 52.6058 303.508 52.9264 304.065 67.7361C304.065 67.7361 304.35 65.4796 304.338 64.4463H304.362Z" fill="#13604E"/>
<path d="M304.362 103.459C304.362 103.459 304.813 91.4284 291.38 90.4546C277.804 89.4689 274.577 99.8368 274.221 101.666C273.793 103.863 273.936 106.119 275.917 109.255C276.713 110.514 278.611 113.245 283.821 114.029C283.821 114.029 291.902 114.765 293.528 106.749C293.528 106.749 294.169 101.191 288.912 100.146C288.912 100.146 287.333 99.8962 286.669 100.561C286.669 100.561 285.53 101.856 286.906 102.699C287.82 103.257 289.813 103.103 290.217 105.834C290.597 108.376 288.022 109.932 286.692 110.347C283.109 111.475 280.64 110.739 278.635 108.685C278.635 108.685 274.968 105.668 276.926 100.205C279.418 93.2574 285.636 91.2265 291.344 91.6185C291.344 91.6185 303.508 91.9391 304.065 106.749C304.065 106.749 304.35 104.492 304.338 103.459H304.362Z" fill="#13604E"/>
<path d="M304.36 64.4463C293.597 64.4463 284.863 73.1872 284.863 83.9589C284.863 94.7306 293.597 103.472 304.36 103.472V64.4463Z" fill="#4DD3B8"/>
<path d="M304.359 103.958C293.335 103.958 284.363 94.98 284.363 83.947C284.363 72.914 293.335 63.9355 304.359 63.9355V103.958ZM304.359 64.9331C293.88 64.9331 285.36 73.4603 285.36 83.947C285.36 94.4337 293.88 102.961 304.359 102.961V64.9331Z" fill="#13604E"/>
</g>
<path d="M12.4237 44.4346H292.575V123.566H12.4237V44.4346ZM12.4237 43.0332C11.6524 43.0332 11.0234 43.6626 11.0234 44.4346V123.566C11.0234 124.338 11.6524 124.967 12.4237 124.967H292.575C293.346 124.967 293.975 124.338 293.975 123.566V44.4346C293.975 43.6626 293.346 43.0332 292.575 43.0332H12.4237Z" fill="#0F594B"/>
</g>
<path d="M92.9586 63.3438H81.6695V62.0742H92.9586V63.3438ZM95.7711 75.0234H79.9508V73.7539H95.7711V75.0234ZM93.6422 63.9297C93.6422 64.8802 93.6324 65.7266 93.6129 66.4688C93.5933 67.2109 93.5347 68.0736 93.4371 69.0566C93.3394 70.0332 93.1929 71.0977 92.9976 72.25L91.4351 72.0938C91.65 71.013 91.8062 69.9909 91.9039 69.0273C92.0081 68.0638 92.0732 67.2044 92.0992 66.4492C92.1252 65.6875 92.1383 64.8411 92.1383 63.9102V63.8125V62.0742H93.6422V63.8125V63.9297ZM113.076 70.043H97.2359V68.8125H113.076V70.043ZM105.888 69.3398H104.404V66.0195H105.888V69.3398ZM111.22 66.7812H99.2476V65.5312H111.22V66.7812ZM111.103 62.2695H100.752V66.293H99.2476V61.0391H111.103V62.2695ZM105.146 71.3125C106.383 71.3125 107.448 71.4362 108.339 71.6836C109.231 71.931 109.915 72.2891 110.39 72.7578C110.872 73.2201 111.116 73.7799 111.123 74.4375C111.116 75.1016 110.875 75.6647 110.4 76.127C109.931 76.5892 109.248 76.944 108.349 77.1914C107.451 77.4453 106.383 77.5755 105.146 77.582C103.896 77.5755 102.822 77.4453 101.923 77.1914C101.025 76.944 100.338 76.5859 99.8629 76.1172C99.3876 75.6549 99.15 75.0951 99.15 74.4375C99.15 73.7799 99.3876 73.2201 99.8629 72.7578C100.338 72.2891 101.025 71.931 101.923 71.6836C102.822 71.4362 103.896 71.3125 105.146 71.3125ZM105.146 72.5234C104.222 72.5234 103.427 72.5983 102.763 72.748C102.099 72.8978 101.588 73.1191 101.23 73.4121C100.878 73.6986 100.706 74.0404 100.712 74.4375C100.706 74.8411 100.878 75.1862 101.23 75.4727C101.588 75.7591 102.099 75.9772 102.763 76.127C103.427 76.2767 104.222 76.3516 105.146 76.3516C106.058 76.3516 106.845 76.2767 107.509 76.127C108.173 75.9772 108.684 75.7591 109.043 75.4727C109.401 75.1862 109.58 74.8411 109.58 74.4375C109.58 74.0404 109.401 73.6986 109.043 73.4121C108.684 73.1191 108.173 72.8978 107.509 72.748C106.845 72.5983 106.058 72.5234 105.146 72.5234ZM128.095 73.0312H126.572V60.2188H128.095V73.0312ZM130.712 66.8008H127.607V65.5117H130.712V66.8008ZM128.896 77.2109H117.236V75.9219H128.896V77.2109ZM118.74 76.4297H117.236V71.7031H118.74V76.4297ZM119.404 61.4492C120.263 61.4492 121.041 61.6315 121.738 61.9961C122.434 62.3607 122.978 62.8685 123.369 63.5195C123.766 64.1641 123.968 64.8997 123.974 65.7266C123.968 66.5534 123.766 67.2923 123.369 67.9434C122.978 68.5879 122.434 69.0924 121.738 69.457C121.041 69.8216 120.263 70.0039 119.404 70.0039C118.551 70.0039 117.776 69.8216 117.08 69.457C116.39 69.0924 115.846 68.5846 115.449 67.9336C115.052 67.2826 114.853 66.5469 114.853 65.7266C114.853 64.8997 115.052 64.1641 115.449 63.5195C115.846 62.8685 116.39 62.3607 117.08 61.9961C117.77 61.6315 118.545 61.4492 119.404 61.4492ZM119.404 62.7969C118.837 62.7969 118.32 62.9206 117.851 63.168C117.389 63.4154 117.024 63.7637 116.757 64.2129C116.49 64.6621 116.357 65.1667 116.357 65.7266C116.357 66.2865 116.49 66.7878 116.757 67.2305C117.024 67.6732 117.389 68.0215 117.851 68.2754C118.32 68.5293 118.837 68.6562 119.404 68.6562C119.983 68.6562 120.504 68.5293 120.966 68.2754C121.435 68.0215 121.803 67.6732 122.07 67.2305C122.337 66.7878 122.47 66.2865 122.47 65.7266C122.47 65.1602 122.337 64.6556 122.07 64.2129C121.803 63.7637 121.435 63.4154 120.966 63.168C120.504 62.9206 119.983 62.7969 119.404 62.7969ZM149.795 63.2461H138.505V61.9766H149.795V63.2461ZM152.646 75.1211H136.826V73.8516H152.646V75.1211ZM144.541 74.5156H143.037V67.6406H144.541V74.5156ZM150.752 63.9297C150.739 65.3685 150.693 66.6543 150.615 67.7871C150.543 68.9199 150.374 70.2318 150.107 71.7227L148.545 71.5469C148.746 70.5443 148.893 69.5938 148.984 68.6953C149.082 67.7969 149.14 67.0156 149.16 66.3516C149.186 65.681 149.202 64.8411 149.209 63.832V63.7148V61.9766H150.752V63.7148V63.9297ZM159.052 63.6758C159.046 64.5352 158.877 65.3848 158.545 66.2246C158.219 67.0645 157.747 67.8229 157.128 68.5C156.51 69.1706 155.791 69.6849 154.97 70.043L154.13 68.8516C154.873 68.5326 155.524 68.0898 156.084 67.5234C156.643 66.9505 157.07 66.3288 157.363 65.6582C157.662 64.9876 157.815 64.3268 157.822 63.6758V61.3125H159.052V63.6758ZM159.287 63.6758C159.293 64.3203 159.44 64.9518 159.726 65.5703C160.019 66.1823 160.433 66.7357 160.966 67.2305C161.507 67.7253 162.138 68.1094 162.861 68.3828L162.06 69.5547C161.227 69.2357 160.511 68.7767 159.912 68.1777C159.313 67.5723 158.854 66.8822 158.535 66.1074C158.222 65.3327 158.069 64.5221 158.076 63.6758V61.3125H159.287V63.6758ZM168.857 70.9609H167.392V60.2383H168.857V70.9609ZM167.88 66.1758H164.56V64.9062H167.88V66.1758ZM165.087 70.4141H163.642V60.5703H165.087V70.4141ZM163.115 71.3516C164.306 71.3516 165.338 71.472 166.211 71.7129C167.089 71.9538 167.767 72.3086 168.242 72.7773C168.717 73.2461 168.955 73.806 168.955 74.457C168.955 75.1016 168.717 75.6517 168.242 76.1074C167.767 76.5697 167.089 76.9245 166.211 77.1719C165.338 77.4193 164.306 77.543 163.115 77.543C161.917 77.543 160.878 77.4193 160 77.1719C159.121 76.9245 158.447 76.5697 157.978 76.1074C157.516 75.6517 157.288 75.1016 157.295 74.457C157.288 73.806 157.516 73.2461 157.978 72.7773C158.447 72.3086 159.121 71.9538 160 71.7129C160.878 71.472 161.917 71.3516 163.115 71.3516ZM163.115 72.5234C162.229 72.5234 161.464 72.6016 160.82 72.7578C160.175 72.9141 159.677 73.1387 159.326 73.4316C158.981 73.7181 158.811 74.0599 158.818 74.457C158.811 74.8477 158.981 75.1862 159.326 75.4727C159.677 75.7591 160.175 75.9772 160.82 76.127C161.464 76.2767 162.229 76.3516 163.115 76.3516C163.987 76.3516 164.749 76.2767 165.4 76.127C166.051 75.9772 166.549 75.7591 166.894 75.4727C167.246 75.1862 167.425 74.8477 167.431 74.457C167.425 74.0599 167.246 73.7181 166.894 73.4316C166.549 73.1387 166.051 72.9141 165.4 72.7578C164.749 72.6016 163.987 72.5234 163.115 72.5234ZM184.97 73.2461H183.447V60.2383H184.97V73.2461ZM187.587 67.25H184.482V65.9609H187.587V67.25ZM181.787 63.6172H171.435V62.3672H181.787V63.6172ZM176.611 64.5742C177.431 64.5742 178.157 64.7077 178.789 64.9746C179.42 65.2415 179.908 65.6191 180.253 66.1074C180.605 66.5957 180.784 67.1654 180.791 67.8164C180.784 68.4609 180.605 69.0273 180.253 69.5156C179.908 69.9974 179.42 70.3685 178.789 70.6289C178.157 70.8893 177.431 71.0195 176.611 71.0195C175.778 71.0195 175.045 70.8893 174.414 70.6289C173.782 70.3685 173.294 69.9974 172.949 69.5156C172.604 69.0273 172.431 68.4609 172.431 67.8164C172.431 67.1654 172.604 66.5957 172.949 66.1074C173.294 65.6191 173.782 65.2415 174.414 64.9746C175.045 64.7077 175.778 64.5742 176.611 64.5742ZM176.611 65.7852C176.071 65.7852 175.592 65.8665 175.175 66.0293C174.765 66.1921 174.449 66.4297 174.228 66.7422C174.007 67.0482 173.896 67.4062 173.896 67.8164C173.896 68.2201 174.007 68.5716 174.228 68.8711C174.449 69.1706 174.765 69.4049 175.175 69.5742C175.592 69.737 176.071 69.8151 176.611 69.8086C177.145 69.8151 177.62 69.737 178.037 69.5742C178.453 69.4049 178.772 69.1706 178.994 68.8711C179.222 68.5716 179.339 68.2201 179.345 67.8164C179.339 67.4062 179.222 67.0482 178.994 66.7422C178.772 66.4297 178.453 66.1921 178.037 66.0293C177.62 65.8665 177.145 65.7852 176.611 65.7852ZM177.373 63.0117H175.849V60.2383H177.373V63.0117ZM185.771 77.2109H174.111V75.9219H185.771V77.2109ZM175.615 76.4492H174.111V72.2109H175.615V76.4492ZM202.47 69.7891H194.443V61.8008H202.47V69.7891ZM195.947 68.5586H200.986V63.0508H195.947V68.5586ZM207.275 72.9531H205.752V60.2188H207.275V72.9531ZM209.892 66.8008H206.787V65.5117H209.892V66.8008ZM208.076 77.2109H196.416V75.9219H208.076V77.2109ZM197.92 76.4492H196.416V71.7422H197.92V76.4492ZM224.287 62.25H212.998V60.9805H224.287V62.25ZM226.865 69.457H210.986V68.168H226.865V69.457ZM224.795 62.3867C224.795 63.526 224.762 64.5579 224.697 65.4824C224.632 66.4004 224.475 67.4583 224.228 68.6562L222.705 68.4805C222.88 67.6927 223.007 66.9538 223.086 66.2637C223.17 65.5671 223.222 64.9518 223.242 64.418C223.261 63.8776 223.271 63.2461 223.271 62.5234V62.3867V60.9805H224.795V62.3867ZM212.783 65.9414L212.587 64.6523L223.74 64.3008V65.4141L212.783 65.9414ZM224.873 77.3477H212.939V71.4492H224.873V77.3477ZM214.462 76.0977H223.349V72.6797H214.462V76.0977ZM94.3453 100.105H92.8023V91.2188H94.3453V100.105ZM88.9547 92.0977C88.9547 93.5234 88.6324 94.7962 87.9879 95.916C87.3433 97.0293 86.4091 97.9701 85.1851 98.7383C83.9677 99.5 82.5028 100.086 80.7906 100.496L80.2437 99.2266C81.7476 98.875 83.0237 98.3932 84.0719 97.7812C85.1265 97.1693 85.9273 96.4466 86.4742 95.6133C87.0211 94.7734 87.2945 93.8424 87.2945 92.8203V92.0977H88.9547ZM87.9781 93.3672H81.1226V92.0977H87.9781V93.3672ZM93.0562 94.9883H88.3297V93.7578H93.0562V94.9883ZM92.9586 98.2891H88.1734V97.0781H92.9586V98.2891ZM94.3453 105.125H84.6578V107.938H83.1344V103.953H92.8023V102.137H83.0953V100.887H94.3453V105.125ZM94.9312 108.426H83.1344V107.156H94.9312V108.426ZM105.966 94.4023H98.0367V93.1523H105.966V94.4023ZM102.314 103.992H100.81V98.1133H102.314V103.992ZM106.865 94.1875C106.858 95.2422 106.823 96.2904 106.757 97.332C106.699 98.3737 106.565 99.5781 106.357 100.945L104.814 100.809C105.035 99.4609 105.175 98.2793 105.234 97.2637C105.293 96.2415 105.322 95.2031 105.322 94.1484V94.0508V93.1523H106.865V94.0508V94.1875ZM110.634 108.582H109.111V91.2188H110.634V108.582ZM113.447 99.8125H110.224V98.4844H113.447V99.8125ZM97.0601 103.484C99.1695 103.471 101.126 103.432 102.929 103.367C104.733 103.296 106.429 103.165 108.017 102.977L108.095 104.129C106.448 104.383 104.707 104.555 102.871 104.646C101.035 104.731 99.163 104.767 97.2554 104.754L97.0601 103.484ZM130.42 106.434H114.521V105.145H130.42V106.434ZM123.173 105.711H121.67V101.414H123.173V105.711ZM128.408 97.7617H118.037V101.277H116.513V96.5117H126.904V93.7773H116.474V92.5078H128.408V97.7617ZM128.818 101.863H116.513V100.594H128.818V101.863ZM152.724 106.355H136.826V105.086H152.724V106.355ZM145.478 105.477H143.974V100.887H145.478V105.477ZM140.244 95.5938H149.267V92.4492H150.771V101.336H138.701V92.4492H140.244V95.5938ZM149.267 100.086V96.8438H140.244V100.086H149.267ZM167.685 100.477H166.162V91.2188H167.685V100.477ZM170.302 96.5898H167.255V95.3008H170.302V96.5898ZM156.279 98.6016C158.173 98.6016 159.69 98.5625 160.83 98.4844C161.975 98.4062 163.115 98.25 164.248 98.0156L164.443 99.2852C163.258 99.5195 162.073 99.679 160.888 99.7637C159.71 99.8483 158.173 99.8906 156.279 99.8906H154.931V98.6016H156.279ZM162.627 93.6406H156.455V99.4805H154.931V92.3711H162.627V93.6406ZM158.212 103.582H166.162V101.414H167.685V108.289H156.689V101.414H158.212V103.582ZM166.162 107.02V104.812H158.212V107.02H166.162ZM184.97 101.375H183.447V91.2188H184.97V101.375ZM187.587 96.707H184.541V95.418H187.587V96.707ZM173.642 94.8711H178.701V92.2148H180.224V100.281H172.138V92.2148H173.642V94.8711ZM178.701 99.0508V96.1016H173.642V99.0508H178.701ZM185.107 103.582H175.595V107.977H174.072V102.352H185.107V103.582ZM185.439 108.348H174.072V107.098H185.439V108.348ZM202.724 97.7227H190.83V96.4922H202.724V97.7227ZM204.56 101.336H188.662V100.086H204.56V101.336ZM192.353 97.1172H190.83V91.8633H192.353V97.1172ZM202.822 108.152H190.732V106.883H202.822V108.152ZM192.255 107.254H190.732V103.113H192.255V107.254ZM225.38 102.996H223.837V91.2383H225.38V102.996ZM224.17 97.4102H220.029V96.1211H224.17V97.4102ZM219.951 92.6055C219.951 94.0703 219.635 95.4049 219.003 96.6094C218.372 97.8073 217.457 98.849 216.259 99.7344C215.068 100.613 213.636 101.323 211.962 101.863L211.279 100.633C212.757 100.177 214.023 99.5846 215.078 98.8555C216.139 98.1263 216.949 97.2832 217.509 96.3262C218.069 95.3691 218.349 94.3307 218.349 93.2109V92.6055H219.951ZM219.423 93.8555H212.138V92.6055H219.423V93.8555ZM220.302 102.273C220.302 103.348 220.003 104.318 219.404 105.184C218.805 106.043 218.007 106.756 217.011 107.322C216.015 107.889 214.918 108.289 213.72 108.523L213.095 107.312C214.137 107.13 215.107 106.801 216.005 106.326C216.904 105.851 217.623 105.262 218.164 104.559C218.711 103.855 218.987 103.094 218.994 102.273V101.473H220.302V102.273ZM220.498 102.273C220.498 103.087 220.768 103.839 221.308 104.529C221.849 105.213 222.561 105.792 223.447 106.268C224.332 106.736 225.296 107.065 226.337 107.254L225.693 108.484C224.515 108.257 223.431 107.859 222.441 107.293C221.458 106.733 220.67 106.023 220.078 105.164C219.485 104.305 219.189 103.341 219.189 102.273V101.473H220.498V102.273Z" fill="white"/>
<path d="M16.9613 11.4448H13.7431V10.1602H16.9613V11.4448ZM14.1436 20.5746H12.6105V3.22652H14.1436V20.5746ZM2.94199 15.6713H1.42265V4.93923H2.94199V15.6713ZM2.80387 14.884C4.18508 14.884 5.53867 14.8241 6.86464 14.7044C8.19521 14.5801 9.55341 14.3729 10.9392 14.0829L11.1326 15.395C9.71455 15.6759 8.32643 15.8762 6.96823 15.9959C5.61464 16.111 4.22652 16.1685 2.80387 16.1685H1.42265V14.884H2.80387ZM19.8266 19.1105C19.601 19.1105 19.3892 19.0529 19.1912 18.9378C18.9979 18.8227 18.8436 18.6708 18.7285 18.482C18.618 18.2887 18.5651 18.0792 18.5697 17.8536C18.5651 17.628 18.618 17.4185 18.7285 17.2251C18.8436 17.0272 18.9979 16.8729 19.1912 16.7624C19.3892 16.6519 19.601 16.5967 19.8266 16.5967C20.0522 16.5967 20.2617 16.6519 20.455 16.7624C20.653 16.8729 20.8073 17.0272 20.9178 17.2251C21.0283 17.4185 21.0835 17.628 21.0835 17.8536C21.0835 18.0792 21.0283 18.2887 20.9178 18.482C20.8073 18.6708 20.653 18.8227 20.455 18.9378C20.2617 19.0529 20.0522 19.1105 19.8266 19.1105Z" fill="white"/>
<defs>
<clipPath id="clip0_533_1319">
<rect width="305" height="104" fill="white" transform="translate(0 32)"/>
</clipPath>
</defs>
</svg>
